<?xml version="1.0" encoding="utf-8"?>
<!-- Generator: Adobe Illustrator 23.0.3, SVG Export Plug-In . SVG Version: 6.00 Build 0)  -->
<svg version="1.1" id="Layer_1" xmlns="http://www.w3.org/2000/svg" xmlns:xlink="http://www.w3.org/1999/xlink" x="0px" y="0px"
	 viewBox="0 0 2272.8 1827.9" style="enable-background:new 0 0 2272.8 1827.9;" xml:space="preserve">
<style type="text/css">
	.st0{fill:#2C2B3C;}
	.st1{fill:#F69A91;}
	.st2{fill:#F3C46E;}
	.st3{fill:#5DAEE5;}
	.st4{fill:#FFFFFF;}
	.st5{fill:#C2E3F9;}
	.st6{fill:#3F6686;}
	.st7{fill:#F4EEDB;}
	.st8{fill:#355786;}
	.st9{fill:#F4D2B4;}
	.st10{fill:#F69B70;}
	.st11{opacity:0.66;fill:#F2F2F2;}
	.st12{opacity:0.53;}
	.st13{fill:#E3648A;}
	.st14{opacity:0.69;}
	.st15{opacity:0.92;}
	.st16{fill:#CD3D50;}
	.st17{fill:#DC5150;}
	.st18{fill:#C18F84;}
	.st19{fill:#2C243C;}
</style>
<g>
	<g>
		<path class="st0" d="M1193.8,1055.3c-3.6-8-11.5-13.8-17.9-20.3c-7.8-8-9.3-16.9-9.3-26.8c0-7.1-12.3-49.7-40.4-58.2
			c12.3-11.9,20.7-28.1,9-43.3c-6.7-8.7-17.8-12-28.5-9.9c-11.1,2.2-19.9,10.6-23.9,21.1c-3.9,10.4-2.4,21.6,0.7,32.2
			c-50.1-6.7-60.1,67.1-60,76.1c0,4.4,0.4,9.2-1.8,13.5c-2.3,4.5-7.4,7.7-11.5,11.2c-12.6,10.9-15.2,27.4-5.6,39.7
			c1.1,0.8,2.4,1.5,3.7,2c3.7,1.4,7.3,0.5,11.1-0.1c3.1-0.4,6.2-0.3,9.1,0.9c3.6,1.5,6.5,3.4,10.5,3.5c6.3,0.2,12.3-2.6,18.1-4.7
			c5.9-2.1,12-3.7,18.3-2.8c3.6,0.6,7,2.2,10.4,3.6c4.5,1.8,9,3.5,13.6,4.9c9.1,2.7,18.7,4.1,28.1,2c4-0.9,7.5-2.4,10.9-4.9
			c3.1-2.3,6-4.9,9.4-6.7c3.8-1.9,7.6-2.4,11.7-1.7c12.8,2.3,26.9-7,28.5-8.9C1194.3,1070.6,1197.4,1063.5,1193.8,1055.3z"/>
		<path class="st1" d="M1065.3,1125.4c7.8,15.7,21.3,18.1,36,16.3c6.7-0.8,21.8-11.1,21-19.1c-0.7-7-1.6-25.8-2.6-34.5
			c-0.1-1.2-0.3-2.4-0.4-3.6c-0.6-5.4-1.2-10.7-1.7-15.3c-0.3-2.5-0.6-4.8-0.8-6.9c-0.7-5.4-1.2-9.1-1.5-10l-42.1-22.2
			L1065.3,1125.4z"/>
		<path class="st1" d="M1158.1,1055.5c-3.1,11.7-17.2,16.2-26.7,11.7c-11.2,15-30.8,23.2-47.9,19.9c-10.7-2-20-8.2-26.8-16.8
			c-8.7,2.2-18.1,2.8-25.3-3.6c-6.3-5.7-9-15.4-5.6-24.1c2.9-7.6,10-12.7,17.1-13.9c0.6-0.1,1.3-0.2,1.9-0.2
			c5.5-53.5,77.4-65.8,91.9-14c0.9,3.2,4,9.3,4.2,19.7C1151.2,1033.6,1161.6,1042.7,1158.1,1055.5z"/>
		<path class="st0" d="M1151.5,1050.6c-1.3-5.6-7.7-8.2-12.1-5.2c-1.8,1.2-0.3,4.4,1.6,3.2c2.5-1.7,6.1-0.6,7.2,2.4
			c1.4,3.7-2.5,7.8-5.8,7.1c-2.1-0.4-3,3.1-0.9,3.6C1146.9,1062.8,1152.9,1057,1151.5,1050.6z"/>
		<path class="st0" d="M1045.3,1054.7c-2.7,1.1-6.2-0.2-7-3.5c-0.9-3.5,2.5-7.1,5.6-6.4c2,0.5,2.9-3,0.9-3.6
			c-5.1-1.3-10.5,3.9-9.9,9.8c0.6,5.7,6.4,9.1,11.2,7.2C1048,1057.4,1047.3,1053.9,1045.3,1054.7z"/>
		<path class="st0" d="M1074.8,1016.6c-4.7-0.4-9.1,1.6-12.3,5.4c-1.8,2,1.4,4.5,3.2,2.5c2.3-2.6,5.5-3.9,8.7-3.6
			C1076.9,1021.1,1077.4,1016.8,1074.8,1016.6z"/>
		<path class="st0" d="M1121.2,1023.7c-3.7-3.8-8.6-5.8-13.8-5.7c-2.5,0.1-3,4.3-0.4,4.3c4.6-0.1,8.6,1.5,11.9,4.9
			C1120.7,1029,1123,1025.5,1121.2,1023.7z"/>
		<path class="st0" d="M1091.5,1026.3c-0.6,4-2,7.5-4.2,10.8c-1.2,1.8,1.3,3.7,2.5,1.9c2.6-3.7,4.2-7.9,4.8-12.4
			C1094.9,1024.4,1091.8,1024.1,1091.5,1026.3z"/>
		<path class="st0" d="M1105.1,1090c7-2.2,13.4-5.8,19-10.7c-0.4-1.1,1.3-3.9,0.9-5c-5.5,4.9-13.8,10.1-20.6,12.3
			C1102.4,1087.2,1103.1,1090.6,1105.1,1090z"/>
		<path class="st0" d="M1076.2,1031.3c-2.4,3.5-7.3,3.1-9.3-0.5c-0.8-1.5-3.1-0.2-2.2,1.3c3,5.5,10.3,5.6,13.8,0.5
			C1079.4,1031.2,1077.1,1029.9,1076.2,1031.3z"/>
		<path class="st0" d="M1116.7,1033c-2.4,3.8-8,3.4-9.6-0.9c-0.6-1.5-3.1-0.9-2.5,0.7c2.5,6.4,10.7,7.4,14.4,1.5
			C1119.9,1032.9,1117.6,1031.6,1116.7,1033z"/>
		<path class="st2" d="M1045.3,1068.6c-1.4,0.1-2.6,1.1-2.6,2.6v0.2c0,1.4,1.2,2.7,2.6,2.6c1.4-0.1,2.6-1.1,2.6-2.6v-0.2
			C1047.9,1069.8,1046.7,1068.5,1045.3,1068.6z"/>
		<path class="st2" d="M1143.8,1067.4c-0.2-0.1-0.3-0.3-0.5-0.4c-0.5-0.5-1.1-0.8-1.8-0.8c-0.6,0-1.4,0.3-1.8,0.8
			c-0.9,1-1.1,2.7,0,3.7c0.2,0.1,0.3,0.3,0.5,0.4c0.5,0.5,1.1,0.8,1.8,0.8c0.6,0,1.4-0.3,1.8-0.8
			C1144.6,1070.1,1144.9,1068.3,1143.8,1067.4z"/>
		<path class="st0" d="M1132.7,997.2C1132.7,997.2,1132.7,997.3,1132.7,997.2c1.8,1.9,5-0.5,3.2-2.3c-4.2-4.5-9.1-8.3-14.4-11.2
			c0-0.2,0.1-0.5,0.1-0.7c0.5-2.3-2.8-2.9-3.7-1.1c-9.8-4.4-20.8-6.1-31.6-4.4c-2.4,0.4-2,4,0.2,3.9c-1.1,4.3-1.8,9.6,0.4,13.4
			c2.6,4.6,8.3,4.3,12.8,3.6c1.1-0.2,1.8-1.1,1.7-2.2c-0.2-2.9,0.1-5.6,0.8-8.3c0.6,8.1,3.6,15.8,13.2,17.1c1.1,0.2,2-0.7,2.2-1.7
			c0.7-3.6,1.4-7.1,2.1-10.7c1,6.4,3.6,12.4,7.6,17.5c1.1,1.4,3.3,0.7,3.5-1C1131.5,1005.2,1132.1,1001.2,1132.7,997.2z"/>
		<path class="st0" d="M1095.1,1058.4h-9.4c-3,0-3,4.7,0,4.7h9.4C1098.1,1063.1,1098.1,1058.4,1095.1,1058.4z"/>
	</g>
	<path class="st3" d="M1530.9,1647.7c-21.2-20.8-47.5-37-74-52.8c-26.1-15.5-52.2-31.3-79.3-45.5c-28.2-14.8-144.7-80.2-167.9-84.2
		c-0.5-3.5-245.7-1.7-250.8,0c-67,22.1-178.7,93-233,132.5c-51.3,37.4-104.8,76-129.8,130.5c-0.7,1.4-12.8,54.5,31.3,81
		c42.5,25.5,95.7,20.6,141.7,10.4c57.8-12.9,113.6-32.3,165.7-57.2c26-12.4,117-59.1,143.1-71.4c32.3-15.2-2.3,3.8,30.8,16.4
		c26.8,10.2,26.5,23.5,51.5,36.1c24.1,12.2,213.1,89,359.6,62.4c22-4,35.8-24.1,44.6-41.6C1584.4,1724.6,1562,1678.2,1530.9,1647.7z
		"/>
	<path class="st1" d="M1212.5,1649.1c-27-10-112.8-6.4-119.2-6.8c-11.4-0.8-14.4-6.1-18.4-13.9c-8.4-16.2-15.7-20.3-34.7-16.7
		c-16.4,3.1-29,9.9-45.9,10.5c-18.5,0.7-50.1-2.3-68.5,0c-21.6,2.7,0,33.7,54,38c21.3,1.7,42.4,7.2,59.5,18
		c16.1,10.1,116.2,69,121,65.5C1183.3,1726.6,1215.2,1650.1,1212.5,1649.1z"/>
	<path class="st1" d="M1254.9,1577.5c-2.7-4-8.2-4.7-12.6-3.3c-17.3,5.6-29.6,4.3-46.2,12.2c-21.2,10.1-39.1,6-55.9,6.9
		c-19.5,1-35.1,7.6-38.3,25.2c-1.5,8.5-2.7,14.3-13.5,17.7c-1.2,0.4-6,1.2-13,2.5c6.8,2.8,12.3,5,12.7,5.2c0.2,0.1,0.3,0.1,0.4,0.2
		c12.4,7.8,24.2,16.2,35.4,25.3c0.3,0.3,0.6,0.5,0.8,0.7c1.1,1.1,3.8,4.3,7.2,8.3c9.2-9.4,16.4-17,19.6-20.5
		c13.2-14.3,31.5-25.3,51.7-31.2C1219.9,1622.1,1266.3,1594.5,1254.9,1577.5z"/>
	<path class="st1" d="M1528.2,1627.2c-3.9-5.8-10.3-7-16.4-10c-2.8-1.4-5.6-2.8-8.4-4.2c1-0.4,1.8-1,2.5-1.5c3.2-2.6,3.6-6.2,3.9-10
		c0.3-4.4,0.5-8.8,0.8-13.3c0.1-1.7-0.7-3.1-1.8-4.1c0.2-1,0.3-1.9,0.2-2.8c-1.7-13.3-17.4-16.3-28.8-16.1
		c-16.9,0.3-32.2,8.3-48.7,11.1c-3.9,0.7-6.3,6.8-2.3,9.1c0.3,0.2,0.6,0.3,0.9,0.4c-0.4,1.1-0.5,2.4-0.2,3.7c-3,0.4-5.6,2.2-5.7,5.9
		c-0.5,15.3,14.3,29.7,25.4,38.8c13.5,10.9,29,16.8,45.8,20.8c3.8,0.9,4.7-4.8,1.6-6.3c-3.3-1.6-6.6-3.4-9.9-5.2
		c9.1,2.9,18.6,4.7,28,6.2c4.8,0.8,8-6.4,3.6-9.1c-4.8-3-10-5.4-15.3-7.9c8.8,3,17.8,4.1,24.4-0.9
		C1529.2,1630.6,1529.2,1628.6,1528.2,1627.2z M1486.2,1586.5c5.5,1.2,8.4,3.4,13.4,3.9l-1.2,4.2c-0.4,1.4-0.6,3.7-1.2,5.4
		c-4.2,1-8.6-1.1-12.7,0.7c-0.3,0.2-0.6,0.3-0.9,0.5c-4.8-3.8-10.1-9-15.6-13.3C1474,1586.7,1480.1,1585.2,1486.2,1586.5z"/>
	<path class="st1" d="M635.7,1618.8c5.3,6.3,14.4,7.2,23.6,6.1c-5.7,1.3-11.3,2.6-16.6,4.5c-4.8,1.7-3.3,9.4,1.6,9.7
		c9.4,0.6,19.1,0.8,28.6-0.1c-3.6,1.1-7.2,2.1-10.7,3c-3.4,0.8-3.7,6.5,0.2,6.5c17.3-0.4,33.6-2.8,49.2-10.5
		c12.8-6.4,30.3-17.3,33.1-32.4c0.7-3.6-1.5-6-4.3-7c0.6-1.2,0.7-2.5,0.6-3.7c0.3-0.1,0.6-0.1,0.9-0.2c4.4-1.4,3.4-7.9-0.3-9.4
		c-15.5-6.3-28.7-17.4-45.2-21.3c-11.1-2.6-27.1-3.1-31.6,9.5c-0.3,0.9-0.4,1.8-0.4,2.8c-1.3,0.7-2.4,2-2.7,3.7
		c-0.7,4.4-1.4,8.8-2.1,13.1c-0.6,3.8-0.9,7.4,1.6,10.6c0.6,0.7,1.3,1.4,2.2,2.1c-3,0.8-6,1.5-9.1,2.3c-6.6,1.6-13.2,1.4-18.2,6.3
		C634.9,1615.4,634.5,1617.4,635.7,1618.8z M703.4,1588.7c-6.3,3-12.6,7-18.1,9.7c-0.2-0.3-0.5-0.5-0.8-0.7
		c-3.6-2.7-8.4-1.6-12.3-3.4c-0.2-1.8,0-4,0-5.5l-0.2-4.4c5,0.7,8.4-0.9,13.9-0.9C692.2,1583.5,697.8,1586.3,703.4,1588.7z"/>
	<path class="st1" d="M1449.1,1579.4l-17.3,36.8l-222-140.3l-224.9,0.6L735,1621.2l-8.8-41.8c0,0,115.6-115.3,137.2-159.5
		c18-36.9,10.8-216.4,136.4-276.3c6.4-3.1,13.2-5.8,20.3-8.2c20.4-6.9,43.8-10.9,70.8-11.3c30.2-0.4,56.6,4.7,79.7,13.8
		c10.5,4.1,20.3,8.9,29.3,14.7c102.4,65.8,129.6,260.1,129.6,260.1L1449.1,1579.4z"/>
	<path class="st4" d="M1205.7,1360.2c0,0,19.4,65.1,38.9,98.6c19.5,33.5,48.3,69.6,48.3,69.6l-83.1-52.5c0,0-11.4-46.6-14.4-53
		c-3-6.4-11.4-64.8-11.4-64.8L1205.7,1360.2z"/>
	<path class="st4" d="M986.8,1352.9c0,0-18.5,74.4-37.9,107.9c-19.5,33.5-50.9,66-50.9,66l85.7-48.9c0,0,11.4-46.6,14.4-53
		c3-6.4,11.4-64.8,11.4-64.8L986.8,1352.9z"/>
	<path class="st5" d="M1227.2,1328l-26.7,63.8h0l-7.6,18.1h-191.1l-7-15.9l-24.4-55.4c-11.2-29.1-7.7-47,0-69.4
		c8-23.1,14.4-46.8,18.9-70.8l10.3-54.7c6.4-3.1,23.4-9.2,23.4-9.2s17,62.8,70.5,68.2c47.6,4.8,72.1-52,76.9-64.7
		c10.5,4.1,20.2,9.1,29.3,14.7l18.6,90.6C1224.4,1272.4,1235.4,1299.3,1227.2,1328z"/>
	<path class="st5" d="M1193,1432.7l-190.7-0.7c-4.1,0-7.4-3.2-7.4-7.1v-40.4l205.7,7.3v33.8
		C1200.5,1429.5,1197.1,1432.7,1193,1432.7z"/>
	<path class="st0" d="M1211.7,1327.9c-32.6,23-73.3,6.4-109.2,4.3c-19.3-1.1-36.6,4-55.2,8.3c-18.2,4.2-39.5,5.6-54.1-8.3
		c-2.1-2-5.4,1.2-3.2,3.2c11.9,11.4,28.6,13.9,44.5,12c22.1-2.6,42.5-11.7,65.1-10.8c37.7,1.4,80,19.4,114.3-4.8
		C1216.4,1330.2,1214.1,1326.2,1211.7,1327.9z"/>
	<path class="st0" d="M1012.7,1412.4c-0.7-4.4-1.4-8.8-2-13.2c-0.4-2.9-4.9-1.7-4.4,1.2c0.7,4.4,1.4,8.8,2,13.2
		C1008.7,1416.5,1013.2,1415.3,1012.7,1412.4z"/>
	<path class="st0" d="M1019.4,1399.7v14.3c0,3,4.6,3,4.6,0v-14.3C1024,1396.8,1019.4,1396.8,1019.4,1399.7z"/>
	<path class="st0" d="M1170.5,1397.6c-2.3,4.1-3.5,8.7-3.4,13.4c0.1,2.9,4.7,3,4.6,0c-0.1-4,0.8-7.6,2.7-11.1
		C1176,1397.3,1172,1395,1170.5,1397.6z"/>
	<path class="st0" d="M1182.9,1400.8c-1-0.6-2.6-0.3-3.1,0.8c-1,2.4-2,4.8-3.1,7.1c-0.5,1.1-0.3,2.5,0.8,3.1c1,0.6,2.6,0.3,3.1-0.8
		c1-2.4,2-4.8,3.1-7.1C1184.2,1402.8,1184,1401.5,1182.9,1400.8z"/>
	<path class="st0" d="M1154.3,1407.9c-0.3-3.1-0.7-6.1-1-9.2c-0.3-2.9-4.9-2.9-4.6,0c0.3,3.1,0.7,6.1,1,9.2
		C1150,1410.8,1154.6,1410.8,1154.3,1407.9z"/>
	<path class="st0" d="M1292.9,1426c-5.8,0.6-10.5,4.1-12.8,9.5c-1.1,2.6,3.1,3.7,4.2,1.2c1.4-3.5,4.9-6,8.6-6.3
		C1295.7,1430.1,1295.7,1425.7,1292.9,1426z"/>
	<path class="st0" d="M1098.3,1450.9c-2.3-1.5-4.5,2.2-2.2,3.7c1.7,1.1,2.6,3.3,2.2,5.3c-0.6,2.7,3.6,3.9,4.2,1.2
		C1103.3,1457,1101.7,1453.1,1098.3,1450.9z"/>
	<path class="st0" d="M912.1,1435.9c-5.3-1.5-10.7-0.8-15.5,1.9c-2.4,1.4-0.3,5.1,2.2,3.7c3.8-2.1,8-2.6,12.2-1.5
		C913.6,1440.8,914.8,1436.6,912.1,1435.9z"/>
	<path class="st0" d="M1428.4,1591.6c-2.6,4.8-2.6,10.1-0.4,15c1.2,2.5,4.9,0.3,3.7-2.2c-1.6-3.4-1.4-7.3,0.4-10.6
		C1433.5,1591.4,1429.7,1589.2,1428.4,1591.6z"/>
	<path class="st0" d="M740.2,1597.4l-0.6,11c-0.1,2.8,4.2,2.8,4.3,0l0.6-11C744.6,1594.7,740.3,1594.7,740.2,1597.4z"/>
	<path class="st0" d="M1157.1,1642.8c-19.9,0.5-39.7-0.5-59.4-3.1c-2.8-0.4-2.7,4,0,4.3c19.7,2.6,39.6,3.6,59.4,3.1
		C1159.9,1647,1159.9,1642.7,1157.1,1642.8z"/>
	<path class="st0" d="M1065.9,1649c-2.7-5.4-8.7-8.1-14.5-7.1c-2.7,0.5-1.6,4.7,1.2,4.2c4-0.7,7.8,1.5,9.6,5.1
		C1063.4,1653.7,1067.1,1651.5,1065.9,1649z"/>
	<path class="st0" d="M1435.4,1675.4c-50.6-21.1-105.6-30.5-160.4-27.6c-2.8,0.1-2.8,4.5,0,4.3c54.4-2.9,108.9,6.5,159.2,27.4
		C1436.9,1680.6,1438,1676.4,1435.4,1675.4z"/>
	<path class="st0" d="M1474.6,1695.6c-5.5-3.2-11-6.3-16.5-9.5c-2.4-1.4-4.6,2.3-2.2,3.7c5.5,3.2,11,6.3,16.5,9.5
		C1474.8,1700.7,1477,1697,1474.6,1695.6z"/>
	<path class="st0" d="M1531,1776.7c-7.9,3.2-17.1,0.6-21.8-6.7c-1.5-2.3-5.3-0.2-3.7,2.2c5.7,8.8,16.9,12.6,26.7,8.7
		C1534.7,1779.8,1533.5,1775.6,1531,1776.7z"/>
	<path class="st0" d="M807.2,1633.3c-35.4,5.1-69.4,17.1-100.3,35.1c-2.4,1.4-0.2,5.2,2.2,3.7c30.6-17.8,64.2-29.6,99.3-34.7
		C811.1,1637.1,809.9,1632.9,807.2,1633.3z"/>
	<path class="st0" d="M861.8,1625.8l-26.9,4.1c-2.7,0.4-1.6,4.6,1.2,4.2c9-1.4,17.9-2.8,26.9-4.1
		C865.7,1629.6,864.6,1625.4,861.8,1625.8z"/>
	<path class="st0" d="M662.2,1756.2c-3-6.9-10.6-10.6-18-9.2c-2.7,0.5-1.6,4.7,1.2,4.2c5.6-1.1,10.9,2.1,13.1,7.2
		C659.5,1760.9,663.3,1758.7,662.2,1756.2z"/>
	<path class="st0" d="M1030.1,1550.9c-13.7-5.4-24.7-15.8-31.2-29c-1.2-2.5-5-0.3-3.7,2.2c7,14.3,19.1,25.1,33.8,31
		C1031.6,1556.1,1032.7,1551.9,1030.1,1550.9z"/>
	<path class="st0" d="M1198.6,1508.4c-0.9,8-5.8,14.7-12.9,18.4c-2.5,1.3-0.3,5,2.2,3.7c8.6-4.4,14-12.6,15.1-22.2
		C1203.2,1505.6,1198.9,1505.7,1198.6,1508.4z"/>
	<path class="st0" d="M1006,1149.8c-0.8,5.8-1.6,11.5-2.5,17.3c-0.3,2.2,3,3.1,3.3,0.9c0.8-5.8,1.6-11.5,2.5-17.3
		C1009.7,1148.5,1006.3,1147.6,1006,1149.8z"/>
	<path class="st0" d="M1001.2,1179.1c-0.4,3.3-0.8,6.5-1.2,9.8c-0.3,2.2,3.2,2.2,3.5,0c0.4-3.3,0.8-6.5,1.2-9.8
		C1004.9,1176.9,1001.5,1176.9,1001.2,1179.1z"/>
</g>
<g>
	<g>
		<path class="st6" d="M1727.3,1038.6l-421.7-58.9c-15.4-2.1-27.3-15.2-26.8-29.4l9.8-234c1-24.2,23.1-42.8,49.2-41.6l386,19.7
			c26.2,1.5,46.3,25,45,52.5l-12.4,266.6C1755.7,1029.6,1742.6,1040.9,1727.3,1038.6z"/>
		<path class="st4" d="M1332.8,698.4c-0.2,4.6-4.4,8.2-9.3,7.9c-5-0.3-8.8-4.2-8.6-8.9c0.2-4.6,4.4-8.2,9.3-7.9
			C1329.2,689.8,1333,693.7,1332.8,698.4z"/>
		<path class="st4" d="M1360.2,699.8c-0.2,4.7-4.4,8.3-9.3,8c-5-0.3-8.8-4.3-8.6-8.9c0.2-4.7,4.4-8.2,9.3-8
			C1356.6,691.2,1360.4,695.2,1360.2,699.8z"/>
		<path class="st4" d="M1386.7,701.3c-0.2,4.7-4.4,8.3-9.4,8c-5-0.3-8.8-4.3-8.6-9c0.2-4.7,4.4-8.3,9.4-8
			C1383.1,692.5,1386.9,696.6,1386.7,701.3z"/>
		<g>
			<path class="st0" d="M1328.1,701.6l-7.8-8c-0.5-0.5-1.3,0.2-0.8,0.7c2.6,2.7,5.2,5.3,7.8,8
				C1327.8,702.7,1328.6,702.1,1328.1,701.6z"/>
			<path class="st0" d="M1319.3,701.1l8.4-7.1c0.5-0.4,1.3,0.3,0.8,0.8c-2.8,2.4-5.6,4.7-8.4,7.1
				C1319.5,702.3,1318.7,701.5,1319.3,701.1z"/>
		</g>
		<g>
			<polygon class="st5" points="1763.3,753.6 1750.6,1016.4 1696.6,1008.9 1631.3,999.8 1588.4,994 1527.6,985.7 1524.7,985.3 
				1522.1,985 1449.5,975.3 1284.5,953.8 1290.9,807 1294.6,722.3 			"/>
		</g>
		<g>
			<path class="st0" d="M1554.3,859.4c-1.3-1.3-3.1-2.2-4.8-3.1c-2.3-1.3-3.5-2.9-3.5-4.9c0-3.6,3.6-6.2,6.4-8.8
				c2.7-2.5,4.1-5.2,2.6-8.5c-1.5-3.3-4.9-5.8-7.6-8.6c-3.3-3.4-3.9-6.9-3.8-10.8c0.1-3.6-8.5-31.1-29.9-23.6
				c-26.5-10.6-32.1,21.9-32.1,25.6c0,1.7,0.1,3.5-0.8,5.1c-1,1.7-3.2,2.7-5,3.9c-5.6,3.8-6.8,10.2-2.4,15.3c1.5,1.8,3.8,3.6,3,5.7
				c-0.6,1.8-2.7,3.1-4.4,4.4c-2.5,1.9-4.7,4.4-3.5,7.1c0.1,0.3,0.3,0.5,0.5,0.8c0,0,0,0.1-0.1,0.1c-0.3,0.5,0.3,1.5,1.5,1.5
				c2,0,4,0,6,0c0,0,0,0,0,0c6.7,0.1,13.4,0.3,20,0.8c5.6,0.4,11.1,0.9,16.7,1.5c3.4,0.4,6.7,0.8,10.1,1.3c7,1,13.9,2.1,20.8,3.2
				c3.8,0.6,7.6,1.2,11.3,1.8c1.5,0.2,1.8-1.1,0.7-1.7c0.2-0.4,0.4-0.8,0.5-1.2c0-0.1,0.1-0.2,0.1-0.4v0
				C1557,863.8,1556.3,861.4,1554.3,859.4z"/>
			<g>
				<path class="st1" d="M1448.6,975.6c5.6-16.2,3.4-26,7.2-35.9c-1.9,20.6-3.2,31.8-3.8,36.3l64.7,8.6c2.8,0.1,5.6,0.1,8.3,0.1
					l37.5,0.1c0,0-4-26.5-3.9-26.6c7.3,10.9,74.8,48.5,77.5,6.9c3.3-50.7-20.1-43.9-57.1-82.6c-22.4-23.1-57.9-27.6-62.3-28.1
					c-10.3-1.2-9.5,0.3-10.2,0.3c-35.9-1.3-57.9,11.2-72.8,23.5c-13.9,11.5-27.2,48.7-38.1,90.4L1448.6,975.6z"/>
			</g>
			<g>
				<path class="st4" d="M1608.1,910.4c0,0-1.2-1.8-26.9-26.8c-1.4-1.4-2.9-2.7-4.4-4c-3.8-3.3-7.8-6.3-12.1-9.1
					c-2.6-1.6-5.3-3.1-8-4.5c-1.1-0.5-2.8-1.3-4.6-2c-4.2,2.4-9,3.8-13.8,4.6c-12.6,2.1-25.6,2-38.4,0c-6.1-1-12.2-2.4-17.9-5.1
					c-2.9-1.4-5.9-2.9-8.7-4.6c-0.8-0.4-1.5-0.9-2.1-1.4c-0.6,0.1-1.2,0.3-1.8,0.4c-4.3,1-8.5,2.3-12.4,3.8
					c-1.7,0.7-3.4,1.4-5.1,2.1c-26.9,11.3-48.7,55.9-48.7,55.9l47.2,11.8l-6.8,43.4l127.2,16.9L1568,949l25.3-27.8L1608.1,910.4z"/>
			</g>
			<g>
				<path class="st1" d="M1523.2,832.4l0.1,31.5c-4.4,5.5-15.6,4.6-22.5,3.5c-3.2-0.5-5.2-3.4-4.5-6.3c1.1-4.5,2.8-10.9,4.1-15.7
					c0.2-0.9,0.5-1.7,0.7-2.5c0.5-1.9,1-3.3,1.2-3.6L1523.2,832.4z"/>
			</g>
			<g>
				<path class="st1" d="M1541.9,831.9c-1.2,4.8-7.2,6.4-11.4,4.4c-4.6,6-13,9-20.4,7.4c-4.7-1-8.8-3.6-11.9-7.3
					c-3.7,0.8-7.8,0.9-11-1.9c-2.8-2.4-4.1-6.4-2.8-9.8c1.2-3,4.1-5,7.2-5.4c0.3,0,0.5-0.1,0.8-0.1c1.5-21.7,32.5-26,39.6-4.6
					c0.4,1.3,1.9,3.9,2.1,8.1C1538.6,822.8,1543.2,826.6,1541.9,831.9z"/>
			</g>
			<path class="st0" d="M1506.7,818.9c-2.2-1-3.8,2.4-1.6,3.4C1507.3,823.3,1508.9,819.9,1506.7,818.9z"/>
			<path class="st0" d="M1521.6,819.7c-0.8-0.4-2.1-0.2-2.4,0.8l-0.1,0.2c-0.3,0.9-0.1,2.1,0.8,2.6c0.8,0.4,2.1,0.2,2.4-0.8l0.1-0.2
				C1522.7,821.4,1522.5,820.2,1521.6,819.7z"/>
			<path class="st0" d="M1539,829.8c-0.6-2.3-3.5-3.5-5.3-2.3c-0.8,0.5,0,1.8,0.7,1.3c1-0.7,2.6-0.2,3.2,1.1c0.6,1.6-1,3.2-2.4,2.8
				c-0.9-0.2-1.2,1.2-0.3,1.4C1537.2,834.7,1539.7,832.4,1539,829.8z"/>
			<path class="st0" d="M1493,830c-1.2,0.4-2.7-0.2-3.1-1.5c-0.4-1.5,1-2.9,2.3-2.5c0.9,0.2,1.2-1.2,0.3-1.4
				c-2.2-0.6-4.5,1.4-4.1,3.8c0.3,2.3,2.9,3.8,5,3.1C1494.3,831.1,1493.9,829.7,1493,830z"/>
			<path class="st0" d="M1506.4,811.3c-2.1-0.2-3.9,0.6-5.3,2.1c-0.7,0.8,0.7,1.8,1.4,1c0.9-1,2.3-1.5,3.7-1.4
				C1507.4,813.1,1507.5,811.4,1506.4,811.3z"/>
			<path class="st0" d="M1525.5,814.8c-1.7-1.6-3.8-2.5-6.1-2.5c-1.1,0-1.2,1.7-0.1,1.7c2,0,3.7,0.7,5.2,2.1
				C1525.4,817,1526.3,815.6,1525.5,814.8z"/>
			<path class="st0" d="M1514.9,833.2c-2.2-0.7-4.5-0.6-6.5,0.3c-1,0.5-0.4,2.1,0.6,1.6c1.8-0.8,3.7-0.9,5.6-0.3
				C1515.7,835.3,1516,833.6,1514.9,833.2z"/>
			<path class="st0" d="M1514.6,823c-0.1-0.5-0.2-1-0.2-1.6c-0.2-1.1-0.3-2.3-0.3-3.4c0-0.3-0.5-0.2-0.5,0.1
				c0.1,1.4,0.2,2.9,0.5,4.3c0,0.3,0.1,0.6,0.1,0.9c0,0.2,0.1,0.4,0.1,0.7c-0.1,0-0.2,0-0.3,0c-0.6,0.1-1.4-0.1-2-0.2
				c-0.3,0-0.4,0.5,0,0.5c0.6,0.1,1.9,0.4,2.5,0.2c0.2-0.1,0.3-0.1,0.4-0.4C1514.8,823.8,1514.6,823.3,1514.6,823z"/>
			<g>
				<path class="st1" d="M1605.1,765.1c-4.3,1.6-2,29.7-2,29.7s-2.1,1.6-2.9,6.1c-0.5,3.2-0.1,6.6,1.2,9.7l3.2,7.6l22.5,2.4
					c0,0,4-21.6,0.4-29c0-0.1-0.1-0.1-0.1-0.2c-0.9-1.5-2.9-1.6-3.8-0.1l-0.2,0.2c0,0-0.5-4.2-3.7-4.3c-2.6-0.1-2.8,2.3-2.8,2.3
					s-0.7-4.1-3.8-4.5c-2.3-0.3-3,2.5-3,2.5S1609.4,763.5,1605.1,765.1z"/>
				<path class="st0" d="M1626,798.8c-0.3,1-0.8,2.8-2,2.5c-1.4-0.3-1.2-2.5-1-3.5c0.1-0.6-0.5-0.8-0.9-0.6c-0.2,0-0.5,0.6-0.6,0.9
					c-0.4,1.3-1.4,2.1-2.9,1.7c-1.4-0.4-2.1-1.8-1.8-3.3c0.2-0.8-1.1-1-1.2-0.2c-0.1,1.4-0.8,2.3-1.6,2.2c-0.8-0.1-1.4-1.2-1.3-2.4
					c0.5-1.2,0.7-2.5,0.6-3.9c0-0.3-0.4-0.6-0.7-0.5c-0.7,0.1-1.3,0.2-2,0.4c0,0,0,0,0,0c0-0.7,0-1.3,0-2c0-0.8-1.2-1-1.2-0.2
					c0,0.7,0,1.3,0,2c0,0.1,0,0.3,0.1,0.4c-1.2,0.2-2.3,0.4-3.5,0.6c-0.7,0.1-0.6,1.4,0.2,1.2c2-0.4,3.9-0.7,5.9-1.1
					c-0.1,2.5-1.5,4.8-3.6,6c-0.4,0.2-0.5,0.8-0.1,1.1c2.6,2.3,2.9,6.2,0.8,8.8c-0.5,0.6,0.5,1.4,1,0.8c2.4-2.9,2.1-7.2-0.4-9.9
					c0.8-0.5,1.4-1.2,2-2c0.3,1,1.1,1.8,2.1,1.9c0.8,0.1,1.5-0.2,2.1-0.8c0.5,1,1.4,1.8,2.6,2.1c1.3,0.3,2.4-0.2,3.2-1.1
					c0.2,1.1,0.7,2.1,1.9,2.5c2,0.6,3-1.6,3.5-3.3C1627.3,798.5,1626.2,798.1,1626,798.8z"/>
				<path class="st0" d="M1618.9,804.9c-1.6,1.8-2.5,4.1-2.6,6.6c0,0.8,1.1,1,1.2,0.2c0.1-2.3,0.9-4.3,2.4-6
					C1620.4,805,1619.4,804.3,1618.9,804.9z"/>
			</g>
			<path class="st1" d="M1604.7,818.1l-11.3,103l42.7,43.9c0,0,12.4-69.5-8.9-144.5C1627.1,820.5,1615.9,812.7,1604.7,818.1z"/>
			<path class="st0" d="M1597.6,945.5c-2.6-5.4-3.8-11.4-3.4-17.3c0-0.7-1-0.9-1.1-0.2c-0.4,6.1,0.8,12.2,3.5,17.8
				C1596.9,946.5,1597.9,946.1,1597.6,945.5z"/>
			<path class="st0" d="M1624.1,975.7c-1.4,0.2-2.8-0.4-3.7-1.7c-0.4-0.6-1.3,0.1-0.8,0.7c1.2,1.6,3,2.4,4.7,2.1
				C1625,976.7,1624.8,975.6,1624.1,975.7z"/>
			<path class="st0" d="M1563,926.7c-1.2-12.3-2.5-24.5-3.7-36.8c-0.1-0.7-1.1-0.6-1.1,0.1c1.2,12.2,2.5,24.5,3.7,36.7
				C1562,927.5,1563,927.4,1563,926.7z"/>
			<path class="st0" d="M1460.7,890.4c-3.7,8.7-6.3,17.9-7.8,27.3c-0.1,0.7,1,0.8,1.1,0.2c1.5-9.3,4.1-18.4,7.8-27
				C1462,890.2,1460.9,889.8,1460.7,890.4z"/>
			<path class="st0" d="M1451.9,921.7c-0.4,2.2-0.8,4.4-1.2,6.7c-0.1,0.7,1,0.8,1.1,0.2c0.4-2.2,0.8-4.4,1.2-6.7
				C1453.1,921.1,1452,921,1451.9,921.7z"/>
			<path class="st0" d="M1558.3,883.3c-0.5-3.3-1.2-6.5-2.3-9.7c-0.2-0.7-1.2-0.3-1,0.4c1,3.1,1.7,6.2,2.2,9.4
				C1557.4,884.2,1558.4,884,1558.3,883.3z"/>
		</g>
		<path class="st0" d="M1538.6,812.9c-2,0.3-3.8-0.4-5.5-1.6c0.9-1.1,0.8-3.2-0.9-4.1c-2.8-1.4-5.2-3.5-7-6.1
			c0.1-0.4,0.2-0.7,0.3-1.1c0.4-2.1-1.5-3.6-3-3.3c-1.4-1-3.5-0.1-3.7,1.6c-0.5,0.7-1.3,1.2-2.4,1.5c0.5-1.3-0.2-2.9-1.6-3.3
			c-0.4-0.6-1-1-1.7-1.1c-3.5-0.4-6.9-0.4-10.4,0c-3,0.3-2.2,5.1,0.9,4.8c0.3,0,0.5,0,0.8-0.1c0,0.1,0,0.3,0,0.4
			c-0.5,0.3-1.1,0.6-1.6,0.9c-1.9,0.1-3.9,0.2-5.8,0.2c-2.6,0-3.2,3.6-1.4,4.6c-2.4,1.2-4.4,3.1-5.6,5.6c-0.2,0.2-0.5,0.4-0.7,0.6
			c-0.3,0.2-0.5,0.5-0.6,0.7c-1.5,1.5-0.6,4.9,1.9,4.2c2.4-0.7,4.4-2,5.7-4c1-1,1.9-2.1,2.9-3.1c0.2-0.2,0.3-0.3,0.5-0.5
			c4.6-1.2,10.8,0.1,14.9-0.6c1.5-0.2,2.9-0.7,4.2-1.3c3.9,0.9,7.1,3.3,10.5,6.3c3,2.6,6.3,4.1,10.1,3.5
			C1542.5,817.2,1541.6,812.4,1538.6,812.9z"/>
	</g>
	<g>
		<g>
			<path class="st6" d="M670.9,545.9c231.3-31.9,466-30.1,696.6,5.2c16.6,2.5,30.3-7.6,30.7-22.9c3.9-149.3,7.7-298.6,11.6-447.9
				c0.8-28.7-24.8-56-57.1-60.1c-221.1-28.3-445-27-665.6,4C654.8,28.8,629.3,56,630,84.1c3.4,146.4,6.8,292.7,10.2,439.1
				C640.5,538.1,654.2,548.2,670.9,545.9z"/>
			<path class="st4" d="M703.5,49c0.1,8.4-7.7,16.3-17.6,17.7c-9.9,1.4-18.1-4.3-18.2-12.7c-0.2-8.4,7.7-16.5,17.6-17.9
				C695.2,34.8,703.3,40.6,703.5,49z"/>
			<path class="st4" d="M758.3,42.4c0.1,8.5-7.8,16.2-17.7,17.4c-9.9,1.2-18.1-4.7-18.2-13.1c-0.2-8.4,7.8-16.3,17.7-17.5
				C750,27.9,758.2,33.9,758.3,42.4z"/>
			<path class="st4" d="M811.3,37.1c0.1,8.5-7.9,16.1-17.8,17c-9.9,1-18.1-5.1-18.2-13.5c-0.1-8.5,7.8-16.2,17.8-17.1
				C803.1,22.4,811.2,28.6,811.3,37.1z"/>
			<g>
				<path class="st0" d="M694.5,56.5c-5.5-3.8-10.9-7.7-16.4-11.5c-1-0.7-2.6,0.8-1.5,1.6c5.5,3.8,10.9,7.6,16.4,11.5
					C694,58.8,695.5,57.2,694.5,56.5z"/>
				<path class="st0" d="M676.8,59c5.3-5.3,10.6-10.7,15.8-16c1-1,2.6,0.1,1.6,1.1c-5.3,5.3-10.6,10.6-15.8,16
					C677.4,61.1,675.8,60,676.8,59z"/>
			</g>
		</g>
		<g>
			<g>
				<path class="st7" d="M1400.9,91.1c-3.9,145.4-7.8,290.8-11.7,436.1c-117.8-19.2-236.6-29.6-355.6-31.3
					c-129.6-1.8-259.3,6.8-387.9,25.8c-1.9-90.5-3.8-181.1-5.8-271.6c-1.1-52.1-2.2-104.2-3.3-156.2
					C889.6,53.6,1147.4,52.7,1400.9,91.1z"/>
			</g>
			<g>
				<path class="st8" d="M1144.6,393.2c23.2,36.1,16,38.7,16,38.7c-14.4-12.7-28.8-25.2-43.3-37.6
					C1126.4,393.8,1135.5,393.5,1144.6,393.2z"/>
				<g>
					<path class="st0" d="M778.7,238.7c3.2-0.9,6.2-0.9,9.1,0.2c2.7,1,5,2.6,7.4,4c2.7,1.5,5.5,2.2,8.6,2.6c7.3,0.8,14.8-1,21.8-3.6
						c3.6-1.3,7.1-2.8,10.5-4.4c2.6-1.2,5.2-2.6,8-3.2c4.9-1.1,9.7-0.4,14.3,0.8c4.6,1.1,9.3,2.8,14.2,2.3c3.1-0.3,5.3-1.9,8.1-3.1
						c2.3-1,4.6-1.3,7.1-1.2c3,0.2,5.8,0.6,8.7-0.5c1-0.4,2-1,2.8-1.6c7.3-9.3,5-20.9-5.1-28.1c-3.2-2.3-7.3-4.3-9.2-7.4
						c-1.8-2.9-1.6-6.3-1.6-9.5c-0.1-6.9-10.9-67.6-58.7-47c-39.1-12.8-53.7,38.4-53.5,44.9c0.3,7.1-0.7,13.5-6.6,19.9
						c-4.9,5.3-10.8,10.1-13.5,16.1c-2.7,6.2,0,10.9,4.9,15.3C757.7,236.2,768.8,241.5,778.7,238.7z"/>
					<g>
						<path class="st1" d="M851.3,259.7c-6,11.6-16.4,14.1-27.9,13.7c-5.2-0.2-17.1-6.5-16.5-12.3c0.5-5.1,1.1-18.5,1.7-24.7
							c0.1-0.9,0.2-1.7,0.3-2.6c0.4-3.9,0.8-7.7,1.2-11c0.2-1.8,0.4-3.5,0.6-5c0.5-3.9,0.9-6.6,1.1-7.2
							c10.9-6.2,21.8-12.3,32.7-18.4C846.8,214.7,849.1,237.2,851.3,259.7z"/>
					</g>
					<g>
						<path class="st1" d="M779.3,216.6c2.7,8,13.8,10,21.1,6.1c9,9.7,24.5,14.1,37.8,10.6c8.3-2.2,15.4-7.2,20.5-13.7
							c6.8,1,14.2,0.9,19.7-4.1c4.8-4.4,6.7-11.5,3.9-17.5c-2.4-5.3-8-8.5-13.6-8.9c-0.5,0-1-0.1-1.5,0c-5.3-38-62-41.6-72.2-3.3
							c-0.6,2.4-2.9,6.9-2.9,14.4C784.1,200.4,776.3,207.7,779.3,216.6z"/>
					</g>
					<path class="st0" d="M842.4,189.6c3.8-1.9,7.1,3.8,3.3,5.7C841.9,197.3,838.6,191.6,842.4,189.6z"/>
					<path class="st0" d="M814.9,193.1c3.8-2,7.1,3.7,3.3,5.7C814.4,200.7,811.1,195.1,814.9,193.1z"/>
					<path class="st0" d="M784.3,212.5c0.8-4.1,5.8-6.5,9.3-4.7c1.5,0.7,0.3,3.1-1.2,2.4c-1.9-1-4.8,0.1-5.6,2.3
						c-1,2.8,2.1,5.3,4.7,4.5c1.6-0.5,2.4,2,0.8,2.5C788.1,220.8,783.3,217.2,784.3,212.5z"/>
					<path class="st0" d="M867.3,207.6c2.1,0.6,4.8-0.5,5.4-2.9c0.6-2.6-2.1-4.9-4.5-4.2c-1.6,0.5-2.4-2-0.8-2.5
						c3.9-1.2,8.3,2.1,7.9,6.4c-0.4,4.1-4.8,6.8-8.6,5.8C865.2,209.7,865.7,207.1,867.3,207.6z"/>
					<path class="st2" d="M866.4,214.4c1.2-1.8,2.4-1.4,4.3,0.4c2.3,2.2,4.5,4.7,4.5,8.1c0,3.1-1.9,6.2-5.1,6.6
						c-3.3,0.5-6.1-2-6.8-5.2C862.6,220.6,864.4,217.4,866.4,214.4z"/>
					<path class="st2" d="M790,224.2c0.5-0.9,1.2-2.2,1.9-2.4c1.2-0.6,2.9,0.4,3.6,2c1.3,2.7,3.2,5.2,2.6,8.4
						c-0.4,2.4-2.4,4.6-4.8,4.9c-2.7,0.4-4.9-1.6-5.4-4.2C787.4,230.1,788.6,226.8,790,224.2z"/>
					<path class="st0" d="M860.3,160.2c-3.4-2.9-7.9-4.3-12.1-5.6c-4.6-1.5-9.3-2.8-14.1-3.9c-4.4-1-8.7-1.4-13.2-0.4
						c-4.8,1.1-9.2,3.2-13.6,5.4c-7.5,3.8-16,8.2-19.1,16.5c-1.5,4-1.9,8.7-2.2,12.8c-0.3,4.4,0.1,8.8,2.1,12.7
						c0.3,0.5,0.7,0.7,1.1,0.8c0,0.6,0.8,1.3,1.7,1.5c0,0,0,0,0,0h0c0.4,0.1,0.8,0.1,1.1-0.1c0,0,0,0,0,0h0c0,0,0,0,0,0
						c9-4.8,10.3-15.9,14.3-24.2c2.4-4.9,5.4-8.4,10-11.4c2.9-1.9,6.1-2.3,7.9-5.2c2.4,2.2,5.6,1.7,8.8,2.7
						c5.1,1.6,8.8,4.1,12.2,8.1c5.8,6.9,10.5,16.8,20.2,18.8c0.6,0.1,1.3,0.6,1.6,0.3h0.1c0.7,0,1.1-1.1,1.2-2
						C869.4,177.9,867.5,166.2,860.3,160.2z"/>
					<path class="st0" d="M830.6,190.4c0.5,2.8,1.7,5.2,3.5,7.4c1,1.2-0.9,2.7-1.9,1.6c-2.1-2.4-3.4-5.3-4-8.5
						C827.9,189.3,830.3,188.9,830.6,190.4z"/>
					<path class="st0" d="M821.3,236.7c-5.5-1-10.5-3.1-15.1-6.1c0.3-0.8-1.1-2.7-0.8-3.5c4.4,3.1,10.9,6.1,16.3,7.1
						C823.4,234.6,822.9,237,821.3,236.7z"/>
					<path class="st0" d="M818.3,182.8c-1.7,1.6-3.6,2.8-5.9,3.5c-2,0.6-1.2,3.3,0.7,2.7c2.8-0.9,5.3-2.3,7.3-4.3
						C821.9,183.3,819.7,181.4,818.3,182.8z"/>
					<path class="st0" d="M845.9,180.4c-1.9,0.4-3.7,0.1-5.4-0.7c-1.7-0.9-3.3,1.7-1.6,2.6c2.3,1.2,5,1.5,7.7,0.9
						C848.7,182.7,847.9,180,845.9,180.4z"/>
					<path class="st0" d="M837.2,212.8c-3.1,0.3-6.3,0.6-9.4,0.9c-2,0.2-2.1,3.1-0.1,2.9c3.1-0.3,6.3-0.6,9.4-0.9
						C839.1,215.5,839.2,212.6,837.2,212.8z"/>
				</g>
				<path class="st1" d="M870.9,364.3c0-0.4-83.7-7.5-82.2-10c1.5-3-1.1-86-1.1-86c6.7-2.4,13.3-4.8,20-7.2c7.3,0.5,14.7,1.1,22,1.6
					c7.5-1,14.9-2,22.4-3c0-0.1,31.9,58,33.1,62.2C886.2,325.9,870.9,364.3,870.9,364.3z"/>
				<path class="st6" d="M960.4,388.2c0,2.2,0,4.4-0.1,6.5c-0.3,11.8-1.3,22.8-2.7,33c-0.2,1.5-36.1-96.7-36.2-95
					c-1.8,39.1-10.9,93.7-10.9,93.7c0,0,15.5,60.5,18.3,70.4c-63.5,1.9-126.9,6.2-190.1,13c-24.3,2.6-41.1-12.9-53.3-32
					c-13.1-20.5-3.6-89.1,5.1-107.1c15.1-31.3,31.9-61.6,45.8-75.8c21.5-22.1,70.5-34,70.5-33.9c0,0.1,0,0.1,0.1,0.2
					c0.6,1.5,1.3,3.1,1.9,4.6c12,29.2,23.9,58.5,35.8,87.9c2.1-31.2,4.2-62.4,6.3-93.5c0-0.2,0-0.3,0-0.5c0-0.6,0.1-1.1,0.1-1.7
					c0-0.6,0.1-1.2,0.1-1.9c25,0.3,47,6.5,60,12.2c2.3,1,4.5,2.1,6.6,3.4c0,0,0,0,0,0c19.4,11.6,30,32.8,34.5,48.3
					c4.6,15.6,5.5,15.8,7.5,50.6C960.3,376.7,960.5,382.5,960.4,388.2z"/>
				<g>
					<path class="st9" d="M937.1,496.5c-56.9,1.5-113.8,4.9-170.6,10.4c1.6-14.7,3.2-29.4,4.7-44c6.4-7.9,12.7-15.8,19.1-23.6
						c40-5.3,80.1-9.6,120.2-12.9C929.6,463.5,936.9,482.8,937.1,496.5z"/>
				</g>
				<path class="st1" d="M1223.5,354.1c0.7-1.2,1.1-2.5,0.6-3.9c-0.5-1.4-1.7-2.2-3-2.4c0.1-0.2,0.3-0.4,0.2-0.7
					c0-2.5-2.6-2.5-4-1.7c-9.6,5.5-18.6,9.8-29.3,13.2c4.7-4.2,13-12.4,7-15.2c-1.5-0.7-2.9-0.2-4.2,0.5c-2.6,1.4-4.9,3.1-7.6,4.4
					c-4.9,2.5-10.2,4.3-15.6,6c-14.9,4.5-32.3,8.3-43.1,19.2c-1.8,1.8-3.5,3.8-4.9,6.1c-1.2-0.5-2.9,0.6-2.2,2.1
					c1.9,4.1,3.9,8.2,5.8,12.3c1.2,2.6,2.4,5.2,3.6,7.8c0.1,0.2,0.3,0.7,0.5,1.3v0c1.2,2.8,3.9,8.7,6.2,6.4c0.4,0.1,0.8,0.1,1.3,0
					c0.6-0.2,1-0.5,1.2-1.2c0.4-1.7,1.3-3.1,2.5-4.3c2.5-2.4,6.3-4,9.6-5c0.4-0.1,0.7-0.2,1-0.3c5.3-1.7,10.8-2.5,16.3-3.3
					c10.5-1.6,20.9-3.6,30.4-7.9c8.7-3.9,16.5-9.6,21.8-17c1.4-2,3.4-5.1,4.7-8.3c0.4-0.7,0.7-1.3,1.1-2
					C1224.5,358,1225.2,355.9,1223.5,354.1z"/>
				<path class="st6" d="M917.9,271.9c-0.1,0.1,50.4,28.6,109.1,134.8c32.5-11.7,65-22.8,97.6-33.2c0,0.1,0.3,18.2,36,58.3
					c-0.1-0.6-110.5,45.8-146.7,45.9c-36.2-1.3-109.1-91.8-109.2-91.5C909.1,348.1,913.5,310,917.9,271.9z"/>
				<path class="st8" d="M773.6,506.3c-5.2,0.5-10.5,1-15.7,1.5c-5.5-9-10.3-20.4-10.3-20.7c0-0.6,12-21.7,12-21.7
					C759.7,465.4,776.3,469.9,773.6,506.3z"/>
				<g>
					<path class="st0" d="M898.3,497.9c-34.4,1.4-68.8,3.6-103.1,6.5c-1.4-3.3-2.7-6.6-4.1-9.9c-5.5-13.3-11.1-26.6-16.6-39.9
						c-0.9-2.1-1.8-4.3-2.7-6.4c-3.7-8.5-7.4-17-11.2-25.5c30.6-13.8,61.2-27.1,92-39.8C867.9,421,883.1,459.3,898.3,497.9z"/>
					<g>
						<path class="st1" d="M845.4,460.2c-1.8-1.4-7,2.2-8.5,2.2c1.4-1.7,9.9-9.6,7.5-12.3c-1.9-2.1-7.8,2.1-11.4,2.7
							c0.3-0.3,0.7-0.7,1.2-1.3c0,0,0,0,0,0c0.1-0.2,0.3-0.3,0.4-0.5c2.6-3.2,6.4-8.9,6.2-10.6c-0.6-3.8-8.7,2.4-13.3,4.1
							c2.3-2.7,8.8-8.3,7.8-10.8c0-0.1-0.1-0.2-0.2-0.3c-0.8-1-4-0.3-8.1,1.3l0,0c-9.7,3.7-24.6,11.9-26.4,12.7
							c-4.5,1.8-9,3.1-12.9,4.2c-1.5,0.4-2.9,0.7-4.2,1c-1.8,0.4-3.4,0.8-4.8,1c-2.5,0.5-4.2,0.8-4.4,0.9c0,0,0,0,0,0
							c-0.5,0.3-7.1,5.1-13.6,10c-0.4,0.3-0.7,0.6-1.1,0.9h0c-0.2,0.1-0.4,0.3-0.5,0.4c-6.2,4.7-11.9,9.3-12,9.9
							c-1.2,7.1,0.4,13.8,3.8,18.8c0,0,0,0,0,0c3.6,5.3,9.3,8.7,16.1,8.5c0.1,0,0.3,0,0.4,0h0c0.4,0,0.8-0.1,1.3-0.1
							c1.7-0.2,3.4-0.7,5.2-1.3c0.1,0,0.3-0.1,0.4-0.2c6.1-2.5,11.6-4.8,16.8-6.9C847.4,470.9,848.4,462.7,845.4,460.2z"/>
						<g>
							<path class="st10" d="M826.3,458.1c0.1-0.1,0.1-0.2,0.2-0.2C825.8,458.5,825.9,458.4,826.3,458.1z"/>
						</g>
					</g>
					<path class="st1" d="M774.4,454.5c-0.9-2.1-1.8-4.3-2.7-6.4c0,0-6.7,4-10,9.8c-3.3,5.8-1.7,9.4-1.7,9.4
						C764.8,463,769.6,458.8,774.4,454.5z"/>
				</g>
				<path class="st6" d="M769.4,506.7c-10.2,1-20.4,2-30.6,3.1c-24.3,2.6-45.3-10.7-53.3-32c24.8-12.4,73.3-28.8,73.9-27.5
					C759.7,450.8,755.6,483.8,769.4,506.7z"/>
				<path class="st11" d="M825.2,400.6c-1.5,0.1-2.6,1.1-3,2.3c-14.8,0.5-24.7,8.6-27.8,11.5c-0.5-0.3-1.1-0.4-1.8-0.3
					c-1.8,0.2-3.2,1.6-3.2,3.2c0,1.6,1.5,2.8,3.2,2.7c1.8-0.2,3.2-1.6,3.2-3.2c0-0.6-0.2-1.1-0.5-1.5c3-2.8,12.5-10.6,26.8-11
					c0.2,1.4,1.6,2.5,3.2,2.4c1.8-0.1,3.2-1.6,3.2-3.2C828.5,401.7,827,400.5,825.2,400.6z"/>
				<path class="st0" d="M736.1,421.7c-12.7-4.7-26.8-5.2-40.8-1.6c-1.3,0.3-0.7,2,0.6,1.7c13.4-3.4,27.1-2.9,39.3,1.6
					C736.2,423.9,737.2,422.2,736.1,421.7z"/>
				<path class="st0" d="M734.5,412.8c-3.7-7.3-8.6-14-14.4-19.9c-0.8-0.8-2.2,0.6-1.4,1.5c5.7,5.8,10.4,12.3,14.1,19.5
					C733.3,415,735,413.8,734.5,412.8z"/>
				<path class="st0" d="M832.5,353.5c-13.7-25.8-30.4-49.8-49.8-71.6c3.8-2.9,7.5-5.8,11.3-8.6c1-0.8-0.3-2-1.4-1.2
					c-4,3.1-8,6.1-12,9.2c-0.5,0.4-0.3,1,0,1.3c19.6,21.9,36.4,46.1,50.2,72C831.3,355.5,833.1,354.5,832.5,353.5z"/>
				<path class="st0" d="M877.9,265.4c-6.9-1.6-13.8-3.2-20.8-4.7c-1.2-0.3-1.8,1.5-0.5,1.8c6.6,1.5,13.2,3,19.8,4.5
					c-6.7,27.5-12.2,55.3-16.4,83.1c-0.2,1.2,1.8,1.6,1.9,0.4c4.3-28.1,9.8-56.1,16.7-84C878.7,266,878.4,265.5,877.9,265.4z"/>
				<path class="st0" d="M912.4,272.8c-0.3-1.1-2.3-0.6-2,0.6c0.7,2.5,0.5,4.9-0.4,7.4c-0.5,1.1,1.5,1.5,2,0.4
					C913.1,278.4,913.2,275.5,912.4,272.8z"/>
				<path class="st0" d="M1021.9,410.8c-3.6,4.2-6.3,8.9-7.9,14c-0.4,1.2,1.6,1.7,1.9,0.5c1.5-4.8,4-9.3,7.4-13.2
					C1024.2,411.2,1022.7,409.9,1021.9,410.8z"/>
				<path class="st0" d="M1134.5,439.2c-13-15.9-21.3-34.6-24.2-54c-0.2-1.2-2.1-0.8-1.9,0.4c2.9,19.8,11.5,38.7,24.7,54.8
					C1133.8,441.4,1135.3,440.2,1134.5,439.2z"/>
				<path class="st0" d="M1122.4,436.1c-2.6-4-4.6-8.1-6.2-12.5c-0.4-1.1-2.4-0.8-1.9,0.4c1.6,4.5,3.7,8.8,6.4,12.9
					C1121.3,438.1,1123.1,437.2,1122.4,436.1z"/>
				<path class="st0" d="M748.8,445.1c-9.8,11-16.1,24.2-18.1,37.9c-0.2,1.2,1.8,1.5,1.9,0.3c1.9-13.4,8-26.2,17.6-37
					C751.1,445.3,749.7,444.1,748.8,445.1z"/>
				<path class="st0" d="M735.2,500.4c-0.5-3.6-1-7.3-1.5-10.9c-0.2-1.2-2.2-0.9-2,0.2c0.5,3.6,1,7.3,1.5,10.9
					C733.3,501.8,735.3,501.6,735.2,500.4z"/>
				<path class="st0" d="M918.6,353.6c-1.7-14.5-12.9-27.1-10.6-42.2c0.2-1.2-1.8-1.6-2-0.4c-1.9,12.7,5.2,23.5,8.9,35.2
					c3.3,10.3,2.8,25.5-10.7,30c-1.2,0.4-0.7,2.2,0.5,1.8C915.4,374.4,919.7,363.2,918.6,353.6z"/>
				<path class="st0" d="M748.4,293.5c-0.7-0.9-2.4,0.2-1.7,1.1c6.6,9.1,10.7,19.5,11.8,30.8c0.1,1.2,2.1,1,2-0.2
					C759.3,313.7,755.2,302.9,748.4,293.5z"/>
				<path class="st0" d="M788.1,394.1c-18-3.2-23.8-21.1-20.1-36.8c0.3-1.2-1.7-1.5-1.9-0.3c-3.9,16.7,2.5,35.5,21.6,38.9
					C788.8,396.2,789.3,394.4,788.1,394.1z"/>
				<path class="st0" d="M880.8,382.9c-5.4,1.4-10.8,1.1-15.8-0.8c-1.2-0.5-2.2,1.2-1,1.7c5.5,2.2,11.4,2.5,17.4,0.9
					C882.6,384.3,882,382.5,880.8,382.9z"/>
				<path class="st0" d="M1169.8,365.2c-3.4,3-7.3,5.1-11.8,6.4c-1.2,0.3-0.7,2.2,0.5,1.8c4.8-1.3,9.1-3.6,12.7-6.8
					C1172.1,365.8,1170.7,364.4,1169.8,365.2z"/>
				<path class="st0" d="M1212.3,353.7c-4.7,4.5-10.7,7.4-17.6,8.4c-1.3,0.2-0.7,2,0.5,1.8c7.2-1.1,13.5-4.1,18.4-8.8
					C1214.6,354.4,1213.2,352.9,1212.3,353.7z"/>
				<path class="st0" d="M1210.9,362.8c-3.1,2-6.6,3.6-10.2,4.8c-1.2,0.4-0.2,2.1,1,1.7c3.8-1.2,7.3-2.9,10.6-5
					C1213.3,363.6,1211.9,362.2,1210.9,362.8z"/>
				<path class="st0" d="M1196.7,376.2c-1-5.4-3.7-10.4-8.1-14.4c-0.9-0.9-2.4,0.3-1.4,1.2c4.1,3.8,6.6,8.4,7.5,13.5
					C1195,377.8,1196.9,377.4,1196.7,376.2z"/>
				<path class="st0" d="M820.5,449.8c-2.6,2-5.3,4-7.9,6c-1,0.8,0,2.3,1,1.5c2.6-2,5.3-4,7.9-6C822.5,450.6,821.5,449,820.5,449.8z
					"/>
				<path class="st0" d="M807.2,474.4c-4.5-4.3-7-9.8-7-16.1c0-1.2-2-1-2,0.2c0.1,6.7,2.7,12.7,7.6,17.3
					C806.7,476.6,808.1,475.2,807.2,474.4z"/>
				<path class="st0" d="M829.9,455.8c-3,2.2-6,4.4-9,6.6c-1,0.8,0,2.3,1,1.5c3-2.2,6-4.4,9-6.6C832,456.6,831,455,829.9,455.8z"/>
				<path class="st0" d="M831.9,463.1c-1.9,2.2-4.2,3.9-7,4.9c-1.2,0.4-0.7,2.2,0.5,1.7c3.1-1.1,5.8-2.9,7.9-5.4
					C834.1,463.3,832.7,462.1,831.9,463.1z"/>
				<path class="st0" d="M906.4,433.5c-7.1,1.4-14.3,2.4-21.5,3.1c-1.3,0.1-1.3,2,0,1.9c7.4-0.7,14.8-1.8,22.1-3.2
					C908.3,435,907.7,433.3,906.4,433.5z"/>
			</g>
		</g>
	</g>
	<g>
		<g>
			<path class="st6" d="M410.1,1083.6c145.7-21.8,291.2-44.2,436.7-67.3c12.9-2.1,21.6-14.7,19.5-28.2
				c-15.1-101.2-22-204.7-20.5-308.5c0.4-28.5-19.5-49.6-45.3-47.1c-126.7,11.9-253.3,24.2-379.9,36.9
				c-25.8,2.7-48.1,29.5-49.2,59.8c-3.6,111.2,0.5,222.2,12.2,331.4C385.2,1075.2,397.1,1085.5,410.1,1083.6z"/>
			<path class="st4" d="M418,690.9c-0.3,6.7-5.4,12.7-11.4,13.3c-6,0.6-10.7-4.3-10.4-11c0.3-6.7,5.5-12.7,11.5-13.3
				C413.7,679.3,418.3,684.2,418,690.9z"/>
			<path class="st4" d="M451.3,687.5c-0.3,6.7-5.4,12.6-11.4,13.3c-6,0.6-10.7-4.3-10.4-11c0.3-6.7,5.5-12.6,11.5-13.3
				C447,675.9,451.6,680.8,451.3,687.5z"/>
			<path class="st4" d="M483.5,684.1c-0.3,6.7-5.4,12.6-11.4,13.2c-6,0.6-10.7-4.3-10.4-10.9c0.3-6.7,5.5-12.6,11.5-13.2
				C479.2,672.6,483.8,677.5,483.5,684.1z"/>
			<g>
				<path class="st0" d="M412.3,696.4c-3.1-3.3-6.2-6.6-9.3-9.9c-0.6-0.6-1.6,0.5-1,1.2c3.1,3.3,6.2,6.6,9.3,9.9
					C411.9,698.2,412.9,697.1,412.3,696.4z"/>
				<path class="st0" d="M401.5,697.6c3.4-4,6.9-8,10.3-12c0.7-0.7,1.6,0.2,0.9,1c-3.4,4-6.9,8-10.3,12
					C401.8,699.3,400.9,698.3,401.5,697.6z"/>
			</g>
		</g>
		<g>
			<path class="st4" d="M839.4,675.8c-1.2,62.8,0.7,125.6,5.7,187.9c2.1,26.3,4.7,52.4,7.9,78.5c0,0.4,0.1,0.8,0.2,1.2
				c1,8,2,16.1,3.1,24.1c1.2,8.9,2.5,17.8,3.8,26.7c0,0.1,0,0.1,0,0.2c-0.1,0-0.2,0-0.3,0.1c-8,1.2-16.1,2.5-24.1,3.7
				c-0.8,0.1-1.6,0.3-2.4,0.4c-1.5,0.2-2.9,0.5-4.4,0.7c-0.3,0-0.6,0.1-0.9,0.1c-1.2,0.2-2.4,0.4-3.6,0.6c-1,0.2-2.1,0.3-3.1,0.5
				c-2.6,0.4-5.2,0.8-7.7,1.2c-20,3.1-40.1,6.2-60.1,9.2c-6.1,0.9-12.1,1.9-18.2,2.8c-0.2,0-0.5,0.1-0.7,0.1
				c-33.1,5-66.2,10-99.3,15c-81.8,12.1-163.5,24.1-245.4,35.9c-7.7-71.3-12.2-143.6-13.4-216.2c-0.7-41.7-0.3-83.5,1.2-125.3
				C531.4,706.8,685.3,691,839.4,675.8z"/>
		</g>
		<g>
			<g class="st12">
				<path class="st9" d="M402.5,1003.2c87.4-12.2,174.8-24.5,262.1-36.9c-7.7-73-11.6-146.9-11.7-221c-86.3,9.6-172.6,19.3-258.9,29
					C393.2,851,396,927.5,402.5,1003.2z"/>
			</g>
			<path class="st13" d="M593.4,919.8c5.6-0.7,11.1-1.5,16.7-2.2c-0.6-7.5-1.1-14.9-1.6-22.4c-5.5,0.7-11.1,1.5-16.6,2.2
				C592.3,904.9,592.8,912.4,593.4,919.8z"/>
			<path class="st13" d="M566.8,923.4c5.5-0.7,11.1-1.5,16.7-2.2c-1.1-15-2.1-30-2.8-45c-5.5,0.7-11.1,1.4-16.6,2.1
				C564.8,893.3,565.8,908.4,566.8,923.4z"/>
			<path class="st13" d="M542.2,926.7c5.6-0.7,11.1-1.5,16.7-2.2c-1.5-21-2.7-42.1-3.6-63.3c-5.5,0.7-11.1,1.4-16.6,2.1
				C539.5,884.5,540.7,905.6,542.2,926.7z"/>
			<g class="st14">
				<path class="st3" d="M518,929.9c5.6-0.7,11.1-1.5,16.7-2.2c-2.4-33.5-4-67.2-4.8-101c-5.5,0.7-11,1.3-16.6,2
					C514.1,862.6,515.7,896.3,518,929.9z"/>
			</g>
			<g class="st14">
				<path class="st3" d="M494.3,933.1c5.6-0.7,11.1-1.5,16.7-2.2c-2.5-36.1-4.1-72.4-4.8-108.8c-5.5,0.7-11,1.3-16.6,2
					C490.3,860.5,491.8,896.9,494.3,933.1z"/>
			</g>
			<g class="st14">
				<path class="st3" d="M470.1,936.3c5.6-0.7,11.1-1.5,16.7-2.2c-2.6-38.4-4.2-77-4.8-115.7c-5.5,0.7-11,1.3-16.5,2
					C466,859.1,467.6,897.8,470.1,936.3z"/>
			</g>
			<g class="st14">
				<path class="st3" d="M444.6,939.7c5.6-0.7,11.1-1.5,16.7-2.2c-2.7-41.3-4.3-82.7-4.8-124.2c-5.5,0.7-11,1.3-16.5,2
					C440.4,856.8,441.9,898.4,444.6,939.7z"/>
			</g>
		</g>
		<g>
			<g class="st15">
				<path class="st16" d="M599.5,963.5c-11.3,26.2-6.9,27.5-6.9,27.6c7.6-9.3,15.2-18.7,22.9-28
					C610.1,963.2,604.8,963.4,599.5,963.5z"/>
			</g>
			<g>
				<path class="st1" d="M758.1,846.3c3.9,7.3,13,8.7,19.5,7c3-0.8,9.4-6.7,8.8-10.6c-0.4-2.4-0.6-9.9-1-15.7c0-0.7-0.1-1.4-0.1-2
					c-0.1-1.6-0.2-3-0.4-3.9c-0.1-0.6-0.9,3.8-0.9,3.2c-0.4-2.6-0.8-5.2-1.2-7.4c-0.2-1.2-0.4-2.3-0.5-3.4c-0.4-2.6-0.7-4.4-0.9-4.8
					c-7.5-0.3-15-0.5-22.5-0.8C758.5,820.6,758.3,833.5,758.1,846.3z"/>
			</g>
			<g>
				<path class="st1" d="M800.1,808.4c-1.2,5.9-5.7,8.2-10,6.5c-2.1,8.6-6.9,16.4-21.9,17.4c-4.9,0.3-14.3-3.1-15-14
					c-3.8,1.5-10.5,0-10.3-9.5c0.1-6.5,6.2-8.6,6.5-8.7c2-26.7,33.9-35.9,40.8-10.9c0.4,1.6,1.9,4.4,2.1,9.5
					C796.8,798,801.5,802,800.1,808.4z"/>
			</g>
			<path class="st0" d="M762.9,797.8c-2.4-0.2-3,4.4-0.6,4.6C764.7,802.5,765.3,797.9,762.9,797.8z"/>
			<path class="st0" d="M779.1,797c-2.2-0.9-3.9,3.4-1.7,4.3C779.6,802.2,781.3,797.9,779.1,797z"/>
			<path class="st0" d="M797.1,806.3c-0.6-2.7-3.5-3.7-5.5-2c-0.8,0.7-0.1,2.2,0.7,1.5c1.1-0.9,2.7-0.6,3.2,0.9
				c0.7,1.8-1,3.9-2.5,3.7c-0.9-0.1-1.3,1.7-0.3,1.8C795.3,812.5,797.9,809.4,797.1,806.3z"/>
			<path class="st0" d="M749.9,812.7c-1.2,0.7-2.8,0.2-3.2-1.4c-0.4-1.7,1-3.6,2.4-3.4c0.9,0.2,1.3-1.6,0.4-1.8
				c-2.3-0.4-4.6,2.4-4.3,5.3c0.3,2.8,3,4.2,5.1,3C751.1,814,750.8,812.2,749.9,812.7z"/>
			<path class="st0" d="M768.8,800.7c-0.2,2-0.8,3.8-1.8,5.5c-0.5,0.9,0.6,1.8,1.1,0.8c1.1-1.9,1.8-4.1,2-6.3
				C770.3,799.7,768.9,799.7,768.8,800.7z"/>
			<path class="st1" d="M756.1,921.5c0,0,47.5-15.7,46.4-17.6c-1.3-1.8-4.9-58.8-4.7-58.9c-3.9-0.8-7.8-1.5-11.7-2.3
				c-4.1,1.3-8.3,2.6-12.4,3.9c-4.3,0.2-8.6,0.4-12.9,0.7c-0.1,0.1-15.2,43.8-15.5,46.6C744.7,896.9,756,921.4,756.1,921.5z"/>
			<g>
				<path class="st17" d="M845.1,863.7c2.1,26.3,4.7,52.4,7.9,78.5c0.1,0.4,0.1,0.8,0.2,1.2c1,8,2,16.1,3.1,24.1
					c1.2,8.9,2.5,17.8,3.8,26.7c0,0,0,0,0,0c-0.1,0.1-0.2,0.1-0.3,0.2c-8.1,1.3-16.2,2.5-24.3,3.8c-0.8,0.1-1.6,0.3-2.4,0.4
					c-1.5,0.2-3,0.5-4.4,0.7c-0.3,0-0.6,0.1-0.9,0.1c-1.2,0.2-2.4,0.4-3.6,0.6c-1.1,0.2-2.1,0.3-3.2,0.5c-2.6,0.4-5.2,0.8-7.8,1.2
					c-20.2,3.1-40.3,6.2-60.5,9.3c-6.1,0.9-12.2,1.9-18.3,2.8c0.5-6.3,1-13.4,1.1-14c0,0,0,0,0,0c0,0,0,0,0,0c0.1,0-6.6,1-9-37.8
					c-0.1-2.4-0.3-5-0.3-7.8c0,0,0,0,0,0c-0.1-2-0.1-4.2-0.2-6.4c0,0,0,0,0,0c0,0,0,0,0,0c-0.1-4.2-0.1-8.7,0-13.6c0,0,0,0,0,0
					c0,0,0,0,0,0l0,0c0-0.8,0-1.6,0-2.4c0-0.1-0.2,0.3-0.4,1c0,0,0,0,0,0c-2.6,6.7-14.4,42.8-14.6,41.8c-1.6-6.8-3.1-14.3-4.1-22.4
					c-0.2-1.5-0.4-3-0.5-4.5c-0.4-3.9-0.7-7.9-0.9-12.1c-1.1-24.2-0.5-24.4,1.2-35.6c1.7-11.1-3.3-14-3.3-14
					c0.6-1.7,1.3-3.3,2.1-4.9c0,0,0-0.1,0-0.1c10.8-20.5,37.9-30.6,48.1-33.9c0.4-0.1,0.7-0.2,1.1-0.4c2.1-0.6,1.4-0.8,3.6-1.3
					c0,0,0,0,0,0c0.7,1.1,1.4,2.2,2.1,3.4c0.3,0.5,0.6,1,0.9,1.5c0,0,0,0,0,0l0,0c3.5,5.5,7,11,10.6,16.5c3.1-5.2,6.3-10.3,9.4-15.5
					c0,0,0,0,0,0c1.7-2.8,3.4-5.5,5.1-8.3c0,0,0-0.1,0-0.1c0,0,0,0,0,0c0,0,3.5,0.2,8.6,0.9c0,0,0,0,0,0c0.3,0,0.7,0.1,1,0.2
					c9.5,1.4,37.5,9.6,46,16.9C843.1,861.6,844.1,862.6,845.1,863.7z"/>
			</g>
			<path class="st18" d="M832.8,998.5c-3,0.5-5.9,0.9-8.9,1.4c-1.1,0.2-2.1,0.3-3.2,0.5c-2.6,0.4-5.2,0.8-7.8,1.2
				c-20.2,3.1-40.3,6.2-60.5,9.3c-6.1,0.9-12.2,1.9-18.3,2.8c-0.3,0-0.5,0.1-0.7,0.1c0.1-1.8,0.7-4.6,1.8-14.1c0,0,0,0,0,0
				c0,0,0,0,0,0c6.6-0.7,13.1-1.5,19.7-2.2c9.1-1,18.1-2,27.2-3.1c6.7-0.8,13.3-1.9,19.8-3.4c8.8-1.9,17.7-3.9,26.5-5.8
				c0,0.1,0.1,0.3,0.1,0.4C830,989.9,831.4,994.2,832.8,998.5z"/>
			<path class="st1" d="M613.2,953c-1-1.5-2-2.8-3.2-4c0,0,0,0,0,0c-6.9-7.1-17.2-9-26.1-11.7c-3.2-1-6.4-2.1-9.4-3.7
				c-1.6-0.9-3-2-4.6-2.9c-0.8-0.4-1.6-0.7-2.4-0.2c-3.4,2.1,1.9,7.7,4.8,10.5c-6.4-2.1-11.9-4.9-17.7-8.6c-0.8-0.5-2.3-0.4-2.2,1.3
				c0,0.2,0.1,0.3,0.2,0.5c-0.7,0.1-1.4,0.7-1.6,1.8c-0.2,1,0.1,1.9,0.5,2.7c-0.9,1.3-0.4,2.8,0.3,4.2c0.2,0.5,0.5,0.9,0.7,1.4
				c0.9,2.3,2.2,4.4,3.1,5.8c3.5,5.1,8.4,8.9,13.6,11.4c5.8,2.8,12,3.8,18.2,4.6c3.3,0.4,6.6,0.7,9.7,1.7c0.2,0.1,0.4,0.1,0.6,0.2
				c0,0,0,0,0,0h0c2,0.6,4.3,1.5,5.9,3.1l0,0c0.8,0.8,1.4,1.7,1.7,2.9c0.1,0.5,0.4,0.7,0.8,0.8h0c0.2,0.1,0.5,0,0.7-0.1
				c0,0,0.1,0.1,0.1,0.1c0,0,0,0,0,0c0.4,0.3,0.8,0.2,1.2-0.2c0,0,0,0,0,0c0.8-0.9,1.5-3.2,1.8-4.6c0,0,0,0,0,0v0
				c0.1-0.4,0.2-0.8,0.2-0.9c0.5-1.9,1.1-3.7,1.6-5.6v0c0.9-2.9,1.8-5.9,2.6-8.8C614.9,953.3,613.8,952.6,613.2,953z"/>
			<g>
				<path class="st17" d="M708.1,877.1c0.2-0.2-12.3,11.6-39.2,88.9c-19.7-5.6-39.4-11.3-58.9-17c0,0,0.8,12.9-17.4,42.1
					c-0.2-0.1,68.3,26,89.7,22.5c21-3.4,55.8-73.1,56-73.3C727.8,919.4,717.8,898.3,708.1,877.1z"/>
			</g>
			<path class="st0" d="M672.1,968.4c2.4,2.6,4.3,5.6,5.7,9c0.3,0.8-0.8,1.3-1.1,0.5c-1.3-3.2-3-6-5.3-8.5
				C670.9,968.8,671.6,967.8,672.1,968.4z"/>
			<path class="st0" d="M608.4,995.1c6.5-11.6,10.1-25,10.6-38.7c0-0.8,1.2-0.6,1.2,0.2c-0.5,13.9-4.2,27.5-10.8,39.3
				C609,996.6,608,995.8,608.4,995.1z"/>
			<path class="st0" d="M615.3,992.4c1.2-2.9,2.1-5.9,2.7-9c0.2-0.8,1.3-0.6,1.2,0.2c-0.6,3.2-1.6,6.3-2.8,9.3
				C616.1,993.7,615,993.2,615.3,992.4z"/>
			<path class="st0" d="M832.1,867.1c0.3-0.7,1.4-0.2,1.1,0.5c-3.2,7.2-4.8,14.9-4.7,22.7c0,0.8-1.1,1-1.2,0.2
				C827.2,882.4,828.8,874.5,832.1,867.1z"/>
			<path class="st0" d="M583.2,945c2.1,2,4.5,3.3,7.2,4c0.7,0.2,0.5,1.5-0.2,1.3c-2.9-0.8-5.5-2.2-7.8-4.3
				C581.9,945.5,582.7,944.4,583.2,945z"/>
			<path class="st0" d="M557.8,936.7c3,3.1,6.6,4.9,10.6,5.5c0.7,0.1,0.5,1.4-0.2,1.3c-4.2-0.6-8.1-2.5-11.2-5.7
				C556.5,937.2,557.3,936.1,557.8,936.7z"/>
			<path class="st0" d="M566.4,953.2c0.7-3.8,2.5-7.1,5.1-9.7c0.6-0.6,1.4,0.4,0.8,0.9c-2.5,2.4-4.1,5.5-4.8,9.1
				C567.3,954.4,566.2,954.1,566.4,953.2z"/>
			<path class="st0" d="M753.4,847c1.4,6.3,2.9,12.5,4.4,18.7c0.1,0.4,0.8,0.6,1,0.2c1.4-2.5,4.2-3.1,6.5-2c2.5,1.1,4.1,3.9,5.2,6.5
				c0.1,0.2,0.2,0.3,0.4,0.3c-0.3,18.4-0.3,36.8-0.1,55.2c0,0.8,1.2,0.6,1.2-0.2c-0.2-18.5-0.1-37,0.1-55.6c1.6-2.1,3.4-4.4,5.6-5.6
				c2.4-1.3,6.6-0.9,6.3,2.9c0,0.7,0.8,1.1,1.1,0.4c3-8.1,6.6-15.9,10.8-23.5c0.1-0.2,0.1-0.3,0.1-0.5c-0.4-0.1-0.7-0.1-1-0.2
				c0,0,0,0.1-0.1,0.1c-3.8,6.9-7.2,14.1-10.1,21.5c-0.7-1.8-2.5-3-4.4-2.9c-3.6,0.1-6.7,3.5-8.9,6.5c-0.1,0-0.2,0.1-0.3,0.1
				c-1.4-2.9-3.2-5.7-6.1-6.6c-2.2-0.7-4.8-0.1-6.4,1.7c-1.4-5.8-2.8-11.6-4.1-17.5C754.2,846.7,753.8,846.8,753.4,847z"/>
			<path class="st0" d="M751.1,805.5c0,0-0.6-18.5,6.5-22.3c7.1-3.7,14-2.6,14-2.6c1.3-0.8,2.5-1.5,3.8-2.3c-0.4,0.7-0.7,1.3-1.1,2
				c0.8-0.3,1.7-0.6,2.5-0.9c-0.3,0.4-0.5,0.8-0.8,1.2c0,0,10.9-1.5,13.4,7.8c0.1,4.6,0.3,9.3,0.5,13.9c1.5-1.2,3-2.5,4.5-3.7
				c0.2-1.4,0.3-2.8,0.5-4.3c0.3-3.2,1.1-6.4,2-9.6c0.9-3,1.6-7.3-0.4-10.9c-3.4-6-8.2-6.4-8.2-6.4c0,0,0.5-9.5-16.4-6.8
				c-16.9,2.7-18.5,13-18.5,13c0,0-5.2,0.3-6,10.8c-0.8,10.6,0.8,16.6,0.8,16.6C749.1,802.5,750.1,804,751.1,805.5z"/>
			<path class="st0" d="M781.6,793.8c-2.4-0.2-4.5-1.2-6-3.2c-1.1-1.4,0.9-3.6,2-2.2c1.1,1.3,2.5,2.2,4.1,2.4
				C783.4,791,783.3,794,781.6,793.8z"/>
			<path class="st0" d="M766,788.6c-2,3.2-5.2,4.9-8.5,4.8c-1.7,0-1.3-3,0.5-3c2.4,0.1,4.5-1.3,5.9-3.6
				C765,785.2,767,786.9,766,788.6z"/>
			<path class="st0" d="M772.7,833c4.6-0.8,9-2.9,12.8-6.1c0-0.7-0.1-1.4-0.1-2c-3.7,3.4-8,5.6-12.7,6.4
				C771.6,831.5,771.7,833.2,772.7,833z"/>
			<path class="st0" d="M719.7,871.4c3.8,9,6.6,18.6,8.4,28.5c0.1,0.8-1,1-1.2,0.2c-1.7-9.8-4.5-19.2-8.3-28.2
				C718.3,871.1,719.4,870.7,719.7,871.4z"/>
			<path class="st0" d="M723.3,917.8c2.1,12.8,6,25.1,11.5,36.6c0.4,0.7-0.7,1.2-1.1,0.5c-5.6-11.6-9.4-24-11.6-37
				C722,917.2,723.2,917,723.3,917.8z"/>
			<path class="st0" d="M723.4,958.4c1.4-3.8,2.2-7.7,2.5-11.8c0.1-0.8,1.2-0.6,1.2,0.2c-0.3,4.2-1.1,8.2-2.5,12.1
				C724.2,959.7,723.1,959.2,723.4,958.4z"/>
			<path class="st0" d="M817.3,940.9c6.3-10.7,9.5-23.4,9.1-36.1c0-0.8,1.1-1,1.2-0.2c0.4,13.1-2.8,26-9.3,37
				C817.9,942.4,816.9,941.6,817.3,940.9z"/>
			<path class="st0" d="M836.5,951.9c2-3.1,4.7-5.5,8-7c0.7-0.3,1.2,0.8,0.5,1.2c-3.1,1.4-5.6,3.7-7.5,6.6
				C837,953.4,836.1,952.6,836.5,951.9z"/>
			<path class="st0" d="M741,982.8c1.8,3.6,4.2,6.6,7.3,8.9c0.6,0.5-0.1,1.5-0.7,1c-3.3-2.4-5.9-5.6-7.7-9.4
				C739.6,982.6,740.7,982.1,741,982.8z"/>
			<path class="st0" d="M737.2,987.2c0.8,2.7,2.5,4.9,4.9,6.2c0.7,0.4,0.2,1.5-0.4,1.2c-2.6-1.4-4.6-3.8-5.5-6.9
				C735.9,987,737,986.4,737.2,987.2z"/>
			<path class="st0" d="M740.5,1004.7c3.8-0.3,7.6-0.6,11.4-0.9c0.8-0.1,0.9,1.2,0.2,1.3c-3.8,0.3-7.6,0.6-11.4,0.9
				C739.9,1006.1,739.7,1004.8,740.5,1004.7z"/>
			<path class="st0" d="M559.2,942.6c1.6,1.3,3.4,2.2,5.4,2.4c0.7,0.1,0.8,1.4,0,1.3c-2.3-0.2-4.4-1.1-6.3-2.7
				C557.8,943.1,558.6,942.1,559.2,942.6z"/>
			<path class="st0" d="M555.8,944.9c1.4,0.2,2.2,1.2,3,2.4c1.2,1.8,2.5,3.1,4.5,3.8c0.7,0.2,0.5,1.5-0.2,1.3
				c-1.4-0.4-2.7-1.1-3.8-2.3c-1.2-1.3-2-3.6-3.8-3.9C554.8,946.1,555,944.8,555.8,944.9z"/>
			<path class="st0" d="M770.6,817.4c1.5-2,3.9-2.7,6-1.7c0.7,0.3,0.1,1.5-0.5,1.2c-1.6-0.8-3.4-0.2-4.6,1.3
				C771,818.9,770.1,818.1,770.6,817.4z"/>
		</g>
	</g>
	<g>
		<g>
			<path class="st6" d="M55.6,588c129.8-28.2,259.5-57,389.1-86.3c11.5-2.6,18.6-14.5,15.9-26.6C441,384.9,428.7,292.2,424,198.7
				c-1.3-25.6-20.4-43.5-43.5-39.8c-113.3,18.2-226.6,36.7-339.7,55.6c-23,4-41.6,29.4-40.7,56.7c3.3,100.3,13.6,200,30.5,297.5
				C32.8,581.9,44.1,590.5,55.6,588z"/>
			<path class="st4" d="M39.6,234.2c0.1,6.1-4.1,11.7-9.5,12.7c-5.4,0.9-9.9-3.2-10-9.3c-0.1-6.1,4.2-11.7,9.6-12.7
				C35.1,223.9,39.5,228.1,39.6,234.2z"/>
			<path class="st4" d="M69.4,229.1c0.1,6-4.1,11.7-9.5,12.6c-5.4,0.9-9.9-3.2-10-9.3c-0.1-6,4.2-11.7,9.6-12.6
				C64.8,218.9,69.3,223,69.4,229.1z"/>
			<path class="st4" d="M98.2,224.2c0.1,6-4.1,11.6-9.5,12.6c-5.4,0.9-9.9-3.2-10-9.2c-0.1-6,4.2-11.6,9.6-12.6
				C93.6,214,98,218.2,98.2,224.2z"/>
			<g>
				<path class="st0" d="M34.8,239.5c-3-2.8-6-5.6-9-8.4c-0.6-0.5-1.4,0.6-0.8,1.1c3,2.8,6,5.6,9,8.4
					C34.5,241.1,35.3,240,34.8,239.5z"/>
				<path class="st0" d="M25.1,241.1c2.9-3.8,5.7-7.6,8.6-11.4c0.5-0.7,1.4,0.1,0.9,0.8c-2.9,3.8-5.7,7.6-8.6,11.4
					C25.5,242.6,24.6,241.8,25.1,241.1z"/>
			</g>
		</g>
		<g>
			<path class="st4" d="M418,193.6c2.6,56.6,8,113,16.2,168.8c3.4,23.5,7.3,46.9,11.7,70.1c0.1,0.4,0.1,0.7,0.2,1.1
				c1.4,7.2,2.8,14.3,4.2,21.5c1.6,7.9,3.3,15.9,5,23.8c0,0.1,0,0.1,0,0.2c-0.1,0-0.2,0-0.3,0.1c-7.2,1.6-14.3,3.2-21.5,4.8
				c-0.7,0.2-1.4,0.3-2.2,0.5c-1.3,0.3-2.6,0.6-3.9,0.9c-0.3,0.1-0.5,0.1-0.8,0.2c-1.1,0.2-2.2,0.5-3.2,0.7
				c-0.9,0.2-1.9,0.4-2.8,0.6c-2.3,0.5-4.6,1-6.9,1.5c-17.8,4-35.7,7.9-53.5,11.8c-5.4,1.2-10.8,2.4-16.2,3.6
				c-0.2,0-0.4,0.1-0.7,0.1c-29.5,6.5-59,12.9-88.5,19.3C181.9,539,109,554.5,36.1,570C25,506.2,16.7,441.5,11.3,376.2
				C8.2,338.6,6.1,301,5,263.3C142.6,239.7,280.2,216.4,418,193.6z"/>
		</g>
	</g>
	<g>
		<path class="st6" d="M2249.4,717.8c-182-50-365.1-91.4-548.9-124.8c-11.9-2.2-21.7-13.5-21.7-25.3c-0.7-113.2-1.5-226.4-2.2-339.6
			c-0.1-20,16.1-38.8,36.2-41.8c173.6-26.5,348.2-48.6,523.5-65.5c20.3-2.1,36.7,21.2,36.6,52c-0.7,172.8-1.3,345.6-2,518.4
			C2270.8,709.2,2261.2,721.1,2249.4,717.8z"/>
		<path class="st4" d="M1730.1,215.9c0,6.3-4.9,11.9-11,12.6c-6.1,0.7-11.1-3.7-11.2-9.9c0-6.1,4.9-11.8,11-12.6
			C1725.1,205.2,1730.1,209.6,1730.1,215.9z"/>
		<path class="st4" d="M1764,211.8c0,6.4-4.9,12.2-11,12.8c-6.1,0.7-11.1-3.9-11.2-10.2c0-6.3,4.9-12.1,11-12.9
			C1759,200.8,1764,205.4,1764,211.8z"/>
		<path class="st4" d="M1796.7,208c0,6.6-4.9,12.5-11,13.1c-6.1,0.6-11.1-4.1-11.2-10.5c0-6.5,4.9-12.3,11-13.1
			C1791.7,196.7,1796.7,201.4,1796.7,208z"/>
		<g>
			<path class="st0" d="M1724.5,221.1c-3.3-3-6.7-5.9-10-8.9c-0.6-0.6-1.6,0.6-1,1.1c3.3,2.9,6.7,5.9,10,8.9
				C1724.2,222.8,1725.2,221.7,1724.5,221.1z"/>
			<path class="st0" d="M1713.6,222.4c3.3-3.7,6.6-7.5,9.9-11.3c0.6-0.7,1.6,0.1,1,0.9c-3.3,3.8-6.6,7.6-9.9,11.3
				C1713.9,224,1713,223.1,1713.6,222.4z"/>
		</g>
		<g>
			<path class="st4" d="M2266.2,219.8c-0.7,153.5-1.5,306.9-2.2,460.2c-91.8-23.5-183.8-44.8-276-63.9
				c-100.5-20.4-201.2-38.5-302-54.2c-0.3-64.4-0.6-128.9-0.9-193.4c-0.2-37.1-0.4-74.2-0.5-111.3
				C1877.7,238.3,2071.7,225.6,2266.2,219.8z"/>
		</g>
		<g>
			<g>
				<path class="st19" d="M1816.7,360.6c0.2,36,0.3,72,0.5,108c0,3.6,4.8,4.3,4.8,0.6c-0.2-36.1-0.3-72.2-0.5-108.4
					C1821.6,357.2,1816.7,357,1816.7,360.6z"/>
				<path class="st19" d="M1865.3,359.5c0.1,37.9,0.3,75.7,0.4,113.6c0,3.8,4.8,4.5,4.8,0.6c-0.1-38-0.3-76-0.4-113.9
					C1870.1,355.9,1865.3,355.6,1865.3,359.5z"/>
				<path class="st19" d="M1817.2,360.5c16.2,36.5,32.4,74.1,48.6,113c1.6,3.9,6,1.9,4.3-2.1c-16.2-39-32.4-76.8-48.6-113.3
					C1819.9,354.4,1815.5,356.8,1817.2,360.5z"/>
			</g>
			<path class="st19" d="M1947.4,478.1c-12.9-1.4-25.8-2.7-38.6-4c-0.1-19.2-0.1-38.5-0.2-57.7c12.8,0.8,25.7,1.6,38.5,2.4
				c3.1,0.2,3.2-6,0.1-6.2c-12.9-0.8-25.8-1.5-38.7-2.2c0-15.1-0.1-30.2-0.1-45.3c12.6,0.3,25.2,0.6,37.9,1c3.1,0.1,3.2-6.1,0.1-6.2
				c-13.5-0.3-27-0.6-40.5-0.9c-1.9,0-2.7,2.2-2.3,3.9c0.1,38,0.2,76,0.3,114c0,2.4,1.9,3.6,3.3,3.2c13.3,1.4,26.7,2.8,40,4.3
				C1950.3,484.6,1950.5,478.4,1947.4,478.1z"/>
			<g>
				<path class="st19" d="M1968,361.7c7.2,41.1,14.4,82.7,21.5,124.9c0.7,4.3,5.5,3.6,4.7-0.7c-7.2-42.3-14.3-84.1-21.5-125.3
					C1972,356.5,1967.3,357.5,1968,361.7z"/>
				<path class="st19" d="M2064.3,365c-7.2,43.2-14.3,85.8-21.4,127.9c-0.7,4.2-5.4,2.4-4.7-1.8c7.1-42,14.3-84.5,21.4-127.5
					C2060.3,359.2,2065,360.6,2064.3,365z"/>
				<path class="st19" d="M2013.5,408.1c-7.9,25.7-15.7,51.1-23.6,76.1c-1.4,4.3,3,7.4,4.4,3.1c7.9-25.1,15.7-50.5,23.6-76.3
					C2019.2,406.6,2014.8,403.7,2013.5,408.1z"/>
				<path class="st19" d="M2018.5,408.5c7.9,26.9,15.8,54.2,23.7,81.9c1.3,4.8-3,6.9-4.4,2.2c-7.9-27.6-15.8-54.9-23.7-81.7
					C2012.7,406.2,2017.1,403.8,2018.5,408.5z"/>
			</g>
			<path class="st19" d="M2132.4,461.5c-6.1-23.1-24.1-32.9-33.4-52.2c-5.2-10.7-6.7-24.4,0.8-33.2c7.7-9,19.4-5.5,24.8,6.4
				c1.9,4.1,6.7,1,4.9-3.2c-7.2-16-23-21-33.4-8.8c-11.8,13.8-6.9,35.6,2.7,50.2c10.5,15.8,35.7,35,28.7,60.3
				c-3,10.7-11.5,16.9-20,15.8c-9.2-1.2-17.2-9.3-22.6-19.3c-2.1-3.9-6.1,0.5-4,4.4c8.4,15.5,23.5,26.6,37,20.8
				C2130.3,497.3,2137.2,479.6,2132.4,461.5z"/>
		</g>
	</g>
</g>
<g>
	<path class="st0" d="M217.2,344.2c-0.6-2.1-2.7-3.3-4.8-2.7l-17,4.8l-0.5-1.8l2.6-0.7c5-1.4,7.9-6.6,6.5-11.6l-2.1-7.5
		c-0.6-2.1-2.7-3.3-4.8-2.7c-2.1,0.6-3.3,2.7-2.7,4.8l2.1,7.5c0.2,0.8-0.2,1.7-1.1,1.9l-3,0.9c-2.3-4.1-7.1-6.1-11.9-4.8l-24.7,7
		c-4.7,1.3-7.8,5.6-7.7,10.3l-3,0.9c-0.8,0.2-1.7-0.2-1.9-1.1l-2.1-7.5c-0.6-2.1-2.7-3.3-4.8-2.7c-2.1,0.6-3.3,2.7-2.7,4.8l2.1,7.5
		c1.4,5,6.6,7.9,11.6,6.5l2.6-0.7l0.5,1.8l-17,4.8c-2.1,0.6-3.3,2.7-2.7,4.8c0.6,2.1,2.7,3.3,4.8,2.7l17-4.8l0.1,0.5
		c0.1,0.5,0.3,0.9,0.4,1.4l-2.7,0.8c-5,1.4-7.9,6.6-6.5,11.6l2.1,7.5c0.6,2.1,2.7,3.3,4.8,2.7c2.1-0.6,3.3-2.7,2.7-4.8l-2.1-7.5
		c-0.2-0.8,0.2-1.7,1.1-1.9l4.4-1.2c5.8,7.2,15.4,10.5,24.7,7.8c9.4-2.7,15.7-10.7,16.9-19.6l4.4-1.2c0.8-0.2,1.7,0.2,1.9,1.1
		l2.1,7.5c0.6,2.1,2.7,3.3,4.8,2.7s3.3-2.7,2.7-4.8l-2.1-7.5c-1.4-5-6.6-7.9-11.6-6.5l-2.4,0.7c-0.1-0.5-0.3-0.9-0.4-1.4l-0.1-0.5
		l17-4.8C216.6,348.4,217.8,346.3,217.2,344.2z M159.8,365l-4.2-14.6c-0.4-1.5,0.4-3.1,1.9-3.5l8.6-2.4l9,31.8
		C168.3,376.5,161.8,372,159.8,365z M182.8,374.1l-9-31.8l8.6-2.4c1.5-0.4,3.1,0.4,3.5,1.9l4.2,14.6
		C192,363.4,188.8,370.6,182.8,374.1z"/>
	<path class="st0" d="M162.4,316.5c8.3-2.4,16.9,2.5,19.2,10.7c0.6,2.1-0.6,4.2-2.7,4.8c-2.1,0.6-4.2-0.6-4.8-2.7
		c-1.2-4.1-5.4-6.4-9.5-5.3c-4.1,1.2-6.4,5.4-5.3,9.5c0.6,2.1-0.6,4.2-2.7,4.8c-2.1,0.6-4.2-0.6-4.8-2.7
		C149.3,327.4,154.1,318.9,162.4,316.5z"/>
</g>
<g>
	<path class="st0" d="M327.5,404.6c-0.6-1.4-2.1-1.9-3.5-1.3l-10.9,4.9l-0.5-1.2l1.6-0.7c3.2-1.4,4.6-5.2,3.2-8.4l-2.2-4.8
		c-0.6-1.4-2.1-1.9-3.5-1.3c-1.4,0.6-1.9,2.1-1.3,3.5l2.2,4.8c0.2,0.5,0,1.1-0.5,1.4l-1.9,0.9c-1.9-2.5-5.3-3.4-8.4-2l-15.8,7.1
		c-3,1.3-4.7,4.5-4.1,7.6l-1.9,0.9c-0.5,0.2-1.1,0-1.4-0.5l-2.2-4.8c-0.6-1.4-2.1-1.9-3.5-1.3c-1.4,0.6-1.9,2.1-1.3,3.5l2.2,4.8
		c1.4,3.2,5.2,4.6,8.4,3.2l1.6-0.7l0.5,1.2l-10.9,4.9c-1.4,0.6-1.9,2.1-1.3,3.5c0.6,1.4,2.1,1.9,3.5,1.3l10.9-4.9l0.1,0.3
		c0.1,0.3,0.3,0.6,0.4,0.9l-1.7,0.8c-3.2,1.4-4.6,5.2-3.2,8.4l2.2,4.8c0.6,1.4,2.1,1.9,3.5,1.3c1.4-0.6,1.9-2.1,1.3-3.5l-2.2-4.8
		c-0.2-0.5,0-1.1,0.5-1.4l2.8-1.2c4.5,4.2,11.3,5.5,17.2,2.8c6-2.7,9.5-8.6,9.4-14.7l2.8-1.2c0.5-0.2,1.1,0,1.4,0.5l2.2,4.8
		c0.6,1.4,2.1,1.9,3.5,1.3c1.4-0.6,1.9-2.1,1.3-3.5l-2.2-4.8c-1.4-3.2-5.2-4.6-8.4-3.2l-1.5,0.7c-0.1-0.3-0.3-0.6-0.4-0.9l-0.1-0.3
		l10.9-4.9C327.6,407.5,328.1,405.9,327.5,404.6z M291.3,424l-4.2-9.4c-0.4-1,0-2.1,1-2.5l5.5-2.5l9.1,20.4
		C298.1,430.8,293.3,428.5,291.3,424z M307.5,427.9l-9.1-20.4l5.5-2.5c1-0.4,2.1,0,2.5,1l4.2,9.4C312.6,419.8,311.2,425,307.5,427.9
		z"/>
	<path class="st0" d="M288.3,391.4c5.3-2.4,11.5,0.1,13.8,5.3c0.6,1.4,0,2.9-1.3,3.5s-2.9,0-3.5-1.3c-1.2-2.6-4.2-3.8-6.8-2.6
		c-2.6,1.2-3.8,4.2-2.6,6.8c0.6,1.4,0,2.9-1.3,3.5c-1.4,0.6-2.9,0-3.5-1.3C280.7,400,283,393.8,288.3,391.4z"/>
</g>
</svg>
