<?xml version="1.0" encoding="utf-8"?>
<!-- Generator: Adobe Illustrator 23.0.3, SVG Export Plug-In . SVG Version: 6.00 Build 0)  -->
<svg version="1.1" xmlns="http://www.w3.org/2000/svg" xmlns:xlink="http://www.w3.org/1999/xlink" x="0px" y="0px"
	 viewBox="0 0 3771.8 2263.8" style="enable-background:new 0 0 3771.8 2263.8;" xml:space="preserve">
<style type="text/css">
	.st0{fill:#2C2B3C;}
	.st1{fill:#D0D0D0;}
	.st2{fill:#C4C6C4;}
	.st3{fill:#3E435D;}
	.st4{fill:#FBF4F1;}
	.st5{fill:#F69A91;}
	.st6{fill:#879673;}
	.st7{fill:#E85170;}
	.st8{fill:#2C243C;}
	.st9{fill:#7BA3FE;}
	.st10{fill:#3B3853;}
	.st11{fill:#FFFFFF;}
	.st12{fill:#FFFFFE;}
	.st13{fill:#FB7267;}
	.st14{fill:#455A64;}
	.st15{fill:#FAFAFA;}
	.st16{fill:#EBEBEB;}
	.st17{fill:#263238;}
	.st18{fill:#E8505B;}
	.st19{opacity:0.5;}
	.st20{fill:#E0E0E0;}
	.st21{opacity:0.4;}
	.st22{fill:none;stroke:#4E585D;stroke-width:5.000000e-02;stroke-miterlimit:10;}
	.st23{opacity:0.2;}
	.st24{fill:#B78876;}
	.st25{fill:#AA6550;}
	.st26{opacity:0.3;}
</style>
<g id="Layer_1">
	<g>
		<rect x="1869.5" y="1257.9" class="st0" width="65.6" height="1005.9"/>
		<rect x="2170.8" y="1229" class="st0" width="65.6" height="1034.8"/>
	</g>
	<g>
		
			<rect x="406.6" y="1257.9" transform="matrix(-1 -4.494550e-11 4.494550e-11 -1 878.8521 3521.7827)" class="st0" width="65.6" height="1005.9"/>
		
			<rect x="105.3" y="1229" transform="matrix(-1 -4.497304e-11 4.497304e-11 -1 276.2075 3492.8472)" class="st0" width="65.6" height="1034.8"/>
	</g>
	<g>
		<polygon class="st1" points="401.6,1225.3 2331.4,1225.3 1994.1,997.6 412.4,1001.5 401.6,1009.3 		"/>
		<rect x="401.6" y="1225.3" class="st2" width="1929.8" height="78.1"/>
		<polygon class="st1" points="1929.8,1225.3 0,1225.3 337.3,997.6 1919,1001.5 1929.8,1009.3 		"/>
		<rect x="0" y="1225.3" class="st2" width="1929.8" height="78.1"/>
		<path class="st0" d="M2030.6,1223.8h-256.4c-4.2,0-4.4,6.8-0.2,6.8h256.4C2034.6,1230.6,2034.8,1223.8,2030.6,1223.8z"/>
		<path class="st0" d="M1682.8,1223.8h-109.4c-4.2,0-4.4,6.8-0.2,6.8h109.4C1686.8,1230.6,1687,1223.8,1682.8,1223.8z"/>
	</g>
	<g>
		<g>
			<g>
				<polygon class="st3" points="1246.2,1177.5 532.2,1177.5 608.5,1082.7 1164.1,1084.1 				"/>
				<rect x="532.2" y="1177.5" class="st0" width="714" height="25.3"/>
			</g>
			<g>
				<g>
					<path class="st0" d="M943.7,1160.3H724.8c-1.3,0-2.1-0.9-1.7-2.1l2.7-8.4c0.4-1.2,1.7-2.1,3-2.1h212.9c1.3,0,2.5,0.9,2.7,2.1
						l1.4,8.4C945.9,1159.4,945,1160.3,943.7,1160.3z"/>
					<path class="st0" d="M996.5,1160.3h-31c-1.3,0-2.6-0.9-2.8-2.1l-1.7-8.4c-0.2-1.2,0.6-2.1,1.9-2.1h30.1c1.3,0,2.6,0.9,2.9,2.1
						l2.3,8.4C998.7,1159.4,997.9,1160.3,996.5,1160.3z"/>
					<path class="st0" d="M1048.5,1160.3h-31c-1.3,0-2.7-0.9-3.1-2.1l-2.6-8.4c-0.4-1.2,0.4-2.1,1.7-2.1h30.1c1.3,0,2.7,0.9,3.2,2.1
						l3.3,8.4C1050.6,1159.4,1049.9,1160.3,1048.5,1160.3z"/>
					<path class="st0" d="M1152.9,1160.3h-31c-1.3,0-2.9-0.9-3.6-2.1l-4.5-8.4c-0.6-1.2-0.1-2.1,1.2-2.1h30.1c1.3,0,2.9,0.9,3.7,2.1
						l5.2,8.4C1154.8,1159.4,1154.3,1160.3,1152.9,1160.3z"/>
					<path class="st0" d="M1108.4,1160.3h-31c-1.3,0-2.8-0.9-3.4-2.1l-1.7-3.9c-0.5-1.2,0.1-2.1,1.4-2.1h30.4c1.3,0,2.9,0.9,3.5,2.1
						l2,3.9C1110.3,1159.4,1109.7,1160.3,1108.4,1160.3z"/>
					<path class="st0" d="M1198.8,1160.3h-31c-1.3,0-3-0.9-3.8-2.1l-2.5-3.9c-0.7-1.2-0.3-2.1,1-2.1h30.4c1.3,0,3.1,0.9,3.9,2.1
						l2.8,3.9C1200.6,1159.4,1200.1,1160.3,1198.8,1160.3z"/>
					<path class="st0" d="M1171.8,1124.2h-28.6c-1.2,0-2.8-0.9-3.6-2.1l-4.2-6.7c-0.7-1.2-0.4-2.1,0.8-2.1h27.8
						c1.2,0,2.9,0.9,3.7,2.1l4.7,6.7C1173.4,1123.2,1173.1,1124.2,1171.8,1124.2z"/>
					<path class="st0" d="M1076.1,1123.3h-28.5c-1.2,0-2.6-0.9-3.1-2.1l-2.7-6.7c-0.5-1.2,0.1-2.1,1.3-2.1h27.8
						c1.2,0,2.6,0.9,3.2,2.1l3.3,6.7C1077.9,1122.4,1077.3,1123.3,1076.1,1123.3z"/>
					<path class="st0" d="M986.5,1123.3H958c-1.2,0-2.4-0.9-2.6-2.1l-1.3-6.7c-0.2-1.2,0.5-2.1,1.7-2.1h27.8c1.2,0,2.4,0.9,2.8,2.1
						l1.8,6.7C988.4,1122.4,987.7,1123.3,986.5,1123.3z"/>
					<path class="st0" d="M890.4,1123.3h-28.5c-1.2,0-2.2-0.9-2.2-2.1l0.2-6.7c0-1.2,1-2.1,2.2-2.1h27.8c1.2,0,2.2,0.9,2.3,2.1
						l0.3,6.7C892.6,1122.4,891.7,1123.3,890.4,1123.3z"/>
					<path class="st0" d="M798.3,1123.3h-28.5c-1.2,0-2-0.9-1.7-2.1l1.6-6.7c0.3-1.2,1.5-2.1,2.7-2.1h27.8c1.2,0,2,0.9,1.8,2.1
						l-1.1,6.7C800.7,1122.4,799.5,1123.3,798.3,1123.3z"/>
					<path class="st0" d="M705.2,1123.3h-28.5c-1.2,0-1.8-0.9-1.2-2.1l3.1-6.7c0.5-1.2,2-2.1,3.2-2.1h27.8c1.2,0,1.8,0.9,1.4,2.1
						l-2.6,6.7C707.8,1122.4,706.4,1123.3,705.2,1123.3z"/>
					<path class="st0" d="M643.6,1106.1h-27.3c-1.2,0-1.5-0.9-0.8-2.1l4.2-6.7c0.7-1.2,2.3-2.1,3.4-2.1h26.6c1.1,0,1.6,0.9,0.9,2.1
						l-3.7,6.7C646.3,1105.1,644.8,1106.1,643.6,1106.1z"/>
					<path class="st0" d="M658.3,1123.3h-58.5c-1.2,0-1.6-0.9-0.9-2.1l4.3-6.7c0.8-1.2,2.3-2.1,3.5-2.1h57c1.2,0,1.7,0.9,1.1,2.1
						l-3.3,6.7C661,1122.4,659.5,1123.3,658.3,1123.3z"/>
					<path class="st0" d="M1125.5,1123.3H1097c-1.2,0-2.7-0.9-3.3-2.1l-3.5-6.7c-0.6-1.2-0.1-2.1,1.1-2.1h27.8
						c1.2,0,2.7,0.9,3.5,2.1l4,6.7C1127.2,1122.4,1126.7,1123.3,1125.5,1123.3z"/>
					<path class="st0" d="M1029.9,1123.3h-28.5c-1.2,0-2.5-0.9-2.9-2.1l-2-6.7c-0.4-1.2,0.3-2.1,1.5-2.1h27.8c1.2,0,2.5,0.9,3,2.1
						l2.5,6.7C1031.7,1122.4,1031.1,1123.3,1029.9,1123.3z"/>
					<path class="st0" d="M937.9,1123.3h-28.5c-1.2,0-2.3-0.9-2.4-2.1l-0.6-6.7c-0.1-1.2,0.8-2.1,2-2.1h27.8c1.2,0,2.3,0.9,2.5,2.1
						l1.1,6.7C939.9,1122.4,939.1,1123.3,937.9,1123.3z"/>
					<path class="st0" d="M844.2,1123.3h-28.5c-1.2,0-2.1-0.9-1.9-2.1l0.9-6.7c0.2-1.2,1.3-2.1,2.5-2.1h27.8c1.2,0,2.1,0.9,2,2.1
						l-0.4,6.7C846.5,1122.4,845.5,1123.3,844.2,1123.3z"/>
					<path class="st0" d="M750.6,1123.3h-28.5c-1.2,0-1.9-0.9-1.5-2.1l2.4-6.7c0.4-1.2,1.7-2.1,2.9-2.1h27.8c1.2,0,1.9,0.9,1.6,2.1
						l-1.9,6.7C753.1,1122.4,751.8,1123.3,750.6,1123.3z"/>
					<path class="st0" d="M1036.9,1106.2H1010c-1.2,0-2.5-0.9-2.8-2.1l-2.2-6.7c-0.4-1.2,0.2-2.1,1.4-2.1h26.2c1.1,0,2.5,0.9,3,2.1
						l2.7,6.7C1038.6,1105.2,1038.1,1106.2,1036.9,1106.2z"/>
					<path class="st0" d="M952.1,1106.2h-26.9c-1.2,0-2.3-0.9-2.4-2.1l-0.8-6.7c-0.1-1.2,0.7-2.1,1.8-2.1h26.2
						c1.1,0,2.3,0.9,2.5,2.1l1.4,6.7C954,1105.2,953.3,1106.2,952.1,1106.2z"/>
					<path class="st0" d="M861.2,1106.2h-26.9c-1.2,0-2-0.9-1.9-2.1l0.6-6.7c0.1-1.2,1.1-2.1,2.3-2.1h26.2c1.1,0,2.1,0.9,2,2.1
						l-0.1,6.7C863.4,1105.2,862.4,1106.2,861.2,1106.2z"/>
					<path class="st0" d="M774,1106.2h-26.9c-1.2,0-1.8-0.9-1.5-2.1l2.1-6.7c0.4-1.2,1.6-2.1,2.7-2.1h26.2c1.1,0,1.9,0.9,1.6,2.1
						l-1.6,6.7C776.4,1105.2,775.2,1106.2,774,1106.2z"/>
					<path class="st0" d="M686,1106.2h-26.9c-1.2,0-1.6-0.9-1-2.1l3.5-6.7c0.6-1.2,2-2.1,3.2-2.1h26.2c1.1,0,1.7,0.9,1.1,2.1l-3,6.7
						C688.5,1105.2,687.2,1106.2,686,1106.2z"/>
					<path class="st0" d="M1083.6,1106.2h-26.9c-1.2,0-2.6-0.9-3.1-2.1l-3-6.7c-0.5-1.2,0-2.1,1.1-2.1h26.2c1.1,0,2.6,0.9,3.2,2.1
						l3.5,6.7C1085.3,1105.2,1084.8,1106.2,1083.6,1106.2z"/>
					<path class="st0" d="M993.2,1106.2h-26.9c-1.2,0-2.4-0.9-2.6-2.1l-1.5-6.7c-0.3-1.2,0.4-2.1,1.6-2.1h26.2
						c1.1,0,2.4,0.9,2.7,2.1l2,6.7C995,1105.2,994.3,1106.2,993.2,1106.2z"/>
					<path class="st0" d="M906.1,1106.2h-26.9c-1.2,0-2.2-0.9-2.2-2.1l-0.1-6.7c0-1.2,0.9-2.1,2-2.1h26.2c1.1,0,2.2,0.9,2.3,2.1
						l0.6,6.7C908.2,1105.2,907.3,1106.2,906.1,1106.2z"/>
					<path class="st0" d="M817.5,1106.2h-26.9c-1.2,0-1.9-0.9-1.7-2.1l1.4-6.7c0.2-1.2,1.4-2.1,2.5-2.1H819c1.1,0,2,0.9,1.8,2.1
						l-0.8,6.7C819.8,1105.2,818.7,1106.2,817.5,1106.2z"/>
					<path class="st0" d="M728.9,1106.2H702c-1.2,0-1.7-0.9-1.2-2.1l2.8-6.7c0.5-1.2,1.8-2.1,3-2.1h26.2c1.1,0,1.8,0.9,1.4,2.1
						l-2.3,6.7C731.4,1105.2,730.1,1106.2,728.9,1106.2z"/>
					<path class="st0" d="M1013.2,1141.5h-29.7c-1.3,0-2.6-0.9-2.8-2.1l-1.7-6.7c-0.3-1.2,0.5-2.1,1.7-2.1h29c1.3,0,2.6,0.9,3,2.1
						l2.2,6.7C1015.2,1140.5,1014.5,1141.5,1013.2,1141.5z"/>
					<path class="st0" d="M1112,1141.5h-29.7c-1.3,0-2.8-0.9-3.3-2.1l-3.1-6.7c-0.6-1.2,0-2.1,1.3-2.1h29c1.3,0,2.8,0.9,3.4,2.1
						l3.7,6.7C1113.8,1140.5,1113.3,1141.5,1112,1141.5z"/>
					<path class="st0" d="M1063.4,1141.5h-29.7c-1.3,0-2.7-0.9-3.1-2.1l-2.4-6.7c-0.4-1.2,0.2-2.1,1.5-2.1h29c1.3,0,2.7,0.9,3.2,2.1
						l2.9,6.7C1065.3,1140.5,1064.6,1141.5,1063.4,1141.5z"/>
					<path class="st0" d="M913,1141.5h-29.7c-1.3,0-2.3-0.9-2.4-2.1l-0.1-6.7c0-1.2,1-2.1,2.2-2.1h29c1.3,0,2.4,0.9,2.5,2.1l0.7,6.7
						C915.3,1140.5,914.3,1141.5,913,1141.5z"/>
					<path class="st0" d="M816.9,1141.5h-29.7c-1.3,0-2.1-0.9-1.9-2.1l1.3-6.7c0.2-1.2,1.4-2.1,2.7-2.1h29c1.3,0,2.2,0.9,2,2.1
						l-0.8,6.7C819.4,1140.5,818.2,1141.5,816.9,1141.5z"/>
					<path class="st0" d="M719.9,1141.5h-29.7c-1.3,0-1.9-0.9-1.4-2.1l2.8-6.7c0.5-1.2,1.9-2.1,3.1-2.1h29c1.3,0,1.9,0.9,1.6,2.1
						l-2.2,6.7C722.5,1140.5,721.2,1141.5,719.9,1141.5z"/>
					<path class="st0" d="M667.6,1141.5h-83.9c-1.3,0-1.7-0.9-0.9-2.1l4.4-6.7c0.8-1.2,2.4-2.1,3.7-2.1h81.8c1.3,0,1.8,0.9,1.3,2.1
						l-3,6.7C670.4,1140.5,668.9,1141.5,667.6,1141.5z"/>
					<path class="st0" d="M962.5,1141.5h-29.7c-1.3,0-2.4-0.9-2.6-2.1l-0.9-6.7c-0.2-1.2,0.7-2.1,2-2.1h29c1.3,0,2.5,0.9,2.7,2.1
						l1.4,6.7C964.6,1140.5,963.8,1141.5,962.5,1141.5z"/>
					<path class="st0" d="M864.9,1141.5h-29.7c-1.3,0-2.2-0.9-2.1-2.1l0.6-6.7c0.1-1.2,1.2-2.1,2.4-2.1h29c1.3,0,2.3,0.9,2.2,2.1
						l-0.1,6.7C867.2,1140.5,866.1,1141.5,864.9,1141.5z"/>
					<path class="st0" d="M767.2,1141.5h-29.7c-1.3,0-2-0.9-1.7-2.1l2-6.7c0.4-1.2,1.7-2.1,2.9-2.1h29c1.3,0,2,0.9,1.8,2.1l-1.5,6.7
						C769.8,1140.5,768.5,1141.5,767.2,1141.5z"/>
					<path class="st0" d="M704,1159.5h-30.9c-1.3,0-2-0.9-1.5-2.1l2.9-6.7c0.5-1.2,2-2.1,3.3-2.1h30.2c1.3,0,2,0.9,1.6,2.1l-2.4,6.7
						C706.7,1158.5,705.3,1159.5,704,1159.5z"/>
					<path class="st0" d="M600.6,1159.5h-30.9c-1.3,0-1.8-0.9-1-2.1l4.4-6.7c0.8-1.2,2.5-2.1,3.8-2.1H607c1.3,0,1.8,0.9,1.1,2.1
						l-3.9,6.7C603.6,1158.5,602,1159.5,600.6,1159.5z"/>
					<path class="st0" d="M652.2,1159.5h-30.9c-1.3,0-1.9-0.9-1.3-2.1l3.7-6.7c0.6-1.2,2.2-2.1,3.5-2.1h30.2c1.3,0,1.9,0.9,1.4,2.1
						l-3.1,6.7C655.1,1158.5,653.6,1159.5,652.2,1159.5z"/>
					<path class="st0" d="M1188.1,1142.3h-56.6c-1.3,0-2.9-0.9-3.6-2.1l-4.9-8.4c-0.7-1.2-0.2-2.1,1-2.1h55c1.2,0,2.9,0.9,3.8,2.1
						l6,8.4C1189.8,1141.4,1189.4,1142.3,1188.1,1142.3z"/>
					<path class="st0" d="M1156,1106h-53.9c-1.2,0-2.7-0.9-3.3-2.1l-3.6-6.5c-0.7-1.2-0.3-2.1,0.9-2.1h52.5c1.1,0,2.7,0.9,3.6,2.1
						l4.6,6.5C1157.5,1105,1157.2,1106,1156,1106z"/>
				</g>
			</g>
		</g>
	</g>
	<g>
		<g>
			<path class="st0" d="M1714.3,1067.4c0.6,2.3-8.9,47.2,112.4,75c121.3,27.8,70.2-51,48.1-67
				C1852.7,1059.5,1714.3,1067.4,1714.3,1067.4z"/>
			
				<ellipse transform="matrix(0.234 -0.9722 0.9722 0.234 328.317 2577.4272)" class="st3" cx="1799.9" cy="1080.3" rx="38.5" ry="87.9"/>
			<path class="st0" d="M1758.3,1055.9c-6-5.2-13.4-8.3-21.3-9.2c-4.2-0.5-4.9,6.1-0.7,6.6c6.8,0.8,12.9,3.5,18,8
				C1757.6,1064,1761.6,1058.6,1758.3,1055.9z"/>
		</g>
	</g>
	<g>
		<g>
			<path class="st3" d="M1895.8,62.9v777.4c0,24.8-20.5,44.9-45.8,44.9H711.2c-25.3,0-45.8-20.1-45.8-44.9V62.9
				c0-24.8,20.5-44.9,45.8-44.9H1850C1875.3,18,1895.8,38.1,1895.8,62.9z"/>
			<path class="st0" d="M1895.8,62.9v670.2c-0.2,0-0.4,0-0.6,0H665.9c-0.2,0-0.4,0-0.6,0V62.9c0-24.8,20.5-44.9,45.8-44.9H1850
				C1875.3,18,1895.8,38.1,1895.8,62.9z"/>
			<path class="st3" d="M1135.1,857.8c-0.2,1.1,3.2,90.8,3.2,90.8l-33.6,67.1c-8.5,17,4.1,36.9,23.5,36.9l306.5-0.6
				c18.6,0,31.2-18.6,24.1-35.4l-31.8-71.5v-87.2H1135.1z"/>
		</g>
		<path class="st0" d="M1301.6,882.7H1151c-5.6,0-5.9,8.6-0.3,8.6h150.5C1307,891.3,1307.3,882.7,1301.6,882.7z"/>
		<path class="st0" d="M1349.7,1026.6h-150.5c-5.6,0-5.9,8.6-0.3,8.6h150.5C1355.1,1035.2,1355.4,1026.6,1349.7,1026.6z"/>
		<path class="st0" d="M1389.3,882.7h-54.1c-5.6,0-5.9,8.6-0.3,8.6h54.1C1394.7,891.3,1394.9,882.7,1389.3,882.7z"/>
		<path class="st4" d="M1829.4,43.2h-155.2v0H732c-23.9,0-43.3,20.7-43.3,46.2v277.7h0.4v339.5h411.8v0.6H1635v1.2h237.4V86.4
			C1872.5,62.5,1853.2,43.2,1829.4,43.2z"/>
	</g>
	<g>
		<path class="st5" d="M2157.7,642c0,0,42,38.6,61.5,107.5s-38.7,12.3-38.3,9.3C2181.3,755.8,2157.7,642,2157.7,642z"/>
		<path class="st5" d="M1957.4,707.9c0,0,29.5,95.9,103.6,100.3c40.1,2.4,4.5-91.6,4.5-91.6L1957.4,707.9z"/>
		<rect x="2660.2" y="1955.5" class="st0" width="95" height="308.3"/>
		<path class="st3" d="M3507.4,652.8c-12.2-35.3-31.6-67.4-57.8-93.6c-25.1-25.2-55.2-44.8-86.9-60.1c-33.1-16-68-27.8-103.4-37.3
			c-38.8-10.4-78.4-18-118.5-20.7c-76.6-5.1-153.7,10.5-215.1,59.5c-56.4,45-94,109.7-125.7,174c-8,16.2-15.7,32.6-23.3,49
			c-3.9,8.3,8.1,16.1,12,7.7c1.5-3.2,3-6.5,4.5-9.7c6,94,6.8,188.7-4.3,282.3c-11,92.8-34.4,185.1-77.4,268.1
			c-43.6,84.1-107.1,154.4-180.1,213c-75.3,60.5-159.2,108.6-243.8,154c-90.9,48.9-183.5,95.3-269.6,152.7
			c-4.8,3.2-9.6,6.4-14.3,9.7c-2.9-0.2-6,1.2-7.3,4.8c0,0.1-0.1,0.2-0.1,0.3c-3.2,2.2-6.4,4.5-9.5,6.7c-3.2,2.3-4.9,6-3,9.8
			c1,2,3.3,3.6,5.7,3.9c-11.2,36.7-17.3,77.2-4.6,113.6c14.9,42.8,53.1,77.8,95.3,85.3c21.4,3.8,43.1,4.6,64.8,4.3
			c27.7-0.3,490,3.2,606.6,0c107.9-2.9,219.3-21.7,322-60.2c135.2-50.6,235.1-264.8,254.8-310.4c34.8-80.3,61.6-164.5,85.1-248.8
			c24.5-87.8,44.4-176.8,61.4-266.4c16.4-87,30.9-174.6,42.2-262.4C3526.8,806.5,3532.7,725.9,3507.4,652.8z"/>
		<polygon class="st6" points="2638.3,1879.9 2008.9,1862.8 1937.4,2263.8 1669.9,2263.8 1684.4,1672.5 2264.3,1404.8 
			2508.1,1472.7 		"/>
		<path class="st7" d="M2515.6,1402.4c0,0-491.8-127.5-610.4-49.9c-118.6,77.6-674.4,597.6-674.4,597.6s-195.3,41.7-161.1,100.5
			c52.7,90.8,162.8,58.6,251.9,21.9c27-11.1,47.6-34.2,55.9-62.7l0,0l641.7-401.8L2515.6,1402.4z"/>
		<path class="st5" d="M2536.4,819.5L2449,968.6c0,0-333.4-329.2-342.6-329.3c-9.2-0.1-104.3,99.9-104.3,99.9
			s320.2,493.6,424.8,515.3c104.6,21.7,367.3-340.2,367.3-340.2L2909.5,697l-91.7-101.4c-14.5-9.1-0.1-35.9-43.7-5.1
			C2746.5,610,2556.7,792.2,2536.4,819.5z"/>
		<path class="st8" d="M2434.4,1060.5c-1.5-4.6-8.8-2.9-7.3,1.7c4.2,12.9,5.7,26.2,4.7,39.8c-0.4,4.9,7.1,5.1,7.5,0.2
			C2440.4,1088.1,2438.7,1074,2434.4,1060.5z"/>
		<path class="st8" d="M3465.7,667.2c-21.5-52.2-58.3-97.5-104.3-129.3c-13.3-9.2-27.3-17.2-42-23.9c-4.1-1.9-7.9,4.2-3.8,6.1
			c50,23.1,92.9,61.1,122.2,108.4c8.3,13.4,15.5,27.5,21.5,42.1C3461.2,674.8,3467.5,671.4,3465.7,667.2z"/>
		<path class="st8" d="M3478.9,699.7c-2-4.2-8.3-0.8-6.3,3.4c14.7,30.9,12.9,66,9,99.1c-4.4,37.5-10,74.9-15.4,112.3
			c-10.9,76-22.8,152-35.5,227.7c-7.2,42.7-14.7,85.4-22.4,128.1c-0.8,4.5,6,6.6,6.8,2.1c13.9-76.5,26.9-153.2,39-230.1
			c12.1-77.1,23.7-154.4,33.6-231.9C3492.4,773.5,3495.3,734.3,3478.9,699.7z"/>
		<path class="st8" d="M3378.6,1384.1c-28.1,101.5-73.8,196.9-128,286.4c-27.4,45.2-56.1,90.5-93,128.3
			c-33.2,34.1-72.4,61.6-114.3,83.3c-47.6,24.7-98.4,42.1-150.2,54.9c-4.4,1.1-2.9,8.1,1.6,7c92-22.7,183.3-60.6,253.9-126.4
			c38.5-35.9,68.4-79.7,96.3-124.4c28.2-45.1,54.2-91.6,77.2-139.7c25.7-53.9,47.3-109.7,63.3-167.4
			C3386.6,1381.7,3379.8,1379.6,3378.6,1384.1z"/>
		<path class="st8" d="M2487.9,1950.1l-329,3.1c-30.9,0.3-61.9,0.6-92.8,0.9c-4.6,0-4.8,7.3-0.2,7.2l329-3.1
			c30.9-0.3,61.9-0.6,92.8-0.9C2492.3,1957.3,2492.5,1950.1,2487.9,1950.1z"/>
		<path class="st8" d="M2847,1946.6c-48.6,4.9-97.3,8.6-146.1,11c-4.5,0.2-4.8,7.5-0.2,7.2c48.8-2.5,97.5-6.2,146.1-11
			C2851.2,1953.3,2851.5,1946.1,2847,1946.6z"/>
		<path class="st8" d="M3207.8,1669.5c-27.7-1.9-54.1-13.7-74.1-33.2c-3.3-3.2-8.5,1.7-5.2,4.9c21.5,20.9,49.5,33.5,79.2,35.5
			C3212.1,1677,3212.3,1669.8,3207.8,1669.5z"/>
		<path class="st8" d="M3141.5,1663.6c-3.8-2.6-7.6,3.6-3.8,6.1c13,8.8,21,23.6,21.4,39.5c0.1,4.6,7.2,4.9,7.1,0.2
			C3165.8,1691,3156.7,1673.9,3141.5,1663.6z"/>
		<path class="st5" d="M2782.5,585.2c51.1-33.8,122.1-93,309.9-69.7c55.1,6.9,107.2,28.9,150.2,64.1
			c52.7,43.1,113.9,112.7,123.4,208c17.1,171.9-376.9,110.3-376.9,110.3l-216.2-223.5C2747.6,648.3,2752.3,605.2,2782.5,585.2z"/>
		<path class="st9" d="M2948.3,514.5l-25.6,283.2l-184.9,211.7l-99-55.4v0l-142.9-80c3.4-12.2,7.1-23.9,11-35.3
			c1.8-5.1,3.6-10.2,5.4-15.2c52.2-140.3,139.7-217.1,222.7-259.1h0c5.6-2.9,11.2-5.5,16.8-8.1
			C2855.9,509.1,2948.3,514.5,2948.3,514.5z"/>
		<path class="st6" d="M2660.2,1211.6c1.1,4-87,132.6-87,132.6s-496-104.5-657.9-40.5s-596,517.3-596,517.3l174.4,210.4l511.1-368.4
			c0,0,804.3,527.1,1164.4,4.9c0,0,83.7-173.1,59.5-326.3S2660.2,1211.6,2660.2,1211.6z"/>
		<path class="st9" d="M3274.3,1009.4l-4.6,68.6l-21.2,313.4c-221.2,36.8-639.7-69-668.7-91.7c-7.5-5.8-12.3-13.5-15.1-22
			c-1.5-4.6-2.4-9.5-2.8-14.6c-2.4-30.7,13.7-67.3,28.3-83.4c12.3-13.6,32.7-128.8,48.8-225.7c12-72.1,21.8-134.1,24.2-136.8
			l195.8-241l89.4-61.7l0,0c0,0,0,0,0,0c0,0,0,0,0,0l4.5,5.8l34.8,45c0,0,135.2,45.3,143.3,46.9
			C3139,613.8,3274.3,1009.4,3274.3,1009.4z"/>
		<g>
			<path class="st0" d="M2592.2,1993.1L2592.2,1993.1c-16.3-1.5-28.1-16.3-26.2-32.8c5.8-49.9,23.5-179.8,52.9-287.9
				c23.8-87.3,52.4-158.5,85.2-211.6c44-71.1,96.1-111,155.1-118.6c182-23.3,469-36.1,560.5-39.7c16-0.6,29.5,12.1,30,28.4v0
				c0.5,16.2-11.9,29.8-27.8,30.4c-90.7,3.6-375.7,16.2-555.6,39.3c-40.9,5.2-79,35.9-113.2,91.3c-29.8,48.1-56.2,113.9-78.4,195.5
				c-28.2,103.5-45.7,231.5-51.4,279.8C2621.6,1983,2607.8,1994.5,2592.2,1993.1z"/>
		</g>
		<path class="st8" d="M2002.9,1666.5c-58.5,46.3-120.5,87.9-185.5,124.2c-18.5,10.3-37.2,20.2-56.1,29.7c-4.1,2.1-0.8,8.5,3.3,6.4
			c67-33.6,131.4-72.6,192.3-116.6c17.2-12.4,34.1-25.2,50.8-38.4C2011.3,1668.9,2006.4,1663.6,2002.9,1666.5z"/>
		<path class="st8" d="M2370,1804.4c-87.6-19.7-170.9-57.7-243.7-111.1c-20.7-15.2-40.5-31.6-59.3-49.2c-3.3-3.1-8.6,1.7-5.2,4.9
			c67,62.6,146.5,110.9,232.5,141.2c24.1,8.5,48.8,15.5,73.7,21.1C2372.4,1812.3,2374.5,1805.4,2370,1804.4z"/>
		<path class="st8" d="M2877.1,901.4c-6.7,9.8-15.4,17.5-25.8,23.1c-4.3,2.3-0.8,9,3.5,6.7c11.5-6.2,21.2-14.9,28.6-25.8
			C2886.2,901.4,2879.8,897.4,2877.1,901.4z"/>
		<path class="st8" d="M2888.2,1073.9c-2.6,3.4-8.3,4-11.6,1.2c-3.6-3.1-9.1,2-5.5,5.1c7.1,6.2,17.6,5.2,23.4-2.3
			C2897.4,1074.1,2891.1,1070.1,2888.2,1073.9z"/>
		<path class="st5" d="M2870.1,1112.8c0,0-43-91.4-43.3-170.1c-0.2-78.7-65.2-99.6-77.5-125.2c-12.3-25.7,69.8,17.6,73.6,32
			c0,0-57.1-48.3-52.8-70s82.6,53.7,82.6,53.7s-81.1-73.2-68.2-83.9c12.9-10.6,92.8,62,92.8,62s-52-70.3-49-89.7
			c3-19.4,81.1,66.1,89.8,93.9c8.7,27.8,35.8,151.6,82,219.9C3041.2,1096.1,2870.1,1112.8,2870.1,1112.8z"/>
		<path class="st5" d="M2971.5,995.7c-7.6-99.3,6.7-144-14.9-164.7c-16.3-15.6-21.4,110.7-21.4,110.7L2971.5,995.7z"/>
		<path class="st5" d="M3305.3,730.5c25.3-6.3,133.6,82.4,137.3,108.7c23.8,165.2,22,638.7-153.1,671.1
			c-206.8,38.3-419.4-397.5-419.4-397.5l93.6-141.9c0,0,152.6,196.4,221.8,251l-18.6-452.1c-1.4-30,20-32.1,49.5-33.9L3305.3,730.5z
			"/>
		<path class="st8" d="M3255.1,1314.6c-5.5-23.9-19.2-44.8-38.5-59.3c-3.9-2.9-7.8,3.6-4,6.4c17.8,13.3,30.2,32.7,35.2,54.6
			C3248.9,1321.1,3256.2,1319.4,3255.1,1314.6z"/>
		<path class="st9" d="M3460.6,1072.7l-148.4,4.1l-16.7,0.5h0l-25.8,0.7l-102.6,2.8l-9.5-151.1l-209.2-415.2c0,0,0,0,0,0
			c0.3,0.5,1.8,2.6,4.5,5.8c0,0,0,0,0,0.1c18.4,21.7,93.2,92.5,249.1,29.5c0,0,79.2,23.1,152.2,93.9c4,3.8,7.9,7.8,11.8,11.9
			C3440.2,733.9,3502.9,864,3460.6,1072.7z"/>
		<path class="st8" d="M2761.9,1235.9c-23.4-14.1-49.1-23.3-76.1-27.4c-5.3-0.8-5.6,7.6-0.2,8.4c25.4,3.9,49.8,12.8,71.8,26.2
			C2762.1,1245.8,2766.6,1238.7,2761.9,1235.9z"/>
		<path class="st8" d="M2950.9,1300.5c-48.4,0.2-96.3-11.7-138.9-34.6c-4.7-2.5-9.2,4.6-4.5,7.1c43.9,23.6,93.2,36,143.1,35.9
			C2956.1,1308.9,2956.4,1300.5,2950.9,1300.5z"/>
		<path class="st8" d="M2734.6,1361.3c-37.4-7.9-75.1-14.1-113-18.7c-5.1-0.6-5.3,7.4-0.2,8c37.2,4.5,74.3,10.6,111,18.3
			C2737.3,1370,2739.6,1362.3,2734.6,1361.3z"/>
		<path class="st8" d="M2852.8,112.6c-4.9,27.1,1.4,55.7,21.4,75.3c2.9,2.9,7.1,0.6,7.8-2.3c35.9-0.7,71.9-0.6,107.8,0.6
			c37,1.2,77.3,4.2,99.8,37.8c17.3,25.8,24.2,59.2,32.2,88.8c9.2,34,15.8,68.7,13.2,104.1c-0.4,5.1,6.5,6,8.5,2.3
			c1,0.4,2.3,0.4,3.6-0.5c34.5-24.4,64.4-55.2,85.3-92.1c34.3-60.5,54.9-139,24.4-202.6c-26.5-55.3-92.1-103.9-157.3-94.9
			c-51.4-50.1-140.6-27.5-193.9,8.7C2879.6,55.5,2858.5,80.8,2852.8,112.6z"/>
		<path class="st5" d="M2864.8,190.3c-7.9,23-10.6,47.9-10.2,72.2c-0.6,1.3-1,2.7-1.1,4.3c-3.6,59.9,13.1,110,49.4,158.4
			c16.9,22.6,61.9,44.7,90.2,43.8c35.4-1.2,52.8-17.6,77.3-30.8c29.3-15.7,37.2-21.8,59.4-46.7c2-2.2,3.2-5,3.3-7.9
			c17.2-14.3,29.5-34.1,38.5-54.7c12.6-28.9,19.9-60.6,20.2-92.4c0.3-30.9-6.3-62.7-21.8-89.6c-13.6-23.7-34.3-43.7-58.3-56.1
			c-21.6-11.2-46-16.8-69.9-14.2c-47.1-5.3-95.2,12.4-130.5,43.8c-11.4,10.2-21.4,21.9-29.6,34.8c-0.7,1.1-1.4,2.3-2.1,3.4
			c-1,1.6-2,3.3-2.9,5c-1.7,3.1-3.3,6.2-4.9,9.4c-1.1,2.3-2.1,4.6-3.1,7c-0.1,0.3-0.3,0.6-0.4,0.9c-1.1,2.7-2.1,5.3-3,8
			c-0.1,0.4-0.3,0.7-0.4,1.1L2864.8,190.3z"/>
		<path class="st5" d="M3186.8,287.2c-16.5-5.9-31.7-5.1-33.3,0.4c-2.8,14.1,0.1,27.2-2.7,41.3l-16.2,12.1c-1,0.3-1.9,1-2.5,1.9
			l-139.5,104.7c1.6,8.6-1.1,84.4-1.1,84.4v0c44.9,30.8,101.1,40.4,153.7,26.3l21.6-5.8l-2.5-197.4c35.2,3.6,46-27.8,41.8-46
			C3202.8,294.6,3191.1,288.7,3186.8,287.2z"/>
		<path class="st8" d="M3117.3,396.4c-24.8,27-55.3,47.9-89.2,61.1c-4.6,1.8-2.2,9.2,2.4,7.4c35.2-13.7,66.8-35.3,92.5-63.2
			C3126.3,398,3120.7,392.8,3117.3,396.4z"/>
		<path class="st8" d="M2942.7,229.7c-3.6,15.6-11.3,29.4-22.4,40.6c-4.5,4.5,2.9,11.2,7.4,6.6c12.3-12.5,20.7-28.2,24.7-45.4
			C2953.8,225.4,2944.2,223.5,2942.7,229.7z"/>
		<path class="st8" d="M3011.9,229.9c-3.6-1.7-7.8-0.5-10.3,2.6c-0.1,0.1-0.2,0.3-0.3,0.4c-0.8,0.5-1.4,1.3-1.7,2.5
			c-2.2,7.3-4.2,19.3,1.6,25.6c2.5,2.8,6.5,3.5,9.6,1.6c3.5-2.1,4.7-6,5.5-9.9C3017.7,246.1,3019.7,233.6,3011.9,229.9z"/>
		<path class="st8" d="M2902.7,210c-3.6-1.7-7.8-0.5-10.3,2.6c-0.1,0.1-0.2,0.3-0.3,0.4c-0.8,0.5-1.4,1.3-1.7,2.5
			c-2.2,7.3-4.2,19.3,1.6,25.6c2.5,2.8,6.5,3.5,9.6,1.6c3.5-2.1,4.7-6,5.5-9.9C2908.5,226.1,2910.5,213.7,2902.7,210z"/>
		<path class="st8" d="M2909.5,100.8c0.9,0.6,2,0.9,3.1,0.8c15.7,4,31.5,7.2,47.6,9.2c16.5,2.1,35.7,0.4,51.1,7.3
			c15.4,6.9,17.8,24.7,26.8,37.4c8.2,11.5,19.1,20.7,30.9,28.3c14.3,9.3,29.9,16.2,45,24c15.6,8.1,30.4,17.4,34.9,35.5
			c6,24-2.1,49.1,6.7,72.8c0.3,0.7,0.6,1.2,1,1.7c1.4,3.1,7,3.8,8.7-0.4c7.4-18.6,24.1-29.7,43.1-30.1c1.6,2.4,5.7,3,7.5,0.4
			c0.5,0.1,0.9,0.1,1.4,0.1c5.5,0.8,6.1-7.3,1.2-8.9c7.4-30.7,7-62.9-1.4-93.4C3199.7,122,3150.9,74.6,3088.5,55
			c-59-18.5-138.9-17.6-178.5,37.2C2906.2,93.2,2905,99.4,2909.5,100.8z"/>
		<path class="st8" d="M2982,196.8c3.4,11.1,17.1,12.3,26.4,15.4c9,3,17.8,6.9,26,11.7c6.1,3.5,11.7,8.7,18.3,11.3
			c6.9,2.8,16.6,1.1,18.6-7.1c2.3-9.6-9.3-17.7-15.4-22.7c-7.8-6.3-16.2-11.5-25-15.9c-1.6-0.9-3.1-1.7-4.8-2.4
			c-9.2-4.4-22.7-10.3-33.3-7.3C2985.3,181.8,2979.6,189,2982,196.8z"/>
		<path class="st8" d="M2864.9,190.1c1.8-0.4,3.7-0.9,5.5-1.2c9.4-1.5,18.9-2.1,28.5-1.7c9.7,0.4,23,4,30.1-5.1
			c5-6.5,2.2-15.2-4-19.8c-8.8-6.5-23.5-5.8-33.7-4.9c-1.8,0.2-3.6,0.4-5.3,0.6c-2.1,0.2-4.2,0.4-6.3,0.7c-1,1.6-2,3.3-2.9,5
			c-1.7,3.1-3.3,6.2-4.9,9.4c-1.1,2.3-2.1,4.6-3.1,7c-0.1,0.3-0.3,0.6-0.4,0.9c-1.1,2.7-2.1,5.3-3,8
			C2865.1,189.4,2865,189.8,2864.9,190.1z"/>
		<path class="st8" d="M2944.3,353.1c14.9,8.4,32.1,6.9,45.1-4.2c4.4-3.8,10.7,2.8,6.2,6.6c-16.2,13.7-37.6,15.7-56.1,5.2
			C2934.4,357.9,2939.2,350.3,2944.3,353.1z"/>
		<path class="st8" d="M3255.2,644.9c-25.3,20.5-43.8,48.5-52.9,79.8c-1.5,5.2,6.6,7.6,8.1,2.4c8.6-29.9,26.3-56.4,50.5-76
			C3265.1,647.7,3259.4,641.5,3255.2,644.9z"/>
		<path class="st8" d="M3181.8,822.4c-15.2,67.5-18.2,137.3-9.1,205.9c0.7,5.4,8.9,3.4,8.2-1.9c-9-67.1-5.9-135.5,8.9-201.6
			C3191,819.6,3183,817.1,3181.8,822.4z"/>
		<path class="st8" d="M2827.5,578.6c-75.5,69.6-131.1,160.1-159.7,258.7c-8,27.5-13.7,55.7-17.4,84.1c-0.7,5.4,7.7,5.6,8.4,0.2
			c12.9-99.8,53.8-195.5,116.3-274.3c17.7-22.3,37.2-43.2,58.1-62.5C2837.2,581.1,2831.5,574.9,2827.5,578.6z"/>
		<g>
			<path class="st10" d="M1380.8,2142.3c-0.7-1.8-1.2-3.8-1.5-6c-3.9-23.5,6.9-69.2,9.4-76c5.1-14.2,6.2-30.5-2.5-43.9
				c-1.6-2.5-3.5-4.8-5.6-6.8c-9.9-9.4-24.3-13.4-38.1-14.6c-14.2-1.3-28.5-1.5-42.8-1.6c-3.8-11.9-11.4-23-21.2-31.9
				c-24.9-22.5-61.8-25-94.1-23.1c-46.9,2.8-145.1,16.9-209.6,27.1c-30.2,4.8-52.9,8.8-59.7,10.4c-19.6,4.6-46.3,11.8-51.4,33.4
				c-0.8,3.2-1,6.4-0.7,9.4c0,0.2,0,0.5,0.1,0.7c-13.5,3.2-24.1,15.3-23.3,30.1c1.4,23.9,26.1,32.8,45.7,43.1
				c67.2,35.3,363.3,123.4,483.6,110.8C1398.3,2200.3,1388.6,2163.4,1380.8,2142.3z"/>
			<path class="st11" d="M1075.2,1975.1c-9.1-17.8-25.1-30.7-46-33.8c-15-2.2-19.6,19.6-4.5,22c11.7,1.9,22.3,8.4,27.5,18.9
				c2.8,5.7,8.7,9.5,15.4,7.5C1073.1,1988,1078.1,1980.7,1075.2,1975.1z"/>
			<path class="st11" d="M1117.3,1962.6c-8.2-14.5-23.1-24.1-39.4-28.5c-14.7-4-18.9,17.7-4.5,21.9c10.8,3.1,18.3,10.2,24,19.2
				C1105.4,1988,1124.6,1975.4,1117.3,1962.6z"/>
			<path class="st11" d="M1166,1963.8c-10.3-15.4-24.1-27.5-40.4-37.1c-5.5-3.2-13.1,0-15.8,5.1c-3.1,5.9,0.2,11.8,5.5,15.1
				c12.4,7.7,22.3,18,30.3,29.7C1154.4,1989.2,1174.5,1976.5,1166,1963.8z"/>
			<path class="st11" d="M1293.8,2022.7c-12.7,1.9-25.3,4.5-37.5,8.4c-5.9,1.8-11.7,3.9-17.3,6.3c-2,0.8-4.8,2.5-7.7,4
				c-0.1-0.9-0.3-1.8-0.4-2.7c-0.8-4.3-1.7-8.7-3.7-12.7c-4.8-9.5-14-11.9-24.1-9.5c-23,5.4-45.8,12.3-68.6,18.5
				c-14.6,3.9-7.1,25.3,7.5,21.4c12-3.2,24.1-6.4,36.1-9.7c5.4-1.4,10.8-2.9,16.2-4.3c3.9-1,8.5-2.8,12.9-3.7c2.3,5.8,0.4,16,3,20.8
				c5.1,9.2,15.3,9.1,23.9,5.1c19.5-9,39.5-15.9,61-19.1C1310.5,2043.3,1309,2020.4,1293.8,2022.7z"/>
			<path class="st9" d="M1031.9,2073.9c7.3-45-16.6-88.1-57.2-108.4c-30.2,4.8-52.9,8.8-59.7,10.4c-19.6,4.6-46.3,11.8-51.4,33.4
				c-0.8,3.2-1,6.4-0.7,9.4c0.4,0.5,0.8,0.9,1.1,1.4c16.1,18.6,43.3,31.4,65.9,41.1c26.3,11.3,54.1,18.7,82.6,22.1
				c2.2,0.3,4.2,0,6-0.6C1024.4,2083.6,1030.7,2081.1,1031.9,2073.9z"/>
			<path class="st11" d="M933.6,2047.7c-10.7-4.8-21.4-9.6-32.1-14.4c-13.6-6.1-25.6,13-11.8,19.2c10.7,4.8,21.4,9.7,32,14.5
				C935.5,2073.2,947.5,2053.9,933.6,2047.7z"/>
			<path class="st9" d="M1388.6,2060.3c5.1-14.2,6.2-30.5-2.5-43.9c-1.6-2.5-3.5-4.8-5.6-6.8c-5.3,3.3-10,8.1-14,13
				c-10.3,12.4-19,26.1-25.7,40.6c-6.6,14.3-12.2,29.9-14.3,45.5c-0.5,3.6-0.7,7.4,0.3,10.8c0.5,2.2,1.5,4.2,3.1,6.1
				c5.4,6.6,14,7.2,22.1,8.1c1.4,0.1,2.7,0.3,4.2,0.5c7.3,0.9,15.3,1.8,23.2,2.1C1375.3,2112.8,1386.2,2067.1,1388.6,2060.3z"/>
			<path class="st11" d="M1343.7,2120.4c-58.6-2.9-116.6-7.4-174.6-16.9c-57.6-9.4-114.4-22.7-170.2-39.6
				c-14.5-4.4-18.8,17.5-4.5,21.9c112.7,34.4,232.6,56.2,350.8,57.6C1361,2143.6,1359,2121.2,1343.7,2120.4z"/>
		</g>
		<g>
			
				<rect x="1987.2" y="544.9" transform="matrix(1 2.641555e-03 -2.641555e-03 1 1.7083 -5.4545)" class="st9" width="157" height="198.1"/>
			<path class="st9" d="M2144.5,545.7c0,2-2.4,3.9-6.6,5.7c-12.1,5-39.8,8.4-71.9,8.3c-32.1-0.1-59.8-3.7-71.9-8.7
				c-4.2-1.7-6.6-3.7-6.6-5.7c0-7.8,35.2-14.1,78.5-14C2109.4,531.5,2144.6,537.9,2144.5,545.7z"/>
			<path class="st0" d="M2137.9,551.4c-12.1,5-39.8,8.4-71.9,8.3c-32.1-0.1-59.8-3.7-71.9-8.7c12.1-5,39.8-8.4,71.9-8.3
				C2098.2,542.8,2125.8,546.4,2137.9,551.4z"/>
			<path class="st9" d="M2143.9,743c0,7.8-35.2,14.1-78.5,14c-43.4-0.1-78.5-6.6-78.5-14.4c0-7.8,35.2-14.1,78.5-14
				C2108.8,728.7,2143.9,735.2,2143.9,743z"/>
			<path class="st9" d="M2178.7,588.6C2178.7,588.6,2178.7,588.5,2178.7,588.6c-0.8,0-1.6,0.1-2.4,0.1
				C2177.1,588.6,2177.9,588.6,2178.7,588.6z"/>
			<path class="st9" d="M2195.2,646.7c0.2-18,3.7-40.8-12.4-55c-1.3-1.1-2.6-2.2-4-3.1c-0.8,0-0.8,0,0,0c-18-12.1-43-7.3-62.8-0.3
				c-5.6,2-9.8,6.4-8,11.9c1.5,4.5,8.2,8.8,14,6.8c6-2.1,14.8-5.1,22.7-6.4c8.2-1.2,16.4-0.5,22.1,4.8c9.9,9.1,6,27.7,5.8,38.8
				c-0.1,8.4-0.2,16.9-0.3,25.3c-0.1,6.7,1.4,15.2-3.7,20.8c-6.2,6.8-29.8,11.8-29.9,11.8c-7.3,4-9.1,6.4-15.5,10.2
				c13.8,4.4,29.7,6,43.3,2.2c5.2-1.6,10.1-3.9,14.6-7.4c9.3-7,12.8-16.8,13.6-27.1C2195.5,669,2195,657.7,2195.2,646.7z"/>
			<path class="st8" d="M2052.7,488.2c-3.2-11.2-11.5-19.9-18-29.5c-8.2-12-10.7-25.2-7-39c3.5-13.1,11.5-24.5,20.2-35.1
				c2.2-2.6-2.6-5.4-4.8-2.7c-15.3,18.7-28.9,42.6-20.2,66.5c4,11.2,12.7,19.9,19.1,29.9c6,9.5,10.3,23.4,1.4,32.6
				c-2.4,2.5,1.4,6.3,3.8,3.8C2054.3,507.2,2055.3,497.5,2052.7,488.2z"/>
			<path class="st8" d="M2068.7,329.9c-2.6-2.3-6.7,1.2-4.1,3.5c15,13.5,18.9,33.4,10.9,51.1c-7.1,15.6-20.3,29.7-18.9,47.5
				c0.2,3.3,5.9,3.5,5.6,0.2c-1.5-19.9,16.1-35.1,21.4-53.5C2088.6,361.3,2082.6,342.3,2068.7,329.9z"/>
			<path class="st8" d="M2100.7,428.5c-19.3,22.3-22.3,54.3-7.6,79.3c1.7,2.9,6.7,0.5,5-2.4c-13.8-23.6-10.7-53.3,7.4-74.2
				C2107.7,428.6,2103,425.9,2100.7,428.5z"/>
			<path class="st12" d="M2121.1,574.5v75.4c0,3.3,5.6,3.5,5.6,0.2v-75.4C2126.7,571.3,2121.1,571.2,2121.1,574.5z"/>
			<path class="st12" d="M2120.4,670.5v32.2c0,3.3,5.6,3.5,5.6,0.2v-32.2C2126,667.3,2120.4,667.2,2120.4,670.5z"/>
		</g>
		<path class="st5" d="M2015.6,623.2c-6.7-10.8-12.2-22.8-16.7-35.5c-2.6-8.1-10.6-33.4-10.6-33.4s-52.4,53.2-30.9,153.5
			c2.4,11,15.2,20.8,24.3,23.7c7.6,2.4,15.4,2.7,17.8-2.3c2.4-5-0.7-16.6-2.1-21.9c4.5,1.7,8.7,1.1,11.7-4
			c3.7-6.5,0.8-14.4-1.7-20.6c-0.5-1.3-1.1-2.5-1.6-3.8c3.2,1.4,6.4,2.1,9.2,1.2c3.2-1.1,5.5-4.4,6-8.8c0.7-5.7-1.9-9.7-4.5-13.9
			c-0.3-0.4-0.5-0.8-0.8-1.2c3.4,0.8,6.6,0,8.9-4C2031,641.3,2020.3,630.8,2015.6,623.2z"/>
		<path class="st8" d="M1977.2,597.2c-8.5,24.5-12,51.1-10.2,77.6c0.4,5.2,7.1,5.5,6.7,0.2c-1.8-26,1.5-51.6,9.9-75.5
			C1985.3,594.7,1978.9,592.3,1977.2,597.2z"/>
		<path class="st5" d="M2160.9,648.8c-7.3-17.1-30.4-55.3-44.5-41.7c-18.1,17.5,28.1,86.4,28.1,86.4l13.6,1.6c6.8,0,15.5-8,14-14.1
			C2169,668.9,2162.3,652.1,2160.9,648.8z"/>
		<path class="st8" d="M2903,851.1c-16.2,13.3-36.3,21-57.2,21.9c-4.7,0.2-5,7.6-0.2,7.4c22.9-0.9,44.7-9.2,62.4-23.8
			C2911.6,853.5,2906.6,848.1,2903,851.1z"/>
		<path class="st8" d="M2883.8,1012.5c-5.3,2.8-11.3,2.6-16.4-0.5c-4-2.5-8,3.8-3.9,6.2c7.3,4.4,16.1,4.8,23.7,0.8
			C2891.4,1016.8,2888,1010.3,2883.8,1012.5z"/>
		<path class="st7" d="M2933.2,574.4c-5.4-12.1-11.5-23.7-18.3-35c-4.9-8.1-18-1.3-13,6.8c6.8,11.3,13,22.9,18.3,35
			C2924,589.9,2937,583,2933.2,574.4z"/>
		<path class="st7" d="M2996.5,653.4c-10.5,6-21.6,11-33.2,14.6c-9,2.8-5.7,17.2,3.3,14.3c12.8-4,25.1-9.3,36.7-16
			C3011.6,661.7,3004.8,648.7,2996.5,653.4z"/>
		<path class="st7" d="M3174.5,642.3c-4.5-9.1-8.9-18.2-13.4-27.2c-4.2-8.5-17.2-1.7-13,6.8c4.5,9.1,8.9,18.2,13.4,27.2
			C3165.6,657.7,3178.7,650.8,3174.5,642.3z"/>
		<path class="st7" d="M3366,655.7c-2,6.4-4.2,12.7-6.6,18.9c-3.4,8.8-17.5,4.6-14.1-4.2c3.3-8.8,6.3-17.6,8.9-26.6
			C3358.2,647.6,3362.1,651.6,3366,655.7z"/>
		<path class="st7" d="M3399.8,788.7c-14.5-6.8-29.3-12.7-44.6-17.5c-9-2.8-13.3,11.3-4.2,14.1c14,4.4,27.8,9.6,41,15.9
			c3.6,1.7,7.8,1.3,10.1-2.3C3404.1,795.8,3403.4,790.4,3399.8,788.7z"/>
		<path class="st7" d="M3283.7,856.9c-11.9,6.9-23.1,15.1-33.3,24.5c-7,6.4,3,17.3,10,10.8c9.3-8.5,19.3-16,30.1-22.3
			C3298.7,865.2,3291.9,852.1,3283.7,856.9z"/>
		<path class="st7" d="M3400.4,973.7c-1.3-13.6-2.6-27.3-4-40.9c-0.4-4-2.8-7.4-7.1-7.6c-3.6-0.1-8,3.2-7.6,7.1
			c1.3,13.6,2.6,27.3,4,40.9c0.4,4,2.8,7.4,7.1,7.6C3396.4,981,3400.8,977.7,3400.4,973.7z"/>
		<path class="st7" d="M3312.2,1076.8l-16.7,0.5h0c-5-8.7-10.1-17.4-15.1-26.1c-4.7-8.2,8.3-15,13-6.8
			C3299.7,1055.1,3306,1066,3312.2,1076.8z"/>
		<path class="st7" d="M3117,957.3c-2.4-2.6-7.9-3.5-10.4-0.4c-9.1,11-19.4,20.7-30.8,29.3c-7.6,5.7,2.4,16.5,10,10.8
			c11.4-8.5,21.7-18.3,30.8-29.3C3119.1,964.7,3119.9,960.6,3117,957.3z"/>
		<path class="st7" d="M3053.1,844.2c-6.4-14.4-12.9-28.8-19.3-43.1c-3.9-8.7-16.9-1.8-13,6.8c6.4,14.4,12.9,28.8,19.3,43.1
			C3043.9,859.7,3056.9,852.8,3053.1,844.2z"/>
		<path class="st7" d="M3148.5,762.3c-2-3.9-6.2-4.5-9.9-3.1c-10.3,4-20.8,7.2-31.5,10c-9.2,2.4-5.9,16.7,3.3,14.3
			c11.9-3.1,23.6-6.9,35.1-11.3C3149.1,770.8,3150.1,765.5,3148.5,762.3z"/>
		<path class="st7" d="M2860,673.6c-7.1-7.4-13.5-15.3-19.1-23.9c-5.1-7.9-18.2-1.1-13,6.8c6.3,9.6,13.3,18.7,21.3,27
			C2855.7,690.5,2866.5,680.5,2860,673.6z"/>
		<path class="st7" d="M2718,865.7c-2.7,10-5.3,20-8,29.9c-2.4,9.1,11.7,13.4,14.1,4.2c2.7-10,5.3-20,8-29.9
			C2734.5,860.8,2720.4,856.5,2718,865.7z"/>
		<path class="st7" d="M2798.6,1047.4c-10.4-9.6-19.9-20.1-28.5-31.5c-5.7-7.6-16.5,2.5-10.8,10c8.5,11.4,18,21.9,28.5,31.5
			C2794.7,1063.8,2805.5,1053.8,2798.6,1047.4z"/>
		<path class="st7" d="M2682.6,1077.1c-7.6,6.7-16.1,12-25.4,16.1c-8.7,3.8-1.8,16.8,6.8,13c10.4-4.5,20-10.7,28.5-18.3
			C2699.7,1081.7,2689.7,1070.9,2682.6,1077.1z"/>
		<path class="st7" d="M2821.1,1192.6l-12.5-34.7c-1.4-3.8-4.6-6.4-8.8-5.5c-3.5,0.8-6.9,5.1-5.5,8.8c4.2,11.6,8.4,23.2,12.5,34.7
			c1.4,3.8,4.6,6.4,8.8,5.5C2819.2,1200.7,2822.5,1196.4,2821.1,1192.6z"/>
		<path class="st7" d="M2591.5,1267.3c-9,3.5-18,6.9-26.9,10.4c-1.5-4.6-2.4-9.5-2.8-14.6c7.6-2.9,15.3-5.9,22.9-8.8
			c3.7-1.4,8-0.8,9.9,3.1C2596.2,1260.6,2595.2,1265.9,2591.5,1267.3z"/>
		<path class="st7" d="M2750.2,1315.9c-6.2-11.9-11.7-24.1-16.6-36.7c-3.4-8.8-16.4-1.9-13,6.8c4.9,12.5,10.4,24.7,16.6,36.7
			C2741.5,1331.2,2754.5,1324.3,2750.2,1315.9z"/>
		<path class="st7" d="M3123.4,1077.5v36.3c0,9.5,14.7,9.9,14.7,0.4v-36.3C3138.1,1068.4,3123.4,1067.9,3123.4,1077.5z"/>
		<path class="st7" d="M2539.2,833.9c-10.6,2.5-21.3,4-32.2,4.7c1.8-5.1,3.6-10.2,5.4-15.2c7.9-0.8,15.7-2.1,23.4-3.9
			C2545.1,817.4,2548.4,831.7,2539.2,833.9z"/>
		<path class="st7" d="M2642.5,776c-6.4-8.4-12.8-16.7-19.1-25.1c-5.8-7.5-16.5,2.5-10.8,10c6.4,8.4,12.8,16.7,19.1,25.1
			C2637.4,793.5,2648.2,783.5,2642.5,776z"/>
		<path class="st7" d="M2719.4,623.2c-3.1-2-8.4-1.2-10.1,2.3c-5.8,12.1-11.5,24.2-17.3,36.3c-1.7,3.6-1.3,7.8,2.3,10.1
			c3.1,2,8.4,1.2,10.1-2.3c5.8-12.1,11.5-24.2,17.3-36.3C2723.4,629.7,2723,625.5,2719.4,623.2z"/>
		<path class="st7" d="M2771.8,582.4c-12.2-6-24.4-12-36.6-18c5.6-2.9,11.2-5.5,16.8-8.1c9.2,4.5,18.4,9.1,27.6,13.6
			C2788.1,574.1,2780.2,586.6,2771.8,582.4z"/>
	</g>
	<g>
		<path class="st2" d="M3771.8,2186c-8.6-0.6-18.3-1.1-29-1.4c-2.4-0.1-4.9-0.2-7.4-0.2c-13.6-0.3-28.8-0.5-45.9-0.4
			c-9.9,0.1-19.3,0.1-28.1,0.3c-2.5,0-4.9,0.1-7.3,0.1c-17.9,0.3-33.5,0.7-47,1.1c-89.6,3-91.1,9.6-90.8,12.4
			c0.3,2.7,36.6,40.4,53.5,57.6c2.6,2.7,4.8,4.9,6.3,6.4h0c1.3,1.3,2,2,2.1,2.1c0.1,0.1,2.3-0.2,6.2-0.9c0,0,0,0,0,0h0
			c4.2-0.7,10.4-1.7,18-2.9h0c10.8-1.8,24.6-4.1,39.9-6.7c14-2.4,29.3-5,44.8-7.6c1.9-0.3,3.9-0.7,5.8-1c23.4-3.9,46.8-7.9,66.2-11
			c4.5-0.7,8.8-1.4,12.8-2.1V2186z"/>
		<path class="st6" d="M3771.8,1303.8c-10.1,14.6-19.6,29.5-28.4,44.5c-47.2,80.6-76.2,237.5-84.4,423.8
			c-3.6-7.8-7.4-15.5-11.4-23.2c-5.9-11.5-12.2-22.8-18.9-34.1c0,0,0,0,0,0c-48.5-82.1-115.5-158.4-198-225.4
			c-4.4-3.6-11.8,0.7-10.4,4.6l63.8,172.8c37.1,100.5,75.6,200.9,109.9,301.9c13.3,39.1,25.7,78.4,36.6,117.9
			c-39.2-70.8-102.7-134.8-184.7-183.7c-5.7-3.4-12.7,1.3-9.7,5.7c19.5,28.6,39,57.2,58.5,85.8c33.6,49.3,68.4,98.3,100.1,148.3
			c0.9,1.5,1.8,2.9,2.8,4.4c1.2,1.8,2.3,3.6,3.4,5.5c2,3.3,4,6.6,6,9.9v0c5.6,9.3,10.9,18.6,15.9,27.9v0h0
			c7.1,13.1,13.6,26.5,19.3,39.9v0c1.5,3.6,3,7.1,4.3,10.7c0.7,1.8,1.4,3.5,2,5.3v0c2.2,5.8,4.1,11.5,5.9,17.4h25.3
			c-0.6-5-1.3-10.1-2-15.1c0.2-0.4,0.3-0.8,0.4-1.2c0.6-1.7,1.3-3.4,1.9-5.1c2.4-6.5,4.7-13,6.8-19.6v0c2.7-8.1,5.2-16.1,7.5-24.3
			c-0.6,7.8-1.2,15.5-1.7,23.3v0c-0.5,6.9-0.9,13.8-1.3,20.7v0c-0.1,1.7-0.2,3.4-0.3,5.1c-0.3,4.7-0.5,9.3-0.8,14
			c-0.4,0.7-0.8,1.4-1.2,2.1h39.1c3.8-5.8,7.4-11.6,10.9-17.5c1-1.8,2.1-3.5,3.1-5.3c0,0,0,0,0,0c5.9-10,11.4-20,16.6-30.2v0
			c3.2-6.3,6.3-12.5,9.3-18.9c1-2.1,2-4.3,3-6.4c0.2-0.3,0.3-0.7,0.5-1V1303.8z"/>
		<path class="st1" d="M3771.8,2191.8c-1.1,0.1-2.3,0.2-3.4,0.2c-55.5,3.4-105.2,1.8-145.4-1.5h0c-66-5.5-106.7-15.6-106.7-15.6
			l5.8,48.1l0.7,5.7l3.7,30.7l0.5,4.4h244.8V2191.8z"/>
		<path class="st0" d="M3681.5,1934.6c3.3,51.6,6.7,103.3,10,154.9c0.2,3.3-7,3.5-7.2,0.2c-3.3-51.6-6.7-103.3-10-154.9
			C3674.1,1931.4,3681.3,1931.2,3681.5,1934.6z"/>
		<path class="st0" d="M3669.9,1823.6c0.2-3.3,7.4-3.5,7.2-0.2c-1.7,25.9-0.6,51.8,3.2,77.5c0.5,3.3-6.7,3.4-7.2,0.2
			C3669.3,1875.3,3668.2,1849.5,3669.9,1823.6z"/>
		<path class="st0" d="M3649.5,2118.7c9,18.1,14.1,36.9,15.3,56.1c0.2,3.3-7,3.5-7.2,0.2c-1.1-18.8-6.1-37.1-15-54.8
			C3641,2117,3647.9,2115.5,3649.5,2118.7z"/>
	</g>
	<g>
		<path class="st6" d="M600.4,726.6c-18,29.2-32.7,60.4-43.8,93c1.4-48.7-3.6-97.5-15-144.8c-4.1-17.2-9.1-34.2-14.9-50.9
			c-1.1-3.2-5.5-2.1-6,0.9C510,681.9,509,741,517.7,798.5c-7.9-24.7-18-48.6-30.4-71.3c-6.8-12.6-14.3-24.8-22.3-36.6
			c-2-2.9-5.6-0.5-5.6,2.4c0.9,49.5,10.9,98.8,29.1,144.6c5,12.6,10.7,24.9,16.9,37c-0.6,1.2-0.4,2.7,0.9,3.7
			c13.3,9.6,30.7,11.7,45.8,5.3c3.7-1.6,1.3-7.5-2.4-5.9c-0.4,0.2-0.8,0.3-1.2,0.5c32.2-27.8,53-68.6,57.7-111.5
			c1.4-12.8,1.3-25.8-0.3-38.6C605.6,725.5,601.8,724.2,600.4,726.6z"/>
		<rect x="463.9" y="837.9" class="st13" width="145.6" height="199.5"/>
	</g>
</g>
<g id="Layer_2">
	<g>
		<g>
			<g>
				<g>
					<g>
						<g>
							<g>
								<g>
									<path class="st14" d="M1773.2,660.4l-157.2-0.7c-18.9-0.1-34.2-15.5-34.1-34.4l1.7-394.1c0.1-18.9,15.5-34.2,34.4-34.1
										l157.2,0.7c18.9,0.1,34.2,15.5,34.1,34.4l-1.7,394.1C1807.6,645.3,1792.2,660.5,1773.2,660.4z"/>
								</g>
							</g>
							<g>
								<g>
									<path class="st15" d="M1775,211.5l-30.5-0.1c-4.1,0-7.4,3.4-7.4,7.7l0,5.5c0,4.3-3.3,7.7-7.4,7.7l-59.4-0.3
										c-4.1,0-7.4-3.5-7.4-7.8l0-5.5c0-4.3-3.3-7.8-7.4-7.8l-10.7,0l-26.7-0.1c-13.2-0.1-24,10.6-24.1,23.9l-1.6,384.6
										c-0.1,13.2,10.6,24,23.9,24.1l156.9,0.7c13.2,0.1,24-10.6,24.1-23.9l1.6-384.6C1798.9,222.4,1788.2,211.6,1775,211.5z"/>
								</g>
							</g>
						</g>
					</g>
				</g>
			</g>
			<g>
				<polygon class="st16" points="1593.9,280.8 1619.6,280.8 1642.5,303.8 1618.7,327.6 1594.1,303.1 				"/>
			</g>
			<g>
				<polygon class="st16" points="1647.7,293.7 1634.9,280.8 1663.8,280.8 				"/>
			</g>
			<g>
				<path class="st16" d="M1659,304.2l22.6-22.6h78.9c0,0,12.1,53.9-35.4,88.5L1659,304.2z"/>
			</g>
			<g>
				<polygon class="st16" points="1649.4,311.4 1625.2,335.6 1692,402.4 1716.2,377.4 				"/>
			</g>
			<g>
				<polygon class="st16" points="1593.6,349.3 1608.7,333.6 1593.9,318.7 				"/>
			</g>
			<g>
				<polygon class="st16" points="1617.8,342.8 1594.5,366.1 1594.5,398.4 1642.5,447.5 1683.2,409.6 				"/>
			</g>
			<g>
				<path class="st16" d="M1734,377c0,0,49.8-36.5,33.7-95.3h31l-0.4,166L1734,377z"/>
			</g>
			<g>
				<polygon class="st16" points="1724.7,386.5 1700.6,411.7 1774.4,485.5 1797,461.6 				"/>
			</g>
			<g>
				<polygon class="st16" points="1690.5,418.6 1652.7,456.2 1728.4,531.3 1766.2,494.8 				"/>
			</g>
			<g>
				<polygon class="st16" points="1670.7,606.9 1728.6,546.9 1783.6,603 				"/>
			</g>
			<g>
				<path class="st16" d="M1737.6,539.1l60.3-59.7c0,2.7-0.5,123.8-0.5,123.8L1737.6,539.1z"/>
			</g>
			<g>
				<polygon class="st16" points="1686,505.6 1720.2,539.8 1652.7,609.4 1621.5,572 				"/>
			</g>
			<g>
				<path class="st16" d="M1593.6,576.9c3.2-0.3,85.9-77.7,85.9-77.7l-85.9-89V576.9z"/>
			</g>
			<g>
				<polyline class="st16" points="1592.4,594.5 1612.3,576.9 1639.9,609.4 1592.4,609.4 1592.4,597 				"/>
			</g>
			<g>
				<g>
					<g>
						<path class="st17" d="M1618.2,257.4c-0.1,0.1-2.8-2.2-5.9-5.1l0,0c0-0.9,0-0.2,0-0.5l0,0l0,0l0,0l0,0l0.1-0.1l0.1-0.1l0.3-0.3
							c0.2-0.2,0.4-0.4,0.6-0.5c0.4-0.3,0.7-0.7,1.1-1c0.6-0.6,1.3-1.1,1.9-1.7c1.1-0.9,1.8-1.5,1.8-1.4c0.1,0.1-0.5,0.7-1.5,1.7
							c-0.6,0.6-1.2,1.1-1.8,1.8c-0.3,0.3-0.7,0.7-1.1,1c-0.2,0.2-0.4,0.4-0.6,0.5l-0.3,0.3l-0.1,0.1l-0.1,0.1l0,0l0,0l0,0l0,0
							c0-0.2,0,0.4,0-0.4l0,0C1615.8,254.8,1618.3,257.3,1618.2,257.4z"/>
					</g>
				</g>
				<g>
					<g>
						<path class="st17" d="M1781.6,248.4c0,0.7-0.6,1.3-1.3,1.3c-0.7,0-1.3-0.6-1.3-1.3c0-0.7,0.6-1.3,1.3-1.3
							C1781.1,247.1,1781.6,247.7,1781.6,248.4z"/>
					</g>
					<g>
						<path class="st17" d="M1781.3,251.9c0.5,0.5,0.5,1.3,0,1.8c-0.5,0.5-1.3,0.5-1.8,0c-0.5-0.5-0.5-1.3,0-1.8
							C1779.9,251.4,1780.8,251.4,1781.3,251.9z"/>
					</g>
					<g>
						<path class="st17" d="M1781.6,257.2c0,0.7-0.6,1.3-1.3,1.3c-0.7,0-1.3-0.6-1.3-1.3c0-0.7,0.6-1.3,1.3-1.3
							C1781.1,255.9,1781.6,256.5,1781.6,257.2z"/>
					</g>
				</g>
			</g>
			<g>
				<rect x="1670.9" y="253.6" class="st17" width="55.3" height="4.6"/>
			</g>
			<g>
				<path class="st18" d="M1720.2,336.4c0-21.5-22.6-35.2-45.7-24.4c-5.2,2.4-9.5,6.6-12.1,11.6c-5.8,11.3-3.2,24.1,2,34.8l18,45.5
					c2.6,6.6,11.9,6.5,14.4-0.1l17.6-45.8C1720.5,344.2,1720.2,336.4,1720.2,336.4z M1698.5,355.1c-15.5,9-31.2-7.7-22.7-24.1
					c1.1-2.2,2.9-4,4.9-5.2c15.5-9,31.2,7.7,22.7,24.1C1702.3,352.1,1700.6,353.9,1698.5,355.1z"/>
			</g>
		</g>
		<g>
			<g>
				<g>
					<g>
						<g>
							<rect x="1064.3" y="518.7" class="st18" width="593.4" height="87.1"/>
						</g>
					</g>
					<g class="st19">
						<g>
							<rect x="1064.3" y="518.7" width="593.4" height="87.1"/>
						</g>
					</g>
				</g>
				<g>
					<g>
						<g>
							<g>
								<g>
									<g>
										<g>
											
												<ellipse transform="matrix(0.9977 -6.712752e-02 6.712752e-02 0.9977 -38.0415 78.1613)" class="st17" cx="1144" cy="605.1" rx="57.2" ry="57.2"/>
										</g>
									</g>
								</g>
							</g>
						</g>
					</g>
					<g>
						<g>
							<g>
								<g>
									<g>
										<g>
											<path class="st17" d="M1086.8,604.2c0,0,0,0.1,0,0.1c-0.5,31.6,24.8,57.6,56.4,58c31.6,0.5,57.6-24.8,58-56.4
												c0,0,0-0.1,0-0.1L1086.8,604.2z"/>
										</g>
									</g>
								</g>
							</g>
						</g>
					</g>
					<g>
						<g>
							<g>
								<g>
									<g>
										<g>
											<path class="st15" d="M1103.9,604.6c-0.3,22.2,17.4,40.4,39.6,40.7c22.2,0.3,40.4-17.4,40.7-39.6
												c0.3-22.2-17.4-40.4-39.6-40.7C1122.4,564.7,1104.2,582.4,1103.9,604.6z"/>
										</g>
									</g>
								</g>
							</g>
						</g>
					</g>
					<g>
						<g>
							<g>
								<g>
									<g>
										<g>
											<path class="st20" d="M1144.6,565c-22.2-0.3-40.4,17.4-40.7,39.6l80.3,1.2C1184.5,583.5,1166.8,565.3,1144.6,565z"/>
										</g>
									</g>
								</g>
							</g>
						</g>
					</g>
					<g>
						<g>
							<g>
								<g>
									<g>
										<g>
											<path class="st17" d="M1119.6,604.8c-0.2,13.5,10.6,24.6,24.1,24.8c13.5,0.2,24.6-10.6,24.8-24.1
												c0.2-13.5-10.6-24.6-24.1-24.8C1130.9,580.5,1119.8,591.3,1119.6,604.8z"/>
										</g>
									</g>
								</g>
							</g>
						</g>
					</g>
				</g>
				<g>
					<g>
						<g>
							<g>
								<g>
									<g>
										<g>
											
												<ellipse transform="matrix(0.9983 -5.782903e-02 5.782903e-02 0.9983 -32.3483 92.4728)" class="st17" cx="1581.6" cy="605.1" rx="57.2" ry="57.2"/>
										</g>
									</g>
								</g>
							</g>
						</g>
					</g>
					<g>
						<g>
							<g>
								<g>
									<g>
										<g>
											<path class="st17" d="M1524.4,604.2c0,0,0,0.1,0,0.1c-0.5,31.6,24.8,57.6,56.4,58c31.6,0.5,57.6-24.8,58-56.4
												c0,0,0-0.1,0-0.1L1524.4,604.2z"/>
										</g>
									</g>
								</g>
							</g>
						</g>
					</g>
					<g>
						<g>
							<g>
								<g>
									<g>
										<g>
											<path class="st15" d="M1541.4,604.6c-0.3,22.2,17.4,40.4,39.6,40.7c22.2,0.3,40.4-17.4,40.7-39.6
												c0.3-22.2-17.4-40.4-39.6-40.7C1560,564.7,1541.7,582.4,1541.4,604.6z"/>
										</g>
									</g>
								</g>
							</g>
						</g>
					</g>
					<g>
						<g>
							<g>
								<g>
									<g>
										<g>
											<path class="st20" d="M1582.1,565c-22.2-0.3-40.4,17.4-40.7,39.6l80.3,1.2C1622,583.5,1604.3,565.3,1582.1,565z"/>
										</g>
									</g>
								</g>
							</g>
						</g>
					</g>
					<g>
						<g>
							<g>
								<g>
									<g>
										<g>
											<path class="st17" d="M1557.1,604.8c-0.2,13.5,10.6,24.6,24.1,24.8c13.5,0.2,24.6-10.6,24.8-24.1
												c0.2-13.5-10.6-24.6-24.1-24.8C1568.4,580.5,1557.3,591.3,1557.1,604.8z"/>
										</g>
									</g>
								</g>
							</g>
						</g>
					</g>
				</g>
				<g>
					<g>
						<path class="st18" d="M1219,469.7c0,0-84.3,6.2-115.5,13.2c-22,4.9-64.4,13.5-63.9,40.2l3.4,19.1c0,0-15.7,7.2-15.7,25.5
							c0,18.3-3.8,46.8,32.9,47.9c6.1,0.2,17.6,0,17.6,0s-7.1-78.3,64.8-80.5c73.1-2.3,68.3,79.8,68.3,79.8h305.3
							c0,0-12.5-80,66.2-80.2c78.7-0.1,66.8,80.7,66.8,80.7s29,2.5,42.4-21.8c13.5-24.3,10-41.7,10-41.7l-0.4-15.4
							c-0.2-5.2-4.3-9.5-9.6-9.7l0,0c0,0,5.3-38.7-2.8-45.4c-8.1-6.7-52.3-47.2-52.3-47.2l2.1-1.3c3.5-2.2,2.9-7.5-1-8.9
							c-16.8-5.8-50-17.2-57.8-19.9c-1.2-0.4-2.4-0.7-3.6-0.8c-4.7-0.4-17.9-1.2-42.1-1.5c-29.5-0.3-146.7,0-146.7,0
							s-40.3,3.3-62.8,13.2C1300.8,425.5,1219,469.7,1219,469.7z"/>
					</g>
				</g>
				<g class="st21">
					<g>
						<g>
							<path d="M1048.6,565.6c-3.1-0.6-7.7-0.7-10.1,1.4c-1.7,1.5-2.2,4-2.5,6.3c-0.4,3.2-0.5,6.4,0.2,9.5c0.8,3.1,2.6,6,5.3,7.6
								c2.8,1.5,6.6,1.3,8.8-1.1c2-2.1,2.2-5.3,2.2-8.2c-0.1-4.1,0.3-7.6-0.5-11.7c-0.1-0.8-0.6-1.8-1.1-2.4
								C1050.2,566.1,1049.6,565.7,1048.6,565.6"/>
						</g>
					</g>
				</g>
				<g>
					<g>
						<path class="st15" d="M1043,542.2c8.9,0,17.6-0.5,26.5-1.1c1-0.1,2-0.2,2.7-0.8c0.9-0.8,0.9-2.1,0.9-3.3
							c0-4.8-0.2-10.2-3.8-13.4c-2.2-1.9-5.3-2.5-8.2-2.8c-7.2-0.7-14.7-0.1-21.5,2.2L1043,542.2z"/>
					</g>
				</g>
				<g>
					<g>
						<g>
							<path class="st11" d="M1228.7,612.5c0,0,0-0.3-0.1-0.8c0-0.5-0.1-1.3-0.1-2.2c-0.1-2-0.3-4.9-0.5-8.6
								c-0.2-3.7-0.5-8.3-1-13.6c-0.6-5.3-1.4-11.3-3.2-17.8c-1.8-6.4-4.5-13.3-8.6-20.1c-4.1-6.7-9.5-13.4-16.6-18.6
								c-14.4-10.3-33.9-16.1-54.3-16.3c-20.4-0.2-39.9,6.2-53.9,17c-7.1,5.3-13,11.4-17.5,17.9c-4.6,6.4-7.9,13-10.3,19.3
								c-2.4,6.3-3.6,12.2-4.3,17.5c-0.8,5.3-0.7,9.9-0.5,13.6c0.3,3.7,0.6,6.6,1,8.6c0.2,1,0.3,1.7,0.4,2.2
								c0.1,0.5,0.1,0.8,0.1,0.8s-0.1-0.3-0.2-0.7c-0.1-0.5-0.3-1.2-0.5-2.2c-0.5-1.9-0.8-4.8-1.2-8.6c-0.2-3.7-0.3-8.4,0.4-13.7
								c0.7-5.3,1.9-11.3,4.3-17.6c2.3-6.3,5.7-12.9,10.2-19.4c4.5-6.5,10.4-12.7,17.6-18c14.1-10.9,33.7-17.4,54.2-17.1
								c20.5,0.3,40.1,6.1,54.6,16.5c7.2,5.2,12.6,12,16.7,18.7c4.1,6.8,6.8,13.7,8.6,20.2c1.8,6.5,2.6,12.6,3.1,17.9
								c0.5,5.3,0.7,9.9,0.9,13.7c0.2,3.7,0.3,6.6,0.4,8.6c0,1,0.1,1.7,0.1,2.2C1228.7,612.2,1228.7,612.5,1228.7,612.5z"/>
						</g>
					</g>
				</g>
				<g>
					<g>
						<g>
							<path class="st17" d="M1231.9,613.8c0,0,0-0.2,0-0.6c0-0.4,0-1.1-0.1-1.9c-0.1-1.7-0.1-4.2-0.2-7.4c-0.2-6.5-0.5-16-0.8-28
								c-0.3-12.1-0.7-26.7-1.2-43.5c-0.1-4.2-0.2-8.5-0.4-13c-0.1-2.2,0.1-4.5,0.3-6.8c0.2-1.1,0.3-2.3,0.5-3.4
								c0.2-1.1,0.5-2.3,0.7-3.4c1.1-4.6,2.6-9.2,4.8-13.7c2.1-4.5,4.6-8.9,7.8-13l0,0l0,0c16.3-10.3,34.1-21.5,52.9-33.3
								c4.7-3,9.5-6,14.3-9c4.7-3.2,9.8-5.9,15.1-8.4c5.3-2.5,10.8-4.7,16.4-6.6c2.8-1,5.7-1.8,8.6-2.6c2.9-0.7,5.8-1.6,8.8-2.2
								c11.4-2.5,22.8-3.8,34.1-4.3c11.2-0.5,22.3-0.5,33,0.1l0.3,0l-0.1,0.3c-5.1,22.6-9.8,44-14.2,63.5l0,0l0,0
								c-2.7,4.4-4.8,9-6.4,13.6c-1.5,4.7-2.5,9.5-2.2,14.1c0.4,4.7,0.5,9.3,0.6,13.7c0.1,4.5,0.2,8.8,0.3,13
								c0.2,16.8,0.3,31.4,0.4,43.5c0,12.1,0,21.5,0,28c0,3.2,0,5.7,0,7.4c0,0.8,0,1.5,0,1.9c0,0.4,0,0.6,0,0.6s0-0.2,0-0.6
								c0-0.4,0-1.1,0-1.9c0-1.7,0-4.2,0-7.4c0-6.5-0.1-16-0.2-28c-0.1-12.1-0.2-26.7-0.5-43.5c-0.1-4.2-0.2-8.5-0.3-13
								c-0.1-4.5-0.3-9-0.6-13.7c-0.4-4.8,0.6-9.6,2.2-14.3c1.6-4.7,3.7-9.3,6.4-13.8l0,0.1c4.4-19.6,9.1-40.9,14.2-63.6l0.2,0.3
								c-10.7-0.6-21.7-0.6-32.9-0.1c-11.2,0.5-22.6,1.8-34,4.3c-3,0.6-5.8,1.4-8.7,2.1c-2.9,0.9-5.7,1.7-8.5,2.6
								c-5.6,1.9-11.1,4.1-16.4,6.5c-5.3,2.5-10.3,5.2-15,8.4c-4.8,3-9.6,6-14.3,9c-18.8,11.8-36.6,23-52.9,33.3l0.1-0.1
								c-3.2,4-5.7,8.5-7.8,12.9c-2.1,4.5-3.7,9-4.7,13.6c-2.4,9.2-1.2,18.2-1.2,26.6c0.4,16.8,0.8,31.4,1.1,43.5
								c0.3,12.1,0.5,21.6,0.7,28c0.1,3.2,0.1,5.7,0.2,7.4c0,0.8,0,1.5,0,1.9C1232,613.6,1231.9,613.8,1231.9,613.8z"/>
						</g>
					</g>
				</g>
				<g>
					<g>
						<g>
							<path class="st17" d="M1426.1,414.4c0,0,0.2,0,0.5,0c0.4,0,0.8,0,1.5,0c1.3,0,3.2-0.1,5.7-0.1c5-0.1,12.1-0.2,21.1-0.4
								c17.9-0.3,42.8-0.7,71-1.2l0.1,0l0.1,0.1c3.2,3.9,6.5,8,9.9,12.2c10.1,12.4,19.7,24.1,28.4,34.8c1.1,1.3,2.2,2.7,3.2,4
								c1.1,1.3,1.9,2.8,2.7,4.3c1.4,3,2.1,6.2,2.1,9.3c0,3.1-0.6,6.1-1.7,8.7c-1.1,2.6-2.2,5.1-3.2,7.5c-4.1,9.6-7.5,17.3-9.8,22.7
								c-1.2,2.7-2.1,4.7-2.7,6.2c-0.3,0.7-0.5,1.2-0.7,1.6c-0.2,0.4-0.3,0.5-0.3,0.5s0.1-0.2,0.2-0.6c0.2-0.4,0.4-0.9,0.7-1.6
								c0.6-1.4,1.5-3.5,2.6-6.2c2.3-5.4,5.6-13.2,9.7-22.8c1.8-4.8,5.1-9.9,4.9-16.1c0-3-0.7-6.2-2.1-9.1c-0.7-1.5-1.6-2.9-2.6-4.2
								c-1.1-1.3-2.1-2.6-3.2-4c-8.7-10.7-18.4-22.5-28.4-34.8c-3.4-4.2-6.8-8.3-9.9-12.2l0.2,0.1c-28.2,0.4-53.1,0.8-71,1
								c-8.9,0.1-16.1,0.2-21.1,0.2c-2.5,0-4.4,0-5.7,0c-0.6,0-1.1,0-1.5,0C1426.3,414.4,1426.1,414.4,1426.1,414.4z"/>
						</g>
					</g>
				</g>
				<g>
					<g>
						<g>
							<path class="st17" d="M1390.3,508.8c0,0,0.3,0,0.9-0.1c0.5-0.1,1.4-0.3,2.2-0.9c0.9-0.6,1.8-1.6,2.3-3
								c0.2-0.7,0.3-1.5,0.3-2.4c0-0.8-0.2-1.7-0.7-2.5c-0.9-1.6-2.7-3-4.9-3c-2.3,0-4.7,0-7.2,0c-5.1,0-10.7,0-16.5,0
								c-1.4,0-2.8,0.5-3.8,1.5c-1,0.9-1.6,2.2-1.8,3.5c-0.1,1.3,0,2.7,0.7,3.8c0.6,1.1,1.6,2,2.7,2.4c1.1,0.5,2.3,0.4,3.6,0.4
								c1.2,0,2.4,0,3.5,0c2.3,0,4.4,0,6.3,0c3.8,0,6.9,0.1,9.1,0.1c1,0,1.9,0,2.5,0.1C1390,508.8,1390.3,508.8,1390.3,508.8
								s-0.3,0-0.9,0.1c-0.6,0-1.4,0-2.5,0.1c-2.2,0-5.3,0.1-9.1,0.1c-1.9,0-4,0-6.3,0c-1.1,0-2.3,0-3.5,0c-0.6,0-1.2,0-1.8,0
								c-0.6,0-1.3-0.2-1.9-0.4c-1.2-0.5-2.3-1.4-3-2.6c-0.7-1.2-0.9-2.7-0.8-4.1c0.2-1.4,0.9-2.8,2-3.8c1.1-1,2.6-1.6,4.1-1.6
								c5.9,0,11.4,0,16.5,0c2.5,0,5,0,7.2,0c2.4,0,4.4,1.5,5.3,3.3c0.5,0.9,0.7,1.8,0.7,2.7c0,0.9-0.1,1.7-0.4,2.5
								c-0.5,1.5-1.5,2.5-2.5,3.1c-0.9,0.6-1.8,0.8-2.3,0.8C1390.6,508.9,1390.3,508.8,1390.3,508.8z"/>
						</g>
					</g>
				</g>
				<g>
					<g>
						<g>
							<path class="st17" d="M1548.5,508.8c0,0,0.3,0,0.9-0.1c0.5-0.1,1.4-0.3,2.2-0.9c0.9-0.6,1.8-1.6,2.3-3
								c0.2-0.7,0.3-1.5,0.3-2.4c0-0.8-0.2-1.7-0.7-2.5c-0.9-1.6-2.7-3-4.9-3c-2.3,0-4.7,0-7.2,0c-5.1,0-10.7,0-16.5,0
								c-1.4,0-2.8,0.5-3.8,1.5c-1,0.9-1.6,2.2-1.8,3.5c-0.1,1.3,0,2.7,0.7,3.8c0.6,1.1,1.6,2,2.7,2.4c1.1,0.5,2.3,0.4,3.6,0.4
								c1.2,0,2.4,0,3.5,0c2.3,0,4.4,0,6.3,0c3.8,0,6.9,0.1,9.1,0.1c1,0,1.9,0,2.5,0.1C1548.2,508.8,1548.5,508.8,1548.5,508.8
								s-0.3,0-0.9,0.1c-0.6,0-1.4,0-2.5,0.1c-2.2,0-5.3,0.1-9.1,0.1c-1.9,0-4,0-6.3,0c-1.1,0-2.3,0-3.5,0c-0.6,0-1.2,0-1.8,0
								c-0.6,0-1.3-0.2-1.9-0.4c-1.2-0.5-2.3-1.4-3-2.6c-0.7-1.2-0.9-2.7-0.8-4.1c0.2-1.4,0.9-2.8,2-3.8c1.1-1,2.6-1.6,4.1-1.6
								c5.9,0,11.4,0,16.5,0c2.5,0,5,0,7.2,0c2.4,0,4.4,1.5,5.3,3.3c0.5,0.9,0.7,1.8,0.7,2.7c0,0.9-0.1,1.7-0.4,2.5
								c-0.5,1.5-1.5,2.5-2.5,3.1c-0.9,0.6-1.8,0.8-2.3,0.8C1548.8,508.9,1548.5,508.8,1548.5,508.8z"/>
						</g>
					</g>
				</g>
				<g>
					<g>
						<path class="st15" d="M1687.2,483h-31.7c-4.3,0-8.3,2.4-10.3,6.2v0c-1.7,3.2-1.8,6.9-0.4,10.1l12.4,28.2l31.7-0.3
							C1689,527.3,1695.7,491.5,1687.2,483z"/>
					</g>
				</g>
				<g>
					<g>
						<path class="st17" d="M1247.6,479l163.3-3l106.3-1.9l35.1-20.2c2.8-1.6,3.6-5.4,1.6-8l-21.8-28.7c-2.3-3-5.8-4.8-9.6-4.8
							l-118.9-1c0,0-44.8-2.6-80,17.1C1286.4,449.3,1247.6,479,1247.6,479z"/>
					</g>
				</g>
				<g>
					<g>
						<path class="st14" d="M1322.4,414.3c0,0,8.2,3.7,2.9,7.2c-5.3,3.5-88.1,55.6-88.1,55.6l-19-8.6
							C1251.9,449.8,1285.9,431.6,1322.4,414.3z"/>
					</g>
				</g>
				<g>
					<g>
						<g>
							<path class="st17" d="M1239.9,478.5c0,0-0.2,0.1-0.5,0.1c-0.4,0.1-0.9,0.2-1.5,0.3c-1.4,0.3-3.3,0.7-5.8,1.2
								c-5,1-12.4,2.4-21.4,4c-18.1,3.1-43.3,6.8-71.3,9.2c-7,0.6-13.8,1.1-20.4,1.5c-6.6,0.4-13,0.8-19,1.4
								c-12.1,1.1-23,2.8-31.8,5.4c-8.8,2.5-15.6,5.8-20,8.4c-2.3,1.2-3.9,2.4-5,3.1c-0.6,0.4-1,0.6-1.3,0.8
								c-0.3,0.2-0.5,0.3-0.5,0.3s0.1-0.1,0.4-0.3c0.3-0.2,0.7-0.5,1.3-0.9c1.1-0.7,2.7-1.9,5-3.2c4.4-2.6,11.2-6,20-8.5
								c8.8-2.7,19.7-4.5,31.8-5.6c6.1-0.6,12.4-1,19-1.4c6.6-0.4,13.4-0.9,20.4-1.6c28-2.4,53.2-6,71.3-9
								c9.1-1.5,16.4-2.9,21.5-3.8c2.5-0.5,4.5-0.8,5.8-1.1c0.6-0.1,1.2-0.2,1.5-0.3C1239.7,478.5,1239.9,478.5,1239.9,478.5z"/>
						</g>
					</g>
				</g>
				<g>
					<g>
						<g>
							<path class="st17" d="M1699.9,551.6c0,0.2-10.9,0.3-24.3,0.3c-13.4,0-24.3-0.1-24.3-0.3c0-0.2,10.9-0.3,24.3-0.3
								C1689,551.3,1699.9,551.5,1699.9,551.6z"/>
						</g>
					</g>
				</g>
				<g>
					<g>
						<g>
							<path class="st17" d="M1500.7,579.4c0,0.2-61.5,0.3-137.2,0.3c-75.8,0-137.3-0.1-137.3-0.3c0-0.2,61.4-0.3,137.3-0.3
								C1439.2,579.1,1500.7,579.2,1500.7,579.4z"/>
						</g>
					</g>
				</g>
				<g>
					<g>
						<g>
							<path class="st17" d="M1070.4,552.5c0,0.2-8.7,0.3-19.4,0.3c-10.7,0-19.4-0.1-19.4-0.3c0-0.2,8.7-0.3,19.4-0.3
								C1061.7,552.3,1070.4,552.4,1070.4,552.5z"/>
						</g>
					</g>
				</g>
				<g>
					<g>
						<path class="st14" d="M1635.4,433.2c0,0-7.3,8.2-4.4,14.2c2.9,6,32.5,27,32.5,27l21.5,4L1635.4,433.2z"/>
					</g>
				</g>
				<g>
					<g>
						<polygon class="st14" points="1430.9,418.6 1426.1,470.8 1512.6,468.3 1547.5,448.1 1524.9,418.6 						"/>
					</g>
				</g>
				<g>
					<g>
						<path class="st14" d="M1268.1,473.5c0,0,52.2-37.7,72.8-45.2c19.9-7.2,30.2-9,48.9-9.6c17.8-0.5,28.7,0,28.7,0l-13.8,53.1
							L1268.1,473.5z"/>
					</g>
				</g>
				<g>
					<g>
						<g>
							<path class="st18" d="M1260.4,473.7L1260.4,473.7c0-3.3,1.8-6.4,4.7-8l12-6.7c3.4-1.9,7.3-2.9,11.2-2.9l0,0
								c2.4,0,4.8,0.4,7.1,1.1c5.1,1.7,8.5,6.5,8.7,11.9l0,0c0.3,7.5-5.7,13.7-13.2,13.7h-21.4
								C1264.5,482.8,1260.4,478.7,1260.4,473.7z"/>
						</g>
					</g>
					<g>
						<g>
							<g>
								<path class="st17" d="M1260.4,473.7c0,0,0,0.4,0.1,1.2c0.1,0.8,0.4,1.9,1.1,3.1c0.7,1.2,1.9,2.6,3.7,3.6
									c0.9,0.5,1.9,0.8,3.1,1c1.1,0.1,2.4,0.1,3.7,0.1c5.2,0,11.4,0,18.3-0.1c1.7,0,3.4-0.2,5.1-0.8c1.7-0.6,3.2-1.6,4.5-2.9
									c1.3-1.3,2.4-2.9,3.1-4.6c0.7-1.8,0.9-3.7,0.8-5.7c-0.3-3.9-2.4-7.5-5.4-9.6c-1.5-1.1-3.2-1.7-5-2.1
									c-1.7-0.4-3.5-0.6-5.2-0.6c-3.4,0-6.6,0.8-9.4,2c-1.4,0.6-2.6,1.4-3.9,2.1c-1.2,0.7-2.4,1.4-3.6,2c-2.3,1.3-4.3,2.4-6.1,3.4
									c-1.8,1-3,2.4-3.7,3.6c-0.7,1.3-0.9,2.4-1.1,3.1C1260.4,473.3,1260.4,473.7,1260.4,473.7c0,0-0.1-0.4,0-1.2
									c0.1-0.8,0.3-1.9,1-3.2c0.7-1.3,1.9-2.8,3.7-3.8c1.8-1,3.8-2.2,6.1-3.5c1.1-0.6,2.3-1.3,3.6-2c1.2-0.7,2.5-1.5,3.9-2.1
									c2.8-1.3,6.1-2.1,9.6-2.1c1.7,0,3.5,0.2,5.3,0.6c1.8,0.4,3.6,1,5.1,2.2c3.2,2.2,5.3,5.9,5.6,10c0.1,2-0.1,4.1-0.8,5.9
									c-0.7,1.9-1.8,3.5-3.2,4.8c-1.4,1.3-3,2.3-4.7,3c-1.7,0.7-3.5,0.9-5.3,0.8c-6.9,0-13.1,0-18.3-0.1c-1.3,0-2.5,0-3.7-0.1
									c-1.2-0.2-2.3-0.5-3.2-1c-1.8-1-3-2.5-3.7-3.8c-0.7-1.3-0.9-2.5-1-3.2C1260.4,474.1,1260.4,473.7,1260.4,473.7z"/>
							</g>
						</g>
					</g>
				</g>
				<g>
					<g>
						<g>
							<path class="st11" d="M1662.7,613c0,0,0-0.3,0-0.7c0-0.5,0.1-1.2,0.1-2.2c0.1-1,0.2-2.1,0.2-3.5c0-1.4,0.1-3,0.2-4.8
								c0-1.8,0-3.8,0-6c-0.1-2.2-0.2-4.6-0.5-7.2c-0.5-5.1-1.3-11-3.1-17.2c-0.9-3.1-2-6.3-3.4-9.6c-1.4-3.3-3.1-6.5-5.2-9.7
								c-4.1-6.4-9.8-12.4-16.7-17.5c-6.9-5.1-15.1-9.1-24-11.8c-8.9-2.7-18.6-3.7-28.5-3.8c-9.9,0-19.6,1.3-28.5,4.1
								c-4.4,1.4-8.7,3.2-12.7,5.2c-4,2.1-7.6,4.6-11,7.2c-6.7,5.3-12.4,11.2-16.9,17.4c-2.2,3.1-4,6.3-5.6,9.5
								c-1.5,3.2-2.9,6.3-3.9,9.4c-4.3,12.3-5.7,22.8-6.2,30c-0.2,3.6-0.2,6.4-0.1,8.4c0.1,0.9,0.1,1.7,0.1,2.2c0,0.5,0,0.7,0,0.7
								s0-0.2-0.1-0.7c0-0.5-0.1-1.2-0.2-2.2c-0.1-1.9-0.2-4.7,0-8.4c0.4-7.2,1.7-17.8,6-30.1c1-3.1,2.4-6.2,3.9-9.5
								c1.6-3.2,3.4-6.4,5.6-9.5c4.5-6.2,10.2-12.2,17-17.5c3.4-2.6,7.1-5.2,11.1-7.3c4-2.1,8.3-3.9,12.7-5.3
								c8.9-2.8,18.7-4.2,28.6-4.2c9.9,0.1,19.7,1.1,28.7,3.8c9,2.7,17.2,6.8,24.1,11.9c3.5,2.6,6.6,5.3,9.5,8.3
								c2.8,2.9,5.3,6.1,7.3,9.3c2.1,3.2,3.8,6.5,5.2,9.8c1.4,3.3,2.5,6.5,3.4,9.6c1.8,6.3,2.6,12.1,3,17.3c0.3,2.6,0.3,5,0.4,7.2
								c0,2.2,0,4.2,0,6.1c-0.1,1.8-0.2,3.4-0.2,4.8c-0.1,1.4-0.2,2.6-0.3,3.5c-0.1,0.9-0.2,1.7-0.2,2.2
								C1662.7,612.7,1662.7,613,1662.7,613z"/>
						</g>
					</g>
				</g>
				<g>
					<g>
						<g>
							<path class="st22" d="M1171.4,518.2"/>
						</g>
					</g>
				</g>
				<g>
					<g>
						<g>
							<path class="st11" d="M1402.4,479c0,0-0.1,0-0.2,0c-0.2,0-0.4,0-0.7,0c-0.7,0-1.6,0-2.8,0.1c-2.5,0-6,0.1-10.3,0.2
								c-8.7,0.2-20.6,0.5-33.8,0.8c-13.2,0.4-25.2,0.6-33.9,0.7c-4.3,0-7.8,0-10.3,0c-1.2,0-2.1,0-2.8,0c-0.3,0-0.5,0-0.7,0
								c-0.2,0-0.2,0-0.2,0c0,0,0.1,0,0.2,0c0.2,0,0.4,0,0.7,0c0.7,0,1.6,0,2.8-0.1c2.5,0,6-0.1,10.3-0.2c8.7-0.2,20.6-0.5,33.8-0.8
								c13.2-0.4,25.2-0.6,33.8-0.7c4.3,0,7.8,0,10.3,0c1.2,0,2.1,0,2.8,0c0.3,0,0.5,0,0.7,0C1402.3,479,1402.4,479,1402.4,479z"/>
						</g>
					</g>
				</g>
				<g>
					<g>
						<g>
							<path class="st11" d="M1388.2,495.1c0,0.2-4.2,0.3-9.4,0.3c-5.2,0-9.4-0.1-9.4-0.3c0-0.2,4.2-0.3,9.4-0.3
								C1384,494.8,1388.2,494.9,1388.2,495.1z"/>
						</g>
					</g>
				</g>
				<g>
					<g>
						<g>
							<path class="st11" d="M1391.7,437.9c0.1,0.1-11.6,5-26,10.8c-14.4,5.8-26.1,10.4-26.2,10.3c-0.1-0.1,11.6-5,26-10.8
								C1379.9,442.3,1391.6,437.7,1391.7,437.9z"/>
						</g>
					</g>
				</g>
				<g>
					<g>
						<g>
							<path class="st11" d="M1368.1,441.5c0.1,0.1-11,5-24.7,10.9c-13.7,5.9-24.9,10.5-25,10.4c-0.1-0.1,11-5,24.7-10.9
								C1356.9,446,1368.1,441.4,1368.1,441.5z"/>
						</g>
					</g>
				</g>
				<g>
					<g>
						<g>
							<path class="st11" d="M1517.6,435.8c0.1,0.1-11.6,5-26,10.8c-14.4,5.8-26.1,10.4-26.2,10.3c-0.1-0.1,11.6-5,26-10.8
								C1505.8,440.3,1517.5,435.7,1517.6,435.8z"/>
						</g>
					</g>
				</g>
				<g>
					<g>
						<g>
							<path class="st11" d="M1494,439.5c0.1,0.1-11,5-24.7,10.9c-13.7,5.9-24.9,10.5-25,10.4c-0.1-0.1,11-5,24.7-10.9
								C1482.8,444,1494,439.4,1494,439.5z"/>
						</g>
					</g>
				</g>
				<g>
					<g>
						<g>
							<path class="st11" d="M1519.9,479c0,0.2-23.1,0.4-51.7,0.6c-28.5,0.2-51.7,0.2-51.7,0c0-0.2,23.1-0.4,51.7-0.6
								C1496.7,478.9,1519.9,478.9,1519.9,479z"/>
						</g>
					</g>
				</g>
				<g>
					<g>
						<g>
							<path class="st11" d="M1545.5,494.2c0,0.2-6.5,0.3-14.5,0.4c-8,0.1-14.5,0-14.5-0.1c0-0.2,6.5-0.3,14.5-0.4
								C1539,494,1545.5,494,1545.5,494.2z"/>
						</g>
					</g>
				</g>
				<g>
					<g>
						<g>
							<path class="st11" d="M1102.6,486.3c0,0-0.2,0.1-0.6,0.1c-0.5,0.1-1.1,0.1-1.8,0.2c-0.8,0.1-1.8,0.2-2.9,0.4
								c-1.1,0.2-2.4,0.3-3.8,0.6c-2.8,0.5-6.1,1.2-9.7,2.2c-3.6,1-7.5,2.3-11.6,3.8c-4,1.6-7.8,3.3-11.1,5.1
								c-3.3,1.8-6.2,3.5-8.6,5c-1.2,0.7-2.3,1.5-3.2,2.1c-0.9,0.6-1.7,1.2-2.4,1.7c-0.6,0.4-1.1,0.8-1.5,1.1
								c-0.3,0.2-0.5,0.4-0.5,0.3c0,0,0.2-0.2,0.5-0.4c0.4-0.3,0.8-0.7,1.4-1.1c0.6-0.5,1.4-1.1,2.3-1.7c0.9-0.7,2-1.4,3.2-2.2
								c2.4-1.6,5.3-3.3,8.6-5.1c3.3-1.8,7.1-3.5,11.1-5.1c4.1-1.6,8-2.8,11.6-3.8c3.6-0.9,7-1.6,9.8-2.1c1.4-0.3,2.7-0.4,3.8-0.5
								c1.1-0.2,2.1-0.2,2.9-0.3c0.7-0.1,1.3-0.1,1.8-0.1C1102.3,486.3,1102.5,486.3,1102.6,486.3z"/>
						</g>
					</g>
				</g>
				<g>
					<g>
						<g>
							<path class="st11" d="M1293.5,461.1c0,0-0.3-0.4-1-1c-0.7-0.6-1.9-1.2-3.5-1.4c-1.6-0.2-3.6,0.1-5.7,0.6
								c-2.1,0.5-4.4,1.3-6.7,2.3c-4.6,2-8.4,4.7-11,6.8c-2.5,2.1-3.9,3.7-4,3.6c0,0,0.3-0.4,0.9-1.1c0.6-0.7,1.6-1.7,2.8-2.8
								c2.5-2.2,6.3-5,11-7c2.3-1,4.7-1.8,6.8-2.3c2.1-0.5,4.2-0.8,5.9-0.5c1.7,0.3,2.9,1,3.6,1.7c0.3,0.3,0.6,0.6,0.7,0.8
								C1293.5,460.9,1293.5,461.1,1293.5,461.1z"/>
						</g>
					</g>
				</g>
			</g>
			<g>
				<g>
					<g>
						<path class="st17" d="M1637.9,432.8c0,0-1.6,0.5-4.6,0.5c-1.5,0-3.3-0.2-5.3-0.7c-2.1-0.4-4.3-1.2-6.8-2.1
							c-2.5-0.9-5.1-2.1-7.9-3.3c-1.4-0.6-2.9-1.2-4.4-1.8c-1.5-0.6-3.1-1.1-4.8-1.7c-6.6-2.3-14-4.3-21.8-5.9
							c-15.7-3.3-30.2-4.7-40.7-5.1c-2.6-0.1-5-0.1-7.1-0.2c-2.1,0-3.9,0-5.4,0c-1.4,0-2.6,0.1-3.4,0.1c-0.4,0-0.7,0-0.9,0
							c-0.2,0-0.3,0-0.3,0c0,0,0.1,0,0.3,0c0.2,0,0.5,0,0.9-0.1c0.8,0,1.9-0.1,3.4-0.2c1.5,0,3.3-0.1,5.4-0.1c2.1,0,4.5,0,7.1,0.1
							c10.5,0.3,25.1,1.6,40.8,4.9c7.9,1.7,15.3,3.7,21.9,6c1.6,0.6,3.2,1.1,4.8,1.8c1.5,0.6,3,1.2,4.4,1.8c2.8,1.2,5.5,2.4,7.9,3.4
							c2.4,1,4.7,1.7,6.7,2.2c2,0.5,3.8,0.7,5.3,0.7c1.5,0,2.6,0,3.4-0.1c0.4,0,0.6-0.1,0.9-0.1
							C1637.7,432.8,1637.8,432.8,1637.9,432.8z"/>
					</g>
				</g>
			</g>
		</g>
		<g>
			<g>
				<g>
					<path class="st18" d="M1123.3,434.3c-4.3-23.4-7.1-27-9.6-35c-2.4-8-6.3-13.3-11-15.1c-3.2-1.2-19.3-7-24.9-5.1
						c-6.2,2.1-11.7,5.2-15.5,7.8c-3.8,2.5-6.6,6.1-8.1,10.4l-8.6,24.1l15.1,15l7.5-16l8.2,19.2l-1.2,19.4l47,12.6
						C1126.4,464.7,1125.7,447.6,1123.3,434.3z"/>
				</g>
				<g>
					<g class="st23">
						<g>
							<path d="M1111.1,408.8c-2.1,12.2-2.4,13.9-4.5,26c-0.7,4.2-2.8,10.7-5.8,13.7c-2.2,2.2-4.4,4.4-7.4,5.1
								c-2.9,0.7-7.2,0.7-9.9-0.4c-2.7-1.2-5-6.4-3.9-9.1c4,0.9,5.2,2.2,8.7,0c3-1.9,7.2-6.1,8.9-9.3
								C1104.1,421.6,1105.9,421.1,1111.1,408.8"/>
						</g>
					</g>
				</g>
				<g>
					<g>
						<path class="st17" d="M1077.1,432.4c-0.1,0-0.8-1.2-2.1-3.2c-1.3-2.1-3-4.9-4.8-7.9c-1.9-3-3.6-5.7-5-7.8
							c-1.3-2-2.1-3.2-2-3.3c0,0,0.3,0.3,0.7,0.8c0.4,0.5,1,1.3,1.6,2.3c1.4,1.9,3.2,4.7,5.1,7.7c1.9,3.1,3.6,5.9,4.7,8
							c0.6,1,1,1.9,1.3,2.5C1076.9,432,1077.1,432.3,1077.1,432.4z"/>
					</g>
				</g>
				<g>
					<g>
						<path class="st17" d="M1109.8,454.2c0,0-0.4,0.2-1.1,0.4c-0.4,0.1-0.8,0.3-1.3,0.4c-0.5,0.1-1.1,0.3-1.8,0.4
							c-1.3,0.2-3,0.4-4.8,0.4c-1.8,0-3.8-0.1-5.8-0.5c-2-0.4-3.9-1-5.6-1.6c-1.7-0.7-3.1-1.4-4.3-2.1c-0.6-0.3-1.1-0.7-1.5-1
							c-0.5-0.3-0.8-0.6-1.1-0.8c-0.6-0.5-0.9-0.7-0.9-0.8c0.1-0.1,1.4,1,3.7,2.2c1.2,0.7,2.6,1.3,4.3,1.9c1.7,0.6,3.5,1.1,5.6,1.5
							c2,0.4,4,0.5,5.7,0.5c1.8,0,3.4-0.1,4.7-0.3C1108.2,454.6,1109.8,454.1,1109.8,454.2z"/>
					</g>
				</g>
				<g>
					<g>
						<g>
							<path class="st24" d="M1091,417.8c-0.1,0.4-5.1,10.5-5.1,10.5l-23.8-12.6l-2.4-10.3c-0.4-1.6-1.4-3-2.8-3.9
								c-1.5-0.9-3.3-1.3-5-0.8l-7,2.9c-0.6,0.2-1,0.7-1.2,1.4c-0.1,0.5,0,1,0.9,1c1.7-0.1,5.4-0.5,5.4-0.5l-1.7,5.8
								c-0.4,1.5-0.3,3.2,0.5,4.6l1.1,2l2.3,3.8l0,0c0,0,23.2,23.8,36.2,25.3c7.8,0.9,16.7-21,16.7-21L1091,417.8z"/>
						</g>
						<g>
							<g>
								<g>
									<g>
										<g>
											<g>
												<path class="st25" d="M1049.8,405.7c0,0,0.2-0.2,0.6-0.5c0.4-0.3,1-0.6,1.8-0.6c0.8,0,1.4,0.6,1.6,1
													c0.2,0.5,0.1,0.8,0,0.8c-0.1,0,0-0.3-0.3-0.7c-0.2-0.4-0.7-0.8-1.4-0.8c-0.7,0-1.3,0.2-1.7,0.4
													C1050.1,405.6,1049.8,405.8,1049.8,405.7z"/>
											</g>
										</g>
									</g>
								</g>
								<g>
									<g>
										<g>
											<g>
												<path class="st25" d="M1052.8,409.4c0,0-0.2-0.2-0.4-0.5c-0.2-0.3-0.6-0.6-1.1-0.8c-0.5-0.2-1-0.2-1.4-0.2
													c-0.4,0-0.6,0.1-0.6,0.1c0,0,0.2-0.2,0.6-0.3c0.4-0.1,1-0.2,1.6,0.1c0.6,0.2,1,0.7,1.2,1
													C1052.8,409.1,1052.8,409.4,1052.8,409.4z"/>
											</g>
										</g>
									</g>
								</g>
							</g>
						</g>
					</g>
					<g>
						<path class="st18" d="M1095.9,386l-6.5,30.6l17.1,10.3l6.6-18.8C1113.1,408.1,1110.4,385.3,1095.9,386z"/>
					</g>
					<g>
						<g>
							<path class="st16" d="M1105.2,386.6c0,0-0.1,0.1-0.4,0.3c-0.3,0.2-0.7,0.4-1.3,0.7c-1.1,0.6-2.8,1.4-4.9,2.3
								c-4.2,1.8-10.1,4.2-17,5.4c-6.9,1.2-13.4,0.6-17.8-0.6c-2.2-0.6-3.9-1.3-5.1-1.8c-0.6-0.3-1-0.5-1.3-0.7
								c-0.3-0.2-0.4-0.3-0.4-0.3c0,0,0.7,0.3,1.8,0.7c1.2,0.5,2.9,1.1,5.1,1.6c4.4,1.1,10.7,1.6,17.6,0.4
								c6.8-1.2,12.7-3.4,16.9-5.2c2.1-0.9,3.8-1.6,4.9-2.2C1104.5,386.8,1105.1,386.5,1105.2,386.6z"/>
						</g>
					</g>
					<g>
						<g>
							<path class="st16" d="M1109.6,389.9c0,0-0.2,0.1-0.5,0.3c-0.4,0.2-0.8,0.5-1.4,0.9c-0.6,0.4-1.4,0.9-2.3,1.3
								c-0.9,0.5-1.9,1.1-3.2,1.6c-0.6,0.3-1.2,0.6-1.9,0.9c-0.7,0.3-1.4,0.5-2.1,0.8c-1.4,0.6-3,1.1-4.7,1.6c-3.3,1-7.1,1.8-11,2.3
								c-4,0.5-7.8,0.5-11.3,0.3c-1.7-0.1-3.4-0.2-4.9-0.5c-0.8-0.1-1.5-0.2-2.2-0.3c-0.7-0.1-1.4-0.3-2-0.4
								c-1.3-0.2-2.4-0.6-3.4-0.8c-1-0.2-1.9-0.5-2.6-0.8c-0.6-0.2-1.2-0.4-1.6-0.6c-0.4-0.1-0.5-0.2-0.5-0.2c0,0,0.2,0,0.6,0.1
								c0.4,0.1,1,0.3,1.6,0.5c0.7,0.2,1.6,0.5,2.6,0.7c1,0.2,2.1,0.5,3.4,0.7c0.6,0.1,1.3,0.2,2,0.4c0.7,0.1,1.4,0.2,2.2,0.3
								c1.5,0.2,3.2,0.3,4.9,0.4c3.4,0.1,7.2,0.1,11.2-0.4c3.9-0.5,7.6-1.3,11-2.2c1.6-0.5,3.2-1,4.6-1.6c0.7-0.3,1.4-0.5,2.1-0.8
								c0.6-0.3,1.3-0.6,1.9-0.8c1.2-0.5,2.2-1.1,3.2-1.5c0.9-0.4,1.7-0.9,2.3-1.3c0.6-0.3,1.1-0.6,1.5-0.8
								C1109.5,390,1109.6,389.9,1109.6,389.9z"/>
						</g>
					</g>
					<g>
						<g>
							<path class="st17" d="M1106.6,426.9c0,0-0.5-0.2-1.4-0.7c-0.9-0.5-2.2-1.2-3.8-2.1c-3.3-1.9-7.7-4.5-12.9-7.4l-0.2-0.1l0-0.2
								c0.5-2.3,1-4.7,1.5-7.3c0.8-3.8,1.5-7.4,2.2-10.7c0.4-1.6,0.6-3.2,1-4.7c0.3-1.5,0.8-2.8,1.4-4c1.2-2.3,3.1-3.6,4.4-4
								c0.7-0.2,1.3-0.3,1.6-0.3c0.4,0,0.6,0,0.6,0.1c0,0.1-0.8-0.1-2.1,0.4c-1.3,0.5-3.1,1.7-4.1,4c-0.6,1.1-1,2.4-1.3,3.9
								c-0.3,1.5-0.6,3-0.9,4.7c-0.7,3.3-1.4,6.9-2.2,10.7c-0.5,2.5-1,5-1.5,7.3l-0.1-0.3c5.1,3,9.5,5.7,12.8,7.6
								c1.5,0.9,2.8,1.7,3.7,2.2C1106.1,426.5,1106.6,426.9,1106.6,426.9z"/>
						</g>
					</g>
				</g>
				<g>
					<g>
						<path class="st17" d="M1111.8,407.2c0.1,0,0.1,1.1-0.1,2.9c-0.2,1.8-0.5,4.2-1.2,6.8c-0.7,2.6-1.5,4.9-2.3,6.5
							c-0.7,1.6-1.3,2.6-1.3,2.5c-0.1,0,0.3-1,1-2.7c0.6-1.6,1.4-3.9,2.1-6.5c0.7-2.6,1.1-5,1.4-6.7
							C1111.6,408.3,1111.7,407.2,1111.8,407.2z"/>
					</g>
				</g>
			</g>
			<g>
				<g>
					<g>
						<g>
							<path class="st14" d="M1019,577.3l-0.2,16.3c0,0-16.7,5.3-17,8.3l31.6,1.5l1.3-25.4L1019,577.3z"/>
						</g>
						<g>
							<g>
								<path class="st20" d="M1028.7,592.7c0.6,0.2,1,0.9,0.8,1.5c-0.2,0.6-0.9,1-1.5,0.8c-0.6-0.2-1.1-1-0.9-1.6
									c0.2-0.6,1.1-1,1.7-0.7"/>
							</g>
						</g>
						<g>
							<path class="st20" d="M1033.5,603.4l0-2.6l-30.4-0.5c0,0-1.4,0.5-1.3,1.5L1033.5,603.4z"/>
						</g>
						<g>
							<g>
								<path class="st17" d="M1018.3,593.4c0,0.2,0.8,0.3,1.5,0.8c0.8,0.5,1.1,1.2,1.3,1.1c0.1,0,0-1-0.9-1.6
									C1019.3,593.1,1018.3,593.3,1018.3,593.4z"/>
							</g>
						</g>
						<g>
							<g>
								<path class="st17" d="M1015,594.6c0,0.1,0.6,0.4,1.1,1.1c0.5,0.7,0.6,1.4,0.8,1.4c0.1,0,0.3-0.9-0.3-1.7
									C1015.9,594.6,1015,594.5,1015,594.6z"/>
							</g>
						</g>
						<g>
							<g>
								<path class="st17" d="M1012.9,598.5c0.1,0,0.4-0.7,0-1.6c-0.4-0.9-1.1-1.2-1.1-1.1c-0.1,0.1,0.4,0.6,0.6,1.3
									C1012.7,597.8,1012.7,598.5,1012.9,598.5z"/>
							</g>
						</g>
						<g>
							<g>
								<path class="st17" d="M1018.8,589.7c0.1,0.1,0.8,0,1.6,0.1c0.9,0.1,1.5,0.4,1.6,0.3c0.1-0.1-0.5-0.7-1.6-0.8
									C1019.5,589.1,1018.7,589.6,1018.8,589.7z"/>
							</g>
						</g>
					</g>
					<g class="st26">
						<polygon points="1019,580.5 1019,583.4 1034.5,584 1034.7,581.4 						"/>
					</g>
					<g>
						<g>
							<path class="st17" d="M1018.9,586.4c0,0.1,0.6,0.2,1.6,0.1c0.5-0.1,1.1-0.2,1.7-0.4c0.3-0.1,0.6-0.3,0.9-0.4
								c0.2-0.1,0.3-0.2,0.5-0.3c0.2-0.2,0.3-0.6,0.1-0.8c-0.2-0.3-0.4-0.4-0.7-0.4c-0.2,0-0.4,0-0.6,0.1c-0.4,0.1-0.7,0.2-1,0.3
								c-0.6,0.2-1.1,0.6-1.5,0.9c-0.8,0.6-1,1.2-1,1.2c0.1,0.1,0.4-0.4,1.2-0.9c0.4-0.3,0.9-0.5,1.5-0.7c0.3-0.1,0.6-0.2,0.9-0.2
								c0.3-0.1,0.6-0.1,0.7,0.1c0,0.1,0,0.1,0,0.2c-0.1,0.1-0.2,0.2-0.4,0.3c-0.3,0.2-0.6,0.3-0.9,0.4c-0.6,0.2-1.1,0.4-1.6,0.5
								C1019.5,586.3,1018.9,586.3,1018.9,586.4z"/>
						</g>
					</g>
					<g>
						<g>
							<path class="st17" d="M1019.1,586.6c0.1,0,0.4-0.5,0.5-1.5c0.1-0.5,0-1.1-0.1-1.7c-0.1-0.3-0.2-0.7-0.4-1
								c-0.2-0.3-0.4-0.8-1-0.8c-0.3,0-0.6,0.2-0.7,0.4c-0.1,0.2-0.1,0.4-0.2,0.6c-0.1,0.4-0.1,0.7-0.1,1.1c0.1,0.7,0.3,1.3,0.6,1.7
								c0.6,0.8,1.2,1.1,1.2,1c0.1-0.1-0.5-0.4-0.9-1.2c-0.2-0.4-0.4-0.9-0.4-1.5c0-0.3,0-0.6,0.1-0.9c0.1-0.3,0.2-0.6,0.3-0.6
								c0.2,0,0.4,0.3,0.5,0.5c0.1,0.3,0.3,0.6,0.4,0.9c0.2,0.6,0.2,1.1,0.2,1.6C1019.2,586,1019,586.6,1019.1,586.6z"/>
						</g>
					</g>
				</g>
				<g>
					<g>
						<path class="st17" d="M1083.5,459.1c0,0-49.4-20.7-64.7-21.6c-9.6-0.6-16.9,5.6-15.6,15.5c0.7,5,14.3,63.1,14.3,63.1l20.8-9.5
							l-10-40.2l40.6,19.7L1083.5,459.1z"/>
					</g>
					<g>
						<g>
							<path class="st14" d="M1022.1,456.2c-0.2,0.1,1.5,2.2,3.2,5c1.7,2.8,2.9,5.2,3.1,5.1c0.2-0.1-0.7-2.7-2.5-5.5
								C1024.2,458,1022.3,456.1,1022.1,456.2z"/>
						</g>
					</g>
					<g>
						<g>
							<path class="st14" d="M1018.1,458.5c-0.1,0.2,2.4,1.8,5.3,3.9c2.9,2.1,5.2,4.1,5.3,3.9c0.1-0.1-1.9-2.3-4.9-4.5
								C1020.9,459.7,1018.2,458.4,1018.1,458.5z"/>
						</g>
					</g>
				</g>
				<g>
					<g>
						<path class="st17" d="M1122.1,471.5c0,0-6.2,8-12.1,10.2c-7.4,2.8-62.5,28.7-62.5,28.7s-10,74.2-9.2,71.1l-23-0.6l2.5-68.4
							c0.3-8.8,7.3-18.8,14.8-23.3l51-30.3L1122.1,471.5z"/>
					</g>
					<g>
						<g>
							<path class="st14" d="M1017.2,525.2c0,0,0.1-0.3,0.1-0.9c0-0.7,0.1-1.6,0.1-2.7c0.1-2.3,0.3-5.7,0.9-9.8
								c0.7-4.1,1.9-9,5-13.5c1.5-2.3,3.5-4.3,5.9-6.1c2.4-1.8,5-3.4,7.8-4.9c11.1-6.4,20.7-12.8,27.7-17.3c3.5-2.2,6.4-4,8.4-5.3
								c0.9-0.6,1.7-1.1,2.3-1.4c0.5-0.3,0.8-0.5,0.8-0.5c0,0-0.3,0.1-0.8,0.4c-0.5,0.3-1.3,0.7-2.4,1.3c-2,1.1-5,2.9-8.5,5.1
								c-7.2,4.3-16.8,10.7-27.8,17.1c-2.8,1.6-5.5,3.2-7.9,5c-2.4,1.8-4.5,4-6,6.3c-3.1,4.7-4.3,9.7-4.9,13.8
								c-0.6,4.2-0.6,7.6-0.7,9.9c0,1.1,0,2,0,2.7C1017.2,524.9,1017.2,525.2,1017.2,525.2z"/>
						</g>
					</g>
				</g>
				<g>
					<g>
						<path class="st14" d="M1101.7,479.4c0.1-0.1-0.6-0.7-1.4-1.9c-0.8-1.2-1.7-3-2.2-5.1c-0.4-2.1-0.3-4.2,0-5.6
							c0.3-1.4,0.7-2.2,0.6-2.3c-0.1,0-0.6,0.7-1.1,2.2c-0.5,1.4-0.7,3.6-0.2,5.8c0.5,2.3,1.5,4.1,2.5,5.3
							C1100.9,478.9,1101.7,479.4,1101.7,479.4z"/>
					</g>
				</g>
				<g>
					<g>
						<path class="st14" d="M1023.6,581c0,0,0-0.1,0.1-0.4c0-0.3,0.1-0.7,0.1-1.1c0.1-1,0.3-2.5,0.5-4.3c0.4-3.8,0.9-9.2,1.6-15.9
							c0.3-3.4,0.7-7,1-11c0.4-3.9,0.8-8.2,1.1-12.6c0.3-4.4,0.8-9.1,1.6-13.9c0.8-4.8,2.1-9.6,4.2-14.3c2.1-4.6,5.1-8.7,8.4-12.3
							c3.3-3.5,6.9-6.6,10.4-9.2c7.2-5.3,14.2-9.1,20.1-12.5c5.9-3.4,10.5-6.2,13.6-8.4c1.6-1.1,2.7-1.9,3.5-2.5
							c0.4-0.3,0.7-0.5,0.9-0.7c0.2-0.2,0.3-0.2,0.3-0.3c0,0-0.1,0.1-0.3,0.2c-0.2,0.2-0.5,0.4-0.9,0.6c-0.8,0.6-2,1.4-3.6,2.4
							c-3.1,2.1-7.8,4.9-13.7,8.2c-5.9,3.3-13,7.1-20.2,12.4c-3.6,2.6-7.2,5.7-10.6,9.3c-3.3,3.6-6.3,7.7-8.5,12.4
							c-2.2,4.7-3.4,9.7-4.3,14.5c-0.8,4.8-1.2,9.5-1.5,13.9c-0.3,4.5-0.7,8.7-1,12.6c-0.3,3.9-0.7,7.6-1,11
							c-0.6,6.7-1,12.1-1.3,15.9c-0.1,1.8-0.2,3.3-0.3,4.3c0,0.5,0,0.8-0.1,1.1C1023.6,580.9,1023.6,581,1023.6,581z"/>
					</g>
				</g>
			</g>
			<g>
				<g>
					<path class="st17" d="M1077.9,341.4c-1.4-4-6.2-6.6-10.3-5.5c-1,0.2-1.9,0.6-2.9,0.6c-1.2,0-2.3-0.7-3.5-0.9
						c-2.5-0.5-5.3,1.3-5.9,3.8c-2-0.4-4.3-0.1-5.9,1.2c-1.6,1.3-2.3,3.7-1.4,5.5c0.4,0.8,1.1,1.4,1.5,2.2c0.6,1.3,0.3,2.9,0.8,4.3
						c0.7,2.1,2.8,3.3,5,3.6s4.3-0.3,6.4-0.9"/>
				</g>
				<g>
					<g>
						<g>
							<g>
								<g>
									<g>
										<g>
											<g>
												<g>
													<g>
														<path class="st24" d="M1068,383.7c-0.3-2.1-0.4-3.5-0.4-3.5s-6.9,0-9.7-8.6c-1.4-4.2-2.3-11.4-2.9-17.3
															c-0.5-5.3,3.5-10,8.8-10.2l18.3-1l0.4,2.8l4.8,35.2c0.7,5.4-3,10.3-8.4,11l0,0C1073.6,392.8,1068.7,389,1068,383.7z"
															/>
													</g>
												</g>
											</g>
										</g>
										<g>
											<g>
												<g>
													<g>
														<g>
															<path class="st17" d="M1057.6,359.3c0.1,0.6,0.6,1,1.3,1c0.6-0.1,1.1-0.6,1-1.2c-0.1-0.6-0.6-1-1.3-1
																C1058,358.2,1057.5,358.7,1057.6,359.3z"/>
														</g>
													</g>
												</g>
											</g>
											<g>
												<g>
													<g>
														<g>
															<g>
																<path class="st17" d="M1057.1,357.7c0.2,0.1,0.9-0.6,2.1-0.8c1.2-0.2,2.2,0.3,2.3,0.1c0.1-0.1-0.1-0.3-0.6-0.5
																	c-0.4-0.2-1.1-0.4-1.9-0.3c-0.8,0.1-1.3,0.5-1.7,0.8C1057.2,357.4,1057.1,357.7,1057.1,357.7z"/>
															</g>
														</g>
													</g>
												</g>
											</g>
										</g>
										<g>
											<g>
												<g>
													<g>
														<g>
															<path class="st17" d="M1069.1,357.3c0.1,0.6,0.6,1,1.3,1c0.6-0.1,1.1-0.6,1-1.2c-0.1-0.6-0.6-1-1.3-1
																C1069.5,356.2,1069,356.7,1069.1,357.3z"/>
														</g>
													</g>
												</g>
											</g>
											<g>
												<g>
													<g>
														<g>
															<g>
																<path class="st17" d="M1069.1,356c0.2,0.1,0.9-0.6,2.1-0.8c1.2-0.2,2.2,0.3,2.3,0.1c0.1-0.1-0.1-0.3-0.6-0.5
																	c-0.4-0.2-1.1-0.4-1.9-0.3c-0.8,0.1-1.3,0.5-1.7,0.8C1069.1,355.7,1069,356,1069.1,356z"/>
															</g>
														</g>
													</g>
												</g>
											</g>
										</g>
										<g>
											<g>
												<g>
													<g>
														<g>
															<path class="st17" d="M1066.1,365.7c0-0.1-0.8-0.1-2,0c-0.3,0-0.6,0-0.7-0.2c-0.1-0.2,0-0.6,0.1-0.9
																c0.2-0.8,0.4-1.6,0.5-2.5c0.7-3.5,1.2-6.4,1.1-6.5c-0.1,0-0.9,2.8-1.6,6.4c-0.2,0.9-0.3,1.7-0.5,2.5
																c-0.1,0.4-0.2,0.8,0,1.2c0.1,0.2,0.4,0.3,0.6,0.4c0.2,0,0.4,0,0.5,0C1065.3,365.9,1066.1,365.8,1066.1,365.7z"/>
														</g>
													</g>
												</g>
											</g>
										</g>
										<g>
											<g>
												<g>
													<g>
														<path class="st25" d="M1067.5,380.1c0,0,6-0.6,11.2-5c0,0-1.9,6.5-10.8,7L1067.5,380.1z"/>
													</g>
												</g>
											</g>
										</g>
										<g>
											<g>
												<g>
													<g>
														<g>
															<path class="st17" d="M1069.8,366c-0.2,0,0,1.3-1,2.4c-1,1.1-2.4,1.2-2.4,1.4c0,0.1,0.4,0.2,0.9,0.1
																c0.6-0.1,1.4-0.4,2-1.1c0.6-0.7,0.8-1.5,0.7-2C1070.1,366.3,1069.9,366,1069.8,366z"/>
														</g>
													</g>
												</g>
											</g>
										</g>
									</g>
								</g>
							</g>
							<g>
								<g>
									<g>
										<g>
											<path class="st17" d="M1068,351.4c0.2,0.3,1.4,0,2.8-0.1c1.4-0.1,2.7,0.1,2.8-0.2c0.1-0.2-0.2-0.4-0.7-0.7
												c-0.5-0.2-1.3-0.4-2.2-0.4c-0.9,0-1.6,0.3-2.1,0.6C1068.1,350.9,1067.9,351.2,1068,351.4z"/>
										</g>
									</g>
								</g>
							</g>
							<g>
								<g>
									<g>
										<g>
											<path class="st17" d="M1057,354.1c0.3,0.2,1-0.2,2-0.3c1-0.2,1.9-0.1,2-0.4c0.1-0.2-0.1-0.4-0.5-0.6
												c-0.4-0.2-1.1-0.3-1.7-0.2c-0.7,0.1-1.2,0.5-1.5,0.8C1057,353.7,1056.9,354,1057,354.1z"/>
										</g>
									</g>
								</g>
							</g>
							<g>
								<g>
									<g>
										<g>
											<path class="st17" d="M1054.1,350.4c0,0,4.8,1.6,10.4-2.1c3.7-2.4,8.1-4,9.2-3.3c1.1,0.7,1.8,4.6,5.8,5.3
												c0,0,0.7,7.7,3.7,7c2.2-0.5,0.9-9,0-13.8c-0.4-1.9-2-3.4-4-3.4l-5.6-0.2l-7,2l-7.5,2.1l-5.7,2.4L1054.1,350.4z"/>
										</g>
									</g>
								</g>
							</g>
						</g>
						<g>
							<g>
								<g>
									<g>
										<g>
											<g>
												<path class="st24" d="M1082.6,354.3c0.1-0.1,4.8-2.5,5.7,2.6c0.9,5.1-4.4,4.9-4.5,4.8
													C1083.7,361.4,1082.6,354.3,1082.6,354.3z"/>
											</g>
										</g>
									</g>
								</g>
							</g>
							<g>
								<g>
									<g>
										<g>
											<g>
												<g>
													<path class="st25" d="M1085,359.4c0,0,0.1,0,0.3,0.1c0.2,0,0.4,0,0.7-0.1c0.5-0.3,0.8-1.2,0.7-2.1
														c-0.1-0.5-0.2-0.9-0.5-1.2c-0.2-0.3-0.5-0.6-0.8-0.6c-0.3,0-0.4,0.2-0.5,0.3c0,0.2,0,0.3,0,0.3c0,0-0.1-0.1-0.1-0.3
														c0-0.1,0-0.2,0.1-0.4c0.1-0.1,0.3-0.2,0.5-0.2c0.4,0,0.8,0.3,1.1,0.6c0.3,0.4,0.5,0.8,0.5,1.4c0.1,1-0.2,2.1-0.9,2.4
														c-0.3,0.2-0.7,0.1-0.8,0C1085,359.5,1085,359.4,1085,359.4z"/>
												</g>
											</g>
										</g>
									</g>
								</g>
							</g>
						</g>
					</g>
				</g>
				<g>
					<g>
						<path class="st14" d="M1056.5,337.5c0,0,0.2,0.3,0.5,0.7c0.4,0.4,1,0.9,1.9,1.2c0.9,0.3,2.1,0.4,3.4,0.1
							c1.3-0.2,2.6-0.8,4.1-1.3c1.5-0.5,3-0.9,4.4-0.8c1.4,0.1,2.6,0.7,3.3,1.5c0.7,0.8,1,1.6,1,2.2c0,0.6-0.1,0.9-0.2,0.9
							c-0.1,0,0-0.3-0.1-0.9c-0.1-0.5-0.4-1.3-1.1-2c-0.7-0.7-1.8-1.2-3.1-1.3c-1.3-0.1-2.7,0.3-4.2,0.8c-1.4,0.5-2.8,1.1-4.2,1.3
							c-1.4,0.3-2.7,0.1-3.6-0.3c-1-0.4-1.6-1-2-1.5C1056.6,337.8,1056.5,337.5,1056.5,337.5z"/>
					</g>
				</g>
				<g>
					<g>
						<path class="st14" d="M1073.8,342.4c0,0-0.3-0.3-0.8-0.6c-0.5-0.4-1.4-0.7-2.6-0.8c-1.2-0.1-2.5,0.3-3.9,1
							c-1.4,0.6-2.9,1.6-4.6,2.2c-3.6,1.2-7.1,0.2-9.1-1c-1-0.6-1.8-1.2-2.3-1.7c-0.5-0.5-0.7-0.8-0.6-0.8c0.1-0.1,1,1.1,3.1,2.2
							c2,1.1,5.4,1.9,8.8,0.8c1.7-0.5,3.1-1.5,4.6-2.1c1.4-0.7,2.9-1,4.1-0.9c1.2,0.1,2.2,0.5,2.7,1
							C1073.6,342,1073.8,342.3,1073.8,342.4z"/>
					</g>
				</g>
			</g>
			<g>
				<path class="st18" d="M1035.9,405"/>
			</g>
			<g>
				<g>
					<g>
						<g>
							<g>
								<path class="st24" d="M1057.9,429.3l-24.8-21.2l-8.2,1.9c0,0,8.6,17.9,14.9,24.5c0,0,6.2,8.3,16.3,4.7
									S1057.9,429.3,1057.9,429.3z"/>
							</g>
						</g>
					</g>
				</g>
				<g>
					<g>
						<g>
							<g>
								<path class="st14" d="M1031.2,384.8h-10.6c-1.6,0-3,1.9-2.4,3.4l10.6,20.7c0.4,0.8,1.2,1.3,2.1,1.3l12.9,0
									c1.5-0.2,2-1.8,1.4-2.7l-10.2-20.2C1034.3,385.7,1032.8,384.8,1031.2,384.8z"/>
							</g>
						</g>
					</g>
					<g>
						<g>
							<g>
								<path class="st17" d="M1030.5,386H1020c-1.3,0-2.2,1.4-1.6,2.6l10.4,20.2c0.4,0.8,1.2,1.3,2.1,1.3h12.7
									c0.8,0,1.3-0.8,0.9-1.5l-10.2-20.2C1033.6,386.9,1032.1,386,1030.5,386z"/>
							</g>
						</g>
					</g>
				</g>
				<g>
					<g>
						<g>
							<g>
								<path class="st24" d="M1029.6,394.5l-6.4,2.6l-1.4,5.2l3.1,7.7l11.4,1.7l-3.3-3.4l0.4-3c0,0,3.2-1,3.2-1.5
									c0.1-0.5-0.4-2.1-0.9-2.2c-0.5-0.1-3.8,1.2-3.8,1.2s3.9-3.1,3.8-3.6c-0.1-0.5-0.5-1.8-1.3-1.9c-0.8-0.1-7.1,2.8-7.1,2.8
									l-1,2.3l-0.9-3.8C1025.4,398.6,1031,397.1,1029.6,394.5z"/>
							</g>
						</g>
					</g>
					<g>
						<g>
							<g>
								<g>
									<path class="st25" d="M1030.4,406.6c0,0-0.2-0.2-0.2-0.6c-0.1-0.4,0-1,0.2-1.6c0.2-0.6,0.6-1.1,0.9-1.4
										c0.3-0.3,0.6-0.4,0.6-0.3c0.1,0.1-0.8,0.7-1.2,1.8C1030.3,405.6,1030.5,406.6,1030.4,406.6z"/>
								</g>
							</g>
						</g>
					</g>
					<g>
						<g>
							<g>
								<g>
									<path class="st25" d="M1027.4,405.5c0,0,0.2-0.6,0.3-1.7c0-0.5,0.1-1.2,0.3-1.9c0.1-0.3,0.3-0.7,0.6-1
										c0.3-0.3,0.7-0.5,1-0.7c1.5-0.6,2.9-1,3.9-1.3c1-0.3,1.6-0.5,1.7-0.5c0,0-0.6,0.3-1.6,0.7c-1,0.4-2.4,0.9-3.9,1.4
										c-0.4,0.1-0.7,0.3-0.9,0.6c-0.2,0.3-0.4,0.6-0.5,0.9c-0.2,0.6-0.3,1.3-0.4,1.8C1027.7,404.9,1027.4,405.5,1027.4,405.5z"/>
								</g>
							</g>
						</g>
					</g>
					<g>
						<g>
							<g>
								<g>
									<path class="st25" d="M1025.9,404.3c-0.1,0-0.1-0.6,0-1.3c0.1-0.7,0.3-1.2,0.4-1.2c0.1,0,0.1,0.6,0,1.3
										C1026.2,403.8,1026,404.4,1025.9,404.3z"/>
								</g>
							</g>
						</g>
					</g>
				</g>
				<g>
					<g>
						<g>
							<path class="st15" d="M1025.7,389.9c0,0.7,0.6,1.3,1.3,1.3c0.7,0,1.3-0.6,1.3-1.3c0-0.7-0.6-1.3-1.3-1.3
								C1026.3,388.6,1025.7,389.2,1025.7,389.9z"/>
						</g>
					</g>
				</g>
			</g>
		</g>
	</g>
	<g>
		<path class="st0" d="M756.1,160.4h-8.1v-2.9l18.3-48.4h8.7l18.3,48.4v2.9h-8.7l-4.6-12.7h-19.4L756.1,160.4z M770.5,120.7
			l-7.1,19.6h14.1L770.5,120.7z"/>
		<path class="st0" d="M808.6,160.4h-8.1v-31.1h-5.9v-7h5.9c0-4.3,1.2-7.7,3.5-10.1c2.3-2.4,5.9-3.6,10.7-3.6c0.5,0,1.4,0,2.7,0.1v7
			h-1.7c-2.5,0-4.4,0.5-5.5,1.5s-1.7,2.7-1.7,5h8.3v7h-8.3V160.4z"/>
		<path class="st0" d="M844.5,160.4h-3.9c-8.9,0-13.3-4.5-13.3-13.6v-17.5h-5.9v-7h5.9v-7.9h8.1v7.9h9.1v7h-9.1v17.5
			c0,4.4,1.7,6.5,5.2,6.5h3.9V160.4z"/>
		<path class="st0" d="M866.8,161.2c-5,0-9-1.2-11.9-3.7s-4.4-5.9-4.4-10.3v-11.7c0-4.3,1.5-7.7,4.4-10.3c3-2.6,7-3.9,11.9-3.9
			c4.8,0,8.7,1.2,11.5,3.7c2.8,2.5,4.2,5.9,4.2,10.3v8.6h-23.9v3.2c0,2.1,0.7,3.8,2.2,5c1.4,1.2,3.5,1.8,6.1,1.8
			c4.3,0,6.8-1.7,7.6-5.1h8.1c-0.4,3.9-2,6.9-4.7,9.1C875,160.1,871.4,161.2,866.8,161.2z M858.6,135.3v2.4h15.9v-2.4
			c0-2.1-0.7-3.7-2.1-4.9c-1.4-1.2-3.3-1.8-5.8-1.8s-4.4,0.6-5.8,1.8C859.3,131.7,858.6,133.3,858.6,135.3z"/>
		<path class="st0" d="M898.5,160.4h-8.1v-38.2h4l3.1,4.3c3-3.4,6.5-5.1,10.5-5.1h1.5v7.7h-1.1c-4.3,0-7.6,1.4-9.9,4.1V160.4z"/>
		<path class="st0" d="M924.2,160.4h-8.1v-38.2h4.7l3,4.3c2.9-3.4,6.6-5.1,10.9-5.1c4.9,0,8.4,2,10.3,5.9c3.1-4,7.2-5.9,12.2-5.9
			c3.9,0,6.9,1.2,9,3.6c2.1,2.4,3.2,5.7,3.2,10v25.5h-8.1v-24.6c0-2.3-0.6-4.1-1.7-5.3c-1.1-1.2-2.6-1.8-4.4-1.8
			c-3.1,0-5.9,1.6-8.4,4.9v26.8h-8.1v-24.6c0-2.3-0.6-4.1-1.7-5.3c-1.1-1.2-2.6-1.8-4.4-1.8c-3.1,0-5.9,1.6-8.4,4.9V160.4z"/>
		<path class="st0" d="M989.1,161.2c-3.8,0-6.8-1-9.2-3c-2.4-2-3.6-4.7-3.6-8.2c0-4,1.3-7.1,4-9.1c2.6-2.1,6.6-3.1,11.8-3.1h8.4v-3
			c0-4.1-2.4-6.1-7.2-6.1c-2.3,0-4.1,0.5-5.3,1.5c-1.2,1-1.9,2.3-1.9,4h-7.9c0-4,1.3-7.1,3.9-9.4c2.6-2.3,6.3-3.4,11.2-3.4
			c4.9,0,8.7,1.1,11.3,3.4c2.6,2.3,4,5.5,4,9.5v26.1h-4.7l-3.1-4.3C998,159.5,994.1,161.2,989.1,161.2z M990.8,153.9
			c3.8,0,7-1.4,9.8-4.3v-5.7h-8.4c-5.1,0-7.7,1.7-7.7,5.2C984.4,152.3,986.6,153.9,990.8,153.9z"/>
		<path class="st0" d="M1025.5,160.4h-8.1v-38.2h4l3.1,4.3c3-3.4,6.5-5.1,10.5-5.1h1.5v7.7h-1.1c-4.3,0-7.6,1.4-9.9,4.1V160.4z"/>
		<path class="st0" d="M1051.3,160.4h-8.1v-51.7h8.1v28.7h5.1l10.1-15.1h6.7v3.8l-9.5,14.4l10.6,16.1v3.8h-7.3l-10.6-16h-5V160.4z"
			/>
		<path class="st0" d="M1095.5,161.2c-5,0-9-1.2-11.9-3.7s-4.4-5.9-4.4-10.3v-11.7c0-4.3,1.5-7.7,4.4-10.3c3-2.6,7-3.9,11.9-3.9
			c4.8,0,8.7,1.2,11.5,3.7c2.8,2.5,4.2,5.9,4.2,10.3v8.6h-23.9v3.2c0,2.1,0.7,3.8,2.2,5c1.4,1.2,3.5,1.8,6.1,1.8
			c4.3,0,6.8-1.7,7.6-5.1h8.1c-0.4,3.9-2,6.9-4.7,9.1C1103.7,160.1,1100,161.2,1095.5,161.2z M1087.2,135.3v2.4h15.9v-2.4
			c0-2.1-0.7-3.7-2.1-4.9c-1.4-1.2-3.3-1.8-5.8-1.8s-4.4,0.6-5.8,1.8C1087.9,131.7,1087.2,133.3,1087.2,135.3z"/>
		<path class="st0" d="M1139.3,160.4h-3.9c-8.9,0-13.3-4.5-13.3-13.6v-17.5h-5.9v-7h5.9v-7.9h8.1v7.9h9.1v7h-9.1v17.5
			c0,4.4,1.7,6.5,5.2,6.5h3.9V160.4z"/>
		<path class="st0" d="M1174.2,172.1h-8.1v-49.9h4.7l3,4.3c2.8-3.4,6.6-5.1,11.4-5.1c3.9,0,7.1,1.2,9.6,3.6
			c2.6,2.4,3.9,5.9,3.9,10.4v11.9c0,4.5-1.3,8-3.8,10.4c-2.5,2.4-5.9,3.6-10,3.6c-4.6,0-8.2-1.5-10.7-4.6V172.1z M1183.5,153.9
			c2.1,0,3.8-0.7,5.1-2c1.4-1.3,2.1-3.1,2.1-5.2v-10.7c0-2.2-0.7-3.9-2-5.2c-1.3-1.3-3-2-5.1-2c-3.1,0-6.2,1.6-9.3,4.9V149
			C1177.3,152.3,1180.4,153.9,1183.5,153.9z"/>
		<path class="st0" d="M1218.2,161.2c-3.8,0-6.8-1-9.2-3c-2.4-2-3.6-4.7-3.6-8.2c0-4,1.3-7.1,4-9.1c2.6-2.1,6.6-3.1,11.8-3.1h8.4v-3
			c0-4.1-2.4-6.1-7.2-6.1c-2.3,0-4.1,0.5-5.3,1.5c-1.2,1-1.9,2.3-1.9,4h-7.9c0-4,1.3-7.1,3.9-9.4c2.6-2.3,6.3-3.4,11.2-3.4
			c4.9,0,8.7,1.1,11.3,3.4c2.6,2.3,4,5.5,4,9.5v26.1h-4.7l-3.1-4.3C1227,159.5,1223.1,161.2,1218.2,161.2z M1219.8,153.9
			c3.8,0,7-1.4,9.8-4.3v-5.7h-8.4c-5.1,0-7.7,1.7-7.7,5.2C1213.5,152.3,1215.6,153.9,1219.8,153.9z"/>
		<path class="st0" d="M1254.6,160.4h-8.1v-38.2h4l3.1,4.3c3-3.4,6.5-5.1,10.5-5.1h1.5v7.7h-1.1c-4.3,0-7.6,1.4-9.9,4.1V160.4z"/>
		<path class="st0" d="M1293.3,160.4h-3.9c-8.9,0-13.3-4.5-13.3-13.6v-17.5h-5.9v-7h5.9v-7.9h8.1v7.9h9.1v7h-9.1v17.5
			c0,4.4,1.7,6.5,5.2,6.5h3.9V160.4z"/>
		<path class="st0" d="M1315.8,161.2c-5.2,0-9.3-1.2-12.3-3.7c-3-2.5-4.5-5.9-4.5-10.3h8.1c0,2.1,0.8,3.7,2.5,4.9
			c1.7,1.2,4,1.8,6.8,1.8c2.2,0,3.9-0.4,5.1-1.1c1.3-0.8,1.9-1.8,1.9-3c0-1.9-1.4-3.2-4.2-4l-9.9-2.6c-3-0.8-5.3-2-6.8-3.5
			c-1.6-1.6-2.3-3.8-2.3-6.6c0-3.6,1.4-6.4,4.1-8.5c2.7-2.1,6.4-3.2,11-3.2c4.8,0,8.6,1.2,11.4,3.6c2.8,2.4,4.2,5.7,4.2,10.1h-8.1
			c0-2-0.7-3.6-2.2-4.7c-1.4-1.1-3.4-1.7-5.8-1.7c-2.2,0-3.8,0.4-4.9,1.1c-1.1,0.7-1.7,1.7-1.7,2.9c0,1.7,1.4,2.9,4.2,3.7l9.8,2.4
			c6.2,1.6,9.2,5,9.2,10.3c0,3.6-1.4,6.5-4.3,8.8C1324.4,160.1,1320.5,161.2,1315.8,161.2z"/>
		<path class="st0" d="M769.7,245.9c-5.7,0-10.4-1.5-14.3-4.5c-3.8-3.1-5.7-7.5-5.7-13.2h8.8c0,2.3,0.6,4.3,1.9,5.9
			c2.2,2.5,5.5,3.8,9.8,3.8c3,0,5.4-0.6,7.1-1.8c1.7-1.2,2.5-2.8,2.5-4.8c0-1.9-0.8-3.3-2.4-4.2c-1.6-1-4.6-2.3-8.8-4l-0.7-0.2
			l-1.2-0.4c-5.6-2.2-9.6-4.2-12-6.2c-2.4-2.1-3.6-5-3.6-8.9c0-4.6,1.6-8.2,4.9-10.9c3.3-2.7,7.9-4.1,13.6-4.1c6,0,10.6,1.5,14,4.4
			c3.4,2.9,5.1,7.2,5.1,13h-8.8c0-3.1-0.9-5.4-2.8-6.9c-1.9-1.5-4.4-2.3-7.5-2.3c-2.9,0-5.2,0.6-6.9,1.8c-1.7,1.2-2.6,2.7-2.6,4.5
			c0,2.1,0.8,3.5,2.3,4.5c1.6,0.9,4.5,2.2,8.8,3.7l1,0.4c2.6,0.9,4.8,1.7,6.6,2.6c1.7,0.7,3.4,1.7,5.2,2.9c3.5,2.3,5.2,5.7,5.2,10
			c0,4.6-1.7,8.3-5.1,11C780.7,244.5,775.9,245.9,769.7,245.9z"/>
		<path class="st0" d="M812.8,245.6c-5,0-9-1.2-11.9-3.7s-4.4-5.9-4.4-10.3v-11.7c0-4.3,1.5-7.7,4.4-10.3c3-2.6,7-3.9,11.9-3.9
			c4.8,0,8.7,1.2,11.5,3.7c2.8,2.5,4.2,5.9,4.2,10.3v8.6h-23.9v3.2c0,2.1,0.7,3.8,2.2,5c1.4,1.2,3.5,1.8,6.1,1.8
			c4.3,0,6.8-1.7,7.6-5.1h8.1c-0.4,3.9-2,6.9-4.7,9.1C821,244.5,817.3,245.6,812.8,245.6z M804.6,219.7v2.4h15.9v-2.4
			c0-2.1-0.7-3.7-2.1-4.9c-1.4-1.2-3.3-1.8-5.8-1.8s-4.4,0.6-5.8,1.8C805.3,216.1,804.6,217.7,804.6,219.7z"/>
		<path class="st0" d="M844.5,244.8h-8.1V193h8.1V244.8z"/>
		<path class="st0" d="M861.6,244.8h-8.1V193h8.1V244.8z"/>
		<path class="st0" d="M878.8,201.1h-8.1V193h8.1V201.1z M878.8,244.8h-8.1v-38.2h8.1V244.8z"/>
		<path class="st0" d="M896,244.8h-8.1v-38.2h4.7l3,4.3c2.8-3.4,6.6-5.1,11.3-5.1c4,0,7.2,1.3,9.6,3.9c2.4,2.6,3.6,6.1,3.6,10.6
			v24.6H912v-23.9c0-2.5-0.6-4.5-1.9-5.8c-1.3-1.3-3-2-5.1-2c-3.4,0-6.4,1.6-9.1,4.9V244.8z"/>
		<path class="st0" d="M944.7,257.4c-4.8,0-8.7-1.1-11.6-3.4c-2.9-2.3-4.3-5.3-4.3-9.2h8.1c0,1.5,0.7,2.7,2.1,3.7
			c1.4,1,3.3,1.5,5.7,1.5c5.1,0,7.7-2.4,7.7-7.2v-5.7c-2.5,3.1-6.1,4.6-10.7,4.6c-4.2,0-7.5-1.2-10-3.6c-2.5-2.4-3.8-5.9-3.8-10.4
			v-8c0-4.5,1.3-8,3.8-10.4c2.5-2.4,5.8-3.6,9.7-3.6c4.7,0,8.5,1.7,11.4,5.1l3-4.3h4.7v36c0,4.8-1.4,8.5-4.2,11
			C953.5,256.1,949.6,257.4,944.7,257.4z M943.4,234.4c3.2,0,6.2-1.6,9-4.8v-11.8c-2.8-3.2-5.8-4.8-9-4.8c-2.3,0-4.1,0.6-5.4,1.9
			c-1.4,1.3-2.1,3-2.1,5.2v7.1c0,2.2,0.7,3.9,2.1,5.2C939.4,233.8,941.2,234.4,943.4,234.4z"/>
		<path class="st0" d="M988.1,231.5v-11.6c0-4.3,1.4-7.7,4.3-10.3c2.9-2.6,6.9-3.9,12-3.9c5.1,0,9.1,1.3,12,3.9
			c2.9,2.6,4.3,6,4.3,10.3v11.6c0,4.3-1.4,7.7-4.3,10.3c-2.9,2.6-6.9,3.9-12,3.9c-5.1,0-9.1-1.3-12-3.9
			C989.6,239.2,988.1,235.7,988.1,231.5z M1012.6,231.1v-10.9c0-2.2-0.7-3.9-2.2-5.2c-1.4-1.3-3.5-2-6.1-2c-2.6,0-4.6,0.7-6.1,2
			c-1.4,1.3-2.2,3.1-2.2,5.2v10.9c0,2.2,0.7,3.9,2.2,5.2c1.4,1.3,3.5,2,6.1,2c2.6,0,4.6-0.7,6.1-2
			C1011.9,235,1012.6,233.3,1012.6,231.1z"/>
		<path class="st0" d="M1036.7,244.8h-8.1v-38.2h4.7l3,4.3c2.8-3.4,6.6-5.1,11.3-5.1c4,0,7.2,1.3,9.6,3.9c2.4,2.6,3.6,6.1,3.6,10.6
			v24.6h-8.1v-23.9c0-2.5-0.6-4.5-1.9-5.8c-1.3-1.3-3-2-5.1-2c-3.4,0-6.4,1.6-9.1,4.9V244.8z"/>
		<path class="st0" d="M1077.8,244.8h-8.1V193h8.1V244.8z"/>
		<path class="st0" d="M1095,201.1h-8.1V193h8.1V201.1z M1095,244.8h-8.1v-38.2h8.1V244.8z"/>
		<path class="st0" d="M1112.2,244.8h-8.1v-38.2h4.7l3,4.3c2.8-3.4,6.6-5.1,11.3-5.1c4,0,7.2,1.3,9.6,3.9c2.4,2.6,3.6,6.1,3.6,10.6
			v24.6h-8.1v-23.9c0-2.5-0.6-4.5-1.9-5.8c-1.3-1.3-3-2-5.1-2c-3.4,0-6.4,1.6-9.1,4.9V244.8z"/>
		<path class="st0" d="M1160.3,245.6c-5,0-9-1.2-11.9-3.7s-4.4-5.9-4.4-10.3v-11.7c0-4.3,1.5-7.7,4.4-10.3c3-2.6,7-3.9,11.9-3.9
			c4.8,0,8.7,1.2,11.5,3.7c2.8,2.5,4.2,5.9,4.2,10.3v8.6h-23.9v3.2c0,2.1,0.7,3.8,2.2,5c1.4,1.2,3.5,1.8,6.1,1.8
			c4.3,0,6.8-1.7,7.6-5.1h8.1c-0.4,3.9-2,6.9-4.7,9.1C1168.5,244.5,1164.9,245.6,1160.3,245.6z M1152.1,219.7v2.4h15.9v-2.4
			c0-2.1-0.7-3.7-2.1-4.9c-1.4-1.2-3.3-1.8-5.8-1.8s-4.4,0.6-5.8,1.8C1152.8,216.1,1152.1,217.7,1152.1,219.7z"/>
		<path class="st18" d="M757.6,329.6c-2.8,0-5.1-0.7-6.7-2c-1.6-1.3-2.4-3.2-2.4-5.6h4.4c0,1.1,0.5,2,1.4,2.7s2.2,1,3.7,1
			c1.2,0,2.1-0.2,2.8-0.6c0.7-0.4,1-1,1-1.7c0-1-0.8-1.8-2.3-2.2l-5.4-1.4c-1.6-0.4-2.9-1.1-3.7-1.9c-0.9-0.9-1.3-2.1-1.3-3.6
			c0-1.9,0.7-3.5,2.2-4.7c1.5-1.2,3.5-1.7,6-1.7c2.6,0,4.7,0.6,6.2,1.9c1.5,1.3,2.3,3.1,2.3,5.5h-4.4c0-1.1-0.4-1.9-1.2-2.5
			c-0.8-0.6-1.8-0.9-3.2-0.9c-1.2,0-2.1,0.2-2.7,0.6c-0.6,0.4-0.9,0.9-0.9,1.6c0,0.9,0.8,1.6,2.3,2l5.4,1.3c3.4,0.9,5,2.7,5,5.6
			c0,1.9-0.8,3.5-2.4,4.8C762.3,329,760.2,329.6,757.6,329.6z"/>
		<path class="st18" d="M775.2,305.4h-4.4V301h4.4V305.4z M775.2,329.2h-4.4v-20.8h4.4V329.2z"/>
		<path class="st18" d="M785.1,329.2h-4.4v-20.8h2.6l1.6,2.3c1.5-1.9,3.6-2.8,6.2-2.8c2.2,0,3.9,0.7,5.2,2.1c1.3,1.4,2,3.3,2,5.8
			v13.4h-4.4v-13c0-1.4-0.3-2.4-1-3.2c-0.7-0.7-1.6-1.1-2.8-1.1c-1.8,0-3.5,0.9-5,2.7V329.2z"/>
		<path class="st18" d="M811.6,329.6c-2.7,0-4.8-0.7-6.3-2.1c-1.6-1.4-2.3-3.3-2.3-5.6v-6.3c0-2.4,0.8-4.3,2.3-5.6
			c1.6-1.4,3.7-2.1,6.3-2.1c2.6,0,4.7,0.7,6.2,2c1.5,1.4,2.3,3.2,2.3,5.6v0.2h-4.4v-0.2c0-1.1-0.4-2-1.1-2.7s-1.7-1-3-1
			c-1.4,0-2.4,0.3-3.2,1c-0.7,0.6-1.1,1.5-1.1,2.7v6.5c0,1.1,0.4,2,1.1,2.7c0.7,0.6,1.8,1,3.2,1c1.3,0,2.3-0.3,3-1s1.1-1.5,1.1-2.7
			v-0.4h4.4v0.3c0,2.3-0.8,4.2-2.4,5.6C816.1,328.9,814.1,329.6,811.6,329.6z"/>
		<path class="st18" d="M833,329.6c-2.7,0-4.9-0.7-6.5-2c-1.6-1.4-2.4-3.2-2.4-5.6v-6.4c0-2.3,0.8-4.2,2.4-5.6
			c1.7-1.4,3.8-2.1,6.5-2.1c2.6,0,4.7,0.7,6.3,2c1.5,1.4,2.3,3.2,2.3,5.6v4.7h-13v1.7c0,1.1,0.4,2.1,1.2,2.7c0.8,0.7,1.9,1,3.3,1
			c2.3,0,3.7-0.9,4.1-2.8h4.4c-0.2,2.1-1.1,3.8-2.6,5C837.5,329,835.5,329.6,833,329.6z M828.5,315.5v1.3h8.6v-1.3
			c0-1.1-0.4-2-1.1-2.7s-1.8-1-3.2-1s-2.4,0.3-3.2,1S828.5,314.4,828.5,315.5z"/>
		<path class="st18" d="M873.4,329.2h-18v-3.6l8.4-8.6c1.9-2,3.3-3.5,4-4.4c0.7-1,1-2.1,1-3.4c0-1.4-0.4-2.5-1.2-3.4
			c-0.8-0.9-1.9-1.3-3.3-1.3c-1.5,0-2.7,0.5-3.5,1.5s-1.2,2.3-1.2,4h-4.2c0.1-3,0.9-5.3,2.5-7c1.6-1.7,3.8-2.5,6.4-2.5
			c2.8,0,5,0.8,6.5,2.4c1.6,1.7,2.4,3.7,2.4,6c0,1.9-0.5,3.7-1.4,5.1c-0.9,1.4-2.4,3.1-4.6,5.3l-5.8,5.7h12V329.2z"/>
		<path class="st18" d="M878.3,320.1v-9.8c0-3,0.8-5.4,2.5-7.1c1.7-1.7,4-2.6,6.9-2.6c2.9,0,5.2,0.9,6.9,2.6
			c1.7,1.7,2.5,4.1,2.5,7.1v9.8c0,3-0.8,5.4-2.5,7.1c-1.7,1.7-4,2.6-6.9,2.6c-2.9,0-5.2-0.9-6.9-2.6
			C879.2,325.5,878.3,323.1,878.3,320.1z M892.7,320.3V310c0-1.6-0.4-2.9-1.3-3.9c-0.9-1-2.1-1.5-3.7-1.5c-1.6,0-2.8,0.5-3.7,1.5
			c-0.9,1-1.3,2.3-1.3,3.9v10.3c0,1.6,0.4,2.9,1.3,3.9c0.9,1,2.1,1.5,3.7,1.5c1.6,0,2.8-0.5,3.7-1.5
			C892.3,323.3,892.7,321.9,892.7,320.3z"/>
		<path class="st18" d="M908.9,329.2h-4.4v-22h-2.9v-2.3l5.6-3.6h1.8V329.2z"/>
		<path class="st18" d="M923.7,329.8c-2.7,0-4.8-0.7-6.5-2.2c-1.7-1.5-2.7-3.5-3-6.1h4.3c0.2,1.3,0.7,2.3,1.7,3.1
			c0.9,0.8,2.1,1.2,3.6,1.2c1.6,0,2.9-0.5,3.7-1.6c0.8-1.1,1.3-2.5,1.3-4.5c0-1.8-0.4-3.2-1.3-4.2c-0.9-1-2.1-1.6-3.5-1.6
			c-1.9,0-3.3,0.8-4.4,2.3h-4.4l1.4-15.1h15.1v4h-11.5l-0.6,6.7c1.6-1,3.3-1.5,5.2-1.5c2.5,0,4.5,0.8,6,2.3c1.6,1.5,2.4,3.9,2.4,7
			c0,3.2-0.8,5.6-2.5,7.4C929,328.9,926.7,329.8,923.7,329.8z"/>
	</g>
</g>
</svg>
