<?xml version="1.0" encoding="utf-8"?>
<!-- Generator: Adobe Illustrator 23.0.3, SVG Export Plug-In . SVG Version: 6.00 Build 0)  -->
<svg version="1.1" id="Layer_1" xmlns="http://www.w3.org/2000/svg" xmlns:xlink="http://www.w3.org/1999/xlink" x="0px" y="0px"
	 viewBox="0 0 2580.3 1302.7" style="enable-background:new 0 0 2580.3 1302.7;" xml:space="preserve">
<style type="text/css">
	.st0{opacity:0.6;fill:#FED9D5;}
	.st1{fill:#BEC2CA;}
	.st2{fill:#FED9D5;}
	.st3{fill:#FAA5AB;}
	.st4{fill:#FFFFFF;}
	.st5{opacity:0.67;fill:#FAA5AB;}
	.st6{fill:#1B2830;}
	.st7{fill:#FF8967;}
	.st8{fill:#FF9284;}
	.st9{fill:#50B5D0;}
	.st10{opacity:0.22;fill:#96E5DA;}
	.st11{fill:#929AAE;}
	.st12{fill:#FF616A;}
</style>
<path class="st0" d="M2106.3,855.6c-3.4,13.1-4.1,27.5-3.1,41.6c1.9,27.9,11.4,54.1,22.8,73.9c23.3,40.6,55.4,63.3,88,72.6
	c16.5,4.7,33.2,5.8,49.8,4.1c19.8-2,39.5-7.1,59.4-5.9c37.1,2.2,70.3,35,106.7,44.6c29.5,7.7,61.1,0.9,87.9-21.8
	c28.5-24,49.4-66.8,57.8-118.6c9.1-56.5,4.4-116.3-8.3-170.1c-9.2-38.9-22.3-74.6-36.9-108.4c-2.7-7.3-5.5-14.6-8.1-21.9
	c-4.4-12.1-8.5-24.5-11.8-37.6c-1.6-6.2-2.7-11.4-3.8-18.4c-0.5-3.5-1-7-1.4-10.5c-0.2-1.5-0.3-2.9-0.4-4.4c0-0.4-0.3-3.7-0.3-3.5
	c-0.8-14.3,0.5-26.9,2.7-40.1c2.3-13.6,5.6-26.7,8.6-39.9c6.2-27,11.4-55.2,8.1-84.4c-3.2-27.7-13.1-53-25.6-71.2
	c-13.9-20.2-30.7-33.4-48.1-42.9c-32-17.6-66-24.5-99.5-21.7c-34,2.8-67.7,14.6-99.7,33.9c-32.2,19.4-62.8,45.5-91.1,77.8
	c-27,30.7-54.9,70.8-60.9,127.8c-6.4,61,17.2,112.5,31.9,164.4c7.2,25.4,12.9,53.4,11.5,81.2c-0.1,1.9-0.2,3.8-0.4,5.7
	c-0.1,0.8-0.1,1.7-0.2,2.5c0,0.2-0.1,0.5-0.1,0.8c-0.4,3.1-0.9,6.2-1.5,9.2c-1.3,6.7-2.7,11.5-5,17.4c-4.3,10.9-9.2,18.9-14.6,29
	C2114.9,831.4,2109.7,842.4,2106.3,855.6z"/>
<path class="st0" d="M2522.3,568.8c-0.2,21.5,7.1,44.3,20.6,57c6.7,6.3,15.3,9.1,23.2,5.2c7.9-3.9,12-14.1,11.5-24.9
	c-0.3-6.2-1.3-14.9-10.6-31.4c-0.3-0.6-0.6-1.2-0.9-1.8c-3-7.5-5-15.6-5.9-24c-0.6-5.5-0.9-11.3-3.4-16.1c-2-3.9-5.2-6.3-8.7-7.2
	c-8-2-15.2,3.6-19.4,12.3C2524.1,546.9,2522.3,558.3,2522.3,568.8z"/>
<path class="st0" d="M480,553.6c4-14.2,5.3-29.9,5-45.4c-0.7-30.7-9.2-60.2-19.9-82.8c-21.9-46.3-53.5-73.6-86.2-86.4
	c-16.5-6.4-33.4-8.9-50.4-8.3c-20.2,0.7-40.4,4.7-60.5,1.9c-37.5-5.2-69.8-43.8-106.4-57c-29.6-10.7-61.9-5.6-90.1,17.2
	c-29.9,24.2-53,69.5-63.7,125.7c-11.7,61.3-9.5,127.2,1.1,187.3c7.6,43.4,19.4,83.5,32.7,121.8c2.5,8.2,4.9,16.4,7.3,24.7
	c3.9,13.6,7.6,27.5,10.4,42.1c1.3,6.9,2.2,12.7,3,20.4c0.4,3.8,0.7,7.7,1,11.6c0.1,1.6,0.2,3.2,0.2,4.8c0,0.4,0.1,4.1,0.1,3.9
	c0.1,15.8-1.6,29.5-4.5,43.8c-3,14.8-6.8,28.9-10.5,43.2c-7.5,29.1-13.9,59.7-11.8,92c2,30.7,11,59.1,23,80.1
	c13.3,23.2,29.8,39,47,50.8c31.7,21.8,65.9,31.9,100,31.4c34.7-0.4,69.3-10.9,102.6-29.6c33.5-18.8,65.7-45.1,95.8-78.3
	c28.7-31.7,58.8-73.5,67.3-135.5c9.1-66.5-12.6-124.8-25.3-182.8c-6.2-28.4-10.7-59.6-8.2-90c0.2-2.1,0.4-4.2,0.6-6.2
	c0.1-0.9,0.2-1.8,0.3-2.7c0-0.2,0.1-0.5,0.1-0.9c0.6-3.4,1.2-6.7,1.9-10c1.6-7.2,3.3-12.4,5.8-18.7c4.8-11.7,10.2-20.1,16.1-30.7
	C470.2,579.5,476,567.9,480,553.6z"/>
<path class="st0" d="M51.2,843.7c1.1-23.5-3.7-49-13.8-63.8c-5-7.3-11.7-10.9-18.1-7.1c-6.4,3.8-10.1,14.8-10.2,26.7
	c0,6.8,0.4,16.4,7.1,35.1c0.2,0.6,0.4,1.3,0.7,2c2,8.4,3.3,17.4,3.6,26.6c0.2,6.1,0.2,12.5,2,17.9c1.4,4.4,3.9,7.2,6.6,8.4
	c6.2,2.6,12.2-3.1,15.9-12.3C48.9,867.6,50.7,855.2,51.2,843.7z"/>
<g>
	<g>
		<g>
			<path class="st1" d="M1562.1,1302.7l-546.1-0.1c-43.3,0-78.5-36.2-78.5-80.9l0.2-1140.8c0-44.7,35.1-80.9,78.5-80.9l546.1,0.1
				c43.3,0,78.5,36.2,78.5,80.9l-0.2,1140.8C1640.6,1266.5,1605.5,1302.8,1562.1,1302.7z"/>
			<path class="st2" d="M1612.4,114.8l-0.2,1033.6c0,40.9-32.2,74-71.8,74l-225.2,0l-84.7,0l-130.2,0l-21.6,0l-2.6,0l-9.1,0l-8.1,0
				l-6.7,0l-15.5,0c-27.2,0-51-15.7-63.1-38.7c0,0,0,0,0-0.1c-2.4-4.5-4.3-9.2-5.7-14.2c-1.9-6.7-2.9-13.7-2.9-21l0-59.1l0-6.7
				l0-47.7l0.1-920.1c0-40.9,32.1-74,71.8-74l503.6,0.1C1580.3,40.8,1612.4,74,1612.4,114.8z"/>
			<g>
				<path class="st1" d="M1381,41l0,21.9c0,18.1-14.3,32.8-31.9,32.8l-119.7,0c-17.6,0-31.9-14.7-31.9-32.8l0-21.9
					c0-8.8,3.4-16.8,8.9-22.7l165.6,0C1377.6,24.2,1381,32.2,1381,41z"/>
				<path class="st2" d="M1304.4,47.1l-74.5,0c-13.5,0-13.5,21.7,0,21.7l74.5,0C1317.9,68.8,1317.9,47.1,1304.4,47.1z"/>
				<path class="st2" d="M1360.5,49.3c-2.1-1.9-4.6-3.2-7.4-3.2l-1,0c-2.7,0-5.5,1.2-7.4,3.2c-1.8,1.9-3.2,5-3.1,7.7
					c0.1,2.8,1,5.7,3.1,7.7c2.1,1.9,4.6,3.2,7.4,3.2l1,0c2.7,0,5.5-1.2,7.4-3.2c1.8-1.9,3.2-5,3.1-7.7
					C1363.5,54.2,1362.6,51.3,1360.5,49.3z"/>
			</g>
		</g>
		<g>
			<path class="st3" d="M1420,1092.4l-275.4,0c-19.8,0-35.8-13.3-35.8-29.7l0-66.6c0-16.4,16-29.7,35.8-29.7l275.4,0
				c19.8,0,35.8,13.3,35.8,29.7l0,66.6C1455.8,1079.1,1439.8,1092.4,1420,1092.4z"/>
			<g>
				<path class="st4" d="M1173.3,1047.8c-5.3,0-9.4-1.3-12.3-4c-2.9-2.7-4.3-6.5-4.3-11.4v-13.8c0-4.9,1.4-8.7,4.3-11.4
					c2.9-2.7,7-4,12.3-4c4.5,0,8.3,1.2,11.2,3.7c3,2.5,4.5,6.2,4.5,11.1v0.6h-7.3v-0.6c0-2.6-0.9-4.6-2.6-6
					c-1.8-1.4-3.7-2.1-5.9-2.1c-3.1,0-5.4,0.7-6.9,2.1c-1.5,1.4-2.3,3.4-2.3,6.1v14.8c0,2.6,0.8,4.7,2.3,6.1
					c1.5,1.4,3.8,2.1,6.9,2.1c2.2,0,4.1-0.7,5.9-2c1.8-1.4,2.6-3.4,2.6-6v-0.6h7.3v0.6c0,4.8-1.5,8.5-4.5,11.1
					C1181.5,1046.5,1177.8,1047.8,1173.3,1047.8z"/>
				<path class="st4" d="M1202.7,1046.9h-6.7v-43.1h6.7v14.4c2.3-2.6,5.4-3.8,9.1-3.8c3.2,0,5.8,1.1,7.9,3.2
					c2.1,2.2,3.1,5.1,3.1,8.8v20.5h-6.7V1027c0-2.1-0.5-3.7-1.6-4.9c-1.1-1.1-2.5-1.7-4.2-1.7c-2.8,0-5.3,1.4-7.6,4.1V1046.9z"/>
				<path class="st4" d="M1243,1047.6c-4.2,0-7.5-1-9.9-3.1c-2.4-2.1-3.7-4.9-3.7-8.6v-9.8c0-3.6,1.2-6.4,3.7-8.6
					c2.5-2.2,5.8-3.2,9.9-3.2c4,0,7.2,1,9.6,3.1c2.3,2.1,3.5,4.9,3.5,8.6v7.1h-19.9v2.6c0,1.8,0.6,3.1,1.8,4.2c1.2,1,2.9,1.5,5,1.5
					c3.6,0,5.7-1.4,6.3-4.2h6.7c-0.3,3.2-1.6,5.7-3.9,7.6C1249.8,1046.7,1246.8,1047.6,1243,1047.6z M1236.2,1026v2h13.2v-2
					c0-1.7-0.6-3.1-1.7-4.1c-1.2-1-2.8-1.5-4.9-1.5s-3.7,0.5-4.9,1.5C1236.7,1023,1236.2,1024.3,1236.2,1026z"/>
				<path class="st4" d="M1275.2,1047.6c-4.1,0-7.3-1.1-9.7-3.2c-2.4-2.1-3.6-5-3.6-8.6v-9.7c0-3.6,1.2-6.5,3.6-8.6s5.6-3.2,9.7-3.2
					c4,0,7.1,1,9.5,3.1c2.3,2.1,3.5,4.9,3.5,8.6v0.4h-6.7v-0.4c0-1.7-0.6-3.1-1.6-4.1c-1.1-1-2.6-1.5-4.6-1.5
					c-2.1,0-3.7,0.5-4.9,1.5c-1.1,1-1.7,2.3-1.7,4.1v9.9c0,1.8,0.6,3.1,1.7,4.1c1.1,1,2.7,1.5,4.9,1.5c2,0,3.5-0.5,4.6-1.5
					c1.1-1,1.6-2.4,1.6-4.1v-0.5h6.7v0.4c0,3.6-1.2,6.5-3.6,8.6C1282.2,1046.5,1279.1,1047.6,1275.2,1047.6z"/>
				<path class="st4" d="M1301.3,1046.9h-6.7v-43.1h6.7v23.9h4.2l8.4-12.6h5.6v3.2l-7.9,12l8.9,13.4v3.2h-6l-8.9-13.3h-4.2V1046.9z"
					/>
				<path class="st4" d="M1324.7,1035.8v-9.7c0-3.5,1.2-6.4,3.6-8.6c2.4-2.2,5.7-3.2,10-3.2c4.3,0,7.6,1.1,10,3.2
					c2.4,2.2,3.6,5,3.6,8.6v9.7c0,3.5-1.2,6.4-3.6,8.6c-2.4,2.2-5.7,3.2-10,3.2c-4.3,0-7.6-1.1-10-3.2
					C1325.9,1042.2,1324.7,1039.4,1324.7,1035.8z M1345.1,1035.5v-9c0-1.8-0.6-3.2-1.8-4.3s-2.9-1.6-5-1.6c-2.2,0-3.8,0.5-5,1.6
					c-1.2,1.1-1.8,2.5-1.8,4.3v9c0,1.8,0.6,3.2,1.8,4.3c1.2,1.1,2.9,1.6,5,1.6c2.2,0,3.8-0.5,5-1.6S1345.1,1037.3,1345.1,1035.5z"/>
				<path class="st4" d="M1369.2,1047.6c-3.3,0-5.9-1.1-7.9-3.2c-2-2.1-3-5.1-3-8.8v-20.5h6.7v19.9c0,2.1,0.5,3.7,1.6,4.9
					c1,1.1,2.4,1.7,4.2,1.7c2.7,0,5.2-1.4,7.5-4.1v-22.3h6.7v31.8h-3.9l-2.6-3.5C1376.2,1046.2,1373.1,1047.6,1369.2,1047.6z"/>
				<path class="st4" d="M1409.7,1046.9h-3.2c-7.4,0-11.1-3.8-11.1-11.4V1021h-4.9v-5.9h4.9v-6.6h6.7v6.6h7.6v5.9h-7.6v14.6
					c0,3.6,1.4,5.4,4.3,5.4h3.2V1046.9z"/>
			</g>
		</g>
	</g>
	<path class="st5" d="M1532.5,590.4c0,0.9,0,1.7,0,2.6c-0.5,49.6-14.9,95.7-39.5,134.4c-20.2,31.9-47.2,58.7-78.9,78.3
		c-0.9,0.6-1.9,1.2-2.8,1.7c-35.9,21.5-77.6,33.9-122.1,33.9c-41.2,0-80.1-10.6-114.1-29.2c-1.3-0.7-2.5-1.4-3.7-2.1
		c-35.3-20.2-65.2-49.1-87-84c-24.4-39-38.5-85.5-38.5-135.4v-0.1c0-99.6,56.3-185.6,137.8-226.1c11.9-5.9,24.4-10.9,37.3-14.7
		c8.3-2.5,16.8-4.5,25.4-6.1c2.5-0.5,4.9-0.9,7.4-1.2c11.5-1.7,23.4-2.6,35.4-2.6c9.1,0,18.1,0.5,27,1.5c1.8,0.2,3.5,0.4,5.3,0.7
		c7.8,1.1,15.6,2.5,23.2,4.3c15.2,3.7,29.9,8.8,43.9,15.3C1473.3,400.5,1532.5,488.4,1532.5,590.4z"/>
	<g>
		<path class="st6" d="M1388.7,361.9c-5.7-12.1-9.2-25.2-10.3-38.6c-0.1-7.2-0.4-14.3-0.7-21.5c-0.9-19.2-1.9-38.7-6-57.5
			c-3.7-17.1-10.4-33.9-22.3-46.7c-12.2-13-29.2-20.7-46.7-21.5c-0.9,0-1.8,0-2.7,0c-18-7.1-39.6-4.5-57.1,3.4
			c-24.2,10.9-43.5,32.4-53.1,57.7c-5.5,14.4-7,29.5-6.2,45c0.9,19.1,2.6,38.2,4,57.3c0,0,0,0,0,0.1c0.4,5.2,0.1,10.5-1.1,15.6
			c-1.4,6-3.5,11.8-6.4,17.3c-5.3,9.9-13.4,21.1-5.3,32c7.2,9.7,20,9.2,30.2,6c5.9-1.9,11.7-4.6,17.8-5.6c6.9-1.1,13.8,0.3,20.4,2.2
			c13.5,3.8,27.6,9.3,41.5,4.5c0.5-0.2,0.9-0.4,1.3-0.7c23.7-4.9,48.3,2,72.2-2.1c11-1.9,23.2-6.3,30.6-15.4c3.3-4,5.5-9,5.4-14.3
			C1394.2,372.8,1391.3,367.3,1388.7,361.9z"/>
		<g>
			<path class="st7" d="M1232.6,240.9C1232.6,240.9,1232.6,240.9,1232.6,240.9c0,0.4-0.2,0.8-0.4,1.2
				C1232.3,242.1,1232.6,241.6,1232.6,240.9z"/>
			<path class="st8" d="M1335.3,210.9c-13.4-15-32.1-25.3-52-26.3c-17.6-0.8-36.3,5.5-49.3,18.1c-1.4,1-2.7,2-4,3.1
				c-11,9.1-17.9,21.9-22,35.7c-1,3.2-1.8,6.4-2.4,9.7c-0.9,4.5-1.6,9.1-2.1,13.6c-0.7,7.3-1,14.8-0.7,22.3v0.1
				c0.5,10.4,2,20.8,4.6,30.9c3,11.3,7.5,22,13.6,31.5c7,10.9,16.2,20.2,27.7,26.8c0.2,0.1,0.3,0.2,0.5,0.3c1.7,1,3.4,1.8,5.1,2.7
				c10.6,5,21.9,7.5,33.3,7c7.1-0.3,14.1-1.8,21-4.6c5.3-2.2,10.2-5.1,14.6-8.7c8.8-7.1,15.9-16.7,21.3-27c1.6-3.1,3.1-6.2,4.5-9.4
				c3.2-7.4,5.8-15.3,7.7-23.4c1.4-6.1,2.5-12.4,3-18.6c0.4-4.1,0.6-8.3,0.6-12.4C1360.4,256.2,1352.7,230.4,1335.3,210.9z"/>
			<path class="st7" d="M1271.5,215.9c-0.1,0-0.3-0.1-0.4-0.1c-0.3,0-0.7-0.1-0.8-0.1C1270.3,215.8,1271.1,216.1,1271.5,215.9z"/>
		</g>
		<path class="st8" d="M1231.3,532.9c-2.6-1,5.8-84.2,5.8-84.2c8.2-27.1,11.1-49.9,11.5-68.6c0-0.1,0-0.2,0-0.3c0-1,0-2,0-2.9v-0.3
			c0.2-30.9-6.3-49.3-5.5-55.1c0,0,87.6-103.6,79.6-15.7c-8.1,87.9,19.4,141.5,19.4,141.5C1347,522.9,1243,537.4,1231.3,532.9z"/>
		<path class="st6" d="M1365.2,272.9c1.8-18.7-1.5-38.4-11.3-54.5c-5.1-8.4-11.9-15.3-19.4-21.5c-2.1-1.8-4.2-3.5-6.4-5.2
			c-7.3-1.7-14.6-3.3-21.9-5.1c-6.7-1.6-13.3-3.5-19.9-5.6c0.2,0.2,0.5,0.5,0.7,0.7c-2.3,0.2-4.6,0.4-6.8,0.5
			c-10.1,0.8-20.2,2-29.8,5.5c-17.1,6.2-32.2,17.7-43.8,31.9c-7,8.6-12.2,18.1-14,29.3c-1.8,11.7-0.4,23.6,1.1,35.3
			c0.1,1.1,0.8,1.8,1.6,2c2.9,3.2,8.6,0.4,11.9-1.2c4.9-2.4,9.4-5.9,13-10.1c7.4-8.6,15.7-37.3,45.8-54.1
			c10.3-5.7,22.2-6.3,33.4-8.2c10.3-1.7,13.8-2.6,21.3-10.2c-1.2,31.9,34.4,68.5,33.3,80.8c-0.3,3.6,12,21.6,12.3,18
			c0.8-8.9-0.6-17.6-2.7-26.2C1364.5,274.8,1365,274,1365.2,272.9z"/>
		<ellipse class="st8" cx="1203.9" cy="302.8" rx="15.1" ry="15.7"/>
		<ellipse class="st8" cx="1359.6" cy="298" rx="15.1" ry="15.7"/>
		<path d="M1255.1,284.3c0.2,4.7-2.8,8.6-6.5,8.7c-3.8,0.1-6.9-3.6-7.1-8.2c-0.2-4.7,2.8-8.6,6.5-8.7
			C1251.8,276,1254.9,279.7,1255.1,284.3z"/>
		<path d="M1325,283.9c0.2,4.7-2.8,8.6-6.5,8.7c-3.8,0.1-6.9-3.6-7.1-8.2c-0.2-4.7,2.8-8.6,6.5-8.7
			C1321.7,275.5,1324.9,279.2,1325,283.9z"/>
		<path d="M1289.6,307.2c-2.2-6.7-3.2-13.5-3.1-20.6c0.1-4-6-4.2-6-0.2c-0.1,7.6,0.9,15,3.3,22.2
			C1284.9,312.4,1290.8,311,1289.6,307.2z"/>
		<path d="M1251.9,253c-6.6,1.4-12.6,4.6-17.6,9.3c-2.8,2.7,1.2,7.2,4,4.5c4.3-4.1,9.2-6.7,14.9-7.9
			C1257,258.2,1255.6,252.2,1251.9,253z"/>
		<path d="M1331.1,260c-5-5.4-11.3-8.7-18.4-9.7c-3.8-0.6-3.9,5.6-0.2,6.1c5.5,0.8,10.4,3.6,14.2,7.8
			C1329.4,267,1333.7,262.8,1331.1,260z"/>
		<path class="st4" d="M1248.3,323c0,0,47.8,5.9,74.1-3c0,0-1.1,38.3-37.7,37.9C1248,357.5,1248.3,323,1248.3,323z"/>
		<g>
			<path class="st8" d="M1908.4,738.4L1615.3,691c-0.3-0.5-0.9-0.7-1.5-0.5c-75.2-94.9-138.3-163.4-193-203.5
				c-48-35.2-92.6-47.9-92.6-47.9l32.3,152.5c0,0,142.9,171.9,222.4,192.1c81.9,20.8,329.3,3.6,329.3,3.6L1908.4,738.4z"/>
			<path class="st8" d="M2004.8,708.1c0,0,0.6-8.5-9.9-7.9c-10.5,0.6-38.5,7.3-43.9,8.2c-5.4,1-39.7,1.1-63.2,32.2l-18.2,33.4
				l32.7,13.8c0,0,95.4-0.4,125.6-17.7c18.2-10.4,53.4-32,52.1-39c-1.4-7-16.6-2-16.6-2s-4.9-4-13-0.5c-8.1,3.5-22.3,7.4-22.3,7.4
				s-18.2,1.5-25.6,4c-7.4,2.5-35.2-11.5-39-12.1C1963.5,727.9,2003.1,713,2004.8,708.1z"/>
			<path d="M1951.8,729c-4.7,5.6-10.8,9.7-17.6,11.8c-1.8,0.6-1.3,3.5,0.5,3c7.7-2.4,14.2-6.8,19.5-13.1
				C1955.4,729.3,1953,727.6,1951.8,729z"/>
			<path d="M1996.6,744c-1.2-1.5-3.3,0.5-2.1,2c3.5,4.4,4.9,10,3.8,15.6c-0.4,1.9,2.4,2.8,2.8,0.9
				C2002.3,755.8,2000.8,749.3,1996.6,744z"/>
			<path d="M1613.3,717.4c-0.2,4.4-2.6,8.2-6.3,10.2c-1.6,0.9-0.3,3.6,1.3,2.7c4.6-2.6,7.5-7.4,7.8-12.8
				C1616.3,715.5,1613.4,715.4,1613.3,717.4z"/>
		</g>
		<g>
			<path class="st8" d="M663.9,743.5L957,696c0.3-0.5,0.9-0.7,1.5-0.5c76.3-96.3,142.5-170.3,197.4-210.3
				c46.7-34,88.2-41.1,88.2-41.1l-11.9,126c0,0-163.2,198.4-242.7,218.6c-81.9,20.8-329.3,3.6-329.3,3.6L663.9,743.5z"/>
			<path class="st8" d="M567.5,713.1c0,0-0.6-8.5,9.9-7.9c10.5,0.6,38.5,7.3,43.9,8.2c5.4,1,39.7,1.1,63.2,32.2l18.2,33.4L670,792.8
				c0,0-95.4-0.4-125.6-17.7c-18.2-10.4-53.4-32-52.1-39c1.4-7,16.6-2,16.6-2s4.9-4,13-0.5c8.1,3.5,22.3,7.4,22.3,7.4
				s18.2,1.5,25.6,4c7.4,2.5,35.2-11.5,39-12.1C608.9,733,569.2,718,567.5,713.1z"/>
			<path d="M620.5,734.1c4.7,5.6,10.8,9.7,17.6,11.8c1.8,0.6,1.3,3.5-0.5,3c-7.7-2.4-14.2-6.8-19.5-13.1
				C616.9,734.4,619.3,732.7,620.5,734.1z"/>
			<path d="M575.7,749c1.2-1.5,3.3,0.5,2.1,2c-3.5,4.4-4.9,10-3.8,15.6c0.4,1.9-2.4,2.8-2.8,0.9C570,760.9,571.5,754.3,575.7,749z"
				/>
			<path d="M959,722.4c0.2,4.4,2.6,8.2,6.3,10.2c1.6,0.9,0.3,3.6-1.3,2.7c-4.6-2.6-7.5-7.4-7.8-12.8
				C956,720.6,958.9,720.5,959,722.4z"/>
		</g>
		<path class="st4" d="M1505.9,564.2l-81.9,97.5l0,0l-12.7,145.7c-35.9,21.5-77.6,33.9-122.1,33.9c-41.2,0-80.1-10.6-114.1-29.2
			c-1.3-0.7-2.5-1.4-3.7-2.1l-18.1-151c0,0,0,0,0,0l-0.2-0.2l-93.4-83.6c0,0,0,0,0,0c1.2-1.7,77.1-109.1,158.4-123.5
			c0.2,0,0.5-0.1,0.7-0.1c0,0,5.7,10.2,16,21.2c1.8,2,3.8,4,5.9,6c12.1,11.3,28.8,21.8,48.8,21.7c17.1-0.1,33.4-10.6,46.6-24.4
			c1.1-1.2,2.3-2.4,3.4-3.7c6.4-7.3,11.9-15.3,16.1-23c0,0,0,0,0,0S1448.8,475.9,1505.9,564.2
			C1505.9,564.2,1505.9,564.2,1505.9,564.2z"/>
		<rect x="1183.7" y="573.9" class="st9" width="55.4" height="19.1"/>
		<path d="M1168.5,478.7c-3.4,10.2-3.9,21-1.7,31.6c0.4,1.9,3.2,1.2,2.8-0.7c-2.2-10.1-1.6-20.3,1.6-30.1
			C1171.9,477.7,1169.1,476.8,1168.5,478.7z"/>
		<path d="M1395.9,470.5c-0.2-1.9-3.1-1.2-2.8,0.7c1.3,10.6,0.8,21.2-1.4,31.6c-0.4,1.9,2.4,2.8,2.8,0.9
			C1396.8,492.7,1397.3,481.6,1395.9,470.5z"/>
		<path class="st10" d="M1424,661.8l-12.7,145.7c-35.9,21.5-77.6,33.9-122.1,33.9c-41.2,0-80.1-10.6-114.1-29.2
			c-1.3-0.7-2.5-1.4-3.7-2.1l-18.1-151c0.4,1.7,18.1,62.9,136.3,23.8C1289.6,682.7,1387.2,726.4,1424,661.8z"/>
		<path d="M1324,184.3c-0.6-1.8-3.4-1.2-2.8,0.7c1.1,3.7,1.3,7.5,0.5,11.3c-0.4,1.9,2.4,2.8,2.8,0.9
			C1325.4,192.8,1325.2,188.5,1324,184.3z"/>
		<path d="M1214.9,233.3c-7.1,7.1-12.4,15.8-15.7,25.5c-0.6,1.8,2.2,2.7,2.8,0.9c3.1-9.2,8.1-17.3,14.9-24.1
			C1218.2,234.2,1216.2,231.9,1214.9,233.3z"/>
		<path d="M1289,189.6c-24.1,2.1-46.8,13.4-63.3,31.8c-1.3,1.4,0.7,3.6,2,2.2c16-17.8,37.9-29,61.3-31
			C1290.7,192.4,1290.8,189.4,1289,189.6z"/>
		<path d="M1286.5,387.1c-13,0.9-25.9-1.5-37.8-6.9c0-0.1,0-0.2,0-0.3c0-1,0-2,0-2.9c11.9,5.7,24.8,8.1,37.8,7.2
			C1288.4,384,1288.3,387,1286.5,387.1z"/>
	</g>
</g>
<path class="st11" d="M2197.5,407.9c26-24.4,51.2-35.6,72.6-39.9c-0.2-8.4-0.4-17.8-4.2-24.7c-3.1-5.8-8.2-8.4-9.5-16
	c-2.3-14.2,8.9-24.7,18.2-17.9c2.8,2,0.7,8-2.1,5.9c-4.8-3.6-11-0.5-11.5,7.4c-0.4,7.2,4.6,10.2,7.7,14.8c5.3,8,6,19.2,6.2,29.5
	c10.2-1.6,19.5-1.7,27.5-1.1c21.5,1.8,37.2,9,44,12.6c2,1.1,2.9,4.2,1.9,6.7l0,0c-0.8,2.3-2.9,3.4-4.7,2.4c-6.3-3.4-21.5-10.4-42-12
	c-24.3-1.9-61.1,3.6-100,40.2c-1.6,1.5-3.9,1-5.1-1.1C2195.4,412.6,2195.8,409.5,2197.5,407.9z"/>
<path class="st12" d="M2168.1,902.8c144.2,177.7,273.3,71.9,273.3,71.9c23-274.6-90.2-479.2-104.7-504.3c2.1-29.6,0.1-59.2-5.7-87.9
	c2.7-0.1,5.4-1,7.5-3.2c1.6-1.7,3.7-4.8,2.9-7.8c-1.8-6.7-8.8,1.4-11.6,5.2c-1-2.4-2.6-4.3-4.5-5.7c-1.7-1.2-4.5-3.1-6.3-1.2
	c-2.4,2.6,0.4,6.1,2,7.6c2.2,2,4.7,3.4,7.2,4.1c6.1,28.9,8.2,59.1,6,89l-23.6,71.5c-27.6-24.9-58-38.9-69.5-43.7
	c-14.9-27.2-25.1-58.5-29.6-91.7c0.1-0.1,0.1-0.1,0.2-0.2c2.6-3.1,4.5-7.2,5.2-11.8c0.5-2.8,1.2-8.2-1.2-9.8
	c-2.8-1.9-4.8,4.2-5.5,6.8c-0.7,2.7-1,5.5-1,8.4c-0.8-1.5-2-2.8-3.4-3.8c-2-1.4-5-3.1-6.8-0.4c-4.2,6.1,6.9,10.3,10,11.1
	c4.4,32.4,14.1,63.2,28.3,90c-0.6-0.2,19.7,34.4,24.3,134.5C2268.7,787.3,2168.1,902.8,2168.1,902.8z M2208.5,404.2
	c-1.2-0.4-2.4-0.8-3.6-1.4c-1.1-0.6-3.3-1.5-4.1-2.9c-1.9-3.3,1.6-2.8,2.8-2.1c0.7,0.4,1.3,0.8,1.9,1.3
	C2207,400.3,2208.2,402,2208.5,404.2z M2211.4,403.3c-0.4-2.9-0.4-5.8,0.1-8.7c0.3-1.5,0.7-3,1.3-4.5c0.6-1.6,1.8-3.8,2.5-0.5
	c0.5,2.5-0.5,6.3-1.3,8.5C2213.3,400.1,2212.5,401.8,2211.4,403.3z M2328.3,379C2328.3,379,2328.3,379.1,2328.3,379
	c-1.4-0.4-2.7-0.9-4-1.8c-0.6-0.4-1.2-0.8-1.8-1.3c-0.4-0.3-3.6-2.8-1.7-4.1c0.9-0.6,3.4,1.6,4.2,2.3
	C2326.6,375.3,2327.7,376.9,2328.3,379z M2330.5,380.1c0-0.1,0-0.1-0.1-0.2c0-0.1,0-0.3,0-0.4c1.2-1.7,2.5-3.3,3.9-4.7
	c0.6-0.6,5.6-5.4,4.8-0.4c-0.3,2.1-2.9,4-4.2,4.7C2333.6,379.8,2332.1,380,2330.5,380.1z"/>
<g>
	<path class="st11" d="M354.9,407.5c-25.9-24.3-51-35.4-72.3-39.7c0.2-8.3,0.4-17.7,4.2-24.6c3.1-5.7,8.2-8.4,9.4-15.9
		c2.3-14.1-8.9-24.6-18.2-17.8c-2.8,2-0.7,7.9,2.1,5.9c4.8-3.5,11-0.5,11.4,7.4c0.4,7.2-4.6,10.2-7.7,14.8c-5.3,8-6,19.1-6.2,29.4
		c-10.2-1.6-19.4-1.7-27.4-1.1c-21.4,1.7-37.1,9-43.8,12.6c-2,1.1-2.8,4.2-1.9,6.7l0,0c0.8,2.3,2.9,3.3,4.6,2.4
		c6.2-3.3,21.4-10.3,41.8-11.9c24.2-1.9,60.9,3.6,99.6,40c1.6,1.5,3.9,1,5-1.1C357,412.2,356.6,409.1,354.9,407.5z"/>
	<path class="st9" d="M224.6,368c-1.8-0.5-4.3,0.5-4.7,2.5c-5.3,31.1-9.6,62.4-12.9,93.8c-0.5,4.8,7,5,7.5,0.2
		c3.2-30.7,7.4-61.4,12.6-91.9C227.5,370.7,226.7,368.7,224.6,368z"/>
	<path class="st9" d="M334,393c-3.3,30.7-6.7,61.4-10,92.1c-0.5,4.8,7,5,7.5,0.2c3.3-30.7,6.7-61.4,10-92.1
		C342,388.5,334.6,388.3,334,393z"/>
	<path class="st9" d="M215.5,417.9l50.7,35.2l68.1-6.9l-1.5,138.6c0,0-114.4,8.2-164-48.7L215.5,417.9z"/>
	<path class="st9" d="M181.8,577.3c0,0-108.6,224.7-72.7,541.1c0,0,77.1,7.5,118.1-6.8c0,0-27.1-327.8-6.9-379.3
		c0,0,3.8,294,31.2,374.3c0,0,55-19.5,81.2-15.3c26.3,4.2,50.5-15.8,50.5-15.8s-90.9-388-80.2-466.3
		C303.1,609.3,230.4,607.4,181.8,577.3z"/>
</g>
</svg>
