<?xml version="1.0" encoding="utf-8"?>
<!-- Generator: Adobe Illustrator 23.0.3, SVG Export Plug-In . SVG Version: 6.00 Build 0)  -->
<svg version="1.1" id="Layer_1" xmlns="http://www.w3.org/2000/svg" xmlns:xlink="http://www.w3.org/1999/xlink" x="0px" y="0px"
	 viewBox="0 0 2164.7 1483.6" style="enable-background:new 0 0 2164.7 1483.6;" xml:space="preserve">
<style type="text/css">
	.st0{fill:#60BBC5;}
	.st1{fill:#FFFFFF;}
	.st2{fill:#FF5A64;}
	.st3{fill:#FF894A;}
	.st4{fill:#2C2B3C;}
	.st5{fill:#0F4C82;}
	.st6{fill:#D45536;}
	.st7{fill:#AC3566;}
</style>
<g>
	<path class="st0" d="M932.1,682.7c76.9-30,105.1-95.9,106.3-208l-4.6-265.7C1022,90.6,954.4-0.1,829.8,0L385.9,6.9
		c-113.2,3.4-209,102.6-210,221.5l5.9,272.2c6.1,118.6,114.2,211.6,237.5,207.8l357.4-10.8l120.3,111.7
		c20.9,19.4,54.8,1.7,50.4-26.5L932.1,682.7z"/>
	<path class="st1" d="M561.9,264.8l-114.5,6l13.2,239.8l271.1-9.8c53.2-1.9,76.8-88.4,80.8-143.3c6.3-78.7-2.5-115.5-136.5-104.4
		c0,0,6.7-187.3-43.7-159C581.1,122.5,561.9,264.8,561.9,264.8z"/>
</g>
<g>
	<path class="st2" d="M1286.2,657.9c-79.6-29.6-134-106.5-128.8-193.4l14.6-246.6c6.4-107.6,101.5-189.8,212.4-183.6l425,23.7
		c110.9,6.2,195.7,98.4,189.3,206l-14.6,246.6c-6.4,107.6-101.5,189.8-212.4,183.6l-333.4-18.6l-125.1,120.2
		c-11.7,11.3-31.7,2.8-31.1-13.2L1286.2,657.9z"/>
	<path class="st1" d="M1575.7,546.5c0,0-227.7-148.5-165.5-276.2c62.1-127.7,174.4-21.3,174.4-21.3s144.3-99.3,174.8,43.7
		C1789.9,435.6,1575.7,546.5,1575.7,546.5z"/>
</g>
<g>
	<path class="st3" d="M66.2,1011.7c-6.2-6.9-12.7-13.5-19.6-19.7c-0.7-0.7-1.6-0.8-2.3-0.7c-0.7-0.7-1.8-0.9-2.9-0.2
		c-1.9,1.3-3.9,2.5-5.9,3.6c-3.7,2-7.6,3.6-11.8,4.8c-1.9,0.5-3.9,0.9-5.9,1.1c-1.9,0.3-3.8,0.5-5.6,0.8c-1.8,0.3-3.6,0.7-5.3,1.4
		c-4.1,1.6-7.9,5.8-6.6,10.5c0.4,1.6,1.4,2.9,2.6,3.8c-1.5,2.6-4.5,6.5,1.4,11l1.6,0.3c-0.9,3.2,0.8,7,4,8.4
		c-0.1,2.5,1.3,5.1,3.7,6.4c4.3,2.4,9.9,0.1,14.5-1.9c1-0.5,2-0.9,2.9-1.3c0.7-0.3,1.4-0.6,2.1-0.9c9.8-4.5,18.8-10.6,26.9-17.7
		c1.3-1.2,2.6-2.4,3.9-3.7c0.4-0.4,0.6-0.8,0.7-1.2C66.4,1015.8,67.8,1013.5,66.2,1011.7z"/>
	<path class="st3" d="M410.8,1384c0-0.3,0-0.6-0.1-0.8c-0.6-5.2-3-10.4-4.7-15.2c-0.9-2.5-1.8-5-2.7-7.5c-1.7-4.8-3.4-9.5-5.1-14.3
		c-1-2.8-4.9-2.4-5.5-0.2c-3.7,0.5-7.6,3-10.9,4.4c-4.3,1.8-8.6,3.5-12.6,5.8c-0.3,0.2-0.6,0.3-0.8,0.5c-0.1-0.2-0.3-0.4-0.4-0.6
		c-0.7-0.9-1.7-0.9-2.5-0.4c-0.7,0.5-1.3,1.4-1.1,2.3c1.2,5.2,3.6,10.3,6.1,15.3c1.4,2.7,2.8,5.4,4,8c2.4,5.3,4.9,10.5,7.3,15.8
		c1.3,2.7,2.5,5.4,3.8,8.1c1,2.1,3.7,1.7,4.9,0.1c2.9-4.1,8.6-4.9,12.8-7.3c3.3-1.9,5.9-4.5,7-8c0.1-0.4,0.3-0.8,0.4-1.2
		c0.1-0.6,0.2-1.3,0.3-2c0-0.6,0.1-1.2,0-1.7C410.8,1384.8,410.8,1384.4,410.8,1384z"/>
	<path class="st0" d="M447.2,1389.2c0.3,0.3,0.6,0.6,0.9,0.9c2.3,2.6,2.8,5.4,2.1,5.7l-55.2,24.3c-2.8,1.2-6-0.1-7.1-2.9l-1.1-2.7
		l-0.4-1.1l-3.2-7.9c-0.2-0.4-0.3-0.8-0.5-1.2c-3.6-11.4,4.1-13.4,4.1-13.4c3.2-1.3,6.1-1.3,8.6-0.5c2.6,0.8,5.3,0.5,7.6-0.9
		c2-1.2,4.1-2.8,6.1-5c5.4-5.9,8.7,3.9,24.2,1.5c0.2,0,0.4-0.1,0.6-0.1c0.2,0,0.4-0.1,0.6-0.1
		C440.5,1385.1,444.7,1386.9,447.2,1389.2z"/>
	<path class="st4" d="M447.2,1389.2c0.3,0.3,0.6,0.6,0.9,0.9c-0.9,0.4-1.8,0.8-2.7,1.2c-3,1.4-6.1,2.8-9.1,4.2
		c-0.1,0.2-0.3,0.3-0.5,0.2c-6,2.7-12,5.2-18,7.6c-6.3,2.5-12.5,4.8-18.9,7c-4,1.4-8,2.8-12,4.1l-0.4-1.1c4.1-1.3,8.2-2.6,12.2-4
		c6.5-2.3,13-4.7,19.3-7.2c5.8-2.3,11.5-4.7,17.1-7.3c-1.3-2.5-2-5.7-1.8-8.8c0.2,0,0.4-0.1,0.6-0.1c0.2,0,0.4-0.1,0.6-0.1
		c0,0.3-0.1,0.5-0.1,0.8c-0.2,2.7,0.4,5.3,1.7,7.7c0.1-0.1,0.3-0.1,0.4-0.2c3.2-1.4,6.3-2.9,9.4-4.4
		C446.2,1389.7,446.7,1389.5,447.2,1389.2z"/>
	<path class="st4" d="M418.4,1382.8c-0.4,0.2-0.8,0.5-1.1,0.9c0,0-0.1,0-0.1,0c-0.1-1.6-0.3-3.2-0.4-4.8c-0.1-1.5,0-3.2-0.5-4.6
		c-0.7-1.8-2.6-2.5-4.2-1.2c-1.9,1.5-1.4,4.6-0.7,6.6c0.4,1.1,1,2.1,1.8,3c0.8,0.9,1.7,1.7,2.8,2.3c0,0.1-0.1,0.1-0.1,0.2
		c-1.2-1.2-3.2-1.5-5.1-1.2c-0.7,0.1-1.4,0.4-2,0.7c-0.8,0.4-1.4,1-1.8,1.8c-0.3,0.5-0.4,1.1-0.4,1.8c0,2.1,2,2.2,3.6,1.9
		c0.4-0.1,0.8-0.2,1.1-0.3c1.7-0.6,3.2-1.6,4.5-2.9c-0.2,0.7-0.2,1.3-0.2,1.9c0,0.4,0.7,0.6,0.8,0.1c0.3-1.1,0.5-2.1,1-3.1
		c0.3-0.5,0.6-0.9,0.9-1.4c0.3-0.4,0.5-0.7,0.7-1.1C419.2,1383,418.8,1382.6,418.4,1382.8z M413.1,1387.7c-0.4,0.2-1.5,0.8-2.6,1.2
		c-1.5,0.5-2.9,0.6-2.8-1.1c0.2-1.4,1.7-2.3,3.1-2.7c0.3-0.1,0.6-0.1,0.9-0.2c1.3-0.1,2.4,0.3,3.5,0.9
		C414.6,1386.5,413.9,1387.1,413.1,1387.7z M416.1,1383.8c-0.2-0.1-0.4-0.3-0.6-0.4c-2.4-1.9-4.5-5.2-3.5-8.2c0.5-1.6,1.5-2,3-1
		c0.3,0.6,0.4,1.2,0.4,1.9c0.1,0.9,0.2,1.9,0.2,2.8c0.1,1.6,0.3,3.2,0.4,4.7C416,1383.7,416.1,1383.7,416.1,1383.8z"/>
	<path class="st4" d="M424.7,1384.9c-1.5,0.9-3,3.9-2.7,5.7c0.1,0.3,0.5,0.4,0.6,0.1c0.5-0.8,0.7-1.9,1.1-2.8
		c0.4-0.9,1.2-1.6,1.6-2.5C425.5,1385,425,1384.7,424.7,1384.9z"/>
	<path class="st3" d="M116.1,1330c-2.2-3-6.2-5.3-9-7.6c-3.8-3.1-7.6-6.4-11.9-8.9c0.1-0.2,0.2-0.4,0.3-0.6c0.9-2-1.9-3.5-3.4-2.2
		c-1.6,1.3-3,2.8-4.4,4.5c-4.2,4.8-7.7,10.5-11.4,15.4c-3.5,4.6-7,9.2-10.5,13.9c-1.8,2.4-3.6,4.8-5.4,7.1c-1.4,1.8,0.3,4.1,2.2,4.3
		c5,0.7,8.4,5.3,12.4,7.9c3.1,2,6.4,2.9,9.8,2.5c0.9-0.1,1.8-0.3,2.7-0.6c0.4-0.1,0.7-0.3,1-0.4c1.1-0.5,2.2-1.1,3.2-1.8
		c4.3-3,7.7-7.5,11.2-11.3l15.6-17.1c0.1-0.1,0.2-0.2,0.2-0.3C120.3,1332.5,118.2,1329.5,116.1,1330z"/>
	<path class="st5" d="M329.9,920.6c0.2-3.6-4.9-3.8-5.4-0.3c-0.1,0.8-0.2,1.6-0.3,2.4c-12-1.7-23.8-3.6-35.6-6.6
		c-6-1.5-12-3.2-17.9-5.1c-3.8-1.2-7.5-2.7-11.3-4c0.1-1.1,0.3-2.3,0.4-3.4c0.4-3.7-5.1-3.9-5.7-0.3c-0.1,0.7-0.2,1.3-0.3,2
		c-0.7-0.2-1.4-0.4-2-0.5c-2.2-0.5-4.1,2.5-1.9,3.9c1,0.6,2,1.1,3,1.6c-0.8,4.5-1.6,9-2.4,13.6c-0.2,1.1-0.4,2.2-0.6,3.3
		c-3.3,18.8-7,37.5-11.5,56.2c-4.9,20-10.6,39.9-17,59.5c-0.6,1.7-1.1,3.5-1.7,5.2c-1.4,4.1-2.8,8.2-4.2,12.3
		c-0.8,2.2-1.5,4.4-2.3,6.5c-17.2,47.5-36,81.6-62.1,126.1c-15.3,26.2-60.6,85.4-78.3,110c-0.7,0.9,6.4,6.3,15.2,12.3
		c12.7,8.8,29.2,19.1,31.1,19.6c0.1,0,0.2,0,0.2,0c24.4-28.4,59.9-75.7,90.7-118.8c0.1-0.1,0.2-0.2,0.3-0.4c0.6-0.9,1.2-1.7,1.8-2.6
		c0.1-0.1,0.1-0.2,0.2-0.3c1.1-1.6,2.3-3.2,3.4-4.7c0.6-0.9,1.2-1.7,1.8-2.6c3.4-4.8,6.7-9.5,9.9-14.2c0.3-0.5,0.6-0.9,0.9-1.4
		c0.4-0.5,0.7-1,1.1-1.5c0.3-0.4,0.6-0.8,0.8-1.2c1.7-2.4,3.3-4.8,4.9-7.1v0c0.6-0.9,1.2-1.7,1.8-2.5c5.3-7.8,10.3-15.2,14.7-21.8v0
		c1-1.5,2-3,3-4.5c1.9-2.9,3.8-5.8,5.5-8.7c0.6-1,1.2-2,1.8-2.9c21.5-35.8,30.1-65.8,42.1-104.6c1.4-4.7,3-9.6,4.5-14.6
		c0.7-2.2,1.4-4.4,2.1-6.6c4.9-15.1,9-30.4,12.3-46c2.3-10.8,4.5-21.7,5.9-32.6c0.3-2.4,0.6-4.9,0.8-7.4c0.5-0.7,0.5-1.7,0.2-2.6
		C329.7,923.6,329.8,922.1,329.9,920.6z"/>
	<path class="st4" d="M231.6,1110.2c-25.8,56.6-58.3,110.2-96.7,159.1c-11.1,14.1-22.6,27.8-34.6,41.1c-1.3,1.5,0.7,3.8,2.1,2.3
		c42.3-46.9,79-98.9,108.9-154.5c8.3-15.4,16-31.1,23.3-47C235.4,1109.4,232.4,1108.4,231.6,1110.2z"/>
	<path class="st5" d="M412.8,1356.8l-51.8,20.3c0,0-62.5-119.3-109.7-221.5c-15.2-32.9-28.9-64.1-38.3-89
		c-6.4-16.7-10.8-30.6-12.6-40.2c-12.7-68.2,12.9-108.3,13.7-110.6l36.3,7.9l34,3.1l52.5,205.9l1,3l11.6,34.2l1.1,3.1L412.8,1356.8z
		"/>
	<path class="st0" d="M103.5,1398.3c-0.1,0.4-0.2,0.8-0.4,1.2c-1.2,3.2-3.4,5-4,4.5l-47.4-37.3c-2.4-1.9-2.7-5.4-0.8-7.7l1.9-2.2
		l0.8-0.9l5.5-6.5c0.2-0.3,0.5-0.7,0.8-1c8.4-8.5,13.7-2.7,13.7-2.7c2.7,2.2,4,4.8,4.5,7.3c0.5,2.6,2,4.9,4.3,6.3
		c2,1.2,4.5,2.3,7.2,3c7.8,2,0.7,9.5,10,22.1c0.1,0.2,0.2,0.3,0.4,0.5c0.1,0.2,0.3,0.3,0.4,0.5
		C104.1,1390.5,104.4,1395,103.5,1398.3z"/>
	<path class="st4" d="M103.5,1398.3c-0.1,0.4-0.2,0.8-0.4,1.2c-0.8-0.6-1.6-1.2-2.4-1.8c-2.7-2-5.4-4-8-6.1c-0.2,0-0.4-0.2-0.5-0.4
		c-5.1-4-10.2-8.1-15.2-12.4c-5.1-4.4-10.1-8.8-15.1-13.4c-3.1-2.9-6.2-5.8-9.2-8.7l0.8-0.9c3.1,3,6.1,6,9.3,8.9
		c5.1,4.7,10.2,9.2,15.5,13.7c4.7,4,9.6,7.9,14.4,11.7c1.6-2.3,4.1-4.4,6.9-5.7c0.1,0.2,0.2,0.3,0.4,0.5c0.1,0.2,0.3,0.3,0.4,0.5
		c-0.2,0.1-0.5,0.2-0.7,0.3c-2.5,1.1-4.5,2.9-6,5.1c0.1,0.1,0.2,0.2,0.3,0.3c2.7,2.1,5.5,4.2,8.3,6.3
		C102.6,1397.7,103.1,1398,103.5,1398.3z"/>
	<path class="st4" d="M101.1,1363.7c-2.2-0.9-4.8,0.9-6.2,2.5c-0.4,0.5-0.8,1-1.1,1.5c-0.9,1.5-1.4,3.3-1.4,5c-0.1,0-0.1,0-0.2,0
		c0.8-2.9-1.8-6.7-4.8-7.2c-0.8-0.1-1.6,0-2.3,0.4c-0.1,0.1-0.2,0.1-0.3,0.2c-1.8,1.3-0.1,3.5,1.2,4.6c1.4,1.2,3,2.1,4.7,2.6
		c-0.7,0.2-1.3,0.4-1.8,0.7c-0.4,0.2-0.2,0.9,0.3,0.8c1.1-0.3,2.1-0.5,3.2-0.6c0.8,0,1.7,0.2,2.5,0.3c0.2,0,0.3,0,0.5,0
		c0.4,0,0.6-0.5,0.2-0.8c-0.3-0.2-0.6-0.4-1-0.5h0c-0.1,0-0.2-0.1-0.4-0.1c0,0,0-0.1-0.1-0.1c0.1-0.1,0.2-0.1,0.3-0.2
		c1.3-0.8,2.5-1.6,3.8-2.4c1.2-0.8,2.8-1.5,3.8-2.6C103.3,1366.5,103,1364.4,101.1,1363.7z M88.7,1371.4c-0.9-0.5-5.4-3.5-2.6-4.6
		c1.6-0.6,3.6,1,4.4,2.2c0.7,1.1,0.8,2.2,0.8,3.5C90.4,1372.2,89.5,1371.9,88.7,1371.4z M101.5,1366.8c-0.4,0.5-0.9,0.9-1.4,1.3
		c-0.8,0.5-1.6,1-2.4,1.5c-1.1,0.7-2.3,1.5-3.4,2.2c-0.3,0.2-0.5,0.3-0.8,0.5c0.1-0.7,0.3-1.5,0.5-2.3c0.8-2.5,2.6-4.9,5.2-5.3
		C100.9,1364.3,101.7,1365,101.5,1366.8z"/>
	<path class="st4" d="M97.9,1379c-1.3-1.1-4.7-1.5-6.3-0.6c-0.3,0.2-0.2,0.6,0.1,0.6c1,0.2,2,0,3,0.1c1,0.1,1.9,0.5,2.9,0.6
		C98.1,1379.7,98.2,1379.2,97.9,1379z"/>
	<path class="st4" d="M350.6,1174.5c-1.5,1.1-3.2,1.9-5,2.5c-8.1,2.6-17.6-0.8-22.6-7.6c-9.7-13.3-1.1-32.3,13.8-35.3l1,3
		c-12.7,2.3-20.3,17.8-12.9,29.6c4,6.4,12.5,9.7,19.8,7.4c1.8-0.6,3.4-1.5,4.8-2.6L350.6,1174.5z"/>
	<path class="st4" d="M229,1188.3c-0.4,0.5-0.7,1-1.1,1.5c-0.3,0.5-0.6,0.9-0.9,1.4c-3.8-0.4-7.9,0.6-11.3,3.5
		c-5.8,5-6.6,12.2-4,18.3c-0.6,0.8-1.2,1.7-1.8,2.6c-0.1,0.1-0.2,0.2-0.3,0.4c-4.2-8.2-2.9-18.8,5.7-24.8
		C219.6,1188,224.5,1187.3,229,1188.3z"/>
	<path class="st4" d="M221.9,966.1c-0.5,7.6-4.4,14.5-10.8,18.6c-1.7,1.1-0.3,3.9,1.4,2.8c7.4-4.8,12-12.4,12.5-21.2
		C225.2,964.3,222,964.1,221.9,966.1z"/>
	<path class="st4" d="M371.8,1361.1c-24.1-45.6-47.5-91.6-70.1-138c-22.5-46.2-45.1-92.6-65.2-139.9c-11-26-20.5-52.8-24.8-80.8
		c-0.3-2-3.4-1.3-3.1,0.6c7.5,49.7,30.8,95.5,51.7,140.6c21.9,47.3,44.7,94.1,68.2,140.6c13.2,26.2,26.7,52.2,40.5,78.2
		C370,1364.3,372.7,1362.9,371.8,1361.1z"/>
	<path class="st4" d="M318,968c-2.2-2.8-3-6.1-2.5-9.6c0.2-1.6-2.2-1.8-2.5-0.2c-0.6,4.1,0.6,8.1,3.1,11.4
		C317.2,970.8,319,969.2,318,968z"/>
	<path class="st4" d="M302.5,756.5L302.5,756.5c-2.6-1.3-5.6-2.2-9-2.5c-0.3,0-0.6-0.1-0.9-0.1c-2.1-0.1-4.4,0-6.8,0.4
		c0.2-1,0.3-2.1,0.3-3.1c0.1-3.4-0.6-6.9-2.2-10c-2-4-6.8-8.3-11.3-4.9c-3.9,2.9-4,9.3-2.7,13.5c0.8,2.7,2.3,5.1,4.2,7.1
		c-2.4,0-4.9-0.7-7-1.9c-5.1-2.8-9.3-6.6-16.5-3.8c-4.4,1.7-6.6,5.5-7.3,10c-0.9,5.4-0.3,12.5-5.3,10c-5.8-3-8-9.9-12.9-13.9
		c-3.7-3-8.6-4.5-13.4-4.4c-9.9,0.4-17.9,8.7-18.5,18.5c-0.2,3.3,1.4,7.1,0,10.1c-1.4,3-5.1,4.1-7.8,5.5c-5.1,2.5-10,5.9-13.1,10.7
		c-5.3,8-4.8,29,8.9,30.3c-0.6,0.4,1.4-0.4,2.8-0.5c0.7,0,1.2,0.1,1.3,0.7c0,0.2,0,0.4,0.1,0.6c-0.8,0.7-1.6,1.4-2.4,2.1
		c-1.2,1,0.3,2.9,1.5,1.9c0.4-0.4,0.9-0.8,1.3-1.1c0.2,1.6,0.5,3.1,0.9,4.7c1.4,5.1,3.9,10.1,7.7,13.9c5.5,5.3,14.1,7.6,21.2,4.7
		c1.2-0.5,2.4-1.2,3.6-2c0.3-0.2,0.6-0.5,0.9-0.7c2-1.8,3.1-4.2,5.1-6c4.2-3.8,6.5,1.3,8.9,4c3.4,3.9,8.6,4.5,13.3,2.5
		c9.6-4.2,11.8-17,11.5-27.6c0-1.5-0.1-2.9-0.3-4.3c0.3,0.2,0.6,0.4,0.9,0.6c4.9,3.2,11.8,2,16.3-2c0.4-0.4,0.8-0.7,1.1-1.1
		c0.1-0.1,0.1-0.2,0.2-0.2c0.2-0.3,0.5-0.6,0.7-0.9c2.2-3,3.5-6.3,4.1-9.8c0.5-2.6,0.7-5.3,0.8-8.1c3.7,2.6,8.1,3.8,12.6,3.5
		c0.5,0,0.9-0.3,1.1-0.7c0.4-0.7,0.2-1.8-0.9-1.8c-4.8,0.3-9.1-1.1-12.8-4.1c0-0.7,0-1.3,0-2c0-2.1,0.1-4.2,0.2-6.3
		c1.4-0.6,2.5-1.7,2.6-3.5c0.4-3.9,3.9-6.2,7.7-7.5c0.6-0.2,1.2-0.4,1.8-0.5c0.4-0.1,0.7-0.2,1.1-0.3c1-0.2,1.8-0.4,2.7-0.6
		c0.8-0.2,1.6-0.3,2.3-0.5c1.8-0.4,3.5-0.8,5.3-1.3c0.8-0.2,1.7-0.5,2.6-0.8c0.5-0.2,1.1-0.3,1.7-0.5l0,0
		C315.8,770.6,312,761.2,302.5,756.5z"/>
	<g>
		<path class="st3" d="M347.7,661.7c0.7-5.5,0.8-11,0.5-16.5c-0.1-2.5-2.8-3.3-4.7-2.4c-0.4-1.2-0.9-2.4-1.4-3.5
			c-1.4-2.8-5.5-2.5-6.2,0.6c-0.2-0.3-0.3-0.6-0.5-1c-1.8-3.4-6.4-2-6.3,1.7c0,0.3,0,0.6,0,0.8c-1.9-1.2-5-0.7-5.1,2.1
			c-0.6,14.8-15.1,30.3-12.5,45.5c0.4,2.3,1.2,4.7,2.6,7c-1,1.9,2.3,7.1,5,7.2c5.7,0.2,6.3-4.3,12-4.1c0.6,0.7,1.5,1.2,2.8,0.8
			c3.3-0.9,5.1-2.8,6.5-5.3c1-1.8,1.8-3.8,2.6-5.9c2.9-7.5,5.9-15,8.8-22.6C353,663.2,350,661,347.7,661.7z"/>
		<path class="st4" d="M330.4,647.4c0.7,3.7-0.1,7.3-2.2,10.4c-0.7,1-2.2-0.2-1.5-1.1c1.9-2.7,2.5-5.8,1.9-9
			C328.3,646.4,330.2,646.2,330.4,647.4z"/>
		<path class="st4" d="M338.1,646.4c0,3-0.5,5.9-1.8,8.6c-0.5,1.1-2.2,0.4-1.7-0.7c1.1-2.4,1.7-5,1.6-7.7
			C336.2,645.5,338,645.2,338.1,646.4z"/>
		<path class="st4" d="M343.8,647.4c0.5,3.1,0,6.3-1.6,9.1c-0.6,1-2.3,0.3-1.7-0.7c1.4-2.5,1.9-5.2,1.5-8.1
			C341.7,646.4,343.6,646.2,343.8,647.4z"/>
		<path class="st4" d="M347,664.5c-1.2,2.9-1.9,6-1.9,9.2c0,1.2-1.9,1.4-1.9,0.2c0-3.5,0.7-6.9,2-10.2
			C345.8,662.6,347.5,663.4,347,664.5z"/>
	</g>
	<path class="st2" d="M341.1,694.8c0-0.3-28.5-7.2-29.1-6.3c-12.9,17.5,6.5,109,31.8,138c-10.2-4.8-15-9.2-25.8-12.3
		c-1-0.3-2-0.6-3.1-0.9c-19.5-5.3-39.6-7.7-59.8-7.2c-1.1,0-2.1,0.1-3.2,0.1c-9.2,0.4-58,4-73.9,27.6
		c-45.4,67.7-84,120.5-142.5,160.8l25.1,27.1c0,0,116.2-45.5,150.9-135.9c-2.6,11.2,3.1,30.6,3.1,30.6l15.1,4.7
		c27.2,9,55.7,13.6,84.4,13.6l15.4,0.3c0,0,16.2-34.2,15.8-41.4c21.3,24.5,69.5,21,77.6-12.4C438,818.5,345.7,724.2,341.1,694.8z"/>
	<path class="st3" d="M312,775.8c-6.6-18.1-34.6-13.2-35.8,5.6c-0.2,0-0.5,0-0.7,0.1c-2.8,0.5-5.4,2.3-6.5,5c-1.2,3.1,0,6.5,2.6,8.4
		c2.9,2.2,6.6,1.9,10,1.1c2.8,3,6.6,5.1,10.8,5.7c9.1,1.4,19.7-4.6,21.3-13.7C315,780.8,312.6,777.4,312,775.8z"/>
	<path class="st3" d="M303.1,788.1l-4.1,30c-4.7,4.7-14.6,2.7-20.7,0.9c-2.8-0.8-4.2-3.9-3.2-6.6c1.6-4.2,4-10.2,5.8-14.6
		c0.3-0.8,0.7-1.6,1-2.3c0.8-1.8,1.3-3,1.5-3.3L303.1,788.1z"/>
	<path class="st4" d="M317.2,814.1c-3.1,15-20.2,23-35.1,21.3c-14.8-1.7-33.3-12.6-30.9-29.2c1.1,0,2.1-0.1,3.2-0.1
		c-2.7,15.6,15.8,25.2,29.3,26.3c13.2,1.1,27.9-5.9,30.5-19.1C315.1,813.6,316.2,813.8,317.2,814.1z"/>
	<path class="st4" d="M223.1,839.4c-6.1,9-10,19-11.4,29.8c-0.3,2,2.8,2.2,3.1,0.2c1.4-10.2,5.1-19.8,10.9-28.3
		C226.9,839.5,224.3,837.8,223.1,839.4z"/>
	<path class="st4" d="M330,828.6c-0.9-1.8-3.7-0.3-2.8,1.4c6.2,11.8,9.9,24.7,10.8,38c0.1,2,3.2,2.2,3.1,0.2
		C340.2,854.3,336.5,841,330,828.6z"/>
	<path class="st4" d="M384.8,854.1c-8.1-2.5-14.9-7.1-20.3-13.6c-1.3-1.6-3.6,0.5-2.3,2.1c5.7,6.9,13.1,11.8,21.6,14.5
		C385.8,857.6,386.8,854.7,384.8,854.1z"/>
	<path class="st2" d="M300.9,814.9c-2.4,5.7-8.8,7.4-14.4,6.2c-5.4-1.1-12.5-4.4-11.8-11c0.2-2-2.9-2.2-3.1-0.2
		c-0.9,8.1,7.4,12.8,14.3,14.3c7.3,1.5,14.9-1.1,18-8.3C304.6,814,301.6,813.1,300.9,814.9z"/>
	<path class="st4" d="M303.5,781.1c-1.3-1.7-2.2-3.6-2.6-5.8c-0.3-1.5-2.7-1.4-2.5,0.1c0.4,2.6,1.4,4.9,3,7
		C302.4,783.8,304.5,782.4,303.5,781.1z"/>
	<path class="st4" d="M294.2,776.2c-2.1,0-2.4,3.3-0.3,3.3C296.1,779.4,296.4,776.2,294.2,776.2z"/>
	<path class="st4" d="M306,774.9c-0.8,0-1.8,0.6-1.8,1.5v0.2c0,0.9,0.6,1.7,1.5,1.8c0.8,0,1.8-0.6,1.8-1.5v-0.2
		C307.5,775.8,306.9,775,306,774.9z"/>
	<path class="st4" d="M293.8,773.4c-0.2-0.7-0.8-1-1.4-1c-1.1,0.1-2.1,0.8-2.7,1.7c-0.4,0.6-0.2,1.3,0.3,1.7
		c0.6,0.4,1.3,0.2,1.7-0.3c0-0.1,0.1-0.1,0.1-0.2c0,0,0,0,0.1-0.1c0.1-0.1,0.1-0.1,0.2-0.2c-0.1,0.1-0.1,0.1,0,0
		c0,0,0.3-0.1,0.3-0.1c0.1,0,0.3-0.1,0.4-0.1C293.5,774.7,294,774,293.8,773.4z"/>
	<path class="st4" d="M308.5,772.5c-0.8-1-2.1-1.6-3.5-1.6c-0.7,0-1.3,0.4-1.3,1.1c0,0.6,0.5,1.3,1.1,1.3c0.7,0,1.3,0.2,1.8,0.8
		C307.7,775.4,309.5,773.7,308.5,772.5z"/>
	<path class="st4" d="M306.2,787.4c-2.2,2.1-5.3,2.6-8.1,1.4c-1.5-0.6-2.3,1.7-0.8,2.3c3.6,1.5,7.7,0.8,10.5-1.8
		C309,788.1,307.3,786.3,306.2,787.4z"/>
	<path class="st4" d="M277.9,785.2c-1.5-0.5-3.3-0.1-4.3,1.1c-1.1,1.2-1.3,2.9-0.6,4.4c0.6,1.5,2.8,0.4,2.2-1.1
		c-0.6-1.3,0.6-2.5,1.9-2.1C278.6,788,279.4,785.7,277.9,785.2z"/>
	<path class="st4" d="M298.4,760.2c-0.3-1.3-2.3-0.8-2,0.5c0.1,0.4,0.1,0.8,0.1,1.2c-0.4-0.3-0.9-0.5-1.4-0.1
		c-0.5,0.4-1.1,0.8-1.6,1.2c-0.2-0.2-0.5-0.3-0.9-0.3c-0.3-0.2-0.6-0.3-1.1,0l-5.6,3.3c-0.5,0.3-0.9,0.5-1.3,0.8
		c-0.3-0.4-1-0.7-1.5-0.2c-1.5,1.2-2.8,2.6-3.9,4.2c-0.2,0.1-0.3,0.2-0.5,0.3c-1.7,1.1-3.6,4.9-3.3,7.2c-0.3,0.1-0.5,0.3-0.6,0.6
		c-1-0.2-1.7,1.3-0.7,1.9c6.1,3.9,9.5-3.8,12.1-7.8c2.4-3.8,6.2-3.8,9.5-6.2C297.8,765.1,299,762.8,298.4,760.2z"/>
	<path class="st0" d="M299.3,754.6c-0.2,0-0.5,0-0.8,0c1.8-2.8,2.5-6.1,1.8-9.5c-0.2-0.8-1.1-1.1-1.7-0.5c-2.8,2.7-4.6,6.1-5.3,9.9
		c-3.2-2.8-7.5-4.1-11.8-3.5c-0.5,0.1-0.9,0.7-0.8,1.2c0.8,3.4,3.3,4.9,6.2,5.6c-8.3,4.6-13.8,13.7-14.2,23.7c0,0.1,0.2,0.5,0.6,0.7
		c0.6-0.3,1-0.4,1.8-0.6c2.8-9.6,9.1-17.5,17.7-22.5c0.6,0.5,1.4,0.6,2.2,0.4c0.8-0.3,1.4-1.1,1.5-2c1.5-0.7,4.4-1.3,6-0.9
		c0,0-0.1-0.2-0.4-0.5C301.4,755.2,300.4,754.7,299.3,754.6z"/>
	<path class="st4" d="M264.1,876c-9.6,10.1-26.1,4.3-27.6-9.5c-0.2-1.8-2.9-1.1-2.7,0.6c1.7,15.8,21.2,22.3,32.1,10.9
		C267.2,876.7,265.4,874.7,264.1,876z"/>
	<path class="st4" d="M328.8,881.5c-1.6,6.1-7,11-13.5,11.2c-6.3,0.2-11.8-3.9-14.1-9.6c-0.7-1.6-3.1-0.3-2.4,1.3
		c2.8,6.9,9.9,11.7,17.4,11c7.3-0.6,13.4-6.1,15.3-13.1C331.9,880.6,329.3,879.8,328.8,881.5z"/>
	<path class="st3" d="M38.7,1015.2c-1.5-0.4-3.1-0.8-4.6-1.2c0.7-1.2,0.7-2.8-0.7-3.8c-4.8-3.6-10.2-6.2-16.1-7.7
		c-1.4-0.4-3,0.4-3.4,1.9c-1.4,5.3,2.7,8.3,6.9,10.3c5.2,2.5,10.6,4.5,16.2,5.9C40.5,1021.4,42.1,1016.1,38.7,1015.2z"/>
	<path class="st4" d="M13.2,1013.5c-2.2,0.9-4.5,1.2-6.9,1c-1.8-0.1-1.9,2.6-0.1,2.8c2.9,0.2,5.6-0.3,8.3-1.4
		C16.2,1015.3,14.9,1012.8,13.2,1013.5z"/>
	<path class="st4" d="M18.6,1023.9c-2.7,1.5-5.7,2.3-8.8,2.2c-1.8,0-1.9,2.7-0.1,2.8c3.6,0.1,7-0.8,10.2-2.6
		C21.4,1025.4,20.1,1023,18.6,1023.9z"/>
	<path class="st4" d="M20.8,1033c-2.2,1.5-4.6,2.2-7.3,2.1c-1.8,0-1.9,2.7-0.1,2.8c3.1,0.1,6-0.7,8.6-2.4
		C23.6,1034.5,22.3,1032,20.8,1033z"/>
</g>
<g>
	<path class="st6" d="M589.8,1226.6c-4.3,6.9-43.1,209.5-43.1,209.5s1.2,3.1,3.1,2.7c4.9-0.8,9.5,2.5,14.1,3.7
		c4.7,1.3,16.2-6.1,16.2-6.1s74.2-189.8,77.5-196.8C658.8,1237,590.8,1224.9,589.8,1226.6z"/>
	<path class="st6" d="M733.7,1220.5c4.1,7,140.5,156.5,146,162.5c5.9,6.4,9,9.6,14.9,16c1.5,1.7,6.7,3.7,7.3,1.9
		c1.6-4.7,25.5-0.8,28.7-4.2c3.4-3.6-1.2-4-3.7-8.3c-4.9-8.4-126.8-226.8-131.4-232.9C793.7,1153.1,732.7,1218.9,733.7,1220.5z"/>
	<path class="st7" d="M841.2,1215.4c0,0-31.2,0.1-100.4,31.5c-69.2,31.4-176,70.4-237.2,27.6l75.6-256.3l2-6.8l7.9-26.7c0,0,0,0,0,0
		l101.9-7.9l0.7,1.1l10.2,16.2l0.7,1.1L841.2,1215.4z"/>
	<g>
		<path class="st6" d="M509,701.1c-1.1,1.9,1,4,2.2,5.2c3.4,3.3,8.4,5.4,12.2,8.5c6.2,7.3,5.4,10.1,6.2,12.1c0.4,2,1.4,3.6,1,5.8
			c-0.1,0.7,1.1,0.8,1.2,0.1c0-0.2,0.1-0.3,0.1-0.5c0,0,0.1,0,0.1,0c10,0.2,19.9-0.6,29.7-2.3c0.5-0.1,0.6-0.7,0.3-1
			c0.2,0,0.3-0.1,0.4-0.4c3.6-10-5.2-24.7-14.8-27.6c-2.3-0.7-4.4-1.5-6.4-2.3c-1.9-1.1-3.8-2.2-5.6-3.5c-1.8-1.3-3.6-2.7-5.3-4.1
			c-1.5-1.2-2.9-2.9-4.7-3.6c-2.4-1-5-0.1-5.5,2.6c-0.2,1,0,2,0.4,2.9c-1.4-0.8-3.5-2.2-5.2-1.4c-2.1,1-1.6,2.6-0.5,4.1
			c-2.1-1.2-4.5-1.9-6.2-0.8c-2.2,1.5-0.9,4.1,0.6,5.9C509.1,701,509,701,509,701.1z"/>
	</g>
	<g>
		<path class="st6" d="M783.6,674.2c0.7-2.3,1-5.2-1.6-5.8c-2-0.4-4,1.1-5.5,3c0.4-1.8,0.3-3.5-2-3.7c-1.8-0.1-3.3,2-4.3,3.2
			c0-1-0.1-1.9-0.7-2.8c-1.4-2.4-4.2-2.3-6.1-0.5c-1.4,1.3-2.1,3.4-3.1,5c-1.1,2-2.2,3.9-3.5,5.8c-1.2,1.8-2.5,3.6-3.9,5.3
			c-1.6,1.5-3.3,3-5.2,4.5c-7.9,6.1-10.8,23-3.9,31c0.1,0.2,0.3,0.2,0.5,0.2c-0.2,0.4,0.1,0.9,0.7,0.8c9.8-1.9,19.3-4.8,28.5-8.5
			c0,0,0.1-0.1,0.1-0.1c0.1,0.2,0.2,0.3,0.3,0.5c0.4,0.6,1.5,0.1,1.1-0.5c-1.2-1.9-0.8-3.8-1.2-5.8c0-2.2-1.7-4.5,1.4-13.5
			c2.5-4.2,6.4-8,8.3-12.3c0.7-1.5,1.9-4.3,0.2-5.6C783.8,674.3,783.7,674.2,783.6,674.2z"/>
	</g>
	<path class="st7" d="M801.7,931.5c-16.7,22.9-52.3,35.3-92.8,12.1c-1.4,13.4-2.5,23-3.5,30.3c-1.4,10.2-2.5,15.8-3.6,20.3
		c-0.1,0.5-0.2,1-0.4,1.5c-1,4.3-2,8-3.2,14.6c-1.5,8.4-29,7.4-55.8,1.8c-19.8-4.2-39.2-10.9-47.4-18.4c-0.9-0.8-1.7-1.7-2.3-2.5
		c-1.5-2.1-2.8-4.2-3.9-6.5c0,0,0,0,0,0c-3.8-7.9-5.2-16.7-5.8-25.5c-7.3,11.7-55,53.4-87.5,16.1c-43.7-50.2,31.1-246.2,34.6-245.8
		c13.1,1.2,31.5-2.8,32.1-0.8c15.5,57.6,7.1,127.8-7.8,166.3c5.5-4.7,11.7-8.5,18.1-11.9c8.1-4.3,16.4-7.9,24.9-11
		c1-0.4,2-0.7,3-1.1c18.8-6.5,52.6-28.6,139.5-7.5c7.6-30.1,6-104.9,3.9-144.3c0,0,16.2-4.5,30.4-9.7
		C859,833.3,809.7,920.6,801.7,931.5z"/>
	<path class="st4" d="M704.9,927.6c-3.1,17.1-20.3,26.7-36.6,20.6c-1.5-0.6-2.3,1.8-0.8,2.3c17.9,6.7,36.5-4.1,39.9-22.8
		C707.7,926.3,705.2,926.1,704.9,927.6z"/>
	<path class="st4" d="M645.3,952.5c-7.3,6.4-16.8,8.5-26.1,5.9c-1.5-0.4-2.2,2-0.7,2.4c10.2,2.8,20.6,0.4,28.5-6.5
		C648.3,953.2,646.5,951.4,645.3,952.5z"/>
	<path class="st4" d="M705.4,973.9c-4.6,1.4-9.2,2.8-13.8,4.1c-30,8.2-61,12.6-92.2,12.9c-0.3-0.7-1.2-1.1-1.7-0.3
		c-0.1,0.1-0.2,0.2-0.3,0.4c-0.4,0-0.7,0-1,0c-1.2,0-1.4,1.5-0.6,2.1c-0.2,0.2-0.3,0.4-0.5,0.6c-4.7,5.9-9.4,11.8-14,17.7
		c-1.2,1.5-2.4,3-3.6,4.6c-0.1,0-0.3,0-0.4,0c-1.5,0-1.5,2.3,0,2.3h0.2c0.4,0.3,0.9,0.4,1.3,0c0.2,0,0.4,0,0.5,0
		c103.1-10.3,122.7-24,122.7-24C702.9,989.7,704,984.1,705.4,973.9z"/>
	<g>
		<path class="st0" d="M628.2,802.1c-14.2-3-23.6,8.4-29.9,19.4c-7.3-3-15.7-2.1-22.8,1.5c-9,4.6-14.7,13.3-18.4,22.4
			c-3.5,8.8-4.6,18.3-8,27.1c-1.5,3.9-3.6,7.7-6.7,10.5c-3.6,3.2-8.1,4.5-12.7,5.4c-4.9,0.9-9.8,1.3-14.7,2.4
			c-4.7,1-9.2,2.7-13.5,4.8c-8.7,4.3-16.1,10.7-22.2,18.2c-13.5,16.6-18.6,38.8-17.7,59.9c0.4,11.1,2.6,23.3,10.5,31.7
			c5.8,6.2,14.3,9.7,22.5,8.7c2,19.2,20.1,34.2,39.8,31.1c10-1.6,19.4-7.6,24.7-16.2c1.1-1.8,3.4-5.7,3.4-5.7s72.6,12.4,51.7-135.4
			c-1.2-8.2,3.3-14,6.7-19.9c3.1-5.4,9.7,1.1,10.7-5.1c1.1-6.9-1.7-12.9-3.2-19.5c-0.9-3.7-1.1-10.6,3.8-11.6
			c2.1-0.5,3.1-2.1,3.1-3.8C645,820.7,639.9,804.6,628.2,802.1z"/>
		<path class="st6" d="M640.5,824.9c-12.4-14.5-36.6-0.2-31.2,17.6c-0.2,0.1-0.4,0.2-0.7,0.3c-2.4,1.4-4.2,4.1-4.2,6.9
			c0,3.3,2.3,6,5.3,6.9c3.5,1,6.8-0.5,9.6-2.5c3.6,1.8,7.8,2.4,12,1.5c8.9-1.9,16.6-11.1,15-20.1C645,828.6,641.6,826.2,640.5,824.9
			z"/>
		<path class="st6" d="M643,868.7c-2.7,6-24.9,7.8-24.9,4.9c0.1-4.5,0.9-13,1.1-17.8c0-0.9,0-1.7,0.1-2.4c0.1-1.8,0.2-3,0.3-3.4
			l16.9-10.7L643,868.7z"/>
	</g>
	<path class="st4" d="M636.5,831.6c-2,0-3.7-1-4.7-2.7c-0.8-1.4-3-0.3-2.2,1.1c1.4,2.4,3.9,4,6.7,4
		C637.9,834.1,638.1,831.7,636.5,831.6z"/>
	<path class="st4" d="M626.2,833.7c-2.1,0-2.3,3.2-0.2,3.2C628,837,628.3,833.7,626.2,833.7z"/>
	<path class="st4" d="M636.4,826c-2.1,0-2.3,3.2-0.2,3.2C638.2,829.2,638.4,826,636.4,826z"/>
	<path class="st4" d="M621,830.8c-1,1.3-1.6,2.8-1.7,4.4c-0.1,1.6,2.3,1.8,2.4,0.2c0.1-1.2,0.5-2.3,1.3-3.3
		C624,830.9,622,829.6,621,830.8z"/>
	<path class="st4" d="M635,821.4c-1.9-0.5-3.8-0.1-5.3,1.3c-1.1,1.1,0.5,2.9,1.6,1.8c0.8-0.7,1.8-1.1,2.9-0.8
		C635.7,824.1,636.5,821.8,635,821.4z"/>
	<path class="st4" d="M640.7,835.7c-1.3,3.4-4.7,5.3-8.2,4.9c-1.6-0.2-1.7,2.2-0.2,2.4c4.6,0.6,9.1-2.2,10.7-6.5
		C643.5,835.1,641.2,834.3,640.7,835.7z"/>
	<path class="st4" d="M633.2,856.8c-4.7,1-9.4,0.6-14-1c0-0.9,0-1.7,0.1-2.4c0.2,0,0.4,0,0.7,0c4.2,1.5,8.4,1.8,12.8,0.9
		C634.3,854.1,634.7,856.5,633.2,856.8z"/>
	<path class="st4" d="M611.7,845.5c-2-0.1-4,1.1-4.5,3.2c-0.5,2.1,0.7,4,2.5,4.9c1.4,0.7,2.2-1.6,0.8-2.3c-1.8-0.9-0.9-3.4,1-3.3
		C613.1,848.1,613.3,845.6,611.7,845.5z"/>
	<path class="st4" d="M627,807.1c-8.6-0.8-16.7,4.2-20.2,12c-0.6,1.4,1.6,2,2.2,0.7c3.1-6.9,10.4-11,17.9-10.3
		C628.5,809.6,628.5,807.3,627,807.1z"/>
	<path class="st4" d="M492.5,1000.7c-12.5-3.4-15.9-19.8-16.5-30.9c-0.7-13.3,2.7-26.5,9.7-37.8c0.8-1.3-1.2-2.5-2-1.2
		c-7.7,12.5-11.2,27.3-9.8,41.9c1.1,11.5,5.3,26.8,18,30.3C493.2,1003.3,493.9,1001.1,492.5,1000.7z"/>
	<path class="st4" d="M531.4,898.2c-15.5,4.1-32.5,9.1-41.3,23.8c-0.8,1.3,1.2,2.5,2,1.2c8.4-14.1,25-18.8,39.9-22.7
		C533.3,900.1,532.8,897.8,531.4,898.2z"/>
	<path class="st4" d="M523.3,1029.7c-9.2-4.6-15-13.8-16.8-23.7c-2.2-12,1.5-24.3,6.9-34.9c0.7-1.3-1.3-2.6-2-1.2
		c-5.7,11.2-9.5,24-7.2,36.6c1.9,10.5,8.2,20.3,17.8,25.2C523.4,1032.3,524.6,1030.4,523.3,1029.7z"/>
	<path class="st4" d="M522.2,950.7c-2.5,3.1-4.5,6.5-6.2,10.1c-0.6,1.3,1.3,2.6,2,1.2c1.7-3.6,3.7-7,6.2-10.1
		C525.1,950.7,523.2,949.5,522.2,950.7z"/>
	<path class="st4" d="M570.2,1012c-12.8-3.8-11.9-19.4-9.1-29.7c0.4-1.4-1.8-2.1-2.2-0.7c-1.8,6.8-3.2,14.3-0.7,21.1
		c1.9,5.3,5.9,9.8,11.4,11.4C571,1014.6,571.7,1012.4,570.2,1012z"/>
	<path class="st4" d="M572,834.9c-3.8,2.7-6.1,6.8-6.7,11.3c-0.2,1.5,2.1,1.5,2.3,0.1c0.5-4,2.7-7.4,6-9.7
		C574.8,835.8,573.2,834.1,572,834.9z"/>
	<path class="st4" d="M595.5,826.2c-6.2-0.9-12.2,0.8-17.3,4.5c-1.2,0.9,0.4,2.6,1.6,1.7c4.5-3.4,10-4.7,15.6-3.9
		C596.9,828.7,597,826.4,595.5,826.2z"/>
	<path class="st4" d="M773.2,1230.3c-32.9,17.1-67.2,31.4-102.6,42.5c-35,11-72.5,21.7-109.5,19.5c-20.1-1.2-39.8-6.7-56.8-17.7
		c-1.2-0.8-2.4,1.2-1.1,2c30.1,19.7,67.3,21,101.8,15.2c38.2-6.4,75.9-18.6,111.8-33c19.6-7.9,38.8-16.7,57.6-26.5
		C775.6,1231.6,774.5,1229.7,773.2,1230.3z"/>
	<path class="st4" d="M840.7,1214.3c-18.3,0.5-36.1,4.2-53.1,11.2c-1.3,0.5-0.7,2.7,0.6,2.2c16.7-6.9,34.4-10.6,52.5-11.1
		C842.1,1216.5,842.1,1214.2,840.7,1214.3z"/>
	<path class="st4" d="M689,1138.4c-25.4-7.9-47.7-23.3-63.9-44.4c-1-1.3-2.9,0.3-1.9,1.5c16.5,21.4,39.1,37.2,64.9,45.2
		C689.6,1141.2,690.6,1138.9,689,1138.4z"/>
	<path class="st4" d="M706.7,1168.4c-20.1-2.6-39.1-9.4-56.4-20c-1.3-0.8-2.8,1.1-1.5,2c17.6,10.9,37,17.8,57.5,20.5
		C708,1171,708.3,1168.6,706.7,1168.4z"/>
	<path class="st4" d="M693.1,884.5c-4-9-10.3-16.6-18.4-22.3c-1.2-0.8-2.3,1.1-1.1,2c7.8,5.5,13.7,12.8,17.6,21.4
		C691.8,887,693.7,885.8,693.1,884.5z"/>
	<path class="st4" d="M756.2,881.4c-3.8-1.5-6.6-4.6-7.9-8.4c0-0.9-0.8-1.2-1.5-1c-0.6,0.1-1,0.6-0.8,1.3c0,0,0,0,0,0
		c-0.1,5,1.2,9.7,4,13.8c0.8,1.2,2.8,0.1,2-1.1c-1.6-2.4-2.7-4.9-3.2-7.6c1.8,2.2,4.1,4,6.9,5.1C757,884.1,757.6,881.9,756.2,881.4z
		"/>
	<path class="st4" d="M524,696c1.7,3.3,4.6,5.7,8.2,6.8c1.2,0.4,1.6-1.5,0.5-1.8c-3.1-1-5.5-3-7.1-5.9
		C525.1,693.9,523.5,694.9,524,696z"/>
	<path class="st4" d="M517.5,700c1.8,2.4,4.1,4.3,6.7,5.7c1.1,0.6,2-1.1,0.9-1.6c-2.4-1.2-4.4-2.9-6-5
		C518.3,698,516.7,699,517.5,700z"/>
	<path class="st4" d="M513.5,704.3c1.5,2.8,3.9,4.9,6.9,6.1c1.1,0.4,2-1.2,0.9-1.6c-2.7-1.1-4.8-2.9-6.2-5.4
		C514.5,702.2,512.9,703.2,513.5,704.3z"/>
	<path class="st4" d="M768.5,673.4c-0.5,3.7-2.5,6.9-5.5,9.1c-1,0.7-2-0.8-1-1.6c2.6-2,4.2-4.7,4.7-7.9
		C766.9,671.8,768.7,672.2,768.5,673.4z"/>
	<path class="st4" d="M776.1,675c-0.9,2.9-2.4,5.4-4.5,7.6c-0.8,0.9-2.2-0.4-1.4-1.3c1.8-1.9,3.2-4.2,4-6.7
		C774.6,673.5,776.4,673.8,776.1,675z"/>
	<path class="st4" d="M781.2,677.7c-0.5,3.2-2,5.9-4.4,8.1c-0.9,0.8-2.3-0.5-1.4-1.3c2.2-1.9,3.5-4.3,4-7.2
		C779.6,676.2,781.4,676.5,781.2,677.7z"/>
	<path class="st4" d="M894.5,1399l10.3,18.7l5.4-1.9l-2.3-8.2c0,0,61,1.9,67.6-6.6c3.5-4.6-10.7-7.7-24.6-9.5
		c-12-1.6-23.7-2.3-23.7-2.3L894.5,1399z"/>
	<path class="st6" d="M894,1398.2c6.5,9.8,61,1.2,63.8-0.7c3.7-2.6-6.9-5.9-6.9-5.9c-12-1.6-24.1-3.2-24.1-3.2L894,1398.2z"/>
	<path class="st4" d="M546.6,1436.6l3.5,21l5.7-0.1l0.3-8.5c0,0,57.4,20.6,66.3,14.5c4.8-3.3-7.8-10.6-20.5-16.7
		c-10.9-5.2-21.8-9.5-21.8-9.5L546.6,1436.6z"/>
	<path class="st6" d="M546.7,1436.1c-1.5,6.4,56.8,19.5,60,18.5c4.3-1.3-4.7-7.7-4.7-7.7c-10.9-5.2-21.9-10.4-21.9-10.4
		L546.7,1436.1z"/>
</g>
<g>
	<g>
		<path class="st3" d="M1747.1,682.9c6.5,14.9,27.2,23.3,26.4,41.8c-0.1,2.4,3.3,2.9,4.1,1c0,0,0.1,0,0.1,0c9.9-1.5,18.7,1,28.6-0.5
			c1.8-0.3,2-2.2,1.2-3.3c0.7-7.7-1.1-19.4-6.4-25.2c-2.7-2.9-5.9-5.2-9.6-6.7c-4.2-1.8-9-2.2-13-4.5c-5-2.9-6.9-8.8-9-13.8
			c-6.8-16.9-7.7-6.6-7.7-6.6s-6.8-11-6.9-1.5c-4.2-8.4-7.9-2.2-6.7,0.6C1746.6,660.7,1734.5,654,1747.1,682.9z"/>
		<path class="st4" d="M1750.1,682c-1.3-3.2-2.5-6.5-3.5-9.8c-0.5-1.6-2.6-1-2.1,0.6c1.1,3.6,2.3,7.1,3.8,10.5
			C1748.8,684.8,1750.7,683.6,1750.1,682z"/>
		<path class="st4" d="M1755.7,679.5c-1.7-3-2.8-6.2-3.4-9.7c-0.3-1.7-2.4-1.1-2.1,0.6c0.7,3.7,1.9,7.2,3.6,10.4
			C1754.6,682.2,1756.5,681,1755.7,679.5z"/>
		<path class="st4" d="M1761.6,675.7c-1.4-2.5-2.3-5.2-2.7-8.2c-0.2-1.7-2.3-1.1-2.1,0.6c0.4,3.2,1.4,6.2,2.9,8.9
			C1760.5,678.4,1762.4,677.2,1761.6,675.7z"/>
	</g>
	<g>
		<path class="st3" d="M1937.3,560.1c1.2,18.4-17.6,40.1-4.5,57.5c-0.9,2.1,3.3,7.3,6.3,7.1c6.2-0.4,6.4-5.3,12.6-5.8
			c0.7,0.7,1.8,1.1,3.2,0.5c5.9-2.2,7.1-7.5,8.6-13.1c2.3-8.4,4.6-16.8,6.9-25.2c0.9-3.3-2.7-5.2-5.1-4.2c0.1-5.9-0.4-11.9-1.4-17.8
			c-0.4-2.7-3.4-3.2-5.4-2.1c-0.6-1.2-1.2-2.4-2-3.6c-1.8-2.9-6.3-2-6.7,1.4c-0.2-0.3-0.4-0.7-0.6-1c-2.3-3.4-7.2-1.4-6.6,2.5
			c0,0.3,0.1,0.6,0.1,0.9C1940.4,556.2,1937.1,557.1,1937.3,560.1z"/>
		<path class="st4" d="M1944.7,563.5c1.2,3.9,0.7,7.9-1.2,11.4c-0.6,1.1-2.4,0.1-1.8-1.1c1.7-3.1,2-6.5,1-9.9
			C1942.4,562.7,1944.4,562.3,1944.7,563.5z"/>
		<path class="st4" d="M1953,561.6c0.4,3.2,0.1,6.4-0.9,9.5c-0.4,1.2-2.4,0.7-2-0.6c0.9-2.7,1.2-5.6,0.9-8.4
			C1950.8,560.8,1952.8,560.3,1953,561.6z"/>
		<path class="st4" d="M1959.3,561.9c1,3.3,0.7,6.7-0.7,9.9c-0.5,1.2-2.5,0.6-2-0.6c1.3-2.9,1.5-5.8,0.6-8.8
			C1957,561.2,1959,560.7,1959.3,561.9z"/>
		<path class="st4" d="M1964.9,579.9c-1,3.3-1.4,6.7-1,10.1c0.1,1.3-1.9,1.8-2,0.5c-0.4-3.8-0.1-7.5,1-11.2
			C1963.3,578.1,1965.3,578.7,1964.9,579.9z"/>
	</g>
	<g>
		<path class="st3" d="M2095.8,1306c-4,1-7.9,4.1-11.4,6c-4.7,2.6-9.6,5-13.9,8.3c-0.2-0.2-0.3-0.4-0.5-0.6
			c-1.7-1.7-4.3,0.6-3.7,2.5c2.9,8.4,9.1,16.2,13.8,23.8c5,8.1,10,16.2,14.9,24.3c1.3,2.1,4.3,1.4,5.3-0.4c2.7-4.7,8.8-6.3,13.1-9.3
			c4.4-3.1,7.2-7.5,7-12.9c-0.3-7-4.5-13.6-7.5-19.7c-3.7-7.5-7.4-15-11.1-22.5C2100.4,1302.6,2096.2,1303.6,2095.8,1306z"/>
		<path class="st5" d="M2160.4,1346c0.4,0.3,0.8,0.6,1.1,0.9c2.8,2.5,3.7,5.5,3,5.9l-57.4,32.5c-2.9,1.6-6.6,0.6-8.1-2.3l-1.5-2.8
			l-0.6-1.1l-4.4-8.1c-0.2-0.4-0.5-0.8-0.7-1.2c-5.3-11.8,2.8-14.8,2.8-14.8c3.3-1.8,6.5-2.1,9.3-1.6c2.9,0.5,5.9-0.1,8.2-1.8
			c2-1.5,4.2-3.5,6-6c5.2-7,9.9,3.1,26.6-1.2c0.2-0.1,0.4-0.1,0.7-0.2c0.2-0.1,0.4-0.1,0.7-0.2
			C2152.6,1342.3,2157.3,1343.8,2160.4,1346z"/>
		<path class="st4" d="M2160.4,1346c0.4,0.3,0.8,0.6,1.1,0.9c-1,0.6-1.9,1.1-2.8,1.7c-3.1,1.9-6.3,3.8-9.4,5.6
			c-0.1,0.2-0.3,0.3-0.6,0.3c-6.2,3.5-12.4,7-18.8,10.3c-6.5,3.4-13.1,6.6-19.8,9.7c-4.2,1.9-8.4,3.9-12.7,5.8l-0.6-1.1
			c4.3-1.9,8.6-3.7,12.9-5.7c6.8-3.2,13.6-6.5,20.3-10c6-3.1,11.9-6.4,17.8-9.8c-1.7-2.5-2.9-5.9-3-9.2c0.2-0.1,0.4-0.1,0.7-0.2
			c0.2-0.1,0.4-0.1,0.7-0.2c0,0.3,0,0.6,0,0.9c0.1,2.9,1.1,5.7,2.7,8.1c0.1-0.1,0.3-0.1,0.4-0.2c3.3-1.9,6.5-3.8,9.8-5.8
			C2159.4,1346.6,2159.9,1346.3,2160.4,1346z"/>
		<path class="st4" d="M2124,1334.5c-1.9,1.9-1,5.2,0.1,7.2c1.2,2.3,3.2,4.2,5.7,5.2c0,0.1-0.1,0.1-0.1,0.2
			c-3.3-2.5-10.3-0.1-9.8,4.4c0.4,2.8,3.5,2,5.3,1.1c1.8-0.9,3.3-2.1,4.6-3.6c-0.1,0.7-0.1,1.4,0,2c0.1,0.5,0.8,0.5,0.9,0
			c0.2-1.2,0.3-2.3,0.7-3.4c0.4-1,1.1-1.8,1.5-2.8c0.1-0.4-0.3-0.8-0.7-0.5c-0.4,0.3-0.8,0.7-1.1,1.1c-0.1,0-0.1,0-0.2,0
			c-0.3-1.7-0.7-3.4-1-5.2c-0.3-1.6-0.4-3.4-1.1-4.9C2127.8,1333.4,2125.6,1332.9,2124,1334.5z M2121.1,1350.8
			c0-1.9,2.5-3.2,4.1-3.5c1.4-0.3,2.6,0.1,3.9,0.6c-0.6,0.8-1.3,1.5-2.1,2.2C2126,1350.7,2121.1,1354,2121.1,1350.8z M2127.4,1335.3
			c0.4,0.6,0.6,1.3,0.7,2c0.2,1,0.4,2,0.6,3c0.3,1.8,0.7,3.5,1,5.3c-3.1-1.7-6.3-5.1-5.4-8.8
			C2124.6,1334.9,2125.6,1334.4,2127.4,1335.3z"/>
		<path class="st4" d="M2138.3,1343.8c-1.7,0.9-3.4,4.2-3.1,6c0.1,0.4,0.5,0.4,0.7,0.1c0.6-0.9,0.8-2,1.3-2.9
			c0.5-0.9,1.3-1.7,1.8-2.7C2139.2,1343.9,2138.7,1343.6,2138.3,1343.8z"/>
		<path class="st3" d="M1792,1321.1c-2.8-3-7.4-5-10.7-7.1c-4.6-2.9-9-6-14-8.2c0.1-0.2,0.2-0.5,0.3-0.7c0.8-2.3-2.5-3.5-4-2
			c-6.2,6.5-10.3,15.6-14.9,23.1c-5,8.1-9.9,16.3-14.8,24.4c-1.3,2.1,0.8,4.3,2.9,4.4c5.5,0.2,9.8,4.7,14.5,7
			c4.9,2.4,10.1,2.7,14.9,0c6.2-3.5,10.1-10.3,14.2-15.8c5-6.7,10-13.4,15-20.2C1797.2,1323.5,1794.4,1320.3,1792,1321.1z"/>
		<path class="st0" d="M1977.6,857.4c-0.2-3.9-5.9-3.5-6,0.3c0,0.9-0.1,1.8-0.1,2.6c-13.3-0.5-26.5-1.1-39.8-3
			c-6.8-0.9-13.5-2.1-20.2-3.4c-4.3-0.9-8.6-2-12.9-3c0-1.3,0-2.5,0.1-3.8c0-4.1-6.1-3.6-6.3,0.3c0,0.7-0.1,1.5-0.1,2.2
			c-0.8-0.1-1.5-0.2-2.3-0.3c-2.5-0.3-4.2,3.2-1.6,4.4c1.1,0.5,2.3,1,3.5,1.4c-0.3,5-0.6,9.9-1,14.9c-1.5,21.9-3.2,43.7-6.2,65.4
			c-3.9,28.7-9.2,57.3-15.9,85.5c-0.6,2.5-1.2,4.9-1.8,7.3c-13.2,53.2-29.7,92-53,143.1c-13.7,30-56.2,99-72.6,127.6
			c-1.5,2.7,53.9,29.9,54.6,28.9c23.4-33.5,56.7-88.8,85.4-139c0.6-1.1,1.3-2.2,1.9-3.3c1-1.8,2.1-3.7,3.1-5.5c0.6-1,1.1-2,1.7-3
			c3.5-6.1,6.8-12.1,10.1-18c0.6-1.1,1.2-2.1,1.8-3.2c1.5-2.8,3.1-5.6,4.6-8.3l0,0c0.5-1,1.1-2,1.6-2.9c4.9-9,9.5-17.5,13.5-25.2
			c0.9-1.8,1.8-3.5,2.7-5.2c24.6-47.4,30.8-83.1,40.2-130.9c1.5-7.5,3-15.4,4.8-23.6c3.5-16.8,6.2-33.8,8-50.9
			c1.5-14.5,2.7-29.2,2.6-43.9c0.4-0.9,0.4-1.9,0-2.8C1977.8,860.7,1977.7,859.1,1977.6,857.4z"/>
		<path class="st4" d="M1891.9,1071.8c-21.4,63.8-50.5,125-86.6,182.1c-10.4,16.4-21.4,32.5-32.9,48.1c-1.3,1.7,1.3,4,2.6,2.2
			c40.6-55.3,74.4-115.3,100.4-178.6c7.2-17.5,13.8-35.2,19.8-53.2C1895.9,1070.4,1892.6,1069.7,1891.9,1071.8z"/>
		<path class="st0" d="M2120.5,1317.4l-54.3,27.9c0,0-82.6-121.1-146.5-225.7c-20.6-33.7-39.2-65.7-52.6-91.3
			c-9-17.3-15.5-31.7-18.6-41.8c-22-72,1.3-118.1,1.8-120.7l40.7,4.3l18.8,2l52.8,111.5l48,101.4l1.5,3.1l16.8,35.5l1.5,3.2
			L2120.5,1317.4z"/>
		<path class="st7" d="M1961.2,613.2c-0.1-0.3-31.9-4.4-32.5-3.4c-12,20.2,20.1,116.2,51.1,144.4c-11.7-4-17.5-8.1-29.6-10.2
			c-1.1-0.2-2.3-0.4-3.4-0.6c-21.9-3.4-44.2-3.7-66.1-0.7c-1.2,0.2-2.3,0.3-3.5,0.5c-46.4,7.6-63.9,44.3-71,48.1
			c3.1-17.1,9.9-35.2,3.5-85.2c-0.3-2.3-25.4,3.9-42.3,7.2c-3.8,0.7-41.4,85.4-25.9,152.4c4.2,18,19.1,39.4,50.4,32.9
			c19.3-4,45-36.1,49.1-53c-1.5,12.3,3.6,40.4,41.1,49.3c18.1,4.3,37.2,4.5,55.6,2.2c16-2,34.1-5.2,43.9-19.1
			c10.4-14.8,8.9-33.1,6-50.1c26.7,6.1,74.5,4.9,79.4-31.9C2076.1,727,1969.8,644.3,1961.2,613.2z"/>
		<path class="st4" d="M1953.9,676.7c-2.1-3.6-6.3-6.2-11-6.1c-5.8,0.1-11.5,3.7-17.1,5.3c-10.9,3.2-22.9,5.9-29,15.7
			c-5.7,9-4.5,19.7,2.3,27.1c1.3,1.4,3,1.6,4.5,1.1c3,1.5,8.1,0,8.1-4.2c-0.1-5.3,5.6-8.5,10.6-10.1c6.4-2.1,13.1-3,19.3-5.7
			C1951.2,695.7,1959.2,685.8,1953.9,676.7z"/>
		<path class="st3" d="M1939.9,703.5c-9.4-18.6-39.3-10.1-38.4,10.2c-0.3,0.1-0.5,0.1-0.8,0.2c-3,0.9-5.7,3.1-6.4,6.2
			c-0.9,3.4,0.8,6.9,3.9,8.7c3.5,2,7.4,1.3,11,0c3.4,2.9,7.8,4.7,12.5,4.8c10.1,0.4,20.9-7.3,21.6-17.2
			C1943.8,708.5,1940.8,705.1,1939.9,703.5z"/>
		<path class="st3" d="M1931.6,717.7l-0.9,32.7c-4.5,5.6-15.7,4.7-22.5,3.4c-3.1-0.6-5.1-3.7-4.3-6.7c1.3-4.6,3.1-11.4,4.6-16.3
			c0.3-0.9,0.5-1.8,0.8-2.6c0.6-2,1.1-3.4,1.3-3.7L1931.6,717.7z"/>
		<path class="st5" d="M1786.4,1395.9c-0.1,0.5-0.2,0.9-0.3,1.4c-0.9,3.6-3.2,5.8-3.9,5.3l-56.2-34.5c-2.8-1.7-3.6-5.4-1.8-8.1
			l1.8-2.6l0.7-1.1l5.2-7.6c0.2-0.4,0.5-0.8,0.8-1.2c8.2-10.1,14.6-4.5,14.6-4.5c3.2,2,4.9,4.7,5.8,7.3c0.9,2.8,2.8,5.1,5.5,6.2
			c2.3,1,5.1,2,8.3,2.4c8.7,1.2,1.8,10.1,13.6,22.6c0.1,0.2,0.3,0.3,0.5,0.5c0.2,0.2,0.3,0.3,0.5,0.5
			C1786.1,1387.5,1787,1392.2,1786.4,1395.9z"/>
		<path class="st4" d="M1786.4,1395.9c-0.1,0.5-0.2,0.9-0.3,1.4c-0.9-0.6-1.9-1.1-2.8-1.7c-3.2-1.8-6.3-3.7-9.4-5.6
			c-0.2,0-0.5-0.1-0.6-0.3c-6.1-3.7-12.1-7.5-18-11.5c-6.1-4.1-12.1-8.3-18-12.6c-3.7-2.7-7.5-5.4-11.1-8.3l0.7-1.1
			c3.7,2.8,7.4,5.7,11.2,8.5c6.1,4.4,12.2,8.7,18.5,12.9c5.6,3.7,11.4,7.4,17.2,10.9c1.5-2.6,3.9-5.2,6.8-6.9
			c0.1,0.2,0.3,0.3,0.5,0.5c0.2,0.2,0.3,0.3,0.5,0.5c-0.3,0.1-0.5,0.3-0.8,0.4c-2.6,1.5-4.6,3.6-6,6.2c0.1,0.1,0.3,0.2,0.4,0.2
			c3.2,2,6.5,3.9,9.8,5.8C1785.4,1395.4,1785.9,1395.6,1786.4,1395.9z"/>
		<path class="st4" d="M1779.7,1359c-2.6-0.7-5.1,1.6-6.4,3.4c-1.5,2.1-2.3,4.8-2,7.3c-0.1,0-0.1,0-0.2,0c0.7-4-4.7-9-8.5-6.4
			c-2.4,1.6-0.1,4,1.5,5.1c1.6,1.1,3.5,1.9,5.4,2.3c-0.7,0.3-1.3,0.6-1.9,0.9c-0.4,0.3-0.1,1,0.4,0.8c1.1-0.4,2.2-0.8,3.4-1
			c1.1-0.1,2.2,0.1,3.3,0c0.4-0.1,0.6-0.6,0.2-0.8c-0.4-0.2-1-0.4-1.5-0.4c0,0,0-0.1-0.1-0.1c1.4-1.1,2.8-2.2,4.2-3.3
			c1.3-1,2.9-2,3.8-3.3C1782.4,1361.7,1781.8,1359.6,1779.7,1359z M1763.6,1364.1c1.7-0.9,4,0.6,5,1.9c0.9,1.1,1.2,2.3,1.3,3.6
			c-1-0.2-2-0.4-2.9-0.8C1766,1368.3,1760.7,1365.6,1763.6,1364.1z M1780.5,1362.3c-0.4,0.6-0.9,1.1-1.4,1.5
			c-0.8,0.7-1.6,1.3-2.4,1.9c-1.4,1.1-2.8,2.2-4.2,3.4c0.1-3.5,1.7-7.8,5.3-8.9C1779.6,1359.7,1780.5,1360.4,1780.5,1362.3z"/>
		<path class="st4" d="M1778,1375.8c-1.6-1.1-5.3-1-6.9,0.1c-0.3,0.2-0.1,0.6,0.2,0.7c1.1,0.1,2.2-0.2,3.3-0.2
			c1.1,0,2.2,0.4,3.2,0.3C1778.3,1376.6,1778.4,1376,1778,1375.8z"/>
		<path class="st4" d="M2030.2,1126.7c-1.5,1.3-3.2,2.4-5.1,3.3c-8.6,3.8-19.3,1.2-25.5-5.5c-12.1-13.1-5.1-34.5,10.9-39.5l1.5,3.1
			c-13.6,3.9-20,21.5-10.6,33.2c5.2,6.4,14.8,9,22.5,5.6c1.9-0.8,3.5-2,4.9-3.4L2030.2,1126.7z"/>
		<path class="st4" d="M1899.9,1156.1c-0.6,1.1-1.2,2.1-1.8,3.2c-4.7-0.5-9.8,1-13.5,5c-6.1,6.5-5.7,15-1.3,21.5
			c-0.6,1.1-1.2,2.2-1.9,3.3c-6.5-8.4-6.8-20.7,2.3-28.6C1888.5,1156.3,1894.5,1155,1899.9,1156.1z"/>
		<path class="st4" d="M1864.2,918.3c0.4,8.2-3.1,16-9.6,21.2c-1.7,1.4,0.2,4.2,1.9,2.8c7.5-6,11.6-14.7,11.1-24.2
			C1867.6,915.9,1864.1,916.1,1864.2,918.3z"/>
		<path class="st4" d="M2074.7,1324.6c-31.8-46.1-62.8-92.7-93-139.8c-30.1-46.9-60.2-94.1-87.7-142.5
			c-15.1-26.6-28.7-54.3-36.6-83.8c-0.6-2.1-3.8-1-3.3,1c14.1,52.4,45,98.9,73.2,144.9c29.6,48.1,59.9,95.8,91.1,142.9
			c17.6,26.5,35.4,52.9,53.4,79.1C2073.1,1328.3,2076,1326.4,2074.7,1324.6z"/>
		<path class="st4" d="M1950.1,744c-1.6,16.5-19.3,27-35.8,26.9c-16.4-0.1-37.9-9.6-37.2-27.7c1.2-0.2,2.3-0.3,3.5-0.5
			c-1.1,17,20.2,25.2,35.1,24.8c14.6-0.4,29.7-9.6,31.1-24.1C1947.8,743.6,1949,743.8,1950.1,744z"/>
		<path class="st4" d="M1853.5,781.8c-5.6,10.3-8.6,21.6-8.9,33.3c-0.1,2.2,3.4,2,3.4-0.2c0.3-11.1,3.2-21.8,8.6-31.6
			C1857.6,781.4,1854.5,779.9,1853.5,781.8z"/>
		<path class="st4" d="M1964.7,767.4c-1.2-1.8-4.1,0.1-2.9,1.9c8.2,11.9,13.7,25.3,16.3,39.5c0.4,2.1,3.8,2,3.4-0.2
			C1978.9,793.8,1973.3,779.9,1964.7,767.4z"/>
		<path class="st4" d="M2028.7,779c-9.1-1.7-17.1-5.9-23.8-12.2c-1.6-1.5-3.8,1-2.3,2.5c7,6.7,15.7,11.2,25.3,13
			C2030.1,782.7,2030.9,779.4,2028.7,779z"/>
		<path class="st7" d="M1932.4,746.8c-2,6.4-8.7,8.9-15,8.3c-6-0.6-14.2-3.3-14.2-10.4c0-2.2-3.4-2-3.4,0.2
			c0,8.8,9.6,12.9,17.3,13.6c8.2,0.8,16.2-3,18.6-11C1936.4,745.4,1933,744.7,1932.4,746.8z"/>
		<path class="st4" d="M1797.7,802.9c-3.8,5.5-8.6,10-14.3,13.5c-1.5,0.9-0.4,3.3,1.1,2.4c4.4-2.7,8.3-6,11.6-9.7
			c-1.2,4.6-2.6,9.1-4.2,13.5c-0.6,1.6,1.9,2.5,2.5,0.9c2.4-6.4,4.3-13,5.6-19.7C1800.4,802.4,1798.4,801.9,1797.7,802.9z"/>
		<path class="st4" d="M1924.5,734.2c-5.6,0.9-11.3-0.3-16-3.4c0.3-0.9,0.5-1.8,0.8-2.6c0.1,0,0.3,0.1,0.4,0.2c4.5,3,9.5,4,14.8,3.2
			C1926.1,731.2,1926.2,733.9,1924.5,734.2z"/>
		<path class="st4" d="M1969.3,909c-2.7-2.7-4-6.2-3.9-10c0-1.7-2.7-1.6-2.7,0.1c-0.1,4.5,1.6,8.6,4.8,11.8
			C1968.7,912.2,1970.5,910.2,1969.3,909z"/>
		<path class="st4" d="M1931.3,710.2c-1.6-1.7-2.8-3.7-3.5-5.9c-0.5-1.6-3.1-1.2-2.7,0.4c0.8,2.7,2.1,5.1,4.1,7.2
			C1930.4,713.2,1932.5,711.5,1931.3,710.2z"/>
		<path class="st4" d="M1920.6,706c-2.3,0.2-2.2,3.8,0.1,3.5C1923,709.3,1922.9,705.7,1920.6,706z"/>
		<path class="st4" d="M1933.2,703.3c-0.9,0.1-1.9,0.8-1.7,1.8l0,0.2c0.1,0.9,0.8,1.8,1.9,1.7c0.9-0.1,1.9-0.8,1.7-1.8l0-0.2
			C1935,704.1,1934.2,703.2,1933.2,703.3z"/>
		<path class="st4" d="M1919.8,703c-0.3-0.7-0.9-1-1.7-0.9c-1.2,0.3-2.2,1.1-2.7,2.1c-0.3,0.6-0.1,1.5,0.6,1.8
			c0.6,0.3,1.5,0.1,1.8-0.6c0-0.1,0.1-0.1,0.1-0.2c0,0,0,0,0.1-0.1c0.1-0.1,0.1-0.1,0.2-0.2c-0.1,0.1-0.1,0.1,0,0
			c0,0,0.3-0.2,0.3-0.2c0.1-0.1,0.3-0.1,0.4-0.1C1919.6,704.5,1920,703.6,1919.8,703z"/>
		<path class="st4" d="M1935.7,700.4c-1-1-2.5-1.5-4-1.3c-0.7,0.1-1.3,0.6-1.3,1.4c0,0.7,0.7,1.4,1.4,1.3c0.8-0.1,1.5,0.1,2.1,0.6
			C1935.1,703.5,1936.9,701.6,1935.7,700.4z"/>
		<path class="st4" d="M1934.9,716.6c-2.2,2.5-5.4,3.4-8.6,2.4c-1.7-0.5-2.3,2.1-0.6,2.6c4.1,1.2,8.5,0,11.3-3.2
			C1938.1,717.1,1936.1,715.3,1934.9,716.6z"/>
		<path class="st4" d="M1903.8,717.5c-1.7-0.4-3.6,0.2-4.6,1.6c-1.1,1.4-1,3.3-0.2,4.8c0.9,1.5,3.1,0,2.3-1.4
			c-0.8-1.3,0.4-2.8,1.9-2.4C1904.9,720.5,1905.5,717.9,1903.8,717.5z"/>
	</g>
</g>
<g>
	<g>
		<path class="st3" d="M1623.7,657.6c1.9,16.5-12.9,39.6-0.6,54.6c-0.7,2,7.3,122.3,9.9,122c5.5-0.7,32.5-11.3,37.9-11.9
			c0.7,0.6,10-1.9,11.2-2.4c5.1-2.3-34.4-116.9-33.3-122c1.7-7.6,3.3-15.3,5-22.9c0.6-3-2.6-4.6-4.6-3.6c-0.2-5.3-0.9-10.6-2-15.9
			c-0.5-2.4-3.2-2.7-4.8-1.6c-0.6-1.1-1.2-2.1-1.9-3.1c-1.7-2.5-5.7-1.5-5.9,1.5c-0.2-0.3-0.4-0.6-0.6-0.9c-2.2-3-6.4-1-5.8,2.6
			c0,0.3,0.1,0.5,0.1,0.8C1626.2,654,1623.4,654.9,1623.7,657.6z"/>
		<path class="st4" d="M1630.4,660.4c1.2,3.4,1,7-0.6,10.3c-0.5,1.1-2.1,0.2-1.6-0.9c1.4-2.9,1.5-5.9,0.4-8.9
			C1628.2,659.8,1630,659.3,1630.4,660.4z"/>
		<path class="st4" d="M1637.5,658.3c0.5,2.9,0.4,5.7-0.4,8.5c-0.3,1.1-2.1,0.7-1.8-0.4c0.7-2.5,0.8-5,0.4-7.6
			C1635.6,657.7,1637.3,657.2,1637.5,658.3z"/>
		<path class="st4" d="M1643.2,658.3c1,2.9,0.9,6-0.2,8.9c-0.4,1.1-2.2,0.7-1.8-0.4c1-2.6,1.1-5.3,0.2-8
			C1641.1,657.7,1642.8,657.2,1643.2,658.3z"/>
		<path class="st4" d="M1648.9,674.2c-0.7,3-0.9,6.1-0.4,9.1c0.2,1.1-1.6,1.7-1.7,0.5c-0.5-3.4-0.4-6.7,0.4-10.1
			C1647.4,672.6,1649.1,673.1,1648.9,674.2z"/>
	</g>
	<path class="st3" d="M1476.6,650.6c0.1-0.2,0.3-0.5,0.4-0.7c1.9-3.2-1.4-6.6-4.6-4.5c-0.3,0.2-0.6,0.4-0.9,0.6
		c0.9-3-2.5-5.4-5.1-3.6c-1.1,0.7-2,1.5-3,2.3c-1.2-1.7-3.9-2.3-5.3-0.2c-3,4.7-5.6,9.5-7.7,14.6c-1.6-1.7-5.3-1.3-5.8,1.8
		c-1.2,8-1,16.2-3.5,23.9c-53,166.9,7.9,124.7,12.9,127.3c2.4,1.2,11.5-105.4,11.5-107.6c17.2-10,6.5-34.3,14.3-49.4
		C1481.3,652.4,1478.8,650.5,1476.6,650.6z"/>
	<path class="st4" d="M1541.3,836.3c-2.2,0.6-4.3,1.6-6.1,3c-2.6-8.1-6.7-16-12.5-22.2c-4.9-5.2-11.5-5.4-15.2,1.1
		c-9.1,15.7,3.1,35.1,19,39.4c0.4,3.2,1.7,6.3,4.1,8.9c0,0,0.1,0,0.1,0.1c0.2,0.9,1.6,1.2,1.8,0.1c1.5-7.6,5.6-14.7,13.1-17.5
		c8.2-3.1,17.5,0.8,19.4,9.7c0.2,1.2,2,0.7,1.8-0.4c0.2-0.1,0.3-0.4,0.3-0.6C1567.9,844,1555.1,832.5,1541.3,836.3z"/>
	<path class="st3" d="M1664.3,1410.9c-3.6,0.6-7.3,3.1-10.5,4.5c-4.4,2-8.9,3.8-12.9,6.5c-0.1-0.2-0.3-0.4-0.4-0.5
		c-1.4-1.7-3.9,0.2-3.4,2c1.9,7.8,6.9,15.3,10.4,22.4c3.8,7.7,7.6,15.3,11.4,23c1,2,3.7,1.6,4.7,0c2.8-4,8.3-5,12.3-7.4
		c4.1-2.5,6.9-6.2,7.2-11.1c0.3-6.3-3-12.5-5.2-18.3c-2.7-7-5.4-14-8.1-21C1668.6,1408.3,1664.8,1408.8,1664.3,1410.9z"/>
	<path class="st0" d="M1718.4,1451.7c0.3,0.3,0.6,0.6,0.9,0.9c2.3,2.5,2.8,5.2,2.2,5.5l-53.2,25c-2.7,1.3-5.9,0.1-7-2.7l-1.1-2.6
		l-0.5-1.1l-3.3-7.6c-0.2-0.4-0.4-0.7-0.5-1.2c-3.8-11,3.6-13.1,3.6-13.1c3.1-1.4,5.9-1.4,8.3-0.7c2.5,0.7,5.2,0.4,7.4-1
		c1.9-1.2,4-2.9,5.8-5c5.1-5.9,8.6,3.6,23.6,0.9c0.2,0,0.4-0.1,0.6-0.1c0.2,0,0.4-0.1,0.6-0.1
		C1711.8,1447.8,1715.9,1449.5,1718.4,1451.7z"/>
	<path class="st4" d="M1718.4,1451.7c0.3,0.3,0.6,0.6,0.9,0.9c-0.9,0.4-1.8,0.9-2.6,1.3c-2.9,1.5-5.8,2.9-8.8,4.3
		c-0.1,0.2-0.3,0.3-0.5,0.3c-5.7,2.7-11.5,5.3-17.4,7.8c-6,2.6-12.1,5-18.2,7.3c-3.8,1.4-7.7,2.9-11.6,4.2l-0.5-1.1
		c3.9-1.4,7.9-2.7,11.8-4.2c6.3-2.4,12.5-4.9,18.7-7.5c5.6-2.4,11.1-4.9,16.5-7.5c-1.3-2.4-2.1-5.5-2-8.5c0.2,0,0.4-0.1,0.6-0.1
		c0.2,0,0.4-0.1,0.6-0.1c0,0.2,0,0.5-0.1,0.8c-0.1,2.6,0.5,5.2,1.8,7.5c0.1-0.1,0.3-0.1,0.4-0.2c3-1.5,6.1-3,9.1-4.5
		C1717.5,1452.2,1717.9,1451.9,1718.4,1451.7z"/>
	<path class="st4" d="M1687.1,1438.7c-1.8,1.5-1.3,4.6-0.5,6.5c0.9,2.2,2.5,4,4.6,5.1c0,0.1-0.1,0.1-0.1,0.2c-2.7-2.5-9.1-0.9-9,3.2
		c0.1,2.6,3,2,4.6,1.4c1.6-0.7,3.1-1.7,4.3-2.9c-0.1,0.6-0.2,1.3-0.2,1.8c0,0.4,0.7,0.5,0.8,0.1c0.2-1,0.4-2.1,0.9-3
		c0.4-0.9,1.1-1.6,1.5-2.4c0.2-0.4-0.2-0.7-0.5-0.5c-0.4,0.2-0.8,0.5-1.1,0.9c0,0-0.1,0-0.1,0c-0.2-1.6-0.3-3.1-0.5-4.7
		c-0.2-1.4-0.1-3.1-0.6-4.5C1690.5,1438,1688.6,1437.4,1687.1,1438.7z M1683.3,1453.1c0.1-1.7,2.4-2.7,3.8-2.8
		c1.3-0.1,2.3,0.3,3.4,0.8c-0.6,0.7-1.3,1.3-2.1,1.8C1687.6,1453.4,1683.1,1456,1683.3,1453.1z M1690,1439.7
		c0.3,0.6,0.4,1.2,0.5,1.8c0.1,0.9,0.2,1.8,0.3,2.7c0.2,1.6,0.3,3.2,0.5,4.8c-2.6-1.8-5.1-5.1-4.1-8.3
		C1687.6,1439.1,1688.6,1438.8,1690,1439.7z"/>
	<path class="st4" d="M1699.1,1448.1c-1.6,0.7-3.3,3.5-3.2,5.2c0,0.3,0.4,0.4,0.6,0.2c0.6-0.8,0.9-1.7,1.4-2.5
		c0.5-0.8,1.3-1.4,1.8-2.3C1699.8,1448.3,1699.4,1448,1699.1,1448.1z"/>
	<path class="st3" d="M1394.4,1402.1c-2.2-2.9-6.1-5-8.9-7.2c-3.8-2.9-7.5-6.1-11.8-8.4c0.1-0.2,0.2-0.4,0.3-0.6
		c0.9-2-2-3.3-3.4-2.1c-5.9,5.4-10.3,13.2-14.9,19.7c-5,6.9-10,13.9-15,20.9c-1.3,1.8,0.3,4,2.2,4.2c4.9,0.6,8.3,4.9,12.3,7.4
		c4.1,2.5,8.7,3.2,13.2,1.1c5.7-2.7,9.7-8.5,13.7-13.1c4.9-5.7,9.9-11.3,14.8-17C1398.8,1404.7,1396.6,1401.5,1394.4,1402.1z"/>
	<path class="st2" d="M1593.5,998.8c0.1-3.5-4.9-3.6-5.3-0.2c-0.1,0.8-0.2,1.6-0.3,2.4c-11.8-1.4-23.4-3-35-5.6
		c-5.9-1.3-11.8-2.9-17.6-4.6c-3.7-1.1-7.4-2.4-11.2-3.6c0.1-1.1,0.2-2.3,0.3-3.4c0.3-3.6-5.1-3.7-5.6-0.2c-0.1,0.7-0.2,1.3-0.3,2
		c-0.7-0.2-1.3-0.3-2-0.5c-2.2-0.5-4,2.6-1.7,3.8c1,0.5,2,1,3,1.5c-0.7,4.4-1.3,8.9-2,13.3c-2.9,19.6-6.1,39-10.4,58.4
		c-5.6,25.6-12.5,50.9-20.5,75.8c-0.7,2.2-1.4,4.3-2.1,6.4c-15.7,46.8-33.2,80.6-57.6,124.8c-14.3,26-57.1,84.9-73.9,109.4
		c-1.6,2.3,45.4,30.9,46.1,30c23.2-28.4,56.9-75.7,86-118.7c0.6-0.9,1.3-1.9,1.9-2.8c1.1-1.6,2.1-3.2,3.2-4.7
		c0.6-0.9,1.1-1.7,1.7-2.5c3.5-5.3,6.9-10.4,10.3-15.4c0.6-0.9,1.2-1.8,1.8-2.7c1.6-2.4,3.1-4.8,4.7-7.1l0,0
		c0.6-0.9,1.1-1.7,1.6-2.5c5-7.8,9.7-15.1,13.8-21.7c1-1.5,1.9-3,2.8-4.5c25.3-40.9,33.5-72.5,45.4-114.8c1.9-6.7,3.8-13.6,6-20.9
		c4.4-14.9,8.1-30,10.9-45.2c2.4-12.9,4.6-26.1,5.6-39.3c0.4-0.7,0.5-1.7,0.2-2.5C1593.4,1001.7,1593.5,1000.2,1593.5,998.8z"/>
	<path class="st4" d="M1501.6,1185.2c-23.7,55.8-54.1,108.7-90.3,157.4c-10.4,14-21.3,27.6-32.7,40.9c-1.3,1.5,0.8,3.7,2.1,2.2
		c40.1-46.7,74.5-98.2,102.3-153.2c7.7-15.2,14.8-30.7,21.5-46.4C1505.2,1184.3,1502.3,1183.4,1501.6,1185.2z"/>
	<path class="st2" d="M1685.3,1423l-50.1,21.1c0,0-64-115-112.6-213.8c-15.7-31.8-29.8-62-39.6-86c-6.6-16.2-11.3-29.7-13.3-39
		c-14-66.3,10-106.1,10.7-108.4l35.7,6.9l16.5,3.2l38.3,104.2l34.8,94.8l1.1,2.9l12.2,33.1l1.1,3L1685.3,1423z"/>
	<path class="st0" d="M1383.9,1469c-0.1,0.4-0.2,0.8-0.4,1.2c-1.1,3.2-3.2,4.9-3.8,4.5l-47.1-35.2c-2.4-1.8-2.8-5.1-1-7.5l1.8-2.2
		l0.7-0.9l5.2-6.5c0.2-0.3,0.5-0.7,0.8-1c8-8.5,13.3-2.9,13.3-2.9c2.7,2.1,4,4.6,4.5,7c0.6,2.5,2.1,4.8,4.4,6c2,1.1,4.4,2.2,7.1,2.8
		c7.6,1.7,0.9,9.2,10.3,21.3c0.1,0.2,0.2,0.3,0.4,0.5c0.1,0.2,0.3,0.3,0.4,0.5C1384.2,1461.3,1384.6,1465.7,1383.9,1469z"/>
	<path class="st4" d="M1383.9,1469c-0.1,0.4-0.2,0.8-0.4,1.2c-0.8-0.6-1.6-1.2-2.4-1.7c-2.7-1.9-5.3-3.8-7.9-5.7
		c-0.2,0-0.4-0.2-0.5-0.3c-5.1-3.8-10.1-7.7-15.1-11.7c-5.1-4.1-10.1-8.3-15-12.7c-3.1-2.7-6.2-5.4-9.2-8.3l0.7-0.9
		c3.1,2.8,6.1,5.7,9.3,8.4c5,4.4,10.2,8.7,15.4,12.9c4.7,3.8,9.5,7.5,14.4,11.1c1.5-2.3,3.9-4.4,6.5-5.7c0.1,0.2,0.2,0.3,0.4,0.5
		c0.1,0.2,0.3,0.3,0.4,0.5c-0.2,0.1-0.5,0.2-0.7,0.3c-2.4,1.2-4.3,2.9-5.8,5.1c0.1,0.1,0.2,0.2,0.3,0.3c2.7,2,5.5,4,8.2,5.9
		C1383,1468.4,1383.4,1468.7,1383.9,1469z"/>
	<path class="st4" d="M1380.7,1435.2c-2.2-0.9-4.6,1-6,2.6c-1.5,1.8-2.4,4.1-2.3,6.5c-0.1,0-0.1,0-0.2,0c0.9-3.6-3.5-8.5-7.1-6.4
		c-2.2,1.3-0.4,3.6,0.9,4.7c1.4,1.1,2.9,2,4.6,2.5c-0.6,0.2-1.2,0.4-1.7,0.7c-0.4,0.2-0.2,0.9,0.3,0.7c1-0.3,2-0.6,3.1-0.6
		c1,0,1.9,0.3,2.9,0.2c0.4,0,0.6-0.5,0.2-0.7c-0.4-0.3-0.8-0.4-1.3-0.5c0,0,0-0.1-0.1-0.1c1.3-0.9,2.6-1.8,3.9-2.6
		c1.2-0.8,2.7-1.5,3.6-2.7C1382.9,1437.9,1382.5,1436,1380.7,1435.2z M1366.1,1438.6c1.6-0.7,3.5,0.9,4.3,2.1
		c0.7,1.1,0.9,2.2,0.9,3.4c-0.9-0.2-1.7-0.5-2.5-1C1367.9,1442.6,1363.5,1439.8,1366.1,1438.6z M1381.2,1438.3
		c-0.4,0.5-0.8,0.9-1.4,1.3c-0.7,0.5-1.5,1-2.3,1.5c-1.3,0.9-2.7,1.8-4,2.7c0.3-3.1,2.1-6.9,5.4-7.6
		C1380.5,1435.9,1381.3,1436.6,1381.2,1438.3z"/>
	<path class="st4" d="M1619.8,1244.9c-1.4,1.1-3,1.9-4.8,2.6c-7.9,2.8-17.1-0.3-22.2-6.9c-9.7-12.7-1.9-31.4,12.6-34.7l1.1,2.9
		c-12.3,2.5-19.3,17.9-11.9,29.1c4.1,6.2,12.5,9.2,19.5,6.7c1.7-0.6,3.3-1.5,4.6-2.7L1619.8,1244.9z"/>
	<path class="st4" d="M1502.3,1261.6c-0.6,0.9-1.2,1.8-1.8,2.7c-4.2-0.8-8.7,0.2-12.3,3.5c-5.9,5.4-6.2,13.1-2.8,19.2
		c-0.6,0.9-1.3,1.9-1.9,2.8c-5.1-8.1-4.5-19.1,4.2-25.6C1492.2,1261,1497.6,1260.3,1502.3,1261.6z"/>
	<path class="st5" d="M1671.9,766.8l-47.5,24.3c6,72.8-14,97.8-46.6,103.7c0,0,0,0-0.1,0c-1-0.3-2-0.5-3-0.8
		c-19.1-4.7-38.8-6.6-58.4-5.5c-1,0.1-2.1,0.1-3.1,0.2c-0.6,0-1.1,0.1-1.7,0.1c-8.8,0.7-17.6-1.6-24.8-6.8
		c-21.5-15.3-30.1-32-20.1-106.4l-48-18.3c0,0-75.9,153.6,57.2,209.8c-2.3,10.9-3.2,22.2,0.4,32.9c4.8,13.9,16.3,21.3,29.9,25.4
		c15.8,4.8,32.5,6.8,49,6.1c14.3-0.6,30.6-2.1,40.3-13.9c10.4-12.6,10.3-29.1,9.1-44.6C1736.1,945.8,1671.9,766.8,1671.9,766.8z"/>
	<path class="st4" d="M1488.7,1045.1c-0.3,7.4-3.9,14.2-10.1,18.4c-1.6,1.1-0.2,3.8,1.5,2.7c7.1-4.8,11.3-12.4,11.7-20.9
		C1491.8,1043.3,1488.7,1043.2,1488.7,1045.1z"/>
	<path class="st4" d="M1644.3,1426.2c-24.6-43.8-48.5-88-71.7-132.7c-23.1-44.4-46.1-89.1-66.9-134.6
		c-11.4-25.1-21.3-50.9-26.1-78.1c-0.3-1.9-3.3-1.2-3,0.7c8.6,48.2,32.3,92.3,53.8,135.7c22.5,45.5,45.8,90.6,69.8,135.3
		c13.5,25.2,27.3,50.2,41.3,75.1C1642.6,1429.3,1645.2,1427.9,1644.3,1426.2z"/>
	<path class="st4" d="M1577.7,894.7c-2.6,14.7-19.1,22.9-33.7,21.6c-14.5-1.3-32.8-11.5-30.9-27.7c1-0.1,2.1-0.1,3.1-0.2
		c-2.3,15.3,16,24.2,29.1,24.9c12.9,0.7,27-6.5,29.3-19.4C1575.7,894.2,1576.7,894.5,1577.7,894.7z"/>
	<path class="st4" d="M1489.8,918.9c-5.7,8.9-9.2,18.8-10.4,29.3c-0.2,1.9,2.8,2,3,0.1c1.1-10,4.5-19.4,9.9-27.8
		C1493.4,918.9,1490.8,917.3,1489.8,918.9z"/>
	<path class="st4" d="M1590.4,914.2c-1-1.7-3.6-0.2-2.7,1.5c6.4,11.3,10.3,23.8,11.4,36.7c0.2,1.9,3.2,2.1,3,0.1
		C1601,938.9,1597.1,926,1590.4,914.2z"/>
	<path class="st4" d="M1448.4,840.3c-5.3,2.7-10.9,4.3-16.8,4.8c-1.5,0.1-1.7,2.5-0.1,2.4c4.6-0.3,9-1.3,13.2-2.9
		c-2.8,3.2-5.8,6.1-8.9,9c-1.2,1,0.5,2.8,1.6,1.8c4.6-4.1,8.8-8.5,12.6-13.3C1450.8,841.1,1449.4,839.8,1448.4,840.3z"/>
	<path class="st4" d="M1647.8,844c4.7,3.6,10,6.1,15.8,7.6c1.5,0.4,1.2,2.8-0.3,2.4c-4.5-1.1-8.6-2.8-12.5-5.1
		c2.2,3.6,4.6,7,7.3,10.4c1,1.2-0.9,2.7-1.9,1.5c-3.8-4.8-7.2-9.9-10.2-15.3C1645.3,844.3,1646.9,843.3,1647.8,844z"/>
	<path class="st4" d="M1582.3,1044.5c-2.2-2.7-3.1-5.9-2.7-9.3c0.2-1.5-2.2-1.7-2.4-0.1c-0.4,4,0.8,7.9,3.3,11
		C1581.5,1047.4,1583.3,1045.7,1582.3,1044.5z"/>
	<path class="st3" d="M1574.3,857.4c-1-3.1-4.5-4.3-7.2-2.8c-0.3-0.5-0.5-0.8-0.7-1.1c-8.6-16.7-35-8.6-33.9,9.7
		c-0.2,0-0.5,0.1-0.7,0.2c-2.6,0.8-5,2.9-5.6,5.6c-0.8,3.1,0.8,6.2,3.5,7.8c3.1,1.8,6.6,1.1,9.8-0.1c3.1,2.5,7,4.1,11.1,4.2
		c9,0.2,18.5-6.8,18.9-15.8c0-0.4,0-0.8,0-1.2C1572.7,863.7,1575.3,860.7,1574.3,857.4z"/>
	<path class="st3" d="M1559.2,866.4l-0.4,29.5c-3.9,5.1-13.8,4.4-19.9,3.3c-2.8-0.5-4.6-3.2-3.9-6c1.1-4.2,2.6-10.3,3.9-14.8
		c0.2-0.9,0.5-1.6,0.7-2.4c0.5-1.8,0.9-3.1,1.1-3.4L1559.2,866.4z"/>
	<path class="st4" d="M1553.1,881.4c-5,0.9-10-0.1-14.3-2.9c0.2-0.9,0.5-1.6,0.7-2.4c0.1,0,0.2,0.1,0.4,0.2c4,2.6,8.5,3.5,13.1,2.7
		C1554.5,878.7,1554.6,881.1,1553.1,881.4z"/>
	<path class="st4" d="M1558.8,859.7c-1.5-1.5-2.5-3.3-3.2-5.3c-0.4-1.5-2.8-1-2.4,0.4c0.7,2.4,2,4.6,3.7,6.4
		C1558.1,862.4,1559.9,860.8,1558.8,859.7z"/>
	<path class="st4" d="M1549.3,856c-2,0.3-1.9,3.5,0.1,3.2C1551.4,858.9,1551.3,855.7,1549.3,856z"/>
	<path class="st4" d="M1560.4,853.4c-0.8,0.1-1.6,0.8-1.5,1.7l0,0.2c0.1,0.8,0.8,1.6,1.7,1.5c0.8-0.1,1.6-0.8,1.5-1.7l0-0.2
		C1562,854.1,1561.3,853.3,1560.4,853.4z"/>
	<path class="st4" d="M1548.5,853.3c-0.2-0.7-0.9-0.9-1.5-0.8c-1,0.2-1.9,1-2.4,1.9c-0.3,0.6-0.1,1.3,0.5,1.6
		c0.6,0.3,1.3,0.1,1.6-0.5c0-0.1,0.1-0.1,0.1-0.2c0,0,0,0,0-0.1c0.1-0.1,0.1-0.1,0.2-0.2c-0.1,0.1-0.1,0.1,0,0c0,0,0.3-0.1,0.3-0.2
		c0.1,0,0.3-0.1,0.4-0.1C1548.4,854.7,1548.7,853.9,1548.5,853.3z"/>
	<path class="st4" d="M1562.6,850.7c-0.9-0.9-2.3-1.3-3.5-1.1c-0.6,0.1-1.2,0.6-1.1,1.3c0,0.6,0.6,1.2,1.3,1.1
		c0.7-0.1,1.3,0,1.8,0.5C1562.1,853.6,1563.7,851.8,1562.6,850.7z"/>
	<path class="st4" d="M1534.6,866.6c-1.5-0.3-3.2,0.2-4.1,1.5c-0.9,1.3-0.9,3-0.1,4.4c0.8,1.3,2.8,0,2-1.3c-0.7-1.2,0.3-2.5,1.6-2.2
		C1535.6,869.2,1536.1,866.9,1534.6,866.6z"/>
	<path class="st5" d="M1560.3,892.6c-1.7,5.8-7.6,8.2-13.2,7.7c-5.3-0.4-12.6-2.8-12.7-9.2c0-2-3.1-1.8-3,0.2
		c0.1,8,8.7,11.5,15.5,12.1c7.3,0.6,14.3-2.9,16.4-10.2C1563.8,891.3,1560.8,890.8,1560.3,892.6z"/>
	<path class="st4" d="M1563.6,863.4c-1.2,4.8-6.3,6.8-10.5,4.3c-1-0.6-2,1-1,1.6c5.2,3.2,11.8,0.6,13.3-5.3
		C1565.7,862.7,1563.9,862.2,1563.6,863.4z"/>
	<path class="st4" d="M1569,855.9c-1.2-0.1-1.4,1.7-0.2,1.9c1.1,0.1,1.3,1.3,0.5,1.9c-1,0.7,0.2,2.2,1.1,1.5
		C1572.6,859.6,1571.6,856.2,1569,855.9z"/>
	<path class="st4" d="M1472.5,655.1c-2.4,2.9-3.5,6.4-3.2,10.1c0.1,1.2,1.9,0.9,1.8-0.3c-0.3-3.2,0.7-6.3,2.8-8.7
		C1474.8,655.3,1473.3,654.2,1472.5,655.1z"/>
	<path class="st4" d="M1466.4,650.6c-1.5,2.6-2.5,5.4-2.7,8.3c-0.1,1.2,1.7,1.4,1.9,0.2c0.2-2.7,1-5.1,2.4-7.4
		C1468.5,650.7,1467,649.5,1466.4,650.6z"/>
	<path class="st4" d="M1461,648.5c-2,2.5-3.1,5.4-3.1,8.6c0,1.2,1.9,1.4,1.9,0.2c0-2.9,0.9-5.5,2.7-7.7
		C1463.2,648.7,1461.7,647.6,1461,648.5z"/>
	<path class="st4" d="M1449.7,661.8c-0.4,3.2-1.3,6.2-2.9,8.9c-0.6,1,0.9,2.2,1.5,1.1c1.7-3.1,2.9-6.3,3.3-9.8
		C1451.7,660.8,1449.9,660.6,1449.7,661.8z"/>
</g>
</svg>
