<?xml version="1.0" encoding="utf-8"?>
<!-- Generator: Adobe Illustrator 23.0.3, SVG Export Plug-In . SVG Version: 6.00 Build 0)  -->
<svg version="1.1" id="Layer_1" xmlns="http://www.w3.org/2000/svg" xmlns:xlink="http://www.w3.org/1999/xlink" x="0px" y="0px"
	 viewBox="0 0 15.2 19.4" style="enable-background:new 0 0 15.2 19.4;" xml:space="preserve">
<style type="text/css">
	.st0{fill:#DF271C;}
</style>
<g>
	<path class="st0" d="M15.1,14.6c-0.1-0.1-0.2-0.2-0.6-0.2c0,0,0,0,0,0c-0.3,0-0.8,0.1-1.1,0.3c-0.4,0.2-0.5,0.4-0.5,0.5
		c0,0,0.1,0.3,0.5,0.5c0.3,0.2,0.8,0.3,1.2,0.3c0.3,0,0.4-0.1,0.5-0.3c0.1-0.2,0.2-0.4,0.2-0.6C15.2,14.8,15.2,14.7,15.1,14.6z"/>
	<path class="st0" d="M12.1,15.2c0-0.6,0.5-0.9,0.9-1.2c0.3-0.1,0.6-0.2,0.9-0.3l-2.4-3.3l0-0.1c0-0.5,0.4-0.9,0.9-0.9
		c0-0.1,0-0.2,0-0.3c0-0.3-0.5-1-1.1-1.6c-0.6-0.5-1.1-1-1.1-1L9.9,6.3L10,6c0,0,0,0,0.1-0.1c0-0.1,0.1-0.2,0.1-0.4
		c0.1-0.4,0.2-0.9,0.3-1.5c0-0.2,0-0.4,0-0.6c0-0.5,0-1.1-0.1-1.6c0-0.3-0.2-0.6-0.2-0.8c0,0,0,0,0,0c-0.1,0.1-0.2,0.2-0.4,0.4
		C9.5,1.7,9.2,2.2,8.9,2.7C8.6,3.3,8.3,3.8,8.1,4.2c0.3,0.1,0.7,0.3,1.1,0.6l0.3,0.2L9,5.7L8.7,5.5C8.4,5.3,8.1,5.1,7.8,5
		C7.5,4.8,7.4,4.8,7.4,4.8L7,4.6l0-0.1c0-0.2,0.1-1.4,0.1-2.7c0-0.7,0-1.5-0.1-1.9c0,0,0,0,0,0C6.8,0.1,6.6,0.2,6.4,0.4
		C6,0.7,5.5,1.2,5,1.7C3.9,2.8,2.8,4.4,2.2,5.9C1.6,7.5,1,10,0.6,12c-0.3,1.5-0.5,2.7-0.6,3.3l9.7,4.1l0.9-2l2.5-0.9
		c0,0-0.1,0-0.1-0.1C12.5,16.1,12.1,15.8,12.1,15.2z M8.7,11.3c-0.7,0-1.2-0.6-1.2-1.2c0-0.7,0.6-1.2,1.2-1.2c0.7,0,1.2,0.6,1.2,1.2
		C9.9,10.8,9.4,11.3,8.7,11.3z"/>
</g>
</svg>
