<?xml version="1.0" encoding="utf-8"?>
<!-- Generator: Adobe Illustrator 23.0.3, SVG Export Plug-In . SVG Version: 6.00 Build 0)  -->
<svg version="1.1" id="Layer_1" xmlns="http://www.w3.org/2000/svg" xmlns:xlink="http://www.w3.org/1999/xlink" x="0px" y="0px"
	 viewBox="0 0 2953 2318.5" style="enable-background:new 0 0 2953 2318.5;" xml:space="preserve">
<style type="text/css">
	.st0{clip-path:url(#SVGID_2_);}
	.st1{fill:#F5F5F5;}
	.st2{fill:#FF7D40;}
	.st3{fill:#2C2B3C;}
	.st4{fill:#2F52EF;}
	.st5{fill:#60BBC5;}
	.st6{fill:#FF894A;}
</style>
<g>
	<g>
		<g>
			<defs>
				<rect id="SVGID_1_" y="0" width="2953" height="2318.5"/>
			</defs>
			<clipPath id="SVGID_2_">
				<use xlink:href="#SVGID_1_"  style="overflow:visible;"/>
			</clipPath>
			<g class="st0">
				<path class="st1" d="M2870,1457.7l-0.1-945.1h-945.1c0,0-1813.6,1813.7-1944.1,1944.2c-261,261-261,684.1,0,945.1
					s684.1,261,945.1,0C1056.3,3271.4,2870,1457.7,2870,1457.7"/>
				<g>
					<g>
						<path class="st2" d="M252.4,710.8c-5.2-10.3-6.1-22.9-1.6-33.7c4-9.8,11.9-17,21.2-20.6c-7.7-11.2-11-25.7-7.8-39.4
							c3.8-15.7,15.4-28.6,29.9-33.8c1.5-25.7,21.1-46.2,43.7-54.9c23.2-8.9,48.3-5,72,1.1c3.1-29.1,11.2-57.6,24.1-83.6
							c7.5-15.1,16.6-32.1,31.9-39.7c12.8-6.4,29.4-4.6,37.9,8.3c7.7,11.5,6.1,26.8,3.7,39.8c-2.9,15.7-6.1,31-6.9,46.9
							c-1.8,32.7,2.6,65.7,12.6,96.8c11.2,34.8,29.5,67.1,54,93.6c0.8,0.9,1.3,1.8,1.5,2.8c1.6,2,2.2,5,0.4,7.7
							c-33.6,51.2-63.8,104.7-90.6,160.1c-2,4.2-6.7,3.8-9.1,1.3c-0.3-0.3-0.6-0.7-0.9-1.2c-33.1-13.6-38.4,9.9-59.2,12.8l0,0
							c-5.9,0.8-13.1,0-22.6-3.9c-20.9-8.6-141-104.5-145.7-122.2C237.3,735.4,240.8,718.4,252.4,710.8z"/>
						<path class="st3" d="M402.1,677.5c-5-4-11.3-6.1-17.2-8.2c-6.8-2.4-13.5-5.1-19.9-8.3c-26.1-13.2-48.6-33.7-64.7-59
							c-4-6.3,5.3-13,9.3-6.7c19.9,31.2,48.4,51.8,81.9,63.9c5.1,1.9,10.3,4.2,14.8,7.3c8.2-7.5,11.1-20,6.2-30.5
							c-2.3-4.9-6.1-9-10.7-11.5c-5.3-2.9-10.9-4.8-14.9-9.8c-6.9-8.4-7.1-20.6-12.8-29.8c-6.2-10.1-15.4-17.2-26.2-21.2
							c-6.8-2.5-1.8-13.1,5-10.6c12.5,4.5,23.4,13.5,30.6,25.1c3.4,5.6,5.8,11.6,7.6,17.9c0.9,3.2,1.7,6.5,3.4,9.3
							c2.1,3.5,5.5,5,9,6.7c11.8,5.7,20.3,15.8,22.5,29.5c1.9,12.3-2.8,24.4-11.2,32.8c3.2,4.4,5.2,9.7,5,16.3
							c-0.3,13.4-9.6,23.5-21.3,25.6c5.3,9.3,1.4,20.8-8.8,26.3c-10.8,5.8-24.3,6.3-36.7,4.4c4.2,15.5-28.6,25.2-38.4,26.5
							c-7.2,0.9-7.9-10.9-0.7-11.8c6.8-0.9,13.4-2.9,19.4-6.3c1.1-0.6,8.6-4.5,8.3-6.2s-6.9-3-7.8-3.3c-16.1-4.8-32.3-9.7-48.4-14.5
							c-6.9-2.1-4.8-13.7,2.2-11.6c11.8,3.5,23.7,7.1,35.5,10.6c4.6,1.4,10.9,2.4,16.4,4.4c12.7,3.2,29.2,7.2,43.7-2.1
							c4.8-3.1,9.1-7.1,4.2-12.3c-4.7-4.9-13.2-5.6-19.4-7.3c-27.4-7.8-53.6-19.6-77.8-35.1c-6.2-3.9-1.2-14.6,5-10.6
							c15.6,9.9,31.9,18.4,49,25.2c8.6,3.4,17.3,6.4,26.1,8.9C412,713.3,414.4,687.5,402.1,677.5z"/>
						<path class="st3" d="M448.9,718c21.7,2.5,43.2-4.5,60.2-18.7c5.7-4.7,12,5,6.4,9.8c-19.4,16.2-44.2,23.3-68.8,20.5
							C439.5,728.8,441.7,717.2,448.9,718z"/>
					</g>
					<path class="st4" d="M806.1,1405.1c1.8,6.9,2.9,13.8,2.7,20.5c-0.1,7.3,23.7,20.1,50.9,37.2c36,22.7,77.9,53.2,78.4,89.1
						c0.2,17.3,0.1,42.6-0.3,73c-1,77.4-3.8,188-6.5,284.8c-2.3,80.8-7.2,512.7-8.3,547h993.7c-2.9-18.8-15-401.9-19.3-426
						c-5.5-30.9-11.7-64.5-17.8-96.9c-15.4-81.3-30-154.4-30-154.4c1.4-0.1,2.7-0.2,4.1-0.3c4.9-0.4,9.7-0.8,14.5-1.2
						c2.8-0.2,5.5-0.5,8.3-0.7c107.7-9.3,205.5-21.2,284.3-38.5c18-3.9,35-8.1,50.9-12.6c35.9-10.2,66.3-21.9,90-35.6
						c10.4-6,20.3-12.7,29.6-19.9c24.1-18.7,44.5-41.3,60.8-66.6l0,0c44.7-69.3,58.4-158.6,31.7-242.4
						c-14.6-46-30.9-89.5-48.5-130.8l0,0c-4-9.4-8.1-18.7-12.2-27.8c-6.3-14-12.8-27.7-19.5-41.1l0,0c-6.5-13.2-13.2-26.2-20.1-38.9
						c-43.2-80.5-91.7-150.6-143.4-211.8c-13.1-15.6-26.5-30.6-40-45c-37.4-40-76-75.7-115-107.5c-16.9-13.8-33.9-26.9-50.9-39.3
						l0,0c-102.9-75.1-206-125-294.1-158c-20.6-7.7-40.4-14.5-59.2-20.5c-10-3.2-19.6-6.1-29-8.8c-4-1.2-7.9-2.3-11.7-3.3
						c-17.6-4.9-34-9.1-48.9-12.6c-0.4-0.1-0.8-0.2-1.2-0.3c-59.6-13.8-96.1-17-96.1-17c-10.9-0.2-21.6-0.1-32.2,0.1
						c-5.5,0.1-11,0.3-16.4,0.5c-15.6,0.6-30.8,1.7-45.7,3.1c-0.3,0-0.6,0.1-1,0.1c-19.1,1.9-37.7,4.5-55.6,7.7
						c-16.6,3-32.7,6.5-48.3,10.6c-2.3,0.6-4.5,1.2-6.8,1.8c-15.5,4.2-30.6,9-45.2,14.2c-10.1,3.6-20,7.5-29.7,11.7
						c-14.4,6.1-28.3,12.8-41.8,19.9c-128.2,68-214.4,180.5-270.9,314.8c-12.3,29.1-23.1,59.3-32.7,90.3c-0.6,2-1.2,4-1.8,5.9
						c-11.9,39.2-21.8,79.7-29.9,121c-10.8,55.1-18.5,111.5-23.6,168.3l0,0C748.5,1312.5,794.3,1360.5,806.1,1405.1z"/>
					<path class="st4" d="M386.5,871.2c0,0,10.2,104.9,56.5,237.7c13.3,38.1,29.5,78.4,49.4,119.3c50.1,103.3,123.2,209.8,229,290
						c7.7,5.8,15.5,11.5,23.6,17.1c7.9,5.5,16,10.8,24.3,16c29.9,18.7,62.2,35.3,96.9,49.4c16.1,6.5,32.8,12.5,50,17.9
						c17.4,5.5,35.4,10.3,53.9,14.5c26.8,6,51.3,9.5,73.6,10.6c14.7,0.8,28.4,0.5,41.3-0.7c54.5-5,92.7-26.9,118.5-60.1
						c12-15.4,21.3-33.3,28.3-53.1c16.8-47.7,20.3-106.5,15.6-168.9c-4.6-61-16.9-125.3-32.2-185.9c-37.3-148.5-92-274.8-92-274.8
						s-56.9,30.1-156.1,17.9c-15.3-1.9-31.5-4.8-48.7-8.9c-24.2-5.8-50.2-14.2-78-25.7c-16.3-6.8-33.2-14.7-50.7-23.8
						c-19.1-10-38.9-21.6-59.4-34.8c-50.7-32.9-105.4-76.2-163.4-133.1L460.6,797.5l-38.5,38.3L386.5,871.2z"/>
					<g>
						<path class="st5" d="M2316.6,1139.9c0.1,55.8,3,111.1,16.7,164.6c5.5,21.5,34.1,22.9,41.5,2.1c0-0.2,0.1-0.3,0.1-0.4
							c0.7-2,1.2-4.2,1.3-6.3c0.5-6.9,0.9-13.8,1.3-20.8c0-0.6,0.1-1.1,0.2-1.7c0.9-6.5,1.7-13,2.4-19.5l0,0
							c-1.5-8.8-3-17.8-4.7-26.9l0,0c-4-9.4-8.1-18.7-12.2-27.8c-6.3-14-12.8-27.7-19.5-41.1l0,0c-6.5-13.2-13.2-26.2-20.1-38.9
							C2319.2,1127.2,2316.5,1133.3,2316.6,1139.9z"/>
						<path class="st5" d="M1059.4,1297.6c8.4,23.4,41.1,19.3,44.4-5.5c7.6-57.9,6.7-113.7-8.2-169.8c-5.9-22.1-14.2-42.5-29.1-59.7
							c-7.1-8.2-15.4-15.9-25.2-9.2c-4.6,3.2-6.4,13.8-6.5,21.1C1034,1149.5,1033,1224.6,1059.4,1297.6z"/>
						<path class="st5" d="M2331.3,1670.6c24.1-18.7,44.5-41.3,60.8-66.6l0,0c0-0.2,0.1-0.3,0.1-0.5c-2-19.1-5.5-38.1-10.6-57.2
							c-5.9-22.1-14.2-42.5-29.1-59.7c-7.1-8.2-15.4-15.9-25.2-9.2c-4.7,3.2-6.4,13.8-6.5,21.1
							C2320.3,1556.2,2319.6,1613.9,2331.3,1670.6z"/>
						<path class="st5" d="M2003.3,1304.8c6.8,21.5,36.9,18.3,39.4-4.2c8.4-73.9,9.3-142.7-19.1-211.3c-8.2-19.8-17.3-36-37.5-31.9
							c-22.9,4.7-11.8,27.2-10.8,41.4C1980.5,1166.6,1981.5,1235.5,2003.3,1304.8z"/>
						<path class="st5" d="M1639.6,2093.4c-2.2-0.3-3.2,2.7-3.2,5c-0.7,26.4-0.7,53,3.1,79.1c1.6,10.8,6.2,23.9,17.1,25.2
							c5.4,0.6,10.6-2.1,15.3-4.7c8.7-4.8,17.9-10.1,22.6-18.9c3-5.7,3.7-12.2,4.3-18.6c5.6-61.2,2.2-126.3-22.3-183.5
							c-8.5-19.8-19.4-42.9-42.4-33.2c-21.1,8.9-5.8,31.6-3.6,48.5c4.5,34.2,2.7,69.2,4.2,103.7h65c0-7.8-0.2-15.6-0.8-23.4"/>
						<path class="st5" d="M1709.1,931.5c6.8,16,29.4,12.6,31.7-4.8c9.4-71.8,7.8-136.9-5.5-202.5c-4.1-20.4-15-27.3-33.5-27.1
							c-17.7,0.2-17.4,13.1-18.1,25.6C1680.1,791.5,1678.7,860,1709.1,931.5z"/>
						<path class="st5" d="M1384.4,1642.2c7.8,24.3,41.6,21,44.8-4.4c6.9-55.5,5.1-107.4-3.9-159.5c-4.1-23.7-5.2-56.4-40.3-48.6
							c-28.3,6.2-11.7,33.6-14.1,51.8C1363.8,1535.9,1367.1,1588.2,1384.4,1642.2z"/>
						<path class="st5" d="M1263.9,2555.4c7.8,24.3,41.6,21,44.8-4.4c6.9-55.5,5.1-107.4-3.9-159.5c-4.1-23.7-5.2-56.4-40.3-48.6
							c-28.3,6.2-11.7,33.6-14.1,51.8C1243.3,2449,1246.6,2501.3,1263.9,2555.4z"/>
						<path class="st5" d="M925.8,2096.1h38.4c2.6-55.2-6-108.3-20.6-161.6c-2.5-9-6.3-18.8-12.3-24.7
							C929.1,1990.6,926.9,2061.8,925.8,2096.1z"/>
						<path class="st5" d="M1227.1,1342c4.5,24,36.6,25.6,43.5,2.2c17.6-59.8,7.4-119.7-7.5-180c-4.5-18.1-16.2-29.6-34.3-26.6
							c-20.5,3.4-13.2,22.4-13.5,35.4C1213.8,1229.3,1216.4,1285.2,1227.1,1342z"/>
						<path class="st5" d="M407.8,879.3L407.8,879.3c3.3,11.5,7.6,22.9,13.2,34.2c10.1,20.5,39,16.6,43.7-6
							c8-38.4,4.6-74.8-3.9-110.2l-38.5,38.3C417.5,849.8,412.6,864.3,407.8,879.3z"/>
						<path class="st5" d="M1621,540.8c1.2,24.9,3.4,49.7,7.3,74.5c0,0.2,0.1,0.4,0.1,0.6c3.9,25.3,38,26.7,43.7,1.8
							c4.3-18.9,7-37.7,8.2-56.4C1659.6,553.6,1639.8,546.8,1621,540.8z"/>
						<path class="st5" d="M2175.2,1378.6c3.5,10.1,16.6,11.9,22.3,2.9c40.5-64,26.1-181.2-0.7-229c-6-10.7-15.5-19.3-29.8-15.7
							c-9.7,2.4-14,10.7-11.7,18.6c21.3,73-5.4,150.5,19.8,223C2175.2,1378.5,2175.2,1378.6,2175.2,1378.6z"/>
						<path class="st5" d="M1347.6,742.1c-8.4,64.8-11.9,127.7,19.8,187c5.7,10.6,20.3,10.3,25.9-0.4
							c29.1-56.5,20.4-142.5-19.4-194.1C1365.6,724,1349.3,728.6,1347.6,742.1z"/>
						<path class="st5" d="M1019,1639.2c9.7,22.9,41.7,19.4,47.1-4.9c13.5-60.3,6.8-142-19.4-175.1c-4.2-5.3-14-7.7-21.3-8.1
							c-9.2-0.4-13.1,7.5-13.4,16.7C1010.2,1525.5,996.2,1585.4,1019,1639.2z"/>
						<path class="st5" d="M1991.9,1661.1c10.4,24.4,44.7,19.5,48.9-6.8c9.7-60.6,1.3-139.2-23.5-167.8c-11.2-13-34.1-20.7-33.9,3.4
							C1983.8,1546.7,1969.2,1607.8,1991.9,1661.1z"/>
						<path class="st5" d="M730.4,824.7c1.8,13.6,4.6,27,9,40.2c8.8,26.9,45.8,23.6,50.3-4.4c0-0.2,0.1-0.4,0.1-0.6
							c0-0.1,0-0.2,0.1-0.3C770.7,849.5,750.8,837.9,730.4,824.7z"/>
						<path class="st5" d="M1530.8,970.6c11.2,21.1,41.5,15.2,44.9-8.7c6.5-45.7,2.3-90.2-2.7-134.4c-2.5-22.8-22.8-28.8-41.2-27.7
							c-19.8,1.2-18.3,20.6-16.8,33.9C1519.8,878.3,1508.2,927.9,1530.8,970.6z"/>
						<path class="st5" d="M576.7,863.1c1.2,52.2-8.7,91.1,20.3,121.7c1,1.1,2.1,2.2,3.2,3.2c11.4,10.7,29.8,6.6,35.2-8.4
							c0.6-1.8,1-3.5,1.1-5.3c1.1-43.5,0.4-87.1-2.3-130.4c-1.6-24.3-13.4-46.2-40.4-44.2c-33.4,2.5-15.3,30.6-17.4,48
							C575,857.8,576.9,868.4,576.7,863.1z"/>
						<path class="st5" d="M744.1,1258.8c5.4,16.5,28,15.2,31.9-1.7c12.9-56.2,10.5-107.9-0.6-159.9c-3.3-15.7-5.9-34.3-28.6-31.6
							c-24.2,2.9-25.8,20.3-24.5,40.7C725.5,1156.7,727.2,1207.4,744.1,1258.8z"/>
						<path class="st5" d="M1610,1281c5.2,15.3,26.4,14.2,30-1.6c12.8-55.8,13-108.4,5.8-162.5c-4.4-33.3-24-27.7-42.9-26.5
							c-28.8,1.8-15.2,22.8-12.9,36.8C1598.3,1176.9,1592.4,1229.7,1610,1281z"/>
						<path class="st5" d="M1045.4,1969.2c4.9,16.2,27.2,14.4,29.7-2.3c7.5-51.5,14.2-102.9-0.8-155.2
							c-4.7-16.4-12.4-29.6-33.2-28.3c-17.4,1-19.3,11.9-17.9,24.8C1029.2,1861.9,1029.6,1916.9,1045.4,1969.2z"/>
						<path class="st5" d="M1401.1,1253.1c5.5,20.6,34,18.5,36.8-2.7c6.8-51.8,9.1-98.6-5.7-146.4c-5.9-19-11.7-29.7-31-29.2
							c-27.8,0.7-17.2,23.1-17.3,36.9C1383.5,1158.6,1388.1,1204.4,1401.1,1253.1z"/>
						<path class="st5" d="M1342.8,1926.6c4.7,24.6,38.5,23.8,42.3-0.9c6.8-45.7,4.6-91.4-4.6-137.4c-3.8-18.9-8.9-43.3-38-36.1
							c-28,6.9-17.9,29.6-14.2,45.3C1338.2,1839.2,1334.6,1884,1342.8,1926.6z"/>
						<path class="st5" d="M2080,1035.9c6,21.5,35.6,19.6,39.1-2.5c6.4-41.2,11-82.3-0.9-124.3c-5.1-18-9.8-31-29.8-31.8
							c-27.7-1.1-18.6,20.6-19.6,35C2065.7,954.7,2068.9,996,2080,1035.9z"/>
						<path class="st5" d="M588.3,1215.2c-1,44.4,5.9,87.2,16.7,129.4c6.1,23.6,38.7,22,42.4-2.1c7-45.5,0.7-90.8-18.2-135.9
							c-2.5-6.1-7.5-10.8-13.6-12.6c-0.1,0-0.3-0.1-0.4-0.1C601.8,1190,588.6,1200.8,588.3,1215.2z"/>
						<path class="st5" d="M855.6,1500.4c7-43.8,5.9-87.2,0.9-130.6c-2.8-24.3-35.3-27.5-42.3-4.1c-13.1,44-12.9,89.7-0.3,137.2
							c1.7,6.4,6,11.8,11.8,14.5c0.1,0.1,0.2,0.1,0.4,0.2C838.8,1523.4,853.4,1514.7,855.6,1500.4z"/>
						<path class="st5" d="M1454,626.7c-3,37.8,0.8,74.8,8,111.4c4,20.5,32,20.8,36.3,0.4c8.2-38.5,4.9-77.5-9-117.1
							c-1.9-5.3-5.9-9.6-11-11.5c-0.1,0-0.2-0.1-0.3-0.1C1466.8,605.9,1455,614.4,1454,626.7z"/>
						<path class="st5" d="M1851.1,1574.7c5.7,24.6,39.9,22.4,42.8-2.8c4.3-36.2,6.6-72.3-3-108.5c-4.8-18.2-9.8-41.1-31.3-39.5
							c-27.9,2-14.7,28.5-15.7,44.2C1841.8,1504.5,1843.1,1540.3,1851.1,1574.7z"/>
						<path class="st5" d="M1974.3,719.3c1.7,27.6,0.1,55.8,2.2,84.6c2.4,32.6,48,31.8,49.4-0.9c0.6-14.9,0.2-29.7-0.6-44.4
							C2008.3,744.8,1991.3,731.7,1974.3,719.3z"/>
						<path class="st5" d="M443.1,1106.5c0,0.8,0,1.6,0,2.4c13.3,38.1,29.5,78.4,49.4,119.3c0.7-1.9,1.2-4,1.4-6.3
							c3.9-39.8,2.3-79.9-6-120.1c-2.5-12.1-6.4-28.5-26.3-27C439.4,1076.3,443.3,1093.4,443.1,1106.5z"/>
						<path class="st5" d="M2160.8,1738.8c18-3.9,35-8.1,50.9-12.6c-1.2-17.5-3.5-35.1-7.2-52.7c-2.5-12.1-6.4-28.5-26.3-27
							c-22.1,1.6-18.2,18.7-18.4,31.7C2159.4,1698.5,2159.5,1718.7,2160.8,1738.8z"/>
						<path class="st5" d="M1668.3,1584c5.8,20.7,34.3,19.5,38.3-1.7c9.1-48.5-1.1-96.4,1-143c0.6-13.4-10.9-21.8-24.1-22.3
							c-10.8-0.4-22.4,7.6-21.9,16.8C1664.5,1482.8,1654.2,1534,1668.3,1584z"/>
						<path class="st5" d="M1570.5,2516.5c5.8,20.7,34.3,19.5,38.3-1.7c9.1-48.5-1.1-96.4,1-143c0.6-13.4-10.9-21.8-24.1-22.3
							c-10.8-0.4-22.4,7.6-21.9,16.8C1566.6,2415.3,1556.4,2466.6,1570.5,2516.5z"/>
						<path class="st5" d="M1187.2,938.2c5.4,23.1,37.4,20.6,39.6-3c4.3-45.4,0.4-89.5-4.1-133.6c-1.8-17.4-8.5-32.6-30.6-29
							c-22.5,3.7-14.1,22.3-14.2,34.5C1177.8,850.7,1177.1,894.6,1187.2,938.2z"/>
						<path class="st5" d="M1234.8,520.9c0.5,29.4,2.4,58.9,9.2,88.3c5.4,23.1,37.4,20.6,39.6-3c3.1-32.4,2-64.2-0.6-95.8
							C1266.6,513.3,1250.5,516.8,1234.8,520.9z"/>
						<path class="st5" d="M1215.5,1996.5c7.2,50.4,1.2,101,8.7,150.7c1.6,10.5,4,21.3,10.4,29.8s17.7,14.1,27.9,10.9
							c7.3-2.3,12.8-8.8,15.5-16c3-8,2.9-16.8,2.7-25.4c-0.5-33.1-2.3-65.7-4.1-98.5c-1.4-24.9-3.8-56.2-19.8-76.7
							c-7.6-9.8-16.6-13.1-27-10.2C1213.8,1965.6,1213.6,1982.7,1215.5,1996.5z"/>
						<path class="st5" d="M1553.4,1712.1c4.8,21.3,33.4,21.9,39.1,0.9c11.7-43,2.9-88.1-7.1-133.8c-4.5-20.8-14.4-28.9-32.4-26.9
							c-22.7,2.5-13.1,22.5-12.7,34C1541.8,1628.7,1544.2,1671.1,1553.4,1712.1z"/>
						<path class="st5" d="M1866.5,974.6c4.1,22.4,34.1,24.3,40.6,2.5c15.1-50.5,0.1-99.9-15-149.6c-3.7-12.2-10.8-16-21.7-16.5
							c-13.4-0.7-18.8,8.5-16.8,19.5C1862.1,877.1,1857.7,926.1,1866.5,974.6z"/>
						<path class="st5" d="M929.7,996.2c3.5,16.9,26.5,16.7,30-0.2c10.5-51.3,10.4-101.2-2.6-151.8c-4-15.7-7-35.5-28.7-32.7
							c-25.4,3.3-15.6,25.1-14.4,39.3C918.2,898.8,919.5,947.2,929.7,996.2z"/>
						<path class="st5" d="M866.8,1261.2c2.5,30.2,44.7,30.6,47.7,0.4c3.9-39.9-4.1-78.6-10.9-117.4c-2.9-16.4-11.9-20.1-25.1-18.8
							c-9.8,0.9-25.9,3.9-21.4,14.8C872.7,1177.5,863.3,1219.6,866.8,1261.2z"/>
						<path class="st5" d="M1111.4,568.5c1,5.2,2.2,10.4,3.7,15.7c4.9,18.1,29.8,17,33.4-1.4c2.2-11.5,3.8-22.9,4.7-34.2
							C1138.8,554.7,1124.8,561.4,1111.4,568.5z"/>
						<path class="st5" d="M1497.4,1817.2c-9.5,2.7-26-0.8-20.3,14.6c18.4,50.1-0.5,103.9,16.1,153.8c3.2,9.7,3.4,20.7,15.9,22.7
							c12.2,2,20.3-5.8,21.5-16.2c6.1-53.9,7.5-107.8-5.5-161.1C1520.7,1813.1,1506.7,1820.2,1497.4,1817.2z"/>
						<path class="st5" d="M1044.7,856.5c6.4,16.1,28.7,14.4,32.8-2.5c12.5-50.5,4-100.2,1.7-149.2c-0.7-14.2-12.7-20-25.9-20.4
							c-11.9-0.3-19.7,6.4-19,18.4C1037.6,753,1024.7,806.2,1044.7,856.5z"/>
						<path class="st5" d="M1231.5,1641.7c-1.5-27,0-54.8-5.8-80.8c-3.6-16.3-14.7-33.9-37.9-31.1c-25,3-19.8,22.8-18.9,37.8
							c2.5,43.3-9,87.5,7.8,129.9c7.1,18,16.7,40.1,34.3,38.9c21.9-1.5,18.3-27,19.1-44.8c0.7-16.6,0.1-33.3,0.1-49.9
							C1230.7,1641.7,1231.1,1641.7,1231.5,1641.7z"/>
						<path class="st5" d="M1821.6,1307.4c3.9,14.3,23.4,13.6,26.5-0.9c10.2-47.5,7.6-95,0.1-142.6c-2.8-17.5-6.6-41.6-31.2-37.6
							c-24.3,3.9-11.6,27-12.2,41.1C1802.9,1215.2,1808.9,1261.6,1821.6,1307.4z"/>
					</g>
					<g>
						<path class="st2" d="M1656.1,1793.6c1.3-11.3,5.7-21.8,10.1-32c4.8-11,9.9-21.9,15.3-32.5c10.4-20.6,21.9-40.5,34.4-59.7
							c14.3-21.8,29.8-42.7,46.5-62.4c3.2-3.8,104.9,100.8,113.4,164.4c0.2,1.6,0.4,3.6,0.7,5.9c3,28.7,8.6,110.1,13.8,157.5
							c2.8,25.5,6.2,51,8.4,76.6c0.5,6.2,1.3,13.9-1.2,19.5c-0.7,1.5-1.6,2.9-2.9,4c-12.1,10.8-26.9-8.2-28.2-9.3
							c-0.5,12.8-5.8,24.6-13.5,24.2c-13.4-0.8-16-16.1-18.7-27.2c-0.7-3-1.4-6-2.1-9c-0.3,2.5-0.8,5-1.7,7.3
							c-4.5,12.5-16.7,23.2-29.4,16.1c-12.2-6.8-15.4-24.9-18.1-39c-0.3,2.5-5.5,29.5-19.3,28.7c-33.8-2-48.5-119.4-51.5-147.5
							c-1.6-15.2-2.5-30.5-2.6-45.9c-8.3,4.2-17.3,6.3-27.1,4.4C1662.9,1833.5,1653.9,1813.1,1656.1,1793.6z"/>
						<path class="st3" d="M1805.8,1707.6c29.1,14.9,51.8,40.8,63.2,72.6c3.1,8.7-9.7,14.1-12.8,5.4c-10.2-28.1-30-51.4-55.8-64.6
							C1792.4,1716.8,1797.8,1703.5,1805.8,1707.6z"/>
						<path class="st3" d="M1864.7,1934c2.3,21.2,4.6,42.4,7,63.6c1,9.2-12.8,9.6-13.8,0.4c-2.3-21.2-4.6-42.4-7-63.6
							C1849.9,1925.2,1863.7,1924.8,1864.7,1934z"/>
						<path class="st3" d="M1826.3,1935c4.2,19.1,6.3,38.6,6.1,58.2c-0.1,9.3-13.9,9.8-13.8,0.4c0.2-18.4-1.6-36.5-5.5-54.5
							C1811.1,1930.2,1824.3,1925.9,1826.3,1935z"/>
						<path class="st3" d="M1787,1929.6c0.5,15.9,0.9,31.8,1.4,47.7c0.3,9.3-13.5,9.8-13.8,0.4c-0.5-15.9-0.9-31.8-1.4-47.7
							C1772.9,1920.8,1786.7,1920.3,1787,1929.6z"/>
					</g>
					<g>
						<path class="st3" d="M1249.2,305c5.9-22.4,20.5-36.4,37.9-48.1c10.1-6.8,21.8-11.7,30.9-20.2c14.4-13.6,13.5-30.1,18.2-48.6
							c9.1-36,41.8-49.3,68.4-36.7c22.7-55.3,86-76.2,127.8-33.5c11.8,12,15.6,25.9,23.2,40.9c15.3,30,31.1,32.6,59,40.7
							c22.8,6.6,40.7,18.1,47.3,44.7c5.5,22.4,1.7,41.5,14.9,61.8c8.4,13,19.5,23.5,27.8,36.6c14.4,22.5,19.4,49.1,7.9,75.3
							c-35.1,79.7-126.9,40.6-188.4,51.7c-0.8,0.8-1.7,1.5-2.7,2.1c-1.4,0.8-3,1.3-4.8,1.5c-38.1,4.5-76.5-0.6-113.6-11.3
							c-28.3-8.2-55.9-19.6-82-32.5C1278.3,408.2,1233.7,363.7,1249.2,305z"/>
						<path class="st6" d="M1406.1,358.9l-5.2,167.6c20,30.2,73.9,28.6,107.2,24.3c15.2-2,25.5-17.2,22.5-32.9
							c-4.7-24.2-11.7-59.3-17.2-84.9c-1-4.9-2-9.4-2.9-13.5c-2.3-10.5-4.1-17.8-5-19.4L1406.1,358.9z"/>
						<g>
							<path class="st6" d="M1372.7,258.4c50.6-92.5,192-39.8,181.4,64c1.3,0.3,2.5,0.7,3.8,1.2c14,5.3,26.2,17.8,29.1,33.5
								c3.3,17.9-5.9,35.2-21.2,43.4c-17.3,9.3-36.2,4.3-53-3.4c-17.4,13.6-38.7,21.5-61.3,21c-48.9-1.1-98.4-43.5-98.7-94.8
								C1352.7,283.3,1368.3,266.6,1372.7,258.4z"/>
							<path class="st3" d="M1424,309.1c6.8-9.6,11.4-20.3,13.3-32.1c1.4-8.6,14.4-7.9,13,0.7c-2.3,14.2-7.3,27.3-15.5,38.9
								C1429.8,323.8,1418.9,316.2,1424,309.1z"/>
							<path class="st3" d="M1478,287.6c11.1-0.1,12.6,18.1,1.4,18.1C1468.3,305.8,1466.8,287.7,1478,287.6z"/>
							<path class="st3" d="M1405,281.8c4.4-0.2,9.3,3.2,9.4,8.3v1.1c0,4.7-3,9.6-7.9,9.8c-4.4,0.2-9.3-3.2-9.4-8.3v-1.1
								C1397.1,286.9,1400.1,282,1405,281.8z"/>
							<path class="st3" d="M1480.1,272.1c0.9-3.9,4-5.8,7.6-5.4c5.8,0.6,11,4.1,14.2,9.1c2,3,1.2,7.4-1.7,9.5
								c-2.9,2.1-7.1,1.3-9.1-1.8c-0.2-0.3-0.4-0.6-0.7-1c-0.1-0.1-0.1-0.1-0.3-0.3c-0.3-0.3-0.6-0.6-1-0.9c0.5,0.3,0.5,0.3-0.2-0.1
								c-0.2-0.1-1.5-0.6-1.6-0.8c-0.7-0.2-1.4-0.3-2.2-0.4C1481.9,279.7,1479.4,275.4,1480.1,272.1z"/>
							<path class="st3" d="M1391.5,268.5c4.4-5.6,11.2-9.2,18.2-9c3.5,0.1,6.7,2.3,7,6.2c0.3,3.4-2.4,7.4-5.9,7.4
								c-3.9-0.1-7,1.2-9.5,4.4C1396.1,284.3,1386.2,275.3,1391.5,268.5z"/>
							<path class="st3" d="M1542.1,341.4c8.4-1.4,17.1,2.2,21.7,9.9c4.6,7.7,4,17.3-0.7,24.7c-4.6,7.3-15.2-0.7-10.5-8
								c4.1-6.5-1.1-14.3-8.3-13.1C1535.9,356.2,1533.8,342.8,1542.1,341.4z"/>
							<path class="st3" d="M1405.7,342.7c12.9,21.7,39.9,24.1,55.7,4.1c4.5-5.7,13.1,1.6,8.5,7.3c-20.1,25.4-56.5,23.5-73.3-4.8
								C1392.9,343.1,1401.9,336.4,1405.7,342.7z"/>
						</g>
						<path class="st3" d="M1374.6,393.2c19.1,9.8,39,15.5,60.2,17.3c8.4,0.7,6.6,14.3-1.8,13.6c-22.3-1.8-43.4-7.9-63.4-18.2
							C1362.1,402,1367.1,389.3,1374.6,393.2z"/>
						<path class="st3" d="M1360.1,233.4c5.9,0.3,12.6,0.5,19.4,0.3c-3.7-2.7-1.2-10.4,4.3-9.4c0.9,0.2,1.8,0.2,2.6,0.3
							c4.1-2.7,8.4-4.5,13-5.5c0.6-1.3,1.4-2.4,2.4-3.5c5.6-5.8,12.8-10.1,20.1-13.3c-0.1-2.1,0.9-4.1,3.6-4.6c1-0.2,2-0.4,3-0.6
							c2.4-0.5,4.8,0.6,5.9,2.6c0-4.3,0.7-8.7,2.4-13c2.3-5.8,9.9-2.1,9.3,3.4c58.4,11.3,108,60.3,121.9,120.8c4.2,0.5,7,7,2.3,9.6
							c-11.5,6.5-24-0.4-30.9-10.9c-8.5-12.8-6.8-30.5-17.2-42.2c-20-22.4-54.8-17.4-75.4-39.2c-3.2-3.4-5.9-7.2-8-11.3
							c-5.8,9.4-14.5,16.4-24.7,21c-16.8,7.5-35.7,6.8-53.6,6.1C1354,243.7,1353.6,233.2,1360.1,233.4z"/>
					</g>
					<path class="st6" d="M1455.6,562.8c67.6,8,124.3-3.3,126.7-25.2c0.3-3-0.4-6-2-8.9c-17.6-4.9-34-9.1-48.9-12.6
						c-60.3-14.1-97.4-17.3-97.4-17.3c-16.6-0.2-32.8,0-48.6,0.6c-15.6,0.6-30.8,1.7-45.7,3.1c-1.3,1.9-2,4-2.2,6.2
						C1335.1,530.5,1388,554.8,1455.6,562.8z"/>
					<path class="st3" d="M1800.6,1462.9c44.7-51.9,106.2-87.4,171.9-99.7c14.1-2.6,28.3-4.2,42.5-4.8
						c-79.5-61.1-141.9-145.1-179.5-240.6c-11.2-28.4-20-57.7-26.5-87.6c-1.6-7.4,9.2-10.8,10.8-3.4
						c22.6,104.5,74.9,201.1,148.6,275.4c20.8,20.9,43.1,40.1,66.9,57.1c5.8,4.2,0.9,14.4-5,10.6c-0.5,0.1-1,0.2-1.6,0.2
						c-64.4-0.7-127.9,21.5-179.4,61.9c-14.7,11.6-28.3,24.7-40.6,39C1804.1,1476.6,1795.8,1468.6,1800.6,1462.9z"/>
					<path class="st3" d="M969.8,956.4c11.7-31,30.6-58.4,50.3-84.3c25.3-33.3,51.5-65.8,77.3-98.6c4.6-5.9,12.9,2.1,8.3,8
						c-22.1,28.2-44.4,56.2-66.4,84.5c-19.1,24.5-38,49.5-51.7,77.8c-12.7,26.2-19.8,54.5-18.7,84c1,26.3,7.8,52.3,19.6,75.5
						c13.6,26.7,33.6,49.6,58.5,65.1c6.2,3.9,1,14.3-5.2,10.5c-46.4-28.8-76.7-80.8-83.1-136.5C955.3,1013,959.5,983.8,969.8,956.4z
						"/>
					<path class="st3" d="M1467.6,1278.3c68.8,44.5,157.1,43.8,224.9-2.6c18-12.3,33.9-27.4,47.6-44.8c4.6-5.9,12.9,2.1,8.3,8
						c-52.7,67.1-138.8,97.9-219.6,78.3c-23.4-5.7-45.9-15.3-66.3-28.5C1456.2,1284.8,1461.4,1274.3,1467.6,1278.3z"/>
					<path class="st3" d="M807.3,974.2c17.9-18.7,28.2-43.9,28.5-70.5c0.1-7.6,11.4-8,11.3-0.3c0,0.7,0,1.3-0.1,2v0.1
						c10.7,28,14,58.2,10.2,88c-1,7.5-11.9,4.8-11-2.7c2.5-19.8,1.4-39.7-3-58.9c-4.9,18.8-14.3,36.3-27.7,50.3
						C810.4,987.5,802.1,979.5,807.3,974.2z"/>
					<path class="st3" d="M1136.9,702.5c29.2-38,50.3-82.3,61.8-129.6c1.8-7.4,12.8-4.7,11,2.7c-12,49.3-34,95.3-64.5,134.9
						C1140.7,716.5,1132.4,708.4,1136.9,702.5z"/>
					<path class="st3" d="M965.4,1536.6c18.4-96.7,26-195.3,22.5-293.9c-0.3-7.6,11-8,11.3-0.3c2.7,77.2-1.3,154.6-12,231.1
						c-3.1,22-6.7,44-10.9,65.8C974.9,1546.7,963.9,1544.1,965.4,1536.6z"/>
					<path class="st5" d="M1469.2,2154.7c7.8,10.6,8.5,24.7,8.2,37.8c-0.8,40.4-7.5,80.4-14.1,120.2c-0.7,4.3-1.6,8.8-4.7,11.8
						c-4.9,4.7-13.5,3.3-18.4-1.4c-5-4.6-7.1-11.5-8.9-18c-10.7-40.2-11.8-82.3-11.7-123.9C1419.7,2155.4,1445,2121.9,1469.2,2154.7
						z"/>
					<path class="st5" d="M1098.8,2231.7c-1.5,48.5-6.1,97-13.9,144.9c-1.1,7-2.8,14.8-8.6,18.9c-4.1,2.9-9.3,3.4-14.3,3.5
						c-7.4,0.2-15.7-0.4-20.7-5.8c-3.6-3.9-4.8-9.5-5.7-14.7c-5.6-31.4-9.3-63.1-11.1-95c-1.4-24-6.5-55.4,4.4-77.9
						c8.1-16.8,24.3-24.9,42.8-21.4C1095.5,2188.9,1099.5,2210.1,1098.8,2231.7z"/>
					<path class="st5" d="M1832.1,2476.8c8.7-52.3,3.8-106.9-14.2-156.8c-9.1-25.3-23.6-51.4-48.6-61.4c-2.2-0.9-4.7-1.6-6.9-0.8
						c-3.4,1.2-4.7,5.3-5.4,8.8c-12.9,61.5-9.1,125.5,0.8,187.5c0.9,5.6,1.9,11.3,4.4,16.3c8.4,17,35.3,20.5,47.8,6.2"/>
				</g>
				<g>
					<path class="st5" d="M959.6,238.3c1.2-9.6,2.4-19.1,3.7-28.7c-5.8,0.3-11.7,0.7-17.5,1.3s-6.7-8.8-0.9-9.5
						c6.6-0.8,13.1-1.4,19.7-1.7c1.5-10.8,2.9-21.5,4.4-32.3c0.8-6,9.7-4.4,8.9,1.6c-1.3,10.1-2.5,20.3-3.8,30.4
						c10.2-0.1,20.4,0.3,30.6,1.2c6,0.6,4.4,10.2-1.6,9.7c-10.1-0.9-20.2-1.2-30.3-1.1c-1.3,10.2-2.7,20.4-4.1,30.6
						C967.8,246.1,958.8,244.5,959.6,238.3z"/>
					<path class="st5" d="M931.5,336.6c3.1-6.3,5.5-12.8,7.1-19.5c-6.1-0.2-12.1,0-18.3,0.7c-5.8,0.7-6.7-8.7-0.9-9.4
						c7.1-0.9,14.1-1.1,21.1-0.8c0.7-5,1.1-10.1,1-15.4c-0.1-6.2,9-7.2,9.2-1c0.1,5.8-0.2,11.4-0.9,17c5.7,0.7,11.4,1.7,17.1,3.2
						s4.3,10.9-1.5,9.5s-11.5-2.5-17.2-3.1c-1.8,7.8-4.5,15.5-8.2,22.8C937.1,346.1,928.8,342.2,931.5,336.6z"/>
					<path class="st5" d="M1032.5,315.9c1.3-7.9,2.7-15.8,4.2-23.8c-5.2-0.4-10.4-0.7-15.6-1.1c-5.8-0.4-4.2-9.7,1.5-9.3
						c5.3,0.3,10.5,0.7,15.8,1c1.1-6,2.3-12,3.5-18c1.2-5.9,9.8-4.4,8.8,1.6c-0.9,5.7-1.9,11.3-2.9,17c9.6,0.6,19.2,1.2,28.9,2
						c5.9,0.5,4.3,9.8-1.5,9.5c-9.7-0.5-19.3-1.2-29-1.9c-1.5,8.3-3,16.5-4.6,24.7C1040.4,323.6,1031.5,322,1032.5,315.9z"/>
				</g>
				<path class="st5" d="M2008.2,466.6c-8.7,4.7-19.2,3.8-27.7-0.9c0.8-1.1,1.7-2.3,2.4-3.6c5.7-10.1,5.7-25.3-4.5-32.5
					c-4.5-3.2-10.6-4.3-15.2-0.7c-4.6,3.6-5.4,10.2-4.7,15.7c1,8.5,5.3,16,11.3,21.6c-6.9,4-15.6,3.6-22.8,0.4
					c-3.4-1.5-6.3-3.6-8.9-6.1c3.7-4.8,6.1-10.7,6.7-16.8c1-10.8-4.7-24.2-16.7-24.2c-15,0-8.5,22-5,30.2c1.6,3.7,3.6,7.2,6,10.4
					c-11.5,8.6-29.4,2.8-34-12.7c-1.2-4.3-7.4-1.6-6.1,2.6c4,13.4,17.3,22.3,30.6,21.2c5.3-0.5,10.1-2.7,14.1-6
					c5,4.9,11.1,8.5,18.2,10c8.2,1.7,16.9,0.1,23.6-4.8c10.5,6.8,24.1,8.6,35.2,2.5C2014.4,470.9,2012,464.4,2008.2,466.6z
					 M1933.6,455c-2.2-3.1-3.9-6.5-5.3-10.1c-1.6-4.4-4.2-11.1-3.2-15.9c1-5,6.4-2.3,8.8-0.2c6.8,5.9,5,17.6,0.9,24.6
					C1934.5,454,1934.1,454.6,1933.6,455z M1975.1,461.6c-4.7-4-8.2-9.4-9.5-15.8c-0.8-4-1.4-11.4,3.7-12.4c4.4-0.8,8.4,3.8,9.9,7.6
					C1981.7,447.9,1979.7,456.2,1975.1,461.6z"/>
				<path class="st5" d="M2131.8,655.3c-12.9-1.8-24.5-10.8-30.6-22.8c2.4-0.2,4.8-0.7,7.3-1.7c7.4-2.9,14.1-9.6,14.5-18.3
					c0.4-7.8-4.5-15.7-11.3-18.7c-7.3-3.3-15.2,0.5-18.8,7.6c-3.5,6.9-3.5,15.2-1.8,22.7c-5.2-2-9.9-5.8-13.7-9.9
					c-0.6-0.7-1.3-1.4-1.9-2.1c6.6-4.1,11.9-10.6,13.7-18.5c1.8-8.1-0.5-18.4-7.8-22.9c-7.5-4.6-16.1-0.6-20.6,6.4
					c-5,7.9-3.6,17.5,0.3,25.6c1.1,2.1,2.3,4.3,3.7,6.5c-1.7,0.5-3.5,0.8-5.2,0.9c-8.6,0.4-16.3-4-21.7-10.6
					c0.6-0.2,1.1-0.6,1.7-0.9c7.6-4.7,13-13.3,13.7-22.5c0.7-9.6-5.2-21.5-15.5-21.5c-8.1,0-13.1,8-14.5,15.5
					c-1.6,8.4,0.4,17.4,4,25.1c-10.6,0.1-20-10.3-19.9-21.5c0.1-4.5-6.6-4.5-6.6,0c-0.1,17,15.2,30.4,30.4,28
					c8.8,12.4,23.7,18.4,38,13.4c6.6,8.1,15.3,14.8,24.7,16.8c6.7,16.3,21.2,27.9,38.1,30.3C2136.2,662.8,2136.2,655.9,2131.8,655.3
					z M2034.1,593.9c-1.2-2.3-2.2-4.8-3-7.3c-1.7-5.8-2.5-12.5-0.3-18.3c2.5-6.8,9.2-9.2,13.6-2.4
					C2050.9,575.8,2043.8,589.3,2034.1,593.9z M2071.3,606.7c-2.5-3.6-4.6-7.4-5.9-11.5c-2-6.3-1.3-13.4,4.1-17.6
					c6.1-4.7,12.1,0.1,13.5,6.9C2085,594.1,2079.1,602.2,2071.3,606.7z M2098.6,625.5c-2-6.3-2.7-13.6-0.2-19.7
					c2.8-6.7,9.5-8.4,14.5-3.1c3.9,4.2,4.9,10.3,1.7,15.2C2111.2,623.2,2104.6,625.8,2098.6,625.5z"/>
			</g>
		</g>
	</g>
</g>
</svg>
