<?xml version="1.0" encoding="utf-8"?>
<!-- Generator: Adobe Illustrator 23.0.3, SVG Export Plug-In . SVG Version: 6.00 Build 0)  -->
<svg version="1.1" id="Layer_1" xmlns="http://www.w3.org/2000/svg" xmlns:xlink="http://www.w3.org/1999/xlink" x="0px" y="0px"
	 viewBox="0 0 14.6 14" style="enable-background:new 0 0 14.6 14;" xml:space="preserve">
<style type="text/css">
	.st0{fill:#DF271C;}
</style>
<path class="st0" d="M6.9,0v6.3H0.7C0.3,5.2,0,4,0,2.8C3.4,2.7,5.8,1,6.9,0z M1.1,7.1h5.8V14c-0.2-0.1-0.3-0.2-0.5-0.4
	C4.9,12.5,2.4,10.2,1.1,7.1z M8.2,13.6c-0.2,0.2-0.4,0.3-0.5,0.4V7.1h5.8c-0.7,1.6-1.7,2.9-2.7,4.1C9.9,12.2,9,13.1,8.2,13.6z
	 M13.9,6.3H7.7V0c1.1,1,3.4,2.7,6.9,2.8C14.6,4,14.3,5.2,13.9,6.3z"/>
</svg>
