<?xml version="1.0" encoding="utf-8"?>
<!-- Generator: Adobe Illustrator 23.0.3, SVG Export Plug-In . SVG Version: 6.00 Build 0)  -->
<svg version="1.1" id="Layer_1" xmlns="http://www.w3.org/2000/svg" xmlns:xlink="http://www.w3.org/1999/xlink" x="0px" y="0px"
	 viewBox="0 0 19 14.6" style="enable-background:new 0 0 19 14.6;" xml:space="preserve">
<style type="text/css">
	.st0{fill:#DF271C;}
</style>
<g>
	<polygon class="st0" points="8.6,2.2 8,1.7 6.7,3.1 6.7,1.9 6,1.9 6,5.2 6.7,5.2 6.7,4.2 7,3.9 8.1,5.2 8.7,4.7 7.5,3.4 	"/>
	<path class="st0" d="M3.9,1.7C3,1.8,2.4,2.6,2.4,3.6c0,1,0.6,1.8,1.5,1.9c0.9,0,1.5-0.9,1.5-1.9C5.4,2.6,4.8,1.8,3.9,1.7z M4.4,4.4
		C4.3,4.6,4.1,4.7,3.9,4.7c-0.2,0-0.4-0.1-0.5-0.3C3.2,4.2,3.1,3.9,3.1,3.6c0-0.3,0.1-0.6,0.3-0.8c0.2-0.2,0.3-0.3,0.5-0.3
		c0.2,0,0.4,0.1,0.5,0.3C4.6,3,4.7,3.3,4.7,3.6C4.7,3.9,4.6,4.2,4.4,4.4z"/>
	<path class="st0" d="M10,0L1.2,0c0,0,0,0,0,0C0.6,0,0,0.6,0,1.2l0,12.1c0,0.7,0.6,1.2,1.2,1.2l8.7,0c0.7,0,1.2-0.6,1.2-1.2l0-12.1
		C11.2,0.6,10.7,0,10,0z M2.4,13c-0.4,0-0.6-0.3-0.6-0.6c0-0.3,0.3-0.6,0.6-0.6c0.4,0,0.6,0.3,0.6,0.6C3.1,12.7,2.8,13,2.4,13z
		 M2.4,11.1c-0.4,0-0.6-0.3-0.6-0.6c0-0.4,0.3-0.6,0.6-0.6c0.4,0,0.6,0.3,0.6,0.6C3.1,10.8,2.8,11.1,2.4,11.1z M2.4,9.1
		c-0.4,0-0.6-0.3-0.6-0.6c0-0.4,0.3-0.6,0.6-0.6c0.4,0,0.6,0.3,0.6,0.6C3.1,8.8,2.8,9.1,2.4,9.1z M4.5,13c-0.3,0-0.6-0.3-0.6-0.6
		c0-0.4,0.3-0.6,0.6-0.6c0.4,0,0.6,0.3,0.6,0.6C5.1,12.7,4.8,13,4.5,13z M4.5,11.1c-0.3,0-0.6-0.3-0.6-0.6c0-0.4,0.3-0.6,0.6-0.6
		c0.4,0,0.6,0.3,0.6,0.6C5.1,10.8,4.8,11.1,4.5,11.1z M4.5,9.1c-0.3,0-0.6-0.3-0.6-0.6c0-0.4,0.3-0.6,0.6-0.6c0.4,0,0.6,0.3,0.6,0.6
		C5.1,8.8,4.8,9.1,4.5,9.1z M6.6,13c-0.4,0-0.6-0.3-0.6-0.6c0-0.4,0.3-0.6,0.6-0.6c0.4,0,0.6,0.3,0.6,0.6C7.2,12.7,6.9,13,6.6,13z
		 M6.6,11.1c-0.4,0-0.6-0.3-0.6-0.6c0-0.4,0.3-0.6,0.6-0.6c0.3,0,0.6,0.3,0.6,0.6C7.2,10.8,6.9,11.1,6.6,11.1z M6.6,9.1
		c-0.4,0-0.6-0.3-0.6-0.6c0-0.3,0.3-0.6,0.6-0.6c0.3,0,0.6,0.3,0.6,0.6C7.2,8.9,6.9,9.1,6.6,9.1z M9.2,12.5c0,0.3-0.3,0.6-0.6,0.6
		c-0.3,0-0.6-0.3-0.6-0.6l0-2.2c0-0.3,0.3-0.6,0.6-0.6c0.3,0,0.6,0.3,0.6,0.6L9.2,12.5z M8.6,9.1C8.3,9.1,8,8.9,8,8.5
		c0-0.4,0.3-0.6,0.6-0.6c0.4,0,0.6,0.3,0.6,0.6C9.3,8.9,9,9.1,8.6,9.1z M10.5,6.3H0.7l0-5.1C0.7,1,1,0.7,1.2,0.7h0l8.7,0
		c0.3,0,0.5,0.2,0.5,0.5L10.5,6.3z"/>
	<path class="st0" d="M19,3.5V3.2c0-0.5-0.4-1-1-1v0h-5.7v0.7l5.7,0v0c0.1,0,0.3,0.1,0.3,0.3v0v1h-6v4.3H18c0.6,0,1-0.4,1-1v-3l0,0
		L19,3.5C19,3.5,19,3.5,19,3.5z M17.9,6.2h-3.7V5.5h3.7V6.2z"/>
</g>
</svg>
