<?xml version="1.0" encoding="utf-8"?>
<!-- Generator: Adobe Illustrator 23.0.3, SVG Export Plug-In . SVG Version: 6.00 Build 0)  -->
<svg version="1.1" id="Layer_1" xmlns="http://www.w3.org/2000/svg" xmlns:xlink="http://www.w3.org/1999/xlink" x="0px" y="0px"
	 viewBox="0 0 19.5 19.5" style="enable-background:new 0 0 19.5 19.5;" xml:space="preserve">
<style type="text/css">
	.st0{fill:#DF271C;}
</style>
<path class="st0" d="M17.1,8.9c-0.4-3.5-3.2-6.3-6.7-6.6V0H8.9v2.4C5.4,2.7,2.7,5.6,2.3,9.1H0v1.5h2.3c0.4,3.5,3.2,6.3,6.7,6.6v2.3
	h1.5v-2.3c3.5-0.4,6.3-3.2,6.6-6.7h2.3V8.9H17.1z M9.1,12.8v2.9c-2.7-0.3-4.9-2.4-5.2-5.1h2.9V9.1H3.8c0.3-2.7,2.4-4.9,5.1-5.2v2.9
	h1.5V3.8c2.7,0.3,4.9,2.4,5.2,5.1h-2.9v1.5h2.9c-0.3,2.7-2.4,4.9-5.1,5.2v-2.9H9.1z"/>
</svg>
