<?xml version="1.0" encoding="utf-8"?>
<!-- Generator: Adobe Illustrator 23.0.3, SVG Export Plug-In . SVG Version: 6.00 Build 0)  -->
<svg version="1.1" id="Layer_1" xmlns="http://www.w3.org/2000/svg" xmlns:xlink="http://www.w3.org/1999/xlink" x="0px" y="0px"
	 viewBox="0 0 19.3 10.1" style="enable-background:new 0 0 19.3 10.1;" xml:space="preserve">
<style type="text/css">
	.st0{fill:#DF271C;}
</style>
<g>
	<path class="st0" d="M8.8,1.4C8.6,1.3,8.4,1.1,8,0.9C7.3,0.4,6.2,0,4.5,0C1.6,0,0.3,1.2,0,1.5V10c0.7-0.5,2.2-1.3,4.5-1.3h0
		c2.3,0,3.7,0.8,4.4,1.4V1.6c0,0,0,0,0,0C8.9,1.6,8.8,1.5,8.8,1.4z"/>
	<path class="st0" d="M18.4,0.8C17.7,0.4,16.5,0,14.8,0c-3,0-4.2,1.3-4.4,1.6c0,0,0,0,0,0v8.5c0.7-0.6,2.1-1.4,4.5-1.4
		c2.3,0,3.8,0.7,4.5,1.3V1.5c0,0-0.1-0.1-0.1-0.1C19,1.2,18.8,1,18.4,0.8z"/>
</g>
</svg>
