<?xml version="1.0" encoding="utf-8"?>
<!-- Generator: Adobe Illustrator 23.0.3, SVG Export Plug-In . SVG Version: 6.00 Build 0)  -->
<svg version="1.1" id="Layer_1" xmlns="http://www.w3.org/2000/svg" xmlns:xlink="http://www.w3.org/1999/xlink" x="0px" y="0px"
	 viewBox="0 0 15.6 15.6" style="enable-background:new 0 0 15.6 15.6;" xml:space="preserve">
<style type="text/css">
	.st0{fill:#DF271C;}
</style>
<g>
	<path class="st0" d="M15.1,0.5C14.8,0.2,14.4,0,13.9,0h0c-0.4,0-0.9,0.2-1.2,0.5c-0.1,0.1-0.2,0.2-0.3,0.3
		c-0.7,0.7-2.5,2.4-4.3,4.3c0,0,0,0,0,0c0,0,0,0,0,0C7.1,4.5,5.8,3.5,4.4,2.7C3.7,2.3,2,1.3,1,1.3l0,0c-0.3,0-0.5,0.1-0.6,0.2
		C0.1,1.7,0,2,0,2.2C0,2.5,0.1,2.8,0.3,3c0,0,0,0,0,0l5.3,4.8c0,0,0,0,0,0.1C4.7,9,3.5,10.5,3.1,11.5c0,0,0,0,0,0
		c-0.2-0.1-1.7-0.7-2.4-0.7l0,0c0,0,0,0,0,0c0,0,0,0,0,0c-0.1,0-0.2,0.1-0.3,0.2s0,0.3,0.1,0.4l2,1.8l0,0l1.7,1.9
		c0.1,0.1,0.2,0.1,0.2,0.1c0,0,0.1,0,0.1,0c0.1,0,0.2-0.2,0.2-0.3c0,0,0-0.1,0-0.1c0-0.7-0.6-2.2-0.7-2.4c0,0,0,0,0,0
		c1-0.4,2.5-1.6,3.6-2.6c0,0,0,0,0,0c0,0,0,0,0,0l4.8,5.3c0,0,0,0,0,0c0.2,0.2,0.5,0.3,0.7,0.3c0.3,0,0.5-0.1,0.7-0.3
		c0.2-0.2,0.2-0.4,0.2-0.7c0-1-1-2.8-1.4-3.5c-0.8-1.4-1.8-2.7-2.5-3.6c0,0,0,0,0-0.1c1.9-1.8,3.7-3.7,4.4-4.3
		c0.1-0.1,0.2-0.2,0.3-0.3c0.3-0.3,0.5-0.7,0.5-1.2C15.6,1.2,15.4,0.8,15.1,0.5z"/>
	<path class="st0" d="M4.6,2c0.3,0,0.6-0.3,0.6-0.6c0-0.3-0.3-0.6-0.6-0.6C4.3,0.8,4,1.1,4,1.4C4,1.8,4.3,2,4.6,2z"/>
	<path class="st0" d="M6.4,3.2C6.7,3.2,7,2.9,7,2.6C7,2.2,6.7,2,6.4,2C6,2,5.8,2.2,5.8,2.6C5.8,2.9,6,3.2,6.4,3.2z"/>
	<path class="st0" d="M14.4,10.6c-0.3,0-0.6,0.3-0.6,0.6s0.3,0.6,0.6,0.6c0.3,0,0.6-0.3,0.6-0.6S14.7,10.6,14.4,10.6z"/>
	<path class="st0" d="M13.3,8.8c-0.3,0-0.6,0.3-0.6,0.6c0,0.3,0.3,0.6,0.6,0.6c0.3,0,0.6-0.3,0.6-0.6C13.9,9.1,13.6,8.8,13.3,8.8z"
		/>
</g>
</svg>
