<?xml version="1.0" encoding="utf-8"?>
<!-- Generator: Adobe Illustrator 23.0.3, SVG Export Plug-In . SVG Version: 6.00 Build 0)  -->
<svg version="1.1" id="Layer_1" xmlns="http://www.w3.org/2000/svg" xmlns:xlink="http://www.w3.org/1999/xlink" x="0px" y="0px"
	 viewBox="0 0 16.5 16.3" style="enable-background:new 0 0 16.5 16.3;" xml:space="preserve">
<style type="text/css">
	.st0{fill:#DF271C;}
</style>
<g>
	<path class="st0" d="M8.7,9l1.1,0.5l0.1-0.1c0.1-0.1,0.3-0.3,0.4-0.5c0.1-0.1,0.2-0.3,0.3-0.5l0.1-0.1l-0.9-1L9.8,7l0.2,0l1.2-0.1
		l0-0.1c0.1-0.4,0.1-0.8,0.1-1.1l0-0.2L10,5.1L9.9,4.8L11,4l0-0.1c-0.1-0.4-0.3-0.8-0.5-1.1l-0.1-0.1L9.1,3L8.9,2.7L9,2.6l0.5-1.1
		L9.4,1.4C9.2,1.3,9.1,1.2,8.9,1C8.7,0.9,8.5,0.8,8.4,0.7l-0.1,0l-1,0.9L7,1.5l0-0.2L6.9,0.1l-0.1,0C6.4,0,6,0,5.6,0L5.5,0L5.1,1.3
		L4.7,1.4L4.7,1.2L4,0.3l-0.1,0C3.5,0.4,3.1,0.6,2.8,0.8L2.7,0.8L3,2.1L2.8,2.3L2.7,2.3L1.5,1.8L1.4,1.9C1.3,2,1.2,2.2,1,2.4
		C0.9,2.5,0.8,2.7,0.7,2.9L0.7,3l0.9,1L1.5,4.2l-0.2,0L0.1,4.4l0,0.1C0,4.9,0,5.3,0,5.7l0,0.2l1.3,0.4v0.2l0,0.1L0.3,7.3l0,0.1
		c0.1,0.4,0.3,0.8,0.5,1.1l0.1,0.1l1.3-0.3l0.2,0.3L2.3,8.7L1.8,9.8l0.1,0.1C2,10,2.2,10.1,2.4,10.2c0.2,0.1,0.3,0.2,0.5,0.3L3,10.6
		l1-0.9l0.3,0.1l0,0.1l0.1,1.2l0.1,0c0.4,0.1,0.7,0.1,1.1,0.1l0.2,0L6.2,10h0.2l0.1,0L7.3,11l0.1,0c0.4-0.1,0.8-0.3,1.1-0.5l0.1-0.1
		L8.3,9.1l0.2-0.2L8.7,9z M5.6,7.7c-1.1,0-2.1-0.9-2.1-2.1c0-1.1,0.9-2.1,2.1-2.1c1.1,0,2,0.9,2,2.1C7.7,6.8,6.8,7.7,5.6,7.7z"/>
	<path class="st0" d="M15.4,13.1c0,0,0-0.1,0-0.1l0-0.1l1-0.4l0-0.1c0-0.4-0.1-0.8-0.2-1.1l0-0.1l-1.1,0L15.1,11c0,0,0-0.1-0.1-0.1
		L15,10.8l0.5-1l-0.1-0.1c-0.1-0.1-0.3-0.2-0.4-0.4c-0.2-0.1-0.3-0.2-0.5-0.3l-0.1,0l-0.8,0.8l-0.1,0c0,0-0.1,0-0.1,0l-0.1,0
		l-0.4-1.1l-0.1,0c-0.4,0-0.8,0.1-1.1,0.2l-0.1,0l0,1.1L11.2,10c0,0-0.1,0-0.1,0.1L11,10.2l-1-0.5L9.9,9.8c-0.1,0.1-0.3,0.3-0.3,0.4
		c-0.1,0.2-0.2,0.3-0.3,0.5l0,0.1l0.8,0.8l0,0.1c0,0,0,0.1,0,0.1l0,0.1l-1,0.4l0,0.1c0,0.4,0.1,0.8,0.2,1.1l0,0.1l1.1,0l0.1,0.1
		c0,0,0.1,0.1,0.1,0.1l0.1,0.1l-0.4,1l0.1,0.1c0.1,0.1,0.3,0.2,0.4,0.3c0.2,0.1,0.4,0.2,0.5,0.3l0.1,0l0.8-0.7l0.1,0
		c0.1,0,0.1,0,0.2,0l0.1,0l0.4,1l0.1,0c0.4,0,0.8-0.1,1.1-0.2l0.1,0l0-1.1l0.1-0.1c0,0,0.1-0.1,0.1-0.1l0.1-0.1l1,0.4l0.1-0.1
		c0.1-0.1,0.2-0.3,0.4-0.4c0.1-0.2,0.2-0.3,0.3-0.5l0-0.1l-0.7-0.8L15.4,13.1z"/>
</g>
</svg>
