<?xml version="1.0" encoding="utf-8"?>
<!-- Generator: Adobe Illustrator 23.0.3, SVG Export Plug-In . SVG Version: 6.00 Build 0)  -->
<svg version="1.1" id="Layer_1" xmlns="http://www.w3.org/2000/svg" xmlns:xlink="http://www.w3.org/1999/xlink" x="0px" y="0px"
	 viewBox="0 0 15 15" style="enable-background:new 0 0 15 15;" xml:space="preserve">
<style type="text/css">
	.st0{fill:#DF271C;}
</style>
<g>
	<g>
		<path class="st0" d="M0.7,0.8C0.3,1.3,0,2,0,3l0,0c0,2.2,1.4,5.4,4,8l0,0c2.6,2.6,5.8,4,8,4l0,0c1,0,1.7-0.3,2.1-0.7l0,0
			c0.2-0.2,0.7-0.8,0.8-1.1l0,0l-3.5-3.5c-0.7,0.5-1.6,0.7-2.5,0.7l0,0c-1.1,0-2.3-0.4-3.2-1.3l0,0C5,8.2,4.6,7,4.6,5.9l0,0
			c0-0.9,0.2-1.8,0.7-2.5l0,0L1.8,0C1.5,0.2,0.9,0.6,0.7,0.8L0.7,0.8z M11.3,9.5l0.3-0.3L11.3,9.5L11.3,9.5z"/>
	</g>
</g>
</svg>
