<?xml version="1.0" encoding="utf-8"?>
<!-- Generator: Adobe Illustrator 23.0.3, SVG Export Plug-In . SVG Version: 6.00 Build 0)  -->
<svg version="1.1" id="Layer_1" xmlns="http://www.w3.org/2000/svg" xmlns:xlink="http://www.w3.org/1999/xlink" x="0px" y="0px"
	 viewBox="0 0 14.5 13" style="enable-background:new 0 0 14.5 13;" xml:space="preserve">
<style type="text/css">
	.st0{fill:#DF271C;}
</style>
<g>
	<path class="st0" d="M11.7,8.8c-0.8,0-1.5,0.4-1.8,1.1C9.5,9.2,8.8,8.8,8,8.8c-1,0-1.9,0.8-2.1,1.7H0v0.7h6C6.1,12.3,7,13,8,13
		c0.8,0,1.5-0.4,1.8-1.1c0.4,0.6,1.1,1.1,1.8,1.1c1,0,1.9-0.8,2.1-1.7h0.7v-0.7h-0.7C13.6,9.5,12.8,8.8,11.7,8.8z M8,12.3
		c-0.8,0-1.4-0.6-1.4-1.4c0-0.8,0.6-1.4,1.4-1.4c0.8,0,1.4,0.6,1.4,1.4C9.4,11.7,8.8,12.3,8,12.3z M11.7,12.3
		c-0.8,0-1.4-0.6-1.4-1.4c0-0.8,0.6-1.4,1.4-1.4c0.8,0,1.4,0.6,1.4,1.4C13.1,11.7,12.5,12.3,11.7,12.3z M8.6,6.1
		c-0.2-1-1-1.7-2.1-1.7C5.7,4.4,5,4.8,4.7,5.5C4.3,4.8,3.6,4.4,2.8,4.4c-1,0-1.9,0.8-2.1,1.7H0v0.7h0.7c0.2,1,1,1.7,2.1,1.7
		c0.8,0,1.5-0.4,1.8-1.1C5,8.2,5.7,8.6,6.5,8.6c1,0,1.9-0.8,2.1-1.7h6V6.1H8.6z M2.8,7.9c-0.8,0-1.4-0.6-1.4-1.4
		c0-0.8,0.6-1.4,1.4-1.4c0.8,0,1.4,0.6,1.4,1.4C4.2,7.3,3.6,7.9,2.8,7.9z M6.5,7.9c-0.8,0-1.4-0.6-1.4-1.4h0c0-0.8,0.6-1.4,1.4-1.4
		c0.8,0,1.4,0.6,1.4,1.4C7.9,7.3,7.3,7.9,6.5,7.9z M11.7,4.2c1,0,1.9-0.8,2.1-1.7h0.7V1.7h-0.7c-0.2-1-1-1.7-2.1-1.7
		c-1,0-1.9,0.8-2.1,1.7H0v0.7h9.6C9.8,3.5,10.7,4.2,11.7,4.2z M11.7,0.7c0.8,0,1.4,0.6,1.4,1.4c0,0.8-0.6,1.4-1.4,1.4
		c-0.8,0-1.4-0.6-1.4-1.4C10.4,1.4,11,0.7,11.7,0.7z"/>
</g>
</svg>
