<?xml version="1.0" encoding="utf-8"?>
<!-- Generator: Adobe Illustrator 23.0.3, SVG Export Plug-In . SVG Version: 6.00 Build 0)  -->
<svg version="1.1" id="Layer_1" xmlns="http://www.w3.org/2000/svg" xmlns:xlink="http://www.w3.org/1999/xlink" x="0px" y="0px"
	 viewBox="0 0 18.6 14.8" style="enable-background:new 0 0 18.6 14.8;" xml:space="preserve">
<style type="text/css">
	.st0{fill:#DF271C;}
</style>
<path class="st0" d="M17.5,7.6h-8V7.1h5.7c0.6,0,1.1-0.5,1.1-1.1c0-0.6-0.5-1.1-1.1-1.1H6.9L10,2.5c0.4-0.3,0.6-0.7,0.6-1.1
	C10.6,0.6,10,0,9.3,0C8.9,0,8.4,0.3,8.4,0.3C7.8,0.7,5.4,2.2,4,3.1C2.3,4.2,0.7,5.2,0.5,5.3C0.2,5.6,0,6,0,6.4v6.2
	c0,0.7,0.2,1.3,0.6,1.7c0.4,0.4,1,0.6,1.7,0.6h10.6c0.6,0,1.1-0.5,1.1-1.1c0-0.6-0.5-1.1-1.1-1.1H9.5v-0.4h6.6
	c0.6,0,1.1-0.5,1.1-1.1c0-0.6-0.5-1.1-1.1-1.1H9.5V9.7h8c0.6,0,1.1-0.5,1.1-1.1C18.6,8.1,18.1,7.6,17.5,7.6z"/>
</svg>
