<?xml version="1.0" encoding="utf-8"?>
<!-- Generator: Adobe Illustrator 23.0.3, SVG Export Plug-In . SVG Version: 6.00 Build 0)  -->
<svg version="1.1" id="Layer_1" xmlns="http://www.w3.org/2000/svg" xmlns:xlink="http://www.w3.org/1999/xlink" x="0px" y="0px"
	 viewBox="0 0 17.1 18.3" style="enable-background:new 0 0 17.1 18.3;" xml:space="preserve">
<style type="text/css">
	.st0{fill:#DF271C;}
</style>
<path class="st0" d="M15.4,3.5C13.8,1.3,11.3,0,8.5,0c0,0,0,0,0,0C6.7,0,5,0.6,3.5,1.6C2,2.8,0.9,4.3,0.3,6.1C0.1,6.9,0,7.7,0,8.5
	c0,0.1,0,0.1,0,0.2l0,0.2l1.2,0l0-0.2c0-0.1,0-0.1,0-0.2c0-0.7,0.1-1.4,0.3-2.1c0.5-1.6,1.4-2.9,2.7-3.9C5.5,1.7,7,1.2,8.5,1.2
	c2.3,0,4.6,1.1,6,3c0.9,1.3,1.4,2.8,1.4,4.3c0,2.3-1.1,4.6-3,6c-1.3,0.9-2.8,1.4-4.3,1.4c-0.7,0-1.5-0.1-2.2-0.3L9,13.7l-7.1-3.2
	l0.8,7.7l2.6-1.9c1.1,0.4,2.2,0.7,3.3,0.7c1.8,0,3.5-0.6,5-1.6c2.2-1.6,3.5-4.2,3.5-6.9C17.1,6.7,16.5,5,15.4,3.5z"/>
</svg>
