<?xml version="1.0" encoding="utf-8"?>
<!-- Generator: Adobe Illustrator 23.0.3, SVG Export Plug-In . SVG Version: 6.00 Build 0)  -->
<svg version="1.1" id="Layer_1" xmlns="http://www.w3.org/2000/svg" xmlns:xlink="http://www.w3.org/1999/xlink" x="0px" y="0px"
	 viewBox="0 0 14.3 16.9" style="enable-background:new 0 0 14.3 16.9;" xml:space="preserve">
<style type="text/css">
	.st0{fill:#DF271C;}
</style>
<g>
	<rect x="1.7" y="0" class="st0" width="0.8" height="1.5"/>
	<rect x="3.7" class="st0" width="0.8" height="1.5"/>
	<rect x="5.8" y="0" class="st0" width="0.8" height="1.5"/>
	<rect x="7.8" y="0" class="st0" width="0.8" height="1.5"/>
	<rect x="9.8" y="0" class="st0" width="0.8" height="1.5"/>
	<rect x="11.9" y="0" class="st0" width="0.8" height="1.5"/>
	<path class="st0" d="M12.7,1.5V3h-0.8V1.5h-1.2V3H9.8V1.5H8.6V3H7.8V1.5H6.6V3H5.8V1.5H4.5V3H3.7V1.5H2.5V3H1.7V1.5H0v15.4h14.3
		V1.5H12.7z M6,14.4H4.8l0-5.8L3.9,9.5L3,8.6l3-3V14.4z M9.4,14.4V8.6L8.6,9.5L7.7,8.6l3-3l0,8.8H9.4z"/>
</g>
</svg>
