<?xml version="1.0" encoding="utf-8"?>
<!-- Generator: Adobe Illustrator 23.0.3, SVG Export Plug-In . SVG Version: 6.00 Build 0)  -->
<svg version="1.1" id="Layer_1" xmlns="http://www.w3.org/2000/svg" xmlns:xlink="http://www.w3.org/1999/xlink" x="0px" y="0px"
	 viewBox="0 0 17.2 16" style="enable-background:new 0 0 17.2 16;" xml:space="preserve">
<style type="text/css">
	.st0{fill:#DF271C;}
</style>
<path class="st0" d="M16.3,10.8L6.6,1.1C5.9,0.4,4.9,0,3.9,0c0,0,0,0,0,0c-1,0-2,0.4-2.7,1.1C0.4,1.9,0,2.8,0,3.9c0,1,0.4,2,1.1,2.7
	L9.5,15l0.8-0.8L1.9,5.8C1.4,5.3,1.1,4.6,1.1,3.9c0-0.7,0.3-1.4,0.8-1.9c0.5-0.5,1.2-0.8,1.9-0.8c0.7,0,1.4,0.3,1.9,0.8l9.7,9.7
	c0.4,0.4,0.5,0.8,0.5,1.3c0,0.5-0.2,1-0.5,1.3c-0.4,0.4-0.8,0.5-1.3,0.5c-0.5,0-1-0.2-1.3-0.5L4.6,6C4.5,5.9,4.4,5.6,4.4,5.4
	c0-0.2,0.1-0.5,0.3-0.6c0.3-0.3,0.9-0.3,1.3,0l7,7l0.8-0.8l-7-7C6.3,3.6,5.8,3.4,5.3,3.4c0,0,0,0,0,0c-0.5,0-1.1,0.2-1.4,0.6
	C3.4,4.3,3.2,4.8,3.2,5.4c0,0.5,0.2,1.1,0.6,1.4l8.2,8.2c0.6,0.6,1.3,0.9,2.1,0.9c0.8,0,1.6-0.3,2.1-0.9c0.6-0.6,0.9-1.3,0.9-2.1
	C17.2,12.2,16.9,11.4,16.3,10.8z"/>
</svg>
