<?xml version="1.0" encoding="utf-8"?>
<!-- Generator: Adobe Illustrator 23.0.3, SVG Export Plug-In . SVG Version: 6.00 Build 0)  -->
<svg version="1.1" id="Layer_1" xmlns="http://www.w3.org/2000/svg" xmlns:xlink="http://www.w3.org/1999/xlink" x="0px" y="0px"
	 viewBox="0 0 17.4 16.8" style="enable-background:new 0 0 17.4 16.8;" xml:space="preserve">
<style type="text/css">
	.st0{fill:#DF271C;}
</style>
<path class="st0" d="M16.6,11.8c0.4-0.1,0.8-0.5,0.8-1.1c0-0.6-0.4-1-0.8-1.1c0.3-0.1,0.9-0.4,0.9-1.1c0-0.7-0.6-1-0.9-1.1
	c0.4-0.1,0.8-0.5,0.8-1.1c0-0.8-0.5-1.2-1-1.2c-0.1,0-0.1,0-0.2,0l-3.7,0.6c0.3-0.2,0.8-1,0.8-2.8c0-1.9-0.9-2.7-1.8-2.7
	c-0.2,0-0.4,0-0.6,0.1c-0.3,0.2-0.3,0.5-0.3,1c0,0.9,0.1,2.5-2.3,4.9C6.5,8.1,1.8,8.7,0.3,8.9L0,9l1.3,7.8l0.3-0.1
	c9-1.6,14.5-2.6,15-2.6l0,0c0.1,0,0.7-0.2,0.7-1.2C17.4,12.3,17,11.9,16.6,11.8z"/>
</svg>
