<?xml version="1.0" encoding="utf-8"?>
<!-- Generator: Adobe Illustrator 23.0.3, SVG Export Plug-In . SVG Version: 6.00 Build 0)  -->
<svg version="1.1" id="Layer_1" xmlns="http://www.w3.org/2000/svg" xmlns:xlink="http://www.w3.org/1999/xlink" x="0px" y="0px"
	 viewBox="0 0 21.2 13.1" style="enable-background:new 0 0 21.2 13.1;" xml:space="preserve">
<style type="text/css">
	.st0{fill:#DF271C;}
</style>
<g>
	<polygon class="st0" points="8.2,5 4.8,7 5.2,7.7 8.2,5.9 11,8.4 13.9,3.5 16,5 16.4,4.4 16.4,4.4 13.6,2.5 10.8,7.2 	"/>
	<rect x="14.3" y="4.8" transform="matrix(0.6015 -0.7988 0.7988 0.6015 0.4848 14.4038)" class="st0" width="0.7" height="3.8"/>
	<path class="st0" d="M18.9,10.5V0H2.3v10.5L0,13.1h21.2L18.9,10.5z M15.3,11.8H5.9v-0.7h9.4V11.8z M18.2,9.4H3V0.7h15.1V9.4z"/>
	<polygon class="st0" points="5.2,5.7 5.2,5.7 5.2,5.7 	"/>
	<polygon class="st0" points="8.3,3.1 10.7,3.2 11.7,4.4 12.3,4 11.1,2.5 8.1,2.3 4.8,5.1 5.2,5.7 	"/>
</g>
</svg>
