<?xml version="1.0" encoding="utf-8"?>
<!-- Generator: Adobe Illustrator 23.0.3, SVG Export Plug-In . SVG Version: 6.00 Build 0)  -->
<svg version="1.1" id="Layer_1" xmlns="http://www.w3.org/2000/svg" xmlns:xlink="http://www.w3.org/1999/xlink" x="0px" y="0px"
	 viewBox="0 0 19.8 17.1" style="enable-background:new 0 0 19.8 17.1;" xml:space="preserve">
<style type="text/css">
	.st0{fill:#DF271C;}
</style>
<path class="st0" d="M12.1,11.8V11c0.9-0.1,1.8-0.7,1.8-1.7c0-1.4-1.4-1.6-2.3-1.7c-0.6-0.1-1.1-0.2-1.1-0.6c0-0.6,0.8-0.6,1.1-0.6
	c0.5,0,1,0.2,1.2,0.5l0,0.1l1-0.4l0-0.1c-0.4-0.8-1-1-1.6-1.1V4.7H11v0.7C9.9,5.5,9.2,6.1,9.2,7c0,1.4,1.3,1.5,2.2,1.6
	c0.8,0.1,1.2,0.3,1.2,0.7c0,0.7-0.9,0.7-1.2,0.7c-0.6,0-1.2-0.3-1.4-0.7l0-0.1L9,9.7l0,0.1c0.3,0.8,1,1.2,2,1.3v0.7L12.1,11.8
	L12.1,11.8z"/>
<path class="st0" d="M19.5,11c0.8-2.6,0.3-5.5-1.4-7.6c0,0,0,0,0,0c-1.1-1.4-2.6-2.5-4.3-3C12-0.2,10.1-0.1,8.3,0.6
	C7.5,0.8,6.8,1.2,6.2,1.7C6.1,1.8,6,1.8,6,1.9L5.8,2l0.7,0.9l0.1-0.1c0,0,0.1-0.1,0.1-0.1c0.6-0.4,1.2-0.8,1.8-1
	c1.5-0.6,3.2-0.6,4.7-0.2c1.5,0.5,2.8,1.4,3.7,2.6c1.4,1.9,1.9,4.3,1.2,6.6c-0.5,1.5-1.4,2.8-2.6,3.7c-1.9,1.4-4.3,1.9-6.6,1.2
	c-1.5-0.5-2.8-1.4-3.7-2.6c-0.4-0.6-0.8-1.2-1-1.9L7.5,12L5.7,4.4L0,9.8l3,0.9c0.3,1.1,0.8,2.1,1.5,3c1.1,1.4,2.6,2.5,4.3,3
	c2.6,0.8,5.5,0.3,7.6-1.4C17.9,14.3,19,12.8,19.5,11z"/>
</svg>
