<?xml version="1.0" encoding="utf-8"?>
<!-- Generator: Adobe Illustrator 23.0.3, SVG Export Plug-In . SVG Version: 6.00 Build 0)  -->
<svg version="1.1" id="Layer_1" xmlns="http://www.w3.org/2000/svg" xmlns:xlink="http://www.w3.org/1999/xlink" x="0px" y="0px"
	 viewBox="0 0 16.7 16.7" style="enable-background:new 0 0 16.7 16.7;" xml:space="preserve">
<style type="text/css">
	.st0{fill:#DF271C;}
</style>
<g>
	<path class="st0" d="M6.1,8.1c-0.2,0-0.3,0-0.5,0c-0.7,0-1.3-0.3-1.8-0.7L1.9,5.5C1.4,5,1.2,4.4,1.2,3.7c0-0.7,0.3-1.3,0.7-1.8
		C2.4,1.4,3,1.2,3.7,1.2c0.7,0,1.3,0.3,1.8,0.7l1.9,1.9c0.5,0.5,0.7,1.1,0.7,1.8c0,0.2,0,0.3,0,0.5l0,0.2l1.1,0.2l0-0.2
		c0-0.2,0.1-0.5,0.1-0.7c0-1-0.4-1.9-1.1-2.6L6.3,1.1C5.6,0.4,4.7,0,3.7,0c0,0,0,0,0,0c-1,0-1.9,0.4-2.6,1.1C0.4,1.8,0,2.7,0,3.7
		c0,1,0.4,1.9,1.1,2.6L3,8.2c0.7,0.7,1.6,1.1,2.6,1.1c0,0,0,0,0,0c0.2,0,0.5,0,0.7-0.1l0.2,0L6.3,8L6.1,8.1z"/>
	<path class="st0" d="M15.6,10.4l-1.9-1.9c-0.7-0.7-1.6-1.1-2.6-1.1c0,0,0,0,0,0c-0.3,0-0.5,0-0.7,0.1l-0.2,0l0.2,1.1l0.2,0
		c0.2,0,0.3,0,0.5,0c0.7,0,1.3,0.3,1.8,0.7l1.9,1.9c0.5,0.5,0.7,1.1,0.7,1.8c0,0.7-0.3,1.3-0.7,1.8c-0.5,0.5-1.1,0.7-1.8,0.7
		c-0.7,0-1.3-0.3-1.8-0.7l-1.9-1.9c-0.5-0.5-0.7-1.1-0.7-1.8c0-0.2,0-0.3,0.1-0.5l0-0.2l-0.9-0.2l-0.2-0.2l-0.1,0.3
		c0,0.2-0.1,0.5-0.1,0.7c0,1,0.4,1.9,1.1,2.6l1.9,1.9c0.7,0.7,1.6,1.1,2.6,1.1c0,0,0,0,0,0c1,0,1.9-0.4,2.6-1.1
		c0.7-0.7,1.1-1.6,1.1-2.6C16.7,12,16.3,11.1,15.6,10.4z"/>
	<rect x="7.8" y="4.3" transform="matrix(0.7071 -0.7072 0.7072 0.7071 -3.4531 8.3394)" class="st0" width="1.2" height="8.1"/>
</g>
</svg>
