<?xml version="1.0" encoding="utf-8"?>
<!-- Generator: Adobe Illustrator 23.0.3, SVG Export Plug-In . SVG Version: 6.00 Build 0)  -->
<svg version="1.1" id="Isolation_Mode" xmlns="http://www.w3.org/2000/svg" xmlns:xlink="http://www.w3.org/1999/xlink" x="0px"
	 y="0px" viewBox="0 0 18.7 18.7" style="enable-background:new 0 0 18.7 18.7;" xml:space="preserve">
<style type="text/css">
	.st0{fill:#CFD1D2;}
</style>
<path class="st0" d="M15.5,4.3c0-0.3-0.1-0.6-0.3-0.8c-0.2-0.2-0.5-0.3-0.8-0.3c-0.3,0-0.6,0.1-0.8,0.3c-0.2,0.2-0.3,0.5-0.3,0.8
	c0,0.3,0.1,0.6,0.3,0.8c0.2,0.2,0.5,0.3,0.8,0.3c0.3,0,0.6-0.1,0.8-0.3C15.4,4.9,15.5,4.7,15.5,4.3 M9.4,12.5c0.9,0,1.6-0.3,2.2-0.9
	c0.6-0.6,0.9-1.4,0.9-2.2c0-0.9-0.3-1.6-0.9-2.2C11,6.5,10.2,6.2,9.4,6.2S7.8,6.5,7.1,7.1C6.5,7.8,6.2,8.5,6.2,9.4
	c0,0.9,0.3,1.6,0.9,2.2C7.8,12.2,8.5,12.5,9.4,12.5 M9.4,4.6c0.9,0,1.7,0.2,2.4,0.6c0.7,0.4,1.3,1,1.8,1.8c0.4,0.7,0.6,1.5,0.6,2.4
	c0,0.9-0.2,1.7-0.6,2.4s-1,1.3-1.8,1.8c-0.7,0.4-1.5,0.6-2.4,0.6S7.7,14,7,13.5c-0.7-0.4-1.3-1-1.8-1.8C4.8,11,4.6,10.2,4.6,9.4
	c0-0.9,0.2-1.7,0.6-2.4c0.4-0.7,1-1.3,1.8-1.8C7.7,4.8,8.5,4.6,9.4,4.6 M16.7,14.9c0.2-0.5,0.3-1.2,0.3-2.3c0-0.6,0-1.5,0-2.6V8.7
	c0-1.1,0-2,0-2.6C17,5,16.8,4.3,16.7,3.8C16.3,3,15.7,2.4,14.9,2c-0.4-0.2-1.2-0.3-2.3-0.3c-0.6,0-1.5,0-2.6,0H8.7c-1.1,0-2,0-2.6,0
	C5.1,1.8,4.3,1.9,3.8,2C3,2.4,2.4,3,2,3.8C1.9,4.3,1.8,5,1.7,6.1c0,0.6,0,1.5,0,2.6V10c0,1.1,0,2,0,2.6c0.1,1,0.2,1.8,0.3,2.3
	c0.4,0.9,1,1.5,1.8,1.8C4.3,16.8,5.1,17,6.1,17c0.6,0,1.5,0,2.6,0H10c1.1,0,2,0,2.6,0c1.1-0.1,1.8-0.2,2.3-0.3
	C15.7,16.3,16.3,15.7,16.7,14.9 M18.7,5.5c0,0.8,0,2.1,0,3.9s0,3.1-0.1,3.9c0,0.8-0.2,1.5-0.4,2.1c-0.3,0.7-0.6,1.3-1.1,1.8
	c-0.5,0.5-1.1,0.9-1.8,1.2c-0.6,0.2-1.3,0.3-2.1,0.4c-0.8,0-2.1,0.1-3.9,0.1s-3.1,0-3.9-0.1c-0.8,0-1.5-0.2-2.1-0.4
	c-0.7-0.2-1.3-0.6-1.8-1.1c-0.5-0.5-0.9-1.1-1.1-1.8c-0.2-0.6-0.3-1.3-0.4-2.1C0,12.5,0,11.2,0,9.4s0-3.1,0.1-3.9
	c0-0.8,0.2-1.5,0.4-2.1c0.3-0.7,0.6-1.3,1.1-1.8c0.5-0.5,1.1-0.9,1.8-1.1C4,0.2,4.7,0.1,5.5,0.1C6.2,0,7.6,0,9.4,0s3.1,0,3.9,0.1
	c0.8,0,1.5,0.2,2.1,0.4c0.7,0.3,1.3,0.6,1.8,1.1c0.5,0.5,0.9,1.1,1.1,1.8C18.5,4,18.6,4.7,18.7,5.5"/>
</svg>
