<?xml version="1.0" encoding="utf-8"?>
<!-- Generator: Adobe Illustrator 23.0.3, SVG Export Plug-In . SVG Version: 6.00 Build 0)  -->
<svg version="1.1" id="OBJECTS" xmlns="http://www.w3.org/2000/svg" xmlns:xlink="http://www.w3.org/1999/xlink" x="0px" y="0px"
	 viewBox="0 0 203 232.7" style="enable-background:new 0 0 203 232.7;" xml:space="preserve">
<style type="text/css">
	.st0{fill:#85361E;}
	.st1{fill:#46909B;}
	.st2{fill:#DB8F1B;}
	.st3{fill:#2E2427;}
	.st4{fill:#D47974;}
	.st5{fill:#E6B11B;}
	.st6{fill:#CA4F24;}
	.st7{fill:#F8F4E2;}
</style>
<g>
	<path class="st0" d="M57.2,88.3c0,0,29.5,0,40.4-7c13.2-8.4,29.1-27.7,31.2-33.5c2.5-7.3,3.7-4.7,3.7-4.7l-1.7,6.3
		c0,0,3.3-7.3,3.9-5.7c0.5,1.6,0.1,7.3,0.1,7.3s3.8-8.2,3.2-3.2c-0.6,5.1-11.2,32.8-33,46.9c-11,7.1-47.8,9.7-47.8,9.7L57.2,88.3z"
		/>
	<path class="st1" d="M158.8,100c1.5,15.6,13.2,23.2,29,12.6c13-8.8,15,7.5,15.2,15.1v3.6c0,0,0-0.6,0-1.7v26.2h-62.8
		c-24.9,0-45.1-20.2-45.1-45.1V44.2h24.4c0.5,0,1.2,0,1.9,0c7.6-0.2,23.9-2.2,15.1-15.2C125.8,13.2,133.4,1.5,149,0
		c15.6,1.5,23.2,13.2,12.6,29c-8.8,13,7.5,15,15.1,15.2c0.7,0,1.3,0,1.9,0H203v26.2c0-1.1,0-1.7,0-1.7v3.6
		c-0.2,7.6-2.2,23.9-15.2,15.1C172,76.8,160.3,84.4,158.8,100z"/>
	<path class="st2" d="M84.9,84.1c0,0,5.2,18.1,3.6,18.2s-21-2.4-21-2.4s-5.1-12.1-2.9-12.2C66.8,87.6,83.4,83.6,84.9,84.1z"/>
	<path class="st3" d="M0.5,97.3c0,0,1.5-8.6,10.4-10.2s4.6-21.3,23.5-21s12-15.9,29.3-15.1c17.3,0.8,20.4,22.9,9.3,30.3
		c-9.9,6.6-24.2,5.5-28,12.7c-3.8,7.2-9.1,12.7-16.8,11.2c-7.7-1.5-6.2,6.7-16.6,6.3C1.3,111-1.3,101.8,0.5,97.3z"/>
	<path class="st0" d="M55.5,141.3c0,0-7.7,14.4,7.1,29.5c14.8,15.1,76.5,56.6,76.5,56.6l13-6.2l-9.6,1.7c0,0-22.4-35.6-36.6-49.7
		S55.5,141.3,55.5,141.3z"/>
	<path class="st0" d="M92.3,139.3c0,0,29.3,8,35.2,24.9c4.9,14-33.3,43.4-33.3,43.4l3.6,12.8l-9.6-13.3c0,0,23.9-35.8,20.6-38.7
		c-7.7-6.7-31-16.3-31-16.3L92.3,139.3z"/>
	<path class="st1" d="M53.7,163.9c0,0,11.5,13.4,26.2,21.4c3.2,1.8,17.7-18.9,17.7-18.9l-9.1-9.2l11.6,7.5
		c2.9-4.9,11.9-16.5,10.6-19.4s-22.4-8.9-23.2-9.5S59.7,154.1,53.7,163.9z"/>
	<path class="st4" d="M59.3,74.6c2.9,0.4,1.4-3.4,1.4-3.4s-1.8-6.4-4.2-5.8"/>
	<path class="st0" d="M56.6,66.9c0,0,3.7,15.9,12.4,14.2s4.8-16.2,2.1-21.5S55.4,59.9,56.6,66.9z"/>
	<path class="st3" d="M71.2,59.7c0,0-6.4-5.1-9.7,1.9c-2.3,4.9-1.2,11.9-4.3,11.3c-3.2-0.6-7.8-8.3-3.7-14.9S70.7,51.9,71.2,59.7z"
		/>
	<path class="st0" d="M60.1,69.9c0,0-0.9-4.1-2.6-2.9c-1.7,1.2-0.9,4.7,0.9,6C60,74.4,60.1,69.9,60.1,69.9z"/>
	<g>
		<path class="st3" d="M71.4,74.2c-0.1,0-0.1,0-0.2,0l-2.6-1.3c-0.2-0.1-0.3-0.3-0.2-0.5c0.1-0.2,0.3-0.3,0.5-0.2l1.6,0.9l-1.8-4.6
			c-0.1-0.2,0-0.4,0.2-0.5c0.2-0.1,0.4,0,0.5,0.2l2.2,5.6c0.1,0.1,0,0.3-0.1,0.4C71.6,74.2,71.5,74.2,71.4,74.2z"/>
		<path class="st3" d="M68.7,77.1c-1,0-1.9-1.4-2.1-1.7c-0.1-0.2-0.1-0.4,0.1-0.5c0.2-0.1,0.4-0.1,0.5,0.1c0.4,0.6,1.1,1.4,1.5,1.3
			c0.2,0,0.5-0.5,0.6-1.6c0-0.2,0.2-0.4,0.4-0.3c0.2,0,0.4,0.2,0.3,0.4c-0.2,1.4-0.5,2.1-1.2,2.2C68.8,77,68.8,77.1,68.7,77.1z"/>
		<circle class="st3" cx="64.3" cy="69" r="1.2"/>
		<circle class="st3" cx="71.4" cy="67.7" r="1.2"/>
	</g>
	<path class="st0" d="M67.8,79c0,0-0.3,2.3-1,8.2c0,0-0.5,2.3-2.8,3.7c-2.3,1.4-9.5-3.8-9.9-5.3l4.3-14.8
		C58.4,70.7,66.8,76.1,67.8,79z"/>
	<path class="st3" d="M66.3,81.4c-0.3,0-3.4-0.1-6.9-4c-0.1-0.2-0.1-0.4,0-0.5c0.2-0.1,0.4-0.1,0.5,0c3.4,3.8,6.3,3.7,6.3,3.7
		c0.2,0,0.4,0.2,0.4,0.4C66.7,81.2,66.6,81.4,66.3,81.4C66.3,81.4,66.3,81.4,66.3,81.4z"/>
	<path class="st3" d="M82.8,115.3c-0.1,0-0.2,0-0.2-0.1C59.1,97.4,58.2,84.7,58.1,84.1c0-0.2,0.2-0.4,0.4-0.4c0.2,0,0.4,0.2,0.4,0.4
		c0,0.1,1,12.9,24.2,30.5c0.2,0.1,0.2,0.4,0.1,0.5C83.1,115.3,82.9,115.3,82.8,115.3z"/>
	<path class="st0" d="M65.6,89.2c0,0,13.2,15.6,24.8,16.4c11.7,0.9,47.4-31.8,48.1-28.2c0.8,3.6-2.4,5.1-2.4,5.1s6.4-6,6.5-3.1
		c0.2,2.9-3.8,5.7-3.8,5.7s9.7-7,5.5-1.7c-2.6,3.2-30.5,41.7-55.7,38.3c-17-2.3-33.2-20.5-33.2-20.5L65.6,89.2z"/>
	<path class="st5" d="M58.5,84.1c0,0,7.6-4,28.3,18.2c1.9,2-9.4,17.6-12.6,18.5S51.9,97.3,51.9,97.3S49,87.5,58.5,84.1z"/>
	<path class="st5" d="M91.9,137.3c0,0-20.4,29.5-34.6,29.5c-14.2,0-26.4-53.3-13.9-71.3c8.8-12.6,13-14,19.4-10.4
		c6.5,3.6,24.9,15.6,22.4,22.7c-2.4,7.1-7.9,11-7.6,14.3C78.8,133,95.1,135.1,91.9,137.3z"/>
	<g>
		<path class="st6" d="M91.2,200.2c0,0,6.9,6.1,6.4,6.6s-2.9,2.8-3,3.4c-0.1,0.6,3.6,8.6,2.8,9.9s-13.2-12.4-13.2-12.4L91.2,200.2z"
			/>
		<path class="st3" d="M95.8,209.2c0,0-0.1,0-0.1,0l-4.8-1.6c-0.2-0.1-0.3-0.3-0.2-0.5c0.1-0.2,0.3-0.3,0.5-0.2l4.8,1.6
			c0.2,0.1,0.3,0.3,0.2,0.5C96.1,209.1,96,209.2,95.8,209.2z"/>
		<path class="st3" d="M95.9,211C95.9,211,95.9,211,95.9,211l-5.3-0.7c-0.2,0-0.4-0.2-0.3-0.4c0-0.2,0.2-0.4,0.4-0.3l5.2,0.7
			c0.2,0,0.4,0.2,0.3,0.4C96.3,210.8,96.1,211,95.9,211z"/>
		<path class="st3" d="M95.9,213.3C95.9,213.3,95.9,213.3,95.9,213.3l-4.6-0.3c-0.2,0-0.4-0.2-0.4-0.4c0-0.2,0.2-0.4,0.4-0.4
			l4.6,0.3c0.2,0,0.4,0.2,0.4,0.4C96.3,213.2,96.1,213.3,95.9,213.3z"/>
	</g>
	<g>
		<path class="st6" d="M136.4,226.5c0,0,5.4-7.5,5.9-7.1c0.6,0.4,3,2.6,3.7,2.6c0.6,0.1,8.2-4.5,9.5-3.9s-11,14.4-11,14.4
			L136.4,226.5z"/>
		<path class="st3" d="M143.3,226.4C143.3,226.4,143.2,226.4,143.3,226.4c-0.3-0.1-0.4-0.3-0.4-0.5l1.1-5c0-0.2,0.3-0.3,0.5-0.3
			c0.2,0,0.3,0.3,0.3,0.5l-1.1,5C143.6,226.3,143.5,226.4,143.3,226.4z"/>
		<path class="st3" d="M146.1,226.4C146.1,226.4,146.1,226.4,146.1,226.4c-0.2,0-0.4-0.2-0.4-0.4l0.1-5.3c0-0.2,0.2-0.4,0.4-0.4
			c0.2,0,0.4,0.2,0.4,0.4l-0.1,5.3C146.5,226.3,146.3,226.4,146.1,226.4z"/>
		<path class="st3" d="M148.7,225.5c-0.2,0-0.4-0.2-0.4-0.4l-0.1-4.6c0-0.2,0.2-0.4,0.4-0.4c0.2,0,0.4,0.2,0.4,0.4l0.1,4.6
			C149.1,225.3,148.9,225.5,148.7,225.5C148.7,225.5,148.7,225.5,148.7,225.5z"/>
	</g>
	<path class="st3" d="M76.5,120.5c-0.1,0-0.1,0-0.2,0c-15.2-8.5-24.6-20.3-24.7-20.4c-0.1-0.2-0.1-0.4,0.1-0.5
		c0.2-0.1,0.4-0.1,0.5,0.1c0.1,0.1,9.3,11.7,24.5,20.2c0.2,0.1,0.3,0.3,0.1,0.5C76.8,120.4,76.7,120.5,76.5,120.5z"/>
	<path class="st3" d="M68.5,122.6c-3.5,0-5.3-1.3-5.4-1.4c-0.2-0.1-0.2-0.4-0.1-0.5c0.1-0.2,0.4-0.2,0.5-0.1c0,0,3.8,2.7,11.5-0.1
		c0.2-0.1,0.4,0,0.5,0.2c0.1,0.2,0,0.4-0.2,0.5C72.5,122.2,70.2,122.6,68.5,122.6z"/>
	<path class="st3" d="M79.2,183.2c-0.1,0-0.2-0.1-0.3-0.2c-0.1-0.2-0.1-0.4,0.1-0.5c7.9-5.6,15.1-17.8,15.2-17.9
		c0.1-0.2,0.3-0.2,0.5-0.1c0.2,0.1,0.2,0.3,0.1,0.5c-0.1,0.1-7.4,12.4-15.4,18.1C79.3,183.2,79.3,183.2,79.2,183.2z"/>
	<path class="st3" d="M99.2,161c-0.1,0-0.2,0-0.2-0.1c-0.2-0.1-0.2-0.4-0.1-0.5c0.1-0.1,9.4-12.9,9.5-16.6c0-0.2,0.2-0.4,0.4-0.4
		c0.2,0,0.4,0.2,0.4,0.4c-0.1,3.9-9.2,16.5-9.6,17.1C99.4,160.9,99.3,161,99.2,161z"/>
	<path class="st3" d="M88.5,157.6c-0.1,0-0.2,0-0.2-0.1l-7.1-5.1c-0.2-0.1-0.2-0.4-0.1-0.5c0.1-0.2,0.4-0.2,0.5-0.1l6.3,4.4
		c-0.5-1.4-1.6-4.1-3.8-5.7c-0.2-0.1-0.2-0.4-0.1-0.5c0.1-0.2,0.4-0.2,0.5-0.1c3.4,2.4,4.3,7,4.4,7.2c0,0.2,0,0.3-0.2,0.4
		C88.7,157.6,88.6,157.6,88.5,157.6z"/>
	<path class="st3" d="M82.2,183.2c-0.1,0-0.1,0-0.2,0c-13.4-6.9-21.6-16.5-21.7-16.6c-0.1-0.2-0.1-0.4,0-0.5c0.2-0.1,0.4-0.1,0.5,0
		c0.1,0.1,8.2,9.6,21.4,16.4c0.2,0.1,0.3,0.3,0.2,0.5C82.5,183.1,82.4,183.2,82.2,183.2z"/>
	<path class="st3" d="M69.2,174.2c-0.1,0-0.1,0-0.2,0c-0.2-0.1-0.3-0.3-0.2-0.5c0-0.1,4.1-7.6,2.2-12.9c-0.1-0.2,0-0.4,0.2-0.5
		c0.2-0.1,0.4,0,0.5,0.2c2.1,5.7-2,13.2-2.2,13.5C69.5,174.1,69.4,174.2,69.2,174.2z"/>
	<path class="st3" d="M97.2,141.1c-3.5,0-6.7-1.4-6.8-1.5c-0.2-0.1-0.3-0.3-0.2-0.5c0.1-0.2,0.3-0.3,0.5-0.2c0.1,0,5.4,2.4,9.7,1
		c0.2-0.1,0.4,0,0.5,0.2c0.1,0.2,0,0.4-0.2,0.5C99.5,141,98.3,141.1,97.2,141.1z"/>
	<path class="st3" d="M74.3,117.8c-0.2,0-0.3-0.1-0.4-0.2c-0.1-0.2,0-0.4,0.2-0.5c5.3-2.1,10.4-14.4,10.4-14.5
		c0.1-0.2,0.3-0.3,0.5-0.2c0.2,0.1,0.3,0.3,0.2,0.5c-0.2,0.5-5.3,12.8-10.9,15C74.4,117.8,74.3,117.8,74.3,117.8z"/>
	<path class="st3" d="M116.6,186c-0.1,0-0.2-0.1-0.3-0.2c-3-3.9-9.2-10.9-9.3-11c-0.1-0.2-0.1-0.4,0-0.5c0.2-0.1,0.4-0.1,0.5,0
		c0.1,0.1,6.3,7.1,9.3,11c0.1,0.2,0.1,0.4-0.1,0.5C116.8,185.9,116.7,186,116.6,186z"/>
	<path class="st7" d="M20.7,86.5c0,0-0.1,0-0.1,0c-0.2-0.1-0.3-0.3-0.2-0.5c2.8-8.3,6.6-8.6,12.4-9.1c1.6-0.1,3.4-0.3,5.4-0.6
		c6.6-1.1,10-6.7,12.9-11.7c0.9-1.6,1.8-3,2.7-4.2c3.8-5,9.3-3.2,9.4-3.2c0.2,0.1,0.3,0.3,0.2,0.5c-0.1,0.2-0.3,0.3-0.5,0.2
		c-0.2-0.1-5-1.6-8.6,2.9c-0.9,1.2-1.8,2.6-2.7,4.2c-2.9,4.8-6.5,10.8-13.5,12c-2,0.3-3.8,0.5-5.5,0.6c-5.7,0.4-9.1,0.7-11.7,8.6
		C21,86.4,20.8,86.5,20.7,86.5z"/>
	<path class="st7" d="M32,95.1C32,95.1,32,95.1,32,95.1c-0.3,0-0.4-0.2-0.4-0.4c0-0.1,1-8.5,8-10.9c1.4-0.5,2.7-0.8,4-1.1
		c5-1.2,8.5-2.1,10-9.2c0-0.2,0.2-0.3,0.5-0.3c0.2,0,0.3,0.2,0.3,0.5c-1.5,7.6-5.5,8.6-10.5,9.8c-1.3,0.3-2.6,0.6-4,1.1
		c-6.6,2.2-7.5,10.1-7.5,10.2C32.4,94.9,32.2,95.1,32,95.1z"/>
	<path class="st7" d="M68.8,57.6c-0.2,0-0.3-0.1-0.4-0.2c-0.7-1.9-1.8-3.1-3.1-3.6c-1.9-0.8-3.7,0-3.7,0c-0.2,0.1-0.4,0-0.5-0.2
		c-0.1-0.2,0-0.4,0.2-0.5c0.1,0,2.1-0.9,4.3-0.1c1.5,0.6,2.7,2,3.5,4.1c0.1,0.2,0,0.4-0.2,0.5C68.9,57.6,68.9,57.6,68.8,57.6z"/>
</g>
</svg>
