<?xml version="1.0" encoding="utf-8"?>
<!-- Generator: Adobe Illustrator 23.0.3, SVG Export Plug-In . SVG Version: 6.00 Build 0)  -->
<svg version="1.1" id="Layer_4" xmlns="http://www.w3.org/2000/svg" xmlns:xlink="http://www.w3.org/1999/xlink" x="0px" y="0px"
	 viewBox="0 0 257.5 262.8" style="enable-background:new 0 0 257.5 262.8;" xml:space="preserve">
<style type="text/css">
	.st0{fill:#FFC910;}
	.st1{fill:#FFAB01;}
	.st2{fill:#F99B0F;}
	.st3{fill:#EE8F01;}
</style>
<g>
	<g>
		<path class="st0" d="M17.5,107.1l12-10c11.8-9.8,32-7,48.3,7.7c18.7,16.8,25.3,42.9,14.8,58.2l-12,10
			c10.5-15.3,3.9-41.3-14.8-58.2C49.5,100.1,29.4,97.4,17.5,107.1z"/>
	</g>
	<g>
		<path class="st0" d="M88.1,168l-12,10c1.7-1.4,3.2-3.1,4.5-5l12-10C91.4,165,89.8,166.6,88.1,168z"/>
	</g>
	<g>
		<path class="st1" d="M17.5,107.1l12-10c-1.7,1.4-3.2,3.1-4.5,5l-12,10C14.3,110.2,15.9,108.5,17.5,107.1z"/>
	</g>
	<g>
		<path class="st1" d="M88.1,168l-12,10c-11.8,9.8-32,7-48.3-7.7C9.2,153.5,2.5,127.4,13,112.1l12-10c-10.5,15.3-3.9,41.3,14.8,58.2
			C56.2,175,76.3,177.8,88.1,168z"/>
	</g>
	<g>
		<path class="st2" d="M94.2,175.4l-12,10c-14.3,11.8-38.6,8.5-58.3-9.3C1.3,155.7-6.7,124.3,6,105.8l12-10
			c-12.7,18.5-4.7,49.9,17.9,70.2C55.6,183.8,79.9,187.2,94.2,175.4z"/>
	</g>
	<g>
		<path class="st0" d="M18,95.8c12.7-18.5,41.2-17,63.8,3.3c22.5,20.3,30.5,51.7,17.9,70.2c-12.7,18.5-41.2,17-63.8-3.3
			C13.4,145.8,5.4,114.3,18,95.8z M92.7,163.1c10.5-15.3,3.9-41.3-14.8-58.2c-18.7-16.8-42.3-18-52.8-2.7
			c-10.5,15.3-3.9,41.3,14.8,58.2C58.5,177.1,82.2,178.4,92.7,163.1"/>
	</g>
	<path class="st1" d="M25,102.2c10.5-15.3,34.1-14.1,52.8,2.7c18.7,16.8,25.3,42.9,14.8,58.2c-10.5,15.3-34.1,14.1-52.8-2.7
		C21.2,143.5,14.5,117.5,25,102.2z"/>
	<g>
		<path class="st3" d="M11.5,99.8c4-3.3,8-6.6,12-10c-2,1.7-3.9,3.7-5.5,6l-12,10C7.6,103.5,9.4,101.5,11.5,99.8z"/>
	</g>
	<g>
		<path class="st2" d="M25,102.2c-1.8,2.6-3.1,5.5-3.9,8.6c0.8-2.7,2-5.1,3.5-7.4c10.5-15.3,34.1-14.1,52.8,2.7
			c15.5,14,22.7,34.3,18.7,49.6c4.8-15.4-2.4-36.4-18.3-50.8C59.2,88.1,35.5,86.9,25,102.2z"/>
	</g>
	<path class="st3" d="M82.2,185.3l12-10c-7,5.8-16.3,7.9-26.4,6.5L57.2,192C66.7,193,75.5,190.8,82.2,185.3z"/>
	<g>
		<path class="st2" d="M35.2,108.6l5.6,5.1c1.6-1.6,3.7-2.1,6.2-1.7c2.5,0.4,5.1,1.8,7.9,4l-2.9,4.2c-1.6-1.3-3.1-1.9-4.5-2
			c-1.4,0-2.6,0.6-3.4,1.8c-0.9,1.3-1.1,2.8-0.7,4.5c0.4,1.7,1.5,3.3,3.1,4.7c0.6,0.5,1.2,1,1.8,1.3c0.6,0.3,1.2,0.5,1.8,0.6
			c1.2,0.2,2.7-0.5,4.6-1.9c1.1-0.9,1.9-1.5,2.6-1.8c2.3-1.3,4.7-1.6,7.2-1.1c2.5,0.5,4.9,1.9,7.4,4c3.1,2.8,5.3,5.8,6.5,9.1
			c1.3,3.3,1.3,6.1,0.3,8.5l6.8,6.1l-2.7,3.9l-6.5-5.9c-2,2-4.5,2.7-7.4,2.3c-3-0.5-6-2.1-9.2-4.9l2.8-4c2.2,1.8,4.1,2.7,5.7,2.8
			c1.7,0.1,3.1-0.7,4.2-2.4c1-1.5,1.3-3.2,0.8-5.2c-0.5-1.9-1.7-3.7-3.6-5.4c-0.7-0.6-1.3-1.1-2-1.5c-0.6-0.4-1.2-0.7-1.8-0.8
			c-1.8-0.5-3.8,0-5.9,1.5c-0.3,0.3-0.6,0.4-0.8,0.6c-2.6,1.9-5.2,2.8-7.7,2.6c-2.5-0.2-5-1.5-7.6-3.8c-2.8-2.5-4.8-5.2-5.8-8.1
			c-1.1-2.9-1.1-5.6-0.1-8.1l-5.6-5L35.2,108.6z"/>
	</g>
	<g>
		<path class="st0" d="M37.1,106.5l5.7,5.1c1.6-1.6,3.7-2.1,6.2-1.7c2.5,0.4,5.1,1.8,7.9,4l-2.9,4.2c-1.6-1.3-3.1-1.9-4.5-2
			c-1.4,0-2.6,0.6-3.4,1.8c-0.9,1.3-1.1,2.8-0.7,4.5c0.4,1.7,1.5,3.3,3.1,4.7c0.6,0.5,1.2,1,1.8,1.3c0.6,0.3,1.2,0.5,1.8,0.6
			c1.2,0.2,2.8-0.5,4.6-1.9c1.1-0.9,2-1.5,2.6-1.8c2.3-1.3,4.7-1.6,7.2-1.1c2.5,0.5,4.9,1.8,7.4,4c3.1,2.8,5.3,5.8,6.5,9.1
			c1.3,3.3,1.3,6.1,0.3,8.5l6.8,6.1l-2.7,3.9l-6.5-5.9c-2,2-4.5,2.7-7.4,2.3c-3-0.4-6-2.1-9.2-4.9l2.8-4c2.2,1.8,4.1,2.7,5.7,2.8
			c1.7,0.1,3.1-0.7,4.2-2.4c1-1.5,1.3-3.2,0.8-5.2c-0.5-1.9-1.7-3.7-3.6-5.4c-0.7-0.6-1.3-1.1-2-1.5c-0.6-0.4-1.2-0.7-1.8-0.8
			c-1.8-0.5-3.8,0-5.9,1.5c-0.3,0.3-0.6,0.4-0.8,0.6c-2.6,1.9-5.2,2.8-7.7,2.6c-2.5-0.2-5-1.5-7.6-3.8c-2.8-2.5-4.8-5.2-5.8-8.1
			c-1.1-2.9-1.1-5.6-0.1-8.1l-5.6-5L37.1,106.5z"/>
	</g>
</g>
<g>
	<g>
		<path class="st1" d="M242.4,250.8c-1.3,1.1-2.7,2.1-4,3.2c-12.6,10.1-31,12-47.5,3.2c-22.8-12.2-33.4-40.1-23.6-62.3
			c2.7-6.1,6.6-11.2,11.4-15c1.3-1.1,2.6-2.1,4-3.2c-4.8,3.9-8.8,8.9-11.4,15c-9.8,22.2,0.8,50.1,23.6,62.3
			C211.4,262.8,229.8,261,242.4,250.8z"/>
	</g>
	<g>
		<path class="st0" d="M230.2,173.5c22.8,12.2,33.4,40.1,23.6,62.3c-9.8,22.2-36.2,30.4-59,18.2c-22.8-12.2-33.4-40.1-23.6-62.3
			C181,169.5,207.4,161.4,230.2,173.5z M197.9,247.1c18.9,10.1,40.8,3.3,48.8-15.1c8.1-18.4-0.7-41.5-19.6-51.6
			c-18.9-10.1-40.8-3.3-48.8,15.1C170.3,213.9,179,237,197.9,247.1"/>
	</g>
	<path class="st1" d="M227.2,180.4c-0.3-0.2-0.6-0.3-0.9-0.5c0,0-0.1,0-0.1,0c-0.5-0.2-0.9-0.5-1.4-0.7c-0.9-0.4-1.7-0.7-2.6-1.1
		c-0.5-0.2-0.9-0.3-1.4-0.5c-0.4-0.1-0.8-0.3-1.3-0.4c-0.3-0.1-0.5-0.2-0.8-0.2c-16.6-4.5-33.6,2.7-40.5,18.4
		c-3.8,8.6-3.9,18.3-1,27.2c0,0,0,0,0,0.1c0.2,0.5,0.3,1,0.5,1.5c0.1,0.2,0.2,0.4,0.2,0.6c0.5,1.3,1.1,2.6,1.8,3.9
		c0.3,0.6,0.6,1.2,1,1.8c1.3,2.2,2.8,4.4,4.4,6.3c0.2,0.3,0.5,0.5,0.7,0.8c0.6,0.6,1.1,1.2,1.7,1.8c0.5,0.5,1,1,1.5,1.5
		c0.6,0.6,1.3,1.1,1.9,1.6c0.2,0.2,0.4,0.3,0.6,0.5c1.3,1,2.7,2,4.2,2.9c0.2,0.1,0.4,0.2,0.6,0.4c0.4,0.3,0.9,0.5,1.4,0.8
		c0.3,0.2,0.6,0.3,0.9,0.5c0.8,0.4,1.6,0.8,2.4,1.1c0.2,0.1,0.3,0.1,0.5,0.2c0.8,0.3,1.7,0.6,2.5,0.9c0,0,0,0,0,0
		c17.2,5.8,35.4-1.4,42.6-17.8C254.8,213.6,246.1,190.5,227.2,180.4z"/>
	<path class="st2" d="M227.2,180.4c-0.3-0.2-0.6-0.3-0.9-0.5c0,0-0.1,0-0.1,0c-0.5-0.2-0.9-0.5-1.4-0.7c-0.9-0.4-1.7-0.7-2.6-1.1
		c-0.5-0.2-0.9-0.3-1.4-0.5c-0.4-0.1-0.8-0.3-1.3-0.4c-0.3-0.1-0.5-0.2-0.8-0.2c-12.3-3.4-24.9-0.3-33.4,8
		c8.4-7.1,20.1-9.6,31.6-6.4c0.3,0.1,0.5,0.1,0.8,0.2c0.4,0.1,0.8,0.3,1.3,0.4c0.5,0.1,0.9,0.3,1.4,0.5c0.9,0.3,1.7,0.7,2.6,1.1
		c0.5,0.2,0.9,0.4,1.4,0.7c0,0,0.1,0,0.1,0c0.3,0.1,0.6,0.3,0.9,0.5c18.9,10.1,27.6,33.2,19.6,51.6c-1.8,4-4.2,7.5-7.1,10.3
		c3.7-3.1,6.7-7.1,8.9-11.9C254.8,213.6,246.1,190.5,227.2,180.4z"/>
	<g>
		<path class="st2" d="M168,203.5c0.5-4,1.6-8,3.3-11.8c2.7-6.1,6.6-11.2,11.4-15c-1.3,1.1-2.6,2.1-4,3.2c-4.8,3.9-8.7,8.9-11.4,15
			c-1.7,3.9-2.8,8-3.3,12.2L168,203.5z"/>
		<path class="st2" d="M219.4,262.3c7-1.1,13.6-3.9,19-8.3c1.3-1.1,2.6-2.1,4-3.2c-5.6,4.5-12.3,7.4-19.5,8.4L219.4,262.3z"/>
	</g>
	<g>
		<path class="st2" d="M224.4,191.2l-2.4,5.6c2.2,1.6,3.6,3.6,4.2,6c0.7,2.4,0.5,5-0.5,7.7l-5.2-2.8c0.6-1.6,0.5-3,0-4.4
			c-0.6-1.4-1.6-2.5-3.1-3.3c-1.6-0.9-3.1-1.1-4.5-0.6c-1.4,0.5-2.5,1.5-3.2,3.1c-0.3,0.6-0.4,1.2-0.5,1.8c0,0.6,0,1.2,0.2,1.8
			c0.4,1.2,1.6,2.7,3.7,4.4c1.3,1,2.2,1.9,2.8,2.5c2.2,2.3,3.5,4.6,4.1,7c0.6,2.4,0.3,4.8-0.7,7.3c-1.3,3-3.3,5.2-5.8,6.5
			c-2.6,1.3-5.2,1.4-7.9,0.4l-2.9,6.7l-4.8-2.6l2.8-6.4c-2.7-1.9-4.5-4.3-5.3-7.2c-0.8-2.9-0.6-5.9,0.8-9l5,2.7
			c-0.8,2.1-0.9,4-0.3,5.6c0.6,1.6,2,3,4,4.1c1.9,1,3.6,1.2,5.2,0.7c1.6-0.5,2.8-1.7,3.6-3.6c0.3-0.7,0.5-1.3,0.6-1.9
			c0.1-0.6,0.1-1.2,0.1-1.8c-0.2-1.8-1.6-3.7-3.9-5.7c-0.4-0.3-0.7-0.6-0.9-0.7c-2.9-2.6-4.8-5.1-5.6-7.5c-0.8-2.4-0.7-4.9,0.4-7.4
			c1.2-2.8,3-4.7,5.3-5.7c2.3-1.1,4.8-1.1,7.6-0.2l2.4-5.5L224.4,191.2z"/>
	</g>
	<g>
		<path class="st0" d="M226,190.4l-2.5,5.6c2.2,1.6,3.6,3.6,4.2,6c0.7,2.4,0.5,5-0.5,7.7l-5.2-2.8c0.6-1.6,0.5-3,0-4.4
			c-0.6-1.4-1.6-2.5-3.1-3.3c-1.6-0.9-3.1-1.1-4.5-0.6c-1.4,0.5-2.5,1.5-3.2,3.1c-0.3,0.6-0.4,1.2-0.5,1.8c0,0.6,0,1.2,0.2,1.8
			c0.4,1.2,1.6,2.7,3.7,4.4c1.3,1,2.2,1.9,2.8,2.5c2.2,2.3,3.5,4.6,4.1,7c0.6,2.4,0.3,4.8-0.7,7.3c-1.3,3-3.3,5.2-5.8,6.5
			c-2.6,1.3-5.2,1.4-7.9,0.4l-2.9,6.7l-4.8-2.6l2.8-6.4c-2.7-1.9-4.5-4.3-5.3-7.2c-0.8-2.9-0.6-5.9,0.8-9l5,2.7
			c-0.8,2.1-0.9,4-0.3,5.6c0.6,1.6,2,3,4,4.1c1.9,1,3.6,1.2,5.2,0.7c1.6-0.5,2.8-1.7,3.6-3.6c0.3-0.7,0.5-1.3,0.6-1.9
			c0.1-0.6,0.1-1.2,0.1-1.8c-0.3-1.8-1.6-3.7-3.9-5.7c-0.4-0.3-0.7-0.6-0.9-0.7c-2.9-2.6-4.8-5.1-5.6-7.5c-0.8-2.4-0.7-4.9,0.4-7.4
			c1.2-2.8,3-4.7,5.3-5.7c2.3-1.1,4.8-1.1,7.6-0.2l2.4-5.5L226,190.4z"/>
	</g>
</g>
<g>
	<g>
		<path class="st0" d="M199.1,3.2c29.8-9.2,49.4,2.3,43.6,25.9c-5.7,23.5-34.6,50.1-64.5,59.3c-29.9,9.2-49.4-2.3-43.6-25.9
			C140.4,38.9,169.2,12.4,199.1,3.2z M180.1,81c24.7-7.6,48.6-29.6,53.4-49.1c4.8-19.5-11.4-29.1-36.1-21.4
			c-24.7,7.6-48.6,29.6-53.4,49.1C139.2,79.1,155.3,88.7,180.1,81"/>
	</g>
	<path class="st1" d="M197.3,10.5c-24.7,7.6-48.6,29.6-53.4,49.1c-4.8,19.5,11.4,29.1,36.1,21.4c24.7-7.6,48.6-29.6,53.4-49.1
		C238.2,12.4,222,2.8,197.3,10.5z"/>
	<g>
		<path class="st2" d="M240.2,9.2c2.6,3.7,5.2,7.3,7.8,11c3.5,4.9,4.6,11.7,2.6,19.8c-5.8,23.5-34.6,50.1-64.5,59.3
			c-19.5,6-34.5,3.2-41.1-6c-2.6-3.7-5.2-7.3-7.8-11c6.5,9.2,21.6,12,41.1,6c29.8-9.2,58.7-35.8,64.5-59.3
			C244.7,20.8,243.7,14.1,240.2,9.2z"/>
	</g>
	<path class="st1" d="M178.3,88.3c-8.5,2.6-16.1,3.6-22.6,3l8.4,11c6.3,0.4,13.7-0.5,21.9-3.1c28-8.7,55.2-32.6,63.1-54.9l-8-10.5
		C233,56.1,206.1,79.7,178.3,88.3z"/>
	<g>
		<path class="st2" d="M198.5,20.3l-1.4,5.9c2.9-0.6,5.1-0.2,6.5,1c1.4,1.2,1.8,3.2,1.4,5.9l-6.7,2.1c0.2-1.5-0.1-2.6-1.2-3.1
			c-1-0.5-2.5-0.5-4.5,0.1c-2.1,0.7-4,1.7-5.5,3.1c-1.5,1.4-2.5,3-2.9,4.7c-0.2,0.6-0.2,1.2-0.1,1.6c0.1,0.4,0.3,0.8,0.7,1.1
			c0.7,0.6,2.6,0.7,5.5,0.2c1.7-0.2,3.1-0.4,4-0.4c3.1-0.1,5.3,0.5,6.6,1.8c1.3,1.3,1.6,3.2,1,5.7c-0.8,3.2-2.5,6.3-5.2,9.2
			c-2.7,2.9-5.7,5.1-9.2,6.5l-1.7,7.1l-6.3,1.9L181,68c-3.7,0.8-6.4,0.4-8.1-1c-1.7-1.4-2.2-3.8-1.4-7l6.5-2c-0.4,2.2,0,3.6,1.1,4.2
			c1.1,0.7,3.1,0.6,5.8-0.2c2.5-0.8,4.6-2,6.3-3.6c1.8-1.6,2.9-3.4,3.4-5.4c0.2-0.7,0.2-1.3,0.2-1.9c0-0.5-0.2-1-0.4-1.3
			c-0.8-1.1-2.8-1.4-6.1-1c-0.5,0.1-0.9,0.1-1.2,0.1c-4.1,0.5-6.9,0.2-8.5-0.9c-1.6-1.1-2.1-2.9-1.4-5.6c0.7-2.9,2.3-5.7,4.7-8.2
			c2.4-2.6,5.4-4.6,8.9-6.1l1.4-5.8L198.5,20.3z"/>
	</g>
	<g>
		<path class="st0" d="M195.8,18.6l-1.4,5.9c2.9-0.6,5.1-0.2,6.5,1c1.4,1.2,1.8,3.2,1.4,5.9l-6.7,2.1c0.2-1.5-0.1-2.6-1.2-3.1
			c-1-0.5-2.5-0.5-4.5,0.1c-2.1,0.7-4,1.7-5.5,3.1c-1.5,1.4-2.5,3-2.9,4.7c-0.2,0.6-0.2,1.2-0.1,1.6c0.1,0.4,0.3,0.8,0.7,1.1
			c0.7,0.6,2.6,0.7,5.5,0.2c1.7-0.2,3.1-0.4,4-0.4c3.1-0.1,5.3,0.5,6.6,1.8c1.3,1.3,1.6,3.2,1,5.7c-0.8,3.2-2.5,6.3-5.2,9.2
			c-2.7,2.9-5.7,5.1-9.2,6.5l-1.7,7.1l-6.3,1.9l1.7-6.8c-3.7,0.8-6.4,0.4-8.1-1c-1.7-1.4-2.2-3.8-1.4-7l6.5-2
			c-0.4,2.2,0,3.6,1.1,4.2c1.1,0.7,3.1,0.6,5.8-0.2c2.5-0.8,4.6-2,6.3-3.6c1.8-1.6,2.9-3.4,3.3-5.4c0.2-0.7,0.2-1.3,0.2-1.9
			c0-0.5-0.2-1-0.4-1.3c-0.8-1.1-2.8-1.4-6.1-1c-0.5,0.1-0.9,0.1-1.2,0.1c-4.1,0.5-6.9,0.2-8.5-0.9c-1.6-1.1-2.1-2.9-1.4-5.6
			c0.7-2.9,2.3-5.7,4.7-8.2c2.4-2.6,5.4-4.6,8.9-6.1l1.4-5.8L195.8,18.6z"/>
	</g>
</g>
</svg>
