<?xml version="1.0" encoding="utf-8"?>
<!-- Generator: Adobe Illustrator 23.0.3, SVG Export Plug-In . SVG Version: 6.00 Build 0)  -->
<svg version="1.1" id="Layer_1" xmlns="http://www.w3.org/2000/svg" xmlns:xlink="http://www.w3.org/1999/xlink" x="0px" y="0px"
	 viewBox="0 0 2015.1 1894.9" style="enable-background:new 0 0 2015.1 1894.9;" xml:space="preserve">
<style type="text/css">
	.st0{fill:#F2DCD8;}
	.st1{fill:#FDBB44;}
	.st2{fill:#7AC0EF;}
	.st3{fill:#002A38;}
	.st4{fill:#E1E1E1;}
	.st5{opacity:0.47;fill:#7AC0EF;}
	.st6{opacity:0.28;fill:#F1584C;}
	.st7{fill:#F1584C;}
	.st8{fill:#61AFEF;}
	.st9{fill:#FD6F44;}
	.st10{fill:#1D1D1B;}
	.st11{opacity:0.47;fill:#61AFEF;}
</style>
<path class="st0" d="M1944.7,1800.8c-3.1-19.3-25.8-32-55.2-38.8c-7.8-1.8-15.8-3.3-24-4.5c-35.1-9.1-72.7-15.1-110.2-19.6
	c-67-8.2-134.9-14.3-202.5-20.4c-141.9-12.7-284.6-22.6-427.7-29.5c-141.8-6.9-283.9-10.8-426.1-11.9c-126.1-0.9-258.1-3.6-380,18.3
	c-57.2,10.3-118.4,26.5-160.2,52.4c-22,13.7-37.2,30.8-38.4,49.9c-1.3,18.9,13.6,36.1,39.4,47.2c21.5,9.3,48.6,13.3,74.6,15.6
	c33.9,3,68.1,4.9,102.1,7.1c70.6,4.6,141.2,8.7,211.9,12.4c142,7.3,284.4,12.4,426.9,14.7c141.7,2.2,283.5,1.6,425-2.8
	c141.7-4.4,284.2-11.6,424.4-25c31.4-3,62.8-8.2,87.5-20.6C1932.9,1834.7,1947.3,1817.2,1944.7,1800.8z"/>
<g>
	<path class="st1" d="M1505.3,1643.5c1.5-5.2-2.3-11.5-8.1-11.3c-9.1,0.3-18.2,0.6-27.4,0.8c-7.5,0.2-11.4-18.3-9-13.1
		c-7.4,18.3-33.8,120.1-40.6,139.3c-0.2,0.6-0.5,1.3-0.7,1.9c-20.6,5.6-41.2,11.3-61.7,16.9c-7.1,1.9-8.9,14.1-0.5,15.7
		c35.5,6.4,71.4,8.2,107.3,4.9c5.1-0.5,8-3.3,8.8-8.3c2-12.7,4.1-25.4,6.5-38.1C1486.7,1715.7,1495.2,1679.4,1505.3,1643.5z"/>
	<path class="st1" d="M1958.4,1740.7c-1-3.6-2.1-7.2-3.1-10.8c-4.5-15.6-9-31.2-13.4-46.8c-6.2-21.6-12.4-43.3-18.6-64.9
		c-1.6-5.6-6.8-7.8-12.1-5.7c-3.7,1.4-7.4,2.8-11,4.3c-2.1-2.2-6.7-0.5-7.3,2.9c0,0.1,0,0.2,0,0.2c-0.3,0.1-0.6,0.2-0.9,0.4
		c-5.9,2.7-5.1,10.7-1.1,14.1c-0.4,4.9-0.6,9.9-0.5,15c0.2,9.3,0.6,18.6,1.3,27.9c1.4,19,3.8,37.9,7.3,56.6
		c0.8,4.1,2.6,9.7,2.5,14.7c-0.1,2.3-0.5,4.4-1.7,6.2c-1.7,2.5-4.8,4.2-7.3,5.8c-4.3,2.7-8.5,5.5-12.8,8.2
		c-16.5,10.6-33,21.2-49.6,31.7c-7.7,4.9-3.9,16.4,5.4,15.1c36.1-5.1,71.3-16.7,103.3-34.2c7.2-3.9,16.1-7.8,20.2-15.2
		C1963.3,1758.1,1960.8,1749.1,1958.4,1740.7z"/>
	<path class="st1" d="M1644.1,304.3c-0.3-2.2-2-4.1-5-3.7c-1,0.1-2.1,0.3-3.1,0.5c-0.5,0-1,0.1-1.6,0.3
		c-22.5,3.9-44.7,12.3-63.5,25.1c-20.5,13.9-38.5,31.7-53.4,51.5c-33.8,45.1-51.6,99.7-64.6,153.9c-25.5,106-33.6,216.2-67.5,320.2
		c-8.4,25.9-18.4,51.2-30.6,75.6c-1.7,3.3-3.4,6.6-5.2,9.9c-0.7,0.6-1.4,1.2-2.1,1.8c-10.5,9.1-19.3,19.2-25.8,31.5
		c-6,11.3-9.2,24.1-9.4,36.9c-0.2,12,5.3,24.5,13,33.4c3.5,4.1,11.2,0.8,8.8-4.8c-1.5-3.3-2.4-6.7-3-10
		c5.2,13.3,15.4,24.1,30.4,27.4c5.2,1.2,8.3-6.3,4.2-9.4c-7.5-5.7-12.9-14-16-23.1c0,0,0.1,0,0.1,0c4,6.8,9.1,12.7,15.6,17.3
		c6.7,4.7,15.8,11.1,24.1,7.6c2.4-1,4-4,2.9-6.5c-3-6.7-10.1-9.4-15.2-14.4c-0.1-0.1-0.3-0.3-0.4-0.4c2-0.2,3.9-0.5,5.8-0.8
		c7.5,5.6,17,8.5,26.3,7.2c8.1-1.1,6.4-12.2-1.4-12.3c-2,0-4-0.4-5.9-1.1c16-7.3,29.8-19,41.2-32.4c15.1-17.7,26.3-38.6,36.2-59.6
		c12.3-26.2,23.4-53,33.9-80c21.5-55.1,39.7-111.6,54.6-168.8c14.9-57,26.4-114.9,34.5-173.3c3.9-28.4,6.6-56.8,9.3-85.3
		c2.4-24.6,5.4-49.9,15.1-72.8c4.5-10.7,10.4-20.4,18.1-29.1C1648.4,312.3,1647.2,307.5,1644.1,304.3z"/>
	<path class="st2" d="M1618.9,304.8c0,0-135.7-10.3-178.2,277.3c0,0,103,10.4,126,49.7C1589.7,671,1618.9,304.8,1618.9,304.8z"/>
	<path class="st3" d="M1949.4,1602.8c-3.4-22.6-6.7-45.2-10.1-67.8c-13.5-90.4-27-180.8-40.5-271.2c-13.5-90.4-27-180.8-40.5-271.2
		c-6.7-44.9-13.4-89.7-20.1-134.6c-3.4-22.6-6.7-45.2-10-67.8c-2.7-18.2-5.5-36.6-11.5-54.1c-5.8-17.1-15.2-32.9-28.8-44.8
		c-13.4-11.7-29.8-18.8-46.8-23.4c-39.4-10.5-80.1-3.9-120.2-7c-10.8-0.8-21.4-2.4-31.9-5.1c-7.4-1.9-10.6,6.4-7.6,11.7
		c-0.5,0.4-1,0.9-1.4,1.5c-16.5,27.8-32,56.3-45,85.9c-13,29.5-24.6,59.7-35,90.3c-20.9,61.6-36.7,124.9-48.5,188.9
		c-12,65.7-19.7,132.2-24.3,198.8c-4.8,70.8-6.2,141.8-5.8,212.7c0.4,71.4,2.7,142.8,5.2,214.2c0.3,8.8,0.6,17.6,0.9,26.4
		c0.1,3,3.2,6.3,6.2,6.5c19.6,1.1,39.2,2.2,58.8,3.4c3,0.2,6.9-1,8-4.3c35-104,67.6-208.9,97.6-314.5c25.3-89,48.7-178.5,70.2-268.4
		c0.6,1.9,1.2,3.7,1.8,5.6c7,21,14,42,21,63c14.1,42.3,28.2,84.7,42.3,127c28.1,84.4,56.2,168.7,84.4,253.1
		c15.8,47.5,31.6,95.1,47.6,142.5c1.2,3.4,5.1,5.5,8.6,5.1c28.1-3,65.4-10.3,77.2-39.9C1959,1645.8,1952.4,1622.8,1949.4,1602.8z"/>
	<path class="st2" d="M1806.6,318.6c-18.9-17.5-43.4-28.3-68.9-33c-39.1-11.8-83.8-7.2-120.2,9.7c-27.9,13-51.9,33.4-58.6,64.1
		c-6.2,28.3,4.5,59.7-7.8,86.7c-10,21.9-31.1,38.7-42.1,61.1c-5.7,11.6-8.3,25-6,37.8c2.3,13.1,8.4,24.7,15.1,36.1
		c6.3,10.7,12.5,19.9,16.6,31.7c1.4,4.1,2.5,9.6,2.3,14.6c-0.4,7.1-2.7,13.6-5.7,20c-6.2,13.3-15,25.5-19.5,39.6
		c-4.5,14-6.5,29.9,0.7,43.4c7.4,13.9,20.7,21.3,35.6,25.6c16,4.6,32.8,7.1,49.2,9.9c35.3,6.1,70.9,10.6,106.6,13.6
		c16.8,1.4,33.7,2.9,50.5,3c13,0.1,26.5-1.2,38.7-6c13.1-5.1,24.1-14.7,29.3-27.7c6.2-15.3,6.6-32.9,8.6-49.1
		c4.3-35.1,8.5-70.3,12.7-105.4c4.2-34.8,9.1-69.7,11.9-104.6C1860.2,429.6,1854,362.6,1806.6,318.6z"/>
	<path class="st1" d="M1855.3,401.4c-10.9-30.5-29.4-60.1-59.7-74c-9-5.6-19.6-7.7-30.2-7.1c-21.9-0.5-43.2,8.9-55,29.5
		c-2,3.6-3.5,7.2-4.6,10.9c-11,18.5-17.3,40.2-22.1,60.6c-17.1,72.3-10.2,147.2-12.9,220.6c-1.4,36.2-5.4,72.1-14.6,107.2
		c-8.8,33.7-21.9,66.1-37.3,97.3c-15.5,31.3-32,62.4-52.9,90.3c-94.5,126.1-82,188.6-81.1,196.8c1,10,4.5,20.2,9.2,29.1
		c2.5,4.7,5.3,9.3,8.6,13.5c3.7,4.7,7.5,7.8,12.9,10.4c5,2.4,11-3.1,8.7-8.3c0,0,0,0,0-0.1c7.5,5.8,16.5,9.2,25.6,7.6
		c4.3-0.8,6-4.4,5.1-7.7c7.9,2.6,16.3,2.2,23.6-3c3.7-2.7,3.5-9.4-1.2-11.1c-0.1,0-0.3-0.1-0.4-0.1c10,0.1,19.8-4.5,24.7-14.4
		c4.3-8.6-7.8-15.3-13.8-8.6c-1.5,1.7-2.9,2-5,2.1c-1.9,0.1-2.6-0.1-4.7-1c-2-0.9-4.8-4.7-6.2-8.3c26.6-10,48.2-30.7,67.2-51.4
		c23.4-25.6,45.4-52.7,66.5-80.2c42.7-55.7,81.1-115.1,111-178.7c30.7-65.4,52.3-135.3,60-207.2
		C1884.3,544.8,1879.6,469.5,1855.3,401.4z"/>
	<path class="st1" d="M1700.4,280.3c-9.3-5.6-17.7-12.9-24.6-21.2c-5.7-6.8-11-13.7-15.4-21.2c2.1-1.9,2.6-5.5,1.6-8
		c-1.3-3.3-4.4-4.6-7.7-4.6c-4.6-0.1-9.3,1.7-13.7,2.8l-13.6,3.4c-6.2,1.5-8.7,7.1-5.6,12.7c9.7,17.1,12.9,36.8,10.6,56.2
		c-0.9,7.6,6.8,11.1,12.8,7.8c16.4-9,34.8-13.6,53.4-14.2c3.1-0.1,5.8-3.1,6.3-6C1705.1,284.6,1703.2,282,1700.4,280.3z"/>
	<path class="st2" d="M1670.6,627.5c0,0,111.2-51.5,206.1-11.3c0,0,60.7-246.8-97.2-309.4S1670.6,627.5,1670.6,627.5z"/>
	<path class="st4" d="M1632.3,290.3c0,0,34.5,11.1,68.1-10c0,0,24.4-1.6,50.7,8.4c26.3,10-49.4,64.5-93,13.3
		c0,0-23.6,25.9-47.8,22.6C1586.1,321.2,1592.7,300.3,1632.3,290.3z"/>
	<path class="st1" d="M1672.3,145.2c-6.3-5.6-13.6-9.4-21.7-11.7c-2.8-0.8-5.5-1.3-8.1-1.5c-15.4-5-32.7-4.1-47.2,3.6
		c-26.8,14.4-43.7,47.7-36.7,77.9c7.7,33,45.3,46.6,76.1,41c31-5.7,56.2-31,57.3-63.3C1692.5,173.4,1685.6,156.9,1672.3,145.2z"/>
	<path class="st3" d="M1765.5,93c-16.9-10.3-38.3-10.4-55.8-1.3c-10,5.2-18.5,12.3-24.3,22c-1.7,2.9-3.2,5.8-4.4,8.9
		c-6.3-6.3-13.5-11.6-21.8-15.1c-10.8-4.5-22.1-5.3-33.7-4.9c-11.6,0.4-24,2.2-35.2-1.8c-8.6-3.1-15.8-9.1-22.7-14.9
		c-14.6-12.3-31.2-26.7-51.8-23.4c-21.1,3.4-37.6,22.6-38.4,43.8c-0.9,23.6,14.5,45.1,35.8,54.4c11,4.8,23,6.6,34.9,6
		c12.4-0.6,24.3-4.5,36.1-8c11.8-3.5,23.7-6.5,36.1-4.4c11.2,1.9,23.7,5.7,29.7,15.4c31.8,51.1,10,74.9,11.9,73.7
		c26.6-15.6,37.6-37,40.2-59.6c0.7-6.1,0.6-12.2-0.1-18.2c1.9,1.1,3.8,2.2,5.5,3.1c9.6,5.1,20.3,7.8,31.1,7.6
		c20-0.2,39.9-13.5,46.7-32.6C1792.4,123.8,1783.1,103.7,1765.5,93z"/>
	<path class="st1" d="M1681,205.8c-4.1-4.6-11.1-5.6-16.7-3.3c-6.1,2.6-9.4,8.6-11.9,14.4c-1.2,2.8,0.4,5.6,2.6,6.9
		c0.8,0.9,1.7,1.8,2.9,2.3c6.5,3.3,14.7,4.1,20.7-0.7C1684.7,220.6,1686.4,211.8,1681,205.8z"/>
	<path class="st3" d="M1647.8,331.3c-4.1-0.1-8,1.9-8.7,6.4c-0.6,3.7,2.2,8.6,6.4,8.7c4.1,0.1,8-1.9,8.7-6.4
		C1654.7,336.3,1651.9,331.4,1647.8,331.3z"/>
	<path class="st3" d="M1647.4,368c-0.1-0.5-0.2-0.9-0.2-1.4c-0.2-1.4-0.9-3-2.1-3.9c-0.4-0.3-0.9-0.5-1.3-0.8
		c-0.7-0.4-1.5-0.5-2.3-0.5c-0.5-0.1-1,0-1.5,0.2c-0.8,0.1-1.4,0.4-2.1,0.9c-0.4,0.3-0.7,0.7-1.1,1c-0.7,0.8-1.1,1.8-1.3,2.8
		l-0.3,1.4c-0.4,1.6,0.2,3.3,1.1,4.6c0.6,0.9,1.5,1.5,2.5,2c0.8,0.4,1.6,0.5,2.4,0.5c0.8,0.1,1.6,0,2.4-0.4c0.8-0.3,1.4-0.7,2-1.3
		c0.6-0.5,1.1-1.1,1.4-1.9C1647.4,370.3,1647.6,369.2,1647.4,368z"/>
	<path class="st3" d="M1634.2,389.3c-3.5-0.1-6.8,1.6-7.4,5.4c-0.5,3.1,1.9,7.3,5.4,7.4c3.5,0.1,6.8-1.6,7.4-5.4
		C1640.1,393.6,1637.7,389.4,1634.2,389.3z"/>
	<path class="st4" d="M1723.8,351.1c-35.5,46.9-56,105-57.7,163.8c-0.5,16.7,1,33.2,3.9,49.6c1,5.6,9.6,4.8,8.9-1
		c-7.2-56.2,1.3-114.2,26.4-165.2c7.2-14.6,15.7-28.5,25.4-41.6C1734.2,352.1,1727.3,346.5,1723.8,351.1z"/>
	<path class="st5" d="M1813.1,1309.8c-4.5,6.1-9.7,11.2-17.7,12.1c-8.2,0.9-16-3.2-20.8-9.8c-3.2-4.4-9.7,0.4-6.8,4.9
		c12.2,18.6,43.8,19.8,53.7-2C1823.9,1310,1816.5,1305.1,1813.1,1309.8z"/>
	<path class="st5" d="M1486.2,1293.2c-12,6-27.1-1-30.7-13.8c-1.2-4.5-9.1-2.6-8.1,2c4.2,18.1,25.2,29.1,42.4,21.2
		C1495.8,1299.9,1491.9,1290.3,1486.2,1293.2z"/>
	<path class="st6" d="M1791.5,804.2c-2.5,10.9-7.3,20.3-16.6,26.9c-4.1,2.9,0.4,9,4.6,6.3c10.9-6.9,19.6-18.8,20.8-31.9
		C1800.8,799.9,1792.7,798.6,1791.5,804.2z"/>
	<path class="st7" d="M1479.8,1752.2c-2.4,1-4.8,2-7.2,2.9c-16.2,6.2-34.9,7.4-52.5,4.1c-0.2,0.6-0.5,1.3-0.7,1.9
		c-20.6,5.6-41.2,11.3-61.7,16.9c-7.1,1.9-8.9,14.1-0.5,15.7c35.5,6.4,71.4,8.2,107.3,4.9c5.1-0.5,8-3.3,8.8-8.3
		C1475.3,1777.6,1477.5,1764.9,1479.8,1752.2z"/>
	<path class="st7" d="M1958.4,1740.7c-1-3.6-2.1-7.2-3.1-10.8c-6.1,3.7-12.5,6.9-19.1,9.5c-9.9,3.9-19.9,6-30.2,8.3
		c-1.5,0.3-3.1,0.7-4.6,0.9c-0.1,2.3-0.5,4.4-1.7,6.2c-1.7,2.5-4.8,4.2-7.3,5.8c-4.3,2.7-8.5,5.5-12.8,8.2
		c-16.5,10.6-33,21.2-49.6,31.7c-7.7,4.9-3.9,16.4,5.4,15.1c36.1-5.1,71.3-16.7,103.3-34.2c7.2-3.9,16.1-7.8,20.2-15.2
		C1963.3,1758.1,1960.8,1749.1,1958.4,1740.7z"/>
	<path class="st2" d="M1706.3,155.9c-12.4-9.2-20.8-22.6-23.4-37.9c-0.8-4.9-8.5-4.1-7.7,0.9c2.5,17.4,11.6,33.2,25.5,44
		C1705.2,166.4,1710.9,159.4,1706.3,155.9z"/>
	<path class="st7" d="M1597.2,189.2c0.7-4.6-7-6.2-8.1-1.6c-1.5,5.8-3.7,11.4-6.9,16.5c-3.2,5.1-7.7,8.9-10.9,13.9
		c-2.6,4.1,2,10.8,6.7,7.8C1589.5,218.5,1595.2,202,1597.2,189.2z"/>
	<path class="st3" d="M1623.3,174.5c-5-1.3-9.6-3.6-13.7-6.7c-4.3-3.3-9.6,3.3-5.3,6.5c5.4,3.9,11.3,6.5,17.8,7.9
		C1627,183.2,1628.1,175.7,1623.3,174.5z"/>
	<path class="st3" d="M1583,166.9c-1.4-1.9-4-2.2-5.8-0.9c-1.9,1.3-4,2.1-6.4,2.4c-5,0.6-4.1,8.1,0.9,7.7c3.8-0.2,7.2-1.5,10.4-3.4
		C1584,171.6,1584.3,168.6,1583,166.9z"/>
	<path class="st3" d="M1617.3,193.8c-0.2-0.2-0.4-0.4-0.6-0.6c-0.5-0.5-1.3-0.8-2-0.9c-0.7-0.1-1.5,0-2.2,0.2
		c-1.5,0.6-2.6,2.1-2.6,3.8c0,1.5,0.7,2.8,1.9,3.6c1.3,0.8,3.3,0.9,4.6-0.1c0.2-0.2,0.4-0.3,0.6-0.5
		C1618.9,197.8,1619,195.3,1617.3,193.8z"/>
	<path class="st3" d="M1574.8,187.3c-0.2-0.2-0.4-0.4-0.6-0.6c-0.5-0.5-1.3-0.8-2-0.9c-0.7-0.1-1.5,0-2.2,0.2
		c-1.5,0.6-2.6,2.1-2.6,3.8c0,1.5,0.7,2.8,1.9,3.6c1.3,0.8,3.3,0.9,4.6-0.1c0.2-0.2,0.4-0.3,0.6-0.5
		C1576.5,191.3,1576.5,188.8,1574.8,187.3z"/>
	<path class="st7" d="M1613.2,229.3c-2.6,2.4-4.6,4.9-8.1,6.1c-3.6,1.3-7.5,1.6-11.2,0.4c-2.2-0.7-3.6,2.2-1.5,3.3
		c7.8,4.2,20.8,2.3,24.4-6.9C1617.7,230.2,1615.1,227.5,1613.2,229.3z"/>
	<path class="st4" d="M1515.1,491.4c8.8-11.6,19.9-21.3,28.4-33c9.2-12.6,15.4-28.2,11.9-43.9c-0.5-2.2-4-1.9-3.6,0.4
		c5.2,33.4-30.2,54.7-46,79.3c-13.1,20.5-14.3,46.5-4.2,68.5c5.3,11.7,14.1,23.8,25.9,29.5c2.7,1.3,4.9-2.5,2.7-4.3
		c-9.3-7.8-17.4-15.6-22.7-26.8c-5-10.7-7.4-22.7-6.5-34.6C1502.1,513.3,1507.2,501.7,1515.1,491.4z"/>
	<path class="st6" d="M1655.7,243.4c-7.3,6-15.9,9.2-25.3,9.3c-2.3,0-1.9,3.6,0.4,3.6c10-0.1,19.4-3.5,27.2-9.8
		C1660,245,1657.7,241.8,1655.7,243.4z"/>
	<path class="st6" d="M1477.6,744.2c-7.4-5.5-11.9-13.1-9.9-22.5c0.6-3.1-4.1-3.8-4.8-0.8c-2.7,10.5,1.8,23,11.8,28
		C1477.5,750.4,1480.2,746.1,1477.6,744.2z"/>
</g>
<g>
	<path class="st3" d="M428.8,83.3c-2-9.2-9.9-17.9-19-20c1.2-6.4-0.6-13.4-4.9-18.6c-5.7-6.9-14.5-9.1-23.1-8.3
		c2.2-11.2-2.8-23.7-12.4-30.2c-15.8-10.7-36.2-6.4-50.9,4c-16,11.3-28.6,28.7-38.5,45.3c-10.6,17.8-21.4,38.5-21.4,59.7
		c0,15.2,8.9,33,23.8,38.3c0,1.3,0.6,2.7,2.2,3.8c12.8,9.1,30.8,10.5,46.1,9.1c15.9-1.5,31.1-7,44.8-15c13.4-7.8,25.2-17.7,36-28.9
		C421.1,112.4,432,98.3,428.8,83.3z"/>
	<path class="st1" d="M409.9,1833.6c-17-6.6-33.9-13.7-50.4-21.5c-14.4-6.8-31.4-13.1-40.4-27c0,0-0.1-0.1-0.1-0.2
		c-3.8-5.8-6-12.3-7.7-19c-1.5-6.4-2.4-12.9-3.4-19.2c-2-13.6-4-27.3-9.9-39.9c-1-2.1-3.1-3.3-5.4-3c-12.7,1.5-25.5,3-38.2,4.6
		c-1-0.8-2.7-0.9-3.2,0.4c-0.7,0.1-1.4,0.2-2.1,0.2c-6.3,0.8-4.9,10.5,1.5,9.8c0.1,0,0.3,0,0.4,0c0.3,14.2,2.4,28.5,4,42.5
		c0.1,1.2,0.3,2.5,0.4,3.7c0.5,4.7,1.1,9.5,1.6,14.2c0.3,2.8,0.6,5.6,0.9,8.5c0.8,6.9,1.5,14.1,5,20.2c6.9,12.1,21.5,14.8,33.9,17.7
		c17,3.9,34.2,6.9,51.4,9.6c19.7,3,39.5,5.3,59.4,7C412.5,1842.5,414.7,1835.4,409.9,1833.6z"/>
	<path class="st1" d="M827.8,1759c-18-3.2-35.8-7-53.6-11.5c-14.3-3.6-30.7-6.4-42.2-16.3c-0.9-0.8-1.8-1.6-2.6-2.4
		c-8.4-8.6-12.8-20.3-16.8-31.5c-0.5-1.4-1-2.7-1.4-4.1c-4.6-13-9.2-26.1-17.3-37.3c-1.3-1.9-3.6-2.6-5.8-1.9
		c-12.2,3.9-24.4,7.8-36.7,11.8c-1.2-0.6-2.8-0.3-3.1,1c-0.7,0.2-1.3,0.4-2,0.6c-6.1,1.9-2.8,11.3,3.3,9.3c0.1,0,0.3-0.1,0.4-0.1
		c1.9,8.8,4.6,17.6,7.3,26.3c1.6,4.9,3.2,9.8,4.7,14.6c1.3,4.2,2.6,8.4,3.9,12.6c1.3,4.3,2.6,8.5,4,12.7c2.1,6.6,4.1,13.5,8.8,18.9
		c9,10.5,23.9,10.5,36.6,10.9c17.4,0.6,34.9,0.3,52.3-0.4c19.9-0.8,39.8-2.3,59.6-4.4C832.1,1767.3,832.9,1759.9,827.8,1759z"/>
	<path class="st3" d="M719.4,1681c-1-3.9-2-7.8-3-11.6c-2.1-8.1-4.1-16.1-6.2-24.2c-8-31.4-16-62.7-23.5-94.3
		c-15-63.3-28.7-126.8-39.8-191c-10.9-63.1-19-126.8-22.9-190.8c-3.7-61.8-3.3-124,2.4-185.7c5.6-61.1,16.1-122.5,34.3-181
		c4.5-14.4,9.4-28.7,14.7-42.9c1.9-5.2-1.3-9.5-6-10.8c-57.4-15.3-116.9-20.5-176-18.1c-59,2.5-118,13-174.1,32.3
		c-31.7,10.9-62.4,24.4-92.3,40.1c-2.6,1.4-3.7,3.7-3.8,6.1c-0.9-0.8-2.6-0.5-2.9,1.1c-13.1,72.2-18.6,146-23,219.2
		c-4.4,73.4-6.2,147-5.5,220.5c0.7,73.1,3.6,146.2,8.8,219c5.1,72.8,11.9,145.7,21.9,217.9c3.9,28,10.6,59.5,32.8,78
		c0.4,0.4,0.9,0.7,1.3,1.1c7.3,5.8,39.6,3.4,54.6,0c4.7-1.1,7.7-2.3,7.7-3.3c-3.6-69.5-3-139.3,1.9-208.7
		c4.9-69.3,13.8-138.3,26.9-206.5c13-67.9,30-135,51-200.6c9.7-30.4,20.1-60.8,31.6-90.6c0.9,14.3,2.1,28.6,3.7,42.8
		c6.4,59.3,17.3,118,32,175.6c14.7,57.8,33.1,114.7,54.8,170c21.9,55.6,46.9,109.7,74.5,162.3c6.9,13.2,14,26.3,21.3,39.3
		c6.6,11.9,19.6,38.2,27.6,49.2c2.8,3.8,7.4,6.2,13.2,7.5c16.5,3.8,41.7-1.1,55.3-5.6c5.6-1.9,9.2-3.7,9.4-4.9
		C722.4,1688.9,720.3,1684.2,719.4,1681z"/>
	<path class="st3" d="M930.3,406.5c-0.4-3.7-53.8-93.1-57.3-94.4c-103.1-38.9-225,86.8-227.6,87.7c-26.8-44.6-59.1-108-104.3-134
		c-58-33.3-126.3-45.7-192.5-36c-19.2,2.8-38.1,7.5-56.4,13.8c-12.5,4.3-65.5,22.7-79,28.1c-13.6,5.4-26.7,12.5-39.1,20.3
		c-25.7,16-48.5,36.3-68.4,59.2C61.8,402,35.3,465,19.2,529.6c-8.4,34-14.3,68.8-17.9,103.6c-3.4,34-1.9,72,21.4,99.4
		c21,24.7,55.1,32.4,86.1,26.8c17.1-3.1,33-9.8,47.8-18.5c2.7,5.9,5.3,11.8,8,17.7c3.6,8,6.7,16.2,9.2,24.6
		c2.6,8.7,4.6,17.6,6.1,26.5c1.3,7.7,1.9,15.6,3.5,23.3c3.7,17.4,13.4,31.5,31.6,35.4c17.4,3.7,36.3-2.3,53.3-5.8
		c81.7-16.9,162.9-36,243.8-56c45.5-11.2,91-22.8,136.5-34.3c5.4-1.4,9-5.5,8.4-11.3c-5.2-50.8-10.6-101.8-10.7-153
		c-0.1-25.4,1.2-50.9,4.2-76.1c3-24.8,8.6-49.1,12.7-73.7c2.3-13.5,213.7,59.1,214,45.3C877.5,496.6,931,413.6,930.3,406.5z"/>
	<polygon class="st8" points="294.1,272.4 431.9,791.3 482.6,778.2 387.3,254 	"/>
	<path class="st9" d="M419.7,443.1c-15.9-33.1-30.1-67-41.3-102.6c-3.7-11.9-7.2-23.9-10.5-36c0-0.4,0.1-0.9,0.1-1.3
		c-0.2-8.5-0.5-17-0.7-25.5c-0.2-5.9,1.4-16.3-2.6-20.8c-4.2-4.8-12.9-2.4-17.9-0.9c-4.8,1.4-17.5,6.4-19,7.3
		c-8.3,5.2-1.2,15.4,2,21.5c3.9,7.4,7.4,17,12.7,23.1c1.3,1.5,2.7,2.5,4.3,3.2c0.8,34.2,1.6,68.4,2.9,102.6
		c0.7,18.4,0.6,37.2,3.2,55.5c2.4,16.9,8,32.3,16.2,46.5c9,15.7,20.6,28.7,32.2,41.8c3.7,4.2,8.5-1.2,8.4-5.7
		c-0.4-19.1,2.4-38.4,7.6-56.6c2.6-9,7-17.8,8-27.3C426.3,458.9,423.4,450.7,419.7,443.1z"/>
	<path class="st2" d="M319.1,235.7c0,0-24.1,3.1-56.4,18.3s58.2,48.1,58.2,48.1l22.4-42.7l58,19.9c0,0,28.6-55-33.6-52.6
		C305.6,229,319.1,235.7,319.1,235.7z"/>
	<path class="st1" d="M372.3,230.7c-14.8-11.6-23.2-30.3-21.7-49.2c0.9-10.8,0.9-22.1-9.5-28.4c-10.3-6.2-21.8-2.8-32,1.6
		c-7,3-5.6,11.6-0.6,14.7c-0.9,11.7-2.8,23.2-4.3,34.8c-1.8,13.8-4.8,27.3-9,40.5c-1.3,4,0,9.2,4.5,10.7
		c24.6,8.4,52.1,4.1,72.8-11.7C376.6,240.4,376.4,233.9,372.3,230.7z"/>
	<path class="st1" d="M409.9,155.4c-1-8.1-7.8-15.6-16.4-15.1c-0.5,0-1.1,0.1-1.6,0.2c0.2-13.9-4.1-27.8-12.7-38.5
		c-9.7-12.2-24.7-19.6-40.2-21c-0.3,0-0.6,0-0.9-0.1c-0.6-0.5-23.3-3.4-40.6,8.5c-10.9,7.6-19.5,19.2-23.1,32
		c-2.5,8.7-2.8,17.7-1.4,26.4c-3.2-0.7-6.5-0.7-9.9,0.4c-7.8,2.4-13,10.2-10.2,18.3c2.6,7.6,10.6,12.9,18.5,13
		c4.8,0,9.5-1.3,13.8-3.5c4.9,6.4,11.1,11.9,18.4,15.9c24.1,13.3,56,6.7,74.2-13.4c0.5-0.6,1-1.2,1.5-1.8
		C392.5,181.6,411.8,171.3,409.9,155.4z"/>
	<path class="st5" d="M473.4,257.6c-13-6.4-26.1-12.8-39.1-19.2c-4.9-2.4-7.9,5.3-3.2,7.7l32.1,16.4c5.3,2.7,10.7,5.5,16,8.2
		c2.1,1.1,4.4,2,6.2,3.6c2.7,2.3,1.9,4-0.1,6.5c-7,9.1-15.1,17.5-22.6,26.1c-8,9.3-16.1,18.5-24.1,27.8c-1.4,1.6-1.5,4.9,0,6.5
		c3.9,4,8.4,5.4,13.9,5.6c2.9,0.1,11.4-0.9,10.9,3.7c-0.3,2.8-2.7,6.3-3.9,8.9c-1.4,3.1-2.8,6.1-4.2,9.2c-3,6.7-5.9,13.4-8.8,20.1
		c-2.6,6,6.6,9.7,9.3,3.8c3.7-7.7,7.3-15.4,10.9-23.2c2.8-6.1,8-13.7,7.5-20.6c-0.4-5.6-4.5-9.6-9.7-11.2c-2.8-0.9-5.6-1.1-8.6-1.1
		c-1.3,0-3,0.1-4.6,0c7.7-9.1,15.4-18.3,23.1-27.5l13.9-16.6c3.6-4.3,8.3-8.7,8.5-14.6C497.3,266.2,481.4,261.6,473.4,257.6z"/>
	<path class="st5" d="M319.1,400.9c-13.8-7.9-27.7-15.8-41.5-23.7c6.3-1.2,12.4-3,18.4-5.5c4.7-2,4.2-8.4-0.1-10.4
		c-21.8-10.3-43.6-20.5-65.3-31c-3.5-1.7-9.1-3.8-7.9-8.7c1.2-4.9,6.5-9.5,9.5-13.4c7.5-9.6,14.7-19.5,22-29.3
		c3.3-4.3-3.2-9.1-6.7-5.1c-9.4,11-18.9,21.8-27.9,33c-3.5,4.4-7.3,9.2-7.8,14.9c-0.5,5.4,2.2,10.2,6.3,13.5
		c4.4,3.5,10.1,5.6,15.1,8.1c6.5,3.1,13,6.3,19.4,9.4c8.6,4.2,17.1,8.3,25.7,12.5c-6.4,1.4-12.9,2-19.4,1.7
		c-5.1-0.2-9.8,7.2-4.3,10.4c19.4,11.3,38.8,22.6,58.2,34C320.7,416.1,326.9,405.4,319.1,400.9z"/>
	<path class="st10" d="M409.9,1833.6c-17-6.6-33.9-13.7-50.4-21.5c-14.4-6.8-31.4-13.1-40.4-27c0,0-0.1-0.1-0.1-0.2
		c-20.6,1.7-41.8-0.5-61.9-5.8c0.3,2.8,0.6,5.6,0.9,8.5c0.8,6.9,1.5,14.1,5,20.2c6.9,12.1,21.5,14.8,33.9,17.7
		c17,3.9,34.2,6.9,51.4,9.6c19.7,3,39.5,5.3,59.4,7C412.5,1842.5,414.7,1835.4,409.9,1833.6z"/>
	<path class="st10" d="M827.8,1759c-18-3.2-35.8-7-53.6-11.5c-14.3-3.6-30.7-6.4-42.2-16.3c-22.5,3.3-44.9,4.4-66.1-1.1
		c1.3,4.3,2.6,8.5,4,12.7c2.1,6.6,4.1,13.5,8.8,18.9c9,10.5,23.9,10.5,36.6,10.9c17.4,0.6,34.9,0.3,52.3-0.4
		c19.9-0.8,39.8-2.3,59.6-4.4C832.1,1767.3,832.9,1759.9,827.8,1759z"/>
	<g>
		<path class="st7" d="M1125.1,641.3c-8.1,0.9-16.3,1.3-24.4,1.3c-13-0.1-26-1.5-38.7-4c-1.8-0.4-3.6-0.7-5.4-1.1
			c-4.2-0.9-8.4-2-12.6-3.2c-1.8-0.5-3.5-1-5.3-1.6c-3.7-1.2-7.4-2.4-11.1-3.8c-1.6-0.6-3.2-1.2-4.8-1.8c-3.7-1.5-7.3-3-11-4.7
			c-1.3-0.6-2.5-1.2-3.8-1.8c-5.4-2.6-10.6-5.4-15.7-8.4c-3-1.8-6-3.6-8.9-5.5c-11-7.2-21.4-15.3-30.9-24.3c-1.4-1.3-2.7-2.6-4-3.9
			c-1-1-2.1-2.1-3.1-3.2c-0.6-0.7-1.3-1.4-1.9-2c-2.7-2.9-5.4-5.9-8-8.9c-0.4-0.5-0.9-1-1.3-1.5c-1.4-1.6-2.7-3.2-4-4.9
			c-2.9-3.6-5.7-7.3-8.4-11.1c-0.7-1-1.5-2.1-2.2-3.1c-0.5-0.8-1-1.5-1.6-2.3c0.5-0.4,0.9-0.9,1.4-1.3c0.3-0.3,0.7-0.6,1-0.9
			c3.9-3.6,7.8-7.3,11.7-11c2-1.9,4-3.8,5.9-5.7c1.2-1.1,2.4-2.3,3.6-3.5c4.7-4.6,9.4-9.3,14-13.9c0.5-0.5,1.1-1.1,1.6-1.6
			c0.1-0.1,0.3-0.3,0.4-0.4c1.7-1.7,3.4-3.4,5-5.1c1.5-1.6,3-3.1,4.5-4.7c2.5-2.6,5-5.2,7.4-7.8c0.2-0.2,0.4-0.5,0.6-0.7
			c18.1-19.3,35.4-39.3,52-59.8c2.1-2.7,0.6-5.9-2-7.3c-6.1-3.5-12.3-7-18.4-10.5c-15.7-9-31.3-17.9-47-26.9h0
			c-0.7-0.4-1.5-0.9-2.2-1.3c-2.4-1.4-4.9-2.8-7.3-4.2h0c-0.8-0.5-1.6-0.9-2.4-1.4c-1.7-1-3.4-2-5.1-2.9c-0.1-0.1-0.3-0.2-0.4-0.2
			c-1.6-0.9-3.1-1.8-4.7-2.7c-8.1-4.7-16.4-9.8-24.8-14.6c-18.3-10.4-37.7-18.8-59.1-15.5c-15.1,2.3-29.5,8.5-43.4,14.4
			c-13.5,5.7-26.7,12.2-38.8,20.6c-21.5,14.9-37.2,37.8-61.1,49.1c-1.5,0.7-2.9,1.3-4.4,1.9c-12.4,4.8-25.9,6.4-39.2,5.2
			C652,427,637.4,422,625,414c-10.2-9.5-24.7-12.3-38.5-10c-17.5,2.9-31.7,13.6-43.5,26.2c-9.5,10.2-17.9,21.4-26.5,32.5
			c-4,5.2-8,10.3-12.2,15.3c-0.5,0.6-1,1.2-1.5,1.8c-1.3,1.6-2.6,3.1-4,4.7h0c-5.3,6.2-10.7,12.2-16.3,18.2
			c-2.2,2.3-4.3,4.6-6.5,6.9c-4.4,4.6-8.8,9.2-13.4,13.6c-0.7,0.7-1.5,1.5-2.2,2.2c-1.1,1.1-2.2,2.1-3.3,3.2
			c-4.3,4.1-8.6,8.2-13,12.2c-12.3,11.3-25.1,22.1-38.2,32.4c-2.3,1.8-2.3,5.5,0,7.3c45.9,34.3,95.6,62.8,147.8,86.3
			c5.5,2.5,11,4.8,16.5,7.2c0,11.1,0.4,22.3,1.4,33.4c0.9,10,2.1,19.9,3.6,29.8c0.7,4.4,1.4,8.8,2.3,13.1c1.9,10,4.1,19.9,6.5,29.7
			c0.3,1.3,0.6,2.6,1,3.9c6.1,23.8,13.6,47.2,21.9,70.3c0,0,0,0,0,0c0.2,0.5,0.4,1,0.5,1.5c6,16.6,12.2,33.2,19,49.5
			c5.3,12.6,11.6,25.3,21.5,35c8.2,8,18.4,12.5,29.3,13.3c3.7,0.3,7.5,0.1,11.3-0.5c2.6-0.4,5.1-0.9,7.6-1.6
			c5.4-1.4,10.6-3.3,15.8-5.5c3.2-1.3,6.3-2.8,9.4-4.2c5.6-2.6,11.1-5.2,16.7-7.6c7.8-3.3,15.8-6.4,23.7-9.4
			c10.8-4,21.7-7.8,32.6-11.4c15.1-5.1,30.2-9.9,45.3-15c32.2-10.8,64-22.8,94-39c26.7-14.4,51.9-31.5,75.2-51
			c41.6-34.8,76.9-77,103.6-124.2c2.9-5.2,5.8-10.4,8.5-15.7c3.4-6.6,6.6-13.3,9.7-20C1132.4,644.7,1128.9,640.8,1125.1,641.3z"/>
		<path class="st2" d="M631,581.7c-17.3-12.1-36.5-21.4-56.7-27.6c-10.1-3.1-20.4-5.4-30.8-6.9c-7.8-1.1-16.8-2.1-25-1.4
			c-6.6-6.7-13.5-13.2-20.6-19.3c34.4,10.5,69.6,18.2,105.3,23c3.7,0.5,6.5-4.3,2.7-6.5c-36.9-21.4-82.1-34.4-125-30.1
			c-1.6-1.2-3.1-2.3-4.7-3.4c-4.4,4.6-8.8,9.2-13.4,13.6c3,7.2,6.2,14.3,9.7,21.3c6.2,12.7,13.5,25,24.1,34.5c2,1.8,6.5,0.8,6.1-2.5
			c-1.9-14.4-6.2-28.3-13.1-41.1c-2.6-4.8-5.6-9.4-8.8-13.8c8.7,6.7,17.1,13.9,25.1,21.6c5.9,10,6.2,23.4,8.9,34.3
			c3.6,14.3,9.6,27.9,17.5,40.3c1.9,3,6.8,1.8,6.9-1.9c0.2-13.2-1.7-26.4-5.7-39c-0.7-2.1-1.4-4.2-2.2-6.3c1.2,1.6,2.5,3.2,3.7,4.7
			c-0.4,0.6-0.5,1.5-0.2,2.3c1.2,4.4,4.3,8.2,6.9,11.9c2.5,3.6,5.2,7.1,8,10.5c6.1,7.5,12.8,14.5,20,20.9c14.1,12.6,30,23,47.2,30.9
			c3.1,1.4,7.8-1.8,5.3-5.3c-21.3-29-47.6-55-78.9-73c-2.1-2.9-4.3-5.6-6.6-8.3c29,14,60.9,21.6,93.2,22.6
			C632.9,588.1,633.6,583.5,631,581.7z M572.8,511.2c3.5,0.2,5-5.1,1.8-6.6c-20.1-10-41.8-16.6-64.1-19.1c-3.8-0.4-7.7-0.8-11.6-1h0
			c-5.3,6.2-10.7,12.2-16.3,18.2c8.5,1.2,17.1,2.4,25.7,3.4C529.7,508.5,551.2,510.2,572.8,511.2z M534.5,469.6
			c-5.8-2.9-11.7-5.2-17.9-7c-4,5.2-8,10.3-12.2,15.3c-0.5,0.6-1,1.2-1.5,1.8c10.3-0.8,20.5-2,30.8-3.4
			C536.7,475.8,537.1,470.9,534.5,469.6z M457.2,528.5c-4.3,4.1-8.6,8.2-13,12.2c5.5,6.9,11.5,13.4,17.9,19.7c2.5,2.4,7.3,0,6-3.5
			C464.7,547.4,461.3,537.8,457.2,528.5z"/>
		<path class="st2" d="M1007.8,408.3c-0.3-0.4-0.6-0.9-0.9-1.4c-15.7-9-31.3-17.9-47-26.9h0c-0.7-0.4-1.5-0.9-2.2-1.3
			c-2.4-1.4-4.9-2.8-7.3-4.2h0c-0.8-0.5-1.6-0.9-2.4-1.4c-1.7-1-3.4-2-5.1-2.9c-0.1-0.1-0.3-0.2-0.4-0.2c-1.6-0.9-3.1-1.8-4.7-2.7
			c-8.1-4.7-16.4-9.8-24.8-14.6c-2.2,5.9,0.2,12.7,5.2,16.8c-1.4,2-1.9,4.6-1.4,7.2c1,4.8,5.4,8,9.4,10.2c4.4,2.4,9,4,13.8,4.7
			c-7.5,3.4-13.8,9.7-16,17.8c-1.4,5-1.9,10.6-1.5,15.8c0.3,4.2,2.1,8,5.7,10.3c8.6,5.6,17.8,1,24.8-4.9c1.4,1.4,3.3,2.4,5.4,2.6
			c4.3,0.4,8-2.2,10.6-5.3c2.4-2.7,4.9-7.4,7.9-11.3c0.4,0,0.9-0.2,1.2-0.6c4-6.3,12.7,1.5,16.9,3.4c4,1.8,8.8,2.1,12.5-0.5
			c1.7-1.2,2.9-2.9,3.3-4.9C1011.2,411.6,1009.2,410.2,1007.8,408.3z"/>
		<path class="st2" d="M1125.1,641.3c-8.1,0.9-16.3,1.3-24.4,1.3c-13-0.1-26-1.5-38.7-4c-1.9,1.7-3.8,3.5-5.4,5.5
			c-3.7,4.4-6.4,9.3-8.5,14.5c0.6-7.6,3.5-15.1,8.4-21c0,0,0.1-0.1,0.1-0.1c-4.2-0.9-8.4-2-12.6-3.2c-1.8-0.5-3.5-1-5.3-1.6
			c-3.7-1.2-7.4-2.4-11.1-3.8c-1.6-0.6-3.2-1.2-4.8-1.8c-3.7-1.5-7.3-3-11-4.7c-1.3-0.6-2.5-1.2-3.8-1.8c-5.4-2.6-10.6-5.4-15.7-8.4
			c0,1.1,0,2.2,0.1,3.4c-0.8,9,0.3,18.2,2.9,26.9c-1.8-1.1-3.7-2.2-5.7-3.1c-8.7-4.3-19.1-6.4-28.1-1.7c-6.9,3.6-11.5,9.9-12,17.5
			c-8.4,4.7-17,11.3-16.3,21.9c0.4,5.4,3.8,9.9,8.4,11.8c-1.2,6.6,3.6,14.3,10.7,16.4c13.5,4.1,26.4-5.3,37.7-11.2
			c5.8-3,11.5-5.1,17.9-4.9c-0.5,0.4-1.1,0.8-1.6,1.2c-7.7,6.2-13.4,15.4-15.5,25.1c-2,9,0.4,20,10.1,23.6c7.4,2.7,13.5-1.4,18-6.8
			c4.3,6.6,11.7,10.9,19.8,10.5c8.9-0.4,16.2-6.2,19.6-14c5.7,1.8,12.4,0.1,16.7-4.6c7-7.6,4.7-19.4-1.1-26.9
			c-3.3-4.3-7.5-7.2-12.1-9.6c6-2.3,11.7-5.4,18.1-6.8c7.7-1.6,15.9-1.4,23.6,0.8c2.7,0.8,5.7,1.9,8.8,2.9
			c2.9-5.2,5.8-10.4,8.5-15.7c3.4-6.6,6.6-13.3,9.7-20C1132.4,644.7,1128.9,640.8,1125.1,641.3z"/>
		<path class="st2" d="M683.9,759.8c5.6-6.5,5.3-16.3-3.2-21.5c-5.1-3.1-11.3-3.2-16.7-0.7c-3.6,1.7-6.4,4.1-10.7,4.4
			c-3.9,0.3-7.6-0.4-11.5,0.2c-13.1,1.7-24.4,10.1-30.8,20.7c-2.7,4.6-4.5,9.4-5.6,14.4c-0.8-6.9,0.6-14.1,4.3-20.1
			c4.8-7.9,12.9-13.7,15.6-22.7c2.6-8.6-0.6-17.9-10-21.4c-5.1-1.9-10.2-1.5-14.8,0.2c-1.5-5.4-6.3-10.1-12.7-10.9
			c-6.7-0.8-12,1.3-15.9,4.9c0.9,10,2.1,19.9,3.6,29.8c0.7,4.4,1.4,8.8,2.3,13.1c1.9,10,4.1,19.9,6.5,29.7c0.3,1.3,0.6,2.6,1,3.9
			c6.1,23.8,13.6,47.2,21.9,70.3c0,0,0,0,0,0c1.7,0,3.3-0.2,5-0.5c8.5-1.9,14.5-8.3,16.3-15.8c5.8,0.7,11.9-2,15.2-7
			c5.4-7.9,1-18.1-6-23.8c-3.9-3.2-8.5-5.1-13.4-6.5c5.4-3,10.3-6.8,16.2-9.1c7.1-2.8,15.1-4,22.8-3.3c10.7,0.9,26.6,5.6,32.6-6.5
			C700.6,771.9,692.5,764.4,683.9,759.8z"/>
		<path class="st2" d="M921.4,750.5c-31.4,17.6-60.5,40.4-82.2,69.3c-3.1,1.7-6.1,3.6-9,5.5c17.5-27.1,29-57.8,33.9-89.7
			c0.5-3.5-3.9-4.8-6-2.5c-14.1,15.7-25.8,33.6-34.4,52.9c-4.3,9.6-7.9,19.6-10.6,29.8c-2.1,7.6-4.2,16.4-4.4,24.6
			c-7.5,5.7-14.7,11.8-21.7,18.1c14.7-32.8,26.7-66.8,35.9-101.6c1-3.6-3.5-7-6.1-3.5c-25.8,34-44.3,77.2-45.3,120.4
			c-5.6,5.9-11,11.9-16.2,18.2c1.6-5.3,3.1-10.6,4.6-15.9c2.8-10.1,5.5-20.3,8-30.5c5.1-21,9.5-42.1,13.2-63.4
			c0.6-3.4-4.4-5.5-6.4-2.6c-12.4,18.7-21.7,39.4-26.9,61.2c-5.1,21-7.5,44-3.6,65.4c-4.5,6.1-8.7,12.4-12.8,18.8
			c7.5-35.6,10.9-71.9,10.2-108.3c-0.1-3.1-4.9-4.1-6.5-1.7c-11.2,16.6-16.7,36-18.1,55.8c-1.5,21.5,0.5,44,5.2,65.1
			c0,0.2,0.1,0.4,0.1,0.6c0.2,0.7,0.3,1.5,0.5,2.2c0.1,0.2,0.1,0.5,0.2,0.7c-0.4,0.7-0.7,1.3-1.1,2c-0.1,0.2-0.2,0.3-0.3,0.5
			c5.6-2.6,11.1-5.2,16.7-7.6c7.8-3.3,15.8-6.4,23.7-9.4c10.8-4,21.7-7.8,32.6-11.4c7.4-4.6,14.6-9.7,21.5-15.2
			c2.7-2.1,0.9-7.2-2.8-6.4c-17.2,3.8-34.7,7.8-50.7,15.4c-6.7,3.2-13.2,7.1-19.1,11.6c4.8-6.9,9.9-13.7,15.2-20.2
			c14.4-3.9,28.8-7.7,42.9-12.6c13.3-4.6,26.4-10.3,37.2-19.6c2-1.8,1.6-6.3-1.8-6.3c-14.5,0.1-28.8,2.6-42.4,7.9
			c-5.1,2-10,4.4-14.8,7.1c7.8-7.8,16-15.2,24.5-22.2c10.6-4.6,24-3.2,35.1-4.6c14.6-1.8,28.9-6,42.2-12.4c3.3-1.5,2.7-6.5-1-7
			c-13.1-1.8-26.4-1.6-39.4,0.9c-2.2,0.4-4.3,0.9-6.5,1.4c1.7-1,3.4-2.1,5.2-3.1c0.6,0.4,1.4,0.6,2.3,0.5c4.5-0.6,8.7-3.2,12.7-5.4
			c3.9-2.1,7.7-4.3,11.4-6.6c8.2-5.1,15.9-10.9,23.2-17.2c14.2-12.4,26.6-26.9,36.5-43C927.8,753.5,925.1,748.4,921.4,750.5z
			 M700.3,874.2c-1.2-3.4-6.6-2.5-6.9,1c-2.4,25.4-1.9,51.3,2.9,76.3c5.4-1.4,10.6-3.3,15.8-5.5c0.2-7.2-0.1-14.4-0.7-21.6
			C709.9,907.2,706.1,890.4,700.3,874.2z"/>
		<path class="st2" d="M945.6,575.2c-0.6-0.7-1.3-1.4-1.9-2c-2.7-2.9-5.4-5.9-8-8.9c-0.4-0.5-0.9-1-1.3-1.5
			c-7.7,3.9-15.2,8.1-22.7,12.5c-2.7,1.6-1.2,6.2,1.7,6.5c12,1,23.9-0.3,35.3-3.3C947.7,577.3,946.6,576.2,945.6,575.2z
			 M921.9,546.6c-0.7-1-1.5-2.1-2.2-3.1c-0.5-0.8-1-1.5-1.6-2.3c0.5-0.4,0.9-0.9,1.4-1.3c0.3-0.3,0.7-0.6,1-0.9
			c-19.7,5.5-39.1,11.7-58.3,18.5c-3.3,1.2-2.7,6.6,0.9,6.8c22.4,1.7,45-0.3,66.6-6.4c0.2-0.1,0.4-0.1,0.6-0.2
			C927.4,554.1,924.6,550.4,921.9,546.6z M942.8,488.8c-10.5-9.4-21.9-18.1-35.3-22.9c-2.6-0.9-6.3,1.7-4.7,4.6
			c7.1,12.7,16.4,23.9,27.6,33.1c4.2,3.5,8.7,6.6,13.4,9.4c-10.6-3-21.1-6.5-31.3-10.6c-9.2-7-14.5-19.3-21.2-28.4
			c-8.7-11.9-19.4-22.2-31.4-30.8c-3-2.1-7,0.8-5.6,4.3c4.8,12.3,11.5,23.8,20,33.9c1.4,1.7,2.9,3.3,4.4,5c-1.7-1-3.5-2-5.2-3
			c0.1-0.7-0.1-1.5-0.7-2.3c-2.8-3.7-7.1-6-10.9-8.5c-3.7-2.4-7.5-4.6-11.3-6.7c-8.5-4.6-17.3-8.6-26.4-11.9
			c-17.8-6.4-36.5-10.1-55.3-10.9c-3.4-0.1-6.6,4.6-2.9,6.9c30.7,18.9,64.8,33.1,100.6,38c3,1.9,6.1,3.6,9.2,5.2
			c-32.2-2-64.6,2.9-94.9,14.2c-3.4,1.3-2.3,5.8,0.8,6.5c20.6,4.7,41.9,6.1,62.9,4.3c10.5-0.9,20.9-2.7,31.2-5.2
			c7.6-1.9,16.3-4.3,23.6-8.1c8.6,3.8,17.4,7.1,26.4,10.1c-35.8,3.2-71.3,9.3-106.2,18.3c-3.6,0.9-4.4,6.5-0.1,7.1
			c37,5.2,77.5,2.1,112.6-12.4c2-1.9,4-3.8,5.9-5.7c1.2-1.1,2.4-2.3,3.6-3.5c4.7-4.6,9.4-9.3,14-13.9c0.5-0.5,1.1-1.1,1.6-1.6
			c0.1-0.1,0.3-0.3,0.4-0.4C952.8,498.1,947.9,493.4,942.8,488.8z M946.3,470.2c-3.2-1.3-6.7,2.7-4.3,5.5c6.7,7.5,13.4,15,20.7,22
			c1.5-1.6,3-3.1,4.5-4.7c2.5-2.6,5-5.2,7.4-7.8c0.2-0.2,0.4-0.5,0.6-0.7C966.1,479.1,956.3,474.3,946.3,470.2z"/>
		<g>
			<path class="st2" d="M854.9,684.2c-2-5.4-6.3-9.1-11.3-11.7c2.3-3,2.7-7.3,0.2-10.8c-2.9-4.2-7.5-5.3-12-4.6
				c0.2-1.7-0.2-3.5-1.6-5.1c-3.5-4-9.1-1.4-12.6,1.1c-2.9,2-5.3,4.4-7.3,7.1c0-1.4-0.1-2.8-0.2-4.2c-0.6-7.6-2.2-17.2-7.8-22.9
				c-2.8-2.8-6.8-4.1-10.4-3.4c-1.1-5.1-5.9-9.1-11.9-8.4c-8.1,0.9-12.2,8.7-11,16c-2.2,0.5-4.2,2-5.4,4.1
				c-2.3,3.9-1.3,8.8,0.2,12.8c1.6,4.4,3.8,8.3,6.6,11.7c-7.3-2.3-15.5-1.8-22,2.4c-4,2.6-7.8,6.2-10.7,9.9
				c-2.4,3.1-3.4,6.8-2.4,10.6c2.5,9.2,11.6,11.7,20,11.9c0.1,1.8,0.8,3.6,2.1,5.1c2.7,2.9,6.8,3.4,10.5,2.9
				c3.3-0.4,7.9-2.1,12.4-2.9c0.3,0.3,0.7,0.4,1.2,0.3c6.6-1.9,7.8,8.8,9.5,12.8c1.6,3.7,4.7,6.9,8.9,7.3c1.9,0.2,3.8-0.2,5.3-1.3
				c2-1.5,1.4-3.6,1.7-5.8c0.3-2.5,1-5.1,2-7.5c1-2.4,2.7-4.3,3.7-6.6c3.6-0.9,7.3-1.5,11.3-1.4c8.6,0.2,17.9,3.9,25.8-1.2
				C855.8,698.4,857.3,690.6,854.9,684.2z"/>
			<path class="st7" d="M799.5,689c-3.5-7.7-7.1-15.1-9.3-23.4c-2.1-8.2-3.2-16.5-3.2-25c0-1.9-3-1.8-3,0.1
				c-0.2,16.7,3.2,35.8,12.5,50C797.8,692.6,800.3,690.9,799.5,689z"/>
			<path class="st7" d="M780,643.6c-2-0.8-3.7,2.2-1.6,3C780.4,647.3,782.1,644.4,780,643.6z"/>
			<path class="st7" d="M784,634.7c-1.9-0.8-3.4,2-1.5,2.8C784.3,638.2,785.9,635.5,784,634.7z"/>
			<path class="st7" d="M790.6,634.5c0-0.1-0.1-0.1-0.1-0.2c-0.3-0.6-1.1-0.9-1.8-0.7l-0.2,0.1c-1.7,0.5-1.8,3-0.1,3.6
				C789.9,637.8,791.5,636,790.6,634.5z"/>
			<path class="st7" d="M792.1,640l-0.4-0.1c-0.5-0.2-1-0.3-1.5-0.2c-0.5,0.1-1,0.5-1.2,1c-0.4,0.9-0.3,2.3,0.8,2.7l0.4,0.1
				c0.5,0.2,1,0.3,1.5,0.2c0.5-0.1,1-0.5,1.2-1C793.3,641.9,793.1,640.4,792.1,640z"/>
			<path class="st7" d="M793.2,646.7c-2.5-1-4.5,2.7-2,3.7C793.7,651.4,795.7,647.7,793.2,646.7z"/>
			<path class="st7" d="M816.7,691.6c-4.2,0.4-7.7,2.1-10.4,5c0-0.6,0-1.1,0.1-1.7c0.2-1.4-1.2-2.7-2.6-1.9c-3.4,2-5.8,4.9-7.1,8.4
				c-4-2.6-8.5-3.7-13.5-3.2c-1.8,0.2-1.7,2.9,0.1,2.8c4.9-0.4,9.4,1,13.1,4.2c1,0.8,2.4,0.5,2.7-0.8c0.7-2.6,2-4.8,3.9-6.5
				c0.2,1.1,0.6,2.2,1.1,3.3c0.6,1.3,2.4,1,3-0.1c2.2-3.4,5.5-5.5,9.5-5.9C819.1,695,819,691.4,816.7,691.6z"/>
		</g>
		<g>
			<path class="st2" d="M720.7,474.6c1.1-2,1.3-4.4,0.6-6.8c-1.4-4.3-5.7-6.8-9.6-8.4c-4.3-1.8-8.7-2.7-13.1-2.9
				c6.5-3.9,11.7-10.3,12.9-17.9c0.7-4.7,0.6-9.9-0.2-14.6c-0.2-0.9-0.4-1.8-0.7-2.6c-1.5,0.7-2.9,1.3-4.4,1.9
				c-12.4,4.8-25.9,6.4-39.2,5.2c-1.4,2.6-2.9,5.9-4.7,8.8c-0.4,0-0.8,0.3-1,0.7c-3,6.2-11.8-0.1-15.9-1.5
				c-3.8-1.3-8.3-1.1-11.4,1.7c-1.4,1.3-2.4,2.9-2.6,4.8c-0.2,2.5,1.7,3.5,3.2,5.1c1.7,1.9,3.1,4.2,4.2,6.5c1.1,2.3,1.4,4.9,2.5,7.2
				c-1.7,3.3-3.8,6.4-6.5,9.3c-5.8,6.3-14.9,10.7-16.4,20c-1.1,7.1,3.7,13.4,10.1,15.9c5.4,2.1,11,1.3,16.2-0.6
				c0.7,3.7,3.6,6.8,7.9,7.4c5.1,0.6,8.9-2,11.4-5.8c1.1,1.3,2.7,2.2,4.9,2.3c5.4,0.1,7.1-5.8,7.6-10.1c0.4-3.5,0.2-6.9-0.4-10.1
				c1,0.9,2.1,1.8,3.2,2.7c6,4.7,14.3,9.9,22.2,9.5c4-0.2,7.6-2.3,9.4-5.5c4.6,2.6,10.7,1.7,14.2-3.2
				C729.9,486.9,726.8,478.7,720.7,474.6z"/>
			<path class="st7" d="M661.9,462.5c8.1,2.6,16,4.8,23.6,8.7c7.5,3.9,14.4,8.7,20.7,14.3c1.4,1.3,3.4-1,1.9-2.3
				c-12.3-11.3-28.8-21.5-45.6-24.1C660.4,458.9,659.9,461.9,661.9,462.5z"/>
			<path class="st7" d="M708.7,478.4c1.9-1,0.8-4.2-1.1-3.2C705.6,476.2,706.7,479.4,708.7,478.4z"/>
			<path class="st7" d="M712.7,487.3c1.8-0.9,0.8-3.9-1.1-3C709.8,485.2,710.8,488.2,712.7,487.3z"/>
			<path class="st7" d="M708.4,492.4c0.1,0,0.2,0,0.2,0c0.7,0.1,1.4-0.2,1.7-0.9l0.1-0.2c0.8-1.6-1-3.3-2.6-2.5
				C706.3,489.6,706.7,492,708.4,492.4z"/>
			<path class="st7" d="M703.3,489.7l0.4-0.2c0.5-0.2,0.9-0.5,1.1-1c0.2-0.4,0.3-1.1,0.1-1.5c-0.4-0.9-1.5-1.7-2.6-1.2l-0.4,0.2
				c-0.5,0.2-0.9,0.5-1.1,1c-0.2,0.4-0.3,1.1-0.1,1.5C701.1,489.4,702.3,490.2,703.3,489.7z"/>
			<path class="st7" d="M697.6,486.1c2.4-1.2,1-5.2-1.4-4C693.8,483.3,695.1,487.3,697.6,486.1z"/>
			<path class="st7" d="M648.5,473.6c2.5-3.4,3.5-7.1,3.2-11.1c0.4,0.3,0.9,0.7,1.2,1.2c0.9,1.1,2.8,0.9,3.1-0.7
				c0.7-3.9,0.2-7.5-1.5-10.9c4.6-1.3,8.5-3.9,11.4-7.9c1-1.4-1-3.2-2.1-1.8c-3,3.9-7,6.3-11.9,7c-1.2,0.2-1.9,1.5-1.2,2.5
				c1.5,2.3,2.2,4.7,2.2,7.3c-0.9-0.6-2-1-3.2-1.3c-1.4-0.4-2.3,1.1-2,2.3c1.1,3.9,0.4,7.8-2,11
				C644.4,473.1,647.1,475.4,648.5,473.6z"/>
		</g>
		<path class="st7" d="M1038.2,670.8c-15.8-9.5-34.3-13-52.2-8.4c-2.9,0.7-2.1,5.2,0.9,4.6c16.7-3.1,34-0.9,48.8,7.5
			C1038.1,675.8,1040.6,672.3,1038.2,670.8z"/>
		<path class="st7" d="M977,668.7c-3,0.2-3.4,4.8-0.3,4.7C979.6,673.3,980,668.6,977,668.7z"/>
		<path class="st7" d="M983.5,652.9c-1.4,0.1-2.7,1.5-2.3,3c0.1,0.2,0.1,0.5,0.2,0.7c0.3,1.1,1.3,1.9,2.5,1.9c1.2-0.1,2-1,2.2-2.2
			c0-0.3,0.1-0.5,0.1-0.8C986.4,654,984.9,652.8,983.5,652.9z"/>
		<path class="st7" d="M985.6,672c-3.2,0.2-3.6,5.2-0.4,5C988.4,676.8,988.8,671.8,985.6,672z"/>
		<path class="st7" d="M998.6,670.7c-3,0.2-3.4,4.8-0.3,4.7C1001.3,675.2,1001.6,670.5,998.6,670.7z"/>
		<path class="st7" d="M1002.2,651.3c-3,0.2-3.4,4.8-0.3,4.7C1004.9,655.8,1005.3,651.1,1002.2,651.3z"/>
		<path class="st7" d="M1109.2,651.7c-19.2-2.7-38.6,3.7-52.6,17c-2,1.9,0.8,5.3,2.9,3.3c13.3-12.6,31.3-18.2,49.4-15.7
			C1111.9,656.8,1112.2,652.1,1109.2,651.7z"/>
		<path class="st7" d="M1030.1,651.4c-4.8-7.3-7.2-15.9-7.2-24.5c1.6,0.6,3.2,1.2,4.8,1.8c0.1,7.2,2.1,14.4,6.1,20.8
			C1035.2,651.9,1031.5,653.6,1030.1,651.4z"/>
		<path class="st7" d="M1034.3,689.6c-6.7,8.2-9.8,19-6.9,29.3c1,3.4,6.1,2.5,5.5-1.1c-1.5-9.2-0.4-17.9,5-25.7
			C1039.5,689.8,1036,687.5,1034.3,689.6z"/>
		<path class="st7" d="M594,772.1c-1-2.5-4.9-0.8-3.8,1.6c4.2,9.4,5.9,19.3,5,29.5c-0.2,2.2,3.1,2.6,3.4,0.4
			C599.7,792.8,598.2,782.1,594,772.1z"/>
		<path class="st7" d="M585.1,783.9c-0.1,0-0.1,0-0.2,0c-2.3,0-2.4-2.9-0.8-3.9c0.4-0.3,0.8-0.4,1.3-0.4
			C588.2,779.6,587.7,783.7,585.1,783.9z"/>
		<path class="st7" d="M583.9,764.8c-1.6,0-2.8,1.7-2.1,3.2c0.1,0.2,0.2,0.4,0.2,0.5c0.7,1.7,3.1,1.6,3.8,0c0.1-0.2,0.2-0.4,0.2-0.5
			C586.7,766.4,585.5,764.8,583.9,764.8z"/>
		<path class="st7" d="M587.4,756.8c-2.6,0-3.2,4.1-0.5,4.1C589.5,760.9,590,756.8,587.4,756.8z"/>
		<path class="st7" d="M596.9,763c-2.8,0-3.4,4.4-0.5,4.4C599.2,767.4,599.7,763,596.9,763z"/>
		<path class="st7" d="M602.2,816c-1.4-1.3-3.7,1-2.4,2.4c5,5,6.4,10.4,7.4,17.2c0.3,2.3,4,2.3,4.1-0.1
			C611.8,828.1,607.5,820.8,602.2,816z"/>
		<path class="st7" d="M639.1,774.8c-10.2,4.5-18.9,11.6-25.5,20.5c-1.4,1.9,1.5,4.1,2.9,2.2c6.4-8.4,14.6-14.7,24.2-18.9
			C643.2,777.5,641.6,773.7,639.1,774.8z"/>
		<path class="st7" d="M987.8,396.5c-12.9-3.9-25.5-9.8-36.5-17.6c-2.4-1.7-5.2,1.9-2.8,3.7c11.7,8.6,24.2,14.4,38.4,17.4
			C988.9,400.4,989.8,397.1,987.8,396.5z"/>
		<path class="st7" d="M938.3,373.3c-2.6,0-3.2,4.1-0.5,4.1C940.4,377.4,941,373.3,938.3,373.3z"/>
		<path class="st7" d="M959.9,380c-0.1,0-0.3,0-0.4,0c-1,0-1.6-0.6-1.8-1.3C958.4,379.2,959.2,379.6,959.9,380z"/>
		<path class="st7" d="M951.7,389.1c-2.8,0-3.4,4.4-0.5,4.4C954,393.5,954.5,389.1,951.7,389.1z"/>
		<path class="st7" d="M950.4,374.6c-0.2,0-0.3,0-0.5,0c-0.6,0-1.3-0.4-1.6-0.9c-0.1-0.1-0.2-0.3-0.3-0.4
			C948.8,373.7,949.6,374.1,950.4,374.6z"/>
		<path class="st7" d="M964.5,404.1c-11,0.6-20.6,7.8-24.3,18.2c-0.8,2.4,2.7,3.8,3.6,1.5c3.3-9.1,11.6-15.1,21.3-15.6
			C967.8,408.1,967.2,403.9,964.5,404.1z"/>
		<g>
			<path class="st1" d="M690.4,616.8c-5.6-10-11.1-20-17.3-29.7c-0.7-1.2-2.4-1-3.2-0.1c-15-0.5-7.6,36.4,0.2,41.8
				c1.6,1.1,3.5-0.6,3.5-2.2c-0.1-2.9-1.8-5.2-2.8-7.8c-0.3-0.8-0.6-1.6-0.9-2.4c3.7-1.5,7.7-3.1,10.9-5.5c1.6,3,3.2,6,4.8,9
				C687.2,623.1,692.2,620,690.4,616.8z M672.3,609.4c-1.3,0.7-2.6,1.5-3.8,2.4c-0.2-0.6-0.3-1.2-0.4-1.8c-0.8-4-3.5-18,2.4-19.6
				c2.5,5.4,5.2,10.6,7.9,15.9C676.2,607,674.2,608.4,672.3,609.4z"/>
			<path class="st1" d="M793.8,568.8c-5.6-10-11.1-20-17.3-29.7c-0.7-1.2-2.4-1-3.2-0.1c-15-0.5-7.6,36.4,0.2,41.8
				c1.6,1.1,3.5-0.6,3.5-2.2c-0.1-2.9-1.8-5.2-2.8-7.8c-0.3-0.8-0.6-1.6-0.9-2.4c3.7-1.5,7.7-3.1,10.9-5.5c1.6,3,3.2,6,4.8,9
				C790.6,575.2,795.6,572.1,793.8,568.8z M775.7,561.5c-1.3,0.7-2.6,1.5-3.8,2.4c-0.2-0.6-0.3-1.2-0.4-1.8c-0.8-4-3.5-18,2.4-19.6
				c2.5,5.4,5.2,10.6,7.9,15.9C779.6,559.1,777.6,560.4,775.7,561.5z"/>
			<path class="st1" d="M715.1,602.6c-4.1,1.1-8.1,3.2-12,5c-5.2-9.4-10.4-18.7-16.4-27.7c-1-1.4-3.6-0.4-2.9,1.3
				c4.6,10.9,10.1,21.2,15.5,31.6c0.5,1.1,2.2,1.7,3.3,1.2c4.9-2,10.2-3.6,14.7-6.3C720.4,606.1,718.3,601.8,715.1,602.6z"/>
			<path class="st1" d="M735.4,581.9c-1.3-6.1-7.8-17.6-15.4-16.4c-8.6-0.1-11.1,10-9.3,17.2c1.7,7,6.6,22.8,16.6,20.3
				C736,600.8,737,589,735.4,581.9z M728.1,594.6c-4,6.9-8.8-5.6-9.9-8.6c-1.4-3.7-4.1-12-0.8-15.3c1.9,1.5,4.2,1.8,6.1,3.3
				c1.7,1.4,3.1,3.3,4,5.3C729.6,583.6,730.7,590.1,728.1,594.6z"/>
			<path class="st1" d="M765.6,582.2c-1-5.2-5.7-10.7-8.4-15.2c-3.1-5.2-6.7-10.2-10.1-15.3c-1.3-1.8-3.8-0.1-2.9,1.8
				c2.7,5.5,5.2,11.1,8.2,16.5c0,0,0,0,0,0.1c-0.3,0-0.5,0.1-0.8,0.1c-3.2,1.1-5.9,2.9-8.6,4.8c-2.6-5.4-5.3-10.7-7.9-16.1
				c-0.8-1.8-3.6-0.4-3.1,1.4c1.8,6,3.7,11.8,6.3,17.5c2.4,5.2,4.7,11.2,8.2,15.8c1.7,2.3,6,0.8,4.8-2.2c-1.6-4.1-3.9-7.9-6-11.8
				c3-1.2,6-2.3,8.6-4.3c0.3-0.2,0.5-0.5,0.7-0.8c1.9,3.8,3.9,7.9,6.8,10.4C763.5,586.7,766.1,584.7,765.6,582.2z"/>
		</g>
	</g>
	<path class="st1" d="M902.9,310c-4.9-21.3-20.9-35.3-41.9-39.7c-4.2-0.9-8.4-1.2-12.5-1.1c-17.7-2.2-35.7,3.3-50.1,13.5
		c-16.3,11.5-27.5,29-32.1,48.3c-4.6,18.9-3.5,43.4,5.8,60.8c3.8,7.1,11.5,11.4,19.6,9.3c2.3-0.6,4.4-1.6,6.1-2.9
		c3.3,8.8,10.5,16.3,20.8,15c10.5-1.3,14.8-9,17.5-17.5c1.6,2.8,3.2,5.6,5,8.3c4.5,6.9,17.2,7,21.6-0.1c3.5-5.8,6.4-11.8,8.6-18
		c8.8,4.6,19.7,4.1,26.6-4.6c7.3-9.3,5.7-23.6,6.1-34.7C904.4,334.4,905.6,321.8,902.9,310z"/>
	<path class="st3" d="M440.3,475.1c-4.6-16.8-27.6-31.8-46-36c-55.8-12.6-109.9-1.5-132.7,10.8c-20.8,11.2-45.2,22.5-58.6,41.6
		c-14,19.9-13,46.7-14.1,69.6c-0.7,13.4-0.9,26.9,0.3,40.4c0.9,10.1,2.9,20.7,10,29c15.1,17.7,42.5,13.1,62,6.3
		c23.2-8.1,44.7-19.5,64.4-33.1c23.5-16.4,90.3-69.1,109.1-89.8c17.3-19.1-12.6-5.5,2.1-26.4c2.7,0.2,5.5-1.2,5.2-4.4
		c-0.1-0.8-0.2-1.7-0.4-2.5c0.6-0.9,1.3-1.9,1.9-2.8C444.6,476,441.9,474,440.3,475.1z"/>
	<path class="st1" d="M526.4,398.1c-36.1-16-76.4-5.5-107.5,16.8c-9.5,6.8-17.9,14.6-24.6,24.2c-7.4,10.6,5.7,47.7,6.5,49.8
		c7.2,17.3,21.3,37,42.2,36.8c14.3-0.2,23.5-9.6,29.4-21.3c6.9,5.5,14.8,9.7,23.5,12.4c6.4,2,11.9-2.8,13.9-8.4
		c0.8-2.2,1.5-4.4,2.1-6.6c1.2,1.8,2.4,3.6,3.7,5.4c5.8,8.7,17.7,6.3,21-3.1c2.2-6.4,3.7-13,4.4-19.7l2.1,2.9
		c4.6,6.4,15.9,8.2,19.8-0.3C578.9,452.8,560.1,413,526.4,398.1z"/>
	<path class="st7" d="M354,156.7c-1.7-3.6-4.5-6.7-6.4-10.2c-2.1-4-3.1-8.2-3.3-12.7c-0.2-4-5.7-3.8-6.1,0
		c-0.9,9.3,1.7,23.3,11.2,27.7C352.5,162.9,355.5,159.8,354,156.7z"/>
	<path class="st3" d="M319.8,103.3c-9.9-0.4-21.6,7.9-24.7,17.5c-0.7,2.1,1.8,4.6,3.8,2.9c3.2-2.8,6.1-6.1,9.7-8.4
		c3.8-2.4,8.1-3.7,12-5.8C323.2,108,323.3,103.4,319.8,103.3z"/>
	<path class="st3" d="M360.5,102.4c-3,0.5-4.1,5.4-0.8,6.4c3.7,1.1,7.7,2.5,11,4.6c3.3,2,5.6,5.3,8.3,7.9c1,1,3.1,0.1,3.1-1.3
		C382.6,109.4,370.3,100.9,360.5,102.4z"/>
	<path class="st3" d="M318.8,132.4c-0.8-1-2.1-1.9-3.4-1.9c-0.7-0.1-1.4,0-2,0.2c-0.7,0.1-1.3,0.4-1.8,0.9c-1,0.8-1.8,2.2-1.9,3.4
		c-0.1,1.3,0.2,2.8,1.1,3.8c0.8,1,2.1,1.9,3.4,1.9c0.7,0.1,1.4,0,2-0.2c0.7-0.1,1.3-0.4,1.8-0.9c1-0.8,1.8-2.2,1.9-3.4
		C320,134.9,319.7,133.5,318.8,132.4z"/>
	<path class="st3" d="M368,133.5c-0.8-1.8-2.6-2.9-4.5-2.9c-1.7,0-3.3,0.9-4.1,2.4c-0.4,0.8-0.6,1.6-0.6,2.5c0,1.1,0.4,2,1,2.9
		c0.1,0.2,0.3,0.4,0.4,0.6c1.5,2.2,5.4,2.2,6.9,0c0.1-0.2,0.3-0.4,0.4-0.6C368.4,136.9,368.7,135.1,368,133.5z"/>
	<path class="st5" d="M352.3,586.8c-22.6,20.2-45.5,40-69.8,58.2c-24,18-49,34.8-74.6,50.4c-15,9.2-30.4,17.9-46,26.1
		c-2.5,1.3-0.8,5.3,1.7,4c54.6-27.3,105.6-60.6,152.5-99.5c13.5-11.2,26.7-22.8,39.2-35.2C357.8,588.6,354.8,584.6,352.3,586.8z"/>
	<path class="st5" d="M468.4,888.5c-1-14.6-2.3-29.1-3.7-43.6c-0.2-2.4-3.7-1.7-3.6,0.5c0.3,13.4,0.6,26.7,1.3,40.1
		c0.7,13.5,1.8,27,1.7,40.5c-0.1,12-1.2,24.2-5.3,35.5c-3.9,10.9-10.3,19.5-18.5,27.6c-2.8,2.8,0.4,7,3.8,4.8
		c20.3-12.8,25.9-41.4,26.2-63.5C470.5,916.5,469.3,902.5,468.4,888.5z"/>
	<path class="st5" d="M339.2,886c-20.6,30.7-55.5,49.2-92.6,48.5c-2.3,0-2.8,3.3-0.4,3.6c38.2,4.9,78.7-14.8,98.1-48.2
		C346.3,886.4,341.5,882.5,339.2,886z"/>
	<path class="st5" d="M296,1373.2c-9.2,3.9-20.6-1.8-23.4-11.2c-0.6-2-3.9-1-3.5,1c2.4,13.1,16.9,20.6,29,15.2
		C301.3,1376.8,299.2,1371.9,296,1373.2z"/>
	<path class="st5" d="M607.3,1359c-6,3.7-11.2,6.6-18.5,6.6c-6.8,0-13.5-2.2-18.8-6.4c-1.6-1.3-4,1.1-2.5,2.6
		c10.9,11.1,32.6,13.8,43.8,1.2C613.6,1360.4,609.9,1357.4,607.3,1359z"/>
	<path class="st11" d="M396.3,818.8c-13.8,5.1-27,11.3-41,16c-14.2,4.8-28.7,8.9-43.3,12.3c-28.6,6.6-57.7,10.9-87,12.5
		c-2.5,0.1-1.9,3.9,0.6,3.9c30-0.7,59.8-4.2,88.9-11.2c13.9-3.3,27.7-7.3,41.2-11.9c14.2-4.8,29.2-9.8,42.5-17
		C401,821.8,399.3,817.7,396.3,818.8z"/>
	<path class="st6" d="M341.5,195.4c-8.7,4.5-18.8,4-26.9-1.4c-1.8-1.2-3.9,1.5-2.1,2.7c9.1,6.3,20.6,7.2,30.5,2.3
		C345.3,197.9,343.7,194.3,341.5,195.4z"/>
	<path class="st4" d="M420.9,619.3c-0.6,0.1-1.2,0.2-1.9,0.4c-1.8,0.4-3.1,1.8-3.1,3.7c0,0.8,0.2,1.6,0.8,2.2
		c0.7,0.8,1.5,1.2,2.5,1.4c0.6,0.1,1.2,0.2,1.9,0.4c1.1,0.2,2.2-0.2,3-0.8c1-0.7,1.5-2,1.5-3.3C425.5,620.9,423.4,618.8,420.9,619.3
		z"/>
	<path class="st4" d="M433.6,666.5c-5.8,0-7,9.1-1.1,9.1C438.2,675.6,439.4,666.5,433.6,666.5z"/>
	<path class="st4" d="M445.2,714.2c-1.4-1.3-3.5-1.5-5-0.3c-0.7,0.5-1.4,1.1-2.1,1.6c-2,1.5-2.1,4.5-0.3,6.3
		c1.8,1.7,4.7,1.6,6.3-0.4c0.5-0.7,1.1-1.4,1.6-2.1C446.7,717.7,446.6,715.6,445.2,714.2z"/>
	<path class="st7" d="M335.7,178.4c-4.6,1.1-9.2,0.5-13.3-2c-1.9-1.2-4.1,1.5-2.2,2.8c4.8,3.3,10.4,4.5,16,3.5
		C339.1,182.2,338.4,177.8,335.7,178.4z"/>
</g>
<g>
	<g>
		<path class="st2" d="M839.7,1598.8c-5.8,1.3-11.6,2.7-17.4,4.1c-0.2-3.7-0.3-7.4-0.3-11.2c0-3.7-5.8-3.7-5.9,0
			c-0.1,4.2,0,8.4,0.2,12.6c-6.5,1.6-13,3.2-19.6,4.8c-3.6,0.9-2.1,6.4,1.6,5.5c6.1-1.4,12.3-2.8,18.4-4.3c0.6,6.5,1.5,13,2.7,19.4
			c0.7,3.8,6.6,2.2,5.8-1.6c-1.2-6.4-2.1-12.8-2.6-19.2c6.2-1.5,12.4-2.9,18.5-4.5C845,1603.5,843.4,1598,839.7,1598.8z"/>
		<path class="st2" d="M885.4,1553.5c-3.7,2.3-7.5,4.2-11.5,5.7c-0.5-3.8-0.8-7.7-0.8-11.7c0-3.7-5.8-3.7-5.8,0
			c-0.1,4.5,0.2,9,0.8,13.4c-3,0.8-6.2,1.3-9.4,1.6c-3.8,0.3-3.8,6.2,0,5.9c3.5-0.3,7-0.8,10.4-1.6c0.8,3.6,1.8,7.1,3.1,10.6
			c1.3,3.5,7,2,5.7-1.6c-1.2-3.6-2.3-7.1-3-10.7c4.7-1.6,9.2-3.8,13.5-6.6C891.6,1556.5,888.6,1551.4,885.4,1553.5z"/>
		<path class="st2" d="M886.7,1618.9c-4.8,1.3-9.6,2.7-14.3,4.1c-0.6-3.3-1.1-6.5-1.7-9.8c-0.6-3.7-6.2-2.1-5.6,1.5
			c0.5,3.3,1.1,6.6,1.6,10c-3.6,1.1-7.2,2.2-10.8,3.3c-3.5,1.1-2.1,6.5,1.5,5.5c3.4-0.9,6.8-1.9,10.3-2.8c1,6.1,2,12.1,3.1,18.2
			c0.7,3.7,6.3,2.1,5.7-1.6c-1-6.1-2-12.2-3-18.3c5-1.4,9.9-2.9,14.9-4.4C891.9,1623.4,890.4,1617.8,886.7,1618.9z"/>
	</g>
	<g>
		<path class="st2" d="M1997.3,299c4.5-10.6-5.9-19.2-16.4-21.4c-2.8-0.6-5.6-0.8-8.3-0.6c-0.2-3.8-1.8-7.8-5.1-11.3
			c-4.2-4.6-10.9-7.2-17.6-8.1c1.4-5.6,0.8-11.5-3.3-17.1c-11.2-15.2-28.7-6-38.2,1.2c-2.6,1.9,1.6,6,4.1,4.1
			c6.8-5.1,19-13.4,28.4-4.1c4.9,4.8,5,10.5,3.1,15.7c-5.2,0.2-9.9,1.4-13.2,3.8c-3.8,2.7-7.2,8.4-3.9,13.7
			c3.1,4.9,8.5,3.6,11.5,0.8c3.5-3.2,7-7.6,9.4-12.5c2.2,0.2,4.5,0.6,6.6,1.1c5.4,1.3,10.4,4.1,12.2,9.8c0.4,1.4,0.6,2.7,0.5,3.9
			c-4.9,1.6-8.8,4.9-10.3,10.3c-0.5,2,1.8,3.9,3.6,3.6c5.6-0.9,9.5-4.4,11.2-8.9c10.2-1.9,24.3,3.7,20.6,12.8
			C1991,299,1996,302.1,1997.3,299z M1935,270.7c-0.4,0.4-1.4,1.8-2.1,1.8c-2.1,0-1.7-2.5-1.3-3.6c1.1-2.5,3.8-4.1,6.4-4.9
			c0.9-0.3,1.9-0.5,2.9-0.7C1939.1,266.3,1936.9,268.9,1935,270.7z"/>
		<path class="st2" d="M2014.5,362.7c-6.2-8.6-15.9-13-25.6-14.5c-0.1-0.4-0.2-0.8-0.3-1.2c-2-5.6-7.1-8.9-12.3-9.6
			c1.5-3.6,1-7.7-3.5-11.5c-7.9-6.6-20.5-5.1-27.7-1.4c-2.9,1.5,0.1,6.3,3,4.9c4.9-2.5,10.9-3.4,16.9-1.6c3.4,1,6.4,2.6,6.3,6.4
			c-0.1,1.4-0.6,2.6-1.5,3.7c-2.8,0.9-5.1,2.6-6.4,5.2c-1.1,2.1,1.8,5.4,4,4c1.6-1,3.4-2.4,4.9-4c4-1.2,9.3,0.3,11,4.7
			c-7,0.3-13.1,3.8-12.7,11.7c0.1,1.2,1.1,2.4,2.3,2.8c7.4,2.5,14.8-2,16.2-8.7c1.3,0.2,2.6,0.5,3.7,0.7c6.6,1.7,12.9,4.8,17.2,10.6
			C2012.1,368,2016.7,365.8,2014.5,362.7z M1976.3,357.6c0.9-2.8,3.5-3.9,6.7-4.2C1981.8,355.8,1979.2,357.5,1976.3,357.6z"/>
	</g>
	<g>
		<path class="st2" d="M1156.6,286.8c-1.1,0-2.2,0.4-3.2,1.4c-6.5,6.4-5.2,16.7,0.9,23c6.4,6.5,16.9,6,22.1-1.6
			c4.3-6.2,4.1-15.8-1.4-21.4C1170.3,283.3,1161.9,283,1156.6,286.8z M1163.7,305.5c1.6-0.1,3.2-0.6,4.5-1.7
			C1167.1,305.8,1165.4,306.1,1163.7,305.5z"/>
		<path class="st2" d="M1255.7,288c-1.2,1.8-2,3.7-2.4,5.6c-0.1,0.1-0.2,0.2-0.4,0.3c-4.1,3.9-4.3,10.2-1.1,14.7
			c3.4,4.9,10,6.1,15.2,3.2c5-2.8,7.8-8.6,6.6-14.2c-1.2-6-6.4-10.4-12.3-11.8C1259.1,285.1,1257,286.1,1255.7,288z"/>
		<path class="st2" d="M1137.1,145c-1.2,1.8-2,3.7-2.4,5.6c-0.1,0.1-0.2,0.2-0.4,0.3c-4.1,3.9-4.3,10.2-1.1,14.7
			c3.4,4.9,10,6.1,15.2,3.2c5-2.8,7.8-8.6,6.6-14.2c-1.2-6-6.4-10.4-12.3-11.8C1140.5,142.2,1138.4,143.1,1137.1,145z"/>
		<path class="st2" d="M1168.6,194.8c-0.4,2.9,1,5.1,3.1,6.7c0.4,0.4,0.8,0.8,1.3,1c0.7,0.3,1.4,0.5,2.1,0.7
			c3.4,1.2,7.7,1.4,9.8-1.9c0.8-1.2,1.1-2.4,1-3.5c2.2-4.4,1.2-11.1-4.4-12.4C1175.5,184.1,1169.3,189,1168.6,194.8z"/>
		<path class="st2" d="M1208.3,144.4c-0.4,2.9,1,5.1,3.1,6.7c0.4,0.4,0.8,0.8,1.3,1c0.7,0.3,1.4,0.5,2.1,0.7
			c3.4,1.2,7.7,1.4,9.8-1.9c0.8-1.2,1.1-2.4,1-3.5c2.2-4.4,1.2-11.1-4.4-12.4C1215.2,133.8,1209.1,138.6,1208.3,144.4z"/>
	</g>
	<g>
		<path class="st2" d="M77.1,1490.5c-2.1,8.8-4,17.6-6.1,26.4c-0.6,2.5-1.1,10.2-3.6,10.3c-0.8,0-3.4-3.1-4.2-3.9
			c-1.9-1.7-3.7-3.5-5.6-5.2c-1.7-1.6-4.3-0.4-4.8,1.7c-1.5,6.3-3,12.6-4.6,18.8c-2.1-4.4-4.2-8.9-6.8-12.8
			c-2.4-3.6-6.7-5.5-10.3-2.2c-4.2,3.8-5.6,12.8-6.7,18.1c-1.4,6.8-1.8,13.8-1.4,20.7c0.2,3.7,6,3.3,5.8-0.4
			c-0.5-8.9,0.5-17.8,3.1-26.3c0.3-0.8,1.2-5.4,2.3-6.2c3.2-2.2,4.5,3.8,5.5,5.8c2.2,4.4,4.4,8.8,6.6,13.1c1.3,2.5,5,2.6,5.7-0.4
			c1.8-7.3,3.5-14.5,5.3-21.8c5.2,5.3,13,12.3,16.6,3.8c2.3-5.5,2.9-12.2,4.3-18c1.6-6.8,3.1-13.5,4.7-20.3
			C83.8,1487.9,78,1486.8,77.1,1490.5z"/>
		<path class="st2" d="M140.8,1478.3c1.5,8.9,0.9,17.7-2.1,26c-2.9-3.6-6.4-6.5-10.6-8.9c-2-1.1-4.5,0.8-4.3,2.9
			c1.1,12.5,0.8,24.9-0.8,37.3c-3.2-3.7-6.3-7.4-9.5-11.2c-1.5-1.8-5-1.6-5.4,1.1c-1,7.5-2.1,15-3.1,22.5
			c-4.4-4.3-8.9-8.6-13.3-12.9c-1.6-1.5-4.5-0.4-4.8,1.7c-2.3,14.8-4.6,29.7-6.9,44.5c-0.6,3.6,5.1,4.8,5.7,1.1
			c2-13,4.1-26,6.1-38.9c4.5,4.3,8.9,8.7,13.4,13c1.6,1.5,4.5,0.4,4.8-1.7c1-7.3,2-14.5,3-21.8c3.2,3.7,6.3,7.4,9.5,11.1
			c1.6,1.8,4.9,1.6,5.4-1.1c2.2-12.9,3-25.9,2.3-39c2.7,2.3,4.9,5,6.7,8.2c1.1,2,4.3,1.5,5.1-0.4c5.1-10.7,6.7-22.3,4.6-33.9
			C146,1474.2,140.2,1474.6,140.8,1478.3z"/>
	</g>
	<path class="st2" d="M1170.1,659.9c-0.3-1.6-2.4-2.2-3.4-0.9c-3.5,4.7-4.4,10.9-6.7,16.2c-2.5,5.7-5.4,11.1-8.9,16.3
		c-3.3,5-7.1,9.7-11.3,14c-4.2,4.4-9.7,8.2-13.3,13c-2.1,2.8,0.9,6.6,4.2,5.3c5.6-2.3,10.8-7.7,14.8-12.1c4.6-5,8.6-10.5,12.1-16.3
		c3.4-5.6,6.4-11.5,8.7-17.6C1168.3,672.4,1171.2,665.8,1170.1,659.9z"/>
	<path class="st2" d="M1202.4,667.5c-0.2-1.9-0.9-2.7-1.4-4.5c-0.5-2.1-3.9-2.4-4.1,0c-0.3,2.9-1.1,6.2-1.6,9.2
		c-0.6,3-1.3,6-2.3,8.9c-2,6-5.5,10.9-9.2,16.1c-2.1,3,1.7,7.2,4.8,4.7c5.7-4.8,9.5-11.6,11.8-18.5c1.1-3.3,1.8-6.7,2-10.2
		C1202.5,671.2,1202.6,669.3,1202.4,667.5z"/>
</g>
</svg>
