<?xml version="1.0" encoding="utf-8"?>
<!-- Generator: Adobe Illustrator 18.1.1, SVG Export Plug-In . SVG Version: 6.00 Build 0)  -->
<svg version="1.1" id="Слой_1" xmlns="http://www.w3.org/2000/svg" xmlns:xlink="http://www.w3.org/1999/xlink" x="0px" y="0px"
	 viewBox="0 0 31.7 31.7" style="enable-background:new 0 0 31.7 31.7;" xml:space="preserve">
<style type="text/css">
	.st0{fill-rule:evenodd;clip-rule:evenodd;fill:#100F10;stroke:#201600;stroke-width:0.5669;stroke-miterlimit:22.9256;}
	.st1{fill:#E9ECEB;}
	.st2{fill:#E2E2E2;}
	.st3{fill-rule:evenodd;clip-rule:evenodd;fill:#FFFFFF;}
	.st4{fill:#FFFFFF;}
	.st5{fill:#FFFEFF;}
	.st6{fill:#ECECEC;}
	.st7{fill-rule:evenodd;clip-rule:evenodd;fill:#E61C21;}
	.st8{fill-rule:evenodd;clip-rule:evenodd;fill:#E2E2E2;}
	.st9{fill:#F3444E;}
	.st10{fill-rule:evenodd;clip-rule:evenodd;fill:#F3444E;}
	.st11{fill:#DC7D43;}
	.st12{fill:#201600;}
	.st13{fill:#D24A43;}
	.st14{fill:#B6B8BD;}
	.st15{fill-rule:evenodd;clip-rule:evenodd;fill:#FFFEFF;}
	.st16{fill:#E62A13;}
	.st17{fill-rule:evenodd;clip-rule:evenodd;fill:#E62A13;}
	.st18{fill:#F1444C;}
	.st19{fill-rule:evenodd;clip-rule:evenodd;fill:#FF0000;}
	.st20{fill-rule:evenodd;clip-rule:evenodd;fill:#5C768B;}
	.st21{fill:none;stroke:#D24A43;stroke-width:1.4173;stroke-miterlimit:22.9256;}
	.st22{fill-rule:evenodd;clip-rule:evenodd;fill:#D24A43;}
	.st23{fill-rule:evenodd;clip-rule:evenodd;fill:#E8444C;}
	.st24{fill:none;stroke:#C6C6C6;stroke-width:1.0001;stroke-miterlimit:22.9256;}
	.st25{fill:#E61C21;}
	.st26{fill-rule:evenodd;clip-rule:evenodd;fill:#E41C22;}
	.st27{fill:none;stroke:#F1444C;stroke-miterlimit:10;}
	.st28{fill:none;stroke:#F1444C;stroke-width:2.1099;stroke-miterlimit:10;}
	.st29{fill:none;stroke:#F1444C;stroke-width:5.6693;stroke-miterlimit:10;}
	.st30{fill:none;stroke:#F1444C;stroke-width:2.8347;stroke-miterlimit:10;}
	.st31{fill:none;stroke:#F1444C;stroke-width:1.9345;stroke-miterlimit:10;}
	.st32{fill:none;stroke:#F1444C;stroke-width:1.3761;stroke-miterlimit:10;}
	.st33{fill:none;stroke:#F1444C;stroke-width:2.6283;stroke-miterlimit:10;}
	.st34{fill:none;stroke:#F1444C;stroke-width:3.536;stroke-miterlimit:10;}
	.st35{fill:none;stroke:#F1444C;stroke-width:3.3797;stroke-miterlimit:10;}
	.st36{fill:none;stroke:#F1444C;stroke-width:2.9335;stroke-miterlimit:10;}
	.st37{fill:none;stroke:#F1444C;stroke-width:1.275;stroke-miterlimit:10;}
	.st38{fill:none;stroke:#F1444C;stroke-width:1.0997;stroke-miterlimit:10;}
	.st39{fill:none;stroke:#F1444C;stroke-width:1.9238;stroke-miterlimit:10;}
</style>
<g>
	<g>
		<path class="st16" d="M25.9,12.7H19c-0.2,0-0.4-0.1-0.6-0.3c-0.1-0.2-0.2-0.4-0.2-0.6l0.3-2.1h-3.9c-0.4,0-0.7-0.3-0.7-0.7
			c0-0.4,0.3-0.7,0.7-0.7h4.8c0.2,0,0.4,0.1,0.6,0.3c0.1,0.2,0.2,0.4,0.2,0.6l-0.3,2.1h5.3c-0.1-0.8-0.4-2.1-1.3-3.1
			c-0.9-1-2.3-1.5-4.2-1.5h-4.1c-0.4,0-0.7-0.3-0.7-0.7c0-0.4,0.3-0.7,0.7-0.7h4.1c2.3,0,4,0.7,5.3,2c1.9,2,1.8,4.7,1.8,4.9
			C26.7,12.4,26.3,12.7,25.9,12.7z"/>
		<path class="st16" d="M14.4,17.7c0,0.4-0.3,0.8-0.8,0.8s-0.8-0.3-0.8-0.8c0-0.4,0.3-0.8,0.8-0.8S14.4,17.3,14.4,17.7L14.4,17.7z"
			/>
		<path class="st16" d="M16.9,17.7c0,0.4-0.3,0.8-0.8,0.8c-0.4,0-0.8-0.3-0.8-0.8c0-0.4,0.3-0.8,0.8-0.8
			C16.5,16.9,16.9,17.3,16.9,17.7L16.9,17.7z"/>
		<path class="st16" d="M19.3,17.7c0,0.4-0.3,0.8-0.8,0.8c-0.4,0-0.8-0.3-0.8-0.8c0-0.4,0.3-0.8,0.8-0.8
			C19,16.9,19.3,17.3,19.3,17.7L19.3,17.7z"/>
		<path class="st16" d="M14.4,20.2c0,0.4-0.3,0.8-0.8,0.8s-0.8-0.3-0.8-0.8c0-0.4,0.3-0.8,0.8-0.8S14.4,19.8,14.4,20.2L14.4,20.2z"
			/>
		<path class="st16" d="M16.9,20.2c0,0.4-0.3,0.8-0.8,0.8c-0.4,0-0.8-0.3-0.8-0.8c0-0.4,0.3-0.8,0.8-0.8
			C16.5,19.5,16.9,19.8,16.9,20.2L16.9,20.2z"/>
		<path class="st16" d="M19.3,20.2c0,0.4-0.3,0.8-0.8,0.8c-0.4,0-0.8-0.3-0.8-0.8c0-0.4,0.3-0.8,0.8-0.8
			C19,19.5,19.3,19.8,19.3,20.2L19.3,20.2z"/>
		<path class="st16" d="M14.4,22.7c0,0.4-0.3,0.8-0.8,0.8s-0.8-0.3-0.8-0.8c0-0.4,0.3-0.8,0.8-0.8S14.4,22.3,14.4,22.7L14.4,22.7z"
			/>
		<path class="st16" d="M16.9,22.7c0,0.4-0.3,0.8-0.8,0.8c-0.4,0-0.8-0.3-0.8-0.8c0-0.4,0.3-0.8,0.8-0.8
			C16.5,22,16.9,22.3,16.9,22.7L16.9,22.7z"/>
		<path class="st16" d="M19.3,22.7c0,0.4-0.3,0.8-0.8,0.8c-0.4,0-0.8-0.3-0.8-0.8c0-0.4,0.3-0.8,0.8-0.8C19,22,19.3,22.3,19.3,22.7
			L19.3,22.7z"/>
		<path class="st16" d="M21.4,26.5H10.2c-2.9,0-5.2-2.3-5.2-5.2v-2.2c0-2.9,2.3-5.2,5.2-5.2h11.2c2.9,0,5.2,2.3,5.2,5.2v2.2
			C26.6,24.2,24.3,26.5,21.4,26.5z M10.2,15.4c-2,0-3.7,1.7-3.7,3.7v2.2c0,2,1.7,3.7,3.7,3.7h11.2c2,0,3.7-1.7,3.7-3.7v-2.2
			c0-2-1.7-3.7-3.7-3.7H10.2z M12.7,12.7H5.8C5.4,12.7,5,12.4,5,12c0-0.1-0.1-2.9,1.8-4.9c1.2-1.3,3-2,5.3-2h4.1
			c0.4,0,0.7,0.3,0.7,0.7c0,0.4-0.3,0.7-0.7,0.7H12c-1.8,0-3.2,0.5-4.2,1.5c-0.9,1-1.2,2.3-1.3,3.1h5.3l-0.3-2.1
			c0-0.2,0-0.4,0.2-0.6c0.1-0.2,0.3-0.3,0.6-0.3h3C15.7,8.3,16,8.6,16,9c0,0.4-0.3,0.7-0.7,0.7h-2.2l0.3,2.1c0,0.2,0,0.4-0.2,0.6
			C13.1,12.6,12.9,12.7,12.7,12.7z"/>
	</g>
</g>

</svg>
