<?xml version="1.0" encoding="utf-8"?>
<!-- Generator: Adobe Illustrator 23.0.3, SVG Export Plug-In . SVG Version: 6.00 Build 0)  -->
<svg version="1.1" id="Layer_1" xmlns="http://www.w3.org/2000/svg" xmlns:xlink="http://www.w3.org/1999/xlink" x="0px" y="0px"
	 viewBox="0 0 2187.5 1624.8" style="enable-background:new 0 0 2187.5 1624.8;" xml:space="preserve">
<style type="text/css">
	.st0{opacity:0.31;fill:#60884A;}
	.st1{fill:#FF894A;}
	.st2{fill:#B09F34;}
	.st3{fill:#2C2B3C;}
	.st4{fill:#4C794A;}
	.st5{fill:#60884A;}
	.st6{fill:#FF5C45;}
	.st7{fill:#3E3544;}
	.st8{fill:#EE393E;}
	.st9{fill:#FF404A;}
	.st10{fill:#FCB639;}
	.st11{fill:#FCBD79;}
	.st12{opacity:0.76;fill:#FCBD59;}
	.st13{fill:#FF473B;}
	.st14{fill:#FCBD59;}
	.st15{opacity:0.47;fill:#161A28;}
	.st16{fill:#4F4546;}
</style>
<ellipse class="st0" cx="1019.3" cy="1607.4" rx="171.7" ry="17.4"/>
<ellipse transform="matrix(5.995250e-02 -0.9982 0.9982 5.995250e-02 163.4865 3105.8088)" class="st0" cx="1730.7" cy="1466.1" rx="17.4" ry="171.7"/>
<ellipse class="st0" cx="320.5" cy="1464.1" rx="171.7" ry="17.4"/>
<g>
	<path class="st1" d="M640.4,1425.9c-4.1,0.3-8.6,2.6-12.4,3.9c-5.2,1.7-10.4,3.3-15.3,5.8c-0.1-0.2-0.3-0.4-0.4-0.7
		c-1.3-2.1-4.4-0.2-4.1,1.9c1.3,9,5.9,18,9.1,26.4c3.4,9.1,6.7,18.1,10.1,27.2c0.9,2.3,3.9,2.2,5.3,0.5c3.6-4.2,9.9-4.7,14.6-6.9
		c4.9-2.3,8.5-6.2,9.3-11.7c1.1-7.1-1.9-14.4-3.7-21.1c-2.2-8.2-4.4-16.4-6.7-24.6C645.6,1423.4,641.3,1423.5,640.4,1425.9z"/>
	<path class="st2" d="M696.6,1477.9c0.3,0.4,0.6,0.7,0.9,1.1c2.3,3,2.6,6.1,1.8,6.4l-62.7,22c-3.1,1.1-6.6-0.6-7.6-3.8l-1-3.1
		l-0.4-1.3l-2.8-8.9c-0.2-0.4-0.3-0.9-0.4-1.4c-2.9-12.8,5.6-14.3,5.6-14.3c3.6-1.2,6.8-0.9,9.4,0.2c2.7,1.1,5.8,1,8.4-0.3
		c2.3-1.2,4.8-2.8,7.1-4.9c6.4-6,9.2,5,26.5,3.7c0.2,0,0.5,0,0.7-0.1c0.2,0,0.5,0,0.7-0.1C689.6,1472.8,694,1475.2,696.6,1477.9z"/>
	<path class="st3" d="M696.6,1477.9c0.3,0.4,0.6,0.7,0.9,1.1c-1,0.4-2.1,0.8-3.1,1.1c-3.4,1.3-6.9,2.6-10.4,3.8
		c-0.1,0.2-0.4,0.3-0.6,0.2c-6.8,2.4-13.6,4.7-20.4,6.8c-7.1,2.2-14.2,4.2-21.3,6.1c-4.5,1.2-9,2.4-13.6,3.4l-0.4-1.3
		c4.6-1.1,9.2-2.2,13.8-3.4c7.3-1.9,14.6-4,21.9-6.3c6.5-2,13-4.2,19.4-6.5c-1.2-2.8-1.7-6.4-1.3-9.8c0.2,0,0.5,0,0.7-0.1
		c0.2,0,0.5,0,0.7-0.1c-0.1,0.3-0.1,0.6-0.2,0.9c-0.4,3,0,5.9,1.2,8.6c0.2,0,0.3-0.1,0.4-0.2c3.6-1.3,7.2-2.6,10.7-4
		C695.5,1478.4,696,1478.2,696.6,1477.9z"/>
	<path class="st3" d="M662.9,1459.7c-2.2,1.5-2,5-1.3,7.2c0.7,2.5,2.4,4.8,4.6,6.2c-0.1,0.1-0.1,0.1-0.2,0.2
		c-2.8-3.1-10.2-2.1-10.5,2.6c-0.2,2.9,3.1,2.6,5,2.1c1.9-0.6,3.7-1.5,5.2-2.8c-0.2,0.7-0.4,1.4-0.4,2c0,0.5,0.7,0.7,0.9,0.2
		c0.4-1.1,0.7-2.3,1.4-3.3c0.6-0.9,1.5-1.6,2-2.6c0.2-0.4-0.1-0.9-0.6-0.7c-0.5,0.2-0.9,0.5-1.3,0.9c-0.1,0-0.1,0-0.2,0
		c0-1.8,0-3.6,0-5.3c0-1.6,0.2-3.5-0.2-5.1C666.8,1459.3,664.7,1458.4,662.9,1459.7z M656.9,1475.5c0.4-1.9,3-2.8,4.7-2.8
		c1.4,0,2.6,0.6,3.7,1.3c-0.8,0.7-1.6,1.3-2.5,1.8C661.8,1476.3,656.3,1478.7,656.9,1475.5z M666.1,1461.2c0.2,0.7,0.3,1.4,0.3,2.1
		c0,1,0,2.1,0,3.1c0,1.8,0,3.6,0,5.5c-2.7-2.3-5.2-6.3-3.7-9.8C663.4,1460.2,664.5,1459.9,666.1,1461.2z"/>
	<path class="st3" d="M675.3,1471.7c-1.9,0.6-4.1,3.5-4.2,5.5c0,0.4,0.4,0.5,0.7,0.2c0.7-0.8,1.2-1.8,1.9-2.7
		c0.7-0.9,1.6-1.5,2.3-2.3C676.1,1472,675.7,1471.5,675.3,1471.7z"/>
	<path class="st1" d="M338.2,1384.7c-2.2-3.5-6.3-6.4-9.2-9.1c-4-3.7-7.8-7.7-12.3-10.8c0.1-0.2,0.3-0.4,0.4-0.7
		c1.2-2.1-1.8-4-3.6-2.7c-7.3,5.3-13.1,13.7-19.1,20.4c-6.4,7.2-12.8,14.5-19.2,21.7c-1.7,1.9-0.1,4.5,2,4.9c5.4,1.2,8.8,6.5,13,9.7
		c4.3,3.3,9.4,4.6,14.7,2.8c6.7-2.4,11.9-8.4,16.9-13.2c6.2-5.8,12.4-11.6,18.6-17.4C342.8,1388.1,340.6,1384.4,338.2,1384.7z"/>
	<path class="st4" d="M608.5,954.4c0.6-3.9-5.1-4.6-6-0.8c-0.2,0.9-0.4,1.7-0.6,2.6c-13.1-2.9-26-6-38.7-10.3
		c-6.5-2.2-12.9-4.6-19.3-7.2c-4.1-1.7-8.1-3.6-12.2-5.4c0.3-1.3,0.5-2.5,0.8-3.8c0.8-4.1-5.3-4.7-6.3-0.9c-0.2,0.7-0.4,1.4-0.5,2.2
		c-0.7-0.3-1.5-0.5-2.2-0.8c-2.4-0.8-4.8,2.4-2.4,4.1c1,0.7,2.1,1.4,3.2,2c-1.3,4.9-2.5,9.8-3.8,14.7c-5.6,21.6-11.4,43.2-18.4,64.5
		c-9.3,28.1-19.9,55.7-31.8,82.8c-1,2.4-2.1,4.7-3.1,7c-23,50.8-46.7,86.7-79.2,133.6c-19.1,27.6-74,88.8-95.7,114.5
		c-2,2.4,47.5,40,48.4,39.1c29.4-29.3,72.7-78.5,110.4-123.5c0.8-1,1.6-2,2.5-2.9c1.4-1.7,2.7-3.3,4.1-4.9c0.7-0.9,1.5-1.8,2.2-2.7
		c4.6-5.5,9-10.9,13.3-16.2c0.8-1,1.6-1.9,2.3-2.9c2.1-2.5,4.1-5,6.1-7.4l0,0c0.7-0.9,1.4-1.8,2.1-2.6c6.6-8.1,12.6-15.8,18.1-22.8
		c1.3-1.6,2.5-3.2,3.6-4.7c33.2-43,46-77.6,64.3-123.8c2.9-7.3,5.9-14.9,9.2-22.8c6.6-16.2,12.5-32.8,17.5-49.6
		c4.2-14.2,8.2-28.8,10.8-43.5c0.6-0.8,0.7-1.9,0.5-2.8C608.1,957.7,608.3,956,608.5,954.4z"/>
	<path class="st3" d="M483.6,1153.3c-33.1,60-73.3,116-119.6,166.5c-13.3,14.5-27.2,28.6-41.5,42.2c-1.6,1.5,0.5,4.2,2.1,2.7
		c50.4-47.9,95.1-101.8,132.7-160.4c10.4-16.2,20.2-32.8,29.5-49.6C487.9,1152.7,484.7,1151.4,483.6,1153.3z"/>
	<path class="st5" d="M662.6,1441.9l-58.8,17.9c0,0-58.6-136.7-101.9-253.3c-13.9-37.6-26.3-73.1-34.6-101.3
		c-5.6-19-9.3-34.6-10.5-45.4c-8.1-76.2,23.5-118.1,24.5-120.6l39.3,11.8l18.1,5.5l31,121.6l28.2,110.5l0.9,3.4l9.9,38.6l0.9,3.5
		L662.6,1441.9z"/>
	<path class="st6" d="M638.4,706.6c0-0.3-30.6-10.4-31.4-9.4c-15.6,18.1-2.1,120.2,23.1,154.2c-10.8-6.2-15.7-11.4-27.3-15.7
		c-1.1-0.4-2.2-0.8-3.3-1.2c-20.9-7.4-42.9-11.9-65-13c-1.2-0.1-2.3-0.1-3.5-0.1c-10.1-0.4-20.2,0-30.3,1c-8.1,0.8-16,2.3-23.7,4.8
		c23.6-20,58.5-46.6,73.2-103.1c0.6-2.2-18.7-4.8-36.1-4.6c-3.9,0-86.7,58.5-106.7,93c-10.5,18-14.8,40.6-9.1,61
		c5.1,18.1,19.3,33.8,37.5,39.4c15,4.6,31.6,1.6,44.1-7.5c-3.8,12-6.2,24.5-3.3,37c3.8,16.2,15.9,25.9,30.7,32
		c17.2,7.2,35.8,11.4,54.4,12.5c16.1,1,34.6,1.2,46.9-11c13.1-12.9,15-31.6,15.4-49.1c25.1,11.1,72.5,18.7,84.3-17.3
		C730.2,841.9,641,739.3,638.4,706.6z"/>
	<path class="st7" d="M619.2,768.9c-1.4-4-5-7.3-9.7-8.2c-5.8-1-12.1,1.6-17.8,2.1c-11.3,1.2-23.6,1.7-31.6,10.4
		c-7.3,8-8.2,19-2.8,27.6c1,1.7,2.7,2.2,4.2,2c2.7,2.1,8,1.5,8.7-2.7c0.9-5.3,7.1-7.4,12.3-8.2c6.7-0.9,13.5-0.5,20.1-2.1
		C613,787.3,622.7,779,619.2,768.9z"/>
	<path class="st1" d="M600.4,793.1c-5.7-20.4-36.9-17.4-39.8,3.1c-0.3,0-0.5,0-0.8,0c-3.1,0.3-6.2,2.1-7.5,5
		c-1.5,3.3-0.5,7.1,2.2,9.4c3,2.7,7.1,2.7,10.9,2c2.8,3.5,6.8,6.1,11.4,7.2c9.9,2.3,22-3.4,24.5-13.3
		C603.2,798.9,600.9,794.9,600.4,793.1z"/>
	<path class="st1" d="M589.5,805.8l-7.1,32.6c-5.5,4.8-16.3,1.8-22.8-0.8c-3-1.2-4.3-4.6-2.9-7.5c2.1-4.4,5.2-10.8,7.6-15.5
		c0.5-0.9,0.9-1.7,1.3-2.5c1-1.9,1.7-3.2,1.9-3.5L589.5,805.8z"/>
	<path class="st2" d="M318.5,1458.7c-0.2,0.5-0.3,0.9-0.5,1.3c-1.6,3.4-4.2,5.2-4.8,4.6l-48.8-45c-2.5-2.3-2.5-6.1-0.2-8.5l2.2-2.3
		l0.9-0.9l6.5-6.7c0.3-0.3,0.6-0.7,1-1c9.9-8.6,15.3-1.8,15.3-1.8c2.8,2.6,4,5.6,4.3,8.4c0.3,2.9,1.8,5.6,4.2,7.3
		c2.1,1.5,4.7,2.9,7.7,3.9c8.3,2.8-0.1,10.5,9.1,25.1c0.1,0.2,0.2,0.4,0.4,0.6c0.1,0.2,0.3,0.4,0.4,0.6
		C319.8,1450.2,319.8,1455.1,318.5,1458.7z"/>
	<path class="st3" d="M318.5,1458.7c-0.2,0.5-0.3,0.9-0.5,1.3c-0.8-0.7-1.6-1.5-2.5-2.2c-2.8-2.4-5.5-4.9-8.3-7.3
		c-0.2,0-0.4-0.2-0.5-0.4c-5.3-4.8-10.5-9.8-15.6-14.9c-5.3-5.2-10.4-10.5-15.4-16c-3.1-3.4-6.3-6.8-9.4-10.4l0.9-0.9
		c3.1,3.5,6.2,7.1,9.4,10.6c5.2,5.6,10.4,11,15.8,16.3c4.9,4.8,9.8,9.5,14.9,14.1c1.9-2.4,4.9-4.5,8-5.7c0.1,0.2,0.2,0.4,0.4,0.6
		c0.1,0.2,0.3,0.4,0.4,0.6c-0.3,0.1-0.6,0.2-0.8,0.3c-2.8,1-5.2,2.8-7.1,5.1c0.1,0.1,0.2,0.2,0.3,0.3c2.8,2.6,5.7,5.1,8.6,7.6
		C317.6,1458,318.1,1458.3,318.5,1458.7z"/>
	<path class="st3" d="M318.9,1420.4c-2.4-1.2-5.3,0.6-7,2.2c-1.9,1.8-3.1,4.4-3.3,7c-0.1,0-0.1,0-0.2-0.1c1.4-3.9-3-9.9-7.2-8
		c-2.7,1.2-0.9,4,0.5,5.4c1.4,1.4,3.1,2.6,4.9,3.3c-0.7,0.1-1.4,0.3-2,0.6c-0.4,0.2-0.3,0.9,0.2,0.9c1.2-0.2,2.3-0.4,3.6-0.3
		c1.1,0.1,2.1,0.5,3.2,0.6c0.4,0,0.7-0.5,0.3-0.8c-0.4-0.3-0.9-0.6-1.4-0.7c0-0.1,0-0.1-0.1-0.1c1.6-0.8,3.1-1.7,4.7-2.5
		c1.4-0.8,3.2-1.4,4.4-2.6C321,1423.7,320.8,1421.4,318.9,1420.4z M302.1,1422.6c1.8-0.6,3.9,1.4,4.6,2.8c0.7,1.3,0.7,2.5,0.6,3.9
		c-1-0.4-1.9-0.8-2.7-1.4C303.6,1427.2,299,1423.5,302.1,1422.6z M319,1423.9c-0.5,0.5-1,0.9-1.7,1.3c-0.9,0.5-1.8,1-2.7,1.5
		c-1.6,0.9-3.2,1.7-4.8,2.6c0.7-3.5,3.1-7.6,6.9-7.9C318.6,1421.1,319.4,1422,319,1423.9z"/>
	<path class="st3" d="M314.1,1436.9c-1.4-1.4-5.1-2-6.8-1.1c-0.3,0.2-0.2,0.6,0.1,0.7c1,0.3,2.2,0.2,3.3,0.4
		c1.1,0.2,2.1,0.8,3.1,0.9C314.2,1437.8,314.4,1437.2,314.1,1436.9z"/>
	<path class="st3" d="M609.6,1234c-1.7,1-3.6,1.8-5.6,2.3c-9.2,2.2-19.2-2.3-24.1-10.3c-9.5-15.4,1.5-35.5,18.2-37.6l0.9,3.4
		c-14.2,1.4-23.8,17.9-16.7,31.3c3.9,7.4,12.9,11.8,21.1,9.8c2-0.5,3.8-1.3,5.5-2.5L609.6,1234z"/>
	<path class="st3" d="M475.7,1239.3c-0.8,0.9-1.6,1.9-2.3,2.9c-4.6-1.4-9.9-0.8-14.3,2.5c-7.3,5.3-8.4,14-5.4,21.3
		c-0.8,1-1.6,2-2.5,2.9c-4.8-9.6-2.8-22,7.7-28.2C464.4,1237.4,470.5,1237.3,475.7,1239.3z"/>
	<path class="st3" d="M485.3,994.4c-1.2,8.3-6,15.5-13.5,19.5c-1.9,1-0.6,4.2,1.3,3.2c8.5-4.6,14.2-12.6,15.5-22.2
		C489,992.6,485.6,992.2,485.3,994.4z"/>
	<path class="st3" d="M616.2,1440.7c-22.6-52.1-44.4-104.6-65.3-157.4c-20.8-52.6-41.6-105.4-59.6-159.1
		c-9.9-29.5-18-59.7-20.3-90.8c-0.2-2.2-3.6-1.8-3.4,0.4c4,55.1,25.7,107.5,44.8,158.8c20.1,53.7,41,107.1,62.9,160.2
		c12.3,29.9,24.9,59.6,37.8,89.2C613.9,1444,617.1,1442.7,616.2,1440.7z"/>
	<path class="st3" d="M602.8,835.6c-4.7,16.2-24.1,23.5-40.3,20.4c-16.1-3.1-35.5-16.7-31.5-34.7c1.2,0,2.3,0.1,3.5,0.1
		c-4.3,16.9,15.2,29,29.9,31.4c14.4,2.3,31.1-4.1,35.2-18.4C600.6,834.8,601.7,835.2,602.8,835.6z"/>
	<path class="st3" d="M500.4,855.6c-7.5,9.3-12.6,20.1-15.1,31.7c-0.5,2.2,2.9,2.6,3.4,0.5c2.4-11.1,7.3-21.3,14.4-30.1
		C504.5,856,501.8,853.9,500.4,855.6z"/>
	<path class="st3" d="M612.8,861.7c-0.9-2-4-0.7-3.2,1.3c5.8,13.5,8.8,27.9,8.6,42.6c0,2.2,3.4,2.7,3.4,0.5
		C621.8,890.8,618.9,875.8,612.8,861.7z"/>
	<path class="st3" d="M673.7,885.2c-8.6-3.4-15.8-9.1-21.1-16.7c-1.3-1.8-4,0.3-2.7,2.1c5.6,8,13.4,14.1,22.5,17.7
		C674.4,889.2,675.7,886,673.7,885.2z"/>
	<path class="st7" d="M584.8,835.1c-3.2,6.1-10.2,7.3-16.4,5.6c-5.8-1.7-13.4-5.9-12-13.1c0.4-2.2-3-2.6-3.4-0.5
		c-1.7,8.9,7,14.7,14.5,16.9c7.9,2.3,16.5,0,20.4-7.6C589,834.4,585.8,833.1,584.8,835.1z"/>
	<path class="st3" d="M469.7,828.6c-6.2,2.5-12.7,3.6-19.5,3.4c-1.7-0.1-2.2,2.6-0.4,2.7c5.2,0.2,10.2-0.4,15.2-1.7
		c-3.5,3.2-7.2,6.2-11.1,9.1c-1.4,1,0.2,3.2,1.6,2.2c5.6-4.1,10.8-8.6,15.7-13.5C472.3,829.7,470.9,828.2,469.7,828.6z"/>
	<path class="st3" d="M579.4,821c-5.7-0.1-11.1-2.4-15.2-6.4c0.5-0.9,0.9-1.7,1.3-2.5c0.1,0.1,0.2,0.1,0.4,0.3
		c3.8,3.8,8.6,5.8,14,5.9C581.6,818.3,581.1,821,579.4,821z"/>
	<path class="st3" d="M590.6,1004.5c-2.1-3.2-2.8-6.9-2-10.7c0.4-1.7-2.3-2.1-2.7-0.4c-1,4.5-0.1,8.9,2.5,12.8
		C589.4,1007.6,591.6,1006,590.6,1004.5z"/>
	<path class="st3" d="M590.6,798.2c-1.3-2-2.1-4.2-2.3-6.6c-0.2-1.7-2.9-1.8-2.7,0c0.3,2.9,1.1,5.5,2.7,8
		C589.2,801,591.5,799.7,590.6,798.2z"/>
	<path class="st3" d="M580.8,792c-2.3-0.2-2.9,3.4-0.6,3.6C582.6,795.7,583.2,792.2,580.8,792z"/>
	<path class="st3" d="M593.8,791.6c-0.9-0.1-2,0.5-2.1,1.5l0,0.2c-0.1,0.9,0.5,2,1.5,2.1c0.9,0.1,2-0.5,2.1-1.5l0-0.2
		C595.4,792.7,594.8,791.7,593.8,791.6z"/>
	<path class="st3" d="M580.6,788.9c-0.1-0.8-0.7-1.2-1.5-1.2c-1.2,0-2.3,0.7-3.1,1.6c-0.5,0.6-0.4,1.4,0.2,1.9
		c0.6,0.5,1.4,0.4,1.9-0.2c0-0.1,0.1-0.1,0.1-0.2c0,0,0,0,0.1-0.1c0.1-0.1,0.1-0.1,0.2-0.2c-0.1,0.1-0.1,0,0,0c0,0,0.3-0.1,0.3-0.1
		c0.2,0,0.3,0,0.5,0C580.1,790.3,580.7,789.5,580.6,788.9z"/>
	<path class="st3" d="M596.8,789.2c-0.8-1.2-2.2-2-3.7-2.1c-0.7,0-1.4,0.4-1.5,1.1c-0.1,0.7,0.4,1.5,1.1,1.5c0.8,0,1.4,0.3,1.9,1
		C595.6,792.2,597.8,790.6,596.8,789.2z"/>
	<path class="st3" d="M593,805.3c-2.6,2.1-6,2.4-9,0.8c-1.5-0.8-2.6,1.7-1.1,2.5c3.8,2,8.4,1.5,11.7-1.1
		C596,806.4,594.4,804.2,593,805.3z"/>
	<path class="st3" d="M562.2,800.4c-1.6-0.7-3.6-0.4-4.9,0.8c-1.3,1.2-1.6,3.1-1.1,4.8c0.6,1.6,3.1,0.6,2.5-1
		c-0.5-1.5,0.9-2.7,2.3-2.1C562.7,803.6,563.8,801.1,562.2,800.4z"/>
</g>
<g>
	<polygon class="st1" points="1787.5,1040.3 1886.8,1452.8 1843.8,1464.1 1707.3,1093.7 	"/>
	<polygon class="st1" points="1669.3,989.6 1613.3,1446.5 1657.4,1447.2 1763.2,1024.2 	"/>
	<path class="st6" d="M1880.5,1297.2c-1.4-9-51.6-226.6-81.6-334.6c-0.3-1-0.5-1.9-0.8-2.9c-4-14.3-7.7-26.6-10.7-36.1
		c-0.2-0.6-51-95.3-38.2-21.4c-21.3-39.5-29.3,41.2-64,14.7c0.1-1.2-1.4-2-2.5-1c-8.5,7.4-16.1,22.1-22.8,41.6
		c-0.3,0.9-0.6,1.9-0.9,2.8c-30.6,92.2-42,283.8-36.9,324.5c0.1,1,44.9-7.5,127.5,26.9c33.8,14.1,70.7,33.6,102.7,17.8
		C1870,1320.7,1882.4,1308.9,1880.5,1297.2z"/>
	<path class="st3" d="M1840.2,1458.4c0.7,4.5,2.5,9.5,3.2,14c0.1,0.8,0.9,1.2,1.8,1.1l10.1-0.6c0.7,0,1.2-0.6,1.3-1.2
		c0.2-1.5-0.7-3.5-0.4-4.9c2.6-0.1,10.1,4.8,10.8,4.7c24.4-2.2,29.7-3.5,53.1-6c1.6-0.2,2.6-2.1,0.8-2.6
		c-10.5-3.3-12.1-5.2-34.1-13.2c-0.3-0.2-0.7-0.4-1.2-0.3c-14.7,1.4-29.3,3.7-43.7,7c-0.6,0.1-1,0.5-1.1,0.9
		C1840.3,1457.6,1840.2,1458,1840.2,1458.4z"/>
	<path class="st3" d="M1611.4,1448.2c-0.1,4.5,0.8,9.8,0.7,14.3c0,0.8,0.7,1.3,1.5,1.4l10.1,0.9c0.7,0.1,1.3-0.4,1.5-1
		c0.5-1.4-0.1-3.5,0.4-4.9c2.5,0.3,9.1,6.2,9.9,6.3c24.5,1.5,29.9,1,53.4,2.1c1.6,0.1,2.9-1.6,1.3-2.5c-9.8-4.8-11-6.9-31.4-18.2
		c-0.2-0.3-0.6-0.5-1.1-0.5c-14.8-0.8-29.6-0.7-44.3,0.3c-0.6,0-1.1,0.3-1.3,0.7C1611.7,1447.4,1611.5,1447.8,1611.4,1448.2z"/>
	<path class="st3" d="M1622.6,1283.8c36.6-1.7,73.5,3.6,107.3,16.8c34.4,13.4,69.7,37.6,109,30.4c17.8-3.3,34.4-14.2,40.4-30.6
		c0.5-1.5,3-0.5,2.4,1c-4.8,13.2-16.3,23.1-29.9,28.5c-16.4,6.5-34.9,5.7-51.9,1.6c-18.8-4.6-36-13.1-53.3-21
		c-18-8.2-36.5-14.9-56.1-19c-22.2-4.7-45-6.3-67.7-5.3C1621.2,1286.4,1620.9,1283.9,1622.6,1283.8z"/>
	<path class="st5" d="M1824.4,567.1l-24.7-8.1c-3.1-1-6.1,1.6-5.7,4.8c23.3,172.6,19.4,206.1-30,251.9l0,0c-1.1-0.2-2.3-0.4-3.4-0.6
		c-21.4-3.3-43.3-3.6-64.9-0.6c-1.1,0.2-2.3,0.3-3.4,0.5c-0.6,0.1-1.2,0.2-1.9,0.3c-9.5,1.6-92.7-83.9-76.5-217.7
		c0.3-2.5-2.2-4.5-4.6-3.5l-23.3,9.6c-2.3,0.9-4.1,2.7-5.2,4.9c-15.1,31.8-122.7,272.3,77.7,296.4c-1.5,12.3-1.5,24.7,3.6,36.2
		c6.6,14.9,20,21.9,35.3,25.2c17.9,3.7,36.5,4.4,54.6,2.1c15.7-2,33.5-5.2,43.1-19.2c10.2-14.8,8.6-33.1,5.8-50
		c205.9-66.7,47.5-301.4,28.3-328.6C1828,568.9,1826.3,567.7,1824.4,567.1z"/>
	<path class="st3" d="M1763.9,815.5c-1.5,16.5-18.9,27-35,26.9c-16.1-0.1-37.2-9.5-36.6-27.6c1.1-0.2,2.3-0.3,3.4-0.5
		c-1.1,17,19.9,25.1,34.5,24.7c14.3-0.4,29.1-9.7,30.4-24.1C1761.7,815.2,1762.8,815.3,1763.9,815.5z"/>
	<path class="st3" d="M1669.4,850.5c-5.5,10.3-8.4,21.6-8.7,33.2c-0.1,2.2,3.3,2,3.4-0.2c0.3-11.1,3.1-21.8,8.3-31.6
		C1673.4,850.1,1670.4,848.6,1669.4,850.5z"/>
	<path class="st3" d="M1779.8,835.7c-1.2-1.8-4,0.1-2.8,1.9c8.1,11.9,13.5,25.2,16,39.4c0.4,2.1,3.7,2,3.4-0.2
		C1793.8,862,1788.2,848.1,1779.8,835.7z"/>
	<path class="st3" d="M1616.4,767.9c-5.6,3.5-11.6,5.8-18.1,6.8c-1.7,0.3-1.6,2.9,0.1,2.7c5-0.8,9.8-2.2,14.3-4.4
		c-2.8,3.7-5.8,7.3-9,10.7c-1.2,1.2,0.8,3,2,1.8c4.7-5,8.8-10.2,12.7-15.9C1619,768.5,1617.4,767.2,1616.4,767.9z"/>
	<path class="st3" d="M1836.2,753c5.6,3.5,11.6,5.8,18.1,6.8c1.7,0.3,1.6,2.9-0.1,2.7c-5-0.8-9.8-2.2-14.3-4.4
		c2.8,3.7,5.8,7.3,9,10.7c1.2,1.2-0.8,3-2,1.8c-4.7-5-8.8-10.2-12.7-15.9C1833.6,753.6,1835.2,752.3,1836.2,753z"/>
	<path class="st3" d="M1774.3,780.7c-0.7-4.4-3.2-7.4-6.4-10c-1.8-1.5-4-2.7-5.6-4.6c-2.5-2.9-2-6-2.5-9.6c-1-7-7.1-10.3-12.7-8.6
		c-3.2-11-15.3-16.4-24.5-9.4c-2.6,2-3.7,4.5-5.5,7.2c-3.7,5.3-6.9,5.4-12.6,6.3c-4.7,0.7-8.5,2.4-10.4,7.3
		c-1.6,4.1-1.3,7.8-4.3,11.3c-2,2.3-4.4,4-6.3,6.2c-3.4,3.9-5,8.8-3.3,14c5.1,15.9,24.2,10.7,36.1,14.3c0.3,0.4,0.8,0.7,1.4,0.9
		c13.1,3.1,27.1,0.6,39.7-3.6C1766.2,799.5,1776,792.1,1774.3,780.7z"/>
	<path class="st1" d="M1742,787.1l-2.8,31.8c-8,7.1-27-0.5-25.4-4.7c1.6-4.4,3.7-10.9,5.3-15.6c0.3-0.9,0.6-1.7,0.9-2.5
		c0.7-1.9,1.2-3.3,1.4-3.5L1742,787.1z"/>
	<g>
		<path class="st1" d="M1750.9,768.9c-7.9-18.7-37.1-12.1-37.3,7.8c-0.3,0-0.5,0.1-0.8,0.1c-2.9,0.7-5.6,2.7-6.5,5.6
			c-1.1,3.3,0.4,6.8,3.2,8.7c3.2,2.2,7,1.7,10.5,0.6c3.1,3,7.2,5,11.6,5.4c9.7,1,20.5-5.9,21.7-15.5
			C1754.3,774.1,1751.6,770.6,1750.9,768.9z"/>
		<path class="st3" d="M1742.2,775c-1.5-1.7-2.5-3.7-3-5.9c-0.4-1.6-2.9-1.3-2.6,0.3c0.6,2.7,1.7,5.1,3.5,7.2
			C1741.2,777.9,1743.3,776.3,1742.2,775z"/>
		<path class="st3" d="M1731.3,771.5c-2.2,0.1-2.3,3.6-0.1,3.5C1733.4,774.9,1733.5,771.4,1731.3,771.5z"/>
		<path class="st3" d="M1745.7,769.6c-0.9,0-1.8,0.7-1.8,1.7l0,0.2c0,0.9,0.7,1.8,1.7,1.8c0.9,0,1.8-0.7,1.8-1.7l0-0.2
			C1747.3,770.5,1746.7,769.6,1745.7,769.6z"/>
		<path class="st3" d="M1730.7,768.6c-0.2-0.7-0.8-1.1-1.6-1c-1.1,0.2-2.1,0.9-2.7,1.9c-0.4,0.6-0.2,1.4,0.4,1.8
			c0.6,0.4,1.4,0.2,1.8-0.4c0-0.1,0.1-0.1,0.1-0.2c0,0,0,0,0.1-0.1c0.1-0.1,0.1-0.1,0.2-0.2c-0.1,0.1-0.1,0.1,0,0
			c0,0,0.3-0.1,0.3-0.2c0.1,0,0.3-0.1,0.4-0.1C1730.4,770.1,1730.9,769.2,1730.7,768.6z"/>
		<path class="st3" d="M1748.3,767c-0.9-1-2.3-1.6-3.7-1.5c-0.7,0-1.3,0.5-1.3,1.3c0,0.6,0.6,1.4,1.3,1.3c0.8-0.1,1.4,0.2,1.9,0.7
			C1747.5,770,1749.4,768.2,1748.3,767z"/>
		<path class="st3" d="M1715.5,780.6c-1.6-0.5-3.4,0-4.5,1.3c-1.1,1.3-1.2,3.2-0.4,4.7c0.7,1.5,3,0.2,2.3-1.3
			c-0.7-1.3,0.6-2.7,1.9-2.3C1716.4,783.5,1717.1,781,1715.5,780.6z"/>
		<path class="st3" d="M1746.2,781.2c-2.3,4.3-7.7,5-11,1.4c-1-1-2.6,0.4-1.6,1.5c4.3,4.6,11.5,3.8,14.5-1.7
			C1748.8,781.1,1746.9,779.9,1746.2,781.2z"/>
	</g>
	<path class="st3" d="M1747,794.3c-4,1.4-8.1,2-12.3,1.8c-1.7-0.1-1.6,2.5,0.1,2.6c4.4,0.2,8.8-0.5,13-1.9
		C1749.3,796.2,1748.6,793.7,1747,794.3z"/>
	<path class="st3" d="M1693.4,983.5c-3.3,13.6-16.1,23.6-30.2,23.3c-1.8,0-1.9,2.8-0.1,2.9c15.3,0.3,29.4-10.5,33-25.4
		C1696.5,982.5,1693.8,981.7,1693.4,983.5z"/>
	<path class="st3" d="M1800.5,990.5c-7.4-1.5-13.3-7.1-14.9-14.6c-0.4-1.8-3.2-1.2-2.8,0.6c1.9,8.4,8.5,15,16.9,16.7
		C1801.5,993.6,1802.3,990.9,1800.5,990.5z"/>
	<path class="st3" d="M1772.5,974.2c-11.9,3.8-24.2,5.9-36.4,6.3c0.9,8.6,1.8,17.2,2.6,25.7c0.4,4.4,0.9,8.8,1.3,13.2
		c0.2,1.9,0.2,5.4,2,6.6c2.3,1.6,5.5-0.6,7.5-1.7c1.6-1,2.9,1.6,1.3,2.5c-3,1.8-6.9,3.8-10.3,1.6c-3.7-2.3-3.2-8.1-3.6-11.8
		c-1.2-12-2.5-24-3.7-36c-26,0.4-51.9-6.5-74.3-20.1c0.3-0.9,0.6-1.9,0.9-2.8c20.4,12.5,44,19.6,68,20.2c24.6,0.5,49-5.9,70.3-18
		c0.3,0.9,0.5,1.9,0.8,2.9C1790.5,967.4,1781.7,971.2,1772.5,974.2z"/>
	<path class="st3" d="M1745.5,984c-0.1-1.8-3-1.9-2.9-0.1c0.2,2.6,0.3,5.1,0.5,7.7c0.1,1.8,3,1.9,2.9,0.1
		C1745.8,989.1,1745.6,986.6,1745.5,984z"/>
	<path class="st3" d="M1747.9,999.4c-0.1-1.8-3-1.9-2.9-0.1l0.5,6.2c0.1,1.8,3,1.9,2.9,0.1L1747.9,999.4z"/>
	<path class="st3" d="M1751.3,1017.7c-0.5-1.8-1-3.5-1.4-5.3c-0.5-1.8-3.3-1.1-2.8,0.6c0.5,1.8,1,3.5,1.4,5.3
		C1748.9,1020.1,1751.7,1019.5,1751.3,1017.7z"/>
</g>
<g>
	<g>
		<path class="st1" d="M975,712c-1.8-7.5-7.2-13.5-14.3-16.1c-2-0.7-3.1,1.9-2,3.3c0.5,0.7,1.1,1.4,1.6,2.1c-3.9-1.2-8-2-11.8-3
			c-5.2-1.4-10.4-2.8-15.6-4.1c1.3-1.3-0.4-4-2.5-3.2c-1.3,0.5-2.6,1-3.9,1.5c-0.9-0.2-1.6,0.2-2,0.8c-9.6,3.9-22.9,3.5-32.3,8.1
			c-2,1,6.7,12.7,21.3,18c7.2,2.6,16-0.2,22.7,4.2c2.9,1.9,5.1,4.7,6.5,7.9c1.2,2.9,2.5,5.2,5.9,5c3.8-0.2,7.7-1.5,11.4-2.2
			c4.5-0.9,9-1.8,13.4-2.7c0.1,0,0.2,0,0.2-0.1c0.8,0.1,1.7-0.3,2-1.4C977.5,724,977.5,717.4,975,712z"/>
		<path class="st3" d="M962.7,715.5c-2.4-2.2-3.4-5.4-2.4-8.5c0.4-1.2-1.5-1.8-1.9-0.6c-1.2,3.8-0.1,7.9,2.8,10.5
			C962.2,717.7,963.7,716.3,962.7,715.5z"/>
		<path class="st3" d="M946.8,703.6c-6.2,2-11.8,4.9-17.1,8.7c-1,0.8,0.3,2.3,1.4,1.5c5-3.6,10.4-6.3,16.2-8.2
			C948.5,705.2,948,703.2,946.8,703.6z"/>
	</g>
	<path class="st1" d="M1425,850.4c1.1-2.7,1-5.7-0.9-8.3c-1.6-2.2-3.9-3.3-6.3-3.4c0.7-3,0.2-6.2-1.8-8.7c-2.6-3.1-6.5-4-10.1-3.1
		c-0.5-5.7-5.3-10.6-11.2-11.2c-7.9-0.9-13.9,3.9-18.8,9.6c-2.7-3.7-5.5-7.3-8.7-10.3c-4-3.8-10-4.6-13.4,0.4
		c-4.2,6.1-0.1,12.8,3.1,18.3c5.3,9.1,2.9,20.5-7.5,24.1c-2.9,1-1.8,5.8,1.1,4.8c0.7-0.2,1.3-0.5,2-0.8c3.6,10.9,7.3,21.8,10.9,32.7
		c0.3,1,1.1,1.6,2,1.7c-0.8,0.2-1.6,0.4-2.3,0.5c-3,0.6-1.9,5.3,1.1,4.8c18.5-3.6,35.9-11.7,50.6-23.6c5.5-4.4,14.4-10.8,15.3-18.6
		C1430.3,855.5,1428.1,851.8,1425,850.4z"/>
	<path class="st1" d="M1020.9,1523c-3.5-2.8-8.6-4.2-12.5-6c-5.3-2.4-10.6-5-16.2-6.6c0.1-0.3,0.1-0.5,0.2-0.8
		c0.4-2.6-3.3-3.4-4.5-1.5c-5.4,8.1-8.2,18.8-11.8,27.9c-3.8,9.7-7.7,19.5-11.5,29.2c-1,2.5,1.5,4.6,3.8,4.3
		c5.8-0.8,11.1,3.5,16.5,5.2c5.5,1.8,11.1,1.3,15.7-2.5c5.9-4.9,8.9-13,12.3-19.7c4.1-8.2,8.3-16.4,12.4-24.6
		C1026.8,1524.8,1023.2,1521.7,1020.9,1523z"/>
	<path class="st3" d="M1027.7,1605.9c0,0.5,0,1-0.1,1.5c-0.4,4.1-2.4,6.8-3.2,6.5l-65.1-28.3c-3.3-1.4-4.7-5.3-3.3-8.6l1.4-3.2
		l0.6-1.3l4.2-9.2c0.2-0.5,0.4-0.9,0.6-1.4c6.9-12.5,14.7-7.4,14.7-7.4c3.7,1.7,6,4.3,7.3,7.1c1.4,2.9,3.8,5.1,6.8,5.9
		c2.6,0.7,5.8,1.3,9.1,1.2c9.4-0.2,3.7,10.8,18.2,22.4c0.2,0.1,0.4,0.3,0.6,0.5c0.2,0.2,0.4,0.3,0.6,0.5
		C1025.9,1596.7,1027.7,1601.8,1027.7,1605.9z"/>
	<path class="st8" d="M1027.7,1605.9c0,0.5,0,1-0.1,1.5c-1.1-0.5-2.2-0.9-3.3-1.4c-3.7-1.5-7.3-3-10.9-4.5c-0.2,0-0.5-0.1-0.6-0.3
		c-7.1-3-14-6.2-21-9.5c-7.1-3.4-14.2-7-21.2-10.7c-4.4-2.3-8.8-4.7-13.1-7.2l0.6-1.3c4.4,2.5,8.8,5,13.2,7.4
		c7.2,3.8,14.4,7.5,21.7,10.9c6.6,3.1,13.2,6.1,20,9c1.1-3.1,3.3-6.4,6-8.8c0.2,0.1,0.4,0.3,0.6,0.5c0.2,0.2,0.4,0.3,0.6,0.5
		c-0.2,0.2-0.5,0.4-0.7,0.6c-2.4,2.1-4.2,4.7-5.3,7.8c0.2,0.1,0.3,0.1,0.5,0.2c3.8,1.6,7.5,3.1,11.3,4.6
		C1026.5,1605.5,1027.1,1605.7,1027.7,1605.9z"/>
	<path class="st8" d="M1014.3,1566.6c-2.8-0.4-5.1,2.6-6.2,4.9c-1.2,2.6-1.6,5.6-0.8,8.4c-0.1,0-0.2,0-0.2,0
		c0.1-4.5-6.5-9.1-10.1-5.6c-2.2,2.2,0.5,4.4,2.4,5.3c1.9,1,4,1.5,6.1,1.6c-0.7,0.4-1.3,0.9-1.8,1.3c-0.4,0.4,0.1,1.1,0.5,0.8
		c1.1-0.6,2.2-1.3,3.5-1.6c1.1-0.3,2.3-0.2,3.4-0.6c0.4-0.1,0.5-0.8,0.1-0.9c-0.5-0.2-1.1-0.2-1.7-0.2c0,0-0.1-0.1-0.1-0.1
		c1.3-1.4,2.6-2.9,3.8-4.3c1.2-1.3,2.7-2.6,3.5-4.2C1017.7,1569.2,1016.7,1566.9,1014.3,1566.6z M998.3,1574.9
		c1.6-1.3,4.4,0,5.6,1.2c1.1,1,1.6,2.3,2,3.8c-1.1,0-2.2-0.1-3.2-0.4C1001.5,1579.1,995.5,1577.1,998.3,1574.9z M1015.7,1570.1
		c-0.3,0.7-0.7,1.4-1.3,1.9c-0.7,0.8-1.5,1.7-2.2,2.5c-1.3,1.5-2.6,2.9-3.9,4.4c-0.5-3.8,0.4-8.9,4.1-10.6
		C1014.3,1567.4,1015.4,1568,1015.7,1570.1z"/>
	<path class="st8" d="M1015.4,1585.3c-1.9-0.9-5.8-0.2-7.3,1.3c-0.3,0.3,0,0.7,0.3,0.7c1.1-0.1,2.3-0.6,3.4-0.8
		c1.2-0.2,2.3,0,3.5-0.2C1015.9,1586.1,1015.8,1585.5,1015.4,1585.3z"/>
	<path class="st1" d="M1344.7,1466.2c-4.1,1.8-7.7,5.8-11,8.5c-4.6,3.7-9.3,7.2-13.3,11.5c-0.2-0.2-0.4-0.4-0.6-0.5
		c-2.1-1.6-4.5,1.3-3.4,3.4c4.5,8.7,12.4,16.2,18.6,23.7c6.6,8,13.3,16.1,19.9,24.1c1.7,2.1,4.7,0.8,5.5-1.4
		c2.1-5.6,8.2-8.4,12.2-12.4c4.1-4.1,6.3-9.4,5.2-15.4c-1.5-7.6-7.1-14.1-11.3-20.3c-5.2-7.6-10.3-15.2-15.5-22.7
		C1349.1,1461.8,1344.8,1463.5,1344.7,1466.2z"/>
	<path class="st3" d="M1419.7,1499c0.5,0.2,0.9,0.5,1.3,0.8c3.4,2.3,4.8,5.3,4.1,5.9l-55,45.4c-2.8,2.3-6.8,1.8-9-1.1l-2.1-2.8
		l-0.8-1.1l-6-8.1c-0.3-0.4-0.6-0.8-0.9-1.2c-7.6-12.1,0.5-16.7,0.5-16.7c3.2-2.5,6.5-3.4,9.5-3.3c3.1,0.1,6.2-1.1,8.3-3.4
		c1.9-2,3.8-4.6,5.4-7.6c4.3-8.5,11,1.8,27.9-5.9c0.2-0.1,0.4-0.2,0.7-0.3c0.2-0.1,0.5-0.2,0.7-0.3
		C1410.9,1496.3,1416.1,1497.1,1419.7,1499z"/>
	<path class="st8" d="M1419.7,1499c0.5,0.2,0.9,0.5,1.3,0.8c-0.9,0.8-1.8,1.5-2.7,2.3c-3,2.6-6,5.2-9,7.7c-0.1,0.2-0.3,0.4-0.5,0.5
		c-5.9,4.9-12,9.7-18.1,14.4c-6.3,4.8-12.7,9.5-19.2,14c-4.1,2.8-8.2,5.7-12.4,8.5l-0.8-1.1c4.2-2.8,8.4-5.6,12.6-8.5
		c6.7-4.7,13.2-9.5,19.7-14.4c5.8-4.5,11.5-9.1,17.1-13.8c-2.2-2.4-4-5.9-4.8-9.5c0.2-0.1,0.4-0.2,0.7-0.3c0.2-0.1,0.5-0.2,0.7-0.3
		c0,0.3,0.1,0.6,0.2,0.9c0.6,3.2,2.1,6,4.3,8.4c0.1-0.1,0.3-0.2,0.4-0.3c3.1-2.6,6.3-5.3,9.3-8
		C1418.8,1499.9,1419.2,1499.5,1419.7,1499z"/>
	<path class="st8" d="M1379.4,1492.6c-1.6,2.4-0.2,5.8,1.3,7.9c1.7,2.3,4.1,4,6.9,4.7c0,0.1-0.1,0.1-0.1,0.2
		c-3.9-2.2-10.9,1.6-9.6,6.5c0.9,3,4,1.6,5.8,0.3c1.7-1.3,3.2-2.9,4.2-4.7c0,0.8,0.1,1.6,0.3,2.2c0.1,0.5,1,0.5,0.9-0.1
		c0-1.3-0.1-2.6,0.2-3.9c0.2-1.2,0.9-2.2,1.1-3.4c0.1-0.5-0.4-0.8-0.8-0.5c-0.4,0.4-0.7,0.9-1,1.4c-0.1,0-0.1,0-0.2,0
		c-0.6-1.8-1.3-3.6-1.9-5.5c-0.6-1.7-1-3.7-2-5.1C1383.2,1490.8,1380.8,1490.7,1379.4,1492.6z M1379,1511c-0.3-2.1,2.1-3.9,3.7-4.5
		c1.4-0.5,2.8-0.4,4.2,0c-0.5,1-1.1,1.9-1.9,2.7C1384.2,1510.1,1379.6,1514.5,1379,1511z M1383.1,1493c0.5,0.6,0.8,1.3,1.1,2
		c0.4,1,0.7,2.1,1.1,3.2c0.7,1.9,1.3,3.7,2,5.6c-3.5-1.3-7.5-4.6-7.2-8.7C1380.1,1493,1381.1,1492.3,1383.1,1493z"/>
	<path class="st8" d="M1397.4,1499.9c-1.5,1.1-2.6,4.4-2.1,6.2c0.1,0.4,0.5,0.3,0.7,0c0.4-0.9,0.5-2,0.8-3c0.3-1,1-1.8,1.3-2.8
		C1398.3,1499.9,1397.8,1499.7,1397.4,1499.9z"/>
	<path class="st8" d="M1372.7,1474.5l-52.6,39.8c0,0-107.7-118.5-192.9-222.1c-27.4-33.4-52.5-65.2-71-91
		c-12.4-17.4-21.8-32.1-26.8-42.6c-35.4-75-18.7-129.5-18.6-132.5l43.7-2.2l20.2-1l25.4-28.3l117,244.3l2.1,3.1l23.7,36l2.2,3.3
		L1372.7,1474.5z"/>
	<path class="st3" d="M1245.1,1281.1c-1.4,1.7-3,3.2-4.8,4.4c-8.4,5.6-20.1,4.6-27.9-1.7c-15-12.3-11.2-36.9,4.8-45.1l2.1,3.1
		c-13.7,6.6-17.5,27-5.5,38.2c6.5,6.2,17.2,7.3,24.7,2.3c1.8-1.2,3.4-2.8,4.6-4.5L1245.1,1281.1z"/>
	<path class="st3" d="M1336.1,1484.1c-39.8-46.5-78.8-93.7-117.1-141.5c-38.1-47.6-76.3-95.5-111.9-145.1
		c-19.6-27.3-37.6-55.9-50-87.4c-0.9-2.2-4.2-0.6-3.3,1.6c21.9,55.8,60.8,102.9,96.8,149.7c37.7,49,76.3,97.4,115.6,145.2
		c22.1,26.9,44.5,53.5,67.2,80C1334.8,1488.3,1337.6,1485.9,1336.1,1484.1z"/>
	<path class="st9" d="M1108.5,1269.2c-2.2,16-4.7,31.5-7.3,46.3c-0.2,1.3-0.5,2.6-0.7,3.8c-2.2,12-4.5,23.6-6.9,34.8
		c-0.3,1.3-0.6,2.6-0.9,4c-25.2,115.6-59.1,183.3-59.1,183.3l-36.9-17.9l-3.3-1.6l-27.8-13.5c51.2-217.1,35.4-362,33.1-392.3
		c-2.9-37,8.5-87.9,8.5-87.9l3.3-0.1l103.8-4.1l2.6-0.1c0.1,2.1,0.3,4.2,0.4,6.3C1122.8,1119.2,1118.1,1199.8,1108.5,1269.2z"/>
	<path class="st10" d="M1383.2,898.7l-29.4-51.6c-48.1,25.7-152.9,31-197.7,32.1c-11.2,0.3-22.3-0.2-33.4-1.6c-9-1.1-18-1.8-27-1.9
		c-1.2,0-2.5,0-3.7,0c-23.6,0-47.2,3.5-69.9,10.5c-1.2,0.4-2.4,0.7-3.6,1.1c-10.3,3.3-20.3,7.4-30,12.1c-7.8,3.8-15.3,8.2-22,13.5
		c19.6-45.8,34.9-142.3,15.3-190.9c-0.9-2.3-26.6,6.2-41.4,13.5c-3.7,1.8-107.2,225.4-57.8,288.3c36.7,46.7,103.6-10.4,112.8-24.3
		c0.5,13.7,2.1,25.6,9.8,37.2c15.3,23.2,118.2,39.5,126.2,22.6c7.5-16,17.5-27.1,18.4-76.8C1267,1004.4,1383.2,898.7,1383.2,898.7z"
		/>
	<g>
		<path class="st7" d="M1068.7,817.9c-0.2-4.6-0.4-10-3.1-13.9c-2.1-3.2-5.6-4.7-9.3-3.8c-3.6,0.8-6.1,3.4-8.2,6.3
			c-2.2-5.8-3.5-12.9-10.3-14.4c-7.1-1.6-9.4,6.6-10.8,12c-4.3,17.5-2,36.1,6.1,52c0.5,1,1.6,1.2,2.4,0.8c0.5,0.1,1.1,0.1,1.6-0.3
			c8.9-6.9,18.4-12.7,28.5-17.5c1-0.5,1.2-1.5,0.9-2.3C1068.1,830.7,1068.9,824.4,1068.7,817.9z"/>
		<path class="st1" d="M1071.6,832.4c-14-18.1-43.4-2.1-37.8,19.8c-0.3,0.1-0.5,0.2-0.8,0.4c-2.9,1.6-5.2,4.7-5.3,8.1
			c-0.2,3.9,2.4,7.3,6,8.6c4.1,1.4,8.1-0.3,11.5-2.5c4.2,2.3,9.2,3.3,14.1,2.4c10.7-1.9,20.2-12.6,18.7-23.6
			C1076.7,837,1072.8,833.9,1071.6,832.4z"/>
		<path class="st1" d="M1072.4,885.3c-3.4,7.1-15.3,8.6-22.8,8.8c-3.4,0.1-6.1-2.8-6-6.3c0.3-5.5,0.7-13.4,1.1-19.1
			c0.1-1,0.1-2,0.2-2.9c0.2-2.2,0.3-3.7,0.5-4l20.5-12.1L1072.4,885.3z"/>
	</g>
	<path class="st3" d="M1087.7,1327c-6.5,9.7-2.4,21.1,6,27.1c-0.3,1.3-0.6,2.6-0.9,4c-11.5-7.2-16.3-23.3-6.7-35.1
		c4-5,9.6-7.3,15.1-7.5c-0.2,1.3-0.5,2.6-0.7,3.8C1095.6,1319.8,1090.8,1322.3,1087.7,1327z"/>
	<path class="st3" d="M1086.3,1069.6c-3.6,8.4-10.6,14.5-19.4,16.5c-2.3,0.5-1.8,4.2,0.5,3.7c10-2.3,18.1-9.1,22.3-18.7
		C1090.6,1068.9,1087.2,1067.4,1086.3,1069.6z"/>
	<path class="st3" d="M1117.3,893.5c-1.6-1.8-4.3,0.8-2.7,2.5c10.7,11.7,18.8,25.4,23.9,40.5c0.8,2.2,4.3,1.5,3.6-0.8
		C1136.7,919.9,1128.4,905.7,1117.3,893.5z"/>
	<path class="st10" d="M1080,885.6c-1.1,0.5-2.3,1-3.4,1.4c-0.1-0.2-0.1-0.3-0.2-0.5c0.9-0.6,1.7-1.3,2.5-2.1
		c1.6-1.5-0.2-3.9-1.8-3.2c0.1-1.5-2.1-2.8-3.4-1.2c-6.9,8.5-17.7,8.6-27.4,6.4c-2.1-1-4.1-2.3-6-3.9c-1.7-1.4-3.5,1-2.5,2.6
		c-0.4,0.4-0.6,0.9-0.5,1.6c0,0,0,0.1,0,0.1c-0.2,0.5-0.1,1.1,0.3,1.6c0,0,0,0.1,0.1,0.1c2.5,8.2,12.4,10.7,20.2,10.2
		c3.8-0.2,7.3-1.4,10.3-3.4c3.5-0.9,6.9-2,10-3.2c1-0.4,1.2-1.3,0.9-2.1c0.8-0.3,1.7-0.7,2.5-1.1
		C1083.6,888,1082.1,884.6,1080,885.6z"/>
	<path class="st3" d="M1053.4,1171.1c-0.5-34-1.9-67.9-3.2-101.8c-0.1-2.4-3.7-2.7-3.6-0.3c4.7,115.5,9.3,233.4-20.7,346.1
		c-7.9,29.6-18.2,58.6-31.2,86.3c-1,2.2,2.5,3.4,3.5,1.2C1046.5,1399.7,1055.1,1283.6,1053.4,1171.1z"/>
	<path class="st3" d="M1015.9,934.2c-1-12-4.1-23.5-9.2-34.3c-1-2.2-4.3-0.6-3.3,1.6c5,10.5,8,21.7,9,33.3
		C1012.5,937.2,1016.1,936.6,1015.9,934.2z"/>
	<path class="st3" d="M955.7,925c-4.4,11.5-11.6,21.2-21.1,28.8c-1.5,1.2,0.3,3.5,1.8,2.3c9.9-7.9,17.4-18.1,22-30
		C959.1,924.4,956.4,923.3,955.7,925z"/>
	<path class="st3" d="M1066.5,840.2c-2.3-0.1-4.4-1.4-5.5-3.5c-0.9-1.7-3.5-0.5-2.6,1.2c1.5,3,4.4,5,7.8,5.2
		C1068,843.3,1068.4,840.4,1066.5,840.2z"/>
	<path class="st3" d="M1054.2,842.3c-2.5-0.1-2.9,3.8-0.5,3.9C1056.2,846.3,1056.7,842.4,1054.2,842.3z"/>
	<path class="st3" d="M1066.6,833.4c-2.5-0.1-2.9,3.8-0.5,3.9C1068.6,837.4,1069.1,833.5,1066.6,833.4z"/>
	<path class="st3" d="M1048.2,838.5c-1.2,1.5-2,3.3-2.2,5.3c-0.2,1.9,2.7,2.2,2.9,0.3c0.2-1.5,0.7-2.7,1.7-3.9
		C1051.7,838.8,1049.4,837.1,1048.2,838.5z"/>
	<path class="st3" d="M1065.2,827.8c-2.2-0.7-4.5-0.3-6.3,1.3c-1.4,1.2,0.4,3.5,1.8,2.3c0.9-0.8,2.2-1.2,3.4-0.8
		C1065.9,831.1,1067,828.3,1065.2,827.8z"/>
	<path class="st3" d="M1071.3,845.4c-1.7,4-5.8,6.2-10,5.5c-1.8-0.3-2.2,2.6-0.3,2.9c5.5,0.9,10.9-2.2,13-7.4
		C1074.7,844.7,1072,843.6,1071.3,845.4z"/>
	<path class="st3" d="M1061.4,870.5c-5.7,0.9-11.2,0.3-16.5-1.9c0.1-1,0.1-2,0.2-2.9c0.2,0,0.5,0,0.8,0.1c4.9,2,9.9,2.6,15.1,1.7
		C1062.8,867.3,1063.2,870.2,1061.4,870.5z"/>
	<path class="st3" d="M1036.5,855.9c-2.4-0.3-4.8,1.2-5.5,3.6c-0.7,2.5,0.6,4.9,2.8,6c1.7,0.9,2.7-1.9,1.1-2.7
		c-2.1-1.1-0.9-4.2,1.3-3.9C1038,859,1038.4,856.1,1036.5,855.9z"/>
	<path class="st3" d="M1416.2,867.3c-3.2,2.1-6.8-0.9-5.4-4.5c0.1-0.2,0.1-0.4,0.1-0.5c0.8-0.4,1.5-1,2.1-1.7
		c1.3-1.4-0.7-3.5-1.9-2.2c-4.1,4.5-11.3,0.7-9.6-5.4c0.1-0.2,0.1-0.4,0-0.6c1.9-0.7,3.8-1.8,5.4-3.2c1.4-1.2-0.5-3.4-1.9-2.2
		c-2.4,2-5.5,3.7-8.6,2.8c-3.3-0.9-5.4-4.5-3.2-7.6c0-0.1,0.1-0.1,0.1-0.2c2.8-1,5.5-2.8,7.7-4.8c1.4-1.2-0.5-3.4-1.9-2.2
		c-2.7,2.4-5.9,4.7-9.7,4.7c-3.9-0.1-8.5-4.5-4.9-8.3c1.3-1.3-0.6-3.5-1.9-2.2c-3.7,3.9-2.2,10,2.4,12.3c1.6,0.8,3.2,1.1,4.8,1
		c-1.1,3.5,0.6,7.5,4,9.2c1.6,0.8,3.2,1.1,4.9,1c-0.7,3.6,0.8,7.4,4,9.3c1.6,0.9,3.4,1.2,5.2,1c-0.9,5.3,5.1,9.7,9.9,6.6
		C1419.1,868.9,1417.8,866.3,1416.2,867.3z"/>
	<path class="st3" d="M1382.3,851.8c-0.8-1.7-3.4-0.3-2.5,1.4c2.4,4.9,2,10.3-0.9,14.9c-1,1.6,1.4,3.1,2.4,1.6
		C1384.8,864.2,1385.1,857.6,1382.3,851.8z"/>
</g>
<g>
	<path class="st11" d="M2136.2,236.7c-32.3-27.6-73.7-40-113.2-53c-47.7-15.8-95.4-31.5-143-47.3c-46.3-15.3-144.9-46.4-146.9-44.8
		c-33.4-9.4-67-18-100.8-25.9C1463,26,1289.6,4.5,1116,1.4C943-1.7,769.6,13.5,599.8,47.1c-85.7,16.9-170.5,38.6-253.8,65
		c-79.8,25.3-163.9,51.5-233,100.5C48.8,258.1-3.7,331.9,0.2,414.3c3.7,77.2,58.7,135,120,174.3c33.9,21.7,70.5,38.9,107.3,55
		c41.8,18.3,84.5,34.5,127.8,48.6c87.1,28.3,176.6,48.4,267,61.9c190.1,28.4,383.3,26.7,574.4,10.9c98.2-8.2,196-19.9,293.6-33.3
		c88.9-12.2,178.2-24.1,265.9-43.4c83.2-18.4,165.7-44.1,241-84.9c69.9-37.9,139.8-89.7,173.1-164.9
		C2199.7,372.4,2193.4,285.5,2136.2,236.7z"/>
	<path class="st9" d="M2069.4,251.6c-30.1-22-68.6-31.8-105.4-42.2c-44.4-12.6-88.8-25.1-133.2-37.7
		c-43.1-12.2-134.9-36.9-136.8-35.7c-31.1-7.5-62.4-14.4-93.9-20.7c-157.6-31.5-319-48.7-480.7-51.1
		c-161.1-2.5-322.5,9.6-480.6,36.4C559,114.1,480,131.3,402.4,152.4c-74.3,20.1-152.6,41-217,80.1c-59.7,36.2-108.6,95-104.9,160.6
		c3.4,61.5,54.6,107.5,111.7,138.8c31.6,17.3,65.7,31,99.9,43.8c38.9,14.6,78.7,27.4,119,38.7c81.1,22.6,164.4,38.5,248.7,49.3
		c177,22.7,356.9,21.3,534.9,8.6c91.4-6.5,182.5-15.9,273.4-26.5c82.8-9.7,165.9-19.2,247.6-34.6c77.5-14.6,154.3-35.1,224.4-67.6
		c65.1-30.2,130.1-71.5,161.2-131.3C2128.5,359.7,2122.7,290.5,2069.4,251.6z"/>
	<path class="st12" d="M1962.9,401.9c-23.9-15.8-53.1-29.8-61.5-47.7c-8.7-18.5-1.4-37.4,3.9-56c8.2-28.7,10.6-62.8-55.1-85.1
		c-58.4-19.9-147.5-23.2-224-31c-42.7-4.4-84-10.4-115.9-21c-30.6-10.2-52.2-22.8-78.3-34.2c-25.7-11.2-57-21-98.9-25.1
		c-47.3-4.6-97.9-2.4-145.8,0c-96.8,4.7-194.1,9-290.8,14.3c-92.9,0.1-186.7,4.4-269.1,19.2c-41.6,7.5-79.2,17.5-107.8,30
		c-33.1,14.4-51.7,31.8-85.8,46.1c-56.8,23.8-145.4,40.4-171.5,71c-14.9,17.5-8.9,35.9-7.1,53.7c2.1,20-7.4,39.3-15.6,59.1
		c-12.6,30.5-12.2,68.9,68.2,89.3c212.6,37.7,180.8,105.1,344.2,134.1c38.5,6.8,75.1,13.1,118.2,9.4c45.2-3.9,85.3-11.7,127.3-18.3
		c26.2-4.1,93.8,0.3,114.3,3.3c71.3,10.2,128.2,29.3,202.3,37.5c32.8,3.6,68.1,4.4,101.2,0.9c33.9-3.6,62-11.1,86.4-19.5
		c55.7-19.1,99.2-44.6,180.4-53c78.3-8.1,204.1-4.3,234.1-36.8c13.4-14.5,0.1-29.7,0.7-44.5c0.4-7.9,5.3-15.8,20.4-22.3
		c12.5-5.3,30-9.2,47.3-12.6c30.6-6.1,66.6-11.5,85.8-22C1993.5,428.3,1981.3,414.1,1962.9,401.9z"/>
	<g>
		<path class="st6" d="M538.5,485.3c-19.7-26.6,0.5-56.6,50.6-72.5c32.5-10.3,74.7-11.8,110.4-5.3c30.9,2.9,56.7,11.8,73.4,23.6
			l22.9-6.6c-20.3-14.4-51.7-25.2-89.3-28.8c-43.3-7.9-94.5-6-133.9,6.4c-60.8,19.3-85.2,55.7-61.4,87.9c3.4,4.5,7.6,9,12.6,13.2
			l24.8-7.2C544.7,492.5,541.3,489,538.5,485.3z"/>
		<path class="st13" d="M699.6,407.4c-35.7-6.5-77.9-5-110.4,5.3c-50.1,15.9-70.3,45.9-50.6,72.5c2.7,3.7,6.2,7.3,10.2,10.7L773,431
			C756.2,419.2,730.4,410.4,699.6,407.4z M646,433c0.4,0.5,0.3,0.9-0.2,1.3c-0.3,1-2.7,2-5.2,1.3c-4.9-1.2-11.8-2.2-15.5-4.2
			c-2.5-1.3-2.9-3.5,0.2-4.8C633.7,423.3,643.4,430,646,433z M572.7,442.7c3-1.8,8.4-1.5,11.9-0.2c4.6,1.8,7.4,4.8,9.4,7.4
			c1.2,1.5-2.6,2.4-5.1,1.8c-4.9-0.4-9.5-1.2-13.3-2.7C571.9,447.4,569.2,444.8,572.7,442.7z M580.3,458.4c-3.7,0.7-8,1.3-11.8,0.4
			c-3.2-0.7-5.6-2.4-4.7-4.1c1-2,5.3-2.9,9.3-2.6c4.1,0.3,6.8,1.9,9.1,3.4c0.4,0.3,0.5,0.6,0.5,0.9c0,0,0.1,0.1,0.1,0.1
			C583.3,457.4,582.1,458.1,580.3,458.4z M561.8,471.9c-3.8-1.6-3.2-4.2,1-5.5c4.5-1.4,11.7-0.9,16.9-1c0.6,0,1.1,0,1.6,0.1
			c2,0.1,3.9,0.8,3.1,2C581.6,471.1,569.7,475.2,561.8,471.9z M713.7,428.7c4,1.1,4.1,3.5,1.5,5.1c-3.2,2-9.4,3.1-13.9,4.4
			c-2.2,0.6-4.3,0-4.9-0.9c-0.6-0.3-0.9-0.8-0.7-1.3C697.1,432.7,704.7,426.3,713.7,428.7z M684.1,422.5c5.3,0.2,6.7,2.8,5.1,4.8
			c-1.7,2.1-5.2,4-8.9,5.4c-1.1,1.2-5.7,1.5-6.6-0.1C671.9,429.3,674,422.1,684.1,422.5z M665.7,425.3c0.2,2.6-1.5,5.1-4.4,7.3
			c-0.4,0.3-0.9,0.5-1.5,0.6c-1.5,0.5-3.7,0.5-4.7-0.5c-2.5-2.4-3.9-5-3.4-7.7c0.3-2,1.7-5.1,7.4-4.8
			C664.5,420.5,665.6,423.3,665.7,425.3z"/>
		<path class="st14" d="M696.4,437.3c0.6,0.9,2.7,1.6,4.9,0.9c4.4-1.3,10.6-2.5,13.9-4.4c2.6-1.6,2.6-4-1.5-5.1
			c-9-2.4-16.6,4.1-18,7.3C695.5,436.5,695.8,436.9,696.4,437.3z"/>
		<path class="st14" d="M673.6,432.5c0.9,1.6,5.5,1.4,6.6,0.1c3.7-1.4,7.2-3.3,8.9-5.4c1.6-2,0.2-4.6-5.1-4.8
			C674,422.1,671.9,429.3,673.6,432.5z"/>
		<path class="st14" d="M659.1,420.2c-5.8-0.3-7.1,2.8-7.4,4.8c-0.5,2.7,0.9,5.3,3.4,7.7c1,1,3.2,1,4.7,0.5c0.6-0.1,1.1-0.3,1.5-0.6
			c2.9-2.2,4.6-4.7,4.4-7.3C665.6,423.3,664.5,420.5,659.1,420.2z"/>
		<path class="st14" d="M625.1,431.4c3.7,2,10.6,3,15.5,4.2c2.6,0.6,4.9-0.3,5.2-1.3c0.5-0.3,0.6-0.8,0.2-1.3
			c-2.6-3-12.3-9.7-20.7-6.3C622.2,427.9,622.6,430.1,625.1,431.4z"/>
		<path class="st14" d="M588.9,451.7c2.5,0.6,6.2-0.2,5.1-1.8c-2-2.6-4.8-5.6-9.4-7.4c-3.4-1.3-8.9-1.6-11.9,0.2
			c-3.5,2.1-0.9,4.7,2.9,6.2C579.4,450.5,584,451.3,588.9,451.7z"/>
		<path class="st14" d="M582.8,456.4C582.7,456.4,582.7,456.4,582.8,456.4c0-0.4-0.2-0.7-0.6-0.9c-2.3-1.5-5-3-9.1-3.4
			c-4-0.3-8.4,0.6-9.3,2.6c-0.8,1.7,1.6,3.4,4.7,4.1c3.8,0.9,8.1,0.3,11.8-0.4C582.1,458.1,583.3,457.4,582.8,456.4z"/>
		<path class="st14" d="M581.3,465.5c-0.4-0.1-1-0.2-1.6-0.1c-5.1,0.1-12.4-0.3-16.9,1c-4.3,1.3-4.8,3.9-1,5.5
			c7.9,3.3,19.8-0.8,22.5-4.5C585.2,466.3,583.3,465.5,581.3,465.5z"/>
	</g>
	<g>
		<path class="st6" d="M1210.8,548.8c27.4,32.5,103.6,54.2,177.8,51.1c35.1-1.5,67-8.6,91.1-19.4l-18.2-9.3
			c-19.9,8.9-46.3,14.9-75.4,16.1c-61.2,2.6-124.1-15.3-146.7-42.2c-20.3-24.1,3.2-49.4,44.1-64.9l-19.7-10
			C1214.5,489.1,1186.2,519.6,1210.8,548.8z"/>
		<path class="st13" d="M1239.4,545.2c22.6,26.8,85.5,44.7,146.7,42.2c29.1-1.2,55.5-7.2,75.4-16.1l-178-90.9
			C1242.5,495.8,1219.1,521.1,1239.4,545.2z M1267.9,526.8c0.3-2.4,5.3-3.8,10.1-3.6c5.5,0.2,11.1,1.7,16.1,2.6
			c0.5,0.1,1,0.2,1.3,0.4c1.6,0.7,1.9,2.1-0.7,2.6c-5.4,1-11.2,1.8-17,1.8C1273,530.6,1267.7,529.3,1267.9,526.8z M1273,541.1
			c-1.1-2.1,2.9-3.8,6.6-4.7c4.7-1,10.1-1.1,15-0.3c0.6,0.1,1,0.2,1.4,0.4c1.6,0.4,2.7,1.4,1.4,2.3c-3,2.2-7.6,3.8-13,4.5
			C1280,543.9,1274.2,543.5,1273,541.1z M1329.2,567c-3.8,1.3-9.5,1.5-12.3-0.6c-6.6-4.9,11.3-8.5,18.9-8.9c3.5-0.2,5,1.8,3.3,2.7
			c0,0.1-0.1,0.2-0.1,0.3C1337,563,1333.8,565.5,1329.2,567z M1352.1,570.7c-4.9-0.3-6.2-2.7-5.5-4.6c1-2.4,3.5-4.7,6.6-6.6
			c1.1-0.7,2.8-0.8,4.1-0.5c1.3,0.1,2.5,0.5,2.8,1.3C1361.4,563.2,1362.9,571.3,1352.1,570.7z M1385,570.2c-4.9,1-9.5-0.7-11.4-2.7
			c-2.2-2.3-2.4-5.1-1.3-7.6c0.2-0.4,0.5-0.7,1-0.9c0.7-0.9,2.9-1.6,5-0.8C1383.5,560.3,1396.3,567.9,1385,570.2z M1302.8,515.9
			c0.6,0.3,0.8,0.7,0.7,1.1c0.2,0.9-1.1,1.9-3.6,1.8c-6.9-0.3-24.3-3.2-19.8-7.8c1.8-1.9,6.5-2.1,10.1-1.2
			C1295.2,511,1299.3,513.8,1302.8,515.9z"/>
		<path class="st14" d="M1373.3,559c-0.5,0.2-0.8,0.5-1,0.9c-1.1,2.5-0.9,5.2,1.3,7.6c1.9,2,6.5,3.7,11.4,2.7
			c11.3-2.4-1.5-9.9-6.7-11.9C1376.3,557.5,1374,558.1,1373.3,559z"/>
		<path class="st14" d="M1357.4,559c-1.3-0.3-3-0.2-4.1,0.5c-3.2,1.9-5.7,4.2-6.6,6.6c-0.8,1.9,0.5,4.4,5.5,4.6
			c10.8,0.6,9.3-7.6,8.1-10.5C1360,559.5,1358.8,559.1,1357.4,559z"/>
		<path class="st14" d="M1339,560.2c1.8-0.9,0.3-2.9-3.3-2.7c-7.6,0.4-25.4,4.1-18.9,8.9c2.7,2,8.5,1.9,12.3,0.6
			c4.6-1.6,7.8-4.1,9.7-6.5C1338.9,560.4,1339,560.3,1339,560.2z"/>
		<path class="st14" d="M1280.1,510.9c-4.4,4.7,12.9,7.6,19.8,7.8c2.5,0.1,3.8-0.9,3.6-1.8c0-0.3-0.2-0.7-0.7-1.1
			c-3.5-2.1-7.6-4.9-12.7-6.2C1286.6,508.8,1281.8,509,1280.1,510.9z"/>
		<path class="st14" d="M1277.6,530.6c5.9,0,11.7-0.7,17-1.8c2.6-0.5,2.3-1.9,0.7-2.6c-0.3-0.2-0.8-0.3-1.3-0.4
			c-5-0.9-10.6-2.4-16.1-2.6c-4.7-0.2-9.8,1.2-10.1,3.6C1267.7,529.3,1273,530.6,1277.6,530.6z"/>
		<path class="st14" d="M1284.4,543.4c5.4-0.7,10-2.3,13-4.5c1.3-0.9,0.3-1.9-1.4-2.3c-0.3-0.2-0.8-0.3-1.4-0.4
			c-4.9-0.8-10.2-0.7-15,0.3c-3.7,0.8-7.7,2.5-6.6,4.7C1274.2,543.5,1280,543.9,1284.4,543.4z"/>
	</g>
	<g>
		<path class="st6" d="M1405.2,439c60.6,20.6,149.9,19.7,208.9-1.5c27.9-10,46.5-24.1,54.4-39.2l-26.1-3.3
			c-6.4,12.5-21.8,24.2-45,32.5c-48.7,17.5-122.3,18.2-172.3,1.2c-44.9-15.2-54.3-42.4-37.7-65.7l-28.2-3.5
			C1339.4,387.7,1350.9,420.6,1405.2,439z"/>
		<path class="st13" d="M1425.2,428.8c50,17,123.6,16.3,172.3-1.2c23.1-8.3,38.5-20,45-32.5l-254.9-32
			C1370.9,386.4,1380.3,413.5,1425.2,428.8z M1428,406.1c-2.5-2.1,0.1-4.5,4.3-5.5c4.9-1.2,11.3-1.3,16.6-1.8c0.6-0.1,1.1,0,1.6,0
			c2.2,0.2,4,1.3,2.4,2.4c-3.3,2.2-7.4,4.3-12.3,5.8C1436.7,408.1,1430.7,408.3,1428,406.1z M1448.8,416.9c-3.3-1.5-2-4,0.2-5.6
			c2.8-2.1,7.2-3.4,12.3-4c0.6-0.1,1.1-0.1,1.6,0c1.9,0,3.8,0.5,3.8,1.6c0,2.6-2,5.1-5.8,7.1
			C1457.9,417.5,1452.6,418.6,1448.8,416.9z M1526.1,424.7c-1.7,2-6.4,3.6-11,2.6c-11.2-2.5-0.3-10,5.6-12.3
			c2.7-1.1,6.3,0.2,5.9,1.5c0.1,0.1,0.1,0.2,0.2,0.3C1528,419.3,1528.2,422.2,1526.1,424.7z M1549.7,422.1c-4.4,1-8.4-0.7-9.9-2.5
			c-2-2.3-2.5-4.8-2-7.2c0.2-0.9,1.5-1.3,2.9-1.5c1.2-0.3,2.7-0.2,3.8,0.4C1548.8,413.4,1559.5,419.8,1549.7,422.1z M1576.8,413.4
			c-2.9,2.1-8.8,1.8-12.7,0.6c-4.5-1.4-7.9-3.7-9.8-6.1c-0.3-0.4-0.3-0.7-0.2-1c-0.5-1,0.6-2.1,3.3-1.9
			C1564.1,405.4,1583.6,408.6,1576.8,413.4z M1444.9,388.2c0.9,0.1,1.5,0.4,1.8,0.7c1.2,0.7,1.3,1.9-1,2.4
			c-6.2,1.5-24.1,3.4-25.8-1.6c-0.7-2,3-3.4,7.1-3.5C1432.8,386,1439.5,387.3,1444.9,388.2z"/>
		<path class="st14" d="M1554.1,406.9c-0.1,0.3-0.1,0.6,0.2,1c1.9,2.3,5.3,4.6,9.8,6.1c3.9,1.2,9.8,1.5,12.7-0.6
			c6.8-4.8-12.7-8-19.4-8.4C1554.7,404.8,1553.6,405.9,1554.1,406.9z"/>
		<path class="st14" d="M1540.7,410.8c-1.4,0.1-2.7,0.6-2.9,1.5c-0.4,2.4,0.1,5,2,7.2c1.6,1.8,5.5,3.5,9.9,2.5
			c9.7-2.2-0.9-8.7-5.2-10.9C1543.3,410.6,1541.9,410.6,1540.7,410.8z"/>
		<path class="st14" d="M1526.5,416.5c0.4-1.2-3.2-2.5-5.9-1.5c-5.9,2.3-16.8,9.8-5.6,12.3c4.7,1,9.3-0.6,11-2.6
			c2.1-2.5,1.9-5.4,0.6-7.9C1526.7,416.6,1526.6,416.6,1526.5,416.5z"/>
		<path class="st14" d="M1419.9,389.7c1.7,5.1,19.6,3.1,25.8,1.6c2.3-0.5,2.2-1.7,1-2.4c-0.4-0.3-1-0.6-1.8-0.7
			c-5.4-0.9-12-2.2-17.8-2.1C1423,386.2,1419.3,387.7,1419.9,389.7z"/>
		<path class="st14" d="M1440.6,406.9c4.9-1.5,9-3.5,12.3-5.8c1.6-1.1-0.2-2.2-2.4-2.4c-0.5-0.1-1-0.1-1.6,0
			c-5.3,0.5-11.8,0.6-16.6,1.8c-4.2,1-6.9,3.5-4.3,5.5C1430.7,408.3,1436.7,408.1,1440.6,406.9z"/>
		<path class="st14" d="M1461,416c3.8-1.9,5.7-4.5,5.8-7.1c0-1.1-2-1.7-3.8-1.6c-0.5-0.1-1-0.1-1.6,0c-5,0.6-9.5,2-12.3,4
			c-2.2,1.6-3.5,4.1-0.2,5.6C1452.6,418.6,1457.9,417.5,1461,416z"/>
	</g>
	<g>
		<path class="st6" d="M1139.9,479.4c69.4-3,130.5-29.1,143.8-60.8c6.3-15,0.8-30.1-13.6-42.9l-22.5,5.2
			c12,10.6,16.6,23.1,11.4,35.5c-10.9,26.1-61.4,47.7-118.6,50.1c-51.4,2.2-93.7-14.1-112.8-35.1l-24.3,5.6
			C1026.5,462.4,1077.7,482,1139.9,479.4z"/>
		<path class="st13" d="M1140.4,466.5c57.2-2.5,107.7-24,118.6-50.1c5.2-12.4,0.6-25-11.4-35.5l-220,50.6
			C1046.7,452.4,1089,468.7,1140.4,466.5z M1112.6,449.9c-4.5-0.7-5.8-3.2-4.3-5.1c1.8-2.2,6.1-4.2,9.2-6c0.3-0.2,0.7-0.3,1.1-0.4
			c1.8-0.5,4.5-0.3,4.8,1c0.6,2.5,0.5,5.1-1,7.5C1121.2,448.8,1117.2,450.6,1112.6,449.9z M1141.3,451.5c-4.3-0.1-6.6-2.2-7.2-4
			c-0.8-2.2,0.5-4.5,3.3-6.3c0.3-0.2,0.7-0.4,1.1-0.5c1.2-0.6,3.3-0.7,4.8,0c3.4,1.8,5.4,4.1,5.3,6.6
			C1148.4,449.3,1146.2,451.6,1141.3,451.5z M1205.4,434.8c1.5,1.9,0.3,4.3-4.3,5c-11.1,1.5-13.4-6.9-12.3-10.2
			c0.5-1.5,4.7-1.6,6-0.7c0.2,0,0.3,0.1,0.5,0.1C1199.6,430.5,1203.6,432.5,1205.4,434.8z M1218.4,426.2c-1.8,2-6.8,1.9-10.3,1.1
			c-4.3-1-8.1-2.6-10.9-4.5c-1-0.6-0.7-1.4,0.1-1.9c0.5-0.5,1.6-0.9,3.1-0.9C1206.4,420.4,1222.3,421.9,1218.4,426.2z M1225.9,412.4
			c0.7,2.3-3.7,3.8-8.1,4c-5,0.3-10.4-0.3-14.9-1.4c-0.7-0.2-1.1-0.4-1.4-0.6c-1.6-0.5-2.3-1.6-0.2-2.3
			C1206.6,410.5,1224.3,407.1,1225.9,412.4z M1100.7,432.6c0.8-0.1,1.6-0.1,2.2,0c1.8,0.2,3.4,1,2.5,2c-2.3,2.8-12.3,9.3-20.1,6.2
			c-3.1-1.2-2.4-3.3,0.3-4.5C1089.4,434.5,1095.7,433.5,1100.7,432.6z"/>
		<path class="st14" d="M1201.5,414.4c0.3,0.3,0.8,0.5,1.4,0.6c4.4,1.1,9.8,1.7,14.9,1.4c4.4-0.3,8.8-1.7,8.1-4
			c-1.6-5.3-19.3-1.9-24.6-0.3C1199.2,412.7,1199.9,413.8,1201.5,414.4z"/>
		<path class="st14" d="M1197.3,421c-0.8,0.5-1.1,1.2-0.1,1.9c2.9,1.8,6.6,3.4,10.9,4.5c3.5,0.8,8.5,0.9,10.3-1.1
			c3.9-4.3-12.1-5.8-17.9-6.1C1198.9,420,1197.8,420.4,1197.3,421z"/>
		<path class="st14" d="M1194.9,428.9c-1.4-1-5.5-0.9-6,0.7c-1.1,3.3,1.2,11.6,12.3,10.2c4.6-0.6,5.8-3.1,4.3-5
			c-1.8-2.3-5.8-4.3-10-5.7C1195.2,429,1195,429,1194.9,428.9z"/>
		<path class="st14" d="M1085.3,440.7c7.8,3.1,17.8-3.4,20.1-6.2c0.9-1-0.7-1.8-2.5-2c-0.7-0.1-1.4-0.1-2.2,0
			c-4.9,0.9-11.3,1.9-15.2,3.7C1082.8,437.5,1082.1,439.5,1085.3,440.7z"/>
		<path class="st14" d="M1122.4,446.9c1.5-2.4,1.7-5,1-7.5c-0.3-1.2-3-1.5-4.8-1c-0.4,0.1-0.8,0.2-1.1,0.4c-3.1,1.9-7.4,3.8-9.2,6
			c-1.6,1.9-0.2,4.4,4.3,5.1C1117.2,450.6,1121.2,448.8,1122.4,446.9z"/>
		<path class="st14" d="M1148.5,447.3c0.1-2.4-1.9-4.8-5.3-6.6c-1.5-0.8-3.6-0.6-4.8,0c-0.4,0.1-0.8,0.3-1.1,0.5
			c-2.7,1.9-4,4.1-3.3,6.3c0.6,1.8,2.9,3.9,7.2,4C1146.2,451.6,1148.4,449.3,1148.5,447.3z"/>
	</g>
	<g>
		<path class="st6" d="M1165.1,353.4c61.5-12,101.2-44.1,93.8-74.8c-3.5-14.5-17.9-27.6-38.9-37.3l-17.4,7.7
			c17.5,8,29.4,18.9,32.3,30.9c6.2,25.3-26.6,51.8-77.3,61.7c-45.6,8.9-94.3-0.3-124.7-16.9l-18.7,8.4
			C1051.2,353.2,1110,364.2,1165.1,353.4z"/>
		<path class="st13" d="M1157.7,341.6c50.7-9.9,83.5-36.4,77.3-61.7c-2.9-12-14.9-22.9-32.3-30.9L1033,324.7
			C1063.4,341.4,1112.1,350.6,1157.7,341.6z M1122,330.2c-4.5-0.1-7.3-2.1-7.1-4.1c0.3-2.3,3-4.6,4.7-6.7c0.2-0.2,0.4-0.4,0.7-0.5
			c1.3-0.7,3.9-0.8,5,0.2c2.1,2.2,3.6,4.6,3.7,7C1129.2,328,1126.7,330.3,1122,330.2z M1149.2,327.8c-4,0.5-7.4-1.1-9-2.6
			c-2.1-1.9-2.3-4.1-0.9-6.2c0.2-0.2,0.4-0.4,0.7-0.6c0.8-0.7,2.6-1.1,4.4-0.6c4.2,1.2,7.5,3.1,8.9,5.3
			C1154.3,324.8,1153.7,327.2,1149.2,327.8z M1197.4,304c2.5,1.5,3,3.9-0.9,5.1c-9.2,2.8-16.4-4.5-17.5-7.6
			c-0.5-1.5,3.3-2.1,5.1-1.4c0.2,0,0.4,0,0.5,0.1C1189.5,300.8,1194.3,302.1,1197.4,304z M1204,294.4c-0.4,2-5,2.6-8.7,2.4
			c-4.6-0.3-9-1.3-12.7-2.6c-1.3-0.5-1.5-1.1-1.1-1.7c0.1-0.5,0.8-1.1,2.3-1.2C1189.4,290.7,1204.9,289.9,1204,294.4z M1202.3,280.7
			c2.1,2-1.1,4-4.9,4.8c-4.4,1-9.7,1.1-14.4,0.7c-0.7-0.1-1.3-0.2-1.7-0.4c-1.8-0.3-3.1-1.2-1.6-2.1
			C1183.5,281.6,1197.6,276.1,1202.3,280.7z M1100.4,316c0.6-0.2,1.3-0.3,2-0.3c1.7-0.1,3.7,0.4,3.5,1.5c-0.4,2.9-5.5,10.1-14.6,8.4
			c-3.6-0.7-4.2-2.7-2.5-4.1C1091.3,319.2,1096.5,317.5,1100.4,316z"/>
		<path class="st14" d="M1181.3,285.8c0.4,0.2,1,0.3,1.7,0.4c4.7,0.4,10,0.3,14.4-0.7c3.8-0.8,7-2.8,4.9-4.8
			c-4.7-4.6-18.8,0.8-22.7,3C1178.2,284.6,1179.4,285.5,1181.3,285.8z"/>
		<path class="st14" d="M1181.5,292.4c-0.5,0.6-0.3,1.2,1.1,1.7c3.7,1.3,8.1,2.3,12.7,2.6c3.7,0.3,8.3-0.3,8.7-2.4
			c0.8-4.5-14.6-3.7-20.1-3.2C1182.4,291.3,1181.6,291.9,1181.5,292.4z"/>
		<path class="st14" d="M1184.2,300c-1.8-0.7-5.6,0-5.1,1.4c1,3.1,8.3,10.5,17.5,7.6c3.9-1.2,3.4-3.6,0.9-5.1
			c-3.1-1.9-7.9-3.2-12.7-3.9C1184.6,300,1184.4,300,1184.2,300z"/>
		<path class="st14" d="M1091.4,325.5c9,1.7,14.2-5.5,14.6-8.4c0.1-1.1-1.8-1.6-3.5-1.5c-0.7,0-1.4,0.1-2,0.3
			c-4,1.5-9.1,3.3-11.6,5.4C1087.2,322.8,1087.8,324.8,1091.4,325.5z"/>
		<path class="st14" d="M1129.1,326.1c-0.1-2.4-1.6-4.8-3.7-7c-1-1.1-3.6-0.9-5-0.2c-0.3,0.1-0.6,0.3-0.7,0.5
			c-1.7,2.1-4.4,4.5-4.7,6.7c-0.3,2,2.5,4,7.1,4.1C1126.7,330.3,1129.2,328,1129.1,326.1z"/>
		<path class="st14" d="M1153.2,323c-1.4-2.2-4.6-4.1-8.9-5.3c-1.8-0.5-3.6-0.1-4.4,0.6c-0.3,0.1-0.6,0.3-0.7,0.6
			c-1.4,2.1-1.2,4.3,0.9,6.2c1.6,1.5,5,3.1,9,2.6C1153.7,327.2,1154.3,324.8,1153.2,323z"/>
	</g>
	<g>
		<path class="st6" d="M768,381.2c35.5,26.3,109.9,39.3,173.7,30.9c30.1-4,55.5-12.7,72.7-24l-19.2-6.7
			c-14.2,9.4-35.2,16.6-60.2,19.9c-52.6,7-113.9-3.8-143.2-25.5c-26.3-19.5-14.8-43.4,15.4-60.1l-20.8-7.2
			C749.9,328.7,736.1,357.6,768,381.2z"/>
		<path class="st13" d="M791.7,375.8c29.3,21.7,90.6,32.4,143.2,25.5c25-3.3,46-10.6,60.2-19.9l-188-65.7
			C776.9,332.4,765.4,356.3,791.7,375.8z M810.1,357.5c-0.6-2.1,3.3-3.7,7.5-3.9c4.9-0.2,10.3,0.6,15,1.1c0.5,0,0.9,0.1,1.3,0.3
			c1.7,0.5,2.4,1.7,0.3,2.3c-4.3,1.3-9.2,2.4-14.3,2.9C815.9,360.5,810.7,359.7,810.1,357.5z M819.6,369.6c-1.7-1.8,1.2-3.6,4.1-4.6
			c3.8-1.3,8.4-1.7,13-1.4c0.5,0,1,0.1,1.3,0.2c1.6,0.2,2.8,1,2,1.9c-1.9,2.1-5.3,3.9-9.8,4.9C826.7,371.5,821.6,371.6,819.6,369.6z
			 M878,387.9c-2.9,1.4-7.8,2-10.9,0.4c-7.5-3.8,6.8-8.3,13.3-9.3c3-0.5,5,1.2,3.8,2.1c0,0.1,0,0.2,0,0.3
			C883.3,383.8,881.5,386.2,878,387.9z M899.4,389.4c-4.4,0.2-6.4-1.9-6.4-3.6c0-2.2,1.4-4.4,3.4-6.3c0.7-0.7,2.2-0.9,3.4-0.8
			c1.2,0,2.4,0.2,2.9,0.9C904.8,382.1,909,389,899.4,389.4z M927.9,386.4c-3.9,1.3-8.5,0.2-10.9-1.5c-2.7-1.9-3.9-4.3-3.8-6.5
			c0-0.3,0.2-0.6,0.6-0.8c0.3-0.9,2-1.6,4.1-1.1C923.1,377.8,936.9,383.4,927.9,386.4z M836.7,345.3c0.6,0.3,0.9,0.6,1,0.9
			c0.5,0.8-0.3,1.8-2.5,1.9c-6.2,0.3-22.3-0.9-20.1-5.3c0.9-1.8,5-2.4,8.4-1.8C828.3,341.6,832.9,343.7,836.7,345.3z"/>
		<path class="st14" d="M913.7,377.5c-0.3,0.2-0.6,0.5-0.6,0.8c-0.1,2.2,1.1,4.7,3.8,6.5c2.4,1.6,7,2.8,10.9,1.5
			c9-2.9-4.8-8.5-10.1-9.9C915.7,375.9,914,376.6,913.7,377.5z"/>
		<path class="st14" d="M899.8,378.7c-1.3-0.1-2.7,0.1-3.4,0.8c-2.1,1.9-3.4,4.1-3.4,6.3c0,1.7,2,3.8,6.4,3.6
			c9.6-0.3,5.4-7.3,3.4-9.8C902.2,378.9,901,378.7,899.8,378.7z"/>
		<path class="st14" d="M884.1,381.2c1.2-1-0.8-2.6-3.8-2.1c-6.5,1-20.8,5.5-13.3,9.3c3.1,1.6,8.1,1,10.9-0.4
			c3.5-1.7,5.4-4.2,6.1-6.5C884.1,381.4,884.1,381.3,884.1,381.2z"/>
		<path class="st14" d="M815,342.7c-2.2,4.4,14,5.6,20.1,5.3c2.2-0.1,3-1.1,2.5-1.9c-0.1-0.3-0.4-0.6-1-0.9
			c-3.8-1.6-8.4-3.7-13.3-4.4C820,340.3,815.9,340.9,815,342.7z"/>
		<path class="st14" d="M819.9,360.1c5.1-0.4,10-1.5,14.3-2.9c2.1-0.7,1.4-1.8-0.3-2.3c-0.3-0.1-0.8-0.2-1.3-0.3
			c-4.7-0.4-10.1-1.3-15-1.1c-4.2,0.2-8.1,1.8-7.5,3.9C810.7,359.7,815.9,360.5,819.9,360.1z"/>
		<path class="st14" d="M830.3,370.7c4.5-1,7.9-2.8,9.8-4.9c0.8-0.9-0.5-1.7-2-1.9c-0.4-0.1-0.8-0.2-1.3-0.2
			c-4.6-0.3-9.2,0.2-13,1.4c-2.9,1-5.8,2.8-4.1,4.6C821.6,371.6,826.7,371.5,830.3,370.7z"/>
	</g>
	<g>
		<path class="st6" d="M1418,293.5c74.9-1.5,143.7-28,161.6-61.7c8.5-15.9,4.3-32.3-9.6-46.4l-24.8,5c11.7,11.7,15.2,25.3,8.1,38.5
			c-14.8,27.8-71.5,49.7-133.3,50.9c-55.5,1.1-99.1-17.5-117.2-40.5l-26.8,5.4C1298.1,272.4,1350.9,294.8,1418,293.5z"/>
		<path class="st13" d="M1420,279.7c61.8-1.2,118.5-23.1,133.3-50.9c7-13.2,3.5-26.8-8.1-38.5l-242.3,48.9
			C1320.9,262.2,1364.5,280.8,1420,279.7z M1392.1,261.1c-4.7-0.9-5.9-3.6-4-5.6c2.2-2.3,7.1-4.3,10.6-6.2c0.4-0.2,0.8-0.3,1.2-0.4
			c2-0.5,4.9-0.2,5,1.2c0.4,2.7-0.1,5.5-2,8.1C1401.4,260.2,1397,262.1,1392.1,261.1z M1422.7,263.5c-4.6-0.2-6.8-2.5-7.3-4.4
			c-0.6-2.4,1.1-4.8,4.2-6.7c0.4-0.2,0.8-0.4,1.2-0.5c1.4-0.6,3.7-0.7,5.2,0.2c3.4,2,5.3,4.6,4.9,7.2
			C1430.6,261.4,1428,263.8,1422.7,263.5z M1493.5,247.2c1.4,2.1-0.1,4.7-5.2,5.2c-12.1,1.3-13.6-7.7-12-11.2
			c0.7-1.6,5.2-1.6,6.6-0.6c0.2,0,0.3,0.1,0.5,0.2C1487.8,242.5,1491.9,244.7,1493.5,247.2z M1508.6,238.3
			c-2.1,2.1-7.5,1.9-11.1,0.9c-4.5-1.2-8.4-3-11.2-5.1c-1-0.7-0.6-1.5,0.3-2c0.6-0.6,1.8-1,3.5-0.8
			C1496.3,231.8,1513.2,233.7,1508.6,238.3z M1518.2,223.7c0.5,2.5-4.5,4-9.2,4.1c-5.5,0.2-11.2-0.6-15.8-1.9
			c-0.7-0.2-1.2-0.4-1.5-0.7c-1.7-0.6-2.3-1.8,0.1-2.5C1497.6,221.1,1517.1,217.9,1518.2,223.7z M1381.3,242.2
			c0.9-0.1,1.7-0.1,2.4,0c1.9,0.2,3.5,1.1,2.5,2.2c-2.8,3-14.3,9.7-22.4,6.2c-3.2-1.4-2.2-3.6,0.8-4.8
			C1368.9,244,1375.8,243.1,1381.3,242.2z"/>
		<path class="st14" d="M1491.7,225.2c0.3,0.3,0.8,0.5,1.5,0.7c4.6,1.3,10.4,2.1,15.8,1.9c4.8-0.2,9.7-1.6,9.2-4.1
			c-1.1-5.7-20.6-2.6-26.4-0.9C1489.5,223.4,1490.1,224.6,1491.7,225.2z"/>
		<path class="st14" d="M1486.5,232.2c-1,0.5-1.3,1.3-0.3,2c2.9,2,6.7,3.9,11.2,5.1c3.7,1,9,1.2,11.1-0.9c4.7-4.6-12.3-6.6-18.6-7
			C1488.3,231.2,1487.1,231.6,1486.5,232.2z"/>
		<path class="st14" d="M1482.9,240.7c-1.3-1.1-5.8-1.1-6.6,0.6c-1.6,3.5-0.1,12.5,12,11.2c5.1-0.5,6.5-3.1,5.2-5.2
			c-1.7-2.6-5.7-4.8-10.1-6.4C1483.3,240.8,1483.1,240.7,1482.9,240.7z"/>
		<path class="st14" d="M1363.7,250.6c8.1,3.5,19.5-3.2,22.4-6.2c1-1.1-0.6-2-2.5-2.2c-0.7-0.1-1.5-0.2-2.4,0
			c-5.4,0.8-12.4,1.8-16.7,3.6C1361.5,247,1360.5,249.2,1363.7,250.6z"/>
		<path class="st14" d="M1403,258.1c1.9-2.6,2.4-5.4,2-8.1c-0.2-1.3-3.1-1.6-5-1.2c-0.4,0.1-0.9,0.2-1.2,0.4
			c-3.5,1.9-8.4,3.9-10.6,6.2c-1.9,2-0.7,4.7,4,5.6C1397,262.1,1401.4,260.2,1403,258.1z"/>
		<path class="st14" d="M1431,259.3c0.4-2.6-1.5-5.2-4.9-7.2c-1.5-0.9-3.8-0.7-5.2-0.2c-0.4,0.1-0.9,0.3-1.2,0.5
			c-3.2,1.9-4.8,4.3-4.2,6.7c0.4,1.9,2.6,4.2,7.3,4.4C1428,263.8,1430.6,261.4,1431,259.3z"/>
	</g>
	<g>
		<path class="st6" d="M1128,192.4c27-32.6,2.2-72.6-57-93.7c-28-10-61.9-14.7-95.2-14.4l-0.1,12.6c27.6-0.3,55.7,3.6,78.9,11.9
			c48.8,17.4,69.3,50.4,47,77.3c-20,24.2-73.9,35.4-126.5,33.9l-0.1,13.6C1038.8,235.3,1103.9,221.7,1128,192.4z"/>
		<path class="st13" d="M1101.7,186.1c22.3-26.9,1.8-59.9-47-77.3c-23.2-8.3-51.3-12.2-78.9-11.9L975.2,220
			C1027.8,221.5,1081.7,210.3,1101.7,186.1z M1054.1,190.6c-3.6,1.7-9.4,1.1-12.6-0.5c-3.7-1.9-5.7-4.7-8-7
			c-0.3-0.2-0.4-0.5-0.4-0.7c-0.2-1,1.6-2.1,4.3-1.7c5.5,0.9,10.8,2.2,15.1,4.1C1055.9,186.2,1057.8,188.9,1054.1,190.6z
			 M1071,178.5c-2.3,1.9-7.7,1.9-11.6,1.3c-5-0.7-9-2.4-11.5-4.5c-0.3-0.3-0.4-0.5-0.4-0.7c-0.6-0.8,0-1.9,2.4-2.1
			c5.4-0.7,11.2-0.4,16.1,0.8C1069.9,174.2,1073.6,176.3,1071,178.5z M1067.2,141.7c4.6,0.3,9.2,1.9,8.2,4.3
			c-2.3,5.7-20.6,2.7-26.9,0.7c-2.9-1-1.2-2.9,1.5-3c0.2-0.1,0.3-0.1,0.5-0.2C1055.5,142.2,1061.5,141.4,1067.2,141.7z
			 M1055.6,131.7c3.2,1.7,0.7,3.9-2.7,5.1c-4.2,1.5-9.3,2.4-14.4,2.8c-1.8,0.2-3.2-0.3-3.8-0.9c-0.9-0.5-1.2-1.1-0.3-1.8
			C1037.8,134.4,1048.5,127.9,1055.6,131.7z M1030.6,121.8c5.1,0.8,6,3.5,4.5,5.6c-1.8,2.4-5.7,4.5-10,6c-0.7,0.2-1.3,0.3-2,0.3
			c-1.9,0.5-4.5,0.2-4.8-1C1017.4,129.5,1018.9,120,1030.6,121.8z M1012.5,187.7c0.1-0.4,0.5-0.8,1-1c1.2-0.7,3.6-1.1,5.3-0.2
			c4.7,2.4,13.3,10,3.2,12c-4,0.8-7.9-0.5-9.2-2.3C1011,193.7,1012,190.4,1012.5,187.7z"/>
		<path class="st14" d="M1023.1,133.7c0.7,0,1.4-0.1,2-0.3c4.4-1.5,8.3-3.6,10-6c1.6-2.1,0.6-4.8-4.5-5.6
			c-11.7-1.8-13.2,7.8-12.4,10.9C1018.6,133.9,1021.2,134.2,1023.1,133.7z"/>
		<path class="st14" d="M1034.7,138.7c0.6,0.6,2,1.1,3.8,0.9c5.1-0.4,10.3-1.3,14.4-2.8c3.4-1.2,5.9-3.4,2.7-5.1
			c-7.1-3.8-17.8,2.6-21.2,5.2C1033.5,137.6,1033.9,138.2,1034.7,138.7z"/>
		<path class="st14" d="M1050,143.6c-2.7,0.1-4.4,2.1-1.5,3c6.2,2.1,24.6,5,26.9-0.7c0.9-2.4-3.6-4-8.2-4.3
			c-5.7-0.3-11.6,0.5-16.6,1.8C1050.4,143.5,1050.2,143.6,1050,143.6z"/>
		<path class="st14" d="M1022,198.5c10-2.1,1.5-9.6-3.2-12c-1.7-0.9-4.1-0.5-5.3,0.2c-0.5,0.2-0.9,0.6-1,1c-0.5,2.7-1.5,6,0.3,8.6
			C1014.1,198.1,1018,199.4,1022,198.5z"/>
		<path class="st14" d="M1052.5,184.8c-4.3-1.8-9.6-3.2-15.1-4.1c-2.7-0.5-4.5,0.7-4.3,1.7c0,0.2,0.1,0.5,0.4,0.7
			c2.4,2.3,4.3,5.1,8,7c3.2,1.6,9,2.2,12.6,0.5C1057.8,188.9,1055.9,186.2,1052.5,184.8z"/>
		<path class="st14" d="M1065.9,173.3c-5-1.2-10.7-1.4-16.1-0.8c-2.3,0.3-2.9,1.3-2.4,2.1c0,0.2,0.1,0.5,0.4,0.7
			c2.5,2.1,6.5,3.8,11.5,4.5c3.9,0.6,9.3,0.5,11.6-1.3C1073.6,176.3,1069.9,174.2,1065.9,173.3z"/>
	</g>
	<g>
		<path class="st6" d="M794.3,220.5c-56.4-23.1-145.4-26-208.3-7.4c-29.7,8.8-51.1,22-61.8,36.7l25.3,4.4
			c8.9-12.2,26.5-23.1,51.1-30.4c51.9-15.4,125.3-12.9,171.8,6.1c41.8,17.1,45.8,44.5,24.7,67.1l27.3,4.7
			C849.7,274.4,844.8,241.2,794.3,220.5z"/>
		<path class="st13" d="M772.4,229.8c-46.5-19-119.9-21.4-171.8-6.1c-24.7,7.3-42.3,18.3-51.1,30.4l247.6,42.7
			C818.1,274.4,814.1,246.9,772.4,229.8z M765.1,252.3c2.1,2.2-1,4.5-5.4,5.3c-5.1,1-11.5,0.8-16.9,1.1c-0.6,0-1.1,0-1.5-0.1
			c-2.1-0.3-3.8-1.4-1.9-2.5c3.7-2.1,8.2-4,13.4-5.2C756.9,250,762.9,250,765.1,252.3z M746.5,240.7c3,1.7,1.2,4-1.3,5.6
			c-3.2,1.9-7.9,3.1-13,3.5c-0.6,0-1.1,0-1.6-0.1c-1.9,0-3.7-0.7-3.5-1.8c0.5-2.6,3-5,7.1-6.8C737.6,239.7,743.1,238.8,746.5,240.7z
			 M671.1,229.6c2.1-1.9,7-3.3,11.5-2.1c10.6,2.9-1.7,10-8,12c-2.9,0.9-6.2-0.5-5.6-1.7c-0.1-0.1-0.1-0.2-0.1-0.3
			C668.2,234.9,668.5,232,671.1,229.6z M647.1,231.3c4.6-0.8,8.2,1.1,9.4,2.9c1.5,2.3,1.5,4.9,0.6,7.3c-0.3,0.9-1.7,1.3-3.2,1.3
			c-1.2,0.2-2.7,0.1-3.8-0.5C646.2,240,636.9,233.1,647.1,231.3z M618.4,238.7c3.3-2,9.1-1.4,12.8,0c4.2,1.6,7.1,4,8.6,6.5
			c0.2,0.4,0.2,0.7,0,1c0.3,1-1,2-3.7,1.8C629.4,247.2,610.7,243.3,618.4,238.7z M744.9,269.4c-0.8-0.2-1.4-0.5-1.7-0.8
			c-1-0.8-0.9-1.9,1.5-2.4c6.4-1.2,24.7-2.4,25.3,2.7c0.3,2.1-3.7,3.3-7.7,3.2C756.4,272.1,750,270.6,744.9,269.4z"/>
		<path class="st14" d="M639.7,246.2c0.2-0.3,0.2-0.6,0-1c-1.5-2.4-4.4-4.9-8.6-6.5c-3.7-1.4-9.4-1.9-12.8,0
			c-7.7,4.5,11.1,8.5,17.7,9.2C638.7,248.2,640,247.2,639.7,246.2z"/>
		<path class="st14" d="M653.9,242.8c1.5-0.1,2.8-0.5,3.2-1.3c0.9-2.4,0.9-4.9-0.6-7.3c-1.2-1.9-4.8-3.8-9.4-2.9
			c-10.1,1.8-0.8,8.7,3.1,11C651.2,242.9,652.6,243,653.9,242.8z"/>
		<path class="st14" d="M669.1,237.8c-0.6,1.2,2.6,2.7,5.6,1.7c6.3-2,18.6-9,8-12c-4.5-1.2-9.4,0.2-11.5,2.1
			c-2.6,2.4-2.9,5.3-2.2,7.9C669,237.6,669,237.7,669.1,237.8z"/>
		<path class="st14" d="M770,269c-0.7-5.1-18.9-4-25.3-2.7c-2.4,0.4-2.5,1.6-1.5,2.4c0.3,0.3,0.9,0.6,1.7,0.8
			c5.2,1.1,11.5,2.7,17.4,2.8C766.3,272.3,770.2,271.1,770,269z"/>
		<path class="st14" d="M752.7,250.9c-5.2,1.2-9.7,3.1-13.4,5.2c-1.8,1-0.2,2.2,1.9,2.5c0.5,0.1,1,0.1,1.5,0.1
			c5.4-0.2,11.8-0.1,16.9-1.1c4.4-0.8,7.5-3.2,5.4-5.3C762.9,250,756.9,250,752.7,250.9z"/>
		<path class="st14" d="M734.2,241.1c-4.2,1.8-6.6,4.2-7.1,6.8c-0.2,1.1,1.6,1.7,3.5,1.8c0.5,0.1,1,0.1,1.6,0.1
			c5.1-0.4,9.8-1.5,13-3.5c2.5-1.5,4.3-3.9,1.3-5.6C743.1,238.8,737.6,239.7,734.2,241.1z"/>
	</g>
	<g>
		<path class="st6" d="M842,521.9c-36,30.7-22.8,71.8,29.9,96.4c24.9,11.6,57.2,18.4,90.3,20.1l3.6-12.5c-27.5-1.4-54.2-7-74.9-16.6
			c-43.4-20.3-54.4-54.2-24.7-79.5c26.7-22.7,83.3-30.5,135-25.8l3.9-13.5C942.7,485,874.3,494.5,842,521.9z"/>
		<path class="st13" d="M866.3,529.9c-29.7,25.3-18.8,59.2,24.7,79.5c20.6,9.6,47.4,15.3,74.9,16.6l35.5-122
			C949.6,499.3,893,507.2,866.3,529.9z M914.9,528.3c4.1-1.4,9.6-0.5,12.4,1.3c3.2,2.1,4.3,5.1,6,7.5c0.2,0.3,0.2,0.5,0.2,0.7
			c-0.1,1-2.2,2-4.7,1.4c-5.2-1.3-10.1-2.9-13.8-5C911.8,532.6,910.6,529.8,914.9,528.3z M894.6,539.3c2.8-1.7,8.2-1.4,11.9-0.6
			c4.8,1,8.2,2.9,10.1,5.2c0.2,0.3,0.3,0.5,0.2,0.7c0.3,0.8-0.6,1.8-2.9,2c-5.5,0.3-11.2-0.2-15.8-1.8
			C894.5,543.6,891.4,541.3,894.6,539.3z M888,576c-4.5-0.5-8.5-2.5-6.9-4.8c3.8-5.5,21.2-1.4,26.8,1c2.6,1.1,0.3,2.9-2.4,2.9
			c-0.2,0-0.3,0.1-0.6,0.1C899.7,576.2,893.5,576.6,888,576z M896.6,586.6c-2.7-1.9,0.5-4,4.1-4.9c4.6-1.2,9.9-1.8,15.1-1.9
			c1.9,0,3.1,0.5,3.5,1.2c0.7,0.5,0.8,1.2-0.3,1.8C915,585.1,902.6,590.8,896.6,586.6z M918.5,598c-4.8-1.1-5-3.8-2.9-5.8
			c2.5-2.3,6.9-4.1,11.7-5.3c0.7-0.2,1.4-0.2,2.1-0.2c2-0.3,4.5,0,4.5,1.3C933.8,591.1,929.6,600.5,918.5,598z M955.2,533.8
			c-0.2,0.4-0.7,0.7-1.3,0.9c-1.4,0.6-3.9,0.8-5.3-0.1c-4-2.7-10.3-10.7,0.2-12.1c4.2-0.6,7.7,1,8.5,2.8
			C958.4,527.9,956.5,531.2,955.2,533.8z"/>
	</g>
	<path class="st14" d="M919.3,581c-0.4-0.6-1.6-1.2-3.5-1.2c-5.2,0.1-10.5,0.7-15.1,1.9c-3.7,1-6.8,3-4.1,4.9
		c6,4.2,18.4-1.5,22.4-3.8C920.1,582.2,920,581.5,919.3,581z"/>
	<path class="st14" d="M905.5,575.1c2.7,0,5-1.8,2.4-2.9c-5.6-2.4-23-6.5-26.8-1c-1.6,2.3,2.4,4.2,6.9,4.8c5.5,0.7,11.7,0.2,17-0.7
		C905.1,575.2,905.3,575.2,905.5,575.1z"/>
	<path class="st14" d="M948.8,522.4c-10.5,1.4-4.2,9.5-0.2,12.1c1.5,1,3.9,0.8,5.3,0.1c0.6-0.2,1.1-0.5,1.3-0.9
		c1.2-2.6,3.1-5.8,2.1-8.5C956.6,523.4,953.1,521.9,948.8,522.4z"/>
	<path class="st14" d="M914.8,534.2c3.7,2.1,8.7,3.7,13.8,5c2.5,0.6,4.6-0.4,4.7-1.4c0.1-0.2,0-0.5-0.2-0.7c-1.7-2.4-2.8-5.4-6-7.5
		c-2.7-1.8-8.3-2.7-12.4-1.3C910.6,529.8,911.8,532.6,914.8,534.2z"/>
	<path class="st14" d="M898.2,544.8c4.6,1.5,10.2,2.1,15.8,1.8c2.4-0.1,3.3-1.1,2.9-2c0-0.2,0-0.5-0.2-0.7
		c-1.9-2.3-5.4-4.1-10.1-5.2c-3.7-0.8-9.1-1.1-11.9,0.6C891.4,541.3,894.5,543.6,898.2,544.8z"/>
	<g>
		<path class="st5" d="M682.6,405.1c-5.3-0.3-8.5,1.9-8.3,3.8c-14.3,29.9,20.6,60.6,82.2,71.5c3.6,0.6,7.5,0.3,9.4-1.4
			c16.1-14.3,17.1-31.8,1.7-46.3C751.5,417.5,718.6,407,682.6,405.1z"/>
	</g>
	<g>
		<path class="st5" d="M1298.1,197.9c-6,1.8-5.5,5.3-1.9,7.1c38.4,36.6,129.4,55,212.9,42.5c4.8-0.7,8.2-2.6,7.2-5.1
			c-8.7-21.1-38.9-39.6-80.7-48.8C1391.9,184.2,1338.9,186,1298.1,197.9z"/>
	</g>
	<g>
		<path class="st5" d="M1412.2,436.5c-1.7,2.4,2.2,4.3,6.3,4.6c60.8,13,133.9,3.3,170.3-23.1c2.1-1.5,2.2-3.4-1-4.7
			c-27.1-10.5-64.3-14.7-98.5-10.6C1453.3,407.1,1423.9,420.2,1412.2,436.5z"/>
	</g>
	<g>
		<path class="st5" d="M1099.1,387c2.3,2.3,8,2.5,11.4,1.4c63.4-9.9,102.4-40.3,90.3-71.1c-0.7-1.8-3.4-3.2-7.6-3.1
			c-35.2,1-68.4,9.8-87.4,23.7C1086,352.5,1083.7,371.4,1099.1,387z"/>
	</g>
	<g>
		<path class="st5" d="M1348.3,496.2c-2.5-3.1-9.9-3.5-14.6-2.3c-84.6,10.2-141.5,48.1-131.9,88.8c0.6,2.3,3.8,4.3,9.3,4.3
			c46,0.2,91.1-9.8,118.6-27.1C1358.5,541.8,1365.3,517.2,1348.3,496.2z"/>
	</g>
	<g>
		<path class="st5" d="M728.4,564.8c0.3,3.3,7.1,4.8,12.3,4.3c87.2,2.6,166.7-25.1,184.8-65.1c1-2.3-0.8-4.6-5.9-5.4
			c-43.6-6.9-93.1-3.9-130.8,8.5C749.2,520,726.4,542.4,728.4,564.8z"/>
	</g>
	<g>
		<g>
			<path class="st5" d="M942.2,231.1c7.1,0,10.7-3,9.9-5.5c10.2-40.4-44.9-78.9-129.6-89.5c-4.9-0.6-10,0.1-12,2.5
				c-17.2,19.9-13.4,43.1,11.2,61.4C847.4,219,894.1,230.8,942.2,231.1z"/>
		</g>
		<g>
			<path class="st5" d="M1117.9,251.8c4.3-1.7,3.2-4.4,0-5.7c-37.8-26.9-113-37.2-175.8-23.6c-3.6,0.8-5.9,2.4-4.6,4.3
				c11.2,16.1,38.8,29.3,73.5,34.5C1047.3,266.9,1088.5,263,1117.9,251.8z"/>
		</g>
		<g>
			<path class="st5" d="M761.3,297.4c0.6,3.3,7.6,4.6,12.8,4c87.3,0.6,163.8-28.9,177.7-69.3c0.8-2.3-1.3-4.6-6.5-5.3
				c-44.2-5.9-93.4-1.8-129.8,11.5C777.5,252.2,757,275.1,761.3,297.4z"/>
		</g>
	</g>
	<g>
		<path class="st6" d="M1726.8,322.8c24.3,34.9,98.3,63.5,172.5,67.3c35.1,1.8,67.5-2.4,92.4-10.9l-17.3-10.9
			c-20.6,7.1-47.5,10.6-76.5,9.1c-61.2-3.1-122.2-26.7-142.3-55.5c-18-25.9,7.6-48.9,49.7-60.5l-18.7-11.8
			C1735.8,263.7,1705,291.5,1726.8,322.8z"/>
		<path class="st13" d="M1755.6,321.9c20.1,28.8,81.1,52.4,142.3,55.5c29.1,1.5,56-2,76.5-9.1l-169.1-106.9
			C1763.2,273,1737.6,296,1755.6,321.9z M1785.7,306.2c0.5-2.3,5.7-3.3,10.3-2.6c5.4,0.7,10.9,2.7,15.8,4.1c0.5,0.1,0.9,0.3,1.2,0.5
			c1.6,0.9,1.7,2.3-1,2.5c-5.4,0.5-11.3,0.7-17.1,0.2C1790.3,310.5,1785.2,308.6,1785.7,306.2z M1789.5,320.9c-0.9-2.2,3.2-3.6,7-4
			c4.8-0.6,10.1-0.2,14.9,1.1c0.6,0.1,1,0.3,1.3,0.5c1.6,0.6,2.5,1.6,1.1,2.4c-3.2,1.9-7.9,3.1-13.4,3.3
			C1796.1,324.3,1790.4,323.4,1789.5,320.9z M1843,351.9c-3.9,0.9-9.6,0.6-12.2-1.7c-6.1-5.5,12-7.4,19.6-7.2c3.5,0.1,4.9,2.2,3,3
			c0,0.1-0.1,0.2-0.2,0.3C1851.2,348.6,1847.8,350.8,1843,351.9z M1865.6,357.7c-4.9-0.7-6-3.3-5-5.1c1.2-2.3,3.9-4.3,7.2-6
			c1.2-0.6,2.8-0.5,4.2-0.1c1.3,0.2,2.5,0.7,2.7,1.5C1875.5,351,1876.3,359.3,1865.6,357.7z M1898.4,360.2c-5,0.6-9.4-1.5-11.1-3.7
			c-2-2.5-1.9-5.3-0.6-7.7c0.2-0.4,0.6-0.6,1.1-0.8c0.8-0.9,3.1-1.3,5-0.3C1897.7,350.2,1909.8,358.9,1898.4,360.2z M1821.4,298.5
			c0.5,0.4,0.7,0.8,0.6,1.1c0.1,0.9-1.3,1.8-3.8,1.5c-6.9-0.9-23.9-5.4-19-9.6c1.9-1.7,6.7-1.5,10.1-0.3
			C1814.3,293,1818.1,296.1,1821.4,298.5z"/>
		<path class="st14" d="M1887.7,348c-0.5,0.2-0.9,0.4-1.1,0.8c-1.3,2.4-1.4,5.1,0.6,7.7c1.7,2.2,6.1,4.3,11.1,3.7
			c11.4-1.3-0.6-10-5.6-12.5C1890.8,346.7,1888.5,347.1,1887.7,348z"/>
		<path class="st14" d="M1871.9,346.5c-1.3-0.4-3-0.5-4.2,0.1c-3.3,1.6-6,3.7-7.2,6c-0.9,1.8,0.1,4.4,5,5.1c10.7,1.6,9.9-6.7,9-9.7
			C1874.4,347.2,1873.2,346.7,1871.9,346.5z"/>
		<path class="st14" d="M1853.4,346c1.8-0.8,0.5-2.9-3-3c-7.6-0.3-25.7,1.7-19.6,7.2c2.6,2.3,8.3,2.6,12.2,1.7
			c4.8-1.1,8.1-3.3,10.2-5.6C1853.4,346.2,1853.4,346.1,1853.4,346z"/>
		<path class="st14" d="M1799.2,291.5c-4.8,4.3,12.2,8.7,19,9.6c2.5,0.3,3.9-0.5,3.8-1.5c0.1-0.3-0.1-0.7-0.6-1.1
			c-3.3-2.4-7.1-5.6-12.1-7.3C1805.9,290,1801.1,289.8,1799.2,291.5z"/>
		<path class="st14" d="M1795,310.9c5.8,0.5,11.7,0.4,17.1-0.2c2.7-0.3,2.5-1.7,1-2.5c-0.3-0.2-0.7-0.4-1.2-0.5
			c-4.9-1.4-10.4-3.4-15.8-4.1c-4.7-0.6-9.9,0.3-10.3,2.6C1785.2,308.6,1790.3,310.5,1795,310.9z"/>
		<path class="st14" d="M1800.5,324.2c5.5-0.2,10.2-1.4,13.4-3.3c1.4-0.8,0.4-1.9-1.1-2.4c-0.3-0.2-0.8-0.4-1.3-0.5
			c-4.8-1.2-10.1-1.7-14.9-1.1c-3.8,0.5-7.9,1.8-7,4C1790.4,323.4,1796.1,324.3,1800.5,324.2z"/>
	</g>
	<g>
		<path class="st5" d="M1868.5,283.2c-2.2-3.3-9.6-4.4-14.3-3.6c-85.1,2.4-145.2,34.9-139.3,76.2c0.3,2.4,3.4,4.6,8.9,5.2
			c45.8,4.5,91.6-1.4,120.6-16.1C1874.5,329.5,1883.5,305.6,1868.5,283.2z"/>
	</g>
	<g>
		<path class="st6" d="M381.6,381.6c61.5-12,101.2-44.1,93.8-74.8c-3.5-14.5-17.9-27.6-38.9-37.3l-17.4,7.7
			c17.5,8,29.4,18.9,32.3,30.9c6.2,25.3-26.6,51.8-77.3,61.7c-45.6,8.9-94.3-0.3-124.7-16.9l-18.7,8.4
			C267.6,381.3,326.5,392.4,381.6,381.6z"/>
		<path class="st13" d="M374.1,369.8c50.7-9.9,83.5-36.4,77.3-61.7c-2.9-12-14.9-22.9-32.3-30.9l-169.7,75.7
			C279.9,369.5,328.5,378.7,374.1,369.8z M338.5,358.4c-4.5-0.1-7.3-2.1-7.1-4.1c0.3-2.3,3-4.6,4.7-6.7c0.2-0.2,0.4-0.4,0.7-0.5
			c1.3-0.7,3.9-0.8,5,0.2c2.1,2.2,3.6,4.6,3.7,7C345.6,356.2,343.2,358.4,338.5,358.4z M365.6,355.9c-4,0.5-7.4-1.1-9-2.6
			c-2.1-1.9-2.3-4.1-0.9-6.2c0.2-0.2,0.4-0.4,0.7-0.6c0.8-0.7,2.6-1.1,4.4-0.6c4.2,1.2,7.5,3.1,8.9,5.3
			C370.8,353,370.2,355.4,365.6,355.9z M413.9,332.1c2.5,1.5,3,3.9-0.9,5.1c-9.2,2.8-16.4-4.5-17.5-7.6c-0.5-1.5,3.3-2.1,5.1-1.4
			c0.2,0,0.4,0,0.5,0.1C406,329,410.8,330.2,413.9,332.1z M420.5,322.5c-0.4,2-5,2.6-8.7,2.4c-4.6-0.3-9-1.3-12.7-2.6
			c-1.3-0.5-1.5-1.1-1.1-1.7c0.1-0.5,0.8-1.1,2.3-1.2C405.9,318.8,421.3,318,420.5,322.5z M418.8,308.9c2.1,2-1.1,4-4.9,4.8
			c-4.4,1-9.7,1.1-14.4,0.7c-0.7-0.1-1.3-0.2-1.7-0.4c-1.8-0.3-3.1-1.2-1.6-2.1C399.9,309.7,414,304.3,418.8,308.9z M316.9,344.1
			c0.6-0.2,1.3-0.3,2-0.3c1.7-0.1,3.7,0.4,3.5,1.5c-0.4,2.9-5.5,10.1-14.6,8.4c-3.6-0.7-4.2-2.7-2.5-4.1
			C307.7,347.4,312.9,345.6,316.9,344.1z"/>
		<path class="st14" d="M397.7,314c0.4,0.2,1,0.3,1.7,0.4c4.7,0.4,10,0.3,14.4-0.7c3.8-0.8,7-2.8,4.9-4.8c-4.7-4.6-18.8,0.8-22.7,3
			C394.6,312.8,395.9,313.7,397.7,314z"/>
		<path class="st14" d="M398,320.6c-0.5,0.6-0.3,1.2,1.1,1.7c3.7,1.3,8.1,2.3,12.7,2.6c3.7,0.3,8.3-0.3,8.7-2.4
			c0.8-4.5-14.6-3.7-20.1-3.2C398.8,319.5,398.1,320,398,320.6z"/>
		<path class="st14" d="M400.7,328.2c-1.8-0.7-5.6,0-5.1,1.4c1,3.1,8.3,10.5,17.5,7.6c3.9-1.2,3.4-3.6,0.9-5.1
			c-3.1-1.9-7.9-3.2-12.7-3.9C401,328.2,400.8,328.2,400.7,328.2z"/>
		<path class="st14" d="M307.8,353.7c9,1.7,14.2-5.5,14.6-8.4c0.1-1.1-1.8-1.6-3.5-1.5c-0.7,0-1.4,0.1-2,0.3
			c-4,1.5-9.1,3.3-11.6,5.4C303.6,351,304.2,353,307.8,353.7z"/>
		<path class="st14" d="M345.5,354.3c-0.1-2.4-1.6-4.8-3.7-7c-1-1.1-3.6-0.9-5-0.2c-0.3,0.1-0.6,0.3-0.7,0.5
			c-1.7,2.1-4.4,4.5-4.7,6.7c-0.3,2,2.5,4,7.1,4.1C343.2,358.4,345.6,356.2,345.5,354.3z"/>
		<path class="st14" d="M369.7,351.2c-1.4-2.2-4.6-4.1-8.9-5.3c-1.8-0.5-3.6-0.1-4.4,0.6c-0.3,0.1-0.6,0.3-0.7,0.6
			c-1.4,2.1-1.2,4.3,0.9,6.2c1.6,1.5,5,3.1,9,2.6C370.2,355.4,370.8,353,369.7,351.2z"/>
	</g>
	<g>
		<path class="st5" d="M315.5,415.2c2.3,2.3,8,2.5,11.4,1.4c63.4-9.9,102.4-40.3,90.3-71.1c-0.7-1.8-3.4-3.2-7.6-3.1
			c-35.2,1-68.4,9.8-87.4,23.7C302.4,380.6,300.2,399.6,315.5,415.2z"/>
	</g>
	<g>
		<path class="st7" d="M694.2,512.5c-8.3-24.7-41.3-23.6-60.8-15.3c-4.1,1.7-8,4-11.5,6.7c-10.8,5.5-18.6,16.8-17.3,29.9
			c0.9,9.7,6.3,18.8,14.2,24.3c10.5,7.2,23.8,5.6,35.5,2.5c11.7-3.1,23.8-7.9,32.1-17.2C693.7,535.3,697.9,523.3,694.2,512.5z"/>
		<path class="st15" d="M636.3,529c-2.1-3.9-4.8-8-9.1-9.6c-4.5-1.7-9.4-0.3-12.3,3.6c-3.8,5.1-2.9,11.5-0.1,17.1
			c0.4,1.7,1,3.4,2.1,5c1.6,2.5,4,4.5,6.8,5.4c1,0.5,2.1,0.7,3.2,0.6c0.3,0,0.6,0,0.8,0c5.1-0.1,9.2-3.8,10.7-8.6
			C640,538,638.6,533.1,636.3,529z"/>
	</g>
	<g>
		<path class="st7" d="M1292.5,161.8c0.6-26.1-30.8-36.5-51.8-35.5c-4.4,0.2-8.8,1-13.1,2.3c-12,1.4-23.2,9.3-26.4,22.1
			c-2.4,9.4-0.5,19.9,5.1,27.7c7.5,10.4,20.5,13.5,32.4,14.7c12,1.2,25,0.9,35.9-5C1284.2,183,1292.2,173.2,1292.5,161.8z"/>
		<path class="st15" d="M1232.5,157.1c-0.7-4.4-1.8-9.2-5.3-12.1c-3.6-3.1-8.7-3.5-12.7-0.9c-5.3,3.5-6.7,9.8-5.9,16
			c-0.2,1.8-0.2,3.6,0.2,5.4c0.7,2.9,2.3,5.6,4.5,7.5c0.8,0.8,1.8,1.4,2.8,1.7c0.3,0.1,0.5,0.2,0.8,0.3c4.8,1.6,9.9-0.4,12.9-4.3
			C1232.9,166.8,1233.2,161.7,1232.5,157.1z"/>
	</g>
	<g>
		<path class="st7" d="M1645.3,540.2c10.1,7.2,23,9.2,35,9.6c12,0.4,25.3-1,34-10.4c6.6-7.1,9.8-17.2,8.6-26.9
			c-1.6-13.1-11.7-22.4-23.4-25.3c-4-1.9-8.3-3.2-12.7-4c-20.7-3.7-53.2,2.6-55.9,28.6C1629.7,523.1,1636.4,533.9,1645.3,540.2z"/>
		<path class="st15" d="M1689.5,515.4c1.2-4.2,2.9-8.9,6.7-11.4c4-2.6,9.1-2.4,12.7,0.7c4.8,4.1,5.4,10.6,3.9,16.7
			c0,1.8-0.3,3.6-0.9,5.3c-1,2.8-3,5.3-5.4,6.8c-0.9,0.7-1.9,1.2-3,1.4c-0.3,0.1-0.5,0.1-0.8,0.2c-5,1-9.8-1.7-12.3-6
			C1687.9,525,1688.2,519.9,1689.5,515.4z"/>
	</g>
	<g>
		<path class="st7" d="M1113.6,513c-15.2-12-39.2-7.7-48,10.1c-3,6.2-3.9,12.6-3,18.7c0.2,7.8,3.1,15.5,8.9,21.1
			c13.1,12.6,34.9,12.5,46.8-1.7C1130.7,546.6,1128.6,524.9,1113.6,513z"/>
		<path class="st15" d="M1105.5,538.3c-7.4-9.6-22.1-6.7-26.2,4.5c-1.9,5.1-0.6,11.1,3,15.1c3.8,4.2,8.9,5.7,14.4,5
			c1.2-0.1,2.2-0.7,3.1-1.6c3.6-1.3,6.5-4.2,8-7.9C1109.9,548.2,1108.9,542.6,1105.5,538.3z"/>
	</g>
	<path class="st16" d="M880.5,239.9c-35.9,7.5-70.2,21.9-100.8,42.3c-2,1.4-0.3,4.8,1.8,3.4c30.4-20.3,64.2-34.5,99.9-42
		C883.8,243.2,882.9,239.4,880.5,239.9z"/>
	<path class="st16" d="M921.9,231.2c-7.4,1.3-14.9,2.7-22.3,4c-2.4,0.4-1.6,4.2,0.9,3.8c7.4-1.3,14.9-2.7,22.3-4
		C925.2,234.5,924.3,230.7,921.9,231.2z"/>
	<path class="st16" d="M925.6,207.6c-25.1-28.2-58.2-48.5-94.5-58c-2.4-0.6-3.5,3.1-1.1,3.7c35.7,9.3,68.1,29.1,92.8,56.9
		C924.5,212.1,927.3,209.5,925.6,207.6z"/>
	<path class="st16" d="M1084,241.8c-38.3-11.8-78.4-16.6-118.3-14.1c-2.4,0.1-2.6,4-0.1,3.9c39.6-2.4,79.3,2.3,117.3,14
		C1085.3,246.2,1086.4,242.5,1084,241.8z"/>
	<path class="st16" d="M1171.2,324.4c-27.5,3.9-52.1,21.7-64.7,46.7c-1.1,2.2,2.1,4.3,3.2,2c12.2-24.2,35.7-41.2,62.3-45
		C1174.5,327.8,1173.6,324.1,1171.2,324.4z"/>
	<path class="st16" d="M1436.1,214.6c-33.3-10.5-68.3-15.1-103.2-13.4c-2.4,0.1-2.6,4-0.1,3.9c34.6-1.6,69.1,2.8,102.2,13.2
		C1437.4,219.1,1438.5,215.4,1436.1,214.6z"/>
	<path class="st16" d="M1484,229.9c-8.5-3.3-17-6.5-25.5-9.8c-2.3-0.9-3.4,2.8-1.1,3.7l25.5,9.8
		C1485.2,234.5,1486.3,230.8,1484,229.9z"/>
	<path class="st16" d="M1853.1,292.6c-42.4,3.4-83,19-116.9,44.8c-2,1.5,0.6,4.3,2.6,2.8c33.1-25.2,73-40.5,114.2-43.8
		C1855.4,296.2,1855.6,292.4,1853.1,292.6z"/>
	<path class="st16" d="M1457.3,421.9c-7.6,2.2-15.3,4.4-22.9,6.7c-2.4,0.7-1.5,4.5,0.9,3.8c7.6-2.2,15.3-4.4,22.9-6.7
		C1460.5,424.9,1459.6,421.2,1457.3,421.9z"/>
	<path class="st16" d="M1558.6,414.5c-28.5-1.6-57-0.2-85.3,4c-2.4,0.4-1.6,4.1,0.9,3.8c27.9-4.2,56.1-5.5,84.3-3.9
		C1560.9,418.5,1561.1,414.6,1558.6,414.5z"/>
	<path class="st16" d="M1338.6,506.2c-40.6,21.1-91.7,26.8-121.6,65.1c-1.5,2,1.7,4,3.2,2c29.3-37.6,80.3-43.1,120.1-63.8
		C1342.6,508.5,1340.8,505.1,1338.6,506.2z"/>
	<path class="st16" d="M898.2,504.5c-55-2.4-109.7,14.5-154.2,47.2c-2,1.5,0.6,4.3,2.6,2.8c43.6-32.2,97.6-48.6,151.5-46.2
		C900.5,508.5,900.6,504.6,898.2,504.5z"/>
	<path class="st16" d="M709.8,422.6c-5.8-4.8-12.7-7.4-20.1-8c-2.5-0.2-2.6,3.7-0.1,3.9c6.8,0.5,12.9,3,18.2,7.4
		C709.7,427.4,711.7,424.1,709.8,422.6z"/>
	<path class="st16" d="M753.3,461.3c-8.6-12.6-19.3-23.3-32-31.6c-2.1-1.4-4.1,1.9-2,3.3c12.1,8,22.4,18.1,30.6,30.2
		C751.2,465.1,754.6,463.4,753.3,461.3z"/>
	<path class="st16" d="M396.6,356c-30.1,1.4-58.3,18.1-74.2,44c-1.3,2.1,1.9,4.2,3.2,2c15.1-24.7,42-40.8,70.8-42.2
		C398.9,359.7,399,355.9,396.6,356z"/>
	<path class="st16" d="M541,401.5c-38.5,10.2-61.3,51.1-49.5,89.7c0.7,2.4,4.5,1.5,3.7-0.9c-11.1-36.6,10-75.4,46.7-85.1
		C544.2,404.7,543.4,400.9,541,401.5z"/>
	<path class="st16" d="M569.9,390.9c-4.7,1.3-9.3,2.6-14,3.9c-2.4,0.7-1.5,4.4,0.9,3.8c4.7-1.3,9.3-2.6,14-3.9
		C573.2,394.1,572.3,390.3,569.9,390.9z"/>
	<path class="st16" d="M484.3,322.1c-6.8,21.7-23,39.3-43.8,48c-2.3,1-0.5,4.4,1.8,3.4c21.7-9.1,38.5-27.7,45.7-50.3
		C488.7,320.9,485,319.8,484.3,322.1z"/>
	<path class="st16" d="M642.4,279c-24.2-4-48.5-8.1-72.7-12.1c-2.4-0.4-3.5,3.3-1.1,3.7c24.2,4,48.5,8.1,72.7,12.1
		C643.7,283.1,644.8,279.4,642.4,279z"/>
	<path class="st16" d="M683.9,286.9c-7.6-1.6-15.3-3.2-22.9-4.8c-2.4-0.5-3.5,3.2-1.1,3.7c7.6,1.6,15.3,3.2,22.9,4.8
		C685.2,291.1,686.3,287.4,683.9,286.9z"/>
	<path class="st16" d="M972.3,414.7c-21,7.4-42.9,11.2-65.2,11.4c-2.5,0-2.6,3.9-0.1,3.9c22.6-0.2,44.9-4,66.2-11.5
		C975.5,417.6,974.6,413.8,972.3,414.7z"/>
	<path class="st16" d="M1005.7,401.5c-6.4,3-12.8,5.9-19.2,8.9c-2.2,1-0.5,4.5,1.8,3.4c6.4-3,12.8-5.9,19.2-8.9
		C1009.8,403.9,1008,400.5,1005.7,401.5z"/>
	<path class="st16" d="M1266.9,293.5c-3.1,16.7-13.3,31.1-28,39.4c-2.1,1.2-0.4,4.6,1.8,3.4c15.5-8.8,26.5-24.1,29.8-41.7
		C1271,292.2,1267.3,291,1266.9,293.5z"/>
	<path class="st16" d="M966.3,138.6v27.7c0,2.5,3.8,2.6,3.8,0.1v-27.7C970.2,136.2,966.3,136.1,966.3,138.6z"/>
	<path class="st16" d="M1145.7,169.5c-1.7,13.2-7.9,25-17.7,33.9c-1.8,1.7,0.8,4.5,2.6,2.8c10.5-9.6,17.1-22.4,18.9-36.6
		C1149.9,167.2,1146,167.1,1145.7,169.5z"/>
	<path class="st16" d="M1482.2,294.3c-42.6,10.3-87.3,10-129.7-1.1c-2.4-0.6-3.5,3.1-1.1,3.7c43.1,11.3,88.4,11.7,131.7,1.2
		C1485.4,297.5,1484.6,293.7,1482.2,294.3z"/>
	<path class="st16" d="M1536.6,275.5c-10.5,6.3-21.9,10.7-33.9,13c-2.4,0.5-1.6,4.2,0.9,3.8c12.3-2.4,24-6.9,34.8-13.4
		C1540.5,277.6,1538.7,274.2,1536.6,275.5z"/>
	<path class="st16" d="M1659.4,426.5c-26.7,19.9-58.2,32.1-91.2,35.6c-2.4,0.3-1.6,4,0.9,3.8c33.6-3.6,65.7-16.3,92.9-36.5
		C1664,427.9,1661.4,425,1659.4,426.5z"/>
	<path class="st16" d="M1678.2,401.7c-2.7,4.9-5.3,9.8-8,14.6c-1.2,2.2,2.1,4.2,3.2,2c2.7-4.9,5.3-9.8,8-14.6
		C1682.6,401.6,1679.4,399.5,1678.2,401.7z"/>
	<path class="st16" d="M1942.4,435.2c-31,13.9-67.2,4.8-97.6,21c-2.2,1.2-0.4,4.6,1.8,3.4c30.2-16.1,66.6-7.1,97.6-21
		C1946.5,437.7,1944.7,434.2,1942.4,435.2z"/>
	<path class="st16" d="M1963.1,421.8c-1.1,3.5-3.7,6.3-7.2,7.5c-2.3,0.7-1.5,4.5,0.9,3.8c4.8-1.5,8.5-5.2,10-10.1
		C1967.5,420.5,1963.8,419.4,1963.1,421.8z"/>
	<path class="st16" d="M1592.4,564.5c-24.2-0.6-48.3,2.9-71.3,10.3c-2.3,0.7-1.5,4.5,0.9,3.8c22.8-7.3,46.5-10.7,70.4-10.2
		C1594.7,568.4,1594.8,564.6,1592.4,564.5z"/>
	<path class="st16" d="M1630,562.8h-17.2c-2.5,0-2.6,3.9-0.1,3.9h17.2C1632.3,566.7,1632.5,562.8,1630,562.8z"/>
	<path class="st16" d="M1725.9,535c-1,6.5-5,12.1-10.8,15.2c-2.2,1.2-0.4,4.6,1.8,3.4c7-3.9,11.6-10.6,12.8-18.6
		C1730.1,532.7,1726.3,532.6,1725.9,535z"/>
	<g>
		<path class="st7" d="M418.8,249.9c10.1,7.2,23,9.2,35,9.6c12,0.4,25.3-1,34-10.4c6.6-7.1,9.8-17.2,8.6-26.9
			c-1.6-13.1-11.7-22.4-23.4-25.3c-4-1.9-8.3-3.2-12.7-4c-20.7-3.7-53.2,2.6-55.9,28.6C403.3,232.9,409.9,243.6,418.8,249.9z"/>
		<path class="st15" d="M463,225.1c1.2-4.2,2.9-8.9,6.7-11.4c4-2.6,9.1-2.4,12.7,0.7c4.8,4.1,5.4,10.6,3.9,16.7
			c0,1.8-0.3,3.6-0.9,5.3c-1,2.8-3,5.3-5.4,6.8c-0.9,0.7-1.9,1.2-3,1.4c-0.3,0.1-0.5,0.1-0.8,0.2c-5,1-9.8-1.7-12.3-6
			C461.4,234.7,461.7,229.6,463,225.1z"/>
	</g>
	<path class="st16" d="M499.5,244.7c-1,6.5-5,12.1-10.8,15.2c-2.2,1.2-0.4,4.6,1.8,3.4c7-3.9,11.6-10.6,12.8-18.6
		C503.7,242.4,499.8,242.3,499.5,244.7z"/>
	<path class="st16" d="M1077.9,573.8c-7.1-1.1-13.3-5.3-17-11.5c-1.3-2.1-4.7-0.3-3.4,1.8c4.5,7.5,11.7,12.3,20.3,13.6
		C1080.3,578.1,1080.4,574.2,1077.9,573.8z"/>
	<path class="st16" d="M1096.4,577.1c-2.8-0.2-5.5-0.4-8.3-0.6c-2.5-0.2-2.6,3.7-0.1,3.9c2.8,0.2,5.5,0.4,8.3,0.6
		C1098.8,581.2,1098.9,577.3,1096.4,577.1z"/>
	<g>
		<path class="st7" d="M1610,324c14.1,12,35.6,8.4,46.4-6.2c4.9-6.5,6.4-14.6,5.4-22.3c-0.1-6.1-2-12.4-6-17.9
			c-11.6-16.1-36-16.4-49-2C1593.9,289.9,1595.4,311.6,1610,324z"/>
		<path class="st15" d="M1618.9,299.2c5.7-10.7,20.7-10.3,26.6,0.1c2.7,4.7,2.4,10.8-0.5,15.4c-3.1,4.8-7.8,7.1-13.4,7.3
			c-1.2,0.1-2.3-0.4-3.3-1c-3.7-0.7-7.1-3.1-9.2-6.5C1616.2,309.7,1616.3,304,1618.9,299.2z"/>
	</g>
	<path class="st16" d="M1651.9,329.6c6.8-2.3,12.2-7.5,14.9-14.2c0.9-2.3,4.5-1.1,3.6,1.2c-3.2,8.2-9.5,14.1-17.8,16.8
		C1650.3,334.2,1649.6,330.4,1651.9,329.6z"/>
	<path class="st16" d="M1634.2,336c2.7-0.7,5.4-1.3,8.1-2c2.4-0.6,3.1,3.2,0.7,3.8c-2.7,0.7-5.4,1.3-8.1,2
		C1632.5,340.4,1631.8,336.6,1634.2,336z"/>
	<g>
		<path class="st7" d="M690.5,154.4c11.9,14.2,33.7,14.2,46.8,1.7c5.9-5.6,8.7-13.3,8.9-21.1c0.9-6.1,0-12.5-3-18.7
			c-8.8-17.8-32.8-22.2-48-10.1C680.2,118,678.2,139.7,690.5,154.4z"/>
		<path class="st15" d="M703.3,131.4c7.4-9.6,22.1-6.7,26.2,4.5c1.9,5.1,0.6,11.1-3,15.1c-3.8,4.2-8.9,5.7-14.4,5
			c-1.2-0.1-2.2-0.7-3.1-1.6c-3.6-1.3-6.5-4.2-8-7.9C698.9,141.3,700,135.7,703.3,131.4z"/>
	</g>
	<path class="st16" d="M730.9,166.9c7.1-1.1,13.3-5.3,17-11.5c1.3-2.1,4.7-0.3,3.4,1.8c-4.5,7.5-11.7,12.3-20.3,13.6
		C728.6,171.2,728.5,167.3,730.9,166.9z"/>
	<path class="st16" d="M712.4,170.2c2.8-0.2,5.5-0.4,8.3-0.6c2.5-0.2,2.6,3.7,0.1,3.9c-2.8,0.2-5.5,0.4-8.3,0.6
		C710.1,174.3,710,170.4,712.4,170.2z"/>
	<path class="st16" d="M1290.9,639.6c-49.4,6.9-100,2.1-147.4-13.8c-2.3-0.8-3.4,2.9-1.1,3.7c48,16.1,99.2,20.9,149.3,13.9
		C1294.2,643,1293.4,639.3,1290.9,639.6z"/>
	<path class="st16" d="M1326.1,632.5c-4.2,1.1-8.5,2.1-12.8,3.2c-2.4,0.6-1.5,4.4,0.9,3.8c4.2-1.1,8.5-2.1,12.8-3.2
		C1329.3,635.7,1328.5,631.9,1326.1,632.5z"/>
	<path class="st16" d="M287.5,457.4c-23.2-7.7-37.1-30.8-33.7-55.2c0.3-2.5-3.5-2.6-3.8-0.1c-3.7,26.1,11.8,50.8,36.5,59
		C288.7,461.9,289.8,458.2,287.5,457.4z"/>
	<path class="st16" d="M356.3,470.5c-17.2-3-34.5-6-51.7-9.1c-2.4-0.4-3.5,3.3-1.1,3.7c17.2,3,34.5,6,51.7,9.1
		C357.6,474.6,358.8,470.9,356.3,470.5z"/>
	<path class="st16" d="M397,483.6c-5.5-2.4-11-4.8-16.5-7.2c-2.3-1-3.3,2.7-1.1,3.7c5.5,2.4,11,4.8,16.5,7.2
		C398.1,488.3,399.2,484.6,397,483.6z"/>
	<path class="st16" d="M684.5,558.7c-12.5,9.3-27.8,13.4-43.2,11.8c-2.4-0.3-2.6,3.6-0.1,3.9c16.4,1.7,32.6-2.9,45.9-12.8
		C689.1,560.1,686.4,557.3,684.5,558.7z"/>
	<path class="st16" d="M700.6,541.4c-1.9,3.7-3.8,7.3-5.7,11c-1.1,2.2,2.1,4.3,3.2,2c1.9-3.7,3.8-7.3,5.7-11
		C705,541.3,701.8,539.2,700.6,541.4z"/>
	<path class="st16" d="M270.5,658.7c-88.7-35.2-185-74.6-237.3-160.4c-13.2-21.7-22.7-45.5-27-70.6c-0.4-2.5-4.2-1.6-3.7,0.9
		c7.9,45.3,32.3,85.8,63.9,118.2c34.6,35.5,77.6,60.9,122.1,81.6c26.5,12.4,53.7,23.2,80.9,34C271.7,663.3,272.8,659.6,270.5,658.7z
		"/>
	<path class="st16" d="M497.6,727.3c-68.8-12.7-136.2-32.6-201-59.3c-2.3-0.9-3.4,2.8-1.1,3.7c64.8,26.7,132.2,46.5,201,59.3
		C498.9,731.4,500.1,727.7,497.6,727.3z"/>
	<path class="st16" d="M587.1,744.7c-19.3-3.1-38.6-6.2-58-9.4c-2.4-0.4-2.5,3.5-0.1,3.9c19.3,3.1,38.6,6.2,58,9.4
		C589.4,748.9,589.5,745.1,587.1,744.7z"/>
	<path class="st16" d="M1848.5,576.5c-64.7,19.2-130.7,34.1-197.5,44.4c-18.8,2.9-37.7,5.4-56.6,7.6c-2.4,0.3-1.6,4,0.9,3.8
		c67.1-7.7,133.6-19.9,199-36.7c18.4-4.7,36.8-9.8,55-15.2C1851.8,579.6,1850.9,575.8,1848.5,576.5z"/>
	<path class="st16" d="M2000.4,509.9c-39.4,23-80.8,42.2-123.8,57.1c-2.3,0.8-1.5,4.6,0.9,3.8c43.3-15.1,85-34.3,124.7-57.5
		C2004.3,512.1,2002.5,508.6,2000.4,509.9z"/>
	<path class="st16" d="M2041.3,481.4c-8.1,6-16.3,12-24.4,18c-2,1.5,0.6,4.3,2.6,2.8c8.1-6,16.3-12,24.4-18
		C2045.9,482.8,2043.2,480,2041.3,481.4z"/>
	<path class="st16" d="M1362.8,488.2c-1.7-1.8-4.5,0.8-2.8,2.6c4.3,4.7,6,11,4.4,17.2c-0.6,2.4,3.1,3.5,3.7,1.1
		C1369.9,501.6,1368,493.9,1362.8,488.2z"/>
	<path class="st16" d="M998.3,1.1c-94.1,0.3-188.2,8.5-280.9,24.4c-26.4,4.5-52.6,9.7-78.8,15.5c-2.4,0.5-1.5,4.3,0.9,3.8
		c91.9-20.3,185.5-33,279.5-37.8c26.4-1.3,52.8-2,79.3-2.1C1000.6,5,1000.7,1.1,998.3,1.1z"/>
	<path class="st16" d="M1121.6,0c-30.3,0.3-60.6,0.5-90.8,0.8c-2.5,0-2.6,3.9-0.1,3.9c30.3-0.3,60.6-0.5,90.8-0.8
		C1124,3.8,1124.1,0,1121.6,0z"/>
	<path class="st16" d="M1923.5,253.4c-1.4-2-4.8-0.3-3.4,1.8c7.9,11.8,8.9,27.1,2.2,39.7c-1.2,2.2,2.1,4.2,3.2,2
		C1932.8,283.3,1932.2,266.4,1923.5,253.4z"/>
	<path class="st16" d="M1920.5,302.8c-1.9,3.6-3.8,7.1-5.7,10.7c-1.2,2.2,2.1,4.2,3.2,2c1.9-3.6,3.8-7.1,5.7-10.7
		C1924.9,302.7,1921.7,300.6,1920.5,302.8z"/>
	<path class="st16" d="M319.8,233.5c-17.6,12.8-41,11.4-59.5,22.2c-16.7,9.7-25.9,28.9-23.8,48.1c0.3,2.5,4,1.6,3.7-0.9
		c-2.3-21.3,10.5-39.9,29.7-47.6c17.4-7,36.9-7.7,52.5-19C324.4,234.9,321.8,232.1,319.8,233.5z"/>
	<path class="st16" d="M347.1,218c-4.5,2.5-9,5.1-13.4,7.6c-2.1,1.2-0.4,4.6,1.8,3.4l13.4-7.6C351,220.2,349.3,216.8,347.1,218z"/>
	<path class="st16" d="M1030.6,629.9c-13.5-7.7-29.3-9.8-44.3-5.8c-2.4,0.6-1.5,4.4,0.9,3.8c14.1-3.8,28.8-1.9,41.4,5.3
		C1030.7,634.4,1032.8,631.1,1030.6,629.9z"/>
</g>
</svg>
