<?xml version="1.0" encoding="utf-8"?>
<!-- Generator: Adobe Illustrator 23.0.3, SVG Export Plug-In . SVG Version: 6.00 Build 0)  -->
<svg version="1.1" id="Isolation_Mode" xmlns="http://www.w3.org/2000/svg" xmlns:xlink="http://www.w3.org/1999/xlink" x="0px"
	 y="0px" viewBox="0 0 34 45.2" style="enable-background:new 0 0 34 45.2;" xml:space="preserve">
<style type="text/css">
	.st0{fill:#52565A;}
</style>
<path class="st0" d="M5.3,45.2c-0.3,0-0.5-0.1-0.6-0.3c-0.2-0.3-0.2-0.8,0.1-1.6l5.7-15.4c0.2-0.4,0.1-0.8-0.1-1.1s-0.6-0.4-1-0.4
	H2.2c-0.9,0-1.6-0.3-1.9-0.9c-0.4-0.6-0.4-1.4,0-2.2L10.7,2.6C11.4,1.2,13.2,0,14.8,0h17.3c1.2,0,1.7,0.6,1.8,0.9
	c0.1,0.3,0.2,1-0.7,1.9l-14.7,14c-0.3,0.3-0.4,0.5-0.4,0.6c0,0,0.2,0.1,0.7,0.1h10.5c1.2,0,1.7,0.6,1.8,0.9s0.2,1-0.6,1.9L6.6,44.4
	C6.1,45,5.7,45.2,5.3,45.2L5.3,45.2z"/>
</svg>
