<?xml version="1.0" encoding="utf-8"?>
<!-- Generator: Adobe Illustrator 23.0.3, SVG Export Plug-In . SVG Version: 6.00 Build 0)  -->
<svg version="1.1" id="Layer_1" xmlns="http://www.w3.org/2000/svg" xmlns:xlink="http://www.w3.org/1999/xlink" x="0px" y="0px"
	 viewBox="0 0 2140.4 1609.6" style="enable-background:new 0 0 2140.4 1609.6;" xml:space="preserve">
<style type="text/css">
	.st0{fill:#E27D90;}
	.st1{fill:#D04025;}
	.st2{fill:#2C2B3C;}
	.st3{fill:#FF894A;}
	.st4{fill:#FF7270;}
	.st5{fill:#BAAB34;}
	.st6{fill:#2F52EF;}
	.st7{fill:#2FA4EF;}
	.st8{fill:#A2A2A2;}
	.st9{fill:#B8B8B8;}
	.st10{fill:#CCEEF0;}
	.st11{fill:#FF5A64;}
</style>
<ellipse class="st0" cx="1139.2" cy="1498" rx="907" ry="111.6"/>
<g>
	<path class="st1" d="M1430,1410L1430,1410c-6.3-0.6-10.8-6.3-10.2-12.7l44.9-444.7c0.6-6.3,6.2-11,12.5-10.3l0,0
		c6.3,0.6,10.8,6.3,10.2,12.7l-44.9,444.7C1441.9,1406,1436.3,1410.7,1430,1410z"/>
	<path class="st1" d="M1730.6,1410L1730.6,1410c6.3-0.6,10.8-6.3,10.2-12.7l-44.9-444.7c-0.6-6.3-6.2-11-12.5-10.3h0
		c-6.3,0.6-10.8,6.3-10.2,12.7l44.9,444.7C1718.7,1406,1724.3,1410.7,1730.6,1410z"/>
	<path class="st1" d="M1701.6,986.4h-243.3c-5.6,0-10.2-4.5-10.2-10.2v-37.9c0-5.6,4.5-10.2,10.2-10.2h243.3
		c5.6,0,10.2,4.5,10.2,10.2v37.9C1711.8,981.9,1707.2,986.4,1701.6,986.4z"/>
	<rect x="1450.1" y="1224.4" class="st1" width="263.6" height="29.1"/>
	<rect x="1455.2" y="1074.9" class="st1" width="243.2" height="29.1"/>
	<path class="st2" d="M1635.4,986.5h-151.4c-2.7,0-3.1,4.3-0.3,4.3h151.4C1637.8,990.8,1638.2,986.5,1635.4,986.5z"/>
	<path class="st2" d="M1697.5,986.5h-47.6c-2.7,0-3.1,4.3-0.3,4.3h47.6C1699.9,990.8,1700.2,986.5,1697.5,986.5z"/>
	<path class="st2" d="M1686.5,1100.1h-34.9c-2.7,0-3.1,4.3-0.3,4.3h34.9C1688.9,1104.4,1689.2,1100.1,1686.5,1100.1z"/>
	<path class="st2" d="M1701.8,1250.7h-243.2c-2.7,0-3.1,4.3-0.3,4.3h243.2C1704.2,1255,1704.5,1250.7,1701.8,1250.7z"/>
	<path class="st2" d="M1637.1,1100.1H1473c-2.7,0-3.1,4.3-0.3,4.3h164.1C1639.5,1104.4,1639.9,1100.1,1637.1,1100.1z"/>
</g>
<g>
	<g>
		<path class="st3" d="M1387.4,1411.9c-0.2,2.9-20.1,43-20.1,43l-45.1-14.2l20.8-71.2L1387.4,1411.9z"/>
		<path class="st2" d="M1373.7,1463.4l0.2-0.6l0,0c1.5-4.5,4.2-10.8,3.2-15.9c-0.2-1-0.6-2-1.2-2.9c-0.4-0.7-1.1-1.3-1.7-2
			c-0.1-0.1-0.2-0.3-0.4-0.4c-1.1-1-2.2-0.4-3.4,0.9c-1.7,1.9-3.7,5.2-6.2,7.4c-0.1-2.4-2.2-6.2-5-9.7c-1.8-2.3-4-4.5-6-6.1
			c-1.2-0.9-2.3-1.6-3.3-2c-5.2-2-18.8,1-22.4,4.2c-2-3.4-0.1-7.4-1.5-8.9c-0.5-0.5-1.3-0.7-2.9-0.4c-0.8,0.1-1.6,0.4-2.3,0.7
			c-1.2,0.6-2.1,1.4-2.9,2.4c-0.7,0.8-1.2,1.6-1.7,2.5c-2.5,4.4-4.3,9.3-6.1,14c-5.9,15.9-18.6,49.6,31.1,55.6
			C1359.8,1504.6,1369.2,1477.3,1373.7,1463.4z"/>
		<path class="st4" d="M1354.1,1490.4c0.2-0.1,0.4-0.3,0.5-0.6c2.3-2.7,4.1-6,5.8-9.1c4.4-7.9,8.5-16,12.3-24.2
			c1.5-3.2,2.9-6.4,4.3-9.7c-0.2-1-0.6-2-1.2-2.9c-1.2,2.9-2.5,5.8-3.8,8.7l0,0c-4,8.8-8.3,17.5-13,25.9c-1.5,2.7-3.1,6-5.1,8.8
			c-2.8-6.9-9-12.2-16.4-14.6c-8.4-2.7-17.4-1.7-25.5,1.2c-0.9-3.2-0.9-6.6-0.2-10.1c2.2-12.1,5.6-24.1,9-35.9
			c-1.2,0.6-2.1,1.4-2.9,2.4c-2.9,10.1-5.5,20.2-7.7,30.4c-1.1,5.2-1.4,10.1,0.1,14.5c0,0.3,0.1,0.5,0.2,0.7
			c1.1,2.8,2.9,5.5,5.8,7.9c3.4,2.9,7.5,5,11.5,6.9c4.3,2,8.9,4.2,13.7,4.7C1347.1,1496,1351,1493.8,1354.1,1490.4z M1329.7,1489.3
			c-5.2-2.3-10.6-5-14.3-9.3c-1.1-1.3-2-2.6-2.6-4c14.5-5,34.1-2.7,39.6,13.4c-1.3,1.4-2.9,2.6-4.7,3.3
			C1341.8,1495,1335.1,1491.7,1329.7,1489.3z"/>
		<path class="st4" d="M1348.5,1462.9c-5.6-3.9-12.1-5.5-18.8-4.7c-1.4,0.2-1.2,2.3,0.3,2.1c6.2-0.7,12.1,0.7,17.2,4.2
			C1348.3,1465.3,1349.7,1463.7,1348.5,1462.9z"/>
		<path class="st4" d="M1350.1,1456.4c-1.1-0.7-2.3-1.3-3.5-1.9c2.2-1.2,4.4-2.5,6.4-4.1c2-1.6,3.8-3.4,5-5.7
			c0.7-1.3,1.2-2.9,1.3-4.4c0.2-1.9-0.3-3.8-1.9-5.1c-1.3-1.1-2.8-1.3-4.2-1c-1.7,0.4-3.4,1.6-4.6,2.9c-2.6,2.9-4.4,6.5-5.6,10.2
			c-0.1,0.4-0.2,0.8-0.3,1.2c0-0.4,0-0.9,0-1.3c-0.1-1.4-0.4-2.9-1.1-4.2c-1.3-2.8-4.3-5.4-7.8-4.4c-2.9,0.9-3.5,2.7-3,4.9
			c0.7,2.7,3.3,5.9,5.6,8.1c-1.4-0.2-2.8-0.3-4.3-0.3c-1.4,0-1.1,2.1,0.3,2.1c5.8,0.1,11.3,1.7,16.2,4.7
			C1349.9,1458.7,1351.3,1457.1,1350.1,1456.4z M1335.6,1447.6c-0.5-0.6-1.4-2-1.9-3.3l0,0c-0.8-1.9-0.9-3.9,1.9-3.8
			c3,0.1,4.5,3.5,4.9,5.9c0,0,0,0,0,0.1c0.3,1.8,0.1,3.6-0.2,5.3C1338.5,1450.7,1336.9,1449.3,1335.6,1447.6z M1343.7,1453.3
			c0.2-0.1,0.4-0.4,0.5-0.7c0.3-1.6,0.6-3.1,1.1-4.6c0.5-1.6,1.2-3.2,1.9-4.7c1.3-2.4,7.3-11.6,9.7-4.7c1.5,4.3-2.4,8.2-6.5,11
			c-2,1.4-4,2.5-5.4,3.3c-0.3,0.2-0.4,0.4-0.5,0.7C1344.3,1453.5,1344,1453.4,1343.7,1453.3z"/>
	</g>
	<g>
		<path class="st3" d="M1743,1410.5c0.2,2.9,20.1,43,20.1,43l45.1-14.2l-20.8-71.2L1743,1410.5z"/>
		<path class="st2" d="M1789.1,1501c49.7-6,37-39.7,31.1-55.6c-1.7-4.7-3.6-9.6-6.1-14c-0.5-0.9-1.1-1.7-1.7-2.5
			c-0.8-1-1.8-1.8-2.9-2.4c-0.7-0.4-1.5-0.6-2.3-0.7c-1.5-0.3-2.4-0.1-2.9,0.4c-1.4,1.4,0.5,5.4-1.5,8.9c-3.6-3.2-17.2-6.2-22.4-4.2
			c-1,0.4-2.1,1.1-3.3,2c-2,1.6-4.2,3.7-6,6.1c-2.8,3.5-4.9,7.3-5,9.7c-2.5-2.2-4.5-5.6-6.2-7.4c-1.2-1.3-2.3-1.9-3.4-0.9
			c-0.1,0.1-0.2,0.2-0.4,0.4c-0.6,0.7-1.2,1.3-1.7,2c-0.6,0.9-0.9,1.9-1.2,2.9c-1.1,5.1,1.7,11.4,3.2,15.9l0,0l0.2,0.6
			C1761.2,1475.9,1770.6,1503.2,1789.1,1501z"/>
		<path class="st4" d="M1788.8,1494c4.8-0.5,9.4-2.7,13.7-4.7c4.1-1.9,8.1-4,11.5-6.9c2.9-2.4,4.7-5,5.8-7.9
			c0.1-0.2,0.2-0.4,0.2-0.7c1.5-4.4,1.2-9.3,0.1-14.5c-2.2-10.2-4.8-20.4-7.7-30.4c-0.8-1-1.8-1.8-2.9-2.4c3.5,11.8,6.9,23.8,9,35.9
			c0.6,3.5,0.7,6.9-0.2,10.1c-8.1-2.8-17.1-3.9-25.5-1.2c-7.4,2.4-13.6,7.7-16.4,14.6c-2-2.8-3.6-6.1-5.1-8.8
			c-4.7-8.5-9-17.1-13-25.9l0,0c-1.3-2.9-2.6-5.8-3.8-8.7c-0.6,0.9-0.9,1.9-1.2,2.9c1.4,3.2,2.8,6.5,4.3,9.7
			c3.8,8.2,7.9,16.3,12.3,24.2c1.7,3.1,3.6,6.4,5.8,9.1c0.1,0.3,0.3,0.5,0.5,0.6C1779.4,1492.3,1783.3,1494.6,1788.8,1494z
			 M1782.8,1491.3c-1.8-0.7-3.4-1.9-4.7-3.3c5.4-16.1,25-18.4,39.6-13.4c-0.6,1.4-1.5,2.7-2.6,4c-3.8,4.2-9.2,6.9-14.3,9.3
			C1795.4,1490.3,1788.7,1493.6,1782.8,1491.3z"/>
		<path class="st4" d="M1781.9,1461.4c5.6-3.9,12.1-5.5,18.8-4.7c1.4,0.2,1.2,2.3-0.3,2.1c-6.2-0.7-12.1,0.7-17.2,4.2
			C1782.1,1463.9,1780.7,1462.2,1781.9,1461.4z"/>
		<path class="st4" d="M1781.7,1456.6c4.9-3,10.4-4.6,16.2-4.7c1.4,0,1.7-2.1,0.3-2.1c-1.5,0-2.9,0.1-4.3,0.3
			c2.3-2.1,4.9-5.3,5.6-8.1c0.5-2.1-0.1-4-3-4.9c-3.4-1-6.4,1.6-7.8,4.4c-0.6,1.3-1,2.8-1.1,4.2c0,0.4,0,0.9,0,1.3
			c-0.1-0.4-0.2-0.8-0.3-1.2c-1.2-3.7-3-7.3-5.6-10.2c-1.1-1.3-2.8-2.5-4.6-2.9c-1.4-0.3-2.9-0.1-4.2,1c-1.6,1.3-2,3.2-1.9,5.1
			c0.1,1.6,0.7,3.2,1.3,4.4c1.2,2.3,3,4.1,5,5.7c2,1.6,4.2,2.9,6.4,4.1c-1.2,0.6-2.3,1.2-3.5,1.9
			C1779.1,1455.7,1780.5,1457.3,1781.7,1456.6z M1790.1,1450.4c-0.3-1.7-0.5-3.5-0.2-5.3c0,0,0,0,0-0.1c0.4-2.4,1.9-5.8,4.9-5.9
			c2.8-0.1,2.7,1.8,1.9,3.8l0,0c-0.5,1.3-1.4,2.7-1.9,3.3C1793.5,1447.9,1791.9,1449.3,1790.1,1450.4z M1785.8,1452.2
			c0-0.2-0.2-0.5-0.5-0.7c-1.5-0.8-3.5-2-5.4-3.3c-4.1-2.8-8-6.7-6.5-11c2.4-6.9,8.5,2.4,9.7,4.7c0.8,1.5,1.4,3.1,1.9,4.7
			c0.5,1.5,0.9,3,1.1,4.6c0.1,0.3,0.2,0.6,0.5,0.7C1786.4,1452,1786.1,1452.1,1785.8,1452.2z"/>
	</g>
	<path class="st5" d="M1691,919.8c0,0,68.8,9.4,85-73.5c16.2-82.9-387.5-28.7-387.5-28.7s-29.8,79.5,42.2,105
		c72,25.4,210.7,4.4,210.7,4.4L1691,919.8z"/>
	<path class="st5" d="M1402.6,891.9l-94,520l100.8,17.4L1562.9,922C1562.9,922,1499.9,828.4,1402.6,891.9z"/>
	<path class="st5" d="M1727.3,893.4l92,520l-98.7,17.4l-150.3-507.3C1570.3,923.5,1632,829.8,1727.3,893.4z"/>
	<path class="st2" d="M1509.8,894.1c-1.7,16-18.9,23.4-33.2,23.2c-14.7-0.2-29.4-9.5-30.7-25.1c-0.2-2.5-4.2-2.7-4-0.1
		c1.5,17.8,17.5,29,34.6,29.2c16.7,0.2,35.4-8.9,37.3-27.1C1514.1,891.7,1510.1,891.6,1509.8,894.1z"/>
	<path class="st2" d="M1408,1426.1c-32.6-4.1-65.7-7.1-97.4-15.9c-2.5-0.7-3.6,3.1-1.1,3.8c32.1,8.9,65.6,11.9,98.5,16.1
		C1410.4,1430.4,1410.5,1426.4,1408,1426.1z"/>
	<path class="st2" d="M1817.5,1412.2c-31.5,5.8-63,11.7-94.5,17.5c-2.5,0.5-1.6,4.4,0.9,3.9c31.5-5.8,63-11.7,94.5-17.5
		C1821,1415.6,1820.1,1411.7,1817.5,1412.2z"/>
	<path class="st2" d="M1725.7,871.9c-1.6-2-4.5,0.7-2.9,2.7c5.3,6.8,7.7,14.9,7.4,23.5c-0.1,2.6,3.9,2.7,4,0.1
		C1734.5,888.6,1731.6,879.6,1725.7,871.9z"/>
	<path class="st2" d="M1406.4,871.2c-5.1,4.9-8.1,11.2-8.8,18.3c-0.2,2.6,3.8,2.7,4,0.1c0.6-6,3.2-11.3,7.5-15.5
		C1411,872.3,1408.3,869.4,1406.4,871.2z"/>
	<path class="st2" d="M1588,872.8c-11.4,11.8-18,27-18.6,43.4c-0.1,2.6,3.9,2.7,4,0.1c0.6-15.3,6.7-29.6,17.3-40.6
		C1592.5,873.9,1589.8,870.9,1588,872.8z"/>
	<path class="st2" d="M1561.7,886.8c-2.3-5.7-5.8-10.7-10.5-14.7c-1.9-1.7-4.9,1-2.9,2.7c4.4,3.8,7.7,8.4,9.9,13.9
		C1559.1,891,1562.6,889.1,1561.7,886.8z"/>
	<path class="st2" d="M1689.1,887.3c1.2,16.1-14.4,26.4-28.5,28.8c-14.5,2.5-30.6-4.1-34.7-19.2c-0.7-2.5-4.6-1.9-4,0.6
		c4.7,17.2,22.4,25.4,39.3,22.6c16.5-2.8,33.3-15.1,31.9-33.4C1692.8,884.1,1688.9,884.7,1689.1,887.3z"/>
</g>
<polygon class="st1" points="2091.5,771.1 0,771.1 91.5,688.9 1986.1,685.7 "/>
<g>
	<path class="st2" d="M1651,686.7h188.6c4.5-5.6,8.8-11.4,12.9-17.3c41.7-61.2,189.9-302.5-90.7-579.8c-3.7-3.7-9.2,5.1-13.8,7.7
		c-8.6,4.9-17.2,10-25.6,15.1c-8.5,5.1-14.6,14.1-14,15.1c15.6,27.6,53.1,105.7,45,182c-3,28.6-17,53.2-40,70.4
		c-23.2,17.4-51.5,25.6-79.8,29.4c-36.8,5-74.4,4.5-111.4,5.8c-2.6,0.1-2.7,4.1-0.1,4c2-0.1,3.9-0.1,5.9-0.2
		c-94.7,9.7-186.7,48.6-258.3,111.5c-34.1,29.9-67,71-65.4,118.9c0.7,21.4,9,42.9,26.7,55.7c19.7,14.2,46.9,17.3,70.5,18.1
		c14.8,0.5,29.8-0.6,44.3-4c14.7-3.4,28.5-9.5,42.5-15.2c30.4-12.3,62.3-17.5,95-13.4c1.5,0.2,2.1-1.1,1.9-2.2
		c34.5-4.9,68.5-21.6,103.5-12.8c17.8,4.4,33.9,13.6,50.7,20.7c3.9,1.6,7.8,3.2,11.8,4.6V686.7z"/>
	<g>
		<path class="st6" d="M1499.7,338.2c-0.2,1.7,0.7,3.4,2.8,3.8c21.4,3.6,42.2,9.6,62.2,17.8c1.2,0.5,2.3,0.3,3.2-0.2
			c1.7,0.2,3.6-0.6,4.1-2.7c7.4-33.4,2.6-68.9-14.1-98.9c-5.2-9.3-13.5-23.2-26.1-16.7c-11.9,6.2-10.9,19.8-12.3,31.6
			c-5.3-4.3-11.3-7.8-18.4-7.5c-7.5,0.3-13.1,4.8-15.6,11.7c-3.1,8.6-1,18.7,1,27.2C1489.1,316.3,1493.7,327.5,1499.7,338.2z"/>
		<path class="st3" d="M1488.1,332.4c17.4-40.3,80.5-25.6,80.8,17.4c0.6,0.1,1.1,0.2,1.7,0.3c6.2,1.5,12.1,6,14,12.3
			c2.3,7.2-0.9,14.7-7.1,18.8c-7,4.6-15.3,3.5-22.9,1.2c-6.8,6.4-15.6,10.7-25.3,11.6c-21,1.9-44.2-13-46.7-34
			C1480.6,343.5,1486.5,335.9,1488.1,332.4z"/>
		<path class="st3" d="M1512.5,430.4c10,11.4,33,8.1,47.1,4.7c6.4-1.6,10.1-8.3,8.1-14.6c-3.2-9.9-8-24.4-11.6-34.7
			c-0.6-1.9-1.2-3.6-1.8-5.1c-1.4-3.9-2.4-6.6-2.9-7.2l-44.5-12L1512.5,430.4z"/>
	</g>
	<path class="st2" d="M1503.7,343.8c3.8-1.3,6.7-4.2,7.6-8.2c0.7-3.1,5.7-2.4,5,0.8c-1.3,5.6-5.2,10.2-10.7,12.1
		C1502.5,349.5,1500.6,344.8,1503.7,343.8z"/>
	<path class="st2" d="M1525.3,341.6c4.1-1.3,6.6,4.9,2.5,6.2C1523.6,349.1,1521.1,342.9,1525.3,341.6z"/>
	<path class="st2" d="M1500.6,332.6c4.1-1.3,6.6,4.9,2.5,6.2C1499,340.1,1496.5,333.9,1500.6,332.6z"/>
	<path class="st2" d="M1533.7,332.7c2.7,1.9,4.8,4.6,6,7.7c1.2,3-3.5,4.9-4.7,1.9c-0.9-2.4-2.4-4.2-4.5-5.6
		C1527.9,334.8,1531,330.9,1533.7,332.7z"/>
	<path class="st2" d="M1500.4,322.7c3.4-2.1,7.5-2.5,11.1-0.7c2.9,1.4,0.9,6-2,4.6c-2-1-4.2-1-6.1,0.2
		C1500.7,328.5,1497.7,324.4,1500.4,322.7z"/>
	<path class="st2" d="M1498,354.4c4.6,5.8,12.5,7.7,19.2,4.6c2.9-1.3,4.8,3.3,1.9,4.7c-8.8,4-19.2,1.3-25-6.3
		C1492,354.8,1496,351.8,1498,354.4z"/>
	<path class="st2" d="M1525.9,397.6c11.1-1.1,21.2-5,30.2-11.7c-0.6-1.9-1.2-3.6-1.8-5.1c-0.5,0-1,0.2-1.4,0.6
		c-8.2,6.2-17.3,9.7-27.5,10.7C1521.7,392.3,1522.3,397.9,1525.9,397.6z"/>
	<path class="st2" d="M1565.5,358.1c4.4-1.7,9.6-0.3,12.1,3.9c2.5,4.2,1.2,9.3-2.3,12.5c-2.7,2.4-6-2.1-3.4-4.5
		c3.4-3.1-0.3-8.2-4.4-6.6C1564.2,364.6,1562.1,359.4,1565.5,358.1z"/>
	<path class="st7" d="M1346.7,602c-10.6-15.1-27.9-24.2-46.2-24.9c-2.6-0.1-2.7,3.9-0.1,4c13.2,0.5,25.6,5.6,35.2,14.3
		c-21.4-10.2-47.8-8.9-67.8,4.5c-2.1,1.4-0.3,5,1.9,3.5c22.2-14.8,52.2-14.3,73.9,1.3c0.2,0.1,0.4,0.2,0.6,0.3
		C1345.5,606.4,1348,603.9,1346.7,602z"/>
	<path class="st7" d="M1701.9,484.4c-8.6-22.3-20.9-43-36.3-61.3c-1.7-2-4.6,0.7-2.9,2.7c15.2,18.1,27.2,38.4,35.7,60.5
		C1699.3,488.6,1702.8,486.7,1701.9,484.4z"/>
	<path class="st7" d="M1436.1,452.3c-1.3-2.2-4.8-0.4-3.5,1.9c7.1,12.6,10.8,26.5,10.9,41c0,2.6,4,2.7,4,0.1
		C1447.3,480.1,1443.5,465.5,1436.1,452.3z"/>
	<g>
		<g>
			<path class="st3" d="M1767.5,7.2c-0.6-0.7-1.8-1-2.7-0.7c-2.1,0.7-3.6,2.1-4.7,3.9c-1.3-2.9-3.2-5.3-6-6.8
				c-5.2-2.8-8.1,0.4-9.8,5.4c-1.2-3.9-3.1-7.6-6.3-8.6c-5.7-1.8-8.1,3.3-9,10.1c-2.2-4.9-5.2-7.9-9.5-6.5c-1.4,0.4-2.5,1.3-3.4,2.4
				c-3.1,4-3.1,11.3-3.1,15.3c0,6.9,1.8,28.2,1.8,29.2c-0.3-0.3-11-13.8-15.6,1c-4.2,13.3-1.1,31.5,0.9,45
				c1.4,9.2,2.3,22.5,8.3,30.8c0.1,0.2,0.2,0.4,0.4,0.5c1.1,1.5,2.5,2.8,4,3.9c21.7,15.1,46.6,7,55.7-16.9c3.8-10,5.3-27.7,5.4-45.8
				c0,0,0,0,0,0C1773.8,40.7,1770.5,10.9,1767.5,7.2z"/>
			<path class="st3" d="M1756.4,28.9c-0.1-0.1-0.2-0.2-0.2-0.4C1756.7,29.7,1756.7,29.6,1756.4,28.9z"/>
		</g>
		<path class="st2" d="M1724.7,84c-1.9-2.1-4.9,1-3.1,3.1c6.2,7.1,8.9,15.9,7.9,25.2c-0.3,2.8,4.1,2.7,4.4,0
			C1735,101.8,1731.6,91.8,1724.7,84z"/>
		<path class="st2" d="M1725,23.6l0.7,18.2c0.1,2.8,4.5,2.8,4.4,0l-0.7-18.2C1729.3,20.8,1724.9,20.8,1725,23.6z"/>
		<path class="st2" d="M1740.3,22.3l0.7,17.4c0.1,2.8,4.5,2.8,4.4,0l-0.7-17.4C1744.5,19.5,1740.1,19.5,1740.3,22.3z"/>
		<path class="st2" d="M1756.3,23.9L1757,42c0.1,2.8,4.5,2.8,4.4,0l-0.7-18.2C1760.6,21,1756.2,21.1,1756.3,23.9z"/>
		<path class="st2" d="M1761.8,56.1c-10.8-6.8-23.5-5.2-35.5-3.2c-2.8,0.5-1.6,4.7,1.1,4.2c10.9-1.8,22.4-3.3,32.2,2.8
			C1762,61.4,1764.1,57.6,1761.8,56.1z"/>
		<path class="st2" d="M1717.9,58.3c-1-2.6-5.2-1.5-4.2,1.1c2.3,6.1,2.3,12.3,0,18.5c-0.9,2.6,3.3,3.7,4.2,1.1
			C1720.4,72.2,1720.4,65,1717.9,58.3z"/>
	</g>
	<path class="st7" d="M1821.7,326c-7.3-4.3-15.6-5.6-23.7-3.4c-2.5,0.7-1.6,4.6,0.9,3.9c7.2-1.9,14.3-1,20.7,2.9
		C1821.8,330.7,1824,327.3,1821.7,326z"/>
</g>
<g>
	<rect y="771.1" class="st1" width="2091.5" height="93"/>
	<path class="st1" d="M152.3,1497.4L152.3,1497.4c-12.8-0.9-22.2-9-20.9-18l91.8-632.8c1.3-9,12.8-15.6,25.6-14.7l0,0
		c12.8,0.9,22.2,9,20.9,18l-91.8,632.8C176.6,1491.7,165.1,1498.3,152.3,1497.4z"/>
	<path class="st1" d="M1973.1,1482.6L1973.1,1482.6c12.8-0.9,22.2-9,20.9-18l-91.8-632.8c-1.3-9-12.8-15.6-25.6-14.7l0,0
		c-12.8,0.9-22.2,9-20.9,18l91.8,632.8C1948.8,1476.9,1960.3,1483.5,1973.1,1482.6z"/>
	<path class="st2" d="M887.3,860.4H3.8c-4,0-4.5,4.5-0.5,4.5h262.4c-0.1,0.2-0.2,0.4-0.3,0.7c-9.8,66.4-19.6,132.7-29.3,199.1
		c-2.8,18.7-5.5,37.4-8.3,56.1c-0.4,2.9,5.8,3.3,6.3,0.4c9.8-66.4,19.6-132.7,29.3-199.1c2.8-18.7,5.5-37.4,8.3-56.1
		c0.1-0.4,0-0.8-0.2-1.1h615.3C890.8,864.9,891.3,860.4,887.3,860.4z"/>
	<path class="st2" d="M1767.7,859.5h-233.9c-4,0-4.5,4.5-0.5,4.5h233.9C1771.3,864,1771.8,859.5,1767.7,859.5z"/>
	<path class="st2" d="M2070.8,860.4h-263.1c-4,0-4.5,4.5-0.5,4.5h95.1c8.9,63.4,17.8,126.9,26.7,190.3c0.4,2.9,6.6,2,6.2-0.9
		c-8.9-63.2-17.7-126.3-26.6-189.5h161.7C2074.4,864.9,2074.9,860.4,2070.8,860.4z"/>
	<path class="st2" d="M197.5,1315.9c-8.2,53.4-16.3,106.7-24.5,160.1c-0.4,2.9,5.8,3.3,6.3,0.4c8.2-53.4,16.3-106.7,24.5-160.1
		C204.2,1313.3,197.9,1313,197.5,1315.9z"/>
	<path class="st2" d="M1948.6,1205.1c8.6,53.3,17.2,106.6,25.8,160c0.5,2.9,6.7,2.2,6.2-0.7c-8.6-53.3-17.2-106.6-25.8-160
		C1954.3,1201.5,1948.1,1202.2,1948.6,1205.1z"/>
</g>
<g>
	<path class="st8" d="M959.6,761.5l-366,2.7c-8.4,0-12-17.1-9.6-24.9l45-44.8c1.6-5.1,6.5-8.6,12-8.6h263.6c5.6,0,10.2,3.7,11.7,9
		l50.5,41.2C969,743.8,969.5,758.5,959.6,761.5z"/>
	<path class="st9" d="M895.4,674.3H647.5c-9,0-16.3-7.2-16.3-16l-9.4-132.9c0-8.9,7.3-16,16.3-16l267.9-0.8c9,0,16.3,7.2,16.3,16
		l-10.6,133.7C911.7,667.1,904.4,674.3,895.4,674.3z"/>
	<path class="st10" d="M908.4,537.2l-10.6,104.5c0,1.1-0.1,2.2-0.3,3.3c-1.5,7.3-8.1,12.8-16,12.8H661.9c-9,0-16.3-7.2-16.3-16
		l-0.9-9.5l-8.6-94.2c0-8.9,7.3-16,16.3-16l201.8-0.7l3.2,0l34.5-0.1C901.1,521.1,908.4,528.3,908.4,537.2z"/>
	<path class="st9" d="M956.2,749.8l-359.9,2.7c-8.2,0-14.6-5.4-12.2-13.2c0,0,56.2-67.3,61.6-67.3l253.4,0.1
		c5.5,0,67.7,63.9,67.7,63.9C968.9,743.8,964.3,749.8,956.2,749.8z"/>
	<path class="st8" d="M811.2,747h-81.6c-2.5,0-3.7-2.1-2.6-4.3l5.8-15.4c0.7-1.4,2.2-2.4,3.6-2.4h68.7c1.5,0,3,1,3.7,2.4l5,15.4
		C814.9,745,813.6,747,811.2,747z"/>
	<g>
		<path class="st2" d="M799.6,718.5H695.5c-0.6,0-1-0.5-0.8-1.1l1.3-4.5c0.2-0.6,0.8-1.1,1.4-1.1h101.2c0.6,0,1.2,0.5,1.3,1.1
			l0.6,4.5C800.7,718,800.3,718.5,799.6,718.5z"/>
		<path class="st2" d="M824.8,718.5H810c-0.6,0-1.2-0.5-1.4-1.1l-0.8-4.5c-0.1-0.6,0.3-1.1,0.9-1.1h14.3c0.6,0,1.2,0.5,1.4,1.1
			l1.1,4.5C825.8,718,825.4,718.5,824.8,718.5z"/>
		<path class="st2" d="M849.5,718.5h-14.7c-0.6,0-1.3-0.5-1.5-1.1l-1.2-4.5c-0.2-0.6,0.2-1.1,0.8-1.1h14.3c0.6,0,1.3,0.5,1.5,1.1
			l1.6,4.5C850.5,718,850.1,718.5,849.5,718.5z"/>
		<path class="st2" d="M899.1,718.5h-14.7c-0.6,0-1.4-0.5-1.7-1.1l-2.1-4.5c-0.3-0.6,0-1.1,0.6-1.1h14.3c0.6,0,1.4,0.5,1.7,1.1
			l2.5,4.5C900,718,899.8,718.5,899.1,718.5z"/>
		<path class="st2" d="M878,718.5h-14.7c-0.6,0-1.4-0.5-1.6-1.1l-0.8-2.1c-0.2-0.6,0.1-1.1,0.7-1.1H876c0.6,0,1.4,0.5,1.7,1.1l1,2.1
			C878.9,718,878.6,718.5,878,718.5z"/>
		<path class="st2" d="M921,718.5h-14.7c-0.6,0-1.4-0.5-1.8-1.1l-1.2-2.1c-0.4-0.6-0.1-1.1,0.5-1.1h14.5c0.6,0,1.5,0.5,1.9,1.1
			l1.3,2.1C921.8,718,921.6,718.5,921,718.5z"/>
		<path class="st2" d="M908.1,699.1h-13.6c-0.6,0-1.3-0.5-1.7-1.1l-2-3.6c-0.4-0.6-0.2-1.1,0.4-1.1h13.2c0.6,0,1.4,0.5,1.8,1.1
			l2.3,3.6C908.9,698.6,908.7,699.1,908.1,699.1z"/>
		<path class="st2" d="M862.6,698.6H849c-0.6,0-1.2-0.5-1.5-1.1l-1.3-3.6c-0.2-0.6,0-1.1,0.6-1.1h13.2c0.6,0,1.3,0.5,1.5,1.1
			l1.5,3.6C863.4,698.1,863.2,698.6,862.6,698.6z"/>
		<path class="st2" d="M820,698.6h-13.6c-0.6,0-1.1-0.5-1.3-1.1l-0.6-3.6c-0.1-0.6,0.3-1.1,0.8-1.1h13.2c0.6,0,1.2,0.5,1.3,1.1
			l0.9,3.6C820.9,698.1,820.6,698.6,820,698.6z"/>
		<path class="st2" d="M774.3,698.6h-13.6c-0.6,0-1-0.5-1-1.1l0.1-3.6c0-0.6,0.5-1.1,1.1-1.1h13.2c0.6,0,1.1,0.5,1.1,1.1l0.2,3.6
			C775.3,698.1,774.9,698.6,774.3,698.6z"/>
		<path class="st2" d="M730.5,698.6h-13.6c-0.6,0-0.9-0.5-0.8-1.1l0.8-3.6c0.1-0.6,0.7-1.1,1.3-1.1h13.2c0.6,0,1,0.5,0.9,1.1
			l-0.5,3.6C731.6,698.1,731.1,698.6,730.5,698.6z"/>
		<path class="st2" d="M686.2,698.6h-13.6c-0.6,0-0.9-0.5-0.6-1.1l1.5-3.6c0.3-0.6,0.9-1.1,1.5-1.1h13.2c0.6,0,0.9,0.5,0.6,1.1
			l-1.2,3.6C687.4,698.1,686.8,698.6,686.2,698.6z"/>
		<path class="st2" d="M656.9,689.4h-13c-0.6,0-0.7-0.5-0.4-1.1l2-3.6c0.4-0.6,1.1-1.1,1.6-1.1h12.7c0.5,0,0.7,0.5,0.4,1.1l-1.8,3.6
			C658.2,688.9,657.5,689.4,656.9,689.4z"/>
		<path class="st2" d="M663.9,698.6h-27.8c-0.6,0-0.8-0.5-0.4-1.1l2-3.6c0.4-0.6,1.1-1.1,1.7-1.1h27.1c0.6,0,0.8,0.5,0.5,1.1
			l-1.6,3.6C665.2,698.1,664.5,698.6,663.9,698.6z"/>
		<path class="st2" d="M886.1,698.6h-13.6c-0.6,0-1.3-0.5-1.6-1.1l-1.7-3.6c-0.3-0.6-0.1-1.1,0.5-1.1H883c0.6,0,1.3,0.5,1.6,1.1
			l1.9,3.6C886.9,698.1,886.7,698.6,886.1,698.6z"/>
		<path class="st2" d="M840.6,698.6h-13.6c-0.6,0-1.2-0.5-1.4-1.1l-1-3.6c-0.2-0.6,0.2-1.1,0.7-1.1h13.2c0.6,0,1.2,0.5,1.4,1.1
			l1.2,3.6C841.5,698.1,841.2,698.6,840.6,698.6z"/>
		<path class="st2" d="M796.9,698.6h-13.6c-0.6,0-1.1-0.5-1.1-1.1l-0.3-3.6c0-0.6,0.4-1.1,0.9-1.1H796c0.6,0,1.1,0.5,1.2,1.1
			l0.5,3.6C797.8,698.1,797.4,698.6,796.9,698.6z"/>
		<path class="st2" d="M752.3,698.6h-13.6c-0.6,0-1-0.5-0.9-1.1l0.4-3.6c0.1-0.6,0.6-1.1,1.2-1.1h13.2c0.6,0,1,0.5,1,1.1l-0.2,3.6
			C753.4,698.1,752.9,698.6,752.3,698.6z"/>
		<path class="st2" d="M707.8,698.6h-13.6c-0.6,0-0.9-0.5-0.7-1.1l1.1-3.6c0.2-0.6,0.8-1.1,1.4-1.1h13.2c0.6,0,0.9,0.5,0.8,1.1
			l-0.9,3.6C709,698.1,708.4,698.6,707.8,698.6z"/>
		<path class="st2" d="M844,689.4h-12.8c-0.6,0-1.2-0.5-1.4-1.1l-1.1-3.6c-0.2-0.6,0.1-1.1,0.7-1.1h12.5c0.5,0,1.2,0.5,1.4,1.1
			l1.3,3.6C844.8,688.9,844.5,689.4,844,689.4z"/>
		<path class="st2" d="M803.6,689.4h-12.8c-0.6,0-1.1-0.5-1.1-1.1l-0.4-3.6c-0.1-0.6,0.3-1.1,0.9-1.1h12.5c0.5,0,1.1,0.5,1.2,1.1
			l0.6,3.6C804.6,688.9,804.2,689.4,803.6,689.4z"/>
		<path class="st2" d="M760.4,689.4h-12.8c-0.6,0-1-0.5-0.9-1.1l0.3-3.6c0.1-0.6,0.5-1.1,1.1-1.1h12.5c0.5,0,1,0.5,1,1.1l-0.1,3.6
			C761.4,688.9,761,689.4,760.4,689.4z"/>
		<path class="st2" d="M719,689.4h-12.8c-0.6,0-0.9-0.5-0.7-1.1l1-3.6c0.2-0.6,0.8-1.1,1.3-1.1h12.5c0.5,0,0.9,0.5,0.8,1.1l-0.7,3.6
			C720.1,688.9,719.5,689.4,719,689.4z"/>
		<path class="st2" d="M677.1,689.4h-12.8c-0.6,0-0.8-0.5-0.5-1.1l1.7-3.6c0.3-0.6,1-1.1,1.5-1.1h12.5c0.5,0,0.8,0.5,0.5,1.1
			l-1.4,3.6C678.3,688.9,677.6,689.4,677.1,689.4z"/>
		<path class="st2" d="M866.2,689.4h-12.8c-0.6,0-1.2-0.5-1.5-1.1l-1.4-3.6c-0.3-0.6,0-1.1,0.5-1.1h12.5c0.5,0,1.2,0.5,1.5,1.1
			l1.7,3.6C867,688.9,866.8,689.4,866.2,689.4z"/>
		<path class="st2" d="M823.2,689.4h-12.8c-0.6,0-1.1-0.5-1.2-1.1l-0.7-3.6c-0.1-0.6,0.2-1.1,0.8-1.1h12.5c0.5,0,1.1,0.5,1.3,1.1
			l1,3.6C824,688.9,823.7,689.4,823.2,689.4z"/>
		<path class="st2" d="M781.8,689.4H769c-0.6,0-1-0.5-1-1.1l0-3.6c0-0.6,0.4-1.1,1-1.1h12.5c0.5,0,1,0.5,1.1,1.1l0.3,3.6
			C782.7,688.9,782.3,689.4,781.8,689.4z"/>
		<path class="st2" d="M739.6,689.4h-12.8c-0.6,0-0.9-0.5-0.8-1.1l0.6-3.6c0.1-0.6,0.6-1.1,1.2-1.1h12.5c0.5,0,0.9,0.5,0.9,1.1
			l-0.4,3.6C740.7,688.9,740.2,689.4,739.6,689.4z"/>
		<path class="st2" d="M697.5,689.4h-12.8c-0.6,0-0.8-0.5-0.6-1.1l1.3-3.6c0.2-0.6,0.9-1.1,1.4-1.1h12.5c0.5,0,0.8,0.5,0.6,1.1
			l-1.1,3.6C698.7,688.9,698.1,689.4,697.5,689.4z"/>
		<path class="st2" d="M832.7,708.4h-14.1c-0.6,0-1.2-0.5-1.4-1.1l-0.8-3.6c-0.1-0.6,0.2-1.1,0.8-1.1H831c0.6,0,1.2,0.5,1.4,1.1
			l1,3.6C833.6,707.9,833.3,708.4,832.7,708.4z"/>
		<path class="st2" d="M879.7,708.4h-14.1c-0.6,0-1.3-0.5-1.6-1.1l-1.5-3.6c-0.3-0.6,0-1.1,0.6-1.1h13.8c0.6,0,1.3,0.5,1.6,1.1
			l1.7,3.6C880.5,707.9,880.3,708.4,879.7,708.4z"/>
		<path class="st2" d="M856.5,708.4h-14.1c-0.6,0-1.3-0.5-1.5-1.1l-1.1-3.6c-0.2-0.6,0.1-1.1,0.7-1.1h13.8c0.6,0,1.3,0.5,1.5,1.1
			l1.4,3.6C857.4,707.9,857.2,708.4,856.5,708.4z"/>
		<path class="st2" d="M785.1,708.4h-14.1c-0.6,0-1.1-0.5-1.1-1.1l-0.1-3.6c0-0.6,0.5-1.1,1.1-1.1h13.8c0.6,0,1.1,0.5,1.2,1.1
			l0.3,3.6C786.1,707.9,785.7,708.4,785.1,708.4z"/>
		<path class="st2" d="M739.4,708.4h-14.1c-0.6,0-1-0.5-0.9-1.1l0.6-3.6c0.1-0.6,0.7-1.1,1.3-1.1H740c0.6,0,1,0.5,1,1.1l-0.4,3.6
			C740.5,707.9,740,708.4,739.4,708.4z"/>
		<path class="st2" d="M693.2,708.4h-14.1c-0.6,0-0.9-0.5-0.7-1.1l1.3-3.6c0.2-0.6,0.9-1.1,1.5-1.1H695c0.6,0,0.9,0.5,0.7,1.1
			l-1.1,3.6C694.4,707.9,693.8,708.4,693.2,708.4z"/>
		<path class="st2" d="M668.3,708.4h-39.9c-0.6,0-0.8-0.5-0.4-1.1l2.1-3.6c0.4-0.6,1.1-1.1,1.7-1.1h38.9c0.6,0,0.9,0.5,0.6,1.1
			l-1.4,3.6C669.7,707.9,669,708.4,668.3,708.4z"/>
		<path class="st2" d="M808.6,708.4h-14.1c-0.6,0-1.2-0.5-1.2-1.1l-0.4-3.6c-0.1-0.6,0.3-1.1,0.9-1.1h13.8c0.6,0,1.2,0.5,1.3,1.1
			l0.7,3.6C809.6,707.9,809.2,708.4,808.6,708.4z"/>
		<path class="st2" d="M762.1,708.4H748c-0.6,0-1.1-0.5-1-1.1l0.3-3.6c0-0.6,0.6-1.1,1.2-1.1h13.8c0.6,0,1.1,0.5,1.1,1.1l0,3.6
			C763.3,707.9,762.8,708.4,762.1,708.4z"/>
		<path class="st2" d="M715.7,708.4h-14.1c-0.6,0-1-0.5-0.8-1.1l1-3.6c0.2-0.6,0.8-1.1,1.4-1.1h13.8c0.6,0,1,0.5,0.8,1.1l-0.7,3.6
			C716.9,707.9,716.3,708.4,715.7,708.4z"/>
		<path class="st2" d="M685.6,718.1h-14.7c-0.6,0-1-0.5-0.7-1.1l1.4-3.6c0.2-0.6,0.9-1.1,1.6-1.1h14.4c0.6,0,1,0.5,0.8,1.1l-1.1,3.6
			C686.9,717.6,686.3,718.1,685.6,718.1z"/>
		<path class="st2" d="M636.5,718.1h-14.7c-0.6,0-0.9-0.5-0.5-1.1l2.1-3.6c0.4-0.6,1.2-1.1,1.8-1.1h14.4c0.6,0,0.9,0.5,0.5,1.1
			l-1.8,3.6C637.9,717.6,637.1,718.1,636.5,718.1z"/>
		<path class="st2" d="M661,718.1h-14.7c-0.6,0-0.9-0.5-0.6-1.1l1.7-3.6c0.3-0.6,1.1-1.1,1.7-1.1h14.4c0.6,0,0.9,0.5,0.6,1.1
			l-1.5,3.6C662.4,717.6,661.7,718.1,661,718.1z"/>
		<path class="st2" d="M915.9,708.9h-26.9c-0.6,0-1.4-0.5-1.7-1.1l-2.3-4.5c-0.3-0.6-0.1-1.1,0.5-1.1h26.2c0.6,0,1.4,0.5,1.8,1.1
			l2.9,4.5C916.7,708.4,916.5,708.9,915.9,708.9z"/>
		<path class="st2" d="M900.6,689.3H875c-0.6,0-1.3-0.5-1.6-1.1l-1.7-3.5c-0.3-0.6-0.1-1.1,0.4-1.1h25c0.5,0,1.3,0.5,1.7,1.1
			l2.2,3.5C901.3,688.8,901.2,689.3,900.6,689.3z"/>
	</g>
</g>
<g>
	<g>
		<path class="st1" d="M614.4,1526.3L614.4,1526.3c5.8-0.6,10.1-5.9,9.5-11.8l-41.7-413c-0.6-5.9-5.8-10.2-11.6-9.6h0
			c-5.8,0.6-10.1,5.9-9.5,11.8l41.7,413C603.4,1522.6,608.6,1526.9,614.4,1526.3z"/>
		<path class="st1" d="M335.3,1526.3L335.3,1526.3c-5.8-0.6-10.1-5.9-9.5-11.8l41.7-413c0.6-5.9,5.8-10.2,11.6-9.6h0
			c5.8,0.6,10.1,5.9,9.5,11.8l-41.7,413C346.3,1522.6,341.1,1526.9,335.3,1526.3z"/>
		<path class="st1" d="M362.9,1133h224.5c5.6,0,10.2-4.5,10.2-10.2V1089c0-5.6-4.5-10.2-10.2-10.2H362.9c-5.6,0-10.2,4.5-10.2,10.2
			v33.8C352.8,1128.4,357.3,1133,362.9,1133z"/>
		
			<rect x="350.9" y="1353.9" transform="matrix(-1 -1.224647e-16 1.224647e-16 -1 946.6442 2734.9136)" class="st1" width="244.8" height="27.1"/>
		
			<rect x="365.1" y="1215.1" transform="matrix(-1 -1.224647e-16 1.224647e-16 -1 956.1176 2457.1877)" class="st1" width="225.8" height="27.1"/>
	</g>
	<path class="st2" d="M423.7,1132.3h140.6c2.5,0,2.8,4,0.3,4H424C421.5,1136.3,421.1,1132.3,423.7,1132.3z"/>
	<path class="st2" d="M366,1132.3h44.2c2.5,0,2.8,4,0.3,4h-44.2C363.8,1136.3,363.5,1132.3,366,1132.3z"/>
	<path class="st2" d="M420.5,1237.8h152.4c2.5,0,2.8,4,0.3,4H420.8C418.3,1241.8,418,1237.8,420.5,1237.8z"/>
	<path class="st2" d="M376.3,1237.8h32.4c2.5,0,2.8,4,0.3,4h-32.4C374.1,1241.8,373.8,1237.8,376.3,1237.8z"/>
	<path class="st2" d="M362.1,1377.6h225.8c2.5,0,2.8,4,0.3,4H362.4C359.9,1381.6,359.6,1377.6,362.1,1377.6z"/>
</g>
<g>
	<g>
		<path class="st6" d="M991.3,599.4L991.3,599.4c1.4,0.1,2.3-1.5,1.3-2.6c-4.2-4.8-5.9-11.4-4-18.2c2.3-8,8-14.4,11-22.1
			c6.3-16.2-0.8-32.9-7.6-47.7c-0.7-1.6-3.1-0.3-2.4,1.3c5,11,10.4,22.6,9.7,35c-0.6,11.1-7.6,18.9-11.8,28.7
			C983.5,582.9,985,592.9,991.3,599.4z"/>
		<path class="st6" d="M1017.3,526.7c-3.4-9.6-10-17.6-14.1-26.8c-4.9-10.9-0.8-26.6,2.4-37.5c0.5-1.7-2.1-2.5-2.6-0.8
			c-2.9,10.1-5.7,22.3-4.2,32.8c1.4,10,9.2,18.8,13.6,27.6c5.9,11.8,6.2,24.8,1.3,37c-3.5,8.6-8.2,16.8-3.6,26
			c0.8,1.6,3.2,0.3,2.4-1.3c-5.6-11.1,4.5-22.2,6.6-32.9C1020.5,542.8,1020,534.3,1017.3,526.7z"/>
		<path class="st6" d="M1035.7,526.7c-6-14.9-20.9-28.3-15.8-45.7c0.5-1.7-2.1-2.5-2.6-0.8c-3.6,12.3,2.2,23.5,8.5,33.8
			c8.8,14.4,13.9,29.1,5.6,45.2c-0.8,1.5,1.5,3,2.3,1.4C1039.3,550,1040.2,537.9,1035.7,526.7z"/>
		<path class="st6" d="M1035.2,588.2c-1.3-2.3-3.5-4.1-4.5-6.5c-2-4.8-1.3-10,0.2-14.8c0.5-1.7-2.1-2.4-2.6-0.8
			c-1.4,4.6-2.5,10-1,14.8c2.2,6.8,9.1,10.3,6,18.5c-0.6,1.6,2,2.4,2.6,0.8C1037.6,596,1037.4,592.1,1035.2,588.2z"/>
		<path class="st6" d="M1018,598.3c-0.3-3.3-1.5-6.4-3.4-9.2c-0.9-1.5-3.4-0.2-2.4,1.3c2.2,3.4,3.4,7.2,3.1,11.3
			c-0.3,3.2-1.4,5.9-0.9,9c0.2,1.7,2.9,1.1,2.6-0.6C1016.5,606.2,1018.4,602.3,1018,598.3z"/>
	</g>
	<path class="st6" d="M966.6,626.5l5.3,20.2c-4.2-0.5-8.6,0.7-11.9,4c-7.2,7.1-4.9,18.8-2.7,27.5c2.4,9.5,5.7,20.9,15.1,25.7
		c4.8,2.5,10.4,2.3,14.6-0.2l3.8,14.4c1.1,4.3,5,7.3,9.5,7.3l34.5,0.2c4.7,0,8.7-3.3,9.7-7.9l18.8-92.3c0.7-3.4-2-6.6-5.4-6.5
		l-87.2,2.2C967.8,621.3,965.9,623.9,966.6,626.5z M969.4,692.9c-3.1-4.7-4.7-10.6-6-16.1c-1.3-5.3-3-11.5-1.5-16.9
		c1.5-5.6,7-8.4,11.8-6.5l11.6,44C981.3,702.5,972.7,697.8,969.4,692.9z"/>
	<path class="st2" d="M972.9,645.6c-1.5-6.1-3-12.3-4.5-18.4c-0.4-1.6-2.8-1-2.4,0.6c1.5,6.1,3,12.3,4.5,18.4
		C970.9,647.7,973.3,647.2,972.9,645.6z"/>
	<path class="st2" d="M1057.9,618.9c-26.1,0.6-52.1,1.2-78.2,1.9c-1.6,0-1.7,2.5-0.1,2.5c26.1-0.6,52.1-1.2,78.2-1.9
		C1059.4,621.3,1059.5,618.8,1057.9,618.9z"/>
	<path class="st2" d="M1037.7,724.4c-12.8,0.9-25.5,1.2-38.3,0.9c-1.6,0-1.7,2.5-0.1,2.5c12.8,0.3,25.6,0,38.3-0.9
		C1039.2,726.8,1039.3,724.3,1037.7,724.4z"/>
	<path class="st2" d="M986.3,696c-3.1-12.4-6.3-24.7-9.4-37.1c-0.4-1.6-2.8-1-2.4,0.6c3.1,12.4,6.3,24.7,9.4,37.1
		C984.3,698.1,986.7,697.6,986.3,696z"/>
</g>
<g>
	<path class="st3" d="M445.4,608.9c3.4,8.2,11,10.9,19.1,11.9c5.3,0.7,10.5,1.3,15.8,1.9c4,0.5,8.7,1.6,12.5,0
		c9.7-4,7.2-14,5.3-21.9c-2.8-12.1-3.3-24.6-1.9-36.9c0.2-1.5,0.3-2.9,0.6-4.4c0,0,0,0,0,0c14.1-3.2,26.4-12.9,33-26.3
		c0.8-1.5,1.4-3,2-4.6c0.6-1.6,1.1-3.2,1.4-4.8c8.6-35.4-29.8-71.5-63.4-61.4c-1.7-0.3-3.6,0-5.5,1.1
		c-20.4,11.4-31.7,36.4-26.1,59.2c2.1,8.6,6.8,16.5,13.2,22.8c-3.4,11.8-5.8,23.9-7,36.2C443.6,590.3,442,600.7,445.4,608.9z"/>
	<path class="st3" d="M461.2,536.1c0.8-6.6,6.1-11.8,12.7-12.7c7-0.9,14.1,3.9,16.1,10.5c0.7,2.3,0.4,4.8-0.8,6.8
		c0.3,2.2-0.4,4.5-1.9,6.5c-4.1,5.2-11.2,6.4-17.2,4.3C463.7,549.3,460.4,542.5,461.2,536.1z"/>
	<path class="st2" d="M488.5,426.6c-13.6-0.4-24.1,10.1-36.8,13.9c-6.6,2-12.7,1.6-19.2-0.6c-5.9-2-11.5-4.7-17.7-5.7
		c-10.9-1.8-20,3.7-26,12.5c-6.9,10-8.3,22.8-15.5,32.6c-13,17.9-67.1,33.4-49.7,64.3c7.3,13,21.9,4.7,33.9,3
		c7.9-1.2,12,3.7,16.5,9.3c3.8,4.7,7.9,8.6,13.6,10.7c4.7,1.8,9.6,2.2,14.3,1.6c5.6-0.1,11.1-1.4,16.7-3.6c3.7-1.4,7.8-3.3,11.9-4.7
		c4.9-0.5,9.8-0.5,14.7,1.2c6.5,2.2,12.1,6.3,18.3,9.2c8.1,3.8,18.2,5.4,26.3,0.6c3.1-1.8,5.1-4.3,6.3-7c0.1,0,0.2,0,0.3,0
		c0-0.4,0.1-0.9,0.2-1.3c1.6-5,0.6-10.9-2.6-15.8c-3-4.4-7.1-7.7-11.4-10.6c-4.8-3.3-11.1-6.7-13.5-12.3c-2.2-5.2-0.9-12.2,5.7-12.4
		c5.1-0.1,10.2,2.4,15.3,0.8c4.8-1.5,6.9-6.1,6.5-10.9c-0.3-3.2-2.4-7-1.5-10.2c0.7-2.5,3-4.1,5.1-5.4c4.7-2.9,9.6-4.9,13.3-9.3
		c3.8-4.5,5.9-10.4,5.8-16.3C519,454.7,520.9,427.5,488.5,426.6z"/>
	<path class="st2" d="M528.9,494.5c1.8,3.8,5.9,6.4,10.1,6.5c2.8,0,3.3,4.4,0.4,4.4c-6.4-0.1-11.9-3.6-14.7-9.3
		C523.5,493.5,527.7,491.9,528.9,494.5z"/>
	<path class="st2" d="M521.6,502.3c3.6-1.1,5.8,4.4,2.1,5.5C520.1,508.9,518,503.4,521.6,502.3z"/>
	<path class="st2" d="M513.1,506.4c0.1-3.3,1-6.3,2.9-9c1.7-2.3,5.1,0.5,3.4,2.8c-1.2,1.7-1.9,3.7-1.9,5.8c0,1.2-0.7,2.3-2,2.4
		C514.4,508.5,513.1,507.6,513.1,506.4z"/>
	<path class="st2" d="M524.7,526.2c2.1,1.8,4.6,2.5,7.1,2.4c0.6-1.6,1.1-3.2,1.4-4.8c-1.8,0.8-3.9,0.5-5.7-1
		C525.4,521,522.6,524.4,524.7,526.2z"/>
	<path class="st2" d="M521,487.1c0.1-2,1.3-3.8,2.9-4.9c1-0.7,2.4-0.5,3.1,0.5c0.7,1,0.5,2.4-0.5,3.1c-0.1,0.1-0.2,0.2-0.3,0.2
		c0,0,0,0-0.1,0.1c-0.1,0.1-0.2,0.2-0.3,0.3c0,0.1-0.1,0.1-0.1,0.1c0,0,0,0,0,0.1c-0.1,0.1-0.1,0.2-0.2,0.4c0,0,0,0.1-0.1,0.2
		c0,0.1,0,0.2,0,0.2c0,0.2,0,0.3-0.1,0.5c-0.1,1.2-1.5,2-2.6,1.8C521.5,489.4,520.9,488.3,521,487.1z"/>
	<g>
		<path class="st3" d="M1035.5,1396.6c-5.6,1-11.4,4.8-16.4,7.1c-6.8,3.1-13.8,6-20.1,10.1c-0.2-0.3-0.4-0.6-0.6-0.8
			c-2.1-2.6-6,0.3-5.3,3.1c3.1,12.1,10.8,23.7,16.3,34.8c5.9,11.9,11.9,23.8,17.9,35.7c1.5,3.1,5.7,2.4,7.4,0
			c4.3-6.3,12.8-7.9,19-11.6c6.4-3.9,10.8-9.7,11.1-17.4c0.4-9.8-4.7-19.5-8.1-28.4c-4.2-10.9-8.5-21.8-12.7-32.7
			C1042.2,1392.4,1036.3,1393.3,1035.5,1396.6z"/>
		<path class="st2" d="M1120.6,1462.5c0.5,0.5,0.9,1,1.4,1.4c3.4,4,4.1,8.3,3,8.7l-87.1,34.2c-4.4,1.7-9.4-0.4-11-4.8l-1.6-4.2
			l-0.6-1.7l-4.6-12.1c-0.3-0.6-0.5-1.2-0.7-1.8c-5-17.5,7-20,7-20c5-1.9,9.5-1.6,13.4-0.4c3.9,1.3,8.2,1.1,11.9-0.9
			c3.1-1.7,6.6-4.1,9.7-7.2c8.7-8.7,13.3,6.3,37.6,3.5c0.3,0,0.6-0.1,1-0.1c0.3,0,0.7-0.1,1-0.1
			C1110.5,1455.9,1116.8,1458.9,1120.6,1462.5z"/>
		<path class="st6" d="M1120.6,1462.5c0.5,0.5,0.9,1,1.4,1.4c-1.5,0.6-2.9,1.2-4.3,1.8c-4.8,2-9.6,4-14.4,5.9
			c-0.2,0.3-0.5,0.4-0.9,0.3c-9.4,3.7-18.9,7.3-28.4,10.6c-9.9,3.5-19.8,6.7-29.8,9.7c-6.3,1.9-12.6,3.8-18.9,5.6l-0.6-1.7
			c6.4-1.8,12.8-3.5,19.2-5.5c10.2-3.1,20.4-6.5,30.5-10c9.1-3.2,18.1-6.6,27-10.2c-1.9-3.8-2.8-8.7-2.4-13.3c0.3,0,0.6-0.1,1-0.1
			c0.3,0,0.7-0.1,1-0.1c-0.1,0.4-0.1,0.8-0.2,1.2c-0.4,4.1,0.4,8.1,2.2,11.8c0.2-0.1,0.4-0.2,0.6-0.2c5-2,10-4.1,14.9-6.2
			C1119.1,1463.2,1119.9,1462.9,1120.6,1462.5z"/>
		<path class="st6" d="M1071.9,1439.5c-3,2.2-2.4,7-1.4,10c1.2,3.5,3.7,6.5,6.9,8.3c-0.1,0.1-0.1,0.1-0.2,0.2
			c-4.1-4.1-14.5-2.2-14.6,4.3c-0.1,4,4.5,3.4,7.2,2.5c2.7-0.9,5.1-2.3,7.2-4.1c-0.3,1-0.5,2-0.5,2.8c0,0.7,1,0.9,1.2,0.2
			c0.5-1.6,0.9-3.2,1.7-4.6c0.8-1.3,2-2.3,2.7-3.7c0.3-0.5-0.2-1.2-0.8-0.9c-0.7,0.3-1.3,0.8-1.8,1.3c-0.1,0-0.1,0-0.2,0
			c-0.1-2.5-0.2-4.9-0.4-7.4c-0.1-2.2,0.1-4.8-0.6-7C1077.4,1438.8,1074.4,1437.7,1071.9,1439.5z M1064.5,1461.6
			c0.4-2.6,4.1-4,6.4-4.1c2-0.1,3.7,0.6,5.3,1.5c-1,1-2.2,1.9-3.4,2.6C1071.3,1462.5,1063.8,1466.1,1064.5,1461.6z M1076.4,1441.4
			c0.4,0.9,0.6,1.9,0.6,2.9c0.1,1.4,0.1,2.8,0.2,4.3c0.1,2.5,0.2,5,0.4,7.5c-4-2.9-7.8-8.4-5.9-13.3
			C1072.6,1440.2,1074.2,1439.8,1076.4,1441.4z"/>
		<path class="st6" d="M1090.1,1455.3c-2.6,0.9-5.6,5.1-5.6,7.8c0,0.5,0.6,0.7,0.9,0.3c1-1.1,1.5-2.6,2.4-3.8c0.9-1.2,2.2-2.1,3-3.4
			C1091.3,1455.6,1090.7,1455.1,1090.1,1455.3z"/>
	</g>
	<g>
		<path class="st3" d="M1113.8,1203.2c-4.1,4-6.8,10.3-9.7,15c-3.9,6.4-8.2,12.7-11.1,19.6c-0.3-0.1-0.7-0.2-1-0.3
			c-3.2-1-4.9,3.6-2.7,5.6c9.3,8.3,22.1,13.8,32.9,19.9c11.6,6.6,23.1,13.2,34.7,19.8c3,1.7,6.1-1.2,6.1-4.1
			c0.1-7.6,6.3-13.7,9.4-20.2c3.2-6.8,3.6-14-0.4-20.6c-5.1-8.4-14.7-13.6-22.5-19.1c-9.6-6.7-19.2-13.4-28.7-20.1
			C1117.1,1196,1112.6,1200,1113.8,1203.2z"/>
		<path class="st2" d="M1221.2,1210.8c0.7,0.1,1.3,0.3,1.9,0.4c5.1,1.4,8,4.6,7.3,5.6l-53.5,76.8c-2.7,3.9-8,4.8-11.8,2.1l-3.6-2.6
			l-1.5-1.1l-10.5-7.5c-0.5-0.3-1.1-0.7-1.6-1.1c-13.9-11.8-5.3-20.5-5.3-20.5c3.1-4.4,7-6.6,10.9-7.7c4-1.1,7.4-3.7,9.3-7.4
			c1.6-3.2,3.2-7.1,4.1-11.4c2.4-12.1,14.6-2.2,33.2-18c0.2-0.2,0.5-0.4,0.7-0.6c0.3-0.2,0.5-0.4,0.7-0.6
			C1209.1,1210.9,1216,1209.9,1221.2,1210.8z"/>
		<path class="st6" d="M1221.2,1210.8c0.7,0.1,1.3,0.3,1.9,0.4c-0.9,1.3-1.8,2.6-2.6,3.9c-2.8,4.3-5.7,8.7-8.7,12.9
			c0,0.3-0.2,0.6-0.5,0.8c-5.7,8.3-11.7,16.5-17.7,24.6c-6.3,8.3-12.7,16.6-19.3,24.6c-4.2,5.1-8.3,10.2-12.7,15.2l-1.5-1.1
			c4.3-5.1,8.7-10.1,12.9-15.2c6.8-8.3,13.4-16.7,19.8-25.3c5.8-7.7,11.4-15.5,16.8-23.5c-3.7-2.1-7.2-5.7-9.4-9.8
			c0.2-0.2,0.5-0.4,0.7-0.6c0.3-0.2,0.5-0.4,0.7-0.6c0.2,0.4,0.3,0.7,0.5,1.1c1.9,3.6,4.8,6.5,8.4,8.6c0.1-0.2,0.3-0.4,0.4-0.5
			c3-4.4,6-8.9,9-13.4C1220.3,1212.2,1220.8,1211.5,1221.2,1210.8z"/>
		<path class="st6" d="M1167.9,1218.7c-1.2,3.5,1.8,7.2,4.4,9.1c2.9,2.2,6.6,3.3,10.3,3c0,0.1,0,0.2-0.1,0.3
			c-5.7-1.1-13.3,6.2-9.8,11.6c2.2,3.4,5.7,0.3,7.4-1.9c1.7-2.2,3-4.8,3.7-7.4c0.3,1,0.7,1.9,1.2,2.6c0.4,0.6,1.4,0.2,1.2-0.5
			c-0.5-1.6-1-3.1-1.1-4.8c-0.1-1.5,0.3-3,0.2-4.5c-0.1-0.6-0.8-0.9-1.2-0.3c-0.4,0.6-0.6,1.3-0.7,2.1c-0.1,0-0.1,0.1-0.2,0.1
			c-1.5-2-2.9-3.9-4.4-5.9c-1.3-1.8-2.6-4.1-4.4-5.5C1172,1215,1168.9,1215.8,1167.9,1218.7z M1174,1241.2c-1.1-2.4,1.2-5.6,3-7
			c1.6-1.2,3.4-1.5,5.3-1.7c-0.3,1.4-0.8,2.7-1.4,4.1C1180.2,1238.1,1176,1245.3,1174,1241.2z M1172.7,1217.7
			c0.8,0.5,1.5,1.2,2.1,2.1c0.9,1.1,1.7,2.3,2.5,3.4c1.5,2,3,4,4.5,6c-5-0.2-11.1-2.6-12.3-7.8
			C1168.9,1218.9,1169.9,1217.7,1172.7,1217.7z"/>
		<path class="st6" d="M1191.8,1221.7c-1.6,2.2-1.8,7.4-0.3,9.6c0.3,0.4,0.9,0.2,1-0.3c0.2-1.5-0.2-3-0.1-4.5c0.1-1.5,0.7-3,0.7-4.5
			C1193,1221.3,1192.1,1221.2,1191.8,1221.7z"/>
	</g>
	<polygon class="st4" points="580.8,922 904.5,978.6 1144.4,1209 1106.3,1262.4 766.3,1089.8 	"/>
	<path class="st4" d="M994.7,1437.5L777,1122.8l-104.3-1.7c-18.5-0.3-37-1.3-55.5-3l-229-21.4c-29.3-2.7-55.9-18.9-71.2-44
		c-17.9-29.3-29.5-76.5-6.5-149.1c47-148.2,280.5,38.4,280.5,38.4l310.6,81.8l158.3,396.8L994.7,1437.5z"/>
	<path class="st6" d="M638.7,838.3c-0.5-6.6-0.7-13.1-0.5-19.7c5.5,2.8,11.2,5.5,16.8,8.1c-0.7-2.3-1.4-4.5-2-6.8
		c-0.9-3.3-1.8-6.5-2.6-9.9c-3.6-10.8-6.6-21.9-9-32.8c-1-4.7,0.3-9.2,3.4-12.2c0,0,0-0.1,0-0.1c0.1-2.1,0.7-4,1.6-5.7
		c-9.8-16.5-18.2-34-25.6-51.7c-10.9-26.2-19.2-53.5-22.4-81.7c-0.2-2,0.3-4.1,1.4-5.9c-65.3-30-136.5-51.1-208.9-45.2
		c-71.5,5.8-136.8,39.9-193.8,81.7c-14.2,10.4-28.1,21.4-41.7,32.7c-13.6,11.3-26.9,23.2-36.6,38.2c-9.1,13.9-14.3,31-12.3,47.7
		c2,16.6,11.3,30.5,25.5,39.2c12.6,7.7,27.9,10.6,42.4,11.6c18.3,1.2,36.9,0.2,55.1-2c7.1-0.9,14.2-1.9,21.2-3.2
		c1.7,23.7,7,47.2,15.9,69.1c8,19.7,19.5,39,38.2,50.2c20.5,12.4,46.1,11.1,69.2,11.6c52.8,1.2,105.6,2.3,158.4,3.5
		c13.4,0.3,26.8,0.6,40.2,0.9c12.6,0.3,25.1,0.4,37.5-2.4c10.5-2.4,20.3-7.3,28.1-14.8c8.1-7.9,12.2-18.5,12.7-29.7
		c0.5-12-3.1-23.8-6.1-35.3C641.7,862,639.7,850.3,638.7,838.3z"/>
	<path class="st2" d="M558.9,721.4c3.6,11,9.7,20.9,17.9,29c1.8,1.8-0.8,4.8-2.6,3c-8.7-8.6-15.2-19-19.1-30.7
		C554.4,720.3,558.1,719,558.9,721.4z"/>
	<path class="st2" d="M265.6,683.8c0.7-2.4,4.5-1.7,3.9,0.8c-10.7,39.2-16.1,79.7-16,120.3c0,2.5-3.9,2.8-3.9,0.3
		C249.5,764.2,254.8,723.4,265.6,683.8z"/>
	<path class="st2" d="M270.1,668.5c3.8-9.7,8.3-19,13.6-27.9c1.3-2.2,4.8-0.4,3.5,1.8c-5.3,8.9-9.8,18.3-13.6,27.9
		C272.7,672.6,269.2,670.8,270.1,668.5z"/>
	<path class="st2" d="M904.1,1132.3c15.6,22,37.9,37.6,59.8,52.8c2.1,1.4-0.5,4.4-2.6,3c-22.2-15.4-44.7-31.2-60.5-53.5
		C899.4,1132.4,902.7,1130.2,904.1,1132.3z"/>
	<path class="st2" d="M882.7,1102.2c2.6,7.9,7,14.8,13.2,20.4c1.9,1.7-0.7,4.7-2.6,3c-6.6-6.1-11.5-13.5-14.3-22.1
		C878.2,1101.1,881.9,1099.8,882.7,1102.2z"/>
	<path class="st2" d="M575.2,1111.8c72,10.8,145.2,12.6,217.6,5.3c20.5-2.1,40.9-4.9,61.2-8.4c2.5-0.4,2.7,3.5,0.2,3.9
		c-24.2,4.2-48.6,7.3-73,9.5c55.4,81.2,110.8,162.3,166.2,243.5c15.4,22.5,31.1,46.9,46.5,69.5c21.4-5.8,42.9-11.7,64.3-17.5
		c2.4-0.7,3.8,3.1,1.3,3.7c-21.6,5.9-43.2,11.8-64.8,17.7c-0.8,0.2-1.4,0-1.9-0.4c-0.6-0.1-1.3-0.4-1.7-1.1
		c-55.6-81.4-111.1-163.6-166.7-245.1l-47-68.9c-0.2-0.4-0.3-0.7-0.3-1.1c-47.1,3.9-94.4,4-141.5,0.2c-20.4-1.6-40.8-4-61.1-7
		C571.9,1115.3,572.7,1111.4,575.2,1111.8z"/>
	<path class="st2" d="M419.7,1044.6c6.9,14.4,26.4,25.6,43.6,16.5c20.1-10.7,18.2-33.5,15.4-51c0-0.2-0.1-0.4-0.2-0.5
		c0-1-0.7-2-2-1.8c-19.5,3.8-39.4,3.9-59,0.2c-1.1-0.2-1.9,0.4-2.2,1.3c-0.1,0.2-0.2,0.4-0.2,0.7
		C414.8,1021.5,414.5,1033.7,419.7,1044.6z M419.1,1012.3c18.5,3.2,37.5,3.2,56-0.2c1.7,10.9,3.4,22.7-1.6,33.1
		c-4.3,8.8-13.6,16.7-25.3,15.8c-11.5-0.9-20.9-9.2-25-18.1C418.7,1033.2,418.7,1022.6,419.1,1012.3z"/>
	<path class="st2" d="M314.6,999.7c-1-1.5,0.6-3.9,2.5-2.9c2.9,1.5,5.7,3,8.6,4.5c2.3,1.2,0.5,4.7-1.8,3.5c-1.9-1-3.8-2-5.6-2.9
		c-0.9,9.1,0.2,18.2,3.2,26.9c2.9,8.3,8.1,18.8,17.1,21.7c9,2.9,18-4,21.9-11.7c4.5-9.2,3.6-20,2.7-29.9
		c-10.5-0.6-21.1-1.6-31.6-2.9c-2.5-0.3-1.8-4.2,0.8-3.9c10.6,1.3,21.2,2.3,31.8,2.9c0.9,0,1.5,0.6,1.8,1.2c0.5,0.3,1,0.8,1,1.6
		c1,11.7,2.1,24.9-4.5,35.2c-4.9,7.7-14,13.8-23.4,11.8c-10.1-2.2-16.2-12.1-20-21C314.6,1023,313.2,1011.2,314.6,999.7z"/>
	<path class="st2" d="M387.3,980.7c0.6-2.5,4.5-1.7,3.9,0.8c-5.3,21.8-6.3,44.4-3,66.6c0.4,2.5-3.6,2.8-3.9,0.3
		C380.9,1025.8,381.9,1002.9,387.3,980.7z"/>
	<path class="st2" d="M1105,1261.9c12.2-18.5,24.7-36.7,37.7-54.6c1.5-2.1,4.5,0.6,3,2.6c-12.8,17.6-25.2,35.5-37.2,53.7
		C1107.2,1265.8,1103.6,1264,1105,1261.9z"/>
	<path class="st3" d="M795.4,693c-0.6-3.6-2.2-7.5-6-8.9c-2.2-0.8-4.7-0.6-6.6,0.5c-4.3-2.8-9.9-2.5-14,0.6
		c-4.2-2.7-9.7-2.5-13.7,0.3c-3.5-3-15.6-0.6-16.9,13c-0.1,1.3-0.4,2.6-0.5,3.9c-2-1.4-8.3-4.5-10.5-4.9c-3.8-0.7-6.5,2.1-6.4,5.8
		c0.4,8.9,7.2,18.2,13.7,23.9c0.4,1.4,1.7,2.6,3.5,2.4c18.1-2,36.4-1.9,54.5,0.2c0.9,3.1,6.1,3,5.9-0.6
		C797.4,717.4,797.3,705,795.4,693z"/>
	<path class="st6" d="M800.5,718.6c0,0,104.2,318.8-165.6,196.7s-35-295.3-35-295.3s99.8,89.7,124.4,119.9l1.3-21.7L800.5,718.6z"/>
	<path class="st2" d="M569.5,619.3c1.9-1.7,4.9,0.9,3,2.6c-24,21.6-24,56.1-17.4,85.4c0.6,2.5-3.2,3.8-3.7,1.3
		C544.4,678.1,544.4,641.9,569.5,619.3z"/>
	<path class="st3" d="M490.8,515.8c-4.3-12.9-23.1-14.2-27.2-0.4c-4.1,13.7,12.4,23.1,22.9,14.4c3.5-2.9-1.3-8-4.7-5.2
		c-5.4,4.4-13.5-0.5-11.5-7.3c2-6.7,11.5-6.6,13.7,0C485.4,521.6,492.3,520.1,490.8,515.8z"/>
	<path class="st2" d="M484.6,516.2c-3.2-5.1-11-5-13.3,0.9c-2.2,5.7,3.2,11.4,9.1,9.7c2.5-0.7,1.6-4.6-0.9-3.9
		c-2.7,0.8-5.5-1.3-4.5-4.2c0.9-2.7,4.6-3.1,6.1-0.7C482.4,520.2,486,518.4,484.6,516.2z"/>
	<path class="st2" d="M784.9,852.9c-4.8-37.8-21.6-73.4-47.7-101.1c-1.8-1.9-4.7,0.8-2.9,2.7c25.6,27.3,42,62.2,46.7,99.3
		C781.4,856.4,785.2,855.5,784.9,852.9z"/>
	<path class="st2" d="M757.7,690.7c-0.2-2.5-4.2-2.7-4-0.1c0.2,2.3,0.3,4.7,0.5,7c0.2,2.5,4.2,2.7,4,0.1
		C758,695.4,757.9,693,757.7,690.7z"/>
	<path class="st2" d="M771.7,690.2c-0.2-2.5-4.2-2.7-4-0.1c0.1,2.3,0.3,4.7,0.4,7c0.2,2.5,4.2,2.7,4,0.1L771.7,690.2z"/>
	<path class="st2" d="M785.2,689.2c-0.2-2.5-4.2-2.7-4-0.1c0.2,2.5,0.3,5,0.5,7.5c0.2,2.5,4.2,2.7,4,0.1
		C785.6,694.2,785.4,691.7,785.2,689.2z"/>
	<path class="st2" d="M786.6,864.7c-0.4-2.5-4.3-1.6-3.9,0.9c1.3,8.2,0.3,16.2-2.8,23.9c-1,2.4,2.9,3.5,3.8,1.1
		C787.1,882.4,788,873.6,786.6,864.7z"/>
	<path class="st2" d="M633,894.1c-23.5-20.9-41.6-47-53.1-76.2c-0.9-2.4-4.5-0.5-3.5,1.9c11.6,29.5,30,55.9,53.7,77
		C631.9,898.5,634.9,895.8,633,894.1z"/>
</g>
<path class="st2" d="M2066.3,769.9h-740c-2.6,0-2.7,4-0.1,4h740C2068.8,773.9,2068.9,769.9,2066.3,769.9z"/>
<path class="st2" d="M1277,770.2h-168.7c-2.6,0-2.7,4-0.1,4h168.7C1279.4,774.2,1279.6,770.2,1277,770.2z"/>
<path class="st2" d="M89.7,771.2h-71c-2.6,0-2.7,4-0.1,4h71C92.1,775.2,92.2,771.2,89.7,771.2z"/>
<g>
	<path class="st8" d="M1678.4,727h-295.7c-3,0-5.4-2.4-5.4-5.4v-14c0-3,2.4-5.4,5.4-5.4h295.7c3,0,5.4,2.4,5.4,5.4v14
		C1683.7,724.6,1681.3,727,1678.4,727z"/>
	<path class="st9" d="M1668.1,707.8h-276.6c-10.1,0-18.2-8-18.2-17.9l-10.5-148.3c0-9.9,8.2-17.9,18.2-17.9l299-0.9
		c10.1,0,18.2,8,18.2,17.9l-11.9,149.2C1686.3,699.8,1678.2,707.8,1668.1,707.8z"/>
	<circle class="st8" cx="1530.1" cy="611" r="13.4"/>
</g>
<g>
	<g>
		<path class="st4" d="M1945,622.7c-0.1-5.1-4-7.1-7.6-6.4c-0.1,0-0.2,0-0.4,0c-18.1,0.6-90.4,0.6-108.5,0c-0.1,0-0.2,0-0.4,0
			c-3.6-0.7-7.5,1.3-7.6,6.4l-0.3,21.7c-0.1,4.4,2.9,7,6,7.6c0.4,0.1,0.8,0.1,1.2,0.1c0.2,0.7,0.4,1.4,0.6,2.2
			c6.1,22.4,12.3,44.8,18.4,67.2c0.2,0.8,0.5,1.7,0.7,2.5c0.4,1.4,0.8,2.8,1.2,4.2c0.5,1.7,2.1,3,3.8,4c2,1.1,4.2,1.8,6.4,2
			c8.1,0.7,16.1,1.1,24.2,1c8.1,0.1,16.2-0.3,24.2-1c2.2-0.2,4.4-0.8,6.4-2c1.7-1,3.4-2.3,3.8-4c0.4-1.4,0.8-2.9,1.2-4.3
			c0.2-0.8,0.5-1.7,0.7-2.5c6.1-22.2,12.2-44.4,18.2-66.6c0.2-0.8,0.4-1.6,0.7-2.5c0-0.1,0-0.2,0.1-0.3c3.5,0,7.3-2.7,7.2-7.7
			L1945,622.7z"/>
		<path class="st2" d="M1938,652.3c-0.2,0.8-0.4,1.6-0.7,2.5c-38.6,1.2-72.9,1.6-109.3-0.5c-0.2-0.7-0.4-1.4-0.6-2.2
			C1827.1,652,1901.1,654.2,1938,652.3z"/>
		<path class="st2" d="M1919.1,721.3c-0.2,0.8-0.5,1.7-0.7,2.5c-23.7,2.9-47.6,2.9-71.2,0.1c-0.2-0.8-0.5-1.7-0.7-2.5
			C1870.6,724.4,1895,724.4,1919.1,721.3z"/>
	</g>
	<path class="st5" d="M1964.1,562.7c-4.5-5.9-10.2-11-16.4-14.9c-13.9-8.7-30.7-11.6-46.6-7.8c-11.7,2.8-25.6,9.8-31.2,21.4
		c-1.7-6.3-2.8-12.6-2.3-19.2c13-11.1,19.9-28.5,20.4-45.7c0.6-21.2-7.7-41.5-18.7-59c-0.9-1.5-3-2.3-4.4-0.9
		c-13.5,13.2-22,31.3-23.2,50.6c-1.2,19.7,5.6,39.3,18,54.2c0.3,0.4,1.6,2.1,2.1,2.5c-0.1,3.7,0.2,7.4,0.9,11
		c-4.3-3-9.3-4.8-14.5-5.2c-0.1-0.2-0.3-0.4-0.5-0.6c-21.2-19.9-51.5-28.3-79.5-21.6c-5.5,1.3-14.3,2.9-17.1,8.7
		c-3.1,6.6,4.5,13.3,8.6,17.2c10.8,10.2,24.7,16.6,39.3,17.7c16.8,1.3,33.6-4.6,46.5-15.7c8,0.1,15,3.7,19.8,10.2
		c0.6,1.9,1.2,3.9,1.9,5.8c-4.1-2-9-2.2-13.4-0.5c-0.6,0.2-1,0.6-1.3,1c-0.2,0-0.4,0.1-0.6,0.1c-30.8,9.2-52.9,38.6-52.4,72.1
		c0.1,6.8,1.3,14.3,9.4,14.4c3.2,0,6.2-1.2,9.1-2.3c4.1-1.6,8.2-3.3,12.2-5.3c14.1-7,27-17.5,33.4-32.6c6-14.2,4.1-31.3-6.4-42.4
		c4.6-1.3,9.4,1,12.1,5.1c0.5,0.7,1,1,1.6,1.1c3.5,10.4,6.2,22.9,2.8,33.6c-0.1,0.5-0.2,0.9-0.1,1.3h5.7c2.9-9.9,1.6-20.7-1.1-29.9
		c9.2,5.3,21.7,5.3,31.9,4.6c17.7-1.1,35.3-5.8,51.3-13.9c2.5-1.3,5.3-2.7,6.1-5.7C1968.5,568.5,1966.1,565.3,1964.1,562.7z"/>
	<path class="st2" d="M1831.9,599.4c-12,12.7-19.9,28.4-23.1,45.6c-0.4,2.3,3.2,2.5,3.6,0.3c2.9-16.2,10.5-31.2,21.8-43.1
		C1835.9,600.4,1833.5,597.7,1831.9,599.4z"/>
	<path class="st2" d="M1847.2,583.1c-3.7,2.1-6.9,4.9-9.4,8.3c-1.4,1.9,1.6,3.9,3,2c2.1-2.9,4.8-5.3,8-7.1
		C1850.9,585.3,1849.3,582,1847.2,583.1z"/>
	<path class="st2" d="M1956.9,566.1c-25.7-7.9-53-9.3-79.3-3.9c-2.3,0.5-1.6,4,0.7,3.6c25.7-5.2,52.4-4,77.5,3.8
		C1958,570.2,1959.2,566.8,1956.9,566.1z"/>
	<path class="st2" d="M1862.8,447.6c-2.6,11.9-3.6,24-3.1,36.2c0.1,2.3,3.7,2.6,3.6,0.3c-0.5-11.8,0.4-23.7,2.9-35.2
		C1866.7,446.5,1863.3,445.3,1862.8,447.6z"/>
	<path class="st2" d="M1864.1,527c-1.5-9.9-2.1-19.9-1.6-30c0.1-2.3-3.5-2.6-3.6-0.3c-0.4,10.4,0.1,20.7,1.7,30.9
		C1860.9,530,1864.4,529.3,1864.1,527z"/>
	<path class="st2" d="M1781.1,537.2c-7-0.6-13.9-0.1-20.7,1.6c-2.3,0.6-1.6,4.1,0.7,3.6c6.5-1.6,13.1-2.2,19.7-1.6
		C1783.2,541,1783.4,537.4,1781.1,537.2z"/>
	<path class="st2" d="M1834.6,547.3c-12.9-4.6-26.4-7.4-40.1-8.1c-2.3-0.1-2.6,3.5-0.3,3.6c13.4,0.7,26.5,3.4,39.2,8
		C1835.7,551.5,1836.8,548.1,1834.6,547.3z"/>
</g>
<path class="st11" d="M2138.5,1117.8c1.3,0.9,2.3,3.9,1.8,5.4c-0.1,0.3-0.5,0.3-0.6,0c-0.4-0.8-0.4-1.8-0.7-2.6
	c-0.3-0.9-0.9-1.6-1.2-2.4C2137.7,1117.8,2138.2,1117.6,2138.5,1117.8z"/>
<path class="st2" d="M1672.4,726.2h-282.5c-1.3,0-1.4,2-0.1,2h282.5C1673.6,728.2,1673.7,726.2,1672.4,726.2z"/>
<path class="st2" d="M951.9,760.2H819.4c-1.3,0-1.4,2-0.1,2h132.5C953.1,762.2,953.2,760.2,951.9,760.2z"/>
<g>
	<g>
		<path class="st1" d="M1096.3,605.1l9.3-1.7l9,50.9c-0.3,0.2-0.6,0.4-1,0.6c-0.3,0.2-0.6,0.3-0.9,0.5c-0.4,0.2-0.8,0.3-1.2,0.4
			c-0.3,0.1-0.7,0.2-1,0.3c-0.1,0-0.3,0.1-0.4,0.1c-0.3,0-0.5,0.1-0.8,0.1c-0.3,0-0.7,0.1-1,0.1c-0.4,0-0.8,0-1.2-0.1
			c-0.4,0-0.7-0.1-1.1-0.2c-0.2-0.1-0.5-0.1-0.7-0.2L1096.3,605.1z"/>
		<polygon class="st11" points="1099,593 1100.1,594.7 1105.7,603.4 1096.3,605.1 1098.6,595 		"/>
		<path class="st8" d="M1099,593l1.1,1.7c-0.5,0.2-1,0.3-1.5,0.3L1099,593z"/>
	</g>
	<g>
		<path class="st6" d="M1126.5,647.1l-9.4,1l-5.4-51.4c0.3-0.2,0.7-0.4,1-0.6c0.3-0.2,0.6-0.3,1-0.4c0.4-0.1,0.8-0.3,1.2-0.4
			c0.3-0.1,0.7-0.1,1-0.2c0.1,0,0.3,0,0.4-0.1c0.3,0,0.5,0,0.8-0.1c0.3,0,0.7,0,1,0c0.4,0,0.8,0.1,1.2,0.1c0.4,0.1,0.7,0.1,1,0.2
			c0.2,0.1,0.5,0.1,0.7,0.2L1126.5,647.1z"/>
		<polygon class="st11" points="1123,659 1122.1,657.2 1117.1,648.1 1126.5,647.1 1123.6,657 		"/>
		<path class="st2" d="M1123,659l-1-1.8c0.5-0.2,1-0.3,1.5-0.2L1123,659z"/>
		<path class="st2" d="M1120.6,654.3l-3.1-5.9c-0.1-0.1-0.3,0-0.2,0.1l3.1,5.9C1120.5,654.5,1120.7,654.4,1120.6,654.3z"/>
		<path class="st2" d="M1121.8,656.7c-0.3-0.6-0.5-1.1-0.8-1.7c-0.1-0.1-0.3-0.1-0.2,0.1c0.3,0.6,0.5,1.1,0.8,1.7
			C1121.7,656.9,1121.9,656.8,1121.8,656.7z"/>
	</g>
	<g>
		<path class="st6" d="M1147.8,599.3l9.4,1.4l-8.6,58c-0.4,0.1-0.8,0.3-1.1,0.3c-0.4,0.1-0.7,0.1-1.1,0.2c-0.4,0.1-0.8,0.1-1.2,0.1
			c-0.3,0-0.7,0-1-0.1c-0.1,0-0.3,0-0.4-0.1c-0.3,0-0.5-0.1-0.8-0.2c-0.3-0.1-0.7-0.2-1-0.3c-0.4-0.1-0.8-0.3-1.2-0.5
			c-0.3-0.2-0.6-0.3-0.9-0.5c-0.2-0.1-0.4-0.3-0.6-0.4L1147.8,599.3z"/>
		<polygon class="st11" points="1154.4,587.1 1154.9,589.3 1157.2,600.7 1147.8,599.3 1153.3,589.1 		"/>
		<path class="st5" d="M1154.4,587.1l0.5,2.2c-0.5,0.1-1.1,0-1.5-0.2L1154.4,587.1z"/>
	</g>
	<g>
		<path class="st5" d="M1158.9,723.3h-59.5c-6.1,0-11-4.9-11-11v-70.5c0-6.1,4.9-11,11-11h59.5c6.1,0,11,4.9,11,11v70.5
			C1170,718.4,1165,723.3,1158.9,723.3z"/>
		<path class="st2" d="M1158.3,722.2h-58.5c-1.4,0-1.5,2.2-0.1,2.2h58.5C1159.6,724.4,1159.7,722.2,1158.3,722.2z"/>
	</g>
</g>
</svg>
