<?xml version="1.0" encoding="utf-8"?>
<!-- Generator: Adobe Illustrator 23.0.3, SVG Export Plug-In . SVG Version: 6.00 Build 0)  -->
<svg version="1.1" id="Layer_1" xmlns="http://www.w3.org/2000/svg" xmlns:xlink="http://www.w3.org/1999/xlink" x="0px" y="0px"
	 viewBox="0 0 1166 1261.6" style="enable-background:new 0 0 1166 1261.6;" xml:space="preserve">
<style type="text/css">
	.st0{fill:#56C4F5;}
	.st1{fill:#2177F9;}
	.st2{fill:#23263E;}
	.st3{fill:#1F185D;}
	.st4{fill:#1A66C1;}
	.st5{fill:#FFFFFF;}
	.st6{fill:#0B2C4C;}
	.st7{fill:#F4F4F4;}
	.st8{fill:#061728;}
	.st9{fill:#1E79D3;}
</style>
<g>
	<path class="st0" d="M615.2,1.2c-1.5-0.8-3.2-1.2-4.8-1.1c-1.6-0.2-3.2,0-4.8,0.6c-0.9,0.5-1.9,1-2.8,1.5c-1.8,1.3-3.2,2.9-4.1,4.8
		c-0.3,1.1-0.7,2.1-1,3.2c-0.4,2.2-0.2,4.4,0.6,6.5l0.3,0.8c0.6,1.4,1.4,2.8,2.4,4c-3.4,18.4-6.8,36.9-10.2,55.3
		c-6.5,0.5-12.9,2.6-18.6,6.3c-8,5.3,0,17.9,8.1,12.6c0,0,0.1,0,0.1-0.1c1.5,1.4,3.5,2.1,5.7,2.3l30.1,2.3c6.7,0.5,8.9-9,4.7-13
		c-4.4-4.1-9.6-7.1-15.2-8.8c3.3-18.1,6.7-36.1,10-54.2c0.6-0.3,1.1-0.6,1.7-0.9c1.8-1.3,3.2-2.9,4.1-4.8c0.3-1.1,0.7-2.1,1-3.2
		c0.4-2.2,0.2-4.4-0.6-6.5l-0.3-0.8C620.4,5.2,618.1,2.6,615.2,1.2z"/>
	<path class="st1" d="M1101.7,726.1c-42.4-68.8-100.6-125.4-165.8-172.5c-68.4-49.3-143.5-88.2-218.9-125.5
		c-1.3-0.6-2.6-1.3-3.8-1.9c-3.6-4.6-7.2-8.9-11-12.8c17-10.3,32.3-23.2,45.3-38.6c10.5,2.3,21.6,0.6,31.6-4.5
		c16.2-8.2,26-24,31.2-41.1c5.5-18.1,8.6-41-0.4-58.5c-4.5-8.7-12.4-15.2-21.3-17.6c-0.1-1.2-0.2-2.5-0.3-3.7
		c-4.9-47.2-35.1-87.8-73.3-114.1c-39.5-27.2-87.2-39.1-134.1-43.7c-49.2-4.8-101.4-4.8-148.1,12.9c-20,7.6-46.5,26.6-67.2,53.9
		c-63.2-16.8-71.7,81.2-59,105.8c5.8,11.2,17.3,19.5,29.5,20.2c7.5,33.7,25.8,64.3,51,88.2c9.7,9.2,20.3,17.5,31.4,24.9
		c-14.2,8-27.8,18.7-39,32.8c-43.4,17.9-85.2,39.8-124.5,65.5c-66.4,43.3-127.4,97-175.8,159.9C28.7,721.3-6.6,802.5,1,886.6
		c3.5,38.8,16,76,37.8,108.4c20.4,30.3,44.9,59.5,77.4,75.9c123.3,62.1,331.3,54.7,360.9,48.5c4.9-1,6.7-5,6.2-8.8
		c2.8-1.9,4.2-5.8,3.5-8.9c-0.5-2.2-1.8-3.9-3.4-4.9c0.7-1.1,1.1-2.5,1.2-4c0.1-4.1-3.6-9-8.1-8.6c-16.8,1.4-33.6,2-50.5,1.9
		c1-0.2,2-0.4,3-0.5c10.6-2,6.8-18.3-3.8-16.3c-0.1,0-0.2,0-0.3,0.1c-19.1,3.6-38.8,3.9-58.1,1.4c-51.5-6.8-101.9-18.4-144.4-43.5
		c-42.3-25-78.1-63.1-92.7-110.8c-15.8-51.7-8.2-108.9,15.2-157.1c22.6-46.4,57.8-85.2,98-117.1c35.1-27.9,73.9-50.3,113.8-70.8
		c19.5,61.7,87.9,189.2,87.9,189.2c0.6,0.9,1.2,1.7,1.9,2.6c63.3,86.9,198.7,65.1,233.3-36.7l52.8-170.2
		c42.9,14.6,183.9,79.3,251.2,165.1c34.6,44.1,63.7,94.8,79.8,148.7c40.8,137.2-26.1,224.1-323,222.2c-10.8-0.1-11.1,15.5-0.5,16.7
		c1.6,0.2,3.3,0.3,4.9,0.5c-15.5,1.8-31.2,1.8-47,0c-7-0.8-9.6,6.2-7.6,11.4c-2.7,0.7-4.9,2.4-5.8,5.5c-1.2,3.9,6.2,10.5,6.5,10.5
		c-0.7,4.5,1.8,9.7,7.7,10c39,2.6,188.7-1.5,224.6-2.7c117.4-3.8,225.3-64.6,241-199.3C1173.4,868,1142,791.5,1101.7,726.1z"/>
	<path class="st0" d="M670.5,200.4c-13.6-5.3-28.1-8.4-42.6-11.1c-18.5-3.5-37.1-6.8-55.6-10.2c-34.6-6.4-73.7-14.4-108,0.3
		c-20.1,8.6-38.2,24.8-45.2,44.7c-1.1,2.3-2.1,4.6-2.9,6.9c-10.3,27.7-2.8,57.8,14.3,80.6c37,49.2,109,60.5,169.5,54.2
		c32.3-3.4,66.2-13.8,89.7-37.1c18.8-18.6,30.3-45.8,27.8-71.4C714.8,230.1,696,210.4,670.5,200.4z"/>
	<path class="st2" d="M500.2,260.8c-1.4-0.8-2.9-1.1-4.5-1.1c-1.5-0.2-3-0.1-4.5,0.5c-0.9,0.4-1.8,0.9-2.6,1.3
		c-1.7,1.1-3,2.6-3.9,4.4c-0.3,1-0.7,1.9-1,2.9c-0.4,2-0.3,4,0.4,6l0.4,1.1c1,2.8,3.1,5.2,5.7,6.5c1.4,0.8,2.9,1.1,4.5,1.1
		c1.5,0.2,3,0.1,4.5-0.5c0.9-0.4,1.8-0.9,2.6-1.3c1.7-1.1,3-2.6,3.9-4.4c0.3-1,0.7-1.9,1-2.9c0.4-2,0.3-4-0.4-6l-0.4-1.1
		C504.9,264.6,502.9,262.1,500.2,260.8z"/>
	<path class="st2" d="M637.5,280.9c-1.1-1.7-2.6-3-4.4-3.9c-1-0.3-1.9-0.7-2.9-1c-2-0.4-4-0.3-6,0.4l-1.1,0.4
		c-2.8,1-5.2,3.1-6.5,5.7c-0.8,1.4-1.1,2.9-1.1,4.5c-0.2,1.5-0.1,3,0.5,4.5c0.4,0.9,0.9,1.8,1.3,2.6c1.1,1.7,2.6,3,4.4,3.9
		c1,0.3,1.9,0.7,2.9,1c2,0.4,4,0.3,6-0.4l1.1-0.4c2.8-1,5.2-3.1,6.5-5.7c0.8-1.4,1.1-2.9,1.1-4.5c0.2-1.5,0.1-3-0.5-4.5
		C638.4,282.6,637.9,281.8,637.5,280.9z"/>
	<path class="st2" d="M563.2,328.6c-6.4-0.5-12.8-1-19.2-1.4c-10.7-0.8-11.2,15.9-0.5,16.7c6.4,0.5,12.8,1,19.2,1.4
		C573.5,346.1,574,329.4,563.2,328.6z"/>
	<path class="st3" d="M656.6,422.9c-48,19-101.4,21.8-151.1,7.7c-4.3-1.2-5.9,5.5-1.7,6.7c50.7,14.4,105.7,11.7,154.7-7.8
		C662.6,427.9,660.7,421.2,656.6,422.9z"/>
	<path class="st3" d="M484.7,425.8c-8.4-3.5-16.7-7-25.1-10.4c-4-1.7-7.5,4.3-3.4,6c8.4,3.5,16.7,7,25.1,10.4
		C485.4,433.4,488.8,427.5,484.7,425.8z"/>
	<path class="st3" d="M784.7,279c-3.1,26.3-12.7,51.2-28.1,72.7c-2.6,3.6,3.4,7,6,3.4c15.7-22,25.6-47.6,28.8-74.5
		C791.9,276.4,785.2,274.7,784.7,279z"/>
	<path class="st3" d="M346.1,200.7c-9.2,20.4-14.3,42.2-14.9,64.6c-0.1,4.4,6.8,4.3,6.9-0.2c0.6-21.1,5.4-41.8,14.1-61
		C353.9,200.1,347.9,196.7,346.1,200.7z"/>
	<path class="st3" d="M356.4,174.8c-2.3,4.5-4.6,9.1-7,13.6c-2,3.9,4,7.3,6,3.4c2.3-4.5,4.6-9.1,7-13.6
		C364.4,174.2,358.4,170.8,356.4,174.8z"/>
	<path class="st0" d="M1107.8,803.8c-9.7,0-23.5,7.8-25.9,17.8c-3.5,5.9-4.6,13.3-2.2,20.1c4.9,13.5,19.8,20.9,33.6,17.2
		c13.6-3.6,23.2-16.4,21.4-30.6C1132.8,814.6,1121.9,803.8,1107.8,803.8z"/>
	<path class="st0" d="M80.8,868.4c2.4-9.4-1.8-24.7-11-29.5c-4.9-4.9-11.8-7.7-18.9-7c-14.3,1.4-25.1,14.2-24.9,28.3
		c0.2,14,10.3,26.5,24.5,28.2C64.2,890.1,77.3,882.1,80.8,868.4z"/>
	<g>
		<path class="st0" d="M452.7,500.7c-0.5,13.9-1,27.8-1.5,41.6c-0.2,4.9,7.4,6,7.6,1.1c0.5-13.9,1-27.8,1.5-41.6
			C460.5,496.9,452.9,495.8,452.7,500.7z"/>
		<path class="st0" d="M451.1,564.9c-0.6,11.9-1.2,23.8-1.7,35.7c-0.2,4.9,7.4,6,7.6,1.1l1.7-35.7
			C458.9,561.1,451.3,560,451.1,564.9z"/>
		<path class="st0" d="M510.1,500.4c-0.4,11.4-0.8,22.9-1.2,34.3c-0.2,4.9,7.4,6,7.6,1.1c0.4-11.4,0.8-22.9,1.2-34.3
			C517.9,496.5,510.3,495.4,510.1,500.4z"/>
		<path class="st0" d="M507.4,555.7c-0.3,22.6-0.7,45.1-1,67.7c-0.1,4.9,7.5,6,7.6,1.1c0.3-22.6,0.7-45.1,1-67.7
			C515.1,551.9,507.5,550.7,507.4,555.7z"/>
		<path class="st0" d="M535.9,516.7c-0.7,25.8-1.4,51.6-2.1,77.4c-0.1,4.9,7.5,6,7.6,1.1c0.7-25.8,1.4-51.6,2.1-77.4
			C543.7,512.9,536.1,511.8,535.9,516.7z"/>
		<path class="st0" d="M565.3,490.1c-0.4,16.2-0.7,32.4-1.1,48.5c-0.1,4.9,7.5,6,7.6,1.1c0.4-16.2,0.7-32.4,1.1-48.5
			C573.1,486.3,565.5,485.2,565.3,490.1z"/>
		<path class="st0" d="M563.7,564.1c-1.1,15.3-2.2,30.7-3.3,46c-0.4,4.9,7.2,6,7.6,1.1c1.1-15.3,2.2-30.7,3.3-46
			C571.6,560.3,564,559.2,563.7,564.1z"/>
		<path class="st0" d="M593.1,504.1c-1.6,35.1-3.1,70.2-4.7,105.3c-0.2,4.9,7.4,6,7.6,1.1c1.6-35.1,3.1-70.2,4.7-105.3
			C600.9,500.3,593.3,499.2,593.1,504.1z"/>
		<path class="st0" d="M616.4,540.5c-0.5,17.1-1,34.3-1.5,51.4c-0.1,4.9,7.4,6,7.6,1.1c0.5-17.1,1-34.3,1.5-51.4
			C624.1,536.7,616.5,535.6,616.4,540.5z"/>
		<path class="st0" d="M638.6,520.5c-0.5,17.1-1,34.3-1.5,51.4c-0.1,4.9,7.4,6,7.6,1.1c0.5-17.1,1-34.3,1.5-51.4
			C646.4,516.7,638.8,515.6,638.6,520.5z"/>
		<path class="st0" d="M618.6,483.2c-0.7,11.6-1.5,23.2-2.2,34.7c-0.3,4.9,7.3,6,7.6,1.1c0.7-11.6,1.5-23.2,2.2-34.7
			C626.5,479.4,619,478.3,618.6,483.2z"/>
		<path class="st0" d="M483,486.4c-1.9,40.8-3.8,81.6-5.7,122.4c-0.2,4.9,7.4,6,7.6,1.1c1.9-40.8,3.8-81.6,5.7-122.4
			C490.9,482.6,483.3,481.4,483,486.4z"/>
	</g>
	<path class="st3" d="M372,460.2c-12.2,29-17.1,60.4-14.3,91.7c0.4,4.4,7.2,3.3,6.8-1.1c-2.6-30.1,2.2-60.3,14-88.2
		C380.1,458.6,373.7,456.1,372,460.2z"/>
	<path class="st3" d="M719.9,467c-0.3-4.4-7.2-4.4-6.9,0c0.8,13.3,1.7,26.5,2.5,39.8c0.3,4.4,7.2,4.4,6.9,0
		C721.6,493.5,720.8,480.3,719.9,467z"/>
</g>
<g>
	<g id="Layer_3">
		<path class="st4" d="M630.8,968.8h-90.7c-10.8,0-19.7,8.9-19.7,19.7v16h-0.5c-0.2,0-0.3,0.1-0.3,0.3v9.5c0,0.1,0.1,0.3,0.3,0.3
			h0.5v8.1h-0.5c-0.2,0-0.3,0.1-0.3,0.3v19.2c0,0.1,0.1,0.3,0.3,0.3h0.5v4.8h-0.5c-0.2,0-0.3,0.1-0.3,0.3v19.2
			c0,0.2,0.1,0.3,0.3,0.3h0.5v144.2c0,10.8,8.9,19.7,19.7,19.7h90.7c10.8,0,19.7-8.9,19.7-19.7V988.5
			C650.5,977.7,641.7,968.8,630.8,968.8z"/>
	</g>
	<g id="Layer_4">
		<path class="st5" d="M632.5,975.9H618c-0.2,0.1-0.6,0.2-0.7,0.8c-0.2,0.8-1,7.7-6.4,7.7c-4.1,0-17.5,0-24,0c0,0-1.4,0-3.6,0
			c-6.5,0-19.9,0-24,0c-5.4,0-6.3-6.9-6.4-7.7c-0.1-0.6-0.5-0.8-0.7-0.8h-13.9c-6.2,0-11.3,5.1-11.3,11.3v225.5
			c0,6.2,5.1,11.3,11.3,11.3h94.3c6.2,0,11.3-5.1,11.3-11.3V987.2C643.8,981,638.7,975.9,632.5,975.9z"/>
		<g>
			<path class="st5" d="M591.9,979.6h-14.1c-0.5,0-0.9-0.4-0.9-0.9l0,0c0-0.5,0.4-0.9,0.9-0.9h14.1c0.5,0,0.9,0.4,0.9,0.9l0,0
				C592.7,979.2,592.3,979.6,591.9,979.6z"/>
			<circle class="st5" cx="599.4" cy="978.5" r="1.9"/>
		</g>
	</g>
</g>
<g>
	<g id="Livello_1">
		<path class="st4" d="M852.3,962.7c0,0,13.9,2.3,17.6,2.8c3.7,0.5,4.9,0.6,8.6-1.3c3.6-1.9,8.2-0.2,8.2-0.2l20.4,6.3
			c0,0,9.5,3.2,9.8,13.4c-0.9,17-4.4,42.6-9.1,71.1c-2.2,13.3-4.6,27.2-7.2,41.2c-8.1,44.1-25.1,124.9-26.7,132.2
			c-1.6,7.3-3.4,12.8-9.6,13.8c-6.9,1.2-26.9,1.1-52.2-2.5c-25.3-3.7-44.5-9.3-50.8-12.4c-5.6-2.8-5.8-8.5-5.2-16
			c0.5-7.5,7.2-89.7,12-134.3c1.5-14.2,3.1-28.2,4.8-41.5c3.6-28.7,7.5-54.2,11.5-70.8c3.2-9.7,13.2-10.1,13.2-10.1l21.4-0.2
			c0,0,4.8-0.3,7.8,2.5c2.9,2.8,4.2,3.1,7.9,3.7S852.3,962.7,852.3,962.7"/>
		<path class="st6" d="M858.4,1242.5l-0.8-0.2c0,0,0.9-3.6,1.2-4.7c0.1-0.3,0-0.4,0-0.4c0,0-0.1,0-0.1,0l0,0
			c-12.6,0.4-45.3-3.6-45.7-3.7c-0.4-0.1-32.8-5.5-44.9-9.4l0,0c0,0-0.1,0-0.1,0c0,0-0.1,0.1-0.1,0.4c0,1.1-0.2,4.8-0.2,4.8l-0.8,0
			c0,0,0.1-3.7,0.2-4.8c0-0.5,0.2-0.9,0.5-1.1c0.3-0.2,0.7-0.1,0.8-0.1c12,3.9,44.4,9.4,44.7,9.4c0.3,0,32.9,4.1,45.5,3.7
			c0.1,0,0.5,0,0.8,0.3c0.2,0.3,0.3,0.7,0.1,1.2C859.3,1238.9,858.4,1242.5,858.4,1242.5z"/>
		<path class="st6" d="M831.2,1108.5c-24.9-3.6-33.1-6.1-43.6-9.3l-0.1,0c-10.4-3.2-12.1-7.9-11.3-15.5c0.8-8.7,3-28.6,6.4-55.8
			c3.4-26.9,6.4-43,9.8-52.1c2.8-7.7,8-10.9,17.6-11.2c5-0.1,22.3,0.7,41.5,3.5c19.2,2.8,36,6.9,40.8,8.4c9.2,3,13.2,7.6,13.7,15.7
			c0.7,9.7-1,26-5.4,52.7c-4.4,27.2-8,46.8-9.7,55.4c-1.5,7.4-4.4,11.5-15.3,11.6l-0.1,0C864.7,1112,856,1112.1,831.2,1108.5z
			 M851.4,968.9c-19.1-2.8-36.4-3.7-41.4-3.5c-9.3,0.3-14.2,3.4-16.9,10.6c-3.4,9.1-6.4,25.1-9.8,51.9c-3.5,27.3-5.6,47.1-6.4,55.8
			c-0.7,7.3,0.8,11.6,10.8,14.6l0.1,0c10.4,3.2,18.6,5.7,43.4,9.3c24.8,3.6,33.4,3.5,44.3,3.5l0.1,0c10.4-0.1,13-3.7,14.5-10.9
			c1.7-8.6,5.3-28.2,9.7-55.4c4.4-26.7,6.1-42.9,5.4-52.5c-0.5-7.7-4.3-12.1-13.1-15C887.4,975.8,870.6,971.7,851.4,968.9z"/>
		<g>
			<path class="st6" d="M798.4,1097.5c-0.1,0-0.1,0-0.2,0l0,0c-2.7-0.7-5.1-1.3-7.8-2.1l-0.1,0c-10-2.7-11.6-6.3-11.2-12.1
				c0-0.1,0.2-2.9,1.6-4.2c0.5-0.5,1.2-0.7,1.9-0.6c2.8,0.3,18,2.6,18.8,2.7c0.3,0,2,0.2,3,1.4c0.7,0.8,0.9,1.9,0.7,3.2l-1.2,8
				c0,0.2-0.2,1.8-1.5,2.8C801.7,1097.5,800.3,1097.7,798.4,1097.5z M798.4,1096.6c1.6,0.3,2.9,0,3.8-0.7c1.1-0.9,1.2-2.2,1.2-2.2
				l0,0l1.2-8c0.2-1.1,0-1.9-0.5-2.5c-0.9-1.1-2.4-1.1-2.5-1.1l0,0l0,0c-0.2,0-16-2.5-18.8-2.7c-0.5,0-0.9,0.1-1.3,0.4
				c-1.2,1-1.4,3.6-1.4,3.6c-0.4,4.6,0.2,8.4,10.6,11.2l0.1,0C793.3,1095.3,795.8,1096,798.4,1096.6z"/>
			<path class="st6" d="M827.4,1103L827.4,1103c-6.8-1-12.4-2-17.3-2.9c-1.1-0.2-3.3-1.2-3.1-3.4c0.2-2.3,1.4-9.7,1.5-10.3
				c0-0.3,0.1-1.8,1.1-2.7c0.6-0.6,1.5-0.8,2.6-0.6l17.7,2.6c0.2,0,1.5,0.2,2.3,1.2c0.6,0.8,0.8,1.8,0.7,3l-1.5,10.6
				c0,0-0.1,1.2-1.1,2C829.5,1103,828.6,1103.1,827.4,1103z M812.1,1083.8c-0.8-0.1-1.5,0-1.9,0.4c-0.8,0.7-0.8,2.1-0.8,2.1l0,0l0,0
				c0,0.1-1.3,7.9-1.5,10.3c-0.2,2,2.3,2.5,2.4,2.5c4.9,0.9,10.5,1.9,17.3,2.9c1,0.1,1.7,0,2.2-0.4c0.7-0.6,0.8-1.5,0.8-1.5
				l1.5-10.6c0.1-1,0-1.8-0.5-2.4c-0.7-0.8-1.8-0.9-1.8-0.9l0,0L812.1,1083.8L812.1,1083.8z"/>
			<path class="st6" d="M866.2,1107.3c-1.8-0.3-3.1-1-3.9-2c-0.9-1.4-0.7-2.9-0.6-3.1l1.2-8c0.2-1.3,0.7-2.2,1.6-2.8
				c1.4-0.9,3.1-0.6,3.3-0.5c0.9,0.1,16.1,2.2,18.8,2.7c0.7,0.1,1.3,0.5,1.7,1.1c1,1.6,0.4,4.4,0.4,4.5c-1.2,5.6-3.8,8.6-14.2,8.4
				l-0.1,0c-2.7-0.1-5.3-0.1-8-0.2l0,0C866.3,1107.3,866.3,1107.3,866.2,1107.3z M867.4,1091.6c-0.5-0.1-1.6-0.1-2.5,0.5
				c-0.7,0.5-1.1,1.2-1.2,2.3l-1.2,8c0,0-0.3,1.4,0.5,2.5c0.6,0.9,1.8,1.5,3.4,1.7c2.7,0.1,5.3,0.2,8,0.2l0.1,0
				c10.8,0.2,12.4-3.2,13.3-7.8c0,0,0.6-2.5-0.3-3.9c-0.3-0.4-0.6-0.7-1.1-0.8c-2.8-0.5-18.7-2.7-18.8-2.7l0,0l0,0
				C867.6,1091.6,867.5,1091.6,867.4,1091.6z"/>
			<path class="st6" d="M836.9,1104.4L836.9,1104.4c-1.2-0.2-2-0.6-2.6-1.4c-0.7-1.1-0.5-2.3-0.5-2.3l1.5-10.6
				c0.2-1.3,0.7-2.2,1.5-2.7c1.1-0.8,2.4-0.5,2.6-0.5l17.7,2.6c1.1,0.2,1.9,0.6,2.3,1.3c0.7,1.2,0.4,2.7,0.3,2.9
				c-0.1,0.6-1,8-1.5,10.3c-0.5,2.2-2.7,2.5-3.9,2.4C849.4,1106,843.7,1105.3,836.9,1104.4L836.9,1104.4z M839.1,1087.7
				c-0.3,0-1.1-0.1-1.8,0.4c-0.6,0.4-1,1.1-1.1,2.1l-1.5,10.6c0,0-0.2,0.9,0.3,1.7c0.4,0.6,1.1,0.9,2,1c6.8,1,12.5,1.6,17.4,2.1
				c0.1,0,2.6,0.2,3-1.7c0.5-2.3,1.5-10.2,1.5-10.3l0,0l0,0c0,0,0.4-1.3-0.2-2.3c-0.3-0.5-0.9-0.8-1.7-1l-17.7-2.6
				C839.2,1087.7,839.2,1087.7,839.1,1087.7z"/>
		</g>
		<path class="st6" d="M775.5,1213.3c0,0-6.2-1.5-6.1-6.6c0.1-5.1,0.4-6.7,0.4-6.7s0-4.3,5-3.1c4.9,1.2,12.8,2.9,17.4,3.8
			s5.1,3.5,5,5.3s-0.6,6.3-1,7.6c-0.4,1.3-0.7,3.2-4.3,3C788.3,1216.4,778,1214.3,775.5,1213.3z"/>
		<path class="st6" d="M856.1,1225c0,0,6.3,0.3,7.7-4.6c1.4-4.9,1.5-6.5,1.5-6.5s1.2-4.1-3.9-4.4c-5-0.3-13-0.9-17.8-1.3
			c-4.7-0.4-5.8,1.9-6.3,3.6s-1.2,6.2-1.2,7.5c0,1.3-0.2,3.3,3.3,4.1C843,1224.3,853.5,1225.3,856.1,1225z"/>
		<g>
			<path class="st6" d="M829.6,1219.8c-0.3,1.8-2,3.1-3.8,2.9c-7-0.8-13.9-1.8-20.8-3c-1.8-0.3-3.1-2.1-2.8-3.9
				c0.4-3,0.9-5.9,1.3-8.9c0.3-1.8,2-3.1,3.8-2.9c7,0.8,13.9,1.8,20.8,3c1.8,0.3,3.1,2.1,2.8,3.9
				C830.4,1213.8,830,1216.8,829.6,1219.8z"/>
		</g>
		<g>
			<path class="st6" d="M794.8,1173.6c-3.5-0.5-11-2.1-17.9-4c-0.1,0-1.3-0.4-2.5-1.2c-1.7-1.1-2.5-2.7-2.4-4.4
				c0.1-1.7,0.3-7.3,0.9-9l0-0.1c0.5-1.2,1.4-3.7,4.8-3.2c0,0,0,0,0,0c1.5,0.2,5.9,1.3,10.4,2.4c3.2,0.8,6.6,1.6,8.7,2
				c3.6,0.8,5.3,2.6,5.1,5.4c-0.1,1.2-0.6,6.6-1.3,9c-0.2,0.8-0.8,1.7-1.5,2.3c-1,0.8-2.3,1.1-3.8,1
				C795.3,1173.7,795.1,1173.6,794.8,1173.6z M777.8,1152.5L777.8,1152.5c-2.8-0.4-3.5,1.4-4,2.7l0,0.1c-0.4,1-0.7,4.4-0.9,8.8
				c0,1.5,0.6,2.7,2,3.7c1.1,0.7,2.2,1.1,2.2,1.1l0,0c7.1,2,15.3,3.7,18.4,4.1c2.9,0.4,4.1-1.5,4.4-2.6c0.7-2.4,1.2-7.6,1.3-8.8
				c0.2-2.3-1.3-3.9-4.5-4.5c-2.1-0.4-5.5-1.3-8.7-2C783.8,1153.8,779.3,1152.7,777.8,1152.5z"/>
			<path class="st6" d="M791.8,1195.6c-3.9-0.6-10.5-1.9-16.7-3.4c-0.1,0-1.3-0.3-2.5-1.1c-1.7-1.1-2.5-2.6-2.5-4.4
				c0-1.7,0.1-7.3,0.7-9l0-0.1c0.4-1.2,1.3-3.8,4.8-3.3c1.5,0.2,5.9,1.1,10.5,2.1c3.3,0.7,6.6,1.4,8.7,1.8c3.6,0.7,5.4,2.5,5.3,5.2
				c0,0.8-0.4,6.4-1.1,9c-0.2,0.8-0.8,1.7-1.5,2.3c-1,0.8-2.3,1.2-3.8,1.1C793.2,1195.8,792.6,1195.7,791.8,1195.6z M775.8,1175.1
				c-0.1,0-0.2,0-0.3,0c-2.8-0.3-3.4,1.5-3.9,2.8l0,0.1c-0.4,1-0.6,4.4-0.7,8.8c0,3.6,4.3,4.7,4.4,4.7l0,0
				c7.2,1.8,15.4,3.3,18.5,3.6c2.9,0.3,4.1-1.6,4.4-2.7c0.6-2.4,1-7.7,1-8.9c0.1-2.3-1.4-3.8-4.6-4.4c-2.1-0.4-5.5-1.1-8.7-1.8
				C781.8,1176.3,777.5,1175.4,775.8,1175.1z"/>
			<path class="st6" d="M801.5,1128.8c-0.1,0-0.1,0-0.2,0c-3.3-0.6-11.7-2.7-19.5-5.2c-0.1,0-1.3-0.4-2.5-1.3
				c-1.7-1.2-2.5-2.8-2.4-4.6c0.1-1.7,0.6-7.4,1.3-9.1l0-0.1c0.5-1.2,1.6-3.7,5.2-3c1.6,0.3,6.1,1.6,11,3c3.4,1,6.9,2,9.1,2.5
				c3.7,1,5.5,2.9,5.2,5.7c-0.2,1.2-0.9,6.6-1.7,9C806.6,1127.1,804.9,1129.3,801.5,1128.8z M783.1,1106.3c-2.7-0.4-3.5,1.4-4,2.5
				l0,0.1c-0.5,1-0.9,4.4-1.3,8.8c-0.3,3.6,4.3,5,4.4,5.1l0,0c7.5,2.4,16.1,4.6,19.4,5.1c3,0.5,4.5-1.3,4.8-2.4
				c0.8-2.4,1.5-7.6,1.7-8.8c0.3-2.3-1.3-4-4.6-4.8c-2.2-0.6-5.7-1.6-9.1-2.5c-4.6-1.3-9.3-2.6-10.9-2.9
				C783.2,1106.3,783.1,1106.3,783.1,1106.3z"/>
			<path class="st6" d="M798.2,1151.5c-3.4-0.5-11.7-2.4-19.3-4.6c-0.1,0-1.3-0.4-2.6-1.2c-1.7-1.2-2.6-2.7-2.5-4.6
				c0.1-1.7,0.4-7.4,1.1-9.1l0-0.1c0.5-1.2,1.5-3.7,5-3.2c0,0,0.1,0,0.1,0c1.6,0.3,6.1,1.4,10.9,2.6c3.4,0.9,6.9,1.8,9.1,2.3
				c3.7,0.8,5.6,2.8,5.3,5.6c-0.1,1.2-0.7,6.6-1.5,9c-0.4,1.4-2.1,3.6-5.6,3.1C798.3,1151.5,798.2,1151.5,798.2,1151.5z
				 M779.8,1129.6c-2.8-0.4-3.6,1.4-4.1,2.6l0,0.1c-0.4,1-0.8,4.4-1.1,8.8c-0.2,3.6,4.4,4.9,4.4,4.9l0,0c7.4,2.2,15.8,4.1,19.2,4.6
				c0,0,0.1,0,0.1,0c3,0.4,4.4-1.4,4.7-2.6c0.7-2.4,1.3-7.7,1.4-8.9c0.2-2.3-1.4-3.9-4.7-4.7c-2.2-0.5-5.7-1.4-9.1-2.3
				c-4.6-1.2-9.3-2.4-10.8-2.6C779.9,1129.6,779.9,1129.6,779.8,1129.6z"/>
			<path class="st6" d="M848.9,1181.4c-0.2,0-0.5-0.1-0.7-0.1c-1.5-0.2-2.7-0.9-3.4-2c-0.5-0.8-0.8-1.7-0.8-2.6c0.1-2.5,1-7.8,1.3-9
				c0.6-2.7,2.8-4,6.5-3.7c2.1,0.2,5.6,0.3,8.9,0.5c4.7,0.2,9.1,0.5,10.7,0.7c0,0,0,0,0,0c3.5,0.5,3.6,3.2,3.7,4.5l0,0.1
				c0.1,1.8-1.2,7.3-1.7,8.9c-0.4,1.7-1.7,2.9-3.6,3.6c-1.4,0.4-2.6,0.4-2.7,0.4C860,1182.5,852.4,1181.9,848.9,1181.4z
				 M871.3,1166.1c-1.5-0.2-6.1-0.4-10.6-0.7c-3.3-0.2-6.8-0.3-8.9-0.5c-3.2-0.2-5.1,0.8-5.6,3c-0.3,1.2-1.3,6.4-1.3,8.8
				c0,1.2,0.7,3.3,3.5,3.8c3.1,0.5,11.4,1.2,18.8,1.3l0,0c0,0,1.2,0,2.4-0.4c1.6-0.5,2.6-1.5,3-3c1.1-4.2,1.7-7.6,1.6-8.7l0-0.1
				C874.2,1168.4,874.1,1166.5,871.3,1166.1L871.3,1166.1z"/>
			<path class="st6" d="M845.6,1203.4c-0.8-0.1-1.5-0.2-2-0.3c-1.5-0.3-2.6-1-3.3-2.1c-0.5-0.8-0.8-1.8-0.7-2.6
				c0.1-2.7,1.4-8.2,1.6-8.9c0.7-2.7,2.9-3.9,6.6-3.5c2.1,0.2,5.6,0.5,8.9,0.7c4.7,0.4,9.2,0.7,10.7,1c3.4,0.6,3.5,3.3,3.6,4.6
				l0,0.1c0.1,1.8-1.4,7.2-1.9,8.9c-0.5,1.7-1.8,2.9-3.7,3.5c-1.4,0.4-2.6,0.3-2.7,0.4C856.2,1204.6,849.5,1203.9,845.6,1203.4z
				 M866.8,1188.3c-1.7-0.3-6.1-0.6-10.3-0.9c-3.3-0.3-6.7-0.5-8.9-0.7c-3.2-0.3-5.1,0.7-5.7,2.9c-0.3,1.2-1.4,6.3-1.5,8.8
				c-0.1,1.2,0.6,3.3,3.4,3.9c3.1,0.6,11.4,1.5,18.8,1.8l0,0c0,0,1.2,0.1,2.5-0.3c1.6-0.5,2.7-1.5,3.1-2.9c1.2-4.2,1.9-7.5,1.9-8.6
				l0-0.1c-0.1-1.3-0.2-3.3-2.9-3.8C867,1188.4,866.9,1188.3,866.8,1188.3z"/>
			<path class="st6" d="M855.3,1136.6c-3.5-0.5-4.5-3-4.5-4.5c-0.1-2.5,0.7-7.9,0.9-9.1c0.5-2.8,2.8-4.1,6.6-4
				c2.3,0.1,5.9,0.1,9.5,0.2c5,0.1,9.7,0.1,11.3,0.3c3.6,0.4,4,3.1,4.2,4.3l0,0.1c0.2,1.8-0.9,7.4-1.3,9.1c-0.4,1.8-1.6,3-3.6,3.8
				c-1.4,0.5-2.7,0.5-2.8,0.5c-8.1,0.2-16.8-0.2-20.1-0.6C855.4,1136.6,855.4,1136.6,855.3,1136.6z M879.3,1120.3
				c-0.1,0-0.2,0-0.3,0c-1.6-0.2-6.5-0.2-11.3-0.3c-3.5,0-7.2-0.1-9.5-0.2c-3.4-0.1-5.4,1-5.8,3.3c-0.2,1.2-1,6.5-0.9,9
				c0,1.2,0.9,3.3,3.9,3.7c3.3,0.4,12.2,0.7,20,0.6l0,0c0.1,0,4.8-0.1,5.6-3.6c0.9-4.3,1.4-7.7,1.3-8.8l0-0.1
				C882.3,1122.6,882.1,1120.7,879.3,1120.3z"/>
			<path class="st6" d="M852,1159.3c0,0-0.1,0-0.1,0c-3.6-0.5-4.5-3.1-4.5-4.6c0-2.5,0.9-7.9,1.2-9.1c0.6-2.7,2.9-4.1,6.7-3.8
				c2.2,0.1,5.9,0.3,9.4,0.4c5,0.2,9.6,0.4,11.2,0.6c0,0,0.1,0,0.1,0c3.5,0.5,3.8,3.2,3.9,4.5l0,0.1c0.2,1.8-1.1,7.4-1.5,9
				c-0.4,1.7-1.7,3-3.7,3.7c-1.4,0.5-2.7,0.5-2.8,0.5C863.8,1160.4,855.4,1159.8,852,1159.3z M875.8,1143.6c0,0-0.1,0-0.1,0
				c-1.6-0.2-6.4-0.4-11.1-0.6c-3.5-0.1-7.1-0.3-9.4-0.4c-3.4-0.2-5.3,0.8-5.8,3.2c-0.3,1.2-1.2,6.5-1.2,8.9c0,1.2,0.8,3.3,3.8,3.8
				c3.3,0.5,12,1,19.8,1.1l0,0c0.1,0,4.8,0.1,5.7-3.5c1-4.3,1.6-7.7,1.5-8.8l0-0.1C878.9,1146,878.6,1144,875.8,1143.6z"/>
			<path class="st6" d="M818.5,1199.8c-3.5-0.5-6.9-1.1-10.4-1.7c-2-0.4-3.4-2.3-3.1-4.4l1.3-8.9c0.3-2,2.2-3.5,4.2-3.3
				c7,0.8,14,1.8,20.8,3c2,0.4,3.4,2.3,3.1,4.4l-1.3,8.9c-0.3,2-2.2,3.5-4.2,3.3C825.4,1200.7,822,1200.3,818.5,1199.8z
				 M820.8,1183.7c-3.5-0.5-7-1-10.4-1.3c-1.6-0.2-3.1,1-3.3,2.6l-1.3,8.9c-0.2,1.6,0.9,3.1,2.5,3.4c6.9,1.2,13.8,2.3,20.8,3
				c1.6,0.2,3.1-1,3.3-2.6l1.3-8.9c0.2-1.6-0.9-3.1-2.5-3.4C827.7,1184.7,824.3,1184.2,820.8,1183.7z"/>
			<path class="st6" d="M821.7,1177.8c-3.5-0.5-6.9-1.1-10.4-1.7c-2-0.4-3.4-2.3-3.1-4.4l1.3-8.9c0.3-2,2.2-3.5,4.2-3.3
				c7,0.8,14,1.8,20.8,3c2,0.4,3.4,2.3,3.1,4.4l-1.3,8.9c-0.3,2-2.2,3.5-4.2,3.3C828.6,1178.7,825.1,1178.3,821.7,1177.8z
				 M824,1161.7c-3.5-0.5-7-1-10.4-1.3c-1.6-0.2-3.1,1-3.3,2.6l-1.3,8.9c-0.2,1.6,0.9,3.1,2.5,3.4c6.9,1.2,13.8,2.3,20.8,3
				c1.6,0.2,3.1-1,3.3-2.6l1.3-8.9c0.2-1.6-0.9-3.1-2.5-3.4C830.9,1162.7,827.5,1162.2,824,1161.7z"/>
			<path class="st6" d="M824.9,1155.7c-3.5-0.5-6.9-1.1-10.4-1.7c-2-0.4-3.4-2.3-3.1-4.4l1.3-8.9c0.3-2,2.2-3.5,4.2-3.3
				c7,0.8,14,1.8,20.8,3c2,0.4,3.4,2.3,3.1,4.4l-1.3,8.9c-0.3,2-2.2,3.5-4.2,3.3C831.8,1156.7,828.3,1156.2,824.9,1155.7z
				 M827.2,1139.6c-3.5-0.5-7-1-10.4-1.3c-1.6-0.2-3.1,1-3.3,2.6l-1.3,8.9c-0.2,1.6,0.9,3.1,2.5,3.4c6.9,1.2,13.8,2.3,20.8,3
				c1.6,0.2,3.1-1,3.3-2.6l1.3-8.9c0.2-1.6-0.9-3.1-2.5-3.4C834.1,1140.7,830.7,1140.1,827.2,1139.6z"/>
			<path class="st6" d="M828,1134c-3.7-0.5-7.4-1.1-11-1.8c-2.1-0.4-3.6-2.5-3.3-4.6l1.4-9.5c0.3-2.2,2.3-3.7,4.5-3.5
				c7.4,0.8,14.8,1.9,22.1,3.2c2.1,0.4,3.6,2.5,3.3,4.6l-1.4,9.5c-0.3,2.2-2.3,3.7-4.5,3.5C835.4,1135,831.7,1134.6,828,1134z
				 M830.5,1116.8c-3.7-0.5-7.4-1-11-1.4c-1.7-0.2-3.3,1.1-3.6,2.8l-1.4,9.5c-0.3,1.7,0.9,3.4,2.6,3.7c7.3,1.3,14.7,2.4,22,3.2
				c1.7,0.2,3.3-1.1,3.6-2.8l1.4-9.5c0.3-1.7-0.9-3.4-2.6-3.7C837.9,1117.9,834.2,1117.3,830.5,1116.8z"/>
		</g>
		<path class="st7" d="M889.3,1087.4c-0.2,1.5-1.6,2.6-3.1,2.3l-102.4-14.9c-1.5-0.2-2.6-1.6-2.3-3.1l10.9-75
			c0.2-1.5,1.6-2.6,3.1-2.3l102.4,14.9c1.5,0.2,2.6,1.6,2.3,3.1L889.3,1087.4z"/>
		<path class="st4" d="M875.6,1220.2c0,0,2.2-0.4,4.2-1.3c2-0.8,2.7-2.8,3.7-7.3c0.9-4.2,17.6-72.4,36.3-189.9c0,0,1.1-5.2,0-7.6
			c-1.1-2.4-5.3-4.5-5.3-4.5"/>
		<g>
			<path class="st6" d="M828.2,977.4c0,0.3-0.3,0.5-0.6,0.5l-6.1-0.9c-0.3,0-0.5-0.3-0.5-0.6l0.4-2.5c0-0.3,0.3-0.5,0.6-0.5l6.1,0.9
				c0.3,0,0.5,0.3,0.5,0.6L828.2,977.4z"/>
			<path class="st6" d="M845.7,979.9c0,0.3-0.3,0.5-0.6,0.5l-6.1-0.9c-0.3,0-0.5-0.3-0.5-0.6l0.4-2.5c0-0.3,0.3-0.5,0.6-0.5l6.1,0.9
				c0.3,0,0.5,0.3,0.5,0.6L845.7,979.9z"/>
			<path class="st6" d="M863.3,982.5c0,0.3-0.3,0.5-0.6,0.5l-6.1-0.9c-0.3,0-0.5-0.3-0.5-0.6l0.4-2.5c0-0.3,0.3-0.5,0.6-0.5l6.1,0.9
				c0.3,0,0.5,0.3,0.5,0.6L863.3,982.5z"/>
			<path class="st6" d="M880.8,985c0,0.3-0.3,0.5-0.6,0.5l-6.1-0.9c-0.3,0-0.5-0.3-0.5-0.6l0.4-2.5c0-0.3,0.3-0.5,0.6-0.5l6.1,0.9
				c0.3,0,0.5,0.3,0.5,0.6L880.8,985z"/>
		</g>
		<path class="st6" d="M876,1220.3l-0.8-0.2c5.8-27.3,18.5-88.4,25-124.1c2.7-14.7,5.1-28.5,7.2-41.2c2.9-17.4,5.1-32.6,6.7-45.3
			l0.8,0.1c-1.6,12.7-3.8,28-6.7,45.4c-2.1,12.6-4.5,26.5-7.2,41.2C894.5,1131.9,881.8,1193,876,1220.3z"/>
	</g>
	<g id="Logo">
		<g id="layer1_6_" transform="translate(-428.44451,124.17924)">
			<g id="g6927_6_" transform="matrix(8.3053095,0,0,-8.3053095,-3280.5763,352.09041)">
				<g>
					<g id="g6929_6_">
						<g id="g6935_6_" transform="translate(493.0905,52.881)">
							<path id="path6937_6_" class="st5" d="M55.3-114.5l0.2,0l0.1,0.2l-0.2,0L55.3-114.5z M55.3-114.6l0.2,0l-0.2-0.7
								c0,0,0,0-0.1,0c-0.1,0-0.1,0-0.1,0.1c0,0,0,0,0,0.1C55.1-114.9,55.3-114.6,55.3-114.6 M57.4-114.9c-0.1,0-0.2-0.1-0.2-0.1
								l0,0l0,0.1l-0.2,0c0,0,0-0.1-0.1-0.2c0,0-0.1-0.2-0.1-0.3c0,0,0-0.1,0-0.1c0-0.1,0-0.1,0.1-0.1c0.1,0,0.1,0,0.1,0l0.1,0.3
								c0,0.1,0.1,0.2,0.2,0.1c0.1,0,0.1-0.1,0.1-0.1c0,0,0-0.1,0-0.1l0-0.1c0,0,0-0.1,0-0.1c0-0.1,0-0.1,0.1-0.1c0,0,0.1,0,0.1,0
								l0.1,0.3c0,0.1,0,0.1,0.1,0.2C57.6-115,57.5-114.9,57.4-114.9 M56.4-114.9c-0.1,0-0.2-0.1-0.2-0.2c0-0.1,0-0.2,0.1-0.2
								c0.1,0,0.2,0.1,0.2,0.2C56.5-115,56.5-114.9,56.4-114.9 M56.2-115.4c-0.2,0-0.3,0.2-0.3,0.3c0,0.2,0.2,0.4,0.5,0.3
								c0.2,0,0.3-0.2,0.3-0.3C56.7-115.4,56.5-115.5,56.2-115.4 M55.5-115.2C55.5-115.2,55.5-115.2,55.5-115.2c0-0.1,0-0.2,0.1-0.2
								c0.1,0,0.1,0,0.1,0l0.2,0.5l0.2,0l0.1,0.2l-0.2,0l0,0c0,0.1,0.1,0.1,0.1,0.1c0,0,0.1,0,0.1,0l0.1,0.2c0,0-0.1,0-0.2,0.1
								c-0.1,0-0.3,0-0.3-0.2l0-0.1l-0.1,0l-0.1-0.2l0.1,0C55.6-114.8,55.6-115,55.5-115.2 M55.1-114.6c-0.1,0-0.2-0.1-0.2-0.1l0,0
								l0,0.1l-0.2,0c0,0,0-0.1-0.1-0.2c0-0.1-0.1-0.2-0.1-0.3c0,0,0,0,0-0.1c0-0.1,0-0.1,0.1-0.1c0,0,0.1,0,0.1,0l0.1,0.3
								c0,0.1,0.1,0.2,0.2,0.2c0.1,0,0.1,0,0.1,0L55.1-114.6C55.2-114.6,55.1-114.6,55.1-114.6 M58.1-115.3c0,0.1,0,0.1-0.1,0.2
								c-0.1,0-0.1,0-0.2-0.1L58.1-115.3z M58.2-115.6c0-0.1-0.1-0.2-0.3-0.1c-0.2,0-0.3,0.2-0.3,0.3c0,0.2,0.2,0.4,0.4,0.4
								c0.2,0,0.3-0.1,0.3-0.3C58.3-115.4,58.3-115.4,58.2-115.6l-0.4,0.2c0-0.1,0-0.1,0.2-0.2C58-115.6,58.1-115.6,58.2-115.6
								L58.2-115.6L58.2-115.6z M54.3-114.7c0,0.1,0,0.1-0.1,0.2c-0.1,0-0.1,0-0.2-0.1L54.3-114.7z M54.4-115c0-0.1-0.1-0.2-0.3-0.1
								c-0.2,0-0.3,0.2-0.3,0.3c0,0.2,0.2,0.4,0.4,0.3c0.2,0,0.3-0.1,0.3-0.3C54.5-114.9,54.5-114.9,54.4-115l-0.4,0.1
								c0-0.1,0-0.1,0.2-0.2C54.2-115,54.3-115,54.4-115L54.4-115z M53.2-114.1l0.2,0l-0.1-0.7c0-0.1,0-0.2,0.1-0.2c0,0,0,0,0,0
								c0-0.1-0.1-0.1-0.2-0.1c-0.1,0-0.2,0.1-0.1,0.2L53.2-114.1L53.2-114.1z"/>
						</g>
						<g id="g6939_6_" transform="translate(452.5683,42.3734)">
							<path id="path6941_6_" class="st5" d="M93.9-104.2L93.9-104.2c0-0.1,0-0.2,0.1-0.2c0,0,0.1,0,0.1,0c0,0.1,0.5,0.6,0.5,0.6
								l-0.2,0L93.9-104.2z"/>
						</g>
					</g>
				</g>
			</g>
		</g>
		<g>
			<g>
				<path class="st7" d="M820.9,1127.5l4.5,0.7c0.3,0,0.4,0.2,0.3,0.4l-0.1,1c0,0.3-0.2,0.4-0.4,0.3l-6.2-0.9
					c-0.3,0-0.4-0.2-0.4-0.4l0.4-2.8c0.2-0.9,0.7-1.1,1.3-1.2l3.4-0.9c0.4-0.1,0.7-0.4,0.8-0.8l0.1-1c0.1-0.8-0.3-1.3-1.4-1.4
					c-1-0.1-1.6,0.2-1.7,1l-0.1,0.6c0,0.3-0.2,0.4-0.4,0.3l-1.3-0.2c-0.3,0-0.4-0.2-0.3-0.4l0.1-1c0.2-1.5,1.4-2.4,3.9-2
					s3.5,1.6,3.2,3l-0.2,1.2c-0.2,1.2-0.8,1.9-1.8,2.1l-2.8,0.7c-0.5,0.1-0.8,0.3-0.9,0.8L820.9,1127.5z"/>
			</g>
			<g>
				<path class="st7" d="M823.1,1141.4c0.3,0,0.4,0.2,0.4,0.4l-0.1,1c0,0.3-0.2,0.4-0.5,0.3l-3.9-0.6l-0.3,2l1.1,0.2
					c2.5,0.4,3.5,1.5,3.3,3l-0.3,1.9c-0.2,1.5-1.4,2.4-4,2c-2.6-0.4-3.4-1.6-3.2-3.1l0.1-0.5c0-0.3,0.2-0.4,0.4-0.3l1.3,0.2
					c0.3,0,0.4,0.2,0.3,0.4l0,0.2c-0.1,0.8,0.3,1.2,1.3,1.4c1,0.1,1.6-0.2,1.7-1l0.2-1.3c0.1-0.7-0.4-1.2-1.4-1.3l-2.8-0.4
					c-0.2,0-0.3-0.2-0.3-0.5l0.7-4.7c0-0.3,0.2-0.4,0.4-0.4L823.1,1141.4z"/>
			</g>
			<g>
				<path class="st7" d="M813.3,1164.9c0.2-1.7,1.5-2.4,3.7-2c2.2,0.3,3.2,1.3,3,3l-0.1,1c-0.1,0.8-0.6,1.3-1.4,1.5
					c0.8,0.5,1.2,1.1,1.1,1.9l-0.2,1.4c-0.2,1.5-1.4,2.4-3.9,2c-2.5-0.4-3.4-1.5-3.1-3.1l0.2-1.4c0.1-0.8,0.6-1.3,1.6-1.5
					c-0.7-0.4-1.1-1-0.9-1.8L813.3,1164.9L813.3,1164.9z M817.5,1170.2c0.1-0.8-0.3-1.2-1.3-1.3c-1-0.1-1.5,0.1-1.6,0.9l-0.1,0.8
					c-0.1,0.8,0.3,1.2,1.3,1.4c1,0.1,1.5-0.2,1.6-1L817.5,1170.2z M817.9,1165.8c0.1-0.8-0.2-1.2-1.1-1.4c-1-0.1-1.4,0.2-1.5,1
					l-0.1,0.4c-0.1,0.8,0.2,1.2,1.1,1.4c1,0.1,1.4-0.2,1.5-1L817.9,1165.8z"/>
			</g>
			<g>
				<path class="st7" d="M809.8,1187.3c0.2-1.5,1.5-2.4,4-2c2.5,0.4,3.5,1.6,3.2,3l-0.8,5.8c-0.2,1.5-1.5,2.4-4,2
					c-2.5-0.4-3.5-1.6-3.2-3.1L809.8,1187.3z M814.9,1188.4c0.1-0.8-0.3-1.3-1.4-1.4c-1-0.1-1.6,0.2-1.7,1l-0.7,5
					c-0.1,0.8,0.3,1.3,1.4,1.4c1,0.1,1.6-0.2,1.7-1L814.9,1188.4z"/>
			</g>
			<g>
				<path class="st7" d="M830.3,1123.1c0.1,0,0.2,0.1,0.2,0.2l0.7,4.7c0,0.1,0,0.2-0.2,0.1l-0.6-0.1c-0.1,0-0.2-0.1-0.2-0.2
					l-0.1-0.9l-1.3-0.2l-0.4,0.8c0,0.1-0.1,0.1-0.2,0.1l-0.6-0.1c-0.1,0-0.2-0.1-0.1-0.2l2-4.3c0-0.1,0.1-0.1,0.2-0.1L830.3,1123.1z
					 M830,1126.1l-0.1-0.8c0-0.1,0-0.3,0-0.7c0-0.3,0-0.5,0-0.6c-0.2,0.7-0.4,1.1-0.4,1.3l-0.4,0.8L830,1126.1z"/>
				<path class="st7" d="M831.9,1128.2c-0.1,0-0.2-0.1-0.1-0.2l0.6-4.5c0-0.1,0.1-0.2,0.2-0.2l1.3,0.2c1.2,0.2,1.7,0.7,1.6,1.3
					l-0.1,0.4c-0.1,0.4-0.3,0.6-0.6,0.7c0.5,0.2,0.7,0.6,0.6,1l-0.1,0.6c-0.1,0.7-0.7,1-1.9,0.9L831.9,1128.2L831.9,1128.2z
					 M833.2,1124.3l-0.2,1.2l0.5,0.1c0.5,0.1,0.8-0.1,0.8-0.4l0-0.2c0-0.3-0.2-0.5-0.7-0.6L833.2,1124.3z M832.9,1126.2l-0.2,1.3
					l0.7,0.1c0.5,0.1,0.8-0.1,0.8-0.4l0-0.3c0-0.3-0.2-0.5-0.7-0.6L832.9,1126.2z"/>
				<path class="st7" d="M839.2,1128.2c0,0.3-0.2,0.6-0.5,0.8c-0.3,0.2-0.7,0.2-1.3,0.1c-0.6-0.1-1-0.3-1.2-0.5
					c-0.2-0.3-0.3-0.5-0.3-0.9l0.4-2.6c0-0.3,0.2-0.6,0.5-0.8c0.3-0.2,0.7-0.2,1.3-0.1c0.6,0.1,1,0.3,1.2,0.5
					c0.2,0.3,0.3,0.5,0.3,0.9l0,0.3c0,0.1-0.1,0.2-0.2,0.1l-0.6-0.1c-0.1,0-0.2-0.1-0.1-0.2l0-0.2c0.1-0.4-0.2-0.6-0.6-0.6
					s-0.7,0.1-0.8,0.4l-0.3,2.3c-0.1,0.4,0.2,0.6,0.6,0.6c0.5,0.1,0.7-0.1,0.8-0.4l0-0.3c0-0.1,0.1-0.2,0.2-0.1l0.6,0.1
					c0.1,0,0.2,0.1,0.1,0.2L839.2,1128.2z"/>
			</g>
			<g>
				<path class="st7" d="M825.3,1148.5c-0.1,0.4,0.1,0.6,0.5,0.6c0.4,0.1,0.6-0.1,0.7-0.4l0.5-3.4c0-0.1,0.1-0.2,0.2-0.2l0.6,0.1
					c0.1,0,0.2,0.1,0.1,0.2l-0.5,3.6c-0.1,0.8-0.7,1.1-1.7,0.9c-0.5-0.1-0.9-0.2-1.2-0.5s-0.3-0.5-0.2-0.9l0.1-0.4
					c0-0.1,0.1-0.2,0.2-0.1l0.6,0.1c0.1,0,0.2,0.1,0.1,0.2L825.3,1148.5L825.3,1148.5z"/>
				<path class="st7" d="M830.4,1148.1l1.3,2.5c0,0.1,0,0.2-0.1,0.2l-0.8-0.1c-0.1,0-0.2-0.1-0.2-0.2l-1.1-2.1l-0.1,0l-0.3,1.9
					c0,0.1-0.1,0.2-0.2,0.1l-0.6-0.1c-0.1,0-0.2-0.1-0.1-0.2l0.7-4.5c0-0.1,0.1-0.2,0.2-0.1l0.6,0.1c0.1,0,0.2,0.1,0.1,0.2l-0.3,1.9
					l0.1,0l1.5-1.7c0.1-0.1,0.2-0.1,0.3-0.1l0.7,0.1c0.1,0,0.1,0.1,0.1,0.2L830.4,1148.1z"/>
				<path class="st7" d="M833.5,1150.2l1.6,0.2c0.1,0,0.2,0.1,0.1,0.2l-0.1,0.4c0,0.1-0.1,0.2-0.2,0.1l-2.4-0.3
					c-0.1,0-0.1-0.1-0.1-0.2l0.6-4.5c0-0.1,0.1-0.2,0.2-0.2l0.6,0.1c0.1,0,0.2,0.1,0.1,0.2L833.5,1150.2z"/>
			</g>
			<g>
				<path class="st7" d="M824.8,1167.1c0.1,0,0.2,0.1,0.1,0.2l-0.1,0.4c0,0.1-0.1,0.2-0.2,0.1l-1-0.1l-0.6,3.9
					c0,0.1-0.1,0.2-0.2,0.2l-0.6-0.1c-0.1,0-0.2-0.1-0.2-0.2l0.6-3.9l-1-0.1c-0.1,0-0.2-0.1-0.1-0.2l0.1-0.4c0-0.1,0.1-0.2,0.2-0.1
					L824.8,1167.1z"/>
				<path class="st7" d="M826.2,1172.2c-0.1,0-0.2-0.1-0.2-0.2l-0.7-4.7c0-0.1,0-0.2,0.2-0.1l0.7,0.1c0.1,0,0.2,0.1,0.2,0.2l0.3,2.5
					c0,0.2,0,0.6,0,0.9l0,0.2c0.1-0.4,0.2-0.8,0.3-1l1-2.3c0-0.1,0.1-0.1,0.2-0.1l0.6,0.1c0.1,0,0.2,0.1,0.1,0.2l-2,4.3
					c0,0.1-0.1,0.1-0.2,0.1L826.2,1172.2L826.2,1172.2z"/>
				<path class="st7" d="M830.1,1171.5c-0.1,0.4,0.2,0.6,0.7,0.6c0.5,0.1,0.8-0.1,0.8-0.4l0.5-3.4c0-0.1,0.1-0.2,0.2-0.2l0.6,0.1
					c0.1,0,0.2,0.1,0.1,0.2l-0.5,3.6c-0.1,0.7-0.7,1.1-1.9,0.9c-1.2-0.2-1.7-0.7-1.6-1.4l0.5-3.6c0-0.1,0.1-0.2,0.2-0.2l0.6,0.1
					c0.1,0,0.2,0.1,0.1,0.2L830.1,1171.5L830.1,1171.5z"/>
			</g>
			<g>
				<path class="st7" d="M823.8,1192c0.1,0,0.2,0.1,0.1,0.2l-0.1,0.4c0,0.1-0.1,0.2-0.2,0.1l-2.6-0.4c-0.1,0-0.2-0.1-0.1-0.2
					l0.1-0.4c0-0.1,0.1-0.2,0.2-0.1L823.8,1192z"/>
			</g>
			<g>
				<path class="st7" d="M791,1184.2c0.1,0,0.2,0.1,0.1,0.2l-0.1,0.4c0,0.1-0.1,0.2-0.2,0.1l-1.8-0.3l-0.2,1.2l1.7,0.2
					c0.1,0,0.2,0.1,0.1,0.2l-0.1,0.5c0,0.1-0.1,0.2-0.2,0.1l-1.7-0.2l-0.3,1.9c0,0.1-0.1,0.2-0.2,0.2l-0.6-0.1
					c-0.1,0-0.2-0.1-0.1-0.2l0.6-4.5c0-0.1,0.1-0.2,0.2-0.2L791,1184.2z"/>
			</g>
			<g>
				<path class="st7" d="M859.8,1127.7c1,0.1,1.6-0.2,1.7-0.9l0.1-0.4c0.1-0.8-0.3-1.2-1.3-1.4c-1-0.1-1.5,0.2-1.6,0.9l0,0.2
					c0,0.3-0.2,0.4-0.4,0.3l-1.3-0.2c-0.2,0-0.3-0.2-0.3-0.4l0.1-0.5c0.2-1.7,1.5-2.3,3.9-2s3.4,1.3,3.1,3l-0.2,1.1
					c-0.1,0.8-0.6,1.3-1.4,1.4c0.8,0.5,1.2,1.1,1.1,2l-0.2,1.4c-0.1,0.7-0.5,1.3-1.1,1.7c-0.6,0.4-1.6,0.5-2.8,0.3
					c-2.6-0.4-3.5-1.6-3.2-3.1l0.1-0.5c0-0.3,0.2-0.4,0.4-0.3l1.3,0.2c0.2,0,0.4,0.2,0.3,0.4l0,0.2c-0.1,0.8,0.4,1.2,1.4,1.4
					c1,0.1,1.6-0.2,1.7-0.9l0.1-0.8c0.1-0.8-0.4-1.2-1.4-1.3l-1.2-0.2c-0.3,0-0.4-0.2-0.3-0.4l0.1-0.9c0-0.2,0.2-0.4,0.4-0.3
					L859.8,1127.7z"/>
			</g>
			<g>
				<path class="st7" d="M853.3,1147.4c0.1-0.7,0.5-1.3,1.1-1.7c0.6-0.4,1.6-0.5,2.8-0.3c1.2,0.2,2.1,0.6,2.6,1.1
					c0.4,0.6,0.6,1.2,0.5,1.9l-0.1,0.4c0,0.3-0.2,0.4-0.4,0.3l-1.3-0.2c-0.3,0-0.3-0.1-0.3-0.4l0-0.1c0.1-0.8-0.3-1.2-1.3-1.3
					s-1.5,0.2-1.6,0.9l-0.3,1.9c0.5-0.3,1.1-0.3,1.8-0.2c2.2,0.3,3.1,1.6,2.9,3l-0.2,1.5c-0.1,0.7-0.5,1.3-1.1,1.7
					c-0.6,0.4-1.6,0.5-2.8,0.3c-2.5-0.4-3.4-1.6-3.1-3.1L853.3,1147.4L853.3,1147.4z M857.6,1152.7c0.1-0.8-0.3-1.2-1.3-1.4
					s-1.5,0.1-1.6,0.9l-0.1,1c-0.1,0.8,0.3,1.2,1.3,1.4c1,0.1,1.5-0.2,1.6-1L857.6,1152.7z"/>
			</g>
			<g>
				<path class="st7" d="M855.7,1176c-0.1,0.7-0.5,1.3-1.1,1.7c-0.6,0.4-1.5,0.5-2.8,0.3c-1.2-0.2-2.1-0.6-2.6-1.1
					c-0.4-0.6-0.6-1.2-0.5-1.9l0.1-0.4c0-0.3,0.2-0.4,0.4-0.3l1.3,0.2c0.2,0,0.3,0.2,0.3,0.4l0,0.1c-0.1,0.8,0.3,1.2,1.3,1.3
					c1,0.1,1.5-0.2,1.6-0.9l0.3-1.9c-0.5,0.2-1.1,0.3-1.8,0.2c-2.2-0.3-3.1-1.6-2.9-3l0.2-1.5c0.1-0.7,0.5-1.3,1.1-1.7
					c0.6-0.4,1.6-0.5,2.8-0.3c2.5,0.4,3.4,1.6,3.1,3L855.7,1176L855.7,1176z M854.4,1170.3c0.1-0.8-0.3-1.2-1.3-1.4
					c-1-0.1-1.5,0.2-1.6,1l-0.1,0.9c-0.1,0.8,0.3,1.2,1.3,1.4c1,0.1,1.5-0.2,1.6-0.9L854.4,1170.3z"/>
			</g>
			<g>
				<path class="st7" d="M865.3,1131.1c-0.1,0-0.1-0.1-0.1-0.2l0.6-4.5c0-0.1,0.1-0.2,0.2-0.2l1.6,0.2c1.2,0.2,1.7,0.7,1.6,1.4
					l-0.4,2.5c-0.1,0.7-0.7,1.1-1.9,0.9L865.3,1131.1L865.3,1131.1z M866.7,1127.2l-0.5,3.2l0.8,0.1c0.5,0.1,0.8-0.1,0.8-0.4
					l0.3-2.2c0.1-0.4-0.2-0.6-0.7-0.6L866.7,1127.2L866.7,1127.2z"/>
				<path class="st7" d="M869.6,1131.8c-0.1,0-0.2-0.1-0.1-0.2l0.6-4.5c0-0.1,0.1-0.2,0.2-0.2l2.4,0.4c0.1,0,0.2,0.1,0.1,0.2
					l-0.1,0.4c0,0.1-0.1,0.2-0.2,0.1l-1.6-0.2l-0.2,1.2l1.5,0.2c0.1,0,0.2,0.1,0.2,0.2l-0.1,0.4c0,0.1-0.1,0.2-0.2,0.1l-1.5-0.2
					l-0.2,1.3l1.7,0.3c0.1,0,0.2,0.1,0.1,0.2l-0.1,0.4c0,0.1-0.1,0.2-0.2,0.1L869.6,1131.8L869.6,1131.8z"/>
				<path class="st7" d="M876.5,1127.8c0.1,0,0.2,0.1,0.2,0.2l-0.1,0.4c0,0.1-0.1,0.2-0.2,0.1l-1.8-0.3l-0.2,1.2l1.7,0.2
					c0.1,0,0.2,0.1,0.2,0.2l-0.1,0.5c0,0.1-0.1,0.2-0.2,0.1l-1.7-0.2l-0.3,1.9c0,0.1-0.1,0.2-0.2,0.2l-0.6-0.1
					c-0.1,0-0.2-0.1-0.1-0.2l0.6-4.5c0-0.1,0.1-0.2,0.2-0.2L876.5,1127.8z"/>
			</g>
			<g>
				<path class="st7" d="M865.9,1154.1c0,0.1-0.1,0.2-0.2,0.1l-0.6-0.1c-0.1,0-0.2-0.1-0.1-0.2l0.4-2.7l0,0.1c0,0.1-0.2,0.4-0.3,0.5
					l-0.7,1.2c-0.1,0.1-0.2,0.1-0.3,0.1l-0.5-0.1c-0.1,0-0.2-0.1-0.2-0.2l-0.4-1.5c-0.1-0.2-0.1-0.4-0.1-0.5l-0.4,2.7
					c0,0.1-0.1,0.2-0.2,0.1l-0.6-0.1c-0.1,0-0.2-0.1-0.1-0.2l0.7-4.5c0-0.1,0.1-0.2,0.2-0.1l0.6,0.1c0.1,0,0.1,0,0.1,0.1l0.7,2.7
					l0.1,0.5c0.1-0.2,0.2-0.3,0.3-0.5l1.4-2.3c0-0.1,0.1-0.1,0.2-0.1l0.6,0.1c0.1,0,0.2,0.1,0.1,0.2L865.9,1154.1L865.9,1154.1z"/>
				<path class="st7" d="M870.1,1154.8c0,0.1-0.1,0.2-0.2,0.1l-0.6-0.1c-0.1,0-0.1,0-0.2-0.1l-1-2.6c-0.1-0.3-0.2-0.5-0.2-0.6
					l-0.4,2.8c0,0.1-0.1,0.2-0.2,0.1l-0.6-0.1c-0.1,0-0.2-0.1-0.1-0.2l0.7-4.5c0-0.1,0.1-0.2,0.2-0.1l0.6,0.1c0.1,0,0.1,0,0.1,0.1
					l1.1,2.7l0.2,0.5l0.4-2.8c0-0.1,0.1-0.2,0.2-0.1l0.6,0.1c0.1,0,0.2,0.1,0.1,0.2L870.1,1154.8z"/>
				<path class="st7" d="M871.3,1151.3c0.1-0.7,0.7-1.1,1.9-0.9c1.2,0.2,1.7,0.7,1.6,1.4l-0.4,2.6c-0.1,0.7-0.7,1.1-1.9,0.9
					c-1.2-0.2-1.7-0.7-1.6-1.4L871.3,1151.3z M873.8,1151.9c0.1-0.4-0.2-0.6-0.7-0.6c-0.5-0.1-0.8,0.1-0.8,0.4l-0.3,2.3
					c-0.1,0.4,0.2,0.6,0.7,0.6c0.5,0.1,0.8-0.1,0.8-0.4L873.8,1151.9z"/>
			</g>
			<g>
				<path class="st7" d="M861.5,1174.3c0,0.2,0,0.5,0,0.7c0.1-0.3,0.2-0.5,0.2-0.7l1-2.3c0-0.1,0.1-0.1,0.2-0.1l0.5,0.1
					c0.1,0,0.2,0.1,0.1,0.2l-1.8,4.3c0,0.1-0.1,0.1-0.2,0.1l-0.6-0.1c-0.1,0-0.2-0.1-0.2-0.2l-0.3-2.6c0-0.1,0-0.4,0-0.7
					c-0.1,0.3-0.1,0.5-0.2,0.6l-1,2.4c0,0.1-0.1,0.1-0.2,0.1l-0.6-0.1c-0.1,0-0.2-0.1-0.2-0.2l-0.5-4.7c0-0.1,0.1-0.2,0.2-0.1
					l0.6,0.1c0.1,0,0.2,0.1,0.2,0.2l0.2,2.5l0,0.6c0.1-0.2,0.1-0.3,0.2-0.6l1-2.3c0-0.1,0.1-0.1,0.2-0.1l0.6,0.1
					c0.1,0,0.2,0.1,0.2,0.2L861.5,1174.3z"/>
				<path class="st7" d="M865.3,1174c0,0.1,0,0.3,0.1,0.4c0.1-0.2,0.1-0.3,0.2-0.4l1-1.5c0.1-0.1,0.1-0.1,0.2-0.1l0.6,0.1
					c0.1,0,0.2,0.1,0.1,0.2l-1.8,2.6l-0.2,1.7c0,0.1-0.1,0.2-0.2,0.1l-0.6-0.1c-0.1,0-0.2-0.1-0.2-0.2l0.2-1.6l-0.9-3.1
					c0-0.1,0-0.2,0.1-0.1l0.7,0.1c0.1,0,0.2,0.1,0.2,0.2L865.3,1174z"/>
				<path class="st7" d="M869.8,1175.2l1,2.5c0,0.1,0,0.2-0.1,0.2l-0.7-0.1c-0.1,0-0.2-0.1-0.2-0.2l-0.6-1.6l-1,1.3
					c-0.1,0.1-0.2,0.1-0.3,0.1l-0.7-0.1c-0.1,0-0.1-0.1-0.1-0.2l1.6-2.1l-0.9-2.3c-0.1-0.1,0-0.2,0.1-0.2l0.7,0.1
					c0.1,0,0.2,0.1,0.2,0.2l0.6,1.5l0.9-1.3c0.1-0.1,0.2-0.1,0.3-0.1l0.7,0.1c0.1,0,0.1,0.1,0.1,0.2L869.8,1175.2z"/>
			</g>
			<g>
				<path class="st7" d="M856.6,1197.9c0,0.1-0.1,0.2-0.2,0.1l-0.6-0.1c-0.1,0-0.2-0.1-0.1-0.2l0.1-0.6c0-0.1,0.1-0.2,0.2-0.1
					l0.6,0.1c0.1,0,0.2,0.1,0.1,0.2L856.6,1197.9z"/>
				<path class="st7" d="M860,1197.8c0-0.1,0.1-0.2,0.2-0.1l0.6,0.1c0.1,0,0.2,0.1,0.1,0.2l-0.1,0.5c-0.1,0.5-0.5,0.8-1.2,0.9
					c-0.1,0-0.2,0-0.2-0.1l-0.1-0.4c0-0.1,0-0.2,0.1-0.2c0.2-0.1,0.4-0.1,0.4-0.3L860,1197.8L860,1197.8z"/>
			</g>
			<g>
				<path class="st7" d="M788.7,1110.9c0.2,0,0.4,0.1,0.3,0.4l-1.2,8.6l2,0.3c0.3,0,0.4,0.2,0.3,0.4l-0.1,1c0,0.3-0.2,0.4-0.4,0.3
					l-6.2-0.9c-0.3,0-0.4-0.2-0.3-0.4l0.1-1c0-0.2,0.2-0.4,0.4-0.3l2.1,0.3l1-6.8l-2.2,0.1c-0.3,0-0.4-0.1-0.4-0.4l0.1-1
					c0-0.2,0.2-0.4,0.5-0.4L788.7,1110.9z"/>
			</g>
			<g>
				<path class="st7" d="M781.9,1139.9l3,0.4l0.8-5.6c0-0.3,0.2-0.4,0.4-0.4l1.3,0.2c0.2,0,0.4,0.2,0.3,0.5l-1.4,9.7
					c0,0.3-0.2,0.4-0.4,0.4l-1.3-0.2c-0.2,0-0.4-0.2-0.3-0.5l0.4-2.5l-4.7-0.7c-0.3,0-0.4-0.2-0.3-0.4l0.1-1c0-0.1,0.1-0.2,0.1-0.3
					l2.6-5.4c0.1-0.3,0.3-0.4,0.5-0.3l1.3,0.2c0.3,0,0.3,0.2,0.2,0.5L781.9,1139.9z"/>
			</g>
			<g>
				<path class="st7" d="M785,1156.6c0.3,0,0.4,0.2,0.3,0.4l-0.1,1c0,0.1-0.1,0.2-0.1,0.3l-5,8c-0.1,0.3-0.3,0.4-0.6,0.3l-1.5-0.2
					c-0.3,0-0.4-0.2-0.2-0.5l5-7.9l-4.8-0.7c-0.3,0-0.4-0.2-0.3-0.4l0.1-1c0-0.2,0.2-0.4,0.4-0.3L785,1156.6z"/>
			</g>
			<g>
				<path class="st7" d="M795.9,1119.9c-0.1,0.5-0.4,0.9-1.1,0.9l0.7,0.8c0.1,0.1,0.1,0.2,0,0.3l-0.3,0.3c-0.1,0.1-0.2,0.1-0.3,0
					l-1.1-1.4c-0.9-0.2-1.3-0.8-1.2-1.4l0.4-2.6c0.1-0.7,0.7-1.1,1.9-0.9c1.2,0.2,1.7,0.7,1.6,1.4
					C796.3,1117.3,795.9,1119.9,795.9,1119.9z M793.4,1119.4c-0.1,0.4,0.2,0.6,0.7,0.6c0.5,0.1,0.8-0.1,0.8-0.4l0.3-2.3
					c0.1-0.4-0.2-0.6-0.7-0.6c-0.5-0.1-0.8,0.1-0.8,0.4L793.4,1119.4z"/>
				<path class="st7" d="M799.8,1116.7c0.1,0,0.2,0.1,0.2,0.2l-0.1,0.4c0,0.1,0,0.1-0.1,0.1l-2.3,3l1.8,0.3c0.1,0,0.2,0.1,0.1,0.2
					l-0.1,0.4c0,0.1-0.1,0.2-0.2,0.1l-2.8-0.4c-0.1,0-0.2-0.1-0.1-0.2l0.1-0.4c0-0.1,0-0.1,0-0.1l2.3-3l-1.6-0.2
					c-0.1,0-0.2-0.1-0.2-0.2l0.1-0.4c0-0.1,0.1-0.2,0.2-0.1L799.8,1116.7L799.8,1116.7z"/>
			</g>
			<g>
				<path class="st7" d="M792.5,1141.1c0.1,0,0.2,0.1,0.2,0.2l-0.2,1.3c0,0.3-0.2,0.6-0.5,0.8c-0.3,0.2-0.7,0.2-1.3,0.1
					c-0.6-0.1-1-0.3-1.2-0.5c-0.2-0.3-0.3-0.5-0.3-0.9l0.4-2.6c0-0.3,0.2-0.6,0.5-0.8c0.3-0.2,0.7-0.2,1.3-0.1s1,0.3,1.2,0.5
					c0.2,0.3,0.3,0.5,0.3,0.9l0,0.3c0,0.1-0.1,0.2-0.2,0.1l-0.6-0.1c-0.1,0-0.2-0.1-0.1-0.2l0-0.1c0.1-0.4-0.2-0.6-0.6-0.6
					c-0.5-0.1-0.7,0.1-0.8,0.4l-0.3,2.3c-0.1,0.4,0.2,0.6,0.6,0.6c0.5,0.1,0.7-0.1,0.8-0.4l0.1-0.5l-0.7-0.1c-0.1,0-0.2-0.1-0.2-0.2
					l0.1-0.5c0-0.1,0.1-0.2,0.2-0.1L792.5,1141.1z"/>
				<path class="st7" d="M794.5,1141l1.5,0.2l0.3-1.8c0-0.1,0.1-0.2,0.2-0.2l0.6,0.1c0.1,0,0.2,0.1,0.1,0.2l-0.6,4.5
					c0,0.1-0.1,0.2-0.2,0.2l-0.6-0.1c-0.1,0-0.2-0.1-0.1-0.2l0.3-1.9l-1.5-0.2l-0.3,1.9c0,0.1-0.1,0.2-0.2,0.2l-0.6-0.1
					c-0.1,0-0.2-0.1-0.1-0.2l0.6-4.5c0-0.1,0.1-0.2,0.2-0.2l0.6,0.1c0.1,0,0.2,0.1,0.1,0.2L794.5,1141z"/>
				<path class="st7" d="M798.5,1144.4c0,0.1-0.1,0.2-0.2,0.2l-0.6-0.1c-0.1,0-0.2-0.1-0.1-0.2l0.6-4.5c0-0.1,0.1-0.2,0.2-0.2
					l0.6,0.1c0.1,0,0.2,0.1,0.1,0.2L798.5,1144.4z"/>
			</g>
			<g>
				<path class="st7" d="M786.5,1163.9l-0.2,1.5c0,0.1-0.1,0.2-0.2,0.2l-0.6-0.1c-0.1,0-0.2-0.1-0.1-0.2l0.6-4.5
					c0-0.1,0.1-0.2,0.2-0.2l1.5,0.2c1.2,0.2,1.7,0.7,1.6,1.4l-0.1,0.8c-0.1,0.7-0.7,1.1-1.9,0.9L786.5,1163.9L786.5,1163.9z
					 M786.8,1161.6l-0.2,1.5l0.7,0.1c0.5,0.1,0.8-0.1,0.8-0.4l0.1-0.5c0.1-0.4-0.2-0.6-0.7-0.6L786.8,1161.6L786.8,1161.6z"/>
				<path class="st7" d="M791.3,1164.5l-0.7-0.1l-0.2,1.7c0,0.1-0.1,0.2-0.2,0.2l-0.6-0.1c-0.1,0-0.2-0.1-0.1-0.2l0.6-4.5
					c0-0.1,0.1-0.2,0.2-0.2l1.5,0.2c1.2,0.2,1.7,0.7,1.6,1.4l-0.1,0.7c-0.1,0.5-0.4,0.8-0.9,0.9l0.5,1.9c0,0.1-0.1,0.2-0.2,0.2
					l-0.6-0.1c-0.1,0-0.1-0.1-0.1-0.2L791.3,1164.5L791.3,1164.5L791.3,1164.5z M790.9,1162.2l-0.2,1.4l0.7,0.1
					c0.5,0.1,0.8-0.1,0.8-0.4l0-0.3c0.1-0.4-0.2-0.6-0.7-0.6L790.9,1162.2L790.9,1162.2z"/>
				<path class="st7" d="M796.4,1163.4c0-0.3-0.1-0.6-0.6-0.6s-0.7,0.1-0.8,0.4l0,0.1c0,0.2,0.1,0.3,0.2,0.4l1.2,0.6
					c0.5,0.3,0.8,0.7,0.7,1.1l-0.1,0.5c-0.1,0.7-0.7,1.1-1.9,0.9c-1.2-0.2-1.6-0.7-1.5-1.4l0.1-0.4c0-0.1,0.1-0.2,0.2-0.2l0.6,0.1
					c0.1,0,0.2,0.1,0.1,0.2l0,0.3c0,0.3,0.2,0.6,0.7,0.6c0.5,0.1,0.8-0.1,0.8-0.4l0-0.2c0-0.1,0-0.2-0.1-0.3
					c-0.1-0.2-0.2-0.2-0.5-0.3l-1-0.6c-0.3-0.2-0.6-0.6-0.5-1l0.1-0.4c0.1-0.7,0.6-1.1,1.8-0.9c1.2,0.2,1.6,0.7,1.5,1.4l0,0.3
					c0,0.1-0.1,0.2-0.2,0.1l-0.6-0.1c-0.1,0-0.2-0.1-0.1-0.2L796.4,1163.4L796.4,1163.4z"/>
			</g>
			<g>
				<path class="st7" d="M780.4,1187.4c-0.2,0-0.3-0.2-0.2-0.4l0.4-1.7l-1.6,0.7c-0.2,0.1-0.4,0-0.4-0.2l-0.2-0.6
					c-0.1-0.2,0-0.4,0.2-0.4l1.5-0.5l-1.3-0.9c-0.2-0.1-0.2-0.3-0.1-0.5l0.3-0.5c0.2-0.2,0.3-0.2,0.5,0l1.3,1.2l0.1-1.8
					c0-0.3,0.1-0.3,0.4-0.3l0.6,0.1c0.2,0,0.3,0.2,0.3,0.4l-0.4,1.7l1.6-0.7c0.2-0.1,0.4,0,0.4,0.2l0.2,0.6c0.1,0.2,0,0.4-0.2,0.4
					l-1.5,0.5l1.3,0.9c0.2,0.1,0.2,0.3,0.1,0.5l-0.4,0.5c-0.1,0.2-0.3,0.2-0.5,0l-1.3-1.1l-0.1,1.6c0,0.2-0.1,0.3-0.4,0.3
					L780.4,1187.4L780.4,1187.4z"/>
			</g>
			<g>
				<path class="st7" d="M847.7,1194.9l0.4-0.8l-0.5-0.1c-0.2,0-0.3-0.1-0.3-0.3l0.1-0.5c0-0.2,0.1-0.3,0.3-0.2l0.8,0.1l0.4-0.9
					c0.1-0.2,0.2-0.3,0.4-0.2l0.7,0.1c0.2,0,0.3,0.1,0.2,0.3l-0.4,0.9l1.4,0.2l0.4-0.9c0.1-0.2,0.2-0.3,0.4-0.2l0.7,0.1
					c0.2,0,0.3,0.1,0.2,0.3l-0.4,0.9l0.4,0.1c0.2,0,0.3,0.1,0.2,0.3l-0.1,0.5c0,0.2-0.1,0.3-0.3,0.2l-0.8-0.1l-0.4,0.8l0.4,0.1
					c0.2,0,0.3,0.1,0.3,0.3l-0.1,0.5c0,0.2-0.1,0.3-0.3,0.2l-0.8-0.1l-0.4,0.9c-0.1,0.2-0.2,0.2-0.4,0.2l-0.7-0.1
					c-0.2,0-0.3-0.1-0.2-0.3l0.4-0.9l-1.4-0.2l-0.4,0.9c-0.1,0.2-0.2,0.2-0.4,0.2l-0.6-0.1c-0.2,0-0.2-0.1-0.2-0.3l0.4-0.9l-0.5-0.1
					c-0.2,0-0.3-0.1-0.2-0.3l0.1-0.5c0-0.2,0.1-0.3,0.3-0.2L847.7,1194.9z M849.3,1194.3l-0.4,0.8l1.4,0.2l0.4-0.8L849.3,1194.3z"/>
			</g>
		</g>
		<g>
			<g>
				<path class="st6" d="M819.2,1094.9c0.1,0,0.1,0,0.1,0.1l0,0.3c0,0.1,0,0.1-0.1,0.1l-1.2-0.2l-0.1,0.8l1.2,0.2
					c0.1,0,0.1,0,0.1,0.1l0,0.3c0,0.1,0,0.1-0.1,0.1l-1.2-0.2l-0.2,1.3c0,0.1,0,0.1-0.1,0.1l-0.4-0.1c-0.1,0-0.1-0.1-0.1-0.2l0.4-3
					c0-0.1,0-0.1,0.1-0.1L819.2,1094.9L819.2,1094.9z"/>
				<path class="st6" d="M820.1,1097.8l1.4,0.2c0.1,0,0.1,0,0.1,0.1l0,0.3c0,0.1,0,0.1-0.1,0.1l-1.9-0.3c-0.1,0-0.1,0-0.1-0.1
					l0.1-0.9c0.1-0.3,0.2-0.3,0.4-0.4l1-0.3c0.1,0,0.2-0.1,0.2-0.2l0-0.3c0-0.2-0.1-0.4-0.4-0.4c-0.3,0-0.5,0-0.5,0.3l0,0.2
					c0,0.1,0,0.1-0.1,0.1l-0.4-0.1c-0.1,0-0.1,0-0.1-0.1l0-0.3c0.1-0.5,0.4-0.7,1.2-0.6c0.8,0.1,1.1,0.5,1,1l-0.1,0.4
					c-0.1,0.4-0.3,0.6-0.6,0.7l-0.9,0.2c-0.2,0-0.2,0.1-0.3,0.2L820.1,1097.8L820.1,1097.8z"/>
			</g>
			<g>
				<path class="st6" d="M847,1098.9c0.1,0,0.1,0,0.1,0.1l0,0.3c0,0.1,0,0.1-0.1,0.1l-1.2-0.2l-0.1,0.8l1.2,0.2c0.1,0,0.1,0,0.1,0.1
					l0,0.3c0,0.1,0,0.1-0.1,0.1l-1.2-0.2l-0.2,1.3c0,0.1,0,0.1-0.1,0.1l-0.4-0.1c-0.1,0-0.1-0.1-0.1-0.2l0.4-3c0-0.1,0-0.1,0.1-0.1
					L847,1098.9L847,1098.9z"/>
				<path class="st6" d="M848.3,1100.5c0.3,0,0.5,0,0.5-0.3l0-0.1c0-0.2-0.1-0.4-0.4-0.4c-0.3,0-0.5,0-0.5,0.3l0,0.1
					c0,0.1,0,0.1-0.1,0.1l-0.4-0.1c-0.1,0-0.1,0-0.1-0.1l0-0.2c0.1-0.5,0.5-0.7,1.2-0.6c0.7,0.1,1.1,0.4,1,0.9l-0.1,0.4
					c0,0.2-0.2,0.4-0.4,0.4c0.3,0.1,0.4,0.3,0.3,0.6l-0.1,0.4c0,0.2-0.1,0.4-0.3,0.5c-0.2,0.1-0.5,0.2-0.9,0.1c-0.8-0.1-1.1-0.5-1-1
					l0-0.2c0-0.1,0-0.1,0.1-0.1l0.4,0.1c0.1,0,0.1,0,0.1,0.1l0,0.1c0,0.2,0.1,0.4,0.4,0.4s0.5,0,0.5-0.3l0-0.2
					c0-0.2-0.1-0.4-0.4-0.4l-0.4-0.1c-0.1,0-0.1,0-0.1-0.1l0-0.3c0-0.1,0-0.1,0.1-0.1L848.3,1100.5L848.3,1100.5z"/>
			</g>
			<g>
				<path class="st6" d="M871.7,1100.1c0.1,0,0.1,0,0.1,0.1l0,0.3c0,0.1,0,0.1-0.1,0.1l-1.2-0.2l-0.1,0.8l1.2,0.2
					c0.1,0,0.1,0,0.1,0.1l0,0.3c0,0.1,0,0.1-0.1,0.1l-1.2-0.2l-0.2,1.3c0,0.1,0,0.1-0.1,0.1l-0.4-0.1c-0.1,0-0.1-0.1-0.1-0.2
					l0.4-3.1c0-0.1,0-0.1,0.1-0.1L871.7,1100.1L871.7,1100.1z"/>
				<path class="st6" d="M872.5,1102.1l0.9,0.1l0.3-1.7c0-0.1,0-0.1,0.1-0.1l0.4,0.1c0.1,0,0.1,0.1,0.1,0.2l-0.4,3.1
					c0,0.1,0,0.1-0.1,0.1l-0.4-0.1c-0.1,0-0.1-0.1-0.1-0.2l0.1-0.8l-1.5-0.2c-0.1,0-0.1,0-0.1-0.1l0-0.3c0,0,0-0.1,0-0.1l0.8-1.7
					c0-0.1,0.1-0.1,0.2-0.1l0.4,0.1c0.1,0,0.1,0.1,0.1,0.1L872.5,1102.1z"/>
			</g>
			<g>
				<path class="st6" d="M796.2,1089.1c0.1,0,0.1,0,0.1,0.1l0,0.3c0,0.1,0,0.1-0.1,0.1l-1.2-0.2l-0.1,0.8l1.2,0.2
					c0.1,0,0.1,0,0.1,0.1l0,0.3c0,0.1,0,0.1-0.1,0.1l-1.2-0.2l-0.2,1.3c0,0.1,0,0.1-0.1,0.1l-0.4-0.1c-0.1,0-0.1-0.1-0.1-0.2
					l0.4-3.1c0-0.1,0-0.1,0.1-0.1L796.2,1089.1L796.2,1089.1z"/>
				<path class="st6" d="M798,1089.4c0.1,0,0.1,0,0.1,0.1l-0.4,2.7l0.6,0.1c0.1,0,0.1,0,0.1,0.1l0,0.3c0,0.1,0,0.1-0.1,0.1l-1.9-0.3
					c-0.1,0-0.1,0-0.1-0.1l0-0.3c0-0.1,0-0.1,0.1-0.1l0.7,0.1l0.3-2.1l-0.7,0c-0.1,0-0.1,0-0.1-0.1l0-0.3c0-0.1,0.1-0.1,0.2-0.1
					L798,1089.4z"/>
			</g>
			<g>
				<path class="st6" d="M822.6,1088.5c0.6,0.1,0.8,0.6,0.4,1l-2.4,3.1c-0.4,0.5-0.9,0.4-1.1-0.2l-1.5-3.7c-0.2-0.6,0.1-1,0.7-0.9
					L822.6,1088.5z"/>
			</g>
			<g>
				<path class="st6" d="M845.6,1096.4c-0.6-0.1-0.8-0.6-0.4-1l2.4-3.1c0.4-0.5,0.9-0.4,1.1,0.2l1.5,3.7c0.2,0.6-0.1,1-0.7,0.9
					L845.6,1096.4z"/>
			</g>
		</g>
		<path class="st6" d="M881.4,1098.7L870,1097c-0.2,0-0.4-0.3-0.4-0.5c0-0.2,0.3-0.4,0.5-0.4l11.4,1.7c0.2,0,0.4,0.3,0.4,0.5
			C881.8,1098.5,881.6,1098.7,881.4,1098.7z"/>
		<path class="st6" d="M798.7,1086.6l-11.4-1.7c-0.2,0-0.4-0.3-0.4-0.5c0-0.2,0.3-0.4,0.5-0.4l11.4,1.7c0.2,0,0.4,0.3,0.4,0.5
			S798.9,1086.7,798.7,1086.6z"/>
	</g>
</g>
<g>
	<g id="Outlines">
		<path class="st4" d="M382.8,1001.7l4.2-2.7l-8.1-53.5c-0.6-4.2-4.4-7-8.6-6.3l-120.1,18.2c-4.2,0.6-7.4,4.4-6.7,8.7l8.1,53.5
			l5,1.4l1.1,2.5l-4.9,4.4l34.4,227.1c0.6,4.2,4.8,7.3,9.1,6.7l120.1-18.2c4.2-0.6,6.9-4.8,6.3-9l-34.4-227.1l-5.9-2.8L382.8,1001.7
			z"/>
		<path class="st8" d="M382.7,1005.1L257.5,1024l-2-3.6l128.1-19.4L382.7,1005.1z M257.9,1023.2l124.2-18.8l0.5-2.4l-125.9,19
			L257.9,1023.2z"/>
		<path class="st8" d="M413.2,1239.9l-115.5,17.5c-3.6,0.5-7-1.9-7.5-5.5l-33-218.3c-0.5-3.6,1.9-7,5.5-7.5l115.5-17.5
			c3.6-0.5,7,1.9,7.5,5.5l33,218.3C419.3,1236,416.8,1239.3,413.2,1239.9z M262.9,1026.8c-3.2,0.5-5.4,3.5-4.9,6.6l33,218.3
			c0.5,3.2,3.5,5.4,6.6,4.9l115.5-17.5c3.2-0.5,5.4-3.5,4.9-6.6l-33-218.3c-0.5-3.2-3.5-5.4-6.6-4.9L262.9,1026.8z"/>
		<path class="st5" d="M379.9,1024.8c-0.1-0.8-0.9-1.4-1.8-1.3l-111.3,16.8c-0.8,0.1-1.4,0.9-1.3,1.8l28.6,189.1
			c0.1,0.8,0.9,1.4,1.8,1.3l111.3-16.8c0.8-0.1,1.4-0.9,1.3-1.8L379.9,1024.8z"/>
		<path class="st9" d="M368.9,951.9c-0.1-0.8-0.9-1.4-1.8-1.3l-111.3,16.8c-0.8,0.1-1.4,0.9-1.3,1.8l6.1,40.3
			c0.1,0.8,0.9,1.4,1.8,1.3l111.3-16.8c0.8-0.1,1.4-0.9,1.3-1.8L368.9,951.9z"/>
	</g>
	<g id="Icons">
		<path class="st5" d="M315,1242.8c-0.1,0-0.2-0.1-0.2-0.2l-0.4-2.9c0-0.1-0.1-0.2-0.2-0.2l-6.1,0.9c-0.1,0-0.2,0.1-0.2,0.2l0.4,2.9
			c0,0.1-0.1,0.2-0.2,0.2c-0.1,0-0.2-0.1-0.2-0.2l-0.4-2.9c0-0.3,0.2-0.6,0.5-0.7l6.1-0.9c0.3,0,0.6,0.2,0.7,0.5l0.4,2.9
			C315.2,1242.7,315.1,1242.8,315,1242.8z"/>
		<path class="st5" d="M313.8,1241.2l-5,0.8c-0.1,0-0.2-0.1-0.2-0.2c0-0.1,0.1-0.2,0.2-0.2l5-0.8c0.1,0,0.2,0.1,0.2,0.2
			C313.9,1241.1,313.9,1241.2,313.8,1241.2z"/>
		<path class="st5" d="M314,1242.7l-5,0.8c-0.1,0-0.2-0.1-0.2-0.2c0-0.1,0.1-0.2,0.2-0.2l5-0.8c0.1,0,0.2,0.1,0.2,0.2
			C314.2,1242.6,314.1,1242.7,314,1242.7z"/>
		<path class="st5" d="M356.1,1237.1l-4.2,0.6c-0.3,0-0.6-0.2-0.7-0.5l-0.1-1c0-0.1,0.1-0.2,0.2-0.2c0.1,0,0.2,0.1,0.2,0.2l0.1,1
			c0,0.1,0.1,0.2,0.2,0.2l4.2-0.6c0.1,0,0.2-0.1,0.2-0.2l-0.1-1c0-0.1,0.1-0.2,0.2-0.2c0.1,0,0.2,0.1,0.2,0.2l0.1,1
			C356.7,1236.8,356.4,1237.1,356.1,1237.1z"/>
		<g>
			<path class="st5" d="M357.3,1235c0,0-0.1,0-0.1,0l-2.8-1.3c-0.8-0.3-1.3-0.2-2,0.3l-2.2,2c-0.1,0.1-0.2,0.1-0.3,0
				c-0.1-0.1-0.1-0.2,0-0.3l2.2-2c0.8-0.6,1.5-0.8,2.4-0.4l2.8,1.3c0.1,0,0.1,0.2,0.1,0.3C357.4,1234.9,357.4,1235,357.3,1235z"/>
		</g>
		<path class="st5" d="M398.7,1230.7l-5.2,0.8c-0.1,0-0.2-0.1-0.2-0.2c0-0.1,0.1-0.2,0.2-0.2l5.2-0.8c0.3,0,0.5-0.3,0.5-0.7
			l-0.2-1.2c0-0.3-0.3-0.5-0.7-0.5l-4.4,0.7c-0.1,0-0.2-0.1-0.2-0.2c0-0.1,0.1-0.2,0.2-0.2l4.4-0.7c0.5-0.1,1,0.3,1.1,0.8l0.2,1.2
			C399.6,1230.1,399.2,1230.6,398.7,1230.7z"/>
		<g>
			<path class="st5" d="M394.3,1229.9c0,0-0.1,0-0.1,0l-1.5-0.8c-0.1-0.1-0.2-0.2-0.3-0.4c0-0.1,0-0.3,0.1-0.4l1.2-1.2
				c0.1-0.1,0.2-0.1,0.3,0c0.1,0.1,0.1,0.2,0,0.3l-1.2,1.2c0,0,0,0.1,0,0.1c0,0,0,0.1,0.1,0.1l1.5,0.8c0.1,0.1,0.1,0.2,0.1,0.3
				C394.4,1229.8,394.3,1229.9,394.3,1229.9z"/>
		</g>
		<g>
			<path id="path2828" class="st5" d="M313,994.7c-5.6,0.4-10.9-1-14.6-3.7c-2.1-1.5-3.5-3.4-4.4-5.6c-0.4-1-0.7-2.8-0.6-3.9
				c0.2-3.3,1.9-6.5,4.8-9.2c6.8-6.1,18.3-7.8,26.5-4c1.1,0.5,1.8,0.9,2.8,1.7c1.3,0.9,2.3,1.9,3.3,3.4c0,0.1,0.2,0.1,0.4,0.1
				c0.5,0,1.3,0.3,2,0.8c0.5,0.3,0.9,0.7,1.9,1.9c1,1.2,5.8,6.5,6.1,6.8c0.1,0.1,0,0.4-0.2,0.4c-0.1,0-0.3-0.1-0.5-0.4
				c-0.2-0.2-1.4-1.6-2.7-3c-4.6-5.2-4.8-5.4-5.9-5.8l-0.6-0.2l-1.6,0.2c-1.6,0.2-1.6,0.2-1.6,0.4c-0.1,0.9-0.1,1.2,0,1.2
				c0,0,1,0.4,2.2,0.8l2.1,0.8l-0.1,0.3c0,0.2-0.1,0.3-0.1,0.3c0,0-1.8-0.7-4-1.5c-2.1-0.8-4-1.5-4.2-1.5c-0.6-0.1-1.4,0.7-1.3,1.2
				c0.1,0.6,0.3,0.7,4.2,3c2.4,1.4,3.8,2.3,4.1,2.6c0.4,0.4,0.9,1,1.3,1.8c0.8,1.4,1.8,2.1,3.4,2.2l0.5,0l0,0.3c0,0.2,0,0.3,0,0.3
				c-0.1,0.1-1.1-0.1-1.7-0.3c-1-0.3-1.7-0.8-2.5-1.8c0,0-0.3,0.2-0.7,0.4c-0.7,0.4-0.8,0.4-1.4,1.2c-2.6,3.5-6.7,6-11.9,7.5
				C317.3,994,314,994.6,313,994.7L313,994.7z M318.2,992.9c2.4-0.7,4.2-1.5,6.1-2.6c1.9-1.2,3.7-2.7,4.9-4.2l0.5-0.6l-1.5-0.4
				c-1.6-0.5-1.7-0.6-2-1.2c-0.2-0.4-0.1-0.8,0.2-1.3l0.2-0.4l-0.7-0.4c-0.6-0.3-0.7-0.4-0.9-0.7c-0.2-0.4-0.2-0.8,0-1.2l0.2-0.3
				l-2,0c-1.1,0-2.2-0.1-2.3-0.1c-0.3,0-0.7-0.3-0.8-0.7c-0.1-0.2,0.2-5.1,0.3-5.8c0.1-0.3,0.4-0.8,0.7-0.9c0.3-0.1,6.3,0,6.7,0.2
				c0.5,0.2,0.7,0.6,0.7,1.3l0,0.3l0.3,0c0.2,0,0.6-0.1,0.9-0.2l0.6-0.1l-0.4-0.5c-1.2-1.6-3.1-3-5.4-4.1c-1.1-0.5-3.3-1.2-4.6-1.4
				c-1.9-0.4-4-0.5-6.1-0.4c-1.1,0.1-4.1,0.5-5.1,0.8c-2.6,0.7-4.8,1.6-6.8,2.8c-4.5,2.8-7.2,6.6-7.4,10.6c-0.1,1,0.2,2.8,0.5,3.7
				c0.7,2,2,3.6,3.8,5c3.7,2.8,8.8,4.2,14.6,3.7C314.1,993.8,317.4,993.2,318.2,992.9z M316.6,989.5c-0.3,0-0.7-0.4-0.8-0.7
				c-0.1-0.2,0-0.4,0.2-1c0.9-2.7,1.1-5,0.7-7.8c-0.4-2.7-1.2-4.7-2.8-7c-0.3-0.5-0.6-1-0.6-1c0-0.3,0.1-0.7,0.3-0.9
				c0.3-0.3,0.9-0.3,1.2-0.1c0.1,0.1,0.4,0.5,0.7,0.9c1.1,1.6,2,3.4,2.6,5.3c0.4,1.2,0.8,3.5,0.8,4.6c0,2.1-0.2,4-0.8,5.9
				c-0.4,1.2-0.6,1.7-0.9,1.7c-0.1,0-0.1,0-0.2,0.1C316.9,989.5,316.7,989.5,316.6,989.5L316.6,989.5z M312.8,988.1
				c-0.5-0.1-0.9-0.6-0.8-1c0-0.1,0.2-0.6,0.3-1.1c0.7-2.1,0.8-4.3,0.2-6.4c-0.4-1.7-0.9-2.7-1.9-4.2c-0.7-1-0.7-1.2-0.5-1.6
				c0.2-0.5,0.9-0.6,1.4-0.3c0.3,0.2,1.4,1.8,1.8,2.7c1.5,3,1.9,6.5,1,9.8C313.9,987.7,313.5,988.2,312.8,988.1z M308.8,986.8
				c-0.3-0.1-0.6-0.3-0.7-0.6c-0.1-0.2,0-0.4,0.2-1.1c0.9-2.7,0.5-5.1-1.1-7.3c-0.7-1-0.7-1.2-0.4-1.7c0.2-0.2,0.3-0.3,0.6-0.3
				c0.5-0.1,0.8,0.1,1.4,1c0.9,1.4,1.4,2.6,1.7,4.2c0.3,1.7,0.2,2.9-0.4,4.5c-0.3,1-0.5,1.2-0.9,1.3
				C309.2,986.8,308.9,986.8,308.8,986.8L308.8,986.8z M305.1,985.6c-0.2-0.1-0.5-0.3-0.7-0.6c-0.1-0.3-0.1-0.5,0.2-1.1
				c0.3-0.8,0.4-1.2,0.2-2.1c-0.1-0.9-0.3-1.3-0.8-1.9c-0.2-0.2-0.4-0.5-0.4-0.6c-0.2-0.4,0.1-1.1,0.6-1.3c0.4-0.2,0.8,0,1.3,0.6
				c1.5,1.7,1.8,4.1,0.9,6.1C306.1,985.4,305.6,985.7,305.1,985.6L305.1,985.6z M331,984.6c0.4-0.2,0.7-0.4,0.7-0.4
				c0,0-0.1-0.3-0.3-0.5c-0.3-0.6-0.3-0.5-1.1-0.3c-0.9,0.3-1.4,0.2-2.5-0.3c-0.3-0.2-0.6-0.3-0.7-0.3c-0.1,0-0.2,0.1-0.3,0.3
				c-0.2,0.3-0.2,0.7,0.1,1c0.2,0.2,2.9,1,3.2,1C330.2,985,330.7,984.8,331,984.6L331,984.6z M330.4,982.7c0.4-0.1,0.4-0.2,0.3-0.3
				c-0.1-0.1-4-2.5-4.3-2.6c-0.3-0.1-0.5,0-0.6,0.2c-0.5,0.7-0.4,0.9,1.3,1.8C329.1,983,329.4,983.1,330.4,982.7z M325.1,979.1
				c0,0-0.4-0.3-1-0.6c-1.3-0.8-1.6-1.1-1.8-1.8c-0.1-0.6,0.2-1.2,0.8-1.7c0.3-0.2,0.9-0.4,1.2-0.3c0.2,0,1.4,0.4,2.9,1l0.3,0.1
				l0.1-1.2c0.1-1.2,0-1.6-0.2-1.6c-0.1,0-1.5-0.1-3.2-0.1c-2.9-0.1-3.3-0.1-3.4,0.2c-0.1,0.1-0.4,5.3-0.3,5.6
				c0,0.1,0.1,0.2,0.2,0.3c0.1,0,1,0.1,2.1,0.1C325,979.1,325.1,979.1,325.1,979.1z"/>
		</g>
	</g>
</g>
</svg>
