<?xml version="1.0" encoding="utf-8"?>
<!-- Generator: Adobe Illustrator 23.0.3, SVG Export Plug-In . SVG Version: 6.00 Build 0)  -->
<svg version="1.1" xmlns="http://www.w3.org/2000/svg" xmlns:xlink="http://www.w3.org/1999/xlink" x="0px" y="0px"
	 viewBox="0 0 2953 2318.5" style="enable-background:new 0 0 2953 2318.5;" xml:space="preserve">
<style type="text/css">
	.st0{display:none;}
	.st1{display:inline;}
	.st2{clip-path:url(#SVGID_2_);}
	.st3{fill:#101820;}
	.st4{fill:#FF7D40;}
	.st5{fill:#2C2B3C;}
	.st6{fill:#2F52EF;}
	.st7{fill:#60BBC5;}
	.st8{fill:#FF894A;}
</style>
<g id="Layer_2" class="st0">
	<g id="FO2FOf_1_" class="st1">
		
			<image style="overflow:visible;" width="1379" height="1518" id="FO2FOf" xlink:href="45B1A01B1B4B061A.jpg"  transform="matrix(2.5554 0 0 2.5554 -438.0819 -607.6029)">
		</image>
	</g>
</g>
<g id="Layer_3">
</g>
<g id="Layer_1">
	<g>
		<defs>
			<rect id="SVGID_1_" width="2953" height="2318.5"/>
		</defs>
		<clipPath id="SVGID_2_">
			<use xlink:href="#SVGID_1_"  style="overflow:visible;"/>
		</clipPath>
		<g class="st2">
			<path class="st3" d="M83,1457.7l0.1-945.1h945.1c0,0,1813.6,1813.7,1944.1,1944.2c261,261,261,684.1,0,945.1
				c-261,261-684.1,261-945.1,0C1896.7,3271.4,83,1457.7,83,1457.7"/>
			<g>
				<g>
					<path class="st4" d="M2700.6,710.8c5.2-10.3,6.1-22.9,1.6-33.7c-4-9.8-11.9-17-21.2-20.6c7.7-11.2,11-25.7,7.8-39.4
						c-3.8-15.7-15.4-28.6-29.9-33.8c-1.5-25.7-21.1-46.2-43.7-54.9c-23.2-8.9-48.3-5-72,1.1c-3.1-29.1-11.2-57.6-24.1-83.6
						c-7.5-15.1-16.6-32.1-31.9-39.7c-12.8-6.4-29.4-4.6-37.9,8.3c-7.7,11.5-6.1,26.8-3.7,39.8c2.9,15.7,6.1,31,6.9,46.9
						c1.8,32.7-2.6,65.7-12.6,96.8c-11.2,34.8-29.5,67.1-54,93.6c-0.8,0.9-1.3,1.8-1.5,2.8c-1.6,2-2.2,5-0.4,7.7
						c33.6,51.2,63.8,104.7,90.6,160.1c2,4.2,6.7,3.8,9.1,1.3c0.3-0.3,0.6-0.7,0.9-1.2c33.1-13.6,38.4,9.9,59.2,12.8h0
						c5.9,0.8,13.1,0,22.6-3.9c20.9-8.6,141-104.5,145.7-122.2C2715.7,735.4,2712.2,718.4,2700.6,710.8z"/>
					<path class="st5" d="M2550.9,677.5c5-4,11.3-6.1,17.2-8.2c6.8-2.4,13.5-5.1,19.9-8.3c26.1-13.2,48.6-33.7,64.7-59
						c4-6.3-5.3-13-9.3-6.7c-19.9,31.2-48.4,51.8-81.9,63.9c-5.1,1.9-10.3,4.2-14.8,7.3c-8.2-7.5-11.1-20-6.2-30.5
						c2.3-4.9,6.1-9,10.7-11.5c5.3-2.9,10.9-4.8,14.9-9.8c6.9-8.4,7.1-20.6,12.8-29.8c6.2-10.1,15.4-17.2,26.2-21.2
						c6.8-2.5,1.8-13.1-5-10.6c-12.5,4.5-23.4,13.5-30.6,25.1c-3.4,5.6-5.8,11.6-7.6,17.9c-0.9,3.2-1.7,6.5-3.4,9.3
						c-2.1,3.5-5.5,5-9,6.7c-11.8,5.7-20.3,15.8-22.5,29.5c-1.9,12.3,2.8,24.4,11.2,32.8c-3.2,4.4-5.2,9.7-5,16.3
						c0.3,13.4,9.6,23.5,21.3,25.6c-5.3,9.3-1.4,20.8,8.8,26.3c10.8,5.8,24.3,6.3,36.7,4.4c-4.2,15.5,28.6,25.2,38.4,26.5
						c7.2,0.9,7.9-10.9,0.7-11.8c-6.8-0.9-13.4-2.9-19.4-6.3c-1.1-0.6-8.6-4.5-8.3-6.2c0.3-1.7,6.9-3,7.8-3.3
						c16.1-4.8,32.3-9.7,48.4-14.5c6.9-2.1,4.8-13.7-2.2-11.6c-11.8,3.5-23.7,7.1-35.5,10.6c-4.6,1.4-10.9,2.4-16.4,4.4
						c-12.7,3.2-29.2,7.2-43.7-2.1c-4.8-3.1-9.1-7.1-4.2-12.3c4.7-4.9,13.2-5.6,19.4-7.3c27.4-7.8,53.6-19.6,77.8-35.1
						c6.2-3.9,1.2-14.6-5-10.6c-15.6,9.9-31.9,18.4-49,25.2c-8.6,3.4-17.3,6.4-26.1,8.9C2541,713.3,2538.6,687.5,2550.9,677.5z"/>
					<path class="st5" d="M2504.1,718c-21.7,2.5-43.2-4.5-60.2-18.7c-5.7-4.7-12,5-6.4,9.8c19.4,16.2,44.2,23.3,68.8,20.5
						C2513.5,728.8,2511.3,717.2,2504.1,718z"/>
				</g>
				<path class="st6" d="M2146.9,1405.1c-1.8,6.9-2.9,13.8-2.7,20.5c0.1,7.3-23.7,20.1-50.9,37.2c-36,22.7-77.9,53.2-78.4,89.1
					c-0.2,17.3-0.1,42.6,0.3,73c1,77.4,3.8,188,6.5,284.8c2.3,80.8,7.2,512.7,8.3,547h-993.7c2.9-18.8,15-401.9,19.3-426
					c5.5-30.9,11.7-64.5,17.8-96.9c15.4-81.3,30-154.4,30-154.4c-1.4-0.1-2.7-0.2-4.1-0.3c-4.9-0.4-9.7-0.8-14.5-1.2
					c-2.8-0.2-5.5-0.5-8.3-0.7c-107.7-9.3-205.5-21.2-284.3-38.5c-18-3.9-35-8.1-50.9-12.6c-35.9-10.2-66.3-21.9-90-35.6
					c-10.4-6-20.3-12.7-29.6-19.9c-24.1-18.7-44.5-41.3-60.8-66.6c0,0,0,0,0,0c-44.7-69.3-58.4-158.6-31.7-242.4
					c14.6-46,30.9-89.5,48.5-130.8c0,0,0,0,0,0c4-9.4,8.1-18.7,12.2-27.8c6.3-14,12.8-27.7,19.5-41.1c0,0,0,0,0,0
					c6.5-13.2,13.2-26.2,20.1-38.9c43.2-80.5,91.7-150.6,143.4-211.8c13.1-15.6,26.5-30.6,40-45c37.4-40,76-75.7,115-107.5
					c16.9-13.8,33.9-26.9,50.9-39.3c0,0,0,0,0,0c102.9-75.1,206-125,294.1-158c20.6-7.7,40.4-14.5,59.2-20.5c10-3.2,19.6-6.1,29-8.8
					c4-1.2,7.9-2.3,11.7-3.3c17.6-4.9,34-9.1,48.9-12.6c0.4-0.1,0.8-0.2,1.2-0.3c59.6-13.8,96.1-17,96.1-17
					c10.9-0.2,21.6-0.1,32.2,0.1c5.5,0.1,11,0.3,16.4,0.5c15.6,0.6,30.8,1.7,45.7,3.1c0.3,0,0.6,0.1,1,0.1
					c19.1,1.9,37.7,4.5,55.6,7.7c16.6,3,32.7,6.5,48.3,10.6c2.3,0.6,4.5,1.2,6.8,1.8c15.5,4.2,30.6,9,45.2,14.2
					c10.1,3.6,20,7.5,29.7,11.7c14.4,6.1,28.3,12.8,41.8,19.9c128.2,68,214.4,180.5,270.9,314.8c12.3,29.1,23.1,59.3,32.7,90.3
					c0.6,2,1.2,4,1.8,5.9c11.9,39.2,21.8,79.7,29.9,121c10.8,55.1,18.5,111.5,23.6,168.3v0
					C2204.5,1312.5,2158.7,1360.5,2146.9,1405.1z"/>
				<path class="st6" d="M2566.5,871.2c0,0-10.2,104.9-56.5,237.7c-13.3,38.1-29.5,78.4-49.4,119.3c-50.1,103.3-123.2,209.8-229,290
					c-7.7,5.8-15.5,11.5-23.6,17.1c-7.9,5.5-16,10.8-24.3,16c-29.9,18.7-62.2,35.3-96.9,49.4c-16.1,6.5-32.8,12.5-50,17.9
					c-17.4,5.5-35.4,10.3-53.9,14.5c-26.8,6-51.3,9.5-73.6,10.6c-14.7,0.8-28.4,0.5-41.3-0.7c-54.5-5-92.7-26.9-118.5-60.1
					c-12-15.4-21.3-33.3-28.3-53.1c-16.8-47.7-20.3-106.5-15.6-168.9c4.6-61,16.9-125.3,32.2-185.9c37.3-148.5,92-274.8,92-274.8
					s56.9,30.1,156.1,17.9c15.3-1.9,31.5-4.8,48.7-8.9c24.2-5.8,50.2-14.2,78-25.7c16.3-6.8,33.2-14.7,50.7-23.8
					c19.1-10,38.9-21.6,59.4-34.8c50.7-32.9,105.4-76.2,163.4-133.1l106.3,105.7l38.5,38.3L2566.5,871.2z"/>
				<g>
					<path class="st7" d="M636.4,1139.9c-0.1,55.8-3,111.1-16.7,164.6c-5.5,21.5-34.1,22.9-41.5,2.1c0-0.2-0.1-0.3-0.1-0.4
						c-0.7-2-1.2-4.2-1.3-6.3c-0.5-6.9-0.9-13.8-1.3-20.8c0-0.6-0.1-1.1-0.2-1.7c-0.9-6.5-1.7-13-2.4-19.5c0,0,0,0,0,0
						c1.5-8.8,3-17.8,4.7-26.9c0,0,0,0,0,0c4-9.4,8.1-18.7,12.2-27.8c6.3-14,12.8-27.7,19.5-41.1c0,0,0,0,0,0
						c6.5-13.2,13.2-26.2,20.1-38.9C633.8,1127.2,636.5,1133.3,636.4,1139.9z"/>
					<path class="st7" d="M1893.6,1297.6c-8.4,23.4-41.1,19.3-44.4-5.5c-7.6-57.9-6.7-113.7,8.2-169.8c5.9-22.1,14.2-42.5,29.1-59.7
						c7.1-8.2,15.4-15.9,25.2-9.2c4.6,3.2,6.4,13.8,6.5,21.1C1919,1149.5,1920,1224.6,1893.6,1297.6z"/>
					<path class="st7" d="M621.7,1670.6c-24.1-18.7-44.5-41.3-60.8-66.6c0,0,0,0,0,0c0-0.2-0.1-0.3-0.1-0.5
						c2-19.1,5.5-38.1,10.6-57.2c5.9-22.1,14.2-42.5,29.1-59.7c7.1-8.2,15.4-15.9,25.2-9.2c4.7,3.2,6.4,13.8,6.5,21.1
						C632.7,1556.2,633.4,1613.9,621.7,1670.6z"/>
					<path class="st7" d="M949.7,1304.8c-6.8,21.5-36.9,18.3-39.4-4.2c-8.4-73.9-9.3-142.7,19.1-211.3c8.2-19.8,17.3-36,37.5-31.9
						c22.9,4.7,11.8,27.2,10.8,41.4C972.5,1166.6,971.5,1235.5,949.7,1304.8z"/>
					<path class="st7" d="M1313.4,2093.4c2.2-0.3,3.2,2.7,3.2,5c0.7,26.4,0.7,53-3.1,79.1c-1.6,10.8-6.2,23.9-17.1,25.2
						c-5.4,0.6-10.6-2.1-15.3-4.7c-8.7-4.8-17.9-10.1-22.6-18.9c-3-5.7-3.7-12.2-4.3-18.6c-5.6-61.2-2.2-126.3,22.3-183.5
						c8.5-19.8,19.4-42.9,42.4-33.2c21.1,8.9,5.8,31.6,3.6,48.5c-4.5,34.2-2.7,69.2-4.2,103.7h-65c0-7.8,0.2-15.6,0.8-23.4"/>
					<path class="st7" d="M1243.9,931.5c-6.8,16-29.4,12.6-31.7-4.8c-9.4-71.8-7.8-136.9,5.5-202.5c4.1-20.4,15-27.3,33.5-27.1
						c17.7,0.2,17.4,13.1,18.1,25.6C1272.9,791.5,1274.3,860,1243.9,931.5z"/>
					<path class="st7" d="M1568.6,1642.2c-7.8,24.3-41.6,21-44.8-4.4c-6.9-55.5-5.1-107.4,3.9-159.5c4.1-23.7,5.2-56.4,40.3-48.6
						c28.3,6.2,11.7,33.6,14.1,51.8C1589.2,1535.9,1585.9,1588.2,1568.6,1642.2z"/>
					<path class="st7" d="M1689.1,2555.4c-7.8,24.3-41.6,21-44.8-4.4c-6.9-55.5-5.1-107.4,3.9-159.5c4.1-23.7,5.2-56.4,40.3-48.6
						c28.3,6.2,11.7,33.6,14.1,51.8C1709.7,2449,1706.4,2501.3,1689.1,2555.4z"/>
					<path class="st7" d="M2027.2,2096.1h-38.4c-2.6-55.2,6-108.3,20.6-161.6c2.5-9,6.3-18.8,12.3-24.7
						C2023.9,1990.6,2026.1,2061.8,2027.2,2096.1z"/>
					<path class="st7" d="M1725.9,1342c-4.5,24-36.6,25.6-43.5,2.2c-17.6-59.8-7.4-119.7,7.5-180c4.5-18.1,16.2-29.6,34.3-26.6
						c20.5,3.4,13.2,22.4,13.5,35.4C1739.2,1229.3,1736.6,1285.2,1725.9,1342z"/>
					<path class="st7" d="M2545.2,879.3L2545.2,879.3c-3.3,11.5-7.6,22.9-13.2,34.2c-10.1,20.5-39,16.6-43.7-6
						c-8-38.4-4.6-74.8,3.9-110.2l38.5,38.3C2535.5,849.8,2540.4,864.3,2545.2,879.3z"/>
					<path class="st7" d="M1332,540.8c-1.2,24.9-3.4,49.7-7.3,74.5c0,0.2-0.1,0.4-0.1,0.6c-3.9,25.3-38,26.7-43.7,1.8
						c-4.3-18.9-7-37.7-8.2-56.4C1293.4,553.6,1313.2,546.8,1332,540.8z"/>
					<path class="st7" d="M777.8,1378.6c-3.5,10.1-16.6,11.9-22.3,2.9c-40.5-64-26.1-181.2,0.7-229c6-10.7,15.5-19.3,29.8-15.7
						c9.7,2.4,14,10.7,11.7,18.6c-21.3,73,5.4,150.5-19.8,223C777.8,1378.5,777.8,1378.6,777.8,1378.6z"/>
					<path class="st7" d="M1605.4,742.1c8.4,64.8,11.9,127.7-19.8,187c-5.7,10.6-20.3,10.3-25.9-0.4
						c-29.1-56.5-20.4-142.5,19.4-194.1C1587.4,724,1603.7,728.6,1605.4,742.1z"/>
					<path class="st7" d="M1934,1639.2c-9.7,22.9-41.7,19.4-47.1-4.9c-13.5-60.3-6.8-142,19.4-175.1c4.2-5.3,14-7.7,21.3-8.1
						c9.2-0.4,13.1,7.5,13.4,16.7C1942.8,1525.5,1956.8,1585.4,1934,1639.2z"/>
					<path class="st7" d="M961.1,1661.1c-10.4,24.4-44.7,19.5-48.9-6.8c-9.7-60.6-1.3-139.2,23.5-167.8c11.2-13,34.1-20.7,33.9,3.4
						C969.2,1546.7,983.8,1607.8,961.1,1661.1z"/>
					<path class="st7" d="M2222.6,824.7c-1.8,13.6-4.6,27-9,40.2c-8.8,26.9-45.8,23.6-50.3-4.4c0-0.2-0.1-0.4-0.1-0.6
						c0-0.1,0-0.2-0.1-0.3C2182.3,849.5,2202.2,837.9,2222.6,824.7z"/>
					<path class="st7" d="M1422.2,970.6c-11.2,21.1-41.5,15.2-44.9-8.7c-6.5-45.7-2.3-90.2,2.7-134.4c2.5-22.8,22.8-28.8,41.2-27.7
						c19.8,1.2,18.3,20.6,16.8,33.9C1433.2,878.3,1444.8,927.9,1422.2,970.6z"/>
					<path class="st7" d="M2376.3,863.1c-1.2,52.2,8.7,91.1-20.3,121.7c-1,1.1-2.1,2.2-3.2,3.2c-11.4,10.7-29.8,6.6-35.2-8.4
						c-0.6-1.8-1-3.5-1.1-5.3c-1.1-43.5-0.4-87.1,2.3-130.4c1.6-24.3,13.4-46.2,40.4-44.2c33.4,2.5,15.3,30.6,17.4,48
						C2378,857.8,2376.1,868.4,2376.3,863.1z"/>
					<path class="st7" d="M2208.9,1258.8c-5.4,16.5-28,15.2-31.9-1.7c-12.9-56.2-10.5-107.9,0.6-159.9c3.3-15.7,5.9-34.3,28.6-31.6
						c24.2,2.9,25.8,20.3,24.5,40.7C2227.5,1156.7,2225.8,1207.4,2208.9,1258.8z"/>
					<path class="st7" d="M1343,1281c-5.2,15.3-26.4,14.2-30-1.6c-12.8-55.8-13-108.4-5.8-162.5c4.4-33.3,24-27.7,42.9-26.5
						c28.8,1.8,15.2,22.8,12.9,36.8C1354.7,1176.9,1360.6,1229.7,1343,1281z"/>
					<path class="st7" d="M1907.6,1969.2c-4.9,16.2-27.2,14.4-29.7-2.3c-7.5-51.5-14.2-102.9,0.8-155.2
						c4.7-16.4,12.4-29.6,33.2-28.3c17.4,1,19.3,11.9,17.9,24.8C1923.8,1861.9,1923.4,1916.9,1907.6,1969.2z"/>
					<path class="st7" d="M1551.9,1253.1c-5.5,20.6-34,18.5-36.8-2.7c-6.8-51.8-9.1-98.6,5.7-146.4c5.9-19,11.7-29.7,31-29.2
						c27.8,0.7,17.2,23.1,17.3,36.9C1569.5,1158.6,1564.9,1204.4,1551.9,1253.1z"/>
					<path class="st7" d="M1610.2,1926.6c-4.7,24.6-38.5,23.8-42.3-0.9c-6.8-45.7-4.6-91.4,4.6-137.4c3.8-18.9,8.9-43.3,38-36.1
						c28,6.9,17.9,29.6,14.2,45.3C1614.8,1839.2,1618.4,1884,1610.2,1926.6z"/>
					<path class="st7" d="M873,1035.9c-6,21.5-35.6,19.6-39.1-2.5c-6.4-41.2-11-82.3,0.9-124.3c5.1-18,9.8-31,29.8-31.8
						c27.7-1.1,18.6,20.6,19.6,35C887.3,954.7,884.1,996,873,1035.9z"/>
					<path class="st7" d="M2364.7,1215.2c1,44.4-5.9,87.2-16.7,129.4c-6.1,23.6-38.7,22-42.4-2.1c-7-45.5-0.7-90.8,18.2-135.9
						c2.5-6.1,7.5-10.8,13.6-12.6c0.1,0,0.3-0.1,0.4-0.1C2351.2,1190,2364.4,1200.8,2364.7,1215.2z"/>
					<path class="st7" d="M2097.4,1500.4c-7-43.8-5.9-87.2-0.9-130.6c2.8-24.3,35.3-27.5,42.3-4.1c13.1,44,12.9,89.7,0.3,137.2
						c-1.7,6.4-6,11.8-11.8,14.5c-0.1,0.1-0.2,0.1-0.4,0.2C2114.2,1523.4,2099.6,1514.7,2097.4,1500.4z"/>
					<path class="st7" d="M1499,626.7c3,37.8-0.8,74.8-8,111.4c-4,20.5-32,20.8-36.3,0.4c-8.2-38.5-4.9-77.5,9-117.1
						c1.9-5.3,5.9-9.6,11-11.5c0.1,0,0.2-0.1,0.3-0.1C1486.2,605.9,1498,614.4,1499,626.7z"/>
					<path class="st7" d="M1101.9,1574.7c-5.7,24.6-39.9,22.4-42.8-2.8c-4.3-36.2-6.6-72.3,3-108.5c4.8-18.2,9.8-41.1,31.3-39.5
						c27.9,2,14.7,28.5,15.7,44.2C1111.2,1504.5,1109.9,1540.3,1101.9,1574.7z"/>
					<path class="st7" d="M978.7,719.3c-1.7,27.6-0.1,55.8-2.2,84.6c-2.4,32.6-48,31.8-49.4-0.9c-0.6-14.9-0.2-29.7,0.6-44.4
						C944.7,744.8,961.7,731.7,978.7,719.3z"/>
					<path class="st7" d="M2509.9,1106.5c0,0.8,0,1.6,0,2.4c-13.3,38.1-29.5,78.4-49.4,119.3c-0.7-1.9-1.2-4-1.4-6.3
						c-3.9-39.8-2.3-79.9,6-120.1c2.5-12.1,6.4-28.5,26.3-27C2513.6,1076.3,2509.7,1093.4,2509.9,1106.5z"/>
					<path class="st7" d="M792.2,1738.8c-18-3.9-35-8.1-50.9-12.6c1.2-17.5,3.5-35.1,7.2-52.7c2.5-12.1,6.4-28.5,26.3-27
						c22.1,1.6,18.2,18.7,18.4,31.7C793.6,1698.5,793.5,1718.7,792.2,1738.8z"/>
					<path class="st7" d="M1284.7,1584c-5.8,20.7-34.3,19.5-38.3-1.7c-9.1-48.5,1.1-96.4-1-143c-0.6-13.4,10.9-21.8,24.1-22.3
						c10.8-0.4,22.4,7.6,21.9,16.8C1288.5,1482.8,1298.8,1534,1284.7,1584z"/>
					<path class="st7" d="M1382.5,2516.5c-5.8,20.7-34.3,19.5-38.3-1.7c-9.1-48.5,1.1-96.4-1-143c-0.6-13.4,10.9-21.8,24.1-22.3
						c10.8-0.4,22.4,7.6,21.9,16.8C1386.4,2415.3,1396.6,2466.6,1382.5,2516.5z"/>
					<path class="st7" d="M1765.8,938.2c-5.4,23.1-37.4,20.6-39.6-3c-4.3-45.4-0.4-89.5,4.1-133.6c1.8-17.4,8.5-32.6,30.6-29
						c22.5,3.7,14.1,22.3,14.2,34.5C1775.2,850.7,1775.9,894.6,1765.8,938.2z"/>
					<path class="st7" d="M1718.2,520.9c-0.5,29.4-2.4,58.9-9.2,88.3c-5.4,23.1-37.4,20.6-39.6-3c-3.1-32.4-2-64.2,0.6-95.8
						C1686.4,513.3,1702.5,516.8,1718.2,520.9z"/>
					<path class="st7" d="M1737.5,1996.5c-7.2,50.4-1.2,101-8.7,150.7c-1.6,10.5-4,21.3-10.4,29.8c-6.4,8.5-17.7,14.1-27.9,10.9
						c-7.3-2.3-12.8-8.8-15.5-16c-3-8-2.9-16.8-2.7-25.4c0.5-33.1,2.3-65.7,4.1-98.5c1.4-24.9,3.8-56.2,19.8-76.7
						c7.6-9.8,16.6-13.1,27-10.2C1739.2,1965.6,1739.4,1982.7,1737.5,1996.5z"/>
					<path class="st7" d="M1399.6,1712.1c-4.8,21.3-33.4,21.9-39.1,0.9c-11.7-43-2.9-88.1,7.1-133.8c4.5-20.8,14.4-28.9,32.4-26.9
						c22.7,2.5,13.1,22.5,12.7,34C1411.2,1628.7,1408.8,1671.1,1399.6,1712.1z"/>
					<path class="st7" d="M1086.5,974.6c-4.1,22.4-34.1,24.3-40.6,2.5c-15.1-50.5-0.1-99.9,15-149.6c3.7-12.2,10.8-16,21.7-16.5
						c13.4-0.7,18.8,8.5,16.8,19.5C1090.9,877.1,1095.3,926.1,1086.5,974.6z"/>
					<path class="st7" d="M2023.3,996.2c-3.5,16.9-26.5,16.7-30-0.2c-10.5-51.3-10.4-101.2,2.6-151.8c4-15.7,7-35.5,28.7-32.7
						c25.4,3.3,15.6,25.1,14.4,39.3C2034.8,898.8,2033.5,947.2,2023.3,996.2z"/>
					<path class="st7" d="M2086.2,1261.2c-2.5,30.2-44.7,30.6-47.7,0.4c-3.9-39.9,4.1-78.6,10.9-117.4c2.9-16.4,11.9-20.1,25.1-18.8
						c9.8,0.9,25.9,3.9,21.4,14.8C2080.3,1177.5,2089.7,1219.6,2086.2,1261.2z"/>
					<path class="st7" d="M1841.6,568.5c-1,5.2-2.2,10.4-3.7,15.7c-4.9,18.1-29.8,17-33.4-1.4c-2.2-11.5-3.8-22.9-4.7-34.2
						C1814.2,554.7,1828.2,561.4,1841.6,568.5z"/>
					<path class="st7" d="M1455.6,1817.2c9.5,2.7,26-0.8,20.3,14.6c-18.4,50.1,0.5,103.9-16.1,153.8c-3.2,9.7-3.4,20.7-15.9,22.7
						c-12.2,2-20.3-5.8-21.5-16.2c-6.1-53.9-7.5-107.8,5.5-161.1C1432.3,1813.1,1446.3,1820.2,1455.6,1817.2z"/>
					<path class="st7" d="M1908.3,856.5c-6.4,16.1-28.7,14.4-32.8-2.5c-12.5-50.5-4-100.2-1.7-149.2c0.7-14.2,12.7-20,25.9-20.4
						c11.9-0.3,19.7,6.4,19,18.4C1915.4,753,1928.3,806.2,1908.3,856.5z"/>
					<path class="st7" d="M1721.5,1641.7c1.5-27,0-54.8,5.8-80.8c3.6-16.3,14.7-33.9,37.9-31.1c25,3,19.8,22.8,18.9,37.8
						c-2.5,43.3,9,87.5-7.8,129.9c-7.1,18-16.7,40.1-34.3,38.9c-21.9-1.5-18.3-27-19.1-44.8c-0.7-16.6-0.1-33.3-0.1-49.9
						C1722.3,1641.7,1721.9,1641.7,1721.5,1641.7z"/>
					<path class="st7" d="M1131.4,1307.4c-3.9,14.3-23.4,13.6-26.5-0.9c-10.2-47.5-7.6-95-0.1-142.6c2.8-17.5,6.6-41.6,31.2-37.6
						c24.3,3.9,11.6,27,12.2,41.1C1150.1,1215.2,1144.1,1261.6,1131.4,1307.4z"/>
				</g>
				<g>
					<path class="st4" d="M1296.9,1793.6c-1.3-11.3-5.7-21.8-10.1-32c-4.8-11-9.9-21.9-15.3-32.5c-10.4-20.6-21.9-40.5-34.4-59.7
						c-14.3-21.8-29.8-42.7-46.5-62.4c-3.2-3.8-104.9,100.8-113.4,164.4c-0.2,1.6-0.4,3.6-0.7,5.9c-3,28.7-8.6,110.1-13.8,157.5
						c-2.8,25.5-6.2,51-8.4,76.6c-0.5,6.2-1.3,13.9,1.2,19.5c0.7,1.5,1.6,2.9,2.9,4c12.1,10.8,26.9-8.2,28.2-9.3
						c0.5,12.8,5.8,24.6,13.5,24.2c13.4-0.8,16-16.1,18.7-27.2c0.7-3,1.4-6,2.1-9c0.3,2.5,0.8,5,1.7,7.3
						c4.5,12.5,16.7,23.2,29.4,16.1c12.2-6.8,15.4-24.9,18.1-39c0.3,2.5,5.5,29.5,19.3,28.7c33.8-2,48.5-119.4,51.5-147.5
						c1.6-15.2,2.5-30.5,2.6-45.9c8.3,4.2,17.3,6.3,27.1,4.4C1290.1,1833.5,1299.1,1813.1,1296.9,1793.6z"/>
					<path class="st5" d="M1147.2,1707.6c-29.1,14.9-51.8,40.8-63.2,72.6c-3.1,8.7,9.7,14.1,12.8,5.4c10.2-28.1,30-51.4,55.8-64.6
						C1160.6,1716.8,1155.2,1703.5,1147.2,1707.6z"/>
					<path class="st5" d="M1088.3,1934c-2.3,21.2-4.6,42.4-7,63.6c-1,9.2,12.8,9.6,13.8,0.4c2.3-21.2,4.6-42.4,7-63.6
						C1103.1,1925.2,1089.3,1924.8,1088.3,1934z"/>
					<path class="st5" d="M1126.7,1935c-4.2,19.1-6.3,38.6-6.1,58.2c0.1,9.3,13.9,9.8,13.8,0.4c-0.2-18.4,1.6-36.5,5.5-54.5
						C1141.9,1930.2,1128.7,1925.9,1126.7,1935z"/>
					<path class="st5" d="M1166,1929.6c-0.5,15.9-0.9,31.8-1.4,47.7c-0.3,9.3,13.5,9.8,13.8,0.4c0.5-15.9,0.9-31.8,1.4-47.7
						C1180.1,1920.8,1166.3,1920.3,1166,1929.6z"/>
				</g>
				<g>
					<path class="st5" d="M1703.8,305c-5.9-22.4-20.5-36.4-37.9-48.1c-10.1-6.8-21.8-11.7-30.9-20.2c-14.4-13.6-13.5-30.1-18.2-48.6
						c-9.1-36-41.8-49.3-68.4-36.7c-22.7-55.3-86-76.2-127.8-33.5c-11.8,12-15.6,25.9-23.2,40.9c-15.3,30-31.1,32.6-59,40.7
						c-22.8,6.6-40.7,18.1-47.3,44.7c-5.5,22.4-1.7,41.5-14.9,61.8c-8.4,13-19.5,23.5-27.8,36.6c-14.4,22.5-19.4,49.1-7.9,75.3
						c35.1,79.7,126.9,40.6,188.4,51.7c0.8,0.8,1.7,1.5,2.7,2.1c1.4,0.8,3,1.3,4.8,1.5c38.1,4.5,76.5-0.6,113.6-11.3
						c28.3-8.2,55.9-19.6,82-32.5C1674.7,408.2,1719.3,363.7,1703.8,305z"/>
					<path class="st8" d="M1546.9,358.9l5.2,167.6c-20,30.2-73.9,28.6-107.2,24.3c-15.2-2-25.5-17.2-22.5-32.9
						c4.7-24.2,11.7-59.3,17.2-84.9c1-4.9,2-9.4,2.9-13.5c2.3-10.5,4.1-17.8,5-19.4L1546.9,358.9z"/>
					<g>
						<path class="st8" d="M1580.3,258.4c-50.6-92.5-192-39.8-181.4,64c-1.3,0.3-2.5,0.7-3.8,1.2c-14,5.3-26.2,17.8-29.1,33.5
							c-3.3,17.9,5.9,35.2,21.2,43.4c17.3,9.3,36.2,4.3,53-3.4c17.4,13.6,38.7,21.5,61.3,21c48.9-1.1,98.4-43.5,98.7-94.8
							C1600.3,283.3,1584.7,266.6,1580.3,258.4z"/>
						<path class="st5" d="M1529,309.1c-6.8-9.6-11.4-20.3-13.3-32.1c-1.4-8.6-14.4-7.9-13,0.7c2.3,14.2,7.3,27.3,15.5,38.9
							C1523.2,323.8,1534.1,316.2,1529,309.1z"/>
						<path class="st5" d="M1475,287.6c-11.1-0.1-12.6,18.1-1.4,18.1C1484.7,305.8,1486.2,287.7,1475,287.6z"/>
						<path class="st5" d="M1548,281.8c-4.4-0.2-9.3,3.2-9.4,8.3l0,1.1c0,4.7,3,9.6,7.9,9.8c4.4,0.2,9.3-3.2,9.4-8.3l0-1.1
							C1555.9,286.9,1552.9,282,1548,281.8z"/>
						<path class="st5" d="M1472.9,272.1c-0.9-3.9-4-5.8-7.6-5.4c-5.8,0.6-11,4.1-14.2,9.1c-2,3-1.2,7.4,1.7,9.5
							c2.9,2.1,7.1,1.3,9.1-1.8c0.2-0.3,0.4-0.6,0.7-1c0.1-0.1,0.1-0.1,0.3-0.3c0.3-0.3,0.6-0.6,1-0.9c-0.5,0.3-0.5,0.3,0.2-0.1
							c0.2-0.1,1.5-0.6,1.6-0.8c0.7-0.2,1.4-0.3,2.2-0.4C1471.1,279.7,1473.6,275.4,1472.9,272.1z"/>
						<path class="st5" d="M1561.5,268.5c-4.4-5.6-11.2-9.2-18.2-9c-3.5,0.1-6.7,2.3-7,6.2c-0.3,3.4,2.4,7.4,5.9,7.4
							c3.9-0.1,7,1.2,9.5,4.4C1556.9,284.3,1566.8,275.3,1561.5,268.5z"/>
						<path class="st5" d="M1410.9,341.4c-8.4-1.4-17.1,2.2-21.7,9.9c-4.6,7.7-4,17.3,0.7,24.7c4.6,7.3,15.2-0.7,10.5-8
							c-4.1-6.5,1.1-14.3,8.3-13.1C1417.1,356.2,1419.2,342.8,1410.9,341.4z"/>
						<path class="st5" d="M1547.3,342.7c-12.9,21.7-39.9,24.1-55.7,4.1c-4.5-5.7-13.1,1.6-8.5,7.3c20.1,25.4,56.5,23.5,73.3-4.8
							C1560.1,343.1,1551.1,336.4,1547.3,342.7z"/>
					</g>
					<path class="st5" d="M1578.4,393.2c-19.1,9.8-39,15.5-60.2,17.3c-8.4,0.7-6.6,14.3,1.8,13.6c22.3-1.8,43.4-7.9,63.4-18.2
						C1590.9,402,1585.9,389.3,1578.4,393.2z"/>
					<path class="st5" d="M1592.9,233.4c-5.9,0.3-12.6,0.5-19.4,0.3c3.7-2.7,1.2-10.4-4.3-9.4c-0.9,0.2-1.8,0.2-2.6,0.3
						c-4.1-2.7-8.4-4.5-13-5.5c-0.6-1.3-1.4-2.4-2.4-3.5c-5.6-5.8-12.8-10.1-20.1-13.3c0.1-2.1-0.9-4.1-3.6-4.6c-1-0.2-2-0.4-3-0.6
						c-2.4-0.5-4.8,0.6-5.9,2.6c0-4.3-0.7-8.7-2.4-13c-2.3-5.8-9.9-2.1-9.3,3.4c-58.4,11.3-108,60.3-121.9,120.8
						c-4.2,0.5-7,7-2.3,9.6c11.5,6.5,24-0.4,30.9-10.9c8.5-12.8,6.8-30.5,17.2-42.2c20-22.4,54.8-17.4,75.4-39.2
						c3.2-3.4,5.9-7.2,8-11.3c5.8,9.4,14.5,16.4,24.7,21c16.8,7.5,35.7,6.8,53.6,6.1C1599,243.7,1599.4,233.2,1592.9,233.4z"/>
				</g>
				<path class="st8" d="M1497.4,562.8c-67.6,8-124.3-3.3-126.7-25.2c-0.3-3,0.4-6,2-8.9c17.6-4.9,34-9.1,48.9-12.6
					c60.3-14.1,97.4-17.3,97.4-17.3c16.6-0.2,32.8,0,48.6,0.6c15.6,0.6,30.8,1.7,45.7,3.1c1.3,1.9,2,4,2.2,6.2
					C1617.9,530.5,1565,554.8,1497.4,562.8z"/>
				<path class="st5" d="M1152.4,1462.9c-44.7-51.9-106.2-87.4-171.9-99.7c-14.1-2.6-28.3-4.2-42.5-4.8
					c79.5-61.1,141.9-145.1,179.5-240.6c11.2-28.4,20-57.7,26.5-87.6c1.6-7.4-9.2-10.8-10.8-3.4c-22.6,104.5-74.9,201.1-148.6,275.4
					c-20.8,20.9-43.1,40.1-66.9,57.1c-5.8,4.2-0.9,14.4,5,10.6c0.5,0.1,1,0.2,1.6,0.2c64.4-0.7,127.9,21.5,179.4,61.9
					c14.7,11.6,28.3,24.7,40.6,39C1148.9,1476.6,1157.2,1468.6,1152.4,1462.9z"/>
				<path class="st5" d="M1983.2,956.4c-11.7-31-30.6-58.4-50.3-84.3c-25.3-33.3-51.5-65.8-77.3-98.6c-4.6-5.9-12.9,2.1-8.3,8
					c22.1,28.2,44.4,56.2,66.4,84.5c19.1,24.5,38,49.5,51.7,77.8c12.7,26.2,19.8,54.5,18.7,84c-1,26.3-7.8,52.3-19.6,75.5
					c-13.6,26.7-33.6,49.6-58.5,65.1c-6.2,3.9-1,14.3,5.2,10.5c46.4-28.8,76.7-80.8,83.1-136.5
					C1997.7,1013,1993.5,983.8,1983.2,956.4z"/>
				<path class="st5" d="M1485.4,1278.3c-68.8,44.5-157.1,43.8-224.9-2.6c-18-12.3-33.9-27.4-47.6-44.8c-4.6-5.9-12.9,2.1-8.3,8
					c52.7,67.1,138.8,97.9,219.6,78.3c23.4-5.7,45.9-15.3,66.3-28.5C1496.8,1284.8,1491.6,1274.3,1485.4,1278.3z"/>
				<path class="st5" d="M2145.7,974.2c-17.9-18.7-28.2-43.9-28.5-70.5c-0.1-7.6-11.4-8-11.3-0.3c0,0.7,0,1.3,0.1,2c0,0,0,0.1,0,0.1
					c-10.7,28-14,58.2-10.2,88c1,7.5,11.9,4.8,11-2.7c-2.5-19.8-1.4-39.7,3-58.9c4.9,18.8,14.3,36.3,27.7,50.3
					C2142.6,987.5,2150.9,979.5,2145.7,974.2z"/>
				<path class="st5" d="M1816.1,702.5c-29.2-38-50.3-82.3-61.8-129.6c-1.8-7.4-12.8-4.7-11,2.7c12,49.3,34,95.3,64.5,134.9
					C1812.3,716.5,1820.6,708.4,1816.1,702.5z"/>
				<path class="st5" d="M1987.6,1536.6c-18.4-96.7-26-195.3-22.5-293.9c0.3-7.6-11-8-11.3-0.3c-2.7,77.2,1.3,154.6,12,231.1
					c3.1,22,6.7,44,10.9,65.8C1978.1,1546.7,1989.1,1544.1,1987.6,1536.6z"/>
				<path class="st7" d="M1483.8,2154.7c-7.8,10.6-8.5,24.7-8.2,37.8c0.8,40.4,7.5,80.4,14.1,120.2c0.7,4.3,1.6,8.8,4.7,11.8
					c4.9,4.7,13.5,3.3,18.4-1.4c5-4.6,7.1-11.5,8.9-18c10.7-40.2,11.8-82.3,11.7-123.9C1533.3,2155.4,1508,2121.9,1483.8,2154.7z"/>
				<path class="st7" d="M1854.2,2231.7c1.5,48.5,6.1,97,13.9,144.9c1.1,7,2.8,14.8,8.6,18.9c4.1,2.9,9.3,3.4,14.3,3.5
					c7.4,0.2,15.7-0.4,20.7-5.8c3.6-3.9,4.8-9.5,5.7-14.7c5.6-31.4,9.3-63.1,11.1-95c1.4-24,6.5-55.4-4.4-77.9
					c-8.1-16.8-24.3-24.9-42.8-21.4C1857.5,2188.9,1853.5,2210.1,1854.2,2231.7z"/>
				<path class="st7" d="M1120.9,2476.8c-8.7-52.3-3.8-106.9,14.2-156.8c9.1-25.3,23.6-51.4,48.6-61.4c2.2-0.9,4.7-1.6,6.9-0.8
					c3.4,1.2,4.7,5.3,5.4,8.8c12.9,61.5,9.1,125.5-0.8,187.5c-0.9,5.6-1.9,11.3-4.4,16.3c-8.4,17-35.3,20.5-47.8,6.2"/>
			</g>
			<g>
				<path class="st7" d="M1993.4,238.3c-1.2-9.6-2.4-19.1-3.7-28.7c5.8,0.3,11.7,0.7,17.5,1.3c5.8,0.6,6.7-8.8,0.9-9.5
					c-6.6-0.8-13.1-1.4-19.7-1.7c-1.5-10.8-2.9-21.5-4.4-32.3c-0.8-6-9.7-4.4-8.9,1.6c1.3,10.1,2.5,20.3,3.8,30.4
					c-10.2-0.1-20.4,0.3-30.6,1.2c-6,0.6-4.4,10.2,1.6,9.7c10.1-0.9,20.2-1.2,30.3-1.1c1.3,10.2,2.7,20.4,4.1,30.6
					C1985.2,246.1,1994.2,244.5,1993.4,238.3z"/>
				<path class="st7" d="M2021.5,336.6c-3.1-6.3-5.5-12.8-7.1-19.5c6.1-0.2,12.1,0,18.3,0.7c5.8,0.7,6.7-8.7,0.9-9.4
					c-7.1-0.9-14.1-1.1-21.1-0.8c-0.7-5-1.1-10.1-1-15.4c0.1-6.2-9-7.2-9.2-1c-0.1,5.8,0.2,11.4,0.9,17c-5.7,0.7-11.4,1.7-17.1,3.2
					c-5.7,1.5-4.3,10.9,1.5,9.5c5.8-1.4,11.5-2.5,17.2-3.1c1.8,7.8,4.5,15.5,8.2,22.8C2015.9,346.1,2024.2,342.2,2021.5,336.6z"/>
				<path class="st7" d="M1920.5,315.9c-1.3-7.9-2.7-15.8-4.2-23.8c5.2-0.4,10.4-0.7,15.6-1.1c5.8-0.4,4.2-9.7-1.5-9.3
					c-5.3,0.3-10.5,0.7-15.8,1c-1.1-6-2.3-12-3.5-18c-1.2-5.9-9.8-4.4-8.8,1.6c0.9,5.7,1.9,11.3,2.9,17c-9.6,0.6-19.2,1.2-28.9,2
					c-5.9,0.5-4.3,9.8,1.5,9.5c9.7-0.5,19.3-1.2,29-1.9c1.5,8.3,3,16.5,4.6,24.7C1912.6,323.6,1921.5,322,1920.5,315.9z"/>
			</g>
			<path class="st7" d="M942.3,472.9c11.1,6.1,24.7,4.3,35.2-2.5c6.7,4.9,15.4,6.5,23.6,4.8c7.1-1.5,13.2-5.1,18.2-10
				c4,3.3,8.8,5.5,14.1,6c13.3,1.1,26.6-7.8,30.6-21.2c1.3-4.2-4.9-6.9-6.1-2.6c-4.6,15.5-22.5,21.3-34,12.7c2.4-3.2,4.4-6.7,6-10.4
				c3.5-8.2,10-30.2-5-30.2c-12,0-17.7,13.4-16.7,24.2c0.6,6.1,3,12,6.7,16.8c-2.6,2.5-5.5,4.6-8.9,6.1c-7.2,3.2-15.9,3.6-22.8-0.4
				c6-5.6,10.3-13.1,11.3-21.6c0.7-5.5-0.1-12.1-4.7-15.7c-4.6-3.6-10.7-2.5-15.2,0.7c-10.2,7.2-10.2,22.4-4.5,32.5
				c0.7,1.3,1.6,2.5,2.4,3.6c-8.5,4.7-19,5.6-27.7,0.9C941,464.4,938.6,470.9,942.3,472.9z M1018.2,453.4c-4.1-7-5.9-18.7,0.9-24.6
				c2.4-2.1,7.8-4.8,8.8,0.2c1,4.8-1.6,11.5-3.2,15.9c-1.4,3.6-3.1,7-5.3,10.1C1018.9,454.6,1018.5,454,1018.2,453.4z M973.8,441
				c1.5-3.8,5.5-8.4,9.9-7.6c5.1,1,4.5,8.4,3.7,12.4c-1.3,6.4-4.8,11.8-9.5,15.8C973.3,456.2,971.3,447.9,973.8,441z"/>
			<path class="st7" d="M821,662.2c16.9-2.4,31.4-14,38.1-30.3c9.4-2,18.1-8.7,24.7-16.8c14.3,5,29.2-1,38-13.4
				c15.2,2.4,30.5-11,30.4-28c0-4.5-6.7-4.5-6.6,0c0.1,11.2-9.3,21.6-19.9,21.5c3.6-7.7,5.6-16.7,4-25.1
				c-1.4-7.5-6.4-15.5-14.5-15.5c-10.3,0-16.2,11.9-15.5,21.5c0.7,9.2,6.1,17.8,13.7,22.5c0.6,0.3,1.1,0.7,1.7,0.9
				c-5.4,6.6-13.1,11-21.7,10.6c-1.7-0.1-3.5-0.4-5.2-0.9c1.4-2.2,2.6-4.4,3.7-6.5c3.9-8.1,5.3-17.7,0.3-25.6
				c-4.5-7-13.1-11-20.6-6.4c-7.3,4.5-9.6,14.8-7.8,22.9c1.8,7.9,7.1,14.4,13.7,18.5c-0.6,0.7-1.3,1.4-1.9,2.1
				c-3.8,4.1-8.5,7.9-13.7,9.9c1.7-7.5,1.7-15.8-1.8-22.7c-3.6-7.1-11.5-10.9-18.8-7.6c-6.8,3-11.7,10.9-11.3,18.7
				c0.4,8.7,7.1,15.4,14.5,18.3c2.5,1,4.9,1.5,7.3,1.7c-6.1,12-17.7,21-30.6,22.8C816.8,655.9,816.8,662.8,821,662.2z M908.6,565.9
				c4.4-6.8,11.1-4.4,13.6,2.4c2.2,5.8,1.4,12.5-0.3,18.3c-0.8,2.5-1.8,5-3,7.3C909.2,589.3,902.1,575.8,908.6,565.9z M870,584.5
				c1.4-6.8,7.4-11.6,13.5-6.9c5.4,4.2,6.1,11.3,4.1,17.6c-1.3,4.1-3.4,7.9-5.9,11.5C873.9,602.2,868,594.1,870,584.5z M838.4,617.9
				c-3.2-4.9-2.2-11,1.7-15.2c5-5.3,11.7-3.6,14.5,3.1c2.5,6.1,1.8,13.4-0.2,19.7C848.4,625.8,841.8,623.2,838.4,617.9z"/>
		</g>
	</g>
</g>
</svg>
