<?xml version="1.0" encoding="utf-8"?>
<!-- Generator: Adobe Illustrator 23.0.3, SVG Export Plug-In . SVG Version: 6.00 Build 0)  -->
<svg version="1.1" xmlns="http://www.w3.org/2000/svg" xmlns:xlink="http://www.w3.org/1999/xlink" x="0px" y="0px"
	 viewBox="0 0 2953 2318.5" style="enable-background:new 0 0 2953 2318.5;" xml:space="preserve">
<style type="text/css">
	.st0{display:none;}
	.st1{display:inline;}
	.st2{display:inline;opacity:0.44;}
	.st3{display:inline;opacity:0.45;}
	.st4{clip-path:url(#SVGID_2_);}
	.st5{fill:#101820;}
	.st6{clip-path:url(#SVGID_4_);}
	.st7{fill:#FF7D40;}
	.st8{fill:#2F52EF;}
	.st9{opacity:0.26;fill:#60BBC5;}
	.st10{fill:#010101;}
	.st11{fill:#2C2B3C;}
	.st12{fill:#E10000;}
	.st13{clip-path:url(#SVGID_6_);}
	.st14{fill:#DF271C;}
	.st15{fill:#60BBC5;}
	.st16{opacity:0.32;fill:#2F52EF;}
	.st17{clip-path:url(#SVGID_8_);}
	.st18{fill:#FF894A;}
</style>
<g id="Layer_2" class="st0">
	<g id="_x34_kETu0_1_" class="st3">
		
			<image style="overflow:visible;" width="1486" height="1125" id="_x34_kETu0" xlink:href="9A900E54F49DB84E.jpg"  transform="matrix(2.5793 0 0 2.5793 -527.2366 -79.7755)">
		</image>
	</g>
</g>
<g id="Layer_3">
</g>
<g id="Layer_1">
	<g>
		<defs>
			<rect id="SVGID_1_" x="15.5" y="2" width="2953" height="2318.5"/>
		</defs>
		<clipPath id="SVGID_2_">
			<use xlink:href="#SVGID_1_"  style="overflow:visible;"/>
		</clipPath>
		<g class="st4">
			<path class="st5" d="M98.5,1459.6l0.1-945.1h945.1c0,0,1813.6,1813.7,1944.1,1944.2c261,261,261,684.1,0,945.1
				c-261,261-684.1,261-945.1,0C1912.2,3273.3,98.5,1459.6,98.5,1459.6"/>
		</g>
		<g class="st4">
			<defs>
				<polygon id="SVGID_3_" points="1121.1,2482.3 2656.8,2677.3 2656.8,777.9 1835.5,131 882.8,257 22.3,1674.4 798.2,2159.4 				
					"/>
			</defs>
			<clipPath id="SVGID_4_">
				<use xlink:href="#SVGID_3_"  style="overflow:visible;"/>
			</clipPath>
			<g class="st6">
				<path class="st7" d="M888.1,1142.9c0,0,204.7-425.8,774.9-425.8c509.1,0,602.7,225,705.6,385.1
					c267.1,415.5-1422.6,217.7-1428.3,204C934.7,1292.5,888.1,1142.9,888.1,1142.9z"/>
				<path class="st8" d="M651.1,1797.8l66.3-18l12-3.3l317.9-86.6c0,0-29.7,112.7-69,262.2c-1.1,4.2-2.2,8.4-3.3,12.6
					c-5.3,20.2-10.8,41.1-16.4,62.3c-11.4,43.4-23.3,88.6-35.2,134c-1.1,4-2.1,8-3.2,12.1c-14.7,55.9-29.4,112.1-43.5,165.7H2475
					c-15.2-56-33.4-122-52.6-189.4c-1.1-4-2.3-8-3.4-12c-9.7-33.9-19.6-68.1-29.6-101.4c-12-40.2-23.9-79.2-35.3-114.9
					c-1.3-3.9-2.5-7.8-3.8-11.7c-20.6-63.7-39.4-116.1-53.9-145.8c0,0,165.6-17.6,255-21.8c4.1-0.2,8.1-0.4,11.9-0.5
					c20.7-0.7,35.8-0.5,41.4,1.1c2.2,0.7,3.9-2,4.8-7.5c4.6-25.7-4.5-113.6-27.8-216.8c-0.9-4-1.8-8.1-2.8-12.2
					c-16.6-70.9-39.9-148-69.9-216.8c-1.7-4-3.5-7.9-5.3-11.8c-9.3-20.3-19.1-39.8-29.6-58c-6.7-11.6-13.6-22.6-20.7-33.1
					c-25.1-36.8-53.4-66.3-84.8-84c0,0-20.8,8.5-54.3,16.9c-3.7,0.9-7.6,1.9-11.7,2.8c-34.5,7.9-79.6,14.7-128.5,13.3
					c-4-0.1-8-0.3-12-0.5c-13.4-0.8-27.1-2.2-40.8-4.5c-14.3-2.3-28.8-5.6-43.1-9.8c-8.6-2.6-17.2-5.5-25.7-8.8
					c-11.5-4.5-22.9-9.7-34.1-15.8c-14.8-8-29.3-17.5-43.3-28.7c-3.9-3.1-7.7-6.3-11.5-9.6c-28.3-24.9-54.2-57.1-76-98.3
					c-1.9-3.6-3.8-7.3-5.7-11c-10.6-21.5-20.1-45.2-28.4-71.5c14.3-48.1,5.8-101.9-21.8-143.7c5-1,10-2.5,14.8-4.3
					c5.1-2,10.1-4.5,14.8-7.5c12.2-7.9,24.7-24.8,11.3-37.9c-10.2-9.9-26.9-6.9-38.6-1.7c-6.7,3-12.6,7.2-17.5,12.4
					c-1.9-5.3-4.6-10.2-8.1-14.6c-7.8-9.6-23-14.6-31.8-3.6c-7.6,9.5-6,24.9-0.2,34.9c2.7,4.7,6.4,8.5,10.6,11.5
					c5.1,3.6,11.2,5.9,17.5,6.5c30.4,35.1,42.7,83.4,34.1,128.6l-54.9,0.9l-12,0.2l-118.4,2l-12.1,0.2l-171.7,2.9l-12,0.2l-59.4,1
					c1.6-46,23-90.1,58.9-119.6c14.6-1.3,28.3-6.2,40-15.1c0.6-0.4,1.2-0.9,1.8-1.4c11-8.9,20.7-25,11.9-38.6
					c-8.8-13.5-27-12-38.7-3.6c-6,4.2-11,9.8-15,15.9c-3.3-5.9-7.5-11.4-12.3-16.2c-11.2-11.1-30.2-23.5-46-14.6
					c-7.7,4.3-11.8,12.6-10.2,21.3c1.7,9.2,8.7,16.7,15.3,22.9c9.9,9.1,21.4,16.2,33.9,20.8c-2.3,2.1-4.6,4.3-6.8,6.5
					c-35.2,35.6-54.8,86.3-51.7,136.4c-7.2,17.1-16.3,47.5-32.9,82.1c-1.9,3.9-3.9,7.9-6,12c-13,25.2-30.1,52-53.2,77
					c-3.8,4.1-7.7,8.1-11.8,12c-26.4,25.6-59.7,48.6-102.4,65.2c-13.2,5.1-27.3,9.7-42.3,13.5c-4.3,1.1-8.6,2.1-13,3.1
					c-2.6,0.6-5.2,1.1-7.8,1.6c-37.6,7.4-80.8,10.5-130.3,7.8c-4.1-0.2-8.2-0.5-12.3-0.8c-24.8-1.8-51.1-5.1-79.1-9.9
					c0,0-13.7,20.7-34.6,55.2c-2.2,3.7-4.5,7.5-6.9,11.5c-12.5,20.9-27,45.8-42.5,73.6c-9.1,16.3-18.5,33.7-28,51.8
					c-7.3,14-14.7,28.5-22.1,43.3c-2.1,4.2-4.2,8.5-6.3,12.8c-23.6,48.5-46.4,100.1-64.7,151.1c-1.5,4.1-2.9,8.1-4.3,12.2
					c-29.6,85.8-45.7,169-31.1,231C648.7,1789.6,649.8,1793.8,651.1,1797.8z M1801.9,711c-3.6-1.1-6.9-3.1-9.5-6.3
					c-2.8-3.5-7-13.7-3.3-17.9c1-1.1,1.8-0.5,3.6,0.8c2.4,1.7,4.1,4.3,5.5,6.9c2.8,5.1,4.2,10.4,4.5,16
					C1802.4,710.6,1802.2,710.8,1801.9,711z M1820.2,717.6c0.1-0.2,0.2-0.4,0.3-0.6c3.5-7.9,9.9-14.6,17.4-18.8
					c5.2-2.8,16.3-7.7,22.1-3.6c6.7,4.8-10.5,14.1-13.7,15.7c-8.1,4.1-16.9,6.6-25.9,7.4C1820.2,717.7,1820.2,717.6,1820.2,717.6z
					 M1477.5,703.5c3.8-3.7,14.5-11.5,19.1-4.4c4.4,6.7-7.7,16.3-12.2,19.3c-5.7,3.9-12.2,6.8-19,8.4c-0.1-0.9-0.3-1.7-0.4-2.6
					C1467.5,716.5,1471.5,709.3,1477.5,703.5z M1421.7,709.1c-3.9-2.9-25.3-21-12.8-23.6c10.2-2.1,22.4,10.2,28.1,17.2
					c4.7,5.8,8,12.3,10.2,19.3C1438,719.1,1429.5,714.9,1421.7,709.1z"/>
				<path class="st9" d="M719.9,1672.1c-0.1,2.4-0.3,4.9-0.4,7.4c-1.8,33.4-2.5,66.9-2.1,100.3l12-3.3c-0.3-39.5,0.8-78.9,3.5-118.3
					c2.4-35.4,5.9-70.7,10.6-105.8c0.1-0.7,0.2-1.4,0.3-2.1c43-2.7,86.1-5.4,129.1-8.1c7.8-0.5,15.7-1,23.5-1.4
					c-2.2,41.1-2.8,82.3-1.7,123.4c0.2,7.7,12.2,8.1,12,0.3c-1.1-41.5-0.5-83.1,1.8-124.5c48.4-3,96.8-5.8,145.1-8.6
					c-3.8,39.4-6.7,78.9-8.9,118.3c-0.4,7.7,11.6,8.1,12,0.4c2.2-39.9,5.2-79.7,9-119.4c27.4-1.6,54.8-3.1,82.2-4.6
					c12.3-0.7,24.7-1.3,37-2c21.2-1.1,42.4-2.2,63.7-3.3c-1.1,6.6-2.2,13.3-3.4,19.9c-3.5,19.8-7.3,39.6-11.2,59.4
					c-0.8,3.9-1.6,7.8-2.4,11.7c-7.7,37.3-16.1,74.5-24.9,111.5c-30.5,0.1-61.1,0.2-91.6,0.3c-7.7,0-8.1,12-0.4,12
					c29.7-0.1,59.4-0.2,89.1-0.3c-3.3,13.8-6.6,27.5-10,41.3c-8,32.6-16.2,65.2-24.3,97.8c-4.6,18.7-9.3,37.4-13.9,56
					c-28.5,2.7-56.9,5.8-85.3,9.2c-30.7,3.7-61.3,7.8-91.9,12.5c-1.1,4.2-2.2,8.4-3.3,12.6c27.1-4.2,54.2-7.9,81.4-11.4
					c32-4,64-7.5,96-10.6c-17.7,71.4-35.5,142.8-53.2,214.2c-58.6,1.3-117.2,2.7-175.8,4.1c-1.1,4-2.1,8-3.2,12.1
					c58.7-1.4,117.3-2.8,176-4.2c-3.7,14.8-7.4,29.6-11,44.5l-31.2,125.4h12.4l20.3-81.5l22-88.7c73.7-1.6,147.3-3.2,221-4.7
					c-7.2,53.3-14.5,106.6-21.6,159.9c-0.7,5-1.3,9.9-2,14.9h12.1c7.8-58.3,15.7-116.7,23.5-175.1c69.8-1.4,139.5-2.7,209.3-3.9
					c-5.9,42.7-12.6,85.3-19.2,127.9c-2.6,17-5.2,34-7.7,51h12.1c0.5-3.6,1-7.2,1.6-10.8c8.4-56.2,17.1-112.2,24.6-168.3
					c75.6-1.3,151.3-2.5,226.9-3.6c2.1,34.4,4.1,68.8,6.1,103.3c1.5,26.5,3.1,52.9,4.6,79.4h11.9c-3.5-60.9-7.1-121.9-10.6-182.9
					c69.2-1,138.5-1.9,207.7-2.7c2.6,30.3,4.4,60.6,5.1,91c0.7,31.5,0.5,63.1,0,94.6h11.9c0.3-19.2,0.5-38.4,0.5-57.5
					c-0.1-42.9-2.6-85.6-6.3-128.2c63.1-0.7,126.3-1.4,189.4-2c2.9,37.9,6.8,75.6,12.3,113.2c3.6,24.8,7.8,49.6,12.1,74.4h12.1
					c-2-11.4-3.9-22.7-5.8-34.1c-8.4-51-15-102.1-18.9-153.7c13.6-0.1,27.2-0.3,40.8-0.4c53.4-0.5,106.8-0.9,160.2-1.2
					c-1.1-4-2.3-8-3.4-12c-66.1,0.5-132.3,1-198.4,1.6c-3.5-49.2-5.4-98.6-7.7-147.9c-0.7-15.9-1.4-31.8-2.2-47.7
					c-0.5-11.6-1-23.2-1.6-34.7c1.6,0.2,3.2,0.3,4.8,0.5c46.7,4.7,93.2,13.6,140.2,12c7.2-0.3,14.5-0.8,21.7-1.6
					c7.7-0.9,4.9-12.6-2.7-11.7c-7.6,0.9-15.2,1.4-22.8,1.6c-41.6,1.2-83.1-6.3-124.4-11c-5.8-0.7-11.6-1.2-17.4-1.8
					c-3.2-71.1-6.4-142.2-9.6-213.4c8.5,1.1,17,2.3,25.5,3.7c7.5,1.3,11.1-10.2,3.4-11.5c-9.8-1.7-19.7-3.1-29.5-4.3
					c-2.6-56.6-5.1-113.2-7.7-169.8c43.2,0.9,86.3,2,129.5,3.5c9.8,0.3,19.5,0.7,29.3,1c4.3,0.2,8.5,0.3,12.8,0.5
					c1.5,7.5,3.1,15,4.8,22.5c1.5,6.9,3.2,13.8,4.9,20.7c12.4,50.1,27.5,99.5,42.6,148.8c2.3,7.4,14,4.7,11.7-2.7
					c-16.1-52.7-31.8-105.4-44.6-158.8c-2.4-10-4.7-19.9-6.8-29.9c49.1,2,98.2,4.4,147.2,7.3c7,43.3,13.2,86.7,18.7,130.3
					c0.2,1.8,0.4,3.5,0.6,5.2c3.8,30.6,7.2,61.3,10.2,92c4.1-0.2,8.1-0.4,11.9-0.5c-2.6-26-5.4-52.1-8.5-78
					c-5.6-47-12.1-94-19.5-140.8c-0.4-2.5-0.8-5-1.2-7.4c15.9,1,31.7,2,47.6,3c-0.9-4-1.8-8.1-2.8-12.2c-15.6-1-31.2-2-46.8-3
					c-11.7-71.3-25.5-142.2-41.3-212.7c6.1-0.4,12.1-0.7,18.2-1.1c-1.7-4-3.5-7.9-5.3-11.8c-5.2,0.3-10.4,0.6-15.6,0.9
					c-2.6-11.5-5.3-23-8.1-34.4c-1.9-8.2-3.9-16.3-5.9-24.5c-6.7-11.6-13.6-22.6-20.7-33.1c7.9,30.8,15.4,61.7,22.5,92.8
					c-44.1,2.6-88.2,5.2-132.4,7.7c-0.5-4.6-1.1-9.2-1.6-13.8c-4-32.4-8.5-64.7-14.7-96.8c-3.7-19.2-8-38.2-13-57
					c-3.7,0.9-7.6,1.9-11.7,2.8c13.8,51.7,21.7,105,28.1,158.1c0.3,2.5,0.6,5,0.9,7.4c-5.4,0.3-10.7,0.6-16.1,0.9
					c-26.4,1.5-52.7,2.9-79.1,4.3c-18.4,1-36.7,1.8-55.1,2.6l-7.2-160c-4-0.1-8-0.3-12-0.5l2.4,52.9l4.9,108.1
					c-42.9,1.5-85.9,2.2-128.8,1c-3.5-0.1-7-0.2-10.5-0.3c-20.9-0.7-41.8-1.8-62.8-3c0-1.8,0-3.5,0.1-5.3c0.3-19,0.6-38.1,1.1-57.1
					c0.1-4.9,0.2-9.8,0.4-14.7c0.8-28.5,1.8-57,3-85.5c22.3-1.8,44.6-3.9,66.9-6.2c13.1-1.4,26.2-2.8,39.4-4.3
					c-8.6-2.6-17.2-5.5-25.7-8.8c-7.4,0.8-14.8,1.6-22.3,2.4c-19.2,2-38.5,3.7-57.7,5.2c0.8-17.4,1.7-34.7,2.6-52.1
					c-3.9-3.1-7.7-6.3-11.5-9.6c-1.2,20.9-2.2,41.7-3.2,62.6c-33.6,2.4-67.3,4-101,4.3c-20.2,0.2-40.3-0.2-60.5-0.8
					c-2-50.1-4.7-100.2-7.8-150.3c8-0.8,15.9-1.7,23.9-2.7c24.3-3.1,48.5-7.2,72.6-11.4c-1.9-3.6-3.8-7.3-5.7-11
					c-13.9,2.4-27.7,4.6-41.6,6.8c-16.6,2.6-33.3,4.6-50,6.2c-2.1-34.3-4.4-68.6-6.8-102.9l-12,0.2c2.4,34.6,4.7,69.2,6.8,103.8
					c-46.1,3.8-92.4,4.5-138.8,4c4.3-35.3,8.9-70.6,13.6-105.8l-12.1,0.2c-4.7,35.1-9.2,70.3-13.5,105.5c-5.4-0.1-10.7-0.2-16.1-0.3
					c-48.3-0.9-96.6-1.9-144.9-2.8c1.2-33.2,2.1-66.3,2.8-99.5l-12,0.2c-0.6,33.1-1.6,66.1-2.8,99.1c-24.4-0.4-48.7-0.8-73.1-1.1
					c-11.8-0.1-23.6-0.2-35.4-0.2c-1.9,3.9-3.9,7.9-6,12c5.1,0,10.3,0,15.4,0c32.9,0.1,65.7,0.6,98.5,1.2
					c-1.9,49.3-4.5,98.6-7.5,147.8c-38.7,3.1-77.3,7.3-115.7,12.7c-14.3,2-28.6,4.2-42.9,6.6c0-30.5-0.4-61-1-91.4
					c-3.8,4.1-7.7,8.1-11.8,12c0.5,27.2,0.8,54.3,0.8,81.5c-39,6.6-77.9,14.2-116.7,21.6c-11.9,2.3-23.9,4.5-35.9,6.7
					c1-4.6,2.1-9.2,3.2-13.8c1.3-5.7,2.7-11.5,4.1-17.2c-4.3,1.1-8.6,2.1-13,3.1c-0.5,2.2-1,4.4-1.5,6.6c-1.9,7.9-3.7,15.8-5.4,23.7
					c-9.6,1.7-19.3,3.4-28.9,5.1c-16.4,2.8-32.8,5.4-49.3,7.7c-21.8,3.1-43.6,5.8-65.5,7.7c4-13.9,8.2-27.7,12.6-41.4
					c-4.1-0.2-8.2-0.5-12.3-0.8c-4.6,14.4-8.9,28.8-13.1,43.3c-16.2,1.2-32.4,2.1-48.6,2.5c-17.3,0.4-34.7,0.3-52-0.5
					c-2.2,3.7-4.5,7.5-6.9,11.5c20.9,1.2,41.7,1.4,62.6,0.8c13.8-0.4,27.6-1.1,41.5-2.1c-6.8,24.5-13,49.1-18.5,73.9
					c-1.8,7.8-3.5,15.7-5.1,23.6c-3.9,18.7-7.5,37.5-10.7,56.4c-46.3,3.6-92.5,7.8-138.6,13.2c7.8-31,16.6-61.7,26.3-92.2
					c-9.1,16.3-18.5,33.7-28,51.8c-3.9,13.9-7.6,27.9-11.1,41.9c-3.7,0.4-7.3,0.9-11,1.4c-2.1,4.2-4.2,8.5-6.3,12.8
					c4.8-0.6,9.5-1.2,14.3-1.8c-11.9,49.4-21.5,99.4-28.7,149.7c-16.8,1.1-33.5,2.1-50.2,3.2c-1.5,4.1-2.9,8.1-4.3,12.2
					c17.6-1.1,35.2-2.2,52.9-3.3C726.2,1591.2,722.3,1631.6,719.9,1672.1z M1149.7,1514.1c-9.3,0.5-18.6,1-27.8,1.5
					c-3.2,0.2-6.4,0.3-9.6,0.5c-15.1,0.8-30.3,1.7-45.4,2.6c1.1-11.3,2.3-22.5,3.6-33.8c0.5-4.6,1-9.2,1.6-13.8
					c3.7-32,8-63.9,12.9-95.7c0.6-4.1,1.3-8.2,1.9-12.4c26.5-1.5,53-3,79.4-4.6c4.5-0.3,9.1-0.5,13.6-0.8c20.8-1.3,41.5-2.6,62.3-4
					c1.6-0.1,3.3-0.2,4.9-0.3c5.8-0.4,11.6-0.8,17.4-1.2c1.4-0.1,2.7-0.2,4.1-0.3c0,0.6-0.1,1.2-0.1,1.8c-4,51.9-9.9,103.7-18,155.2
					C1216.9,1510.5,1183.3,1512.3,1149.7,1514.1z M1243.3,1614.1c0.8-3.9,1.6-7.8,2.4-11.7c1.3-6.6,2.6-13.2,3.9-19.8
					c4-20.7,7.7-41.5,11-62.3c22.2-1.1,44.4-2.2,66.6-3.2c28.4-1.3,56.8-2.6,85.2-3.8c-2,18.5-4.1,37.1-6.2,55.6
					c-1,8.6-2,17.2-3,25.7c-0.5,4.3-1,8.5-1.5,12.8c-4.5,38-9,76-13.7,114c-8.6,0.2-17.2,0.3-25.8,0.5c-45.7,0.7-91.4,1.2-137.1,1.4
					c-2,0-3.9,0-5.9,0C1227.6,1687,1235.8,1650.6,1243.3,1614.1z M1774.2,1893.5c0.1,2.7,0.3,5.3,0.4,8
					c-64.2,1.8-128.5,3.4-192.7,5.3c1.4-60.1,1.7-120.1,2.5-180.2c61.8-3.2,123.5-7.5,185.1-13.5c0.4,0,0.9-0.1,1.3-0.1
					C1769.1,1773.2,1771.1,1833.4,1774.2,1893.5z M1771.2,1701.1c-62.1,6.1-124.3,10.5-186.6,13.7c0.6-42.7,1.5-85.3,3.1-127.9
					c1.1-26.8,2.3-53.5,3.7-80.3c64.5-2.1,129-3.7,193.4-4.9c-0.6,9.2-1.2,18.5-1.9,27.7c-0.9,12.7-1.9,25.5-3,38.2
					c-0.3,4.2-0.7,8.3-1,12.5C1775.8,1620.4,1772.6,1660.7,1771.2,1701.1z M1588.4,1362.6c-3.2,44.1-6,88.2-8.4,132.4
					c-51.4,1.7-102.8,3.6-154.3,5.8c5.2-48.2,10.1-96.4,14.6-144.7c0.6-6.7,1.2-13.4,1.9-20.1c50.1-6.1,99.9-14,149.8-21
					C1590.7,1330.7,1589.5,1346.6,1588.4,1362.6z M1488.1,1510.2c30.4-1.2,60.8-2.2,91.2-3.2c-0.6,12.1-1.2,24.2-1.8,36.3
					c-2.7,57.4-4,114.7-4.9,172.1c-57.5,2.8-115.2,4.6-172.7,5.8c4.9-39,9.6-78.1,14.1-117.1c0.5-4.3,1-8.7,1.5-13
					c3-26.1,6-52.1,8.8-78.2C1445.6,1511.8,1466.9,1511,1488.1,1510.2z M1572.4,1727.3c-0.9,60-1.5,119.9-2.7,179.9
					c-65,2-130,4.3-194.9,7.6c8-60.5,15.9-121.1,23.5-181.7c51.1-1.1,102.2-2.6,153.3-4.9C1558.6,1728,1565.5,1727.6,1572.4,1727.3z
					 M1171.3,1916.6c14.5-58.4,29.4-116.8,43.4-175.4c0.5-2,1-4,1.4-5.9c0.7,0,1.3,0,2,0c56.1-0.3,112.2-0.8,168.2-1.9
					c-7.5,60.7-15.4,121.4-23.4,182.1c-55.3,2.9-110.5,6.5-165.6,11.2c-9.7,0.8-19.5,1.7-29.2,2.6L1171.3,1916.6z M1331.3,2152.1
					c-26.1,0.5-52.1,1-78.2,1.6c-47.1,1-94.3,2-141.4,3.1l53.5-215.2c65.3-6.1,130.8-10.5,196.3-13.9
					C1351.5,2002.5,1341.4,2077.3,1331.3,2152.1z M1557.7,2106.6c-1.6,13.8-3.3,27.6-5.2,41.4c-69.8,1.2-139.5,2.5-209.3,3.8
					c7.2-53.4,14.3-106.9,21.5-160.3c2.9-21.5,5.7-43,8.6-64.5c28.7-1.4,57.5-2.7,86.2-3.8c36.7-1.4,73.3-2.7,110-4c0,0.5,0,1,0,1.5
					C1568.1,1982.9,1564.7,2044.9,1557.7,2106.6z M1563.8,2147.8c8-61.5,14.2-123.1,16.5-185.4c0.5-14.5,0.9-29,1.3-43.5
					c64.5-2.2,129.1-4.1,193.6-5.9c4,77.1,8.6,154.2,13.2,231.3C1713.6,2145.3,1638.7,2146.5,1563.8,2147.8z M1953.6,2142
					c-51,0.6-102.1,1.3-153.1,2.1c-4-68.5-7.9-137-11.8-205.5c-0.5-8.7-1-17.4-1.5-26.1c64.8-1.8,129.7-3.5,194.5-5.1
					c0.2,1.7,0.3,3.4,0.5,5.2c7.6,76.3,18.6,152.4,25.6,228.8C1989.7,2141.6,1971.6,2141.8,1953.6,2142z M2198.2,1933
					c0.3,6.4,0.6,12.9,0.9,19.3c2.8,62.3,5,124.7,9.5,186.9c-63.2,0.6-126.4,1.3-189.5,2c-5.7-62.7-13.9-125.2-20.6-188
					c-1.7-15.4-3.2-30.8-4.8-46.2c18.4-0.5,36.8-0.9,55.2-1.4c40-1,80-1.6,120,0.3c9.4,0.4,18.8,1,28.3,1.8
					C2197.5,1916.2,2197.8,1924.6,2198.2,1933z M2196.5,1895.8c-13.4-1-26.9-1.8-40.4-2.2c-25.8-0.9-51.6-0.9-77.4-0.5
					c-28.8,0.5-57.5,1.2-86.3,1.9c-6.7-68.8-12-137.7-16.1-206.7c2.5-0.3,5-0.6,7.5-0.9c3.2-0.4,6.5-0.7,9.7-1.1
					c64.1-7,129.1-10.9,193.4-4.3C2190.1,1753.3,2193.3,1824.5,2196.5,1895.8z M2478.7,1291.1c5.7,25.1,11.1,50.3,16.2,75.5
					c9.2,45.1,17.5,90.3,25,135.7c-49.2-2.9-98.5-5.3-147.8-7.3c-4.4-21.1-8.2-42.4-11.3-63.8c-6.4-43.9-10.8-88.1-15.9-132.2
					C2389.6,1296.5,2434.1,1293.8,2478.7,1291.1z M2188.5,1306.9c0.2,0,0.4,0,0.6,0c31.6-1.3,63.3-2.8,94.9-4.5
					c16.4-0.9,32.7-1.7,49-2.7c7.6,65.3,14.5,130.4,26.8,194.8c-22.2-0.9-44.4-1.6-66.6-2.3c-34.3-1.1-68.7-1.9-103-2.6l-6.1-135.1
					l-1.1-23.2l-1.1-24.2C2184.1,1307.1,2186.3,1307,2188.5,1306.9z M2184.7,1634c0.5,12,1.1,24.1,1.6,36.1
					c-66.6-6.6-133.5-2.5-200.2,4.8c-3.5,0.4-7,0.8-10.5,1.2c-0.4-6.5-0.7-13-1.1-19.5c-0.9-16.4-1.7-32.8-2.4-49.2
					c-0.2-4-0.3-8-0.5-12.1c-1.3-31.8-2.4-63.7-3.2-95.5c54.9-0.1,109.8,0.2,164.6,0.9c6.2,0.1,12.4,0.2,18.6,0.3
					c9,0.1,18,0.3,26.9,0.5C2180.7,1545.6,2182.7,1589.8,2184.7,1634z M1967.2,1305.4c10.2,0.6,20.3,1.1,30.5,1.6
					c7,0.3,14,0.6,20.9,0.9c11,0.4,22,0.7,33,0.9c10,0.2,19.9,0.3,29.9,0.3c29.5,0.1,59-0.5,88.5-1.5c0.4,8.7,0.8,17.4,1.2,26.2
					c1.9,42.1,3.8,84.2,5.7,126.3c0.2,5.3,0.5,10.6,0.7,16c0.2,4.5,0.4,8.9,0.6,13.4c-4.5-0.1-8.9-0.2-13.4-0.2
					c-5.8-0.1-11.5-0.2-17.3-0.3c-57.8-0.9-115.6-1.2-173.4-1.1c-1.9,0-3.9,0-5.8,0c-0.8-36.7-1.3-73.4-1.3-110.1
					c0-6.4,0-12.7,0-19.1C1966.9,1340.9,1967,1323.2,1967.2,1305.4z M1980.5,1895.3c-64.6,1.8-129.3,4-193.9,5.9
					c-2.5-48.4-4.5-96.8-4.4-145.3c0-14.7,0.3-29.4,0.8-44.1c60.7-6.3,121-14.9,181.5-22.1
					C1968.5,1758.3,1973.9,1826.9,1980.5,1895.3z M1816.6,1136.1c47.9,1,95.7-0.8,143.4-4.3c-2.3,53.6-3.8,107.3-4.5,160.9
					c-36.1-2.1-72.1-4.6-108.2-6c-14.9-0.6-29.8-0.9-44.6-1c-0.1-25.6-0.4-51.3-1-76.9c-0.6-24.4-1.4-48.8-2.3-73.1
					C1805.1,1135.8,1810.8,1135.9,1816.6,1136.1z M1801.9,1364.9c0.5-22.5,0.7-44.9,0.7-67.4c0.6,0,1.2,0,1.8,0
					c50.4,0.7,100.6,4.2,150.9,7.2c-0.2,18.2-0.3,36.5-0.3,54.7c0,7.2,0,14.5,0,21.7c0.1,35.6,0.5,71.2,1.3,106.7
					c-6.7,0-13.5,0-20.2,0.1c-4.2,0-8.4,0-12.7,0.1c-7.7,0-15.3,0.1-23,0.2c-34.4,0.3-68.8,0.7-103.2,1.3
					C1799.5,1448,1801.1,1406.4,1801.9,1364.9z M1791.5,1574.1c0-0.6,0.1-1.2,0.1-1.8c1.9-23.6,3.5-47.2,4.9-70.9
					c34.4-0.6,68.8-1,103.3-1.3c10.3-0.1,20.6-0.2,31-0.2c0.9,0,1.8,0,2.7,0c7.7,0,15.4-0.1,23.2-0.1c0.7,27.8,1.5,55.5,2.6,83.2
					c0.2,4.5,0.4,9,0.6,13.4c0.2,4,0.3,8,0.5,12c0.4,8.9,0.8,17.9,1.3,26.8c0.7,14,1.4,28.1,2.2,42.1
					c-55.1,6.6-110.1,14.9-164.8,20.8c-5.2,0.6-10.4,1.1-15.6,1.6c1.5-38.4,4.3-76.8,7.3-115.2
					C1790.9,1581.2,1791.2,1577.6,1791.5,1574.1z M1790.2,1365c-0.7,41.6-2.2,83.1-4.6,124.6c-64.5,1.2-129,2.8-193.5,4.8
					c2.4-43.9,5.2-87.8,8.4-131.6c1.2-16.6,2.5-33.2,3.8-49.8c61.9-8.6,123.8-15.5,186.5-15.7
					C1790.7,1320,1790.5,1342.5,1790.2,1365z M1790.6,1285.7c-44.7,0.2-89.2,2.7-133.8,8.1c-17.3,2.1-34.5,4.4-51.7,6.9
					c2.4-29.6,5-59.3,7.8-88.9c2.6-27.7,5.3-55.3,8.2-83c5.7,0.1,11.3,0.2,17,0.3c49.7,1.1,99.4,4.4,149.1,6.1
					C1789.1,1185.3,1790.4,1235.5,1790.6,1285.7z M1638.1,978.2c47.1,0.6,94.1,0.2,141-3.8c3,49.6,5.6,99.2,7.6,148.8
					c-34.7-1.2-69.4-3.2-104.1-4.6c-20.1-0.8-40.2-1.4-60.3-1.7C1627.3,1070.6,1632.5,1024.4,1638.1,978.2z M1466.2,974.9
					c39.6,0.8,79.2,1.7,118.9,2.4c13.7,0.3,27.4,0.5,41.1,0.7c-5.6,46.2-10.9,92.4-15.7,138.7c-35-0.3-69.9,0.3-104.9,2
					c-15.6,0.8-31.2,1.7-46.7,2.8C1461.8,1072.7,1464.3,1023.8,1466.2,974.9z M1450.6,1237.4c2.7-34.6,5.2-69.2,7.4-103.8
					c1-0.1,1.9-0.1,2.9-0.2c49.3-3.5,98.8-5.1,148.3-4.7c-1.4,13.2-2.7,26.5-4,39.7c-4.4,44.7-8.5,89.3-12.1,134.1
					c-41.1,6.1-82.1,12.7-123.3,18c-8.8,1.1-17.6,2.2-26.4,3.3C1445.9,1295,1448.3,1266.2,1450.6,1237.4z M1286.5,1241.5
					c0.9-29.2,1.3-58.3,1.4-87.5c52.3-8.7,105-15.2,157.9-19.4c-4.1,63.6-9.1,127.1-14.8,190.6c-49.8,5.7-99.6,10.1-149.6,13.8
					C1283.9,1306.5,1285.5,1274.1,1286.5,1241.5z M1279.8,1361c0.3-3.4,0.6-6.7,0.8-10.1c12.5-0.9,25.1-1.9,37.6-2.9
					c34.9-2.8,69.8-6.1,104.6-9.9c2.4-0.3,4.7-0.5,7.1-0.8c-0.6,6-1.1,12-1.7,18c-4.5,48.7-9.5,97.3-14.7,145.9
					c-27.9,1.2-55.8,2.4-83.7,3.7c-22.5,1-44.9,2.1-67.4,3.3C1270,1459.3,1275.7,1410.3,1279.8,1361z M1111,1229.4
					c0.4-2.2,0.9-4.4,1.3-6.5c2.6-12.7,5.4-25.3,8.2-38c51.8-9.5,103.5-20,155.4-28.9c0,13.5-0.2,27-0.4,40.5
					c-0.8,47.8-2.7,95.6-6.1,143.3c-7,0.5-14.1,1-21.1,1.5c-2.8,0.2-5.5,0.4-8.3,0.6c-17.2,1.2-34.4,2.2-51.5,3.3
					c-5.2,0.3-10.4,0.6-15.6,0.9c-28,1.7-56.1,3.3-84.1,4.9c1.2-7.8,2.5-15.5,3.9-23.3c5-29.4,10.4-58.7,16.3-87.9
					C1109.6,1236.3,1110.3,1232.8,1111,1229.4z M939.5,1304.3c6.6-31.4,14.3-62.6,22.8-93.5c0.3-1.2,0.7-2.3,1-3.5
					c22.4-1.9,44.8-4.5,67.1-7.6c19.1-2.6,38.1-5.7,57-8.9c6.8-1.2,13.5-2.3,20.2-3.5c-2.4,10.7-4.7,21.5-6.9,32.2
					c-0.3,1.6-0.6,3.2-1,4.7c-0.6,2.8-1.2,5.7-1.7,8.5c-1.2,5.7-2.3,11.5-3.4,17.2c-5,25.4-9.7,51-14,76.5
					c-1.4,8.4-2.8,16.9-4.2,25.3c-23.8,1.4-47.5,2.8-71.3,4.3c-25.6,1.6-51.1,3.3-76.7,5.3C931.9,1342.2,935.6,1323.2,939.5,1304.3z
					 M917.7,1435.4c2.5-20.7,5.5-41.4,8.9-62c26-2,52-3.7,78.1-5.4c23.3-1.5,46.7-2.9,70-4.2c-5.1,32.7-9.6,65.4-13.6,98.3
					c-0.6,4.7-1.1,9.5-1.7,14.2c-0.7,5.8-1.3,11.7-2,17.5c-0.9,8.5-1.8,17.1-2.7,25.6c-48.5,2.8-97.1,5.7-145.6,8.6
					c0.2-3.4,0.4-6.9,0.7-10.3C911.7,1490.2,914.3,1462.8,917.7,1435.4z M774.7,1387.8c46.5-5.5,93-9.8,139.7-13.4
					c-8.1,50.2-13.8,100.8-17,151.5c-0.1,1-0.1,1.9-0.2,2.9c-1.5,0.1-3.1,0.2-4.7,0.3c-49,3-98,6.1-147,9.2
					C752.7,1487.6,762.5,1437.4,774.7,1387.8z"/>
				<path class="st10" d="M1538.3,1523.9c-75.7,64.5-178.9,93.2-277.3,80.8c-28.1-3.5-55.7-10.7-82-21c-7.2-2.8-10.6,8.7-3.4,11.5
					c96,37.7,207.2,30.8,299.2-15c25.7-12.8,49.8-28.8,71.7-47.4C1552.3,1527.7,1544.2,1518.9,1538.3,1523.9z"/>
				<path class="st10" d="M2039.3,1581c-89,28-188.1,20.6-272.4-19.3c-23.6-11.2-45.9-24.8-66.6-40.7c-6.1-4.7-12.4,5.5-6.4,10.2
					c75.8,58.2,174.1,85.7,269.1,77.1c26.8-2.4,53.3-7.5,79-15.6C2049.3,1590.4,2046.7,1578.7,2039.3,1581z"/>
				<g>
					<path class="st11" d="M1196.4,1049.8c-2.4-6.9-6.4-13.1-12.2-17.6c-5.8-4.3-13-6.5-20.1-6.9c-12.9-0.6-24.8,4.8-34.5,12.8
						c-10.8-8.4-24.1-14.1-37.9-12.7c-14.4,1.4-27.6,10.3-32.1,24.4c-5.1,15.8,0.7,32.4,8.5,46.2c7.8,13.8,17.5,26.5,28.7,37.8
						c4.2,4.2,8.5,8.2,13.1,12c1.5,1.2,3,2.5,4.5,3.7c0.6,0.5,1.2,0.9,1.7,1.3c2.5,1.9,5,3.7,7.5,5.5c1,0.7,2,1.4,3,2.1
						c0.6,0.4,1.3,0.9,2,1.2c1.7,1,3.1,0.1,4.7-0.7c13-6.3,24.8-15.1,34.7-25.6c1.7-1.8,3.4-3.7,5-5.7c7.6-9.2,13.9-19.4,18.5-30.5
						C1197.5,1082.6,1201.7,1065.3,1196.4,1049.8z"/>
				</g>
				<g>
					<path class="st11" d="M2147,1049.8c-2.4-6.9-6.4-13.1-12.3-17.6c-5.7-4.3-13-6.5-20.1-6.9c-12.9-0.6-24.8,4.8-34.5,12.8
						c-10.8-8.4-24-14.1-37.9-12.7c-14.4,1.4-27.5,10.3-32.1,24.4c-5.1,15.7,0.6,32.1,8.4,45.9c0.1,0.1,0.1,0.2,0.2,0.3
						c3.5,6.2,7.4,12.1,11.6,17.8c2.7,3.7,5.6,7.3,8.6,10.8c2.7,3.1,5.5,6.2,8.4,9.1c5.5,5.6,11.4,10.8,17.6,15.7
						c3,2.4,6.1,4.6,9.3,6.8c1.6,1.1,3.2,2.3,5,3.3c1.7,1,3.1,0.1,4.7-0.7c13-6.3,24.8-15.1,34.7-25.6c1-1,1.9-2.1,2.8-3.1
						c8.6-9.8,15.6-20.9,20.6-33C2148,1082.6,2152.3,1065.3,2147,1049.8z"/>
				</g>
				<g>
					<path class="st7" d="M1328.7,1448.8c-5-20.1-15.8-41.3-33.4-53.2c-0.1-13.1-5.9-25.8-15.6-34.6c-1.6-1.4-3.3-2.8-5.1-4
						c-2-1.3-4.1-2.5-6.3-3.5c-1.3-0.6-2.6-1.1-3.9-1.5c-5.2-1.8-10.7-2.5-16.3-2.4c0.3-2.4,0.4-4.8,0.2-7.2c0-0.4-0.1-0.8-0.1-1.3
						c-0.7-6.9-3.5-13.6-8.3-18.7c-7.4-7.8-18.6-11.1-29.1-9.7c-2.3-14.3-14.3-27.6-28.8-30.8c-2.3-0.5-4.6-0.8-6.9-1
						c0,0,46.2-56.4,52.8-65.2c5.8-7.6,8.2-17.7,3.4-26.4c-4.2-7.6-12.4-11.1-20.8-11.7c-8.7-0.6-17,2-25.2,4.5
						c-0.8,0.2-1.8,0.7-3.1,1.4c-13.3,6.7-51.2,33.6-71.5,45.9c-3.1,1.9-5.7,3.4-7.8,4.4c-0.4-1.3-0.9-2.6-1.3-3.8
						c-0.7-2-1.3-3.9-2-5.9c-3.2-9.3-6.6-18.6-10.1-27.8c-0.7-1.9-1.5-3.8-2.3-5.6c-1.7-3.9-3.6-7.7-5.9-11.1
						c-2.2-3.4-4.9-6.5-8.2-9.1c-8-6.4-19-7.8-27.8-2.2c-7.2,4.4-11.2,11.4-13.3,19c-0.9,3.5-1.5,7.1-1.8,10.8c0,0.5-0.1,1-0.1,1.5
						c-1.6,24.2,0.9,49.3,5.3,73.2c0.6,3.5,1.3,7,2.1,10.5c-9.1,10.7-16.7,22.6-22.4,35.4c-5.3,11.8-8.8,24.4-10.2,37.3
						c-0.4,4-0.6,8-0.6,12c0,1.1,0,2.3,0.1,3.4c0.7,22.2,7.9,43.3,21.7,60.8c3.6,4.5,7.5,8.7,11.6,12.6
						c-28.1,14.1-75.5,39.4-128.2,73c-4.2,2.7-8.4,5.4-12.6,8.1c-1.6,1-3.2,2.1-4.8,3.2c-6.5,4.3-13,8.7-19.6,13.2
						c-48.4,33.2-98.4,72.6-140,116c-4.4,4.6-8.7,9.3-12.9,13.9c-32,35.6-57.7,73.7-72.2,113.3c-5.4,14.6-9.2,29.4-11.2,44.3
						c-18.3,136.5,126.7,303.4,322.1,197.4c31.5-17.1,64.2-41.2,97.8-73.7c4.6-4.4,9.2-9,13.8-13.8c40.3-41.5,81.8-95.1,123.5-163
						c7-11.4,14-23.2,21-35.4c1.1-2,2.3-4,3.4-6c2.3-4,4.5-8,6.8-12c17.9-32.2,35.8-67,53.7-104.8c1.8-3.8,3.6-7.7,5.4-11.6
						c4.4-9.5,8.8-19.1,13.3-29c2.7-3.7,5.4-7.5,7.8-11.4c9.6-15.1,17.2-31.9,21.9-49.4c1.1-4,2-8.1,2.7-12.1
						C1333.3,1486.4,1333.3,1467.3,1328.7,1448.8z"/>
					<path class="st11" d="M1153.8,1280c-19.4,8.4-35.8,22-47.9,39.4c-4.4,6.3,5.8,12.7,10.2,6.4c10.9-15.6,25.8-27.5,43.3-35.1
						C1166.5,1287.5,1160.9,1276.9,1153.8,1280z"/>
					<path class="st11" d="M1209,1315.9c-21.2,8.7-37.5,26.5-44.8,48.1c-2.5,7.3,9,10.7,11.5,3.4c6.4-18.8,20.6-33.4,38.9-40.9
						C1221.7,1323.6,1216.1,1313,1209,1315.9z"/>
					<path class="st11" d="M1240.1,1355.4c-8.6,11.4-17.2,22.7-25.8,34.1c-4.7,6.2,5.5,12.5,10.2,6.4c8.6-11.4,17.2-22.7,25.8-34.1
						C1255,1355.6,1244.8,1349.3,1240.1,1355.4z"/>
					<path class="st11" d="M1299.6,1412.3c-3.8-6.7-14.4-1.2-10.6,5.6c7.3,13.1,8.7,28,3.8,42.2c-2.5,7.3,9,10.7,11.5,3.4
						C1310.1,1446.5,1308.4,1427.9,1299.6,1412.3z"/>
					<path class="st11" d="M1177.8,1183.9c-45.2,23.8-87.8,52.4-127.1,85.1c-5.9,5,2.2,13.8,8.1,8.8c38.5-32.1,80.2-60,124.5-83.3
						C1190.2,1190.9,1184.6,1180.3,1177.8,1183.9z"/>
					<path class="st11" d="M1194.5,1526.1c-52.2-9.5-101.1-33.7-139.9-69.9c-5.6-5.2-14.5,2.8-8.8,8.1
						c40.3,37.7,90.9,63.5,145.3,73.3C1198.6,1539,1202.1,1527.5,1194.5,1526.1z"/>
				</g>
				<g>
					<path class="st7" d="M2630.5,1787.5c-4.5-18-11.6-35.6-21-52.5c-13.9-25.2-32.7-49.1-54.7-71.6c-4.4-4.5-9-9-13.6-13.4
						c-46.1-43.6-103.5-81.6-159.7-112.9c-4.9-2.7-9.7-5.4-14.5-8c-15.9-8.6-31.6-16.6-46.8-24c-9.2-4.5-18.2-8.8-27-12.8
						c-43-19.9-80.1-34.6-103.9-43.4c3.7-4.4,7.1-8.9,10.2-13.8c11.8-18.9,16.7-40.6,14.9-62.8c-1.2-16-5.8-31.1-13-45
						c-3.7-7.1-8-13.9-12.9-20.4c-5-6.6-10.6-12.9-16.7-18.6c0.4-3.5,0.7-7.1,0.9-10.6c1.7-24.7,1.4-50.4-3-74.8
						c-1-5.4-2.6-10.6-5.2-15.3c-2.9-5.3-7.1-9.9-13-12.7c-9.4-4.5-20.2-1.9-27.4,5.3c-7.5,7.5-10.8,17.5-13.4,27.5
						c-3,11.5-5.8,23.1-8.3,34.7c-0.3,1.3-0.6,2.6-0.9,3.9c-17-6.3-68.3-35.3-84.4-41.3c-1.3-0.5-2.4-0.8-3.2-1
						c-8.4-1.6-17-3.3-25.5-1.7c-8.2,1.5-16,5.8-19.4,13.9c0,0.1,0,0.1-0.1,0.2c-2,4.9-1.9,10-0.4,14.7c1.3,4.1,3.7,7.9,6.7,11.1
						c6.2,6.5,41.8,41.5,54.9,54.3c3,2.9,4.8,4.7,4.8,4.7c-2.2,0.4-4.4,1-6.7,1.8c-3.4,1.2-6.7,2.9-9.6,5.1
						c-9,6.8-15.1,17.7-15.7,28.7c-10.6-0.2-21.4,4.3-27.8,12.9c-2.1,2.7-3.6,5.7-4.6,8.9c-2,6.1-2.1,12.7-0.6,19
						c-1,0.1-2,0.2-3,0.3c-4.1,0.6-8.1,1.7-12,3.4c-3.8,1.6-7.3,3.8-10.5,6.5c-11.7,9.9-17.8,25.4-16.3,40.5
						c-16.2,13.7-24.6,36-27.3,56.5c-0.2,1.2-0.3,2.3-0.4,3.5c-0.4,4-0.6,8-0.6,12c-0.2,35.3,14.6,70.1,36.3,97.6
						c0.3,0.4,0.7,0.9,1.1,1.3c2.9,3.6,5.9,7,8.9,10.4c0,0,0.1,0.1,0.1,0.1c5.1,8.7,10.3,17.3,15.4,25.8c4.4,7.2,8.7,14.3,13.1,21.3
						c3.9,6.2,7.7,12.3,11.5,18.3c2.5,3.9,4.9,7.7,7.4,11.5c56.4,87,110.9,155,162.6,207.2c4.2,4.3,8.5,8.4,12.7,12.5
						c9.9,9.6,19.7,18.6,29.4,27c4.2,3.6,8.3,7.2,12.5,10.6c65.3,54.1,125.5,82.6,178.7,92.6
						C2560.7,2068.2,2660.5,1908.2,2630.5,1787.5z"/>
					<path class="st11" d="M2056.2,1297.7c20.2,6.2,38,18,51.9,33.9c5.1,5.8-4.3,13.2-9.4,7.4c-12.5-14.4-28.7-24.6-46.9-30.1
						C2044.4,1306.6,2048.8,1295.4,2056.2,1297.7z"/>
					<path class="st11" d="M2005.3,1339.5c22,6.3,40.1,22.2,49.8,42.9c3.3,7-7.8,11.7-11.1,4.7c-8.4-18-24.2-30.9-43.2-36.4
						C1993.4,1348.5,1997.9,1337.4,2005.3,1339.5z"/>
					<path class="st11" d="M1978.6,1382.2c9.8,10.3,19.6,20.7,29.4,31c5.3,5.6-4.1,13-9.4,7.4c-9.8-10.3-19.6-20.7-29.4-31
						C1963.9,1384,1973.4,1376.6,1978.6,1382.2z"/>
					<path class="st11" d="M1925.7,1445.2c3-7.1,14.2-2.7,11.2,4.4c-5.9,13.8-5.5,28.8,0.8,42.4c3.3,7-7.8,11.7-11.1,4.7
						C1919.1,1480.4,1918.7,1461.7,1925.7,1445.2z"/>
					<path class="st11" d="M2021.8,1204.8c47.6,18.7,93,42.4,135.6,70.7c6.4,4.3-0.7,13.9-7.1,9.7c-41.8-27.7-86.3-50.8-132.9-69.2
						C2010.2,1213.2,2014.6,1202,2021.8,1204.8z"/>
					<path class="st11" d="M2042.7,1546.8c50.9-15.1,96.8-44.5,131.4-84.8c5-5.8,14.7,1.2,9.7,7.1c-35.9,41.9-83.4,73.1-136.4,88.8
						C2040.1,1560,2035.3,1549,2042.7,1546.8z"/>
				</g>
				<g>
					<path class="st11" d="M1922.2,509c-17.4-23.3-43.2-43.4-48.9-73.4c-3.1-16.1-0.4-32.7-1.7-48.9c-1.1-13.9-5.3-26.6-13.5-37.9
						c-15.7-21.7-41.1-34.4-64.2-46.6c-28.5-15.1-58.2-29.7-90.3-35c-0.2,0-0.4-0.1-0.7-0.1c-2.2-0.4-4.4-0.7-6.5-0.9
						c0.9-2.5,1.8-4.9,2.6-7.4c3.2-10.4,5.2-21.1,4.8-32.1c-0.7-21.3-10.4-42.6-30-52.7c-42-21.6-78.9,27.2-87.9,63.2
						c-0.9,3.7-1.6,7.3-2.2,11c-1.8,12.5-1.5,25.3,1,37.6c-0.5,0-1,0.1-1.5,0.1c-5.5,0.3-11,0.2-16.8-0.3c-15.5-1.3-30.6-2.9-46,0
						c-28,5.4-52.4,21.8-74.1,39.6c-21.6,17.8-43.2,36.9-61,58.5c-8.6,10.5-16.1,21.8-21.3,34.3c-5.6,13.4-7.3,27.4-7.5,41.8
						c-0.2,15.1,0.8,31.5-6.4,45.4c-6.7,13-18.3,22.3-26.5,34.3c-6.7,9.8-10.9,22.7-8.4,34.5c2.5,11.8,12.1,19.6,23.7,21.9
						c11.8,2.3,24.4,0.2,35.8,4.1c11.6,3.9,17,15.6,22.2,25.6c5.6,10.7,11.8,21,22.5,27.2c10.9,6.3,23.8,7.9,36.2,7.1
						c25.9-1.6,50.2-13.2,76.3-12.5c6.7,0.2,13.2,1.3,19.2,3.9c3.4,1.4,6.6,3.3,9.5,5.8c-0.4,0.3-0.8,0.6-1.2,0.9
						c-5,3.8,1.6,11,6.6,7.2c14.5-11.1,33.6-14.8,51.2-11.1c5.5,2.4,11.1,4.5,16.8,6.2c0.8,0.4,1.7,0.9,2.5,1.4
						c1.5,0.9,3,0.9,4.3,0.4c17.2,4,35.1,4.6,52.6,1.6c4.8-0.8,9.6-1.9,14.3-3.3c8.9-2.6,17.6-6.1,25.7-10.6
						c12-6.7,25-19.1,39.6-18.5c12.3,0.5,20.4,12.6,31.2,17.1c10.2,4.3,20.7,0.3,26.5-8.8c5.6-8.8,6.7-20.6,14.4-28.1
						c8.2-8,21.2-7,31.8-6.5c11.7,0.6,23.9,1.8,35.2-1.9c11.1-3.6,19.6-11.6,24.4-22.2C1948,555.8,1937.7,529.7,1922.2,509z"/>
					<path class="st7" d="M1559.8,527.6l-14.2,204.6c14.4,39.5,176.6,34.5,173.6-4.9c-2.3-30.1-13-73-19.2-104.5
						c-1.2-6.1-2.3-11.6-3.3-16.7c-2.7-13-4.8-21.9-5.8-24L1559.8,527.6z"/>
					<g>
						<path class="st7" d="M1492.4,466.4c2.9-24.7,12.7-38.5,15.9-46.1c51.3-120.8,247.6-81.1,251.3,46.6c1.7,0.2,3.5,0.5,5.2,0.8
							c19.4,4,37.8,17.1,44.3,35.6c7.4,21.1-1.9,43.7-20.6,56.2c-21.3,14.2-47.2,11.4-70.8,4.9c-20.7,19.4-47.7,32.7-77.7,35.9
							c-48.2,5.2-100.6-17.1-128.3-54.3c-27.2,9.1-65.2-3.6-71.4-31.8C1433.7,483.4,1464.1,463.5,1492.4,466.4z"/>
						<path class="st11" d="M1611.1,493.3c4.7-13.9,6.3-28.2,3.9-42.6c-1.7-10.5,15-15,16.8-4.4c2.9,17.5,1.8,34.7-3.9,51.5
							C1624.4,507.9,1607.6,503.5,1611.1,493.3z"/>
						<path class="st11" d="M1459.9,503.7c4.7-13.2,23-18.3,34.6-10.5c4.8,3.2-0.2,10.5-5,7.3c-6.4-4.3-16.8-2.3-20.4,4.7
							c-4.5,8.7,5.2,18.8,14.5,17.6c5.8-0.7,7.5,7.8,1.7,8.6C1469.8,533.3,1454.6,518.6,1459.9,503.7z"/>
						<path class="st11" d="M1752.8,529c7.3,3,17.2,0.4,20.2-7.2c3.3-8.3-5.5-17.3-14.2-15.9c-5.8,0.9-7.5-7.7-1.7-8.6
							c14.3-2.2,28.2,10.7,25.2,24.6c-2.9,13.5-19.7,20.5-32.5,15.4C1744.5,535.1,1747.4,526.8,1752.8,529z"/>
						<path class="st11" d="M1599.3,418.5c-22.3-5.1-46.1-0.1-64.5,13.5c-7.1,5.2,0.8,16.4,7.8,11.2c15.7-11.6,35.4-15.6,54.4-11.2
							C1605.7,434,1607.9,420.5,1599.3,418.5z"/>
						<path class="st11" d="M1715.8,428.1c-19.4-16.2-44.3-24.4-69.5-23.1c-8.8,0.4-7.4,14,1.4,13.6c21.7-1.1,42.9,6.2,59.5,20.1
							C1713.9,444.3,1722.6,433.7,1715.8,428.1z"/>
						<path class="st11" d="M1659.4,531.8c-8.1,14.8-26.1,19.7-40.5,10.6c-5.3-3.4-10.5,4.9-5.2,8.3c18.6,11.8,43.3,5.7,53.9-13.7
							C1670.7,531.5,1662.4,526.3,1659.4,531.8z"/>
						<path class="st11" d="M1573.6,452.2c-14,0-14.8,21.9-0.6,21.9C1587,474,1587.7,452.2,1573.6,452.2z"/>
						<path class="st11" d="M1668.7,450c-14,0-14.8,21.9-0.6,21.9C1682,471.9,1682.8,450,1668.7,450z"/>
					</g>
					<path class="st11" d="M1623.3,599c-23.6,3.1-47.6-2.5-67.4-15.7c-5.2-3.5-10.4,4.5-5.2,8c22,14.7,48.5,20.7,74.7,17.3
						C1631.8,607.7,1629.5,598.2,1623.3,599z"/>
					<path class="st11" d="M1783,416.4c-1.5-19.2-10.7-36.8-24.1-50.4c-31.1-31.4-77.5-38.8-119.8-41.9c-24.6-1.8-49.7-0.7-72.4,9.7
						c-2.9,1.3-3.1,4.2-1.9,6.4c-8.9,0.6-17.7,4-25.8,8c-12.3,6-24.2,13.7-33.4,24c-21.5,23.9-22.1,56-21.4,86.4
						c0.1,2.8,2.1,4.4,4.3,4.8c0.7,1.7,2.4,2.8,4.1,3.1c2.2,0.4,4.4-0.6,5.1-3.3c2.7-11.6,7.4-22.4,14.3-32
						c7.3-10.2,16.9-17.8,27-25.1c13.3-9.6,27.9-20.5,35.1-35.2c2.4,3,5.2,5.6,8.2,7.7c14.7,10.4,34.3,8.3,51.3,7.7
						c35.1-1.1,72.7,6.4,98.8,31.6c13.1,12.7,22.5,28.7,25.6,46.7c0.5,3,4.2,4.6,6.9,3.4c0.4-0.2,0.8-0.5,1.2-0.9
						C1778.7,453.4,1784.5,434.8,1783,416.4z"/>
					<path class="st12" d="M1515.3,564.4c-2.2-4.8-5.8-8.4-10-10.7c1.3-1.9,2.1-4.1,2.3-6.4c0.3-3.9-1.2-7.9-4.6-10.4
						c-2.9-2.1-6.5-2.4-9.6-1.4c-0.6,0-1.2,0-1.8,0.2c-5.5,1.8-9.2,7-8.7,12.4c0.1,1.5,0.6,3.1,1.4,4.6c0,0.1,0.1,0.1,0.1,0.2
						c-1.3,0.6-2.6,1.3-3.8,2.2c-12.8,9.2-13.1,28.5-1,38.5c11.2,9.3,30.3,7.7,37.2-6.2C1520.6,579.6,1519.4,571.3,1515.3,564.4z
						 M1506.8,578.3c-0.9,8.8-11.2,11.2-17.9,7.1c-6.9-4.1-8.3-14.3-2.1-19.7c3.1-2.7,6.8-3.3,10-2.4
						C1499.5,564.9,1507.9,567.5,1506.8,578.3z"/>
					<path class="st12" d="M1765.9,570.4c-0.7-0.5-1.4-1-2.1-1.4c-0.6-0.3-1.1-0.6-1.7-0.9c0.1-0.1,0.1-0.1,0.1-0.2
						c3.8-6.9-0.2-14.6-7.3-17c-0.6-0.2-1.2-0.3-1.8-0.2c-3.1-1.1-6.7-0.8-9.6,1.3c-5.5,4-6,11.6-2.3,16.8c-0.2,0.1-0.3,0.2-0.5,0.3
						c-4,2.3-7.4,5.8-9.5,10.4c-4.2,6.8-5.4,15.1-1.4,23.1c6.9,13.8,25.9,15.4,37.2,6.1C1779,598.9,1778.6,579.6,1765.9,570.4z
						 M1757.5,600.6c-6.7,4-17,1.7-17.9-7.1c-1.1-10.8,7.3-13.4,10-15c3.2-0.9,6.9-0.3,10,2.4
						C1765.9,586.3,1764.4,596.5,1757.5,600.6z"/>
					<path class="st12" d="M1702.6,264.1c-0.6-1.2-1.1-2.3-1.7-3.5c-0.4-0.8-1.1-1.5-1.8-1.9c-1.4-0.8-3.3-0.9-4.8-0.1
						c-22.2,11.1-46.4,17.3-71.1,18.3c18.8-7.8,36.4-18.7,45.1-37.9c1.5-3.2,0.1-7.4-4-7.5c-26.5-0.6-51.3,14.6-63.6,37.6
						c-4.2-8-10-15.2-16.8-21c-9.6-8.3-21.2-14.1-33.8-16.5c-3.1-0.6-7.6,1.9-6.2,5.8c7.2,19.6,20.9,36.2,39.1,46.5
						c0,0.6,0.1,1.3,0.3,1.9c0.6,1.6,2,3,4.2,3.2c20.3,1.8,40.7,1.3,60.9-1.5c17.6-2.5,51.8-16.6,52.1-16.8c1.5-0.6,2.3-2.1,2.5-3.6
						C1703.1,266,1703,265,1702.6,264.1z"/>
				</g>
			</g>
		</g>
	</g>
</g>
<g id="Layer_4">
</g>
</svg>
