<?xml version="1.0" encoding="utf-8"?>
<!-- Generator: Adobe Illustrator 23.0.3, SVG Export Plug-In . SVG Version: 6.00 Build 0)  -->
<svg version="1.1" id="Layer_1" xmlns="http://www.w3.org/2000/svg" xmlns:xlink="http://www.w3.org/1999/xlink" x="0px" y="0px"
	 viewBox="0 0 1282.6 790.1" style="enable-background:new 0 0 1282.6 790.1;" xml:space="preserve">
<style type="text/css">
	.st0{fill:#FFDDCF;}
	.st1{fill:#F25A29;}
	.st2{fill:#D0471C;}
	.st3{fill:#102231;}
	.st4{fill:#18293B;}
	.st5{fill:#FF9891;}
	.st6{opacity:0.74;fill:#FFC5C1;}
	.st7{fill:#FF764A;}
	.st8{fill:#F39531;}
	.st9{fill:#131A32;}
	.st10{fill:#242A45;}
	.st11{fill:#3F6F01;}
	.st12{fill:#175548;}
	.st13{fill:#96B48E;}
	.st14{fill:#589083;}
	.st15{fill:#2C4C00;}
</style>
<ellipse transform="matrix(1 -9.850915e-03 9.850915e-03 1 -7.0238 6.8631)" class="st0" cx="693.2" cy="716.4" rx="589.5" ry="73.5"/>
<path class="st1" d="M1061.5,670.1c0,0,16.1,30.1,46.3,42.5c0,0-11.3,11.3-54.3-21.2l-18.3,0.9v-22.2H1061.5z"/>
<path class="st2" d="M1055.8,644.8c0,0,23.9,22.4,55.1,24.4c0,0-6.8,13.7-55.9-2.6l-16.3,6.5l-6.8-20.2L1055.8,644.8z"/>
<path class="st3" d="M951.8,548.9c0,0-115.9,62.9-121.3,82.7c-5.4,19.8,5.4,54.9,5.4,54.9s8.3,23.9,98,2l-61.9-12.9l17.3-35.1
	c0,0,88.1-30.2,88.6-32.2c0.5-2-3.6-50.5-3.6-50.5L951.8,548.9z"/>
<path class="st4" d="M1099.7,428.1c-5.7-8.3-5.3-14.6-0.8-23.3c3-5.8,5.8-11.4,6.6-18c1.6-12.5,1.8-19.5-6.9-28.5
	c-11.4-11.8-44.4-5.9-48.9-20.3c9.4-12.5,1.8-37.2-7.8-46c-9-8.3-20.6-13.8-32.7-15.5c-26.6-3.7-52.2,12.1-61.4,37.1
	c0,0.1,0,0.2,0,0.3c-1.4,2.8-2.2,5.9-2.5,9.2c-0.2,2.5,3.1,3.4,4.7,1.9c17.6-16.6,49.7-17,58.2,9.5c7.5,23.6-21.7,39.3-20.9,62.4
	c0.2,7.5,3.5,15.1,10.1,19.1c9.2,5.5,21.4,1.5,29.7,9.1c8.7,7.9,12,21.8,16.1,32.3c2.8,7.3,5.5,14.7,8.4,22.1
	c0.4,2.8-3.2,12.3,8.2,17.5c20.9,9.6,54.5-5.6,56.2-32.7C1116.8,449.9,1107.4,439.3,1099.7,428.1z"/>
<path class="st1" d="M941.7,430.7c9.1-14.2,24.4-23.3,41.2-24.4c14.7-1,32.4,0.3,45.9,8.6c28,17.3-2.9,105-2.9,105
	s-53.3,17.4-81.5,1l-16-69.2L941.7,430.7z"/>
<path class="st0" d="M989,298.5c-2.3-0.5-49.1-7.5-47.5,50.1c0.1,5.3,0.7,10,1.7,14.4c-1.2-0.2-2.6,0.2-3.6,0.8
	c-1.9,1.2-2.7,3.5-2.2,5.6c1,4,5.6,5,8.5,2.8c13,32.8,51,29.5,66-0.6C1030,335.7,1027.5,306.6,989,298.5z"/>
<path class="st0" d="M968.8,368.9c0,0,10.5,30.5,3.1,43.9c0,0,15.2,15.7,30.6,0c0,0-7.2-17.5,0-49.4
	C1009.7,331.5,968.8,368.9,968.8,368.9z"/>
<path class="st4" d="M960.5,338.6c-2.5-1.3-7.5-0.4-8.1,2.9c-1.2,2.6-0.3,6.1,2.3,7.6c2.8,1.6,6.7,0.7,8.3-2.2
	C964.5,344.1,963.4,340.1,960.5,338.6z M961.2,345.9c-1,2-3.8,2.7-5.7,1.6c-0.1-0.1-0.2-0.1-0.3-0.2c2.6-0.5,5.2-2.4,5.6-5
	c0-0.2,0-0.5,0-0.7C961.7,342.8,961.9,344.6,961.2,345.9z"/>
<path class="st4" d="M991.3,340.7c-2.5-1.3-7.5-0.4-8.1,2.9c-1.2,2.6-0.3,6.1,2.3,7.6c2.8,1.6,6.7,0.7,8.3-2.2
	C995.4,346.2,994.2,342.2,991.3,340.7z M992.1,348c-1,2-3.8,2.7-5.7,1.6c-0.1-0.1-0.2-0.1-0.3-0.2c2.6-0.5,5.2-2.4,5.6-5
	c0-0.2,0-0.5,0-0.7C992.6,345,992.8,346.7,992.1,348z"/>
<path class="st5" d="M974.4,343.3c0-0.6-0.5-1-1-1.1c0-0.1,0-0.2,0-0.4c-0.1-0.7-1.1-0.7-1.4-0.2c-0.2,0.4-0.3,0.9-0.4,1.4
	c-0.2,0.1-0.4,0.3-0.4,0.6c-1.1,4.8-2.8,8.7-6.5,12.1c-0.3,0.3-0.5,0.9-0.3,1.3c1.2,3.1,4.8,3.4,6.9,0.9c1.4-1.6,1.8-3.9,2.1-5.9
	C973.9,349.3,974.5,346.2,974.4,343.3z"/>
<path class="st5" d="M983.5,373.1c-0.8-2.2-3.1-2.9-5.2-2c-1.5,0.6-2.5,1.8-3.8,2.7c-1.6,1.1-3.4,1.9-5.3,2.2
	c-3.7,0.7-7.1-0.1-10.4-1.7c-0.3-0.1-0.6,0-0.7,0.2c-0.3,0.1-0.5,0.3-0.5,0.6c0,0,0,0.1,0,0.1c-0.1,0.1-0.1,0.3-0.2,0.4
	c-1,5.8,3,11.3,8.7,12.5c6.5,1.3,12.7-2.5,15.8-8C983,378.2,984.4,375.4,983.5,373.1z"/>
<path class="st6" d="M949,349.8c-1.2-0.2-2.5,0.1-3.5,0.8c-1.4,0.2-2.6,1.3-2.7,2.9c-0.1,3.1,3.8,5,6.4,5.4c2.6,0.4,5.9-1.2,5.8-4.2
	C954.9,351.8,951.3,350.2,949,349.8z M948.7,355.2c-0.3,0-0.8-0.4-1-0.6c-0.1-0.1-0.2-0.1-0.4-0.2c-0.1-0.1-0.1-0.3-0.1-0.4
	c0.1,0,0.3-0.1,0.4-0.1c0.5,0.4,0.9,0.8,1.5,1.1C948.9,355,948.8,355.1,948.7,355.2z"/>
<path class="st6" d="M1001.8,350.3c-2.4-1.7-5.8,0.1-7.7,2.2c-2.4,1-4.3,2.8-3.5,5.7c1.1,3.8,5.9,2.9,8.4,1.3
	C1001.5,357.8,1005.3,352.8,1001.8,350.3z M992.7,356c-0.2,0.2-0.3,0.4-0.4,0.7c0-0.4,0.2-0.8,0.3-1.1
	C992.7,355.7,992.7,355.8,992.7,356z M997.2,354.6c-0.1,0.1-0.3,0.3-0.5,0.6c-0.1,0-0.3,0-0.4,0c0.4-0.6,0.9-1,1.5-1.3
	C997.6,354.1,997.4,354.4,997.2,354.6z M1001.1,353.9c-0.2,0.7-0.6,1.5-1.1,2.1c0.4-0.7,0.8-1.5,0.9-1.9c0.2-0.6,0.2-1.1,0-1.6
	C1001.1,352.8,1001.2,353.2,1001.1,353.9z"/>
<path class="st4" d="M990.8,331.6c-2.2-2.5-7.3-4.9-9.2-1.2c-0.8,1.6,0,3.3,1.5,4c0.9,0.5,1.9,0.5,2.9,0.4c1.2-0.1,2.7-0.7,3.5,0.4
	c0.5,0.6,1.3,0.4,1.8,0C992.6,334.1,992,332.4,990.8,331.6z"/>
<path class="st4" d="M967,327.3c-2.1-4.6-10.4,1-12.6,2.8c-0.4,0.3-0.4,0.7-0.3,1.1c-0.3,0.6,0.1,1.4,0.9,1.1c1.7-0.5,3.2-1,5-1.3
	c1.5-0.2,3,0.1,4.4-0.1C966.1,330.7,967.9,329.2,967,327.3z"/>
<path class="st4" d="M1026.2,334.1c0.1-4,0.2-8,0.3-12c0.1-2-1.2-3-2.6-3c-1.1-4.9-2.4-9.7-4.1-14.5c-1.2-3.4-6.7-1.9-5.5,1.5
	c0.6,1.7,1.2,3.4,1.7,5.1c-0.3,0.1-0.5,0.2-0.7,0.3c-0.4-1.1-0.8-2.3-1.2-3.4c-0.5-1.4-1.6-1.9-2.6-1.9c-0.4-0.4-0.6-0.5-1.1-0.9
	c-0.1-3.1-4.2-3.7-5.2-1.4c-0.6-2.2-1.3-4.4-2.2-6.7c-1.2-2.8-5.6-1.8-4.7,1.3c0.2,0.5,0.3,1.1,0.5,1.6c-0.7-1.4-1.4-2.7-2.2-4
	c-0.9-1.4-2.3-1.4-3.3-0.6c-0.1-0.2-0.3-0.4-0.4-0.6c-0.8-1-2-1.2-3-0.9c-0.2-0.4-0.5-0.7-0.7-1.1c-1.3-1.9-4.4-1.3-4.4,1.2
	c0,0,0,0,0,0c-0.7-0.4-1.5-0.5-2.2-0.2c-0.4-0.6-0.7-1.1-1-1.5c-1.2-1.6-4-1.5-4.5,0.5c-0.9-0.9-2.2-0.8-3.1-0.1
	c-0.6-0.6-1.8-0.3-2,0.8c-0.1,0.5-0.1,0.9-0.1,1.3c-0.2-0.8-0.4-1.6-0.8-2.4c-0.9-2.2-4.3-0.6-3.8,1.6c0,0.1,0,0.2,0.1,0.3
	c-0.1,0.8-0.2,1.6-0.1,2.5c-0.2,0-0.4,0.2-0.6,0.4c-0.5-0.3-1.1-0.2-1.5,0.1c-0.4-0.6-0.8-1.2-1.2-1.8c-0.4-0.6-1.3-0.2-1.1,0.5
	c0.2,0.8,0.4,1.6,0.7,2.5c-7.1,2-12.9,9.3-16.2,15.4c-5.2,9.7-7,23.3-5.7,34.1c0.1,0.4,0.8,0.6,0.9,0.1c0.1-0.4,0.1-0.7,0.2-1.1
	c0.1,0,0.3,0,0.3-0.2c1.5-7,2.5-13.5,6.6-19.7c3.6-5.5,8.9-8.9,13.7-13.1c1.9-1.7,3.8-3.6,5.3-5.7c5.6,8.2,14.3,14.7,23,18.9
	c9.9,4.8,18.4,9.5,21.3,21.1c2.6,10.2-2,19.3-1.3,29.2c0.1,1.2,1.6,1.5,2.3,0.6c1.5-2.2,2.7-4.8,3.6-7.6c0,0.1,0,0.2,0.1,0.2
	c0.6,1.8,3.2,2.4,4.3,0.6c2.5-4.4,2.5-10.8,1.9-16.4c1.4,0.1,2.9-0.9,3.1-2.7C1026.8,346.1,1026.7,340.1,1026.2,334.1z"/>
<path class="st0" d="M1018.3,354.6c-2.9-0.3-6.3,1.5-6.3,4.6c0,0.4,0.2,0.6,0.4,0.8c-0.2,0.6-0.2,1.4-0.1,2c-1.9-0.6-4.4,1.5-3,3.5
	c4.6,6.2,15.4,3.5,14.8-4.8C1023.9,357.5,1021.6,354.9,1018.3,354.6z"/>
<polygon class="st3" points="915,644.8 910.2,680.2 1048.3,669.9 1040.5,646.6 "/>
<path class="st4" d="M1025.8,519.9c0,0,61.8,116.8,19.5,131.6c-42.3,14.9-100.2,6.7-121,9.7c-20.8,3,75.6-0.2,130.5,6.5l-5.3,26
	c0,0-166,18.9-192,8.5c-26-10.4-23.8-53.6-23.8-53.6s47.4-44.1,121.3-67.1c0,0-17.7-12.4-12.6-35.5l1.9-25.2L1025.8,519.9z"/>
<path class="st0" d="M928.2,601.7c-3.6,2.2-6.8,3.9-10.8,5.1c-1.6,0.5-3.3,1-4.9,1.7c-1.7,0.4-3.3,0.9-4.9,1.6
	c-0.2,0.1-0.3,0.2-0.5,0.3c-0.5,0.5-0.6,1.4-0.1,1.9c0,0.4,1.4,1.3,3.4,1.9c3.6,0.9,8.4-1,12-2.1c0.9-0.3-4.4,4.1-6.4,5.1
	c-5.8,2.9-12.6,4.8-18.7,6.4c-1.2,0.3-1.3,2.1-0.1,2.2c5.4,0.5,11-0.1,16.4-1.8c-5.5,2.1-11.2,3.6-16.3,7c-0.9,0.6-0.3,2.2,0.7,1.9
	c5.3-1.5,11.7-3.1,17.8-5.4c-4.5,2.4-9.1,4.5-13.3,7.3c-0.8,0.5-0.3,1.9,0.6,1.7c5.4-1.2,11.5-3.5,17.1-6.6c-1.8,1.6-3.4,3.3-5,5.2
	c-0.8,0.9,0.3,2.3,1.3,1.8c7.4-3.8,14-10.9,19.7-17c2.1-2.2,6-5.3,6.5-8.5c0.4-2.4-1.1-5.3-2.3-7.1
	C937.6,599.2,933.1,598.8,928.2,601.7z"/>
<path class="st1" d="M1028.8,414.9c-1,2.4-28.6,87-33.9,102.7c-10.5,31-30.6,58-57.2,77.1l-5,3.6l10.7,16c0,0,62.6-20.5,92.8-75.2
	C1082,456.1,1028.8,414.9,1028.8,414.9z"/>
<path class="st7" d="M997.9,536.8c-1.3,1.8-2.2,3.8-3.5,5.6c-1.3,1.9-3,3.6-4.9,4.9c-0.8,0.6,0.1,1.6,0.9,1.4
	c4.5-1.7,9.6-5.9,9.4-11.2C999.8,536.5,998.6,535.8,997.9,536.8z"/>
<path class="st1" d="M944.6,365.6l54.1,0.5c4.7,0,8.5-3.7,8.5-8.4l0.3-27.3c0-4.7-3.7-8.5-8.4-8.5l-54.1-0.5c-4.7,0-8.5,3.7-8.5,8.4
	l-0.3,27.3C936.2,361.8,940,365.6,944.6,365.6z"/>
<path class="st8" d="M1007.6,334.1c7.6,2.3,26.3,7,42.2,3.9c0,0,4.4,1.6,4.3,6.8c-0.1,5.1-24.2,14.3-47.3,11
	c-1.6-0.2-2.7-1.5-2.7-3.1v-16C1004.1,334.9,1005.8,333.6,1007.6,334.1z"/>
<path class="st8" d="M941.5,365.6l48.1,0.4c4.7,0,8.5-3.7,8.5-8.4l0.3-26.9c0-4.7-3.7-8.5-8.4-8.5l-48.1-0.4c-4.7,0-8.5,3.7-8.5,8.4
	l-0.3,26.9C933.1,361.8,936.8,365.6,941.5,365.6z"/>
<g>
	<path class="st9" d="M0,0l0,784.5c1.3-0.7,2.6-1.3,3.9-2c6.9-3.6,14.1-7.2,21.4-9.2c2.1-0.6,4.2-1.1,6.3-1.4
		c4.8-0.7,9.7-0.6,14.5,0.8c0.4,0.1,0.9,0.3,1.3,0.4c10.3,3.4,20,6.2,29.2,8.4c3.2,0.8,6.3,1.4,9.3,2c10.5,2.1,20.4,3.4,29.6,4
		c1.4,0.1,2.8,0.2,4.2,0.2c0.1,0,0.2,0,0.3,0c11.5,0.5,22-0.2,31.6-1.8c2.9-0.5,5.7-1,8.4-1.6h0c2.8-0.6,5.5-1.3,8.1-2.1
		c4.9-1.4,9.5-3.1,13.9-5c0,0,0,0,0,0c5.4-2.3,10.4-5,15.1-7.8h0c3-1.8,5.9-3.8,8.7-5.8c6.2-4.5,11.8-9.3,17-14.3
		c1.9-1.8,3.7-3.6,5.4-5.4c2.9-3,5.6-6.1,8.2-9.1c2.5-2.9,4.9-5.7,7.2-8.5c1.4-1.7,2.8-3.4,4.2-5.1v0c2.2-2.7,4.4-5.3,6.4-7.8
		c4.4-5.3,8.6-9.9,12.7-13.6c1.8-1.6,3.6-3.1,5.5-4.3c3.6-2.4,7.3-3.9,11.2-4.4c9.8-1.1,18.8-1.6,27.4-1.2
		c17.4,0.8,33.2,5.2,50.5,14.9c2.8,1.6,5.6,3,8.5,4.3c1.5,0.7,2.9,1.3,4.4,1.9c2.9,1.1,5.8,2.2,8.7,3.1c5.3,1.7,10.7,2.9,16.1,3.8
		c15.4,2.6,31.3,2.1,46.5-1.5c2.6-0.6,5.2-1.3,7.7-2.1c6.4-2,12.3-4.7,17.9-8c2.8-1.6,5.5-3.4,8.1-5.3l0,0
		c6.7-4.8,12.9-10.4,18.7-16.5c6.4-6.6,12.5-13.9,18.3-21.2c1.2-1.4,2.3-2.9,3.5-4.4c1.3-1.6,2.5-3.2,3.8-4.9
		c5.9-7.6,12.2-13.5,18.6-18.1c4.1-2.9,8.2-5.3,12.3-7.3c3.2-1.5,6.3-2.8,9.5-3.8c4.4-1.5,8.7-2.5,13-3.3c0.1,0,0.1,0,0.2,0
		c3.1-0.6,6.2-1,9.2-1.3c11.9-1.1,22.6-0.5,30.4-1.2c31.5-2.6,60.9-23.7,73.3-52.8c8.9-20.9,10.4-54.2,32.9-57.4
		c91.8-13,109-63.5,121.6-86.3c8.1-14.6,10.8-32.4,21.9-44.8c2.7-3,5.6-5.5,8.9-7.6c6.7-4.4,14.5-7,22.7-8.5
		c12.4-2.3,25.8-2,38.3-1.4c0.1-12.7-1.6-22.9-1.5-35.6c-18.7,8.5-39.5,6.8-59.4,0.4c-2.8-0.9-5.6-1.9-8.4-3
		c-1.4-0.6-2.8-1.1-4.3-1.7c-3.4-1.4-6.8-3-10.1-4.6c-3.6-1.8-7.2-3.6-10.7-5.6c-0.6-0.3-1.2-0.7-1.7-1c-1.6-0.9-3.2-1.8-4.8-2.7
		c-22.1-12.8-44.3-27.2-68.6-33h0c-4.1-1-8.3-1.7-12.6-2.2c-1.6-0.2-3.3-0.3-5-0.4c-3.5-0.2-6.9-0.1-10.4,0.1
		c-1.3,0.1-2.6,0.2-3.9,0.3c-1,0.1-1.9,0.2-2.9,0.3c-2.8,0.3-5.5,0.6-8.3,0.9c-8.8,1.1-17.6,2.5-26.3,2.9c-0.9,0-1.8,0.1-2.6,0.1h0
		c-6.1,0.2-12.1-0.2-18.1-1.4c-26-5.4-44.6-25.9-64.9-43.9c-1.2-1.1-2.5-2.2-3.7-3.3c-1.2-1.1-2.5-2.1-3.8-3.2c0,0,0,0,0,0
		c-7.7-6.3-15.7-12-24.6-16.2c-13.9-6.5-28.8-8.9-44.2-9.3h0c-11-0.3-22.1,0.5-33.3,1.4c-4.3,0.4-8.6,0.8-12.9,1.2
		c-3.3,0.3-6.5,0.6-9.8,0.9c-2.8,0.3-5.6,0.5-8.5,0.6c-19.7,1.2-40.3,0.4-58.3-5.7c-9.8-3.3-18.9-8.3-26.6-15.4
		c-0.8-0.7-1.5-1.4-2.3-2.2c-0.9-0.9-1.8-1.8-2.6-2.8c-2.2-2.5-4.3-5.2-6.2-8.1c-2-2.9-3.8-5.9-5.5-9c-0.4-0.8-0.8-1.6-1.3-2.3
		c-0.7-1.3-1.3-2.5-1.9-3.8l0,0c-0.4-0.9-0.9-1.8-1.3-2.8c-3.7-7.8-7-15.8-10.5-23.6c0,0,0,0,0,0c0,0,0,0,0,0c0,0,0,0,0-0.1
		c-0.4-0.8-0.7-1.6-1.1-2.4c-0.4-0.8-0.8-1.6-1.1-2.4c-0.7-1.4-1.3-2.8-2-4.2c-0.1-0.2-0.2-0.4-0.3-0.6c-0.2-0.3-0.3-0.6-0.5-1
		c-1.1-2.1-2.2-4.1-3.3-6c-0.4-0.7-0.8-1.3-1.2-2v0c-0.9-1.5-1.9-2.9-2.8-4.3c-1.2-1.7-2.4-3.3-3.8-4.9v0c-1.1-1.3-2.3-2.6-3.5-3.8
		c-3.6-3.7-7.8-7-12.6-9.6c-0.6-0.3-1.1-0.6-1.7-0.9c-0.4-0.2-0.8-0.4-1.2-0.6c-1.6-0.7-3.2-1.4-4.8-1.9c-6.8-2.4-14-3.3-21.3-3.2
		c-0.4,0-0.8,0-1.1,0c-4.6,0.1-9.4,0.6-14.2,1.4c-1.2,0.2-2.4,0.4-3.7,0.6c-0.8,0.1-1.6,0.3-2.4,0.5c-7,1.4-14,3.2-21.1,5
		c-1.3,0.3-2.6,0.7-3.9,1c-0.6,0.1-1.2,0.3-1.8,0.4c-2.8,0.7-5.6,1.4-8.4,2.1c-10.7,2.5-21.3,4.5-31.5,4.5c-7.4,0-14.7-1.1-21.6-3.7
		c-1.5-0.6-3-1.2-4.5-2c-0.3-0.2-0.7-0.3-1-0.5c-7.5-3.9-13.8-9.7-19.6-16.1c-3.3-3.6-6.3-7.5-9.4-11.3c0,0,0,0,0,0
		c-1.8-2.3-3.5-4.5-5.4-6.8v0c-7.4-9.3-15-18.2-24.6-23.7c-3.3-1.9-6.9-3.4-10.8-4.4C98.1,23.2,87,25,75.9,26.1
		c-1.5,0.1-2.9,0.3-4.4,0.4c-1.2,0.1-2.3,0.2-3.5,0.2c-1.1,0-2.1,0.1-3.2,0.1c0,0,0,0,0,0c-13.6,0.1-27.2-3.1-39.5-9
		C16,13.3,7.3,7.3,0,0z"/>
	<path class="st10" d="M370.1,159.3v549.7c1.5,0.7,2.9,1.3,4.4,1.9c2.9,1.1,5.8,2.2,8.7,3.1c5.3,1.7,10.7,2.9,16.1,3.8
		c15.4,2.6,31.3,2.1,46.5-1.5c2.6-0.6,5.2-1.3,7.7-2.1c6.4-2,12.3-4.7,17.9-8V202.4c-19.7,1.2-40.3,0.4-58.3-5.7
		c-9.8-3.3-18.9-8.3-26.6-15.4c-0.8-0.7-1.5-1.4-2.3-2.2c-0.9-0.9-1.8-1.8-2.6-2.8c-2.2-2.5-4.3-5.2-6.2-8.1
		C373.6,165.4,371.8,162.4,370.1,159.3z"/>
	<path class="st10" d="M205.8,94.5v669.1c6.2-4.5,11.8-9.3,17-14.3c1.9-1.8,3.7-3.6,5.4-5.4c2.9-3,5.6-6.1,8.2-9.1
		c2.5-2.9,4.9-5.7,7.2-8.5c1.4-1.7,2.8-3.4,4.2-5.1v0c2.2-2.7,4.4-5.3,6.4-7.8c4.4-5.3,8.6-9.9,12.7-13.6c1.8-1.6,3.6-3.1,5.5-4.3
		V81.5c-7,1.4-14,3.2-21.1,5c-1.3,0.3-2.6,0.7-3.9,1c-0.6,0.1-1.2,0.3-1.8,0.4c-2.8,0.7-5.6,1.4-8.4,2.1
		C226.7,92.6,216.1,94.5,205.8,94.5z"/>
	<path class="st10" d="M25.3,17.8v755.5c2.1-0.6,4.2-1.1,6.3-1.4c4.8-0.7,9.7-0.6,14.5,0.8c0.4,0.1,0.9,0.3,1.3,0.4
		c10.3,3.4,20,6.2,29.2,8.4c3.2,0.8,6.3,1.4,9.3,2c10.5,2.1,20.4,3.4,29.6,4c1.4,0.1,2.8,0.2,4.2,0.2V30.3
		c-3.3-1.9-6.9-3.4-10.8-4.4C98.1,23.2,87,25,75.9,26.1c-1.5,0.1-2.9,0.3-4.4,0.4c-1.2,0.1-2.3,0.2-3.5,0.2c-1.1,0-2.1,0.1-3.2,0.1
		c0,0,0,0,0,0C51.2,26.9,37.6,23.7,25.3,17.8z"/>
	<path class="st10" d="M257.6,284.7c0.8-1.5,3.1-2.1,4.5-1.2c6.7,4.4,8.5,12.9,15.5,17.7c8.6,5.9,19.6,5.8,29.6,6.7
		c4.1,0.4,8.2,0.9,12.2,1.9c-3.4-6.9-7.2-13.6-12.3-19.4c-5.4-6.1-12-10.2-18.9-14.5c-11-7-29.4-20.4-23.4-35.8
		c1.5-3.8,7.4-5.7,9.6-1.3c2.8,5.6,4.8,11.3,9.3,15.8c5,4.9,11.5,8,17.5,11.4c13.3,7.5,22.7,17.5,29.9,30.9
		c6.6,12.3,11.5,25.4,19.3,37.1c3.7,5.5,8.2,10.4,13.8,14.1c2.8,1.9,5.7,3.2,8.8,4.4c3.3,1.2,6.7,1.4,10,2.5c3,1.1,3.3,4.6,0.8,6.4
		c-5.6,4.1-15,3.2-21.3,1.2c-7.2-2.3-13.4-6.3-18.8-11.5c-8.1-7.9-13.3-17.7-18.1-27.7c-2.2-1.1-4.6-2-7.3-2.6
		c-10-2.2-20.3-1.2-30.4-2.8c-8.7-1.4-16.9-5.2-23.1-11.5C259.3,300.7,253.5,292.6,257.6,284.7z"/>
	<path class="st10" d="M105.3,404.9c0.5-5.1,1.3-10.2,2.7-15.1c3.2-10.8,9.5-19.7,19-25.9c9.2-6.1,20-8.9,29.5-14.3
		c4.4-2.5,7.9-5.5,10.5-9.9c2.5-4.2,3.8-8.8,6.2-13.1c1.1-1.9,4-2.8,5.9-1.5c4.7,3.3,6.6,7.3,6.2,13.1c-0.4,6.2-3.1,11.7-7,16.4
		c-7.5,9.3-18.9,14.1-29.8,18.4c-9.7,3.8-19,8.4-24.2,17.8c-2.5,4.5-3.9,9.4-5,14.4c-1.2,5.3-1.4,11.1-4,15.9
		c-2.3,4.2-8,2.7-9.5-1.2C104.2,415.2,104.8,409.6,105.3,404.9z"/>
	<path class="st10" d="M110.1,282.3c1.9-7.4,4.7-14.6,8.3-21.4c8-15.3,20.8-26.3,34.8-36.1c13.9-9.8,26.2-19.4,35-34.3
		c4.1-6.9,7.1-14.2,10-21.7c2.6-6.6,4.6-16.6,10.3-21.3c1.5-1.2,3.6-1.2,4.7,0.6c3.8,6.3,1.7,16.4,0,23.1c-2,7.7-5,15.1-8.7,22.1
		c-7.7,15-18.6,27.3-32.1,37.3c-13.6,10.1-27.8,18.1-38,32.1c-4.5,6.2-8.4,12.7-11.3,19.7c-2.8,7.1-3.6,15.9-8.1,22.1
		c-1.2,1.7-4.1,2.2-5.2,0C106.5,297.8,108.3,289.4,110.1,282.3z"/>
	<g>
		<path class="st11" d="M182,777.2c5.4-2.3,10.4-5,15.1-7.8c0,0,0,0,0,0c18.7-17.7,34.9-38.6,48.3-60.3c9-14.5,16.8-29.8,23.3-45.5
			c3.3-7.9,6.2-16,8.8-24.2c2.6-8.1,5.8-16.9,6.3-25.5c0.1-1.9-2.5-2.6-3.3-0.8c-3.3,7.8-4.7,16.5-7.3,24.6
			c-2.6,8.2-5.5,16.3-8.8,24.2c-6.5,15.7-14.2,30.9-23.2,45.3C224.8,733.6,204.6,756.2,182,777.2z"/>
		<path class="st11" d="M187.2,727.2c-3.2-8.3-7.9-18.4-15.4-23.7c-0.3-0.2-0.9,0.1-0.8,0.5c2.4,8.2,7.2,15.7,9.9,23.8
			c3.3,9.6,4.4,19.3,3.9,29.5c-0.3,6.9,10.3,6.7,9.5-0.3C193.4,746.9,190.9,736.7,187.2,727.2z"/>
		<path class="st11" d="M204.5,733.1c-1.1-6.8-2.8-13.5-5.1-20c-3.9-11.1-10.2-26.2-20.2-33.1c-0.7-0.5-2,0.1-1.7,1.1
			c1.6,5.4,4.8,10,7.2,15c2.9,5.9,5.2,12,7.1,18.3c1.7,5.6,3,11.3,3.8,17.1c0.8,5.6-0.4,13.4,2.5,18.3c1.2,2,4.8,3.2,6.2,0.6
			C207.1,745,205.4,738.7,204.5,733.1z"/>
		<path class="st11" d="M192,654.2c-1.1-1.4-3.1,0.1-2.5,1.6c10.5,24.7,18.9,49.7,19.9,76.7c0.2,5.1,8,3.7,7.8-1.3
			C216.1,703.9,208.9,676,192,654.2z"/>
		<path class="st11" d="M224.5,674.4c-2.4-7.6-5.5-14.8-9.6-21.7c-3-5.1-6.7-13.4-12.6-15.3c-0.6-0.2-1.3,0.2-1.4,0.8
			c-0.2,5.7,4.6,11.5,6.9,16.6c3,6.9,5.8,14,7.9,21.2c1.9,6.6,3.3,13.4,4.2,20.2c0.5,3.9,0.9,7.8,1,11.7c0.1,3.5-0.3,6.6,1.4,9.8
			c1.3,2.3,5.1,3.3,6.7,0.6c3.4-6,1.5-15,0.6-21.6C228.5,689.2,226.8,681.7,224.5,674.4z"/>
		<path class="st11" d="M240.5,655.8c-2.2-7.1-5.2-14-8.9-20.5c-2.8-4.8-7.1-12.4-12.7-14c-0.5-0.1-0.8,0.2-0.8,0.7
			c0.3,5.4,5.1,11.4,7.4,16.2c3.2,6.5,5.7,13.4,7.4,20.5c1.5,6.5,2.7,13,3,19.6c0.3,6-2.1,14.1,0.6,19.5c1.1,2.3,3.9,2.3,5.5,0.5
			c4.1-4.8,2.7-14.4,2.3-20.4C244,670.3,242.8,662.9,240.5,655.8z"/>
		<path class="st11" d="M254.6,636.5c-3.5-11.7-9.4-22.1-18.4-30.3c-0.8-0.7-2.2,0.5-1.6,1.4c6,9.6,11.2,19.9,13.8,31
			c1.3,5.4,2,10.9,2.1,16.4c0.1,5.2-1.9,11.5-0.5,16.5c0.8,2.6,4.2,4,6,1.4c3.1-4.5,2.3-10.9,2.1-16.1
			C257.8,649.8,256.6,643,254.6,636.5z"/>
		<path class="st11" d="M262.8,616.3c-3.1-7.6-7.5-15.1-14.5-19.7c-0.8-0.5-1.9,0.3-1.4,1.2c3.4,6.7,7.6,13,10.1,20.2
			c1.4,4.3,2.4,8.6,2.6,13.1c0.1,3.5-0.2,7.1,0.4,10.5c0.7,4.5,6.6,3.7,7.5-0.3C269.1,633.6,265.7,623.5,262.8,616.3z"/>
		<path class="st11" d="M272.4,603.8c-2-5.4-5.2-11.2-9.7-14.9c-1.2-0.9-3,0.6-2.3,1.9c2.6,4.7,5.7,8.9,7.5,14
			c1.7,4.9,1.2,10.9,3.6,15.3c0.7,1.2,2.2,1.1,2.8-0.1C276.5,615.3,274.1,608.5,272.4,603.8z"/>
		<path class="st11" d="M257.8,744.3c8.8,1.2,19.7,3.6,26.5,9.7c0.3,0.3,0.2,0.9-0.3,0.9c-8.5-0.5-16.9-3.5-25.5-4.3
			c-10.1-1-19.8,0-29.6,2.8c-6.7,1.9-8.9-8.5-1.8-9.4C237.2,742.7,247.7,742.9,257.8,744.3z"/>
		<path class="st11" d="M244.5,760.3c8.8,1.2,19.7,3.6,26.5,9.7c0.3,0.3,0.2,0.9-0.3,0.9c-8.5-0.5-16.9-3.5-25.5-4.3
			c-10.1-1-19.8,0-29.6,2.8c-6.7,1.9-8.9-8.5-1.8-9.4C223.9,758.8,234.4,758.9,244.5,760.3z"/>
		<path class="st11" d="M252.6,725.5c6.9-0.4,13.8-0.3,20.6,0.5c11.7,1.3,27.9,4,36.8,12.2c0.6,0.6,0.3,2-0.7,1.9
			c-5.6-0.4-10.8-2.4-16.2-3.7c-6.4-1.5-12.9-2.4-19.4-2.8c-5.8-0.3-11.7-0.3-17.5,0.1c-5.7,0.5-13,3.4-18.4,1.6
			c-2.2-0.7-4.2-3.9-1.9-5.9C240.3,725.7,246.8,725.9,252.6,725.5z"/>
		<path class="st11" d="M330.9,721.3c1.6,0.7,0.6,3-1,2.8c-26.4-4.7-52.7-7.2-79.2-2.1c-5,1-5.4-7-0.5-7.9
			C277.1,709,305.9,709.7,330.9,721.3z"/>
		<path class="st11" d="M300,688.5c7.9,0.7,15.7,2,23.3,4.4c5.6,1.8,14.6,3.5,17.7,8.8c0.3,0.5,0.1,1.3-0.5,1.5
			c-5.5,1.5-12.3-1.9-17.8-3c-7.4-1.4-14.9-2.5-22.4-2.9c-6.9-0.4-13.8-0.2-20.6,0.4c-3.9,0.4-7.8,0.9-11.6,1.7
			c-3.5,0.7-6.3,1.8-9.8,0.9c-2.6-0.7-4.4-4.2-2.1-6.4c5.1-4.7,14.3-4.8,20.9-5.4C284.7,687.8,292.3,687.8,300,688.5z"/>
		<path class="st11" d="M310.5,664.9c7.5,0.6,14.8,1.9,22,4.1c5.3,1.6,13.7,4.1,16.5,9.2c0.2,0.4,0,0.8-0.5,0.9
			c-5.3,0.9-12.2-2.4-17.5-3.6c-7.1-1.7-14.4-2.6-21.6-2.6c-6.6,0-13.3,0.3-19.8,1.5c-5.9,1-13.3,5.2-19.1,3.8
			c-2.5-0.6-3.1-3.3-1.7-5.2c3.7-5.1,13.4-5.9,19.4-6.9C295.6,664.9,303,664.4,310.5,664.9z"/>
		<path class="st11" d="M313,645.2c12.1,0.8,23.6,4.2,33.6,11.1c0.9,0.6,0.1,2.3-1,1.9c-10.7-3.7-21.9-6.4-33.3-6.5
			c-5.5,0-11.1,0.5-16.4,1.6c-5.1,1.1-10.8,4.5-15.9,4.2c-2.7-0.2-4.8-3.2-2.7-5.5c3.7-4,10.1-4.7,15.3-5.7
			C299.3,645.1,306.2,644.8,313,645.2z"/>
		<path class="st11" d="M309.5,626.1c8.2-0.4,16.9,0.5,24,5c0.8,0.5,0.5,1.8-0.5,1.8c-7.5-0.3-15-1.5-22.6-0.7
			c-4.5,0.5-8.8,1.4-13,3.1c-3.2,1.3-6.4,3.1-9.7,4c-4.4,1.2-6.1-4.5-2.9-6.9C291.1,627.6,301.7,626.4,309.5,626.1z"/>
		<path class="st11" d="M306.3,609c5.7-1.1,12.3-1.4,17.8,0.6c1.4,0.5,1.1,2.9-0.4,2.9c-5.4,0.2-10.5-0.2-15.8,0.9
			c-5.1,1.1-9.9,4.7-15,4.9c-1.4,0.1-2.1-1.3-1.4-2.4C294.4,611.4,301.4,609.9,306.3,609z"/>
		<path class="st11" d="M289.5,569.9c-0.8-1.8-3.2-1.1-3.5,0.6c-1.1,5.8-0.4,11.8-0.8,17.7c-0.5,6-2.1,11.7-2.9,17.6
			c-0.5,3.9,5.3,5.2,6.7,1.6c2.3-6.1,2.7-13.1,2.9-19.6C292,581.8,292.1,575.4,289.5,569.9z"/>
	</g>
	<g>
		<path class="st11" d="M702.7,399.5c7.8-5.9,14.4-13.6,21.8-20.1c2.5-2.2,4.9-4.3,7.5-6.5c1.3-1.1,2.5-2.1,3.8-3.2
			c2.6-2.1,5.3-4.2,7.9-6.3c1.2-0.9,2.3-1.8,3.5-2.6c0.1-0.1,0.2-0.2,0.3-0.2c4.1-3.1,8.2-6,12.4-8.9c3.8-2.6,7.7-5.2,11.6-7.6
			c0.9-0.6,1.9-1.2,2.8-1.8c7.5-4.6,15.1-8.9,22.8-12.9c2-1,3.9-2,5.9-3c12.8-6.3,25.8-11.6,39.1-16.2c-0.6-0.3-1.2-0.7-1.7-1
			c-1.6-0.9-3.2-1.8-4.8-2.7c-14.3,5.4-28.2,11.7-41.5,18.6c-10.2,5.3-20.1,11.1-29.7,17.3c-3.8,2.5-7.6,5-11.3,7.6
			c-3,2.1-6,4.3-8.9,6.5c-0.3,0.2-0.6,0.5-0.9,0.7c-1.1,0.9-2.3,1.7-3.4,2.6c-1.1,0.8-2.1,1.6-3.1,2.5c-2.9,2.3-5.8,4.7-8.7,7.1
			c-2.3,1.9-4.6,3.9-6.8,5.9c-7.4,6.5-15.7,13.4-21.3,21.6C698.7,398.7,700.9,400.9,702.7,399.5z"/>
		<path class="st11" d="M860.8,358.8c0,3.5,0.4,7,1.2,10.3c0.4,1.8,1,3.4,1.7,5.1c0.2,0.4,1,0.5,1.1,0c0.4-1.5,0.7-3.1,1-4.7
			c0.6-3.3,0.9-6.7,1.3-10c0.5-5,0.9-9.9,2-14.8c1.5-6.9,3.7-13.3,6.6-19.5c-2.8-0.9-5.6-1.9-8.4-3c-2.1,6.4-3.7,12.9-4.8,19.4
			C861.5,346.8,860.7,352.8,860.8,358.8z"/>
		<path class="st11" d="M841.2,389.4c0.4,1.3,0.9,2.5,1.4,3.7c0.4,0.9,2.1,1.1,2.4-0.1c1.6-6.3,1.2-12.7,1.7-19.1
			c0.2-2.2,0.4-4.3,0.7-6.5c0.4-3.3,1-6.7,1.7-10c0.3-1.5,0.7-3.1,1-4.6c0.1-0.4,0.2-0.9,0.3-1.3c1.3-5.2,2.9-10.4,4.8-15.4
			c0.5-1.3,1-2.5,1.5-3.8c1.6-3.8,4.4-7.9,6.3-12c-3.4-1.4-6.8-3-10.1-4.6c-1.6,3.1-2.8,6.6-4.1,9.8c-1.5,3.8-2.8,7.6-3.9,11.5
			c-1.1,3.8-2,7.5-2.8,11.4c-1.1,5.4-2.2,11.7-2.7,18.1c-0.1,1.5-0.2,3-0.3,4.5C838.9,377.4,839.4,383.8,841.2,389.4z"/>
		<path class="st11" d="M814.7,411c0.2,2,3.1,1.8,3.4-0.1c4.1-30.6,10.6-60.4,25.5-87.7c2.8-5.1-5.8-8.4-8.5-3.3
			C820.1,347.5,810.8,379.4,814.7,411z"/>
		<path class="st11" d="M794.4,371.8c-2.1,9-3.3,17.9-3.3,27.1c0,6.8-1.3,17.2,3.5,22.6c0.5,0.5,1.4,0.6,1.9,0
			c3.6-5.5,2.2-14.2,3-20.5c1.1-8.6,2.5-17.3,4.7-25.6c2-7.7,4.6-15.2,7.7-22.5c1.8-4.2,3.7-8.2,5.9-12.2c2-3.6,4.2-6.3,4.4-10.5
			c0.1-3-3.1-6.3-6.3-4.5c-6.9,3.9-10.3,14-13.3,21.1C799.1,354.8,796.4,363.2,794.4,371.8z"/>
		<path class="st11" d="M767.5,380.8c-2,8.4-3.1,16.9-3.3,25.6c-0.1,6.4-0.3,16.5,4.3,21.4c0.4,0.4,0.9,0.3,1.2-0.2
			c2.9-5.5,1.7-14.3,2.2-20.5c0.6-8.4,2.2-16.7,4.8-24.7c2.3-7.3,5-14.5,8.6-21.2c3.2-6.1,10.4-12.8,10.9-19.7
			c0.2-2.9-2.5-4.6-5.1-3.7c-6.9,2.3-11.2,12.7-14.4,18.8C772.6,364.4,769.5,372.4,767.5,380.8z"/>
		<path class="st11" d="M742.1,391.6c-3.4,13.6-3.7,27.4,0.4,40.8c0.4,1.2,2.5,0.9,2.4-0.4c-0.3-13,0.7-26.3,4.6-38.8
			c1.9-6,4.4-12,7.6-17.5c3-5.2,8.7-10.2,10.2-16c0.8-3-1.8-6.4-5.1-4.9c-5.7,2.7-8.7,9.4-11.6,14.8
			C746.9,376.6,744,384,742.1,391.6z"/>
		<path class="st11" d="M722.2,406.8c-1.4,9.4-1.5,19.4,2.8,28.1c0.5,1,2,0.8,2.1-0.3c0.6-8.7,0.1-17.4,1.9-25.9
			c1.1-5.1,2.7-10,5.1-14.5c1.9-3.5,4.3-6.9,5.8-10.6c2-4.9-4.4-7.5-7.6-4.2C726.1,385.9,723.5,398,722.2,406.8z"/>
		<path class="st11" d="M705.3,413.6c-1.2,6.6-1.4,14.1,0.9,20.5c0.6,1.6,3.3,1.2,3.3-0.5c0.1-6.2-0.4-12.1,0.8-18.3
			c1.2-5.8,5.2-11.5,5.5-17.3c0.1-1.6-1.6-2.4-2.8-1.5C707.9,399.7,706.4,407.8,705.3,413.6z"/>
		<path class="st11" d="M754.5,271.3c6.2,8.1,14.9,15.2,22.1,20.6c6.3,4.8,13.1,9,20.2,12.7c5.9,3,12.2,7.1,19,5.8
			c3.4-0.6,3.4-4.9,1.6-7c-4.3-4.9-13.3-6.3-19.2-9.2c-6.1-3-11.8-6.4-17.4-10.2c-4.8-3.2-9.3-6.7-13.6-10.5h0
			C762.9,272.5,758.7,271.7,754.5,271.3z"/>
		<path class="st11" d="M724.1,272.4c9.1,10.7,20,19.7,31.9,27.3c1.3,0.8,2.7,1.7,4,2.5c10.2,6.1,21.1,11.1,32.2,15.1
			c5.5,2,9.7-6.1,4.2-8.1c-16.5-5.9-31.5-14.2-45.6-24c0,0,0,0,0,0c-4.9-3.4-9.7-7-14.5-10.7c-1.3-1-2.6-2-3.9-3.1
			C729.6,271.8,726.9,272.1,724.1,272.4z"/>
		<path class="st11" d="M727.9,313.4c-7.5-5.3-14.4-11.2-20.5-18.1c-4.5-5.1-12.4-12.1-12.4-19.2c0-0.7,0.6-1.4,1.4-1.2
			c6.3,1.7,11,9.2,15.8,13.4c6.5,5.7,13.3,11.3,20.5,16.1c6.6,4.4,13.5,8.4,20.7,11.7c4.1,1.9,8.3,3.7,12.5,5.2
			c3.8,1.4,7.3,1.9,10.2,4.9c2.1,2.2,1.8,6.8-1.7,7.5c-7.8,1.7-17-3.7-23.9-7C742.6,323,735.1,318.5,727.9,313.4z"/>
		<path class="st11" d="M703.5,330.5c-7.1-5-13.6-10.6-19.4-17c-4.3-4.8-11.1-12.2-11-18.9c0-0.6,0.5-0.8,1-0.6
			c5.8,2.2,10.7,9.6,15.2,13.9c6,5.9,12.7,11,19.9,15.3c6.6,3.9,13.3,7.5,20.5,10.2c6.4,2.4,16.2,2.7,21.2,7.5
			c2.1,2.1,1.1,5.1-1.4,6.2c-6.7,2.9-16.8-2.1-23.2-4.6C718.3,339.4,710.6,335.4,703.5,330.5z"/>
		<path class="st11" d="M689.5,348.6c-11.6-8-20.9-18.1-26.8-30.9c-0.5-1.1,1.3-2.3,2.1-1.3c8.4,10,17.9,19.3,29.1,26
			c5.4,3.3,11.2,6,17.2,8.1c5.7,1.9,13.3,1.9,18.3,5.2c2.6,1.7,2.9,6-0.6,7c-6,1.8-12.8-1.3-18.5-3.4C703,356.7,696,353,689.5,348.6
			z"/>
		<path class="st11" d="M681.7,369.6c-8.4-4.5-16.4-10.4-20.8-19c-0.5-1,0.6-2.1,1.6-1.5c7.3,4.7,14,10.3,21.9,14
			c4.7,2.2,9.6,3.8,14.7,4.6c4,0.6,8.1,0.7,12,1.7c5.1,1.4,3.4,8-1.2,8.6C700.7,378.9,689.5,373.8,681.7,369.6z"/>
		<path class="st11" d="M674.7,388.4c-6.3-2.2-12.9-5.9-17.2-11.1c-1.1-1.3,0.6-3.5,2.1-2.6c5.4,3,10.3,6.4,16.2,8.5
			c5.6,1.9,12.6,1.2,17.7,3.9c1.4,0.7,1.3,2.6-0.1,3.2C688,393.1,680.2,390.4,674.7,388.4z"/>
		<path class="st11" d="M668.3,437c-0.2,2.2,2.5,3,3.8,1.5c4.5-5.1,7.3-11.5,11.3-17c4-5.6,9-10.3,13.2-15.7
			c2.8-3.6-2.2-8.3-5.7-5.5c-5.8,4.7-10.4,11.4-14.4,17.7C672.8,423.8,669,430,668.3,437z"/>
	</g>
	<g>
		<g>
			<path class="st12" d="M199.9,279.6c6.6-9.9,10.9-21.5,16.6-32c1.2-2.2,2.5-4.5,3.7-6.7c0.9-1.6,1.9-3.3,2.8-4.9
				c3.8-6.6,7.9-13,12-19.4c5.4-8.2,11.1-16.3,17.1-24.1c5.7-7.5,11.6-14.8,17.8-21.9c3-3.4,6-6.8,9.1-10.1
				c4.9-5.3,9.9-10.4,15-15.3c6.1-5.9,12.3-11.6,18.7-17.1c9.5-8.2,19.4-15.9,29.5-23.3c-1.4-1.9-2.8-3.8-4.3-5.6
				c-11.4,8.3-22.4,17.2-32.9,26.6c-5.7,5.1-11.3,10.4-16.7,15.7c-5,5-9.9,10.1-14.7,15.2c-3,3.3-6,6.6-8.9,10
				c-8.7,10-16.9,20.4-24.7,31.1c-3.7,5-7.2,10.2-10.6,15.4c-4.1,6.1-8,12.4-11.7,18.7c-1,1.6-1.9,3.2-2.8,4.9
				c-1.4,2.4-2.8,4.9-4.1,7.3c-5.7,10.5-12.5,21.7-15.4,33.4C195,280.3,198.4,281.9,199.9,279.6z"/>
			<path class="st12" d="M356.7,131.2c0.4,5.5,1.1,11,2,16.3c0.8,4.5,1.8,9.4,3.2,14.3c1.1,3.9,2.5,7.7,4.2,11.3
				c0.7,1.5,1.5,2.9,2.3,4.3c1.5,2.5,3.2,4.8,5.1,6.8c0.4,0.4,1.3,0.2,1.2-0.5c-0.3-2.5-0.6-5-1.1-7.6c-0.6-3.1-1.3-6.1-2.1-9.2
				c-0.5-1.9-0.9-3.7-1.4-5.6l0,0c-0.2-0.9-0.5-1.9-0.7-2.9c-0.3-0.1-0.6-0.2-0.8-0.3C364.5,149.3,360.7,140.1,356.7,131.2z"/>
			<path class="st12" d="M336.5,139.8c0,2.1,0.1,4.2,0.1,6.3c0.2,5.3,0.7,10.7,1.4,16c0.1,0.5,0.1,1.1,0.2,1.6
				c0.5,3.6,1.2,7.5,2,11.5c0.4,2.1,0.9,4.2,1.4,6.4c0.7,2.9,1.5,5.9,2.4,8.8c0.8,2.6,1.8,5.2,2.8,7.7c1.1,2.7,2.4,5.3,3.8,7.7
				c1.4,2.4,2.9,4.7,4.7,6.7c0.6,0.7,1.3,1.4,1.9,2.1c0.9,0.9,2.8,0.4,2.7-1c-0.2-1.7-0.4-3.3-0.8-5c-0.7-3.1-1.6-6.1-2.5-9.1
				c-0.8-2.5-1.6-4.9-2.3-7.4c-0.1-0.4-0.2-0.7-0.3-1.1c-0.7-2.7-1.4-5.4-1.9-8.1c-0.6-2.6-1-5.1-1.5-7.7c-0.5-2.7-0.8-5.5-1.1-8.2
				c-0.1-1-0.2-2-0.3-3c-0.8-8.2-1.1-16.3-0.7-24.5c0.1-2.7,0.6-5.7,1.1-8.7c0.7-4.4,1.5-8.9,1.1-13c-0.1-0.2-0.2-0.4-0.3-0.6
				c-0.2-0.3-0.3-0.6-0.5-1c-1.1-2.1-2.2-4.1-3.3-6c-1.7-0.8-3.7-0.7-5.1,1c-3.6,4.4-4.5,10.1-4.7,15.8c-0.1,2.6-0.1,5.3-0.2,7.8
				C336.5,136.5,336.5,138.1,336.5,139.8z"/>
			<path class="st12" d="M332.7,246.6c1.1,2.1,4.3,0.7,3.8-1.5c-7.9-36.7-12.7-73.4-6.9-110.9c1.1-7-10-7.3-11.1-0.3
				C312.8,171.8,315.3,212.1,332.7,246.6z"/>
			<path class="st12" d="M293.4,210.1c1.3,11.1,3.6,21.9,7.3,32.4c2.8,7.8,5.7,20.2,13.3,24.4c0.8,0.4,1.9,0.1,2.1-0.8
				c1.9-7.8-3.3-17.1-5-24.7c-2.3-10.3-4.2-20.8-5.2-31.3c-0.9-9.6-1-19.3-0.4-29c0.3-5.5,0.9-11,1.8-16.4c0.8-4.9,2.2-8.9,0.7-13.8
				c-1.1-3.5-6.2-5.9-9-2.6c-6.3,7.4-6,20.2-6.6,29.6C291.8,188.8,292.2,199.4,293.4,210.1z"/>
			<path class="st12" d="M266.3,231.5c1.2,10.4,3.4,20.7,6.8,30.6c2.6,7.4,6.4,19,13.7,22.7c0.6,0.3,1.2,0,1.3-0.7
				c1-7.5-3.9-17-5.9-24.3c-2.7-9.9-4.3-20-4.7-30.2c-0.4-9.3-0.2-18.6,1.1-27.8c1.2-8.3,6.6-18.9,4.4-27c-1-3.4-4.8-4.2-7.4-2.1
				c-7,5.5-7.5,19.1-8.7,27.5C265.4,210.6,265.1,221.1,266.3,231.5z"/>
			<path class="st12" d="M241.8,254.3c1.7,17,7.1,32.9,17.2,46.6c0.9,1.2,3.2,0,2.6-1.4c-5.7-14.8-10.1-30.4-10.7-46.3
				c-0.3-7.7,0.1-15.5,1.5-23.1c1.3-7.2,5.8-15.3,5.1-22.5c-0.3-3.8-4.8-6.6-7.9-3.5c-5.4,5.4-6.1,14.4-7.2,21.7
				C241,235.2,240.8,244.8,241.8,254.3z"/>
			<path class="st12" d="M225.2,279.9c2.2,11.4,6.2,22.8,14.7,31c0.9,0.9,2.7,0.1,2.3-1.3c-2.9-10.2-7-19.9-8.5-30.5
				c-0.8-6.2-1-12.5-0.1-18.7c0.8-4.8,2.1-9.7,2.3-14.6c0.2-6.4-8.1-6.8-10.4-1.6C221.1,254.4,223.1,269.2,225.2,279.9z"/>
			<path class="st12" d="M208.6,294.6c1.3,8,4.2,16.8,9.4,23.1c1.3,1.6,4.3,0,3.6-2c-2.4-7.1-5.4-13.7-6.6-21.3
				c-1.1-7.2,1.3-15.3-0.8-22.1c-0.6-1.8-2.8-2.1-3.9-0.6C205.9,277.7,207.5,287.6,208.6,294.6z"/>
			<path class="st12" d="M237.3,90c8,7.1,19.3,11.8,28.9,15.1c13.5,4.6,27.9,7.6,42.2,8.6c9.9,0.7,9.7-14.2,0-13.4
				c-14.2,1.2-27.8,0-41.5-4.1c-7.2-2.2-14.1-5.4-21.1-8.3C243,88.7,240.2,89.4,237.3,90z"/>
			<path class="st12" d="M274.9,81c4.7,2.2,9.5,4,13.9,5.6c13.5,4.6,27.9,7.6,42.2,8.6c1.2,0.1,2.3-0.1,3.2-0.4
				c-3.8-3.9-8.1-7.3-13-10.2c-0.5-0.3-0.9-0.5-1.4-0.8c-1.1-0.6-2.2-1.2-3.3-1.7c-0.4,0-0.8,0-1.3-0.1c-7.2-0.3-14.2-1.4-21.3-3.2
				c-0.4,0-0.8,0-1.1,0c-4.6,0.1-9.4,0.6-14.2,1.4C277.3,80.6,276.1,80.8,274.9,81z"/>
			<path class="st12" d="M268.4,132.3c-9.6-1.2-19.1-3.3-28.3-6.2c-15.7-4.9-37.3-13-47.4-26.7c-0.7-1,0.1-2.8,1.4-2.5
				c7.6,2,14.2,6.2,21.4,9.4c8.4,3.7,17.1,6.8,26,9c7.9,2,16,3.6,24.1,4.5c7.9,0.9,18.8-1.2,25.7,2.7c2.9,1.6,4.7,6.5,1.1,8.6
				C285.3,135.3,276.4,133.3,268.4,132.3z"/>
			<path class="st12" d="M159.4,117.2c-1.9-1.4-0.1-4.4,2.1-3.5c35.1,13.5,70.5,24,108.4,24.1c7.1,0,5.6,11.1-1.5,11
				C230.2,148.5,190.8,139.8,159.4,117.2z"/>
			<path class="st12" d="M193.3,170.7c-10.8-3-21.1-6.9-30.9-12.3c-7.3-4-19.1-8.7-22.1-16.9c-0.3-0.8,0.2-1.9,1.1-2
				c8-0.6,16.4,5.9,23.6,8.8c9.8,3.9,19.9,7.4,30.1,10c9.3,2.3,18.9,4,28.5,4.9c5.5,0.5,11,0.8,16.5,0.8c5,0,9.2-0.8,13.7,1.5
				c3.3,1.6,4.9,7,1.2,9.3c-8.3,5.1-20.9,2.8-30.3,1.9C214.1,175.6,203.6,173.6,193.3,170.7z"/>
			<path class="st12" d="M172.4,200.2c-10.1-2.8-19.9-6.6-29.2-11.5c-6.9-3.7-17.8-9.3-20.3-17.1c-0.2-0.6,0.2-1.2,0.9-1.2
				c7.6,0.1,16.2,6.5,23.1,9.6c9.3,4.2,19.1,7.4,29.1,9.4c9.1,1.8,18.4,3.1,27.7,3.3c8.4,0.1,19.7-3.6,27.3-0.1
				c3.3,1.5,3.4,5.4,1,7.6c-6.5,6.1-20.1,4.5-28.5,4.3C193,204.3,182.6,203,172.4,200.2z"/>
			<path class="st12" d="M163.8,226.7c-16.5-4.4-31.4-12.1-43.3-24.3c-1.1-1.1,0.5-3.1,1.8-2.4c13.7,8,28.4,14.7,44.1,17.8
				c7.6,1.5,15.3,2.3,23.1,2.1c7.3-0.2,16-3.3,23.1-1.5c3.7,0.9,5.8,5.7,2.2,8.3c-6.2,4.5-15.1,3.8-22.5,3.8
				C182.5,230.4,173,229.1,163.8,226.7z"/>
			<path class="st12" d="M163.5,254c-11.4-1.7-23.1-5.1-31.6-13.2c-0.9-0.9-0.2-2.7,1.2-2.4c10.3,2.4,20.2,6.1,30.9,7
				c6.3,0.6,12.5,0.5,18.7-0.8c4.8-1,9.6-2.6,14.5-3c6.4-0.5,7.2,7.8,2.1,10.3C189.1,256.8,174.2,255.6,163.5,254z"/>
			<path class="st12" d="M163.3,278.4c-8.1,0-17.2-1.4-24.3-5.6c-1.8-1.1-0.7-4.2,1.4-3.9c7.4,1.2,14.4,3.1,22,3
				c7.2-0.1,14.9-3.8,21.9-2.8c1.9,0.3,2.5,2.4,1.2,3.7C180.4,278.2,170.3,278.3,163.3,278.4z"/>
			<path class="st12" d="M175.9,336.6c0.7,2.6,4.1,2.4,5,0.1c3.1-7.7,3.7-16.1,5.9-24.1c2.3-8.1,6.1-15.5,8.7-23.5
				c1.7-5.3-5.9-8.6-8.8-3.9c-4.8,7.8-7.3,17.3-9.2,26.1C175.6,319.6,173.9,328.3,175.9,336.6z"/>
		</g>
	</g>
	<path class="st13" d="M459.5,288l-1.2,41.7l30.2,0.7l1.3-18.6l10.3,20.5l17.6-4.3c0,0-17.3-19.3-9.7-27.5
		c7.6-8.2,25.1,20.3,25.1,20.3l16.8-12.1c-14.9-31.9-2.4-35-2.4-35c5.9-0.6,9.2,3.8,11.1,9.9c0,0,0,0,0,0c1.6,5.1,2.1,11.3,2.2,16.8
		c0.1,7.3-0.5,13.3-0.5,13.3c2.5-1.3,4.9-2.8,7-4.2c3.1-2.1,5.9-4.3,8.4-6.6c4.7-4.3,8.3-8.9,11-13.4c2-3.4,3.6-6.7,4.8-10
		c0.5-1.4,1-2.8,1.4-4.2c2-6.9,2.4-12.9,2.4-16.9c0-3.1-0.3-4.9-0.3-4.9l3.3,4.6l6.7,9.3l4,5.6c7-15.4,5-28.2,0.3-38
		c-0.8-1.6-1.6-3.1-2.5-4.6h0c-0.9-1.5-1.9-2.9-2.8-4.2c0,0,0,0,0,0c-8.4-6.9-17.3-13.2-27-17.8c-15.2-7.2-31.6-9.8-48.4-10.2
		c14.7,4.8,35.9,13.6,26.5,21.4c-13.8,11.7-45.3-18.1-45.3-18.1l-8.7,7.2l-8.6,7.1l-0.9,0.7l4.9,6.9l-19.2-0.1l-19.4,32.8
		c0,0,53.6,6.5,46,16.6c-0.5,0.6-1.1,1.2-1.7,1.7c0,0,0,0,0,0h0c-2.8,1.9-7,2.7-11.9,2.8c-13.2,0.3-30.3-4.5-30.3-4.5l-0.3,9.9
		L459.5,288z"/>
	<path class="st14" d="M51.1,85.8c-1.7,1-2.8,1.5-2.8,1.5l1.9,5.1v0l3.6,9.4l2.1,5.7l7.4-2.2l-3.4,10l-2.3,6.6l5.1,6l3.5,4.1
		l14,16.4c0,0,3.2-6.6,7.5-14.2c1.3-2.2,2.6-4.5,4-6.8c1.2-1.9,2.4-3.7,3.5-5.4h0c5.1-7.3,10.2-12.3,12.8-8.4
		c0.9,1.3,1.3,2.9,1.3,4.7c0,1.5-0.2,3.1-0.5,4.8c-2.6,12-13.8,28.4-13.8,28.4l32.8,12.3l9.8,3.7l6,2.2l0.2-0.5l1.7-4.5h0l7.7-20.8
		l-15.7-6.6l20.7-2.8l0.9-10.4l0.5-6.1c0,0-1,0.4-2.5,1c-5.9,2.1-20.2,6.4-24.1-0.7c-0.5-1-0.6-1.9-0.5-2.8
		c1.6-7.6,25.3-12.9,25.3-12.9l-0.6-2.1l-4.6-15v0l-0.3-0.9c-1.8,0.2-3.5,0.3-5,0.4c-26.8,1.8-25.9-8.7-25.9-8.7
		c2-8.7,13.8-7.4,23.8-4.6c1.9,0.5,3.8,1.1,5.5,1.7c5.2,1.8,9,3.6,9,3.6c-0.3-1.6-0.6-3.1-0.9-4.5c-3.3-3.6-6.3-7.5-9.4-11.3
		c0,0,0,0,0,0c-1.8-2.3-3.5-4.5-5.4-6.8v0c-10-12.6-20.3-24.3-35.5-28.1C98.1,23.2,87,25,75.9,26.1c-1.5,0.1-2.9,0.3-4.4,0.4
		c-1.2,0.1-2.3,0.2-3.5,0.2c-1.1,0-2.1,0.1-3.2,0.1c0,0,0,0,0,0c-11.2,8.5-20.4,21.9-20.4,21.9L44,80c0,0,5-7.7,11.3-15.3
		c2.2-2.6,4.5-5.3,6.8-7.5c0,0,0,0,0,0c6.4-6.4,12.7-10,15.2-3.6C81.5,64.2,65.9,76.4,56,82.8C54.1,84,52.4,85.1,51.1,85.8z"/>
	<path class="st12" d="M489.7,200.9c4.3,4.6,8.7,9.1,13.2,13.5c4.6,4.5,9.3,9,14.1,13.3c3.3,3,6.7,5.9,10,8.8
		c-4.5,6.7-6.4,15.2-5.6,23.3c0.2,1.8,0.4,3.6,0.9,5.3c0.4,1.5,0.8,3,1.3,4.4c0.3,0.9,0.7,1.8,1.1,2.6c1.1,2.4,3.2,7.3,6.4,7.4
		c3.1,0.1,4.8-4.1,5.9-6.4c1.4-2.8,2.4-5.8,3.2-8.8c0.4-1.5,0.6-3,0.8-4.6c0-0.2,0.1-0.4,0.1-0.6c0.4-3.8,0.3-7.6-0.3-11.3
		c3.3,2.6,6.7,5.2,10,7.7c1.5,1.1,2.9,2.2,4.4,3.3c3.9,2.9,7.9,5.7,11.8,8.4c-2,2.8-3.2,5.8-3.8,8.9c0,0,0,0,0,0
		c-1,5.1-0.2,10.5,2,15.3c1.4,3.1,3.4,5.9,6,8.2c0.9,0.8,1.8,1.5,2.8,2.2c1,0.7,2.6,0.5,3.1-0.8c0.8-2.4,1.5-4.9,1.9-7.5
		c1-6.6,0.5-13.5-1.8-19.7c3.9,2.6,7.8,5.1,11.8,7.5c8.2,5.1,16.6,10,25.1,14.6c-1.9,4.4-1.4,10.2-0.1,14.4
		c2.4,7.7,8.2,13.5,14.3,18.5c1.1,0.9,3.1,0.2,3.2-1.3c0.8-8.1-0.2-16.8-3.7-24.4c11.2,5.7,22.6,11.1,34.2,16
		c-3.1,4.2-3.9,10.2-2.9,15.2c1.8,8.4,8.5,14.7,14.9,19.9c1.2,0.9,2.8,0.2,3.1-1.2c0.9-4.7,1.1-9.6,0.4-14.4v0
		c-0.6-4.4-1.9-8.7-3.9-12.6v0c-0.5-0.9-1-1.8-1.5-2.7c6.5,2.7,13.1,5.2,19.7,7.6c10,3.6,20.1,7,30.2,10.2c-2.1,3.2-3,7.2-2.8,11
		c0,0.9,0.1,1.7,0.3,2.6c0.6,3,1.7,5.8,3.3,8.3v0c1.4,2.2,3.1,4.3,5,6.2c1.3,1.3,2.6,2.5,3.9,3.6c0.1,0.1,0.1,0.1,0.2,0.1
		c0.9,0.7,2.5,0.4,2.9-0.7c0.3-0.8,0.5-1.7,0.7-2.6c0.6-2.4,0.9-5,0.9-7.5c0-2-0.1-4-0.5-6l0,0c-0.7-4.2-2.3-8.3-4.8-11.8
		c0,0,0,0,0,0c-0.1-0.2-0.2-0.3-0.3-0.4c1.3,0.4,2.5,0.7,3.8,1.1c3.4,1,6.8,1.9,10.2,2.8c2.7,0.7,5.4,1.4,8.1,2.1
		c2.3,0.6,4.5,1.1,6.8,1.7c3.4,0.8,6.8,1.6,10.2,2.4c-2.6,4-0.6,11.5,0.8,15.6c0,0.1,0,0.1,0.1,0.2c1.2,3.5,3.4,7.7,6.3,10.9
		c2.2,2.4,4.8,4.3,7.8,4.9c6.6,1.4,4.8-9.8,4.1-13.4c-0.7-3.7-2-7.4-4-10.8c-1-1.7-2.1-3.3-3.4-4.8c1.9,0.4,3.7,0.8,5.6,1.2
		c3.4,0.7,6.9,1.4,10.3,2c3.5,0.7,7.1,1.3,10.6,1.9c3.2,0.6,6.4,1.1,9.6,1.6c1.1,0.2,2.2,0.4,3.4,0.5c0,4.1,1.1,8.1,3,11.8
		c1.1,2.1,2.5,4.1,4.1,5.9c2.4,2.6,8.5,8.3,12.8,7.9c0.3,0,0.6-0.1,0.8-0.2c4.5-1.5,1.1-10,0-12.8c-0.8-1.8-1.7-3.7-2.9-5.5
		c-1.2-1.8-2.5-3.5-4-5c1.4,0.2,2.9,0.4,4.3,0.6c2.6,0.4,5.3,0.7,8,1c4.9,0.6,9.8,1.1,14.7,1.6c1.3,0.1,2.5,0.3,3.8,0.4
		c3.3,0.3,6.6,0.6,9.8,0.9c6.7-4.4,14.5-7,22.7-8.5c-10.4-0.6-20.9-1.4-31.3-2.4c-2.1-0.2-4.2-0.4-6.3-0.6
		c-3.9-0.4-7.8-0.8-11.7-1.3c-1.4-0.2-2.7-0.3-4.1-0.5c1.7-1,3.3-2.3,4.7-3.7c0.1-0.1,0.3-0.3,0.4-0.4c3.5-3.6,7.7-9.8,7.1-14.9
		c-0.1-0.9-0.8-1.5-1.7-1.7c-0.1,0-0.2-0.1-0.3-0.1c-3.1-0.6-7.1,0.1-10.3,0.8c-0.6,0.1-1.1,0.2-1.6,0.4c-2.7,0.6-5.4,1.5-7.8,2.8h0
		c-0.8,0.4-1.5,0.9-2.2,1.4c-4.2,2.9-7.5,7.7-7.8,12.8c-1.6-0.2-3.1-0.5-4.7-0.7c-2.9-0.4-5.7-0.9-8.5-1.4c-3.7-0.6-7.4-1.3-11-1.9
		c-2.5-0.5-5-0.9-7.5-1.4c-1.8-0.4-3.7-0.7-5.5-1.1c2.9-1.5,5.6-3.5,8.1-5.8c3.9-3.7,7-8.1,9-12.6c0.5-1.1-0.3-2.8-1.6-2.9
		c-0.1,0-0.3,0-0.4,0c-10.7-0.5-25.9,4.6-28.8,15.9c-0.2,0.8-0.3,1.5-0.4,2.3c-0.8-0.2-1.6-0.4-2.4-0.6h0c-2.4-0.5-4.8-1.1-7.1-1.7
		c-6.3-1.5-12.6-3.1-18.9-4.8c0,0,0,0,0,0c-1-0.3-1.9-0.5-2.9-0.8c0.1,0,0.1-0.1,0.2-0.1c4.1-1.9,7.6-5,10.4-8.7
		c2.3-3,4-6.3,5.1-9.8c0.1-0.4,0.3-0.8,0.4-1.3c0.4-1.4-1.1-2.6-2.4-2.4c-0.4,0-0.9,0.1-1.3,0.1c-1.2,0.1-2.3,0.3-3.5,0.4h0
		c-0.7,0.1-1.4,0.2-2.1,0.3c-4.3,0.7-8.6,1.8-12.4,4h0c-1.5,0.8-2.9,1.8-4.2,2.9c-2.8,2.5-5.3,5.9-6.3,9.7c0,0,0,0,0,0.1
		c-12.1-3.7-24.1-7.8-35.9-12.2c-1.6-0.6-3.2-1.2-4.8-1.8c0.6-0.3,1.3-0.6,1.9-1c2.3-1.4,4.4-3.2,6.2-5.2c3.1-3.5,5.3-7.8,6.1-12.4
		c0.2-0.9-0.6-2.2-1.7-2.2c-5.4-0.2-10.9,0.8-15.9,2.9c-2.2,0.9-4.3,2-6.2,3.3c-3,2.1-5.6,4.6-7.7,7.6c-11.3-4.8-22.5-9.9-33.5-15.4
		c4.1-1.4,8.1-3.8,11.2-6.3c2.4-2,11.9-10.1,7.4-13.6c-2.4-1.9-8.1-0.2-10.7,0.2c-4.4,0.6-8.9,1.6-12.9,3.5
		c-3.8,1.9-7.5,4.8-9.9,8.5c-9-4.9-17.9-10.1-26.6-15.5c-0.3-0.2-0.6-0.4-0.9-0.5c-0.9-0.6-1.9-1.2-2.8-1.8c1.7-0.3,3.3-0.8,5-1.5
		c4.1-1.6,7.9-4.1,11-7.2c1.4-1.4,2.7-2.8,3.8-4.4c0.7-0.9,0.5-2.6-0.8-3.1c-2.9-1-6-1.3-9.2-1.1c-0.9,0.1-1.8,0.2-2.7,0.3
		c-6.8,1.1-13.3,4.7-17.8,9.9c-4.3-2.9-8.6-5.8-12.8-8.9c-1.5-1.1-3-2.1-4.5-3.2c-4.2-3.1-8.4-6.3-12.5-9.5c2.1-0.3,4.1-0.7,5.9-1.3
		c8.7-2.5,16.3-7.9,23.7-13c1.1-0.8,1-2.8-0.4-3.3c-13.8-4.6-33.1-4.8-45.6,4.2c-7.6-6.5-15-13.2-22.1-20.2
		c-2.8-2.7-5.5-5.4-8.2-8.2C498.3,200,494,200.4,489.7,200.9z"/>
	<path class="st15" d="M1.5,235.7c0.8,0,1.7,0,2.5,0c-0.6,0.4-1.1,0.9-1.7,1.4c-0.8,0.7-1.6,1.6-2.3,2.4l0,18.7
		c3.2-1.3,6.4-3.6,8.4-5.2h0c0.2-0.2,0.4-0.3,0.5-0.5c1-0.9,2-1.8,2.8-2.8c1.8-2,3.3-4.3,4.4-6.8c0.9-2.1,1.6-4.2,2-6.5
		c0.1-0.3,0.1-0.7,0.1-1c0.7,0,1.5-0.1,2.2-0.1c0.7,0,1.5-0.1,2.2-0.1c0,0,0,0,0,0c0.7,0,1.3-0.1,2-0.1c2-0.1,4-0.2,6.1-0.3
		c0,0,0,0,0,0c9.6-0.5,19.3-1.1,28.9-2c-3.4,3.1-6.1,7-8,11.2c-0.6,1.3-1.1,2.6-1.5,3.9c-0.1,0.2-0.1,0.3-0.2,0.5
		c-1.3,4.1-3.9,14.2,2.7,13.6c7.2-0.6,13.5-8.5,16.3-14.4c1.9-3.9,4.8-11.2,2.9-15.7c0-0.1-0.1-0.2-0.1-0.3c1.5-0.2,2.9-0.3,4.4-0.5
		c0.7-0.1,1.3-0.2,2-0.2c2.1-0.3,4.3-0.5,6.4-0.8c9.4-1.2,18.8-2.5,28.2-4.1c-3.9,4.1-6.4,9.4-7.5,15c-0.3,1.5-0.5,3-0.6,4.5
		c-0.2,3.1,0,6.1,0.6,9c0.3,1.2,1.9,1.7,2.9,1.1c3.8-2.5,7.5-5.3,10.4-8.9c1.2-1.5,2.3-3.1,3.2-4.8c0.5-1.1,1-2.2,1.4-3.4
		c1.4-4.6,1.2-9.9-0.9-14.2c7.6-1.4,15.2-2.9,22.8-4.6c1.6-0.3,3.2-0.7,4.8-1.1l0,0c1.5-0.3,3.1-0.7,4.6-1.1
		c0.3-0.1,0.6-0.1,0.9-0.2c1.6-0.4,3.2-0.8,4.8-1.2c0.3-0.1,0.5-0.1,0.8-0.2c4.9-1.2,9.7-2.5,14.6-3.8c-1.6,2-2.9,4.1-4.1,6.3
		c-0.7,1.4-1.4,2.8-1.9,4.3c-0.6,1.6-1.1,3.1-1.5,4.7c-0.1,0.3-0.2,0.7-0.2,1c-0.8,3.4-1.2,7-1.1,10.5c0,1,0.1,1.9,0.1,2.9
		c0.1,1.4,1.7,2.4,3,1.6c1.1-0.7,2.2-1.4,3.3-2.1c3.5-2.3,6.8-5,9.6-8.1c0.9-1,1.7-2.1,2.4-3.2c0.7-1.1,1.4-2.4,1.9-3.6
		c0.2-0.4,0.4-0.9,0.5-1.4c0.6-1.7,0.9-3.4,1.1-5.3c0.3-3.3-0.2-6.7-1.6-9.6c-0.2-0.3-0.4-0.7-0.5-1c5.2-1.5,10.4-3.1,15.6-4.8
		c0.2-0.1,0.5-0.1,0.7-0.2h0c2.9-0.9,5.7-1.9,8.6-2.9c1.7-0.6,3.4-1.2,5.1-1.8c2.3-0.8,4.6-1.6,6.9-2.5c-1.1,1.8-2.1,3.8-2.9,5.8
		c0,0.1-0.1,0.2-0.1,0.4c-0.2,0.5-0.4,0.9-0.5,1.4c-0.4,1.2-0.8,2.4-1.2,3.6c-0.5,1.8-0.9,3.6-1.2,5.4c-0.4,2.7-0.7,5.3-0.7,8
		c0,1.6,1.9,2.5,3.1,1.7c2.1-1.3,4.1-2.7,6.1-4.2c0.9-0.7,1.8-1.5,2.7-2.3c1.2-1.1,2.4-2.2,3.4-3.5c1.9-2.1,3.5-4.5,4.6-7.2
		c0.8-1.7,1.4-3.7,1.8-5.8c0.6-3,0.7-6.2-0.2-9c3.3-1.3,6.5-2.7,9.8-4c1.8-0.7,3.5-1.5,5.3-2.3c2.4-1,4.8-2.1,7.1-3.2
		c1.1-0.5,2.2-1,3.3-1.5c2.8-1.3,5.7-2.6,8.5-4c2.1-1,4.3-2.1,6.4-3.1c0,0,0.1,0,0.1,0c-0.1,0.1-0.1,0.2-0.1,0.3v0
		c-4.2,8.3-5.1,18.6-3.1,27.4c0,0,0,0,0,0c0,0,0,0.1,0,0.1c0.3,1.3,1.9,1.7,2.9,1.2c0,0,0.1,0,0.1,0c2.9-1.5,5.4-3.6,7.5-5.9
		c3-3.4,5.1-7.5,6.1-11.9c0.7-2.9,0.8-5.9,0.4-8.9c-0.3-1.8-0.7-3.6-1.4-5.4c-0.3-0.9-0.7-1.7-1.2-2.5c0.4-0.2,0.8-0.4,1.2-0.6
		c0.7-0.4,1.4-0.7,2.1-1.1c2-1.1,4.1-2.2,6.1-3.3c3.1-1.7,6.3-3.5,9.4-5.3c1.2-0.7,2.4-1.4,3.6-2.1h0c1.4-0.8,2.9-1.7,4.3-2.6
		c0.9-0.6,1.8-1.1,2.7-1.7c-1.1,3.9-1.7,8-1.7,12.2c0,4.8,0.8,9.7,2.4,14.2c0.1,0.2,0.2,0.5,0.3,0.7v0c0.8,2.5,2.1,6.2,5,6.5
		c0.1,0,0.3,0,0.4,0c0.7,0,1.3-0.3,1.9-0.6c0.7-0.4,1.4-1.1,2.1-1.8c0.2-0.3,0.4-0.5,0.7-0.8c1-1.3,1.8-2.6,2.4-3.5
		c2.3-3.7,4-7.9,4.9-12.2c0.2-1.2,0.4-2.3,0.6-3.5c0.6-5.3,0.2-10.9-1.4-16c-0.6-1.7-1.2-3.4-2.1-5c0.6-0.4,1.3-0.9,1.9-1.3
		c0.3-0.2,0.7-0.5,1-0.7c2.8-1.9,5.6-3.8,8.4-5.8c0.7-0.5,1.4-1,2.1-1.5c0.5-0.4,1-0.7,1.5-1.1c1.8-1.3,3.6-2.6,5.4-3.9
		c-0.4-0.8-0.7-1.6-1.1-2.4c-0.4-0.8-0.8-1.6-1.1-2.4c-0.7-1.4-1.3-2.8-2-4.2c-0.1-0.2-0.2-0.4-0.3-0.6c-0.2,0.1-0.3,0.2-0.5,0.4
		c-4.1,3-8.2,6-12.4,8.9c-0.3,0.2-0.5,0.4-0.8,0.6c-1.8,1.3-3.6,2.5-5.5,3.7c-0.5,0.4-1.1,0.7-1.6,1.1c-0.1-0.1-0.2-0.1-0.2-0.2
		c-1-0.9-2.1-1.8-3.3-2.6c-1.1-0.8-2.2-1.5-3.4-2.1c-1.7-1-3.6-1.8-5.5-2.5c-0.2-0.1-0.3-0.1-0.5-0.2c-2.2-0.8-4.4-1.5-6.7-2
		c-0.2,0-0.4-0.1-0.6-0.1c-3.2-0.7-6.5-1.1-9.7-1.3c-3.9-0.2-7.8-0.1-11.4,0.4c-1.6,0.2-3.3,0.4-4.8,0.8c-1.5,0.3-1.8,2.4-0.8,3.3
		c1.3,1.2,2.7,2.4,4.1,3.6c1.2,1.1,2.5,2.1,3.7,3.2c1.4,1.2,2.8,2.3,4.3,3.4c0.2,0.2,0.5,0.3,0.7,0.5c1.6,1.1,3.2,2.2,4.9,3.1
		c0,0,0.1,0,0.1,0.1c1.5,0.9,3,1.6,4.6,2.3c0.1,0,0.1,0.1,0.2,0.1c1.8,0.8,3.8,1.5,5.9,2c-2.2,1.3-4.3,2.6-6.5,3.9
		c-1.3,0.8-2.6,1.5-3.8,2.2c-1.4,0.8-2.9,1.6-4.3,2.4c-5.7,3.2-11.4,6.3-17.2,9.2c-0.4,0.2-0.8,0.4-1.3,0.6
		c-0.1-0.1-0.1-0.1-0.1-0.2c-0.9-1.3-1.9-2.6-3.1-3.8c-0.4-0.4-0.7-0.8-1.1-1.1c-6.6-6.2-16.2-9.6-24.9-7.9c-1.4,0.3-1.8,2-1.2,3
		c0.7,1.2,1.4,2.4,2.2,3.5c3.3,4.6,7.9,8.5,13.1,10.9c0.5,0.3,1,0.5,1.6,0.7c0.6,0.2,1.2,0.5,1.8,0.7c-1,0.5-2.1,1-3.1,1.5
		c-0.3,0.1-0.6,0.3-0.9,0.4c-1.8,0.9-3.6,1.7-5.5,2.5c-4.3,2-8.7,3.9-13.1,5.7c-1.1,0.5-2.2,0.9-3.3,1.4c-2.4,1-4.9,2-7.3,3
		c-0.4-0.9-1-1.8-1.5-2.6c-0.6-0.8-1.2-1.6-1.9-2.4c-1.7-1.9-3.6-3.5-5.6-4.8c-3.8-2.5-8.3-4-12.7-5.2c-2.6-0.7-8.3-3.1-10.9-1.5
		c-2.3,1.4-1.7,4.1-0.3,6.8c1.3,2.4,3.3,4.9,4.8,6.5c0.5,0.6,1,1.1,1.3,1.5c2.9,3,6.6,5.9,10.6,7.8c-1.8,0.7-3.6,1.3-5.4,1.9h0
		c-1.1,0.4-2.2,0.8-3.3,1.1c-1.2,0.4-2.5,0.8-3.7,1.3c-0.4,0.1-0.9,0.3-1.3,0.4c-7.4,2.4-14.9,4.8-22.4,6.9
		c-2.6-5-6.6-9.1-11.4-12.1c-2.4-1.5-5-2.7-7.7-3.7c-1.8-0.6-3.6-1.1-5.5-1.5c-1.4-0.3-2.8-0.5-4.2-0.6c-0.1,0-0.2,0-0.3,0
		c-0.9,0.1-1.7,1.2-1.6,2.1c0.1,0.9,0.2,1.9,0.3,2.8v0c0.3,1.8,0.8,3.5,1.5,5.1v0c0.1,0.3,0.3,0.7,0.4,1c1.6,3.6,4,6.9,6.9,9.5
		c1,0.9,2.1,1.7,3.2,2.4c-1.2,0.3-2.4,0.6-3.6,0.9c-3.5,0.9-7,1.7-10.5,2.5c-2.2,0.5-4.5,1-6.7,1.5c-3.1,0.7-6.2,1.3-9.4,2
		c0,0,0,0,0,0c-0.2,0-0.4,0.1-0.6,0.1c-3.2,0.6-6.4,1.3-9.6,1.8h0c-1,0.2-1.9,0.4-2.9,0.5c-0.1-0.4-0.1-0.8-0.2-1.2
		c-0.8-3.5-2.8-7-5-9.5c-2.1-2.4-4.6-4.2-7.3-5.6c-3-1.6-6.3-2.8-9.7-3.7c0,0,0,0,0,0c-1.9-0.5-3.9-1-5.8-1.4
		c-0.1,0-0.2-0.1-0.3-0.1c-1.3-0.3-2.9,0.7-2.7,2.2c1.2,8.8,6.4,17.5,14,22.2c-8.8,1.4-17.7,2.5-26.6,3.5c-1.9,0.2-3.8,0.4-5.7,0.6
		c-0.2,0-0.5,0.1-0.7,0.1c0-0.4,0-0.7,0-1.1c-0.3-5.6-3.4-10.2-7.8-13.6c-4.5-3.5-10.2-5.9-15.6-6.9c-1.6-0.3-3.2-0.5-4.7-0.6
		c-0.3,0-0.5,0-0.7,0.1c-1,0.4-1.6,1.6-1.3,2.6c2.6,7.8,8,16.1,15.2,20.9c-13,1.1-26,1.8-39,2.2c0.3-5.2-2.6-10.6-6.5-14
		c-2.6-2.3-5.7-3.9-8.9-5.2l0,29.9C0.5,235.7,1,235.7,1.5,235.7z"/>
	<path class="st11" d="M0,129.9c15.2,1,30.5,0.9,45.6-0.2c1-0.1,2.1-0.2,3.1-0.3c-0.1-6.8,0-13.7,0.3-20.6
		c0.3-5.5,0.6-10.9,1.2-16.3v0c0.3-2.2,0.5-4.4,0.8-6.6c1-7.1,2.4-14.2,4.2-21.2c3.5-13.4,8.7-26.3,16.2-38.2
		c1.5-0.1,2.9-0.2,4.4-0.4c-5.9,9.8-10.4,20.2-13.9,31c0,0,0,0,0,0c-2.7,8.3-4.6,16.9-6,25.6c-1,6.3-1.7,12.7-2.2,19.1
		c-0.1,1.5-0.2,3.1-0.3,4.6c-0.1,1.6-0.1,3.2-0.2,4.8c-0.2,5.9-0.3,11.8-0.2,17.7c3.2-0.3,6.4-0.7,9.7-1.1c4.5-0.6,8.9-1.3,13.4-2
		c6.4-1.1,12.8-2.4,19.2-4h0c4.7-1.1,9.4-2.4,14.1-3.7c14.5-4.2,28.7-9.3,42.5-15.4c-1.7-5.9-3.2-11.9-4.4-18
		c-0.9-4.4-1.6-8.8-2.1-13.3c-0.7-5.8-1.1-11.6-1.1-17.4c1.8,2.3,3.6,4.5,5.4,6.8c0,0,0,0,0,0c0.3,4.1,0.8,8.2,1.3,12.3
		c0.5,4,1.2,8,1.9,12v0c1,5.2,2.2,10.3,3.6,15.5c0.3-0.1,0.6-0.3,1-0.5c7.6-3.5,15-7.3,22.3-11.4c1.5,0.8,3,1.4,4.5,2
		c-8.6,5.1-17.5,9.7-26.6,14c3.1,10,6.9,19.8,11.4,29.3c1.7,3.6,3.5,7.1,5.4,10.5v0c3,5.6,6.3,11.1,9.8,16.4
		c3.8,5.7,7.8,11.2,12,16.5c3.4,4.2,6.9,8.3,10.5,12.2c0.5,0.6,1.1,1.2,1.6,1.7c2.6,2.8,5.3,5.5,8.1,8.2c1.2,1.1,2.3,2.2,3.5,3.3
		c0.1,0.1,0.2,0.2,0.3,0.3c3,2.8,6,5.4,9.2,8c0.8,0.7,1.7,1.4,2.5,2.1c0.6,0.5,1.3,1,1.9,1.5c1.5,1.2,3,2.3,4.5,3.5
		c1.9,1.4,3.8,2.8,5.7,4.2c1.8,1.3,3.6,2.6,5.5,3.9c1.6,1.1,3.2,2.1,4.8,3.2c2.8,1.8,5.6,3.6,8.5,5.3c5.3,3.2,10.7,6.2,16.2,9
		c1.6,0.8,3.3,1.7,4.9,2.5h0c3.3,1.6,6.7,3.2,10.1,4.7c5.2,2.3,10.5,4.5,15.9,6.5c2.7,1,5.4,2,8.1,3c6.8,2.4,13.7,4.5,20.7,6.4
		c3.1,0.9,6.3,1.7,9.5,2.4c3.7,0.9,7.3,1.7,11,2.4c2.8,0.6,5.6,1.1,8.5,1.6c2,0.3,3.9,0.7,5.9,1h0c1.5,0.2,3,0.5,4.5,0.7
		c2.5,0.4,5.1,0.7,7.6,1c4.4,0.5,8.8,1,13.2,1.3c9.2,0.7,18.4,1.1,27.7,1.1c6.5,0,13-0.2,19.5-0.6c0,0,0,0,0,0c9-0.5,18-1.4,27-2.6
		c9.4-1.3,18.7-2.9,27.9-4.9c3.6-0.8,7.2-1.6,10.8-2.6c0,0,0,0,0,0c0,0,0,0,0,0c3.2-0.8,6.4-1.7,9.6-2.6c0.3-0.1,0.6-0.2,0.9-0.3
		c6.4-1.8,12.6-3.8,18.8-6c3.3-1.2,6.5-2.4,9.8-3.6c3.7-1.4,7.4-2.9,11-4.5c15.7-6.7,30.8-14.6,45.4-23.4h0c0.4-0.2,0.8-0.5,1.1-0.7
		c1.3,1.1,2.5,2.2,3.7,3.3c-0.9,0.5-1.7,1.1-2.6,1.6c-13.8,8.6-28.4,16-43.3,22.4c-3.7,1.6-7.3,3.1-11,4.5c-5,2-10,3.8-15.1,5.5
		c-1.3,0.4-2.7,0.9-4,1.3c-4.2,1.4-8.3,2.7-12.6,3.9c-16.6,4.8-33.6,8.4-50.7,10.7c-5.4,0.7-10.8,1.3-16.3,1.8
		c-6,0.5-11.9,0.9-17.9,1.1c0,0,0,0,0,0c-9.1,0.3-18.2,0.3-27.3-0.1c-2.4-0.1-4.8-0.2-7.3-0.4c-4.6-0.3-9.1-0.7-13.7-1.1
		c-4.5-0.5-9-1-13.4-1.7c-1.5-0.2-3-0.4-4.5-0.7c-2.7-0.4-5.4-0.9-8.1-1.4c-2.7-0.5-5.4-1-8.1-1.6h0c-4.4-0.9-8.8-2-13.2-3.1
		c0,0,0,0,0,0c-3.1-0.8-6.3-1.6-9.4-2.5c0,0,0,0,0,0c-13.1-3.7-26-8.3-38.6-13.7c-2.8-1.2-5.5-2.4-8.2-3.7h0
		c-8.1-3.8-16-7.9-23.7-12.4c-2.9-1.7-5.7-3.4-8.5-5.1c-2-1.2-3.9-2.5-5.8-3.8c-2.9-1.9-5.8-3.9-8.7-6c-1.5-1.1-2.9-2.2-4.4-3.3
		c-1.5-1.1-3-2.3-4.5-3.5c-1-0.8-1.9-1.5-2.9-2.3c-1.5-1.2-3-2.5-4.5-3.7c-1.8-1.6-3.7-3.2-5.5-4.8c-1.6-1.4-3.1-2.9-4.7-4.4
		c-0.9-0.8-1.7-1.6-2.6-2.5c-2.7-2.7-5.4-5.4-8-8.2c-1.5-1.6-2.9-3.2-4.4-4.8c-3.6-4.1-7-8.3-10.3-12.7c-0.1-0.1-0.1-0.2-0.2-0.3
		c-11.9-15.8-21.8-33.2-29.2-51.5c-0.7-1.7-1.4-3.4-2-5.1c-0.8-2.2-1.6-4.4-2.4-6.7c-0.6-1.7-1.1-3.5-1.7-5.2
		c-6.7,3-13.5,5.8-20.5,8.4c-2.1,0.8-4.2,1.5-6.3,2.2c-5.8,2-11.6,3.8-17.5,5.5c-5.7,1.6-11.4,3-17.2,4.3c-3.5,0.8-7,1.5-10.4,2.2
		c-5,0.9-10,1.8-15.1,2.5c-4.3,0.6-8.7,1.1-13,1.6c0.2,7.3,0.6,14.6,1.1,21.9c1.1,14.8,3.1,29.7,8.4,43.7
		c2.9,7.7,7.2,15.2,12.7,21.8c2.8,3.4,5.9,6.6,9.2,9.3c6.2,5.1,13.2,9,20.7,10.9c5.2,1.3,10.8,1.7,16.4,0.9c2-0.3,4-0.7,6-1.3
		c5.3-1.5,10.2-4,14.5-7.3c5.5-4.2,10-9.6,13-15.9c0.8-1.7,1.5-3.5,2.1-5.3c0.6-2,1.2-4.1,1.5-6.3c0.2-1.1,0.3-2.2,0.4-3.3
		c0.1-1.5,0.2-3,0.2-4.5v0c0-2.2-0.2-4.3-0.6-6.4c-0.5-3.1-1.4-6.1-2.6-8.9c-1.8-3.9-4.3-7.5-7.6-10.5c-1.6-1.4-3.2-2.5-4.9-3.3
		c-2-1-4.1-1.5-6.1-1.7c-12.2-1.2-24.9,9.7-27,22.5c-0.3,1.7-0.3,3.5-0.1,5.3c0.9,7.3,5.9,14.2,14.1,13.9c3.2-0.1,5.8-1.5,7.5-3.5
		c0,0,0.1-0.1,0.1-0.1c1-1.2,1.7-2.6,2-4c0.7-3.1-0.1-6.6-3.1-9.2c-1.9-1.7,0.6-5,2.7-3.5c5.5,3.9,6.7,9.7,5,14.8
		c-1.1,3.4-3.5,6.6-6.8,8.6c0,0,0,0,0,0c-2.2,1.3-4.7,2.1-7.5,2.1c-0.9,0-1.8,0-2.7-0.1h0c-1.1-0.1-2.2-0.4-3.2-0.7
		c-6.8-2.1-11-8.2-12.4-15.2c-0.2-1.1-0.4-2.3-0.5-3.4c-0.3-4.4,0.5-9,2.3-13c1.3-2.8,3-5.4,5-7.8l0,0c0.7-0.9,1.5-1.7,2.3-2.4v0
		c3.5-3.5,7.7-6.2,12.2-7.8c5.6-1.9,11.8-2,17.7,0.9h0c0.1,0,0.1,0.1,0.2,0.1c8.1,4,13.4,11.4,16.2,19.7c1,3.2,1.7,6.5,2,9.8
		c0.2,2.3,0.3,4.6,0.2,6.9c-0.1,1.3-0.2,2.5-0.3,3.7c-0.5,4-1.5,7.8-2.9,11.5c-0.6,1.5-1.2,2.9-1.9,4.3c-0.2,0.5-0.5,0.9-0.7,1.4
		c-2.6,4.7-5.9,9-9.9,12.6c-3.7,3.4-8,6.2-12.8,8.3c-5.5,2.4-11.2,3.8-16.9,4c-4.6,0.2-9.3-0.2-13.9-1.3c-5.1-1.2-10.1-3.2-14.8-5.9
		c-4.4-2.6-8.3-5.5-11.8-8.7c-3.2-2.9-6-6.1-8.5-9.5c-0.3-0.3-0.5-0.7-0.7-1c-3-4.3-5.6-8.8-7.8-13.6c-8.7-19.1-11.1-41.8-12.1-62.5
		c-0.2-3.4-0.3-6.9-0.4-10.4c-16.2,1.4-32.6,1.6-48.8,0.6L0,129.9z"/>
	<path class="st11" d="M730.7,344.2c0,0.5,0.1,0.9,0.1,1.4c0.5,4.3,2.6,7.6,5.4,10.6c1.1,1.2,2.4,2.4,3.6,3.6
		c0.4,0.4,0.8,0.7,1.2,1.1c0.9,0.8,1.8,1.7,2.7,2.6c2.4,2.6,4.8,5.8,5.5,9c0.5,2.6,0,5.2-2.4,7.5c-1.4,1.3,0.4,3.4,2,2.6
		c4.9-2.7,5.5-7.9,4.1-12.9c-0.3-0.9-0.6-1.7-0.9-2.4c-1.2-2.5-2.8-4.5-4.7-6.4c-1.2-1.3-2.6-2.4-3.9-3.6c-0.5-0.4-1-0.9-1.4-1.3
		c-3-2.7-5.9-5.7-6.8-9.8c0-0.1,0-0.2-0.1-0.3c0-0.2-0.1-0.5-0.1-0.7c-0.4-3.4,0.8-6.8,2.4-9.7c0.6-1,1.2-2,1.9-2.9
		c2-2.9,4.4-5.4,6.9-7.9c2.7-2.7,5.4-5.4,7.7-8.3c0.4-0.5,0.8-1,1.2-1.5c0.1-0.2,0.3-0.4,0.4-0.5c2.5-3.6,4.3-7.7,4.7-11.9
		c0.2-2.1,0-4.3-0.8-6.5c-1.5-4.4-4.9-7.6-8.4-10.5c0,0,0,0,0,0c-0.8-0.7-1.6-1.3-2.5-2c-4.5-3.6-7.8-7.5-9.2-12.3
		c-1.3,0.1-2.6,0.2-3.9,0.3c0.2,0.9,0.4,1.8,0.7,2.7c0.1,0.2,0.2,0.4,0.3,0.7c4,10.2,18.4,15.1,19.7,25.2c0.3,2.5-0.2,5.4-1.9,8.8
		c-1.1,2.1-2.4,4-4,5.9c-0.3,0.3-0.6,0.7-0.8,1c-2.1,2.4-4.5,4.8-6.9,7.2c-3.6,3.7-7.2,7.5-9.4,11.8
		C731.5,337.3,730.6,340.6,730.7,344.2z"/>
	<g>
		<path class="st8" d="M38.4,622.3c10,13.5,24.8,15.9,39.5,12.8c3.8-0.8,7.5-1.9,11.1-3.3c7.8-3,15.2-7.2,21.3-11.7
			c5.8-4.2,11.1-9,15.9-14.1c1.9-2,3.7-4,5.4-6.1c11.5-13.7,20.4-29.6,27.9-45.9c10.1-21.8,17.8-46,30.2-66.8c1.3-2.1,2.6-4.2,4-6.3
			c1-1.5,2-2.9,3-4.3c6.6-9,14.7-17.2,24.8-21.7c-0.3,12.7,3.5,25.5,8.3,37.5c2.4,5.8,5,11.5,7.9,17.1c-0.2,3.2-0.5,6.5-0.9,9.7
			c-2.9,23.1-9.2,45.5-9.9,68.9c-0.7,21.5,2.4,43.1,8.7,63.6c4.4,14.2,10.4,28,17.9,40.8c2,3.5,4.2,6.9,6.4,10.2
			c1.6,2.3,3.2,4.6,4.9,6.8c1.6,2.2,3.4,4.3,5.3,6.5c4.8,7.2,10.7,14,17.8,18.7c6.8,4.4,19,8.1,24.8,0.1c2.4-3.3,2.3-6.5,1-9.2
			c0-0.7-0.3-1.3-0.8-1.8c-18.2-16.2-31.7-37.4-39.2-60.9c-7.6-23.8-8.2-48.1-3.8-72.5c13.6,32.7,28,65.2,43,97.2
			c5.2,11,11.1,22.1,20.3,30.1c6.6,5.8,16.6,11.1,25.3,6.9c10.7-5.2,6.6-17.9,1-25.4c-4.4-5.9-9.7-11-14.3-16.7
			c-4.3-5.4-8.3-11-11.9-16.9c-16.4-26.7-20.9-56.8-14.7-87.5c6-29.8,20.2-56.7,34.3-83.1c13.7,5.4,28.2,9.3,42.5,13
			c23.4,7.1,47.5,11.5,71.9,14c10,1.3,20,2.3,30.1,3.1c15.5,1.2,31.1,1.8,46.7,1.8c8.3,0,16.6-0.2,24.9-0.6
			c6.4-0.3,13.1-0.1,19.5-1.3c3,17.1,6.7,34,11.2,50.8c5.5,20.5,12.2,40.9,20,60.7c1.2,3,2.4,5.9,3.6,8.9c2.8,6.7,5.7,13.3,8.8,19.9
			c3.5,7.4,7.3,14.7,11.7,21.7c1.3,3.1,2.7,6.3,4.2,9.3c5.9,12.1,15.1,27.8,31.1,25.5c6.4-0.9,9.7-7.1,5.3-12.4
			c-2.2-2.7-5.3-4.7-7.8-7.2c-2.8-2.8-5.5-5.9-7.8-9.2c-1.1-1.5-2.1-2.9-3-4.4c-6.9-14.5-12.3-29.6-16.1-45.3
			c-1.2-4.8-2.2-9.6-3-14.4c-0.8-4.4-1.5-8.9-2-13.4c0-0.5-0.1-0.9-0.1-1.4c-0.1-2.2-0.2-4.3-0.3-6.5c-0.4-11.3-0.3-22.5,0.1-33.8
			c0.2-5.9,0.6-11.8,1.1-17.7c0.1-0.6,0.1-1.2,0.2-1.9c5-8.4,7.9,10.7,8.3,13c2.1,12.4,4.5,24.7,7.4,37c2.3,9.7,4.8,19.3,7.5,28.9
			c0.9,2.9,1.7,5.9,2.6,8.8c3.9,12.9,8.3,25.6,13.3,38.1c0.7,1.7,1.3,3.3,2.1,5c0.9,3.2,2.1,6.4,3.7,9.4c4.5,8.8,13,16.6,23,18.3
			c4.2,0.7,10,0.7,13.2-2.6c3.4-3.4,1.8-8.1-1-11.3c-1.9-2.1-3.9-4-5.9-5.9c-11.9-19-20.9-39.7-26.5-61.5
			c-11.8-45.8-7.8-95,10.8-138.2c4.4-10.3,9.5-20.9,15.9-30c2-2.8,5.6-7.1,9.4-5c2.1,1.2,3.1,4.1,3.9,6.2c1.3,3.4,2.3,7,4.5,10
			c4.3,5.8,11.6,8,19,5c0,0,0,0,0,0c1.1-0.5,2.3-1,3.4-1.7c8.9-5.5,17.5-18.6,21-42.1c0.4-3.1,0.8-6.1,1-9.2
			c1.9-8.5,3.2-17.1,3.9-25.8c0.4-3.5,0.6-7.1,0.6-10.8c0.2-7.3-0.1-14.7-0.8-22c-0.2-1.9-0.4-3.8-0.6-5.8c1.2-2.8,2-5.7,2.1-8
			c0.2-3.5-0.9-6.9-3-9.5c-1.4-1.7-3.2-3-5.5-3.7c-10.2-3.3-16.4,8.3-16.5,17.9c-4.3,1.5-8.9,1.8-13.4,0.7c-3.2-0.8-6.1-2.3-8.7-4.2
			c-1.5-9-4.1-19.4-11.4-24.2c-0.3-0.3-0.7-0.6-1.1-0.7c-1.6-0.9-3.5-1.5-5.6-1.8c-11.3-1.6-18.8,8.5-17.6,18.3
			c-9.1,1.7-19.3,0.4-27.8-2c-9.8-2.8-19.4-6.6-29.3-9.3c-10.1-2.8-20.3-4.9-30.6-6.3c-24.6-3.3-48.9-2.3-73,1.8
			c-1.8,0.2-3.7,0.6-5.5,1c-10.1,1.9-20.1,4.4-30.1,7.2c-14.6,4.2-28.9,8.9-43.3,13.6c-25.5,6-50.8,12.6-76,19.4
			c-52.7,8.4-113.5,12-153.9,49c-2.5,1.5-5,3-7.4,4.5c-10.5,6.5-21,13.2-29.9,21.8c-8.3,8-14.9,17.8-20.4,27.9
			c-1.2,2.2-2.5,4.6-3.7,6.9c-3.1,5.5-5.9,11.2-8.5,16.9c-1.1,2.4-2.2,4.8-3.2,7.2c-1.8,4.1-3.5,8.1-5.2,12.1c-4,9.4-8,19-12.3,28.3
			c-1.1,2.3-2.2,4.7-3.3,7c-5.8,11.8-12.4,23.1-20.7,33.2c-0.7,0.8-1.3,1.6-2,2.4c-3,3.6-6.3,6.9-9.7,10c-4.5,4.1-9.4,7.8-14.6,11
			c-9,5.4-21.1,10.4-31.8,8.7c-11.9-2-16.6-16.6-19.3-27c-1.5-5.8-5.6-26.6,2.8-28.4c4.8,3.5,13,1.6,12.2-6c-0.1-1-0.2-2-0.3-3
			c-0.3-2.8-1.8-6-4.6-7.1c-7.9-3.3-16.6-0.6-22.3,5.9c-3,3.5-4.8,7.6-5.8,12c-0.7,3.1-1,6.4-1,9.6c0,0.1,0,0.1,0,0.2
			C24.3,591,29,609.6,38.4,622.3z M671.8,710.4c0-0.1,0.1-0.2,0.1-0.3c0.2,0.2,0.5,0.4,0.7,0.6c0.1,0.2,0.2,0.4,0.3,0.6
			C672.6,710.9,672.2,710.7,671.8,710.4z M512.8,342.4c2.2-0.6,4.4-1.2,6.7-1.8c-0.3,0.3-0.7,0.5-1.1,0.8c-0.8,0.2-1.7,0.3-2.5,0.5
			C514.9,342,513.8,342.2,512.8,342.4z M316.1,568.5c0.3-2,0.7-4.1,1-6.1c0.7-1.6,1.4-3.2,2.1-4.8
			C318.1,561.2,317.1,564.8,316.1,568.5z M317.6,687.4c0.4,0.7,0.9,1.3,1.3,1.9c0,0.3,0,0.5,0,0.7
			C318.4,689.2,318,688.3,317.6,687.4z"/>
		<path class="st4" d="M628.9,356.2c0.4-1.7,1.9-2.6,3.4-2.7c1.6-2.3,5.2-3.6,7.7-3.2c1.6,0.3,3,1.1,4,2.2c0.5,0,1.1,0.2,1.5,0.5
			c1.1,0.8,1.8,1.9,1.9,3.4c0.1,1.3-0.1,2.7-0.7,3.8c-0.4,0.9-1,1.6-1.8,2.1c-1.8,2.8-5.4,4.3-8.7,3.8
			C631.8,365.6,627.9,360.8,628.9,356.2z"/>
		<path class="st4" d="M254.9,429.9c0.4-1.7,1.9-2.6,3.4-2.7c1.6-2.3,5.2-3.6,7.7-3.2c1.6,0.3,3,1.1,4,2.2c0.5,0,1.1,0.2,1.5,0.5
			c1.1,0.8,1.8,1.9,1.9,3.4c0.1,1.3-0.1,2.7-0.7,3.8c-0.4,0.9-1,1.6-1.8,2.1c-1.8,2.8-5.4,4.3-8.7,3.8
			C257.8,439.3,253.9,434.4,254.9,429.9z"/>
		<path class="st4" d="M619.4,430.1c1-2.5,3.8-4.8,6.4-4.7c1.4,0,2.7,0.4,3.8,1.2c0.1,0.1,0.3,0.1,0.4,0.2c1.2,0.6,2,1.7,2.4,2.9
			c1.5,2.5,1.1,5.8-0.8,8.1c-2.2,2.7-6.2,3.2-9.2,1.4C619.4,437.3,618,433.6,619.4,430.1z"/>
		<path class="st4" d="M658,574.6c1-2.5,3.8-4.8,6.4-4.7c1.4,0,2.7,0.4,3.8,1.2c0.1,0.1,0.3,0.1,0.4,0.2c1.2,0.6,2,1.7,2.4,2.9
			c1.5,2.5,1.1,5.8-0.8,8.1c-2.2,2.7-6.2,3.2-9.2,1.4C657.9,581.8,656.5,578.1,658,574.6z"/>
		<path class="st4" d="M611.9,543.7c1-2.5,3.8-4.8,6.4-4.7c1.4,0,2.7,0.4,3.8,1.2c0.1,0.1,0.3,0.1,0.4,0.2c1.2,0.6,2,1.7,2.4,2.9
			c1.5,2.5,1.1,5.8-0.8,8.1c-2.2,2.7-6.2,3.2-9.2,1.4C611.8,550.9,610.4,547.2,611.9,543.7z"/>
		<path class="st4" d="M262.1,503.3c1-2.5,3.8-4.8,6.4-4.7c1.4,0,2.7,0.4,3.8,1.2c0.1,0.1,0.3,0.1,0.4,0.2c1.2,0.6,2,1.7,2.4,2.9
			c1.5,2.5,1.1,5.8-0.8,8.1c-2.2,2.7-6.2,3.2-9.2,1.4C262,510.5,260.6,506.7,262.1,503.3z"/>
		<path class="st4" d="M641.5,627.7c1.6,1,3.5,1.3,5.2,0.9c-0.8-4.4-1.5-8.9-2-13.4c0-0.5-0.1-0.9-0.1-1.4c-2.6-0.1-5.3,2.2-6.3,4.7
			C637,622.1,638.3,625.8,641.5,627.7z"/>
		<path class="st4" d="M521.4,437.8c0.2-1.1,1.2-2.4,2.3-2.6c1.2-0.3,2.4-0.4,3.6-0.5c1.8-0.2,3.7,1.4,3.8,3.2
			c1.1,1,1.6,2.7,1.3,4.2c-0.4,2.2-2.2,3.7-4.3,4C523.6,446.6,520.9,441.9,521.4,437.8z"/>
		<path class="st4" d="M607.7,575.4c0.2-1.1,1.2-2.4,2.3-2.6c1.2-0.3,2.4-0.4,3.6-0.5c1.8-0.2,3.7,1.4,3.8,3.2
			c1.1,1,1.6,2.7,1.3,4.2c-0.4,2.2-2.2,3.7-4.3,4C609.9,584.2,607.2,579.5,607.7,575.4z"/>
		<g>
			<path class="st4" d="M499.9,388.8c2.9,1.5,6.8,0.7,8.8-2c2.2-2.9,1.6-7-0.9-9.5c-0.5-0.5-1-0.6-1.5-0.7c-3.4-1.6-7.8-0.4-9.4,3.2
				C495.4,383.3,496.6,387.2,499.9,388.8z M502.8,383.2c0-0.1,0-0.2,0-0.2c0,0,0,0,0-0.1c0,0,0,0,0-0.1c0.3,0.1,0.8,0.2,1.3,0.3
				c0,0,0,0-0.2,0.1c0.1-0.1-0.2,0-0.3,0.1c-0.1,0-0.4,0-0.5,0c0,0-0.1,0-0.1,0c-0.1,0-0.1,0-0.1-0.1c0,0,0,0.1,0,0.1
				c0,0-0.1-0.1-0.1-0.1C502.8,383.3,502.8,383.3,502.8,383.2C502.8,383.3,502.8,383.2,502.8,383.2L502.8,383.2
				C502.8,383.2,502.8,383.2,502.8,383.2z"/>
			<path class="st4" d="M502.8,383.3C502.8,383.3,502.8,383.2,502.8,383.3C502.8,383.2,502.8,383.2,502.8,383.3
				C502.8,383.2,502.8,383.3,502.8,383.3C502.8,383.3,502.8,383.3,502.8,383.3C502.8,383.3,502.8,383.3,502.8,383.3z"/>
		</g>
		<path class="st4" d="M561.4,386.9c1.4-1.3,3.2-2,5.1-1.5c1.7,0.4,3.1,1.8,3.7,3.5c0.5,1.5,0.4,3.3-0.4,4.6c-0.4,0.7-1,1.3-1.7,1.8
			c-0.9,0.6-1.7,0.6-2.5,0.5c-1,0.1-2,0-3-0.5C559.2,393.7,558.9,389.4,561.4,386.9z"/>
		<path class="st4" d="M446.5,435.5c3.1-1.2,7,0,8.8,2.8c0.6,1,0.7,2.2,0.3,3.3c0.6,3.1-2.1,6.3-5.1,7c-3.5,0.8-7-1.3-8-4.7
			C441.5,440.4,443.1,436.8,446.5,435.5z"/>
		<path class="st4" d="M411.9,486.1c3.1-1.2,7,0,8.8,2.8c0.6,1,0.7,2.2,0.3,3.3c0.6,3.1-2.1,6.3-5.1,7c-3.5,0.8-7-1.3-8-4.7
			C406.9,491.1,408.5,487.5,411.9,486.1z"/>
		<path class="st4" d="M306.5,635.8c3.1-1.2,7,0,8.8,2.8c0.6,1,0.7,2.2,0.3,3.3c0.6,3.1-2.1,6.3-5.1,7c-3.5,0.8-7-1.3-8-4.7
			C301.6,640.8,303.1,637.1,306.5,635.8z"/>
		<path class="st4" d="M292.9,461.4c3.1-1.2,7,0,8.8,2.8c0.6,1,0.7,2.2,0.3,3.3c0.6,3.1-2.1,6.3-5.1,7c-3.5,0.8-7-1.3-8-4.7
			C288,466.3,289.5,462.7,292.9,461.4z"/>
		<path class="st4" d="M244.3,448c3.1-1.2,7,0,8.8,2.8c0.6,1,0.7,2.2,0.3,3.3c0.6,3.1-2.1,6.3-5.1,7c-3.5,0.8-7-1.3-8-4.7
			C239.3,453,240.9,449.4,244.3,448z"/>
		<path class="st4" d="M253.6,692.3c2,3.5,4.2,6.9,6.4,10.2c0.4,0,0.7-0.1,1.1-0.2c3-0.7,5.7-3.9,5.1-7c0.4-1.1,0.3-2.2-0.3-3.3
			c-1.7-2.9-5.7-4.1-8.8-2.8C255.5,689.8,254.3,690.9,253.6,692.3z"/>
		<path class="st4" d="M293.6,714.1c3.1-1.2,7,0,8.8,2.8c0.6,1,0.7,2.2,0.3,3.3c0.6,3.1-2.1,6.3-5.1,7c-3.5,0.8-7-1.3-8-4.7
			C288.6,719.1,290.2,715.4,293.6,714.1z"/>
		<path class="st4" d="M417.4,427.1c0.8-3.5,5.6-5.3,8.4-2.9c1,0.8,1.6,2.1,1.3,3.4c0.5,2.7-1.3,5.5-4.2,5.8
			C419.6,433.9,416.7,430.3,417.4,427.1z"/>
		<path class="st4" d="M567.5,419.7c0.8-3.5,5.6-5.3,8.4-2.9c1,0.8,1.6,2.1,1.3,3.4c0.5,2.7-1.3,5.5-4.2,5.8
			C569.6,426.4,566.7,422.9,567.5,419.7z"/>
		<path class="st4" d="M529.5,423.9c0.6-2.4,3.9-3.7,5.8-2c0.7,0.6,1.1,1.5,0.9,2.3c0.3,1.8-0.9,3.8-2.9,4
			C531,428.5,528.9,426,529.5,423.9z"/>
		<path class="st4" d="M599.6,411.1c0.6-2.4,3.9-3.7,5.8-2c0.7,0.6,1.1,1.5,0.9,2.3c0.3,1.8-0.9,3.8-2.9,4
			C601.1,415.8,599.1,413.3,599.6,411.1z"/>
		<path class="st4" d="M686.4,400.6c0.6-2.4,3.9-3.7,5.8-2c0.7,0.6,1.1,1.5,0.9,2.3c0.3,1.8-0.9,3.8-2.9,4
			C687.9,405.2,685.9,402.7,686.4,400.6z"/>
		<path class="st4" d="M620.5,508.3c0.6-2.4,3.9-3.7,5.8-2c0.7,0.6,1.1,1.5,0.9,2.3c0.3,1.8-0.9,3.8-2.9,4
			C622.1,513,620,510.5,620.5,508.3z"/>
		<path class="st4" d="M362.3,391c0.6-2.4,3.9-3.7,5.8-2c0.7,0.6,1.1,1.5,0.9,2.3c0.3,1.8-0.9,3.8-2.9,4
			C363.8,395.7,361.8,393.2,362.3,391z"/>
		<path class="st4" d="M325.3,497.1c0.6-2.4,3.9-3.7,5.8-2c0.7,0.6,1.1,1.5,0.9,2.3c0.3,1.8-0.9,3.8-2.9,4
			C326.8,501.7,324.7,499.2,325.3,497.1z"/>
		<path class="st4" d="M574.6,345.3c0.8-3.5,5.6-5.3,8.4-2.9c1,0.8,1.6,2.1,1.3,3.4c0.5,2.7-1.3,5.5-4.2,5.8
			C576.8,352.1,573.9,348.5,574.6,345.3z"/>
		<path class="st4" d="M617.3,399.2c0.8-3.5,5.6-5.3,8.4-2.9c1,0.8,1.6,2.1,1.3,3.4c0.5,2.7-1.3,5.5-4.2,5.8
			C619.5,405.9,616.5,402.4,617.3,399.2z"/>
		<path class="st4" d="M620.8,482.6c0.8-3.5,5.6-5.3,8.4-2.9c1,0.8,1.6,2.1,1.3,3.4c0.5,2.7-1.3,5.5-4.2,5.8
			C623,489.3,620,485.8,620.8,482.6z"/>
		<path class="st4" d="M711.2,436.9c0.8-3.5,5.6-5.3,8.4-2.9c1,0.8,1.6,2.1,1.3,3.4c0.5,2.7-1.3,5.5-4.2,5.8
			C713.4,443.7,710.5,440.1,711.2,436.9z"/>
		<path class="st4" d="M459.1,490.2c0.8-3.5,5.6-5.3,8.4-2.9c1,0.8,1.6,2.1,1.3,3.4c0.5,2.7-1.3,5.5-4.2,5.8
			C461.3,497,458.4,493.4,459.1,490.2z"/>
		<path class="st4" d="M378.5,442.4c2.6-1.6,6.6-1.3,8.1,1.5c1.6-0.3,3.4,0.5,3.3,2.4c-0.1,3.2-1.7,6.1-4.8,7.3
			c-3.1,1.2-6.9-0.1-8.6-3C374.9,447.7,375.6,444.2,378.5,442.4z"/>
		<path class="st4" d="M490.9,477.8c2.6-1.6,6.6-1.3,8.1,1.5c1.6-0.3,3.4,0.5,3.3,2.4c-0.1,3.2-1.7,6.1-4.8,7.3
			c-3.1,1.2-6.9-0.1-8.6-3C487.3,483.1,488.1,479.6,490.9,477.8z"/>
		<path class="st4" d="M537,510.6c-3.1-0.2-6.2-2.7-5.8-5.9c-1.5-0.6-2.5-2.4-1.4-3.9c1.9-2.6,4.9-4,8.1-3.2
			c3.3,0.8,5.6,4.1,5.3,7.4C543,508.3,540.4,510.7,537,510.6z"/>
		<path class="st4" d="M411.9,388.9c-0.4,3.1-3.2,5.9-6.4,5.3c-0.7,1.4-2.6,2.3-4,1c-2.4-2.1-3.6-5.2-2.6-8.4c1-3.2,4.5-5.3,7.8-4.7
			C410.1,382.8,412.3,385.6,411.9,388.9z"/>
		<path class="st4" d="M557.1,351.2c-0.4,3.1-3.2,5.9-6.4,5.3c-0.7,1.4-2.6,2.3-4,1c-2.4-2.1-3.6-5.2-2.6-8.4c1-3.2,4.5-5.3,7.8-4.7
			C555.4,345,557.6,347.8,557.1,351.2z"/>
		<path class="st4" d="M300.3,398.8c2.6-1.6,6.6-1.3,8.1,1.5c1.6-0.3,3.4,0.5,3.3,2.4c-0.1,3.2-1.7,6.1-4.8,7.3
			c-3.1,1.2-6.9-0.1-8.6-3C296.7,404.2,297.4,400.6,300.3,398.8z"/>
		<path class="st4" d="M597.8,510.4c2.6-1.6,6.6-1.3,8.1,1.5c1.6-0.3,3.4,0.5,3.3,2.4c-0.1,3.2-1.7,6.1-4.8,7.3
			c-3.1,1.2-6.9-0.1-8.6-3C594.2,515.8,595,512.2,597.8,510.4z"/>
		<path class="st4" d="M370.5,422.5c1.2-0.5,3-0.1,3.9,0.8c0.5,0.5,0.9,1.1,1.1,1.8c1.2,0.8,1.8,2.4,1.1,3.7
			c-0.8,1.7-2.6,2.7-4.5,2.5c-1.9-0.1-3.6-1.4-4.1-3.3C367.5,426,368.3,423.4,370.5,422.5z"/>
		<path class="st4" d="M186.4,484c0.4,1.6,1.8,2.8,3.4,3.2c1.3-2.1,2.6-4.2,4-6.3c-0.2-0.7-0.5-1.2-1-1.7c-1-0.9-2.7-1.3-3.9-0.8
			C186.6,479.2,185.8,481.8,186.4,484z"/>
		<path class="st4" d="M435.1,376.5c1.2-0.5,3-0.1,3.9,0.8c0.5,0.5,0.9,1.1,1.1,1.8c1.2,0.8,1.8,2.4,1.1,3.7
			c-0.8,1.7-2.6,2.7-4.5,2.5c-1.9-0.1-3.6-1.4-4.1-3.3C432.1,380,432.9,377.4,435.1,376.5z"/>
		<path class="st4" d="M309.2,421.7c1.2-0.5,3-0.1,3.9,0.8c0.5,0.5,0.9,1.1,1.1,1.8c1.2,0.8,1.8,2.4,1.1,3.7
			c-0.8,1.7-2.6,2.7-4.5,2.5c-1.9-0.1-3.6-1.4-4.1-3.3C306.2,425.2,307,422.6,309.2,421.7z"/>
		<path class="st4" d="M162.2,506.3c0.8,1.1,2.1,1.8,3.4,1.9c1.8,0.1,3.7-0.9,4.5-2.5c0.7-1.4,0.1-2.9-1.1-3.7
			c-0.2-0.7-0.5-1.3-1.1-1.8c-0.6-0.6-1.5-0.9-2.5-1C164.3,501.5,163.3,503.9,162.2,506.3z"/>
		<path class="st4" d="M151.1,538.7c1.2-0.5,3-0.1,3.9,0.8c0.5,0.5,0.9,1.1,1.1,1.8c1.2,0.8,1.8,2.4,1.1,3.7
			c-0.8,1.7-2.6,2.7-4.5,2.5c-1.9-0.1-3.6-1.4-4.1-3.3C148.1,542.1,148.9,539.6,151.1,538.7z"/>
		<path class="st4" d="M36.2,593.9c1.2-0.5,3-0.1,3.9,0.8c0.5,0.5,0.9,1.1,1.1,1.8c1.2,0.8,1.8,2.4,1.1,3.7
			c-0.8,1.7-2.6,2.7-4.5,2.5c-1.9-0.1-3.6-1.4-4.1-3.3C33.1,597.3,33.9,594.7,36.2,593.9z"/>
		<path class="st4" d="M141.3,553.7c0.8,1.2,2.1,2,3.6,2.1c1.8,0.1,3.6-0.9,4.5-2.5c0.7-1.4,0.1-2.9-1.1-3.7
			c-0.2-0.7-0.5-1.3-1.1-1.8c-0.6-0.6-1.6-1-2.5-1C143.6,549.1,142.5,551.4,141.3,553.7z"/>
		<path class="st4" d="M126.9,597.8c1.2-0.5,3-0.1,3.9,0.8c0.5,0.5,0.9,1.1,1.1,1.8c1.2,0.8,1.8,2.4,1.1,3.7
			c-0.8,1.7-2.6,2.7-4.5,2.5c-1.9-0.1-3.6-1.4-4.1-3.3C123.9,601.2,124.7,598.7,126.9,597.8z"/>
		<path class="st4" d="M502.2,504.5c1.2-0.5,3-0.1,3.9,0.8c0.5,0.5,0.9,1.1,1.1,1.8c1.2,0.8,1.8,2.4,1.1,3.7
			c-0.8,1.7-2.6,2.7-4.5,2.5c-1.9-0.1-3.6-1.4-4.1-3.3C499.2,507.9,500,505.3,502.2,504.5z"/>
		<path class="st4" d="M476.9,399.8c1.2-0.5,3-0.1,3.9,0.8c0.5,0.5,0.9,1.1,1.1,1.8c1.2,0.8,1.8,2.4,1.1,3.7
			c-0.8,1.7-2.6,2.7-4.5,2.5c-1.9-0.1-3.6-1.4-4.1-3.3C473.8,403.2,474.6,400.7,476.9,399.8z"/>
		<path class="st4" d="M506.2,346.8c1.2-0.5,3-0.1,3.9,0.8c0.5,0.5,0.9,1.1,1.1,1.8c1.2,0.8,1.8,2.4,1.1,3.7
			c-0.8,1.7-2.6,2.7-4.5,2.5c-1.9-0.1-3.6-1.4-4.1-3.3C503.2,350.2,504,347.7,506.2,346.8z"/>
		<path class="st4" d="M688.4,477.9c1.2-0.5,3-0.1,3.9,0.8c0.5,0.5,0.9,1.1,1.1,1.8c1.2,0.8,1.8,2.4,1.1,3.7
			c-0.8,1.7-2.6,2.7-4.5,2.5c-1.9-0.1-3.6-1.4-4.1-3.3C685.4,481.4,686.2,478.8,688.4,477.9z"/>
		<path class="st4" d="M343.1,448.9c2.3-2.9,7.6-4.5,10.2-1.1c0.2,0.2,0.3,0.5,0.4,0.8c0,0,0,0,0.1,0c3.9,1.4,2.8,7.5,0.8,9.9
			c-2.6,3.2-7.2,3.2-10.3,0.7C341.2,456.7,340.6,452,343.1,448.9z"/>
		<path class="st4" d="M301.2,536c-0.3,0.4-0.1-0.3-0.1-0.1c0-0.6,0-1.3-0.1-1.9c-0.1-1.2-0.2-2.5,0.1-3.7c0.6-3.2,3.8-5.4,7-4.4
			c3,1,5,4.4,4.4,7.5c-0.6,3.2-3.3,5.6-6.2,6.8C303.5,543.3,298.6,539.8,301.2,536z"/>
		<path class="st4" d="M322.3,693.9c-0.3,0.4-0.1-0.3-0.1-0.1c0-0.6,0-1.3-0.1-1.9c-0.1-1.2-0.2-2.5,0.1-3.7c0.6-3.2,3.8-5.4,7-4.4
			c3,1,5,4.4,4.4,7.5c-0.6,3.2-3.3,5.6-6.2,6.8C324.7,701.2,319.7,697.7,322.3,693.9z"/>
		<path class="st4" d="M575.9,455.1c-0.5,0.1,0.1-0.3,0-0.1c0.5-0.4,0.8-0.9,1.2-1.4c0.8-0.9,1.6-1.9,2.6-2.6
			c2.7-1.9,6.5-1.3,8.1,1.7c1.5,2.8,0.6,6.6-2,8.5c-2.7,1.9-6.3,1.8-9.2,0.6C572.5,462.1,571.3,456.1,575.9,455.1z"/>
		<path class="st4" d="M246.7,591.6c0.2-0.5,0.2,0.2,0.1,0.1c0.1,0.6,0.4,1.2,0.6,1.8c0.4,1.1,0.8,2.3,0.9,3.6
			c0.2,3.3-2.2,6.2-5.6,6c-3.2-0.2-6-2.9-6.2-6.1c-0.3-3.3,1.7-6.3,4.3-8.2C242.6,585.1,248.3,587.2,246.7,591.6z"/>
		<path class="st4" d="M109,599.4c1.1,2,3.2,3.5,5.4,3.6c3.4,0.2,5.8-2.8,5.6-6c-0.1-1.2-0.5-2.4-0.9-3.6c-0.2-0.6-0.4-1.2-0.6-1.8
			c0,0,0-0.4-0.1-0.2c0.3-0.8,0.3-1.5,0.2-2.1C115.6,592.9,112.4,596.3,109,599.4z"/>
		<path class="st4" d="M77.9,634.4c0,0.2,0,0.5,0.1,0.7c3.8-0.8,7.5-1.9,11.1-3.3c-0.1-0.3-0.2-0.5-0.3-0.8
			c-0.2-0.6-0.4-1.2-0.6-1.8c0,0,0-0.5-0.1-0.2c1.5-4.3-4.2-6.4-6-2.7C79.6,628.1,77.6,631.1,77.9,634.4z"/>
		<path class="st4" d="M683.1,375.5c-0.3,0.4-0.1-0.3-0.1-0.1c0-0.6,0-1.3-0.1-1.9c-0.1-1.2-0.2-2.5,0.1-3.7c0.6-3.2,3.8-5.4,7-4.4
			c3,1,5,4.4,4.4,7.5c-0.6,3.2-3.3,5.6-6.2,6.8C685.4,382.9,680.4,379.3,683.1,375.5z"/>
		<path class="st4" d="M291.7,552.9c0.3-2,2.2-4.2,4.4-4.1c0.9,0.1,1.8,0.2,2.4,0.8c0.3,0.3,0.6,0.7,0.8,1.1
			c0.3,0.2,0.6,0.4,0.8,0.7c1.3,1.6,0.8,3.9-0.3,5.4c-0.5,0.7-1.3,1.3-2.2,1.6c-0.4,0.1-0.9,0.2-1.3,0.2c-1.1,0-1.1-0.1-0.3,0
			c-0.7-0.1-1.1,0-1.8-0.3C292.2,557.3,291.4,555,291.7,552.9z"/>
		<path class="st4" d="M252.7,546.6c0.3-2,2.2-4.2,4.4-4.1c0.9,0.1,1.8,0.2,2.4,0.8c0.3,0.3,0.6,0.7,0.8,1.1
			c0.3,0.2,0.6,0.4,0.8,0.7c1.3,1.6,0.8,3.9-0.3,5.4c-0.5,0.7-1.3,1.3-2.2,1.6c-0.4,0.1-0.9,0.2-1.3,0.2c-1.1,0-1.1-0.1-0.3,0
			c-0.7-0.1-1.1,0-1.8-0.3C253.2,551,252.4,548.7,252.7,546.6z"/>
		<path class="st4" d="M240,630.1c0.3-2,2.2-4.2,4.4-4.1c0.9,0.1,1.8,0.2,2.4,0.8c0.3,0.3,0.6,0.7,0.8,1.1c0.3,0.2,0.6,0.4,0.8,0.7
			c1.3,1.6,0.8,3.9-0.3,5.4c-0.5,0.7-1.3,1.3-2.2,1.6c-0.4,0.1-0.9,0.2-1.3,0.2c-1.1,0-1.1-0.1-0.3,0c-0.7-0.1-1.1,0-1.8-0.3
			C240.5,634.5,239.7,632.2,240,630.1z"/>
		<path class="st4" d="M35.3,554.5c0.3-2,2.2-4.2,4.4-4.1c0.9,0.1,1.8,0.2,2.4,0.8c0.3,0.3,0.6,0.7,0.8,1.1c0.3,0.2,0.6,0.4,0.8,0.7
			c1.3,1.6,0.8,3.9-0.3,5.4c-0.5,0.7-1.3,1.3-2.2,1.6c-0.4,0.1-0.9,0.2-1.3,0.2c-1.1,0-1.1-0.1-0.3,0c-0.7-0.1-1.1,0-1.8-0.3
			C35.8,558.9,35,556.6,35.3,554.5z"/>
		<path class="st4" d="M28,582.1c0.3-2,2.2-4.2,4.4-4.1c0.9,0.1,1.8,0.2,2.4,0.8c0.3,0.3,0.6,0.7,0.8,1.1c0.3,0.2,0.6,0.4,0.8,0.7
			c1.3,1.6,0.8,3.9-0.3,5.4c-0.5,0.7-1.3,1.3-2.2,1.6c-0.4,0.1-0.9,0.2-1.3,0.2c-1.1,0-1.1-0.1-0.3,0c-0.7-0.1-1.1,0-1.8-0.3
			C28.5,586.4,27.7,584.2,28,582.1z"/>
		<path class="st4" d="M58.7,624.9c0.3-2,2.2-4.2,4.4-4.1c0.9,0.1,1.8,0.2,2.4,0.8c0.3,0.3,0.6,0.7,0.8,1.1c0.3,0.2,0.6,0.4,0.8,0.7
			c1.3,1.6,0.8,3.9-0.3,5.4c-0.5,0.7-1.3,1.3-2.2,1.6c-0.4,0.1-0.9,0.2-1.3,0.2c-1.1,0-1.1-0.1-0.3,0c-0.7-0.1-1.1,0-1.8-0.3
			C59.2,629.3,58.4,627,58.7,624.9z"/>
		<path class="st4" d="M279.6,600.2c0.3-2,2.2-4.2,4.4-4.1c0.9,0.1,1.8,0.2,2.4,0.8c0.3,0.3,0.6,0.7,0.8,1.1
			c0.3,0.2,0.6,0.4,0.8,0.7c1.3,1.6,0.8,3.9-0.3,5.4c-0.5,0.7-1.3,1.3-2.2,1.6c-0.4,0.1-0.9,0.2-1.3,0.2c-1.1,0-1.1-0.1-0.3,0
			c-0.7-0.1-1.1,0-1.8-0.3C280.1,604.6,279.3,602.3,279.6,600.2z"/>
		<path class="st4" d="M204.2,446c0.3-2,2.2-4.2,4.4-4.1c0.9,0.1,1.8,0.2,2.4,0.8c0.3,0.3,0.6,0.7,0.8,1.1c0.3,0.2,0.6,0.4,0.8,0.7
			c1.3,1.6,0.8,3.9-0.3,5.4c-0.5,0.7-1.3,1.3-2.2,1.6c-0.4,0.1-0.9,0.2-1.3,0.2c-1.1,0-1.1-0.1-0.3,0c-0.7-0.1-1.1,0-1.8-0.3
			C204.7,450.4,203.9,448.1,204.2,446z"/>
		<path class="st4" d="M564.6,486.9c2-3.3,7.7-3.9,9.8-0.4c0.7,1.2,1.1,2.6,0.5,3.9c-0.4,3-3.3,5.5-6.4,4.9
			C564.9,494.6,562.7,490.1,564.6,486.9z"/>
		<path class="st4" d="M671.4,455.2c2-3.3,7.7-3.9,9.8-0.4c0.7,1.2,1.1,2.6,0.5,3.9c-0.4,3-3.3,5.5-6.4,4.9
			C671.7,463,669.5,458.5,671.4,455.2z"/>
		<path class="st4" d="M619.7,636.2c1.2,3,2.4,5.9,3.6,8.9c3.1,0.6,6-2,6.4-4.9c0.5-1.3,0.2-2.7-0.5-3.9
			C627.2,633,621.9,633.3,619.7,636.2z"/>
		<path class="st4" d="M656.3,519.4c2-3.3,7.7-3.9,9.8-0.4c0.7,1.2,1.1,2.6,0.5,3.9c-0.4,3-3.3,5.5-6.4,4.9
			C656.6,527.1,654.3,522.7,656.3,519.4z"/>
		<path class="st4" d="M669,633c0.9,2.9,1.7,5.9,2.6,8.8c0.3,0.1,0.6,0.2,0.9,0.2c3.1,0.6,6-2,6.4-4.9c0.5-1.3,0.2-2.7-0.5-3.9
			C676.3,630,671.3,630.2,669,633z"/>
		<path class="st4" d="M722.7,391.5c0.5-1.2,2.4-1,2.7,0.2c1,3.6,0.6,7.2,2.3,10.8c1.8,3.9,4.9,6.9,8.3,9.4c1.2,0.9-0.2,2.6-1.4,2.1
			C727.1,411,719.2,399.7,722.7,391.5z"/>
		<path class="st4" d="M713.5,337.4c3.7-2.4,8.6-1.9,11.4,1.6c3.7,4.5,2.4,10.7,0.5,15.7c-0.1,0.3-0.3,0.5-0.5,0.6
			c0,0.4,0,0.9,0.1,1.4c0.1,1.5-1.3,2.7-2.7,2.4c-5.1-1-10-3.7-12.1-8.7C708.2,345.8,709.2,340.2,713.5,337.4z"/>
		<path class="st4" d="M779,365c0,1,0.4,2,1.4,2.5c0,0,0,0,0,0c0.6,1,1.6,0.9,2.2,0.3c1.1,0,2.3-0.1,3.4-0.3
			c-0.2-1.9-0.4-3.8-0.6-5.8c1.2-2.8,2-5.7,2.1-8c0.2-3.5-0.9-6.9-3-9.5c-2.4,0.9-4.5,2.6-5.8,5C776,354.2,776.7,360.1,779,365z"/>
		<path class="st4" d="M741.6,449.2c0.8-9.1,3.3-17.9,3-27.1c-0.3-9.9-3.3-18.5-6.7-27.6c-0.6-1.5,1.7-2.7,2.6-1.3
			c7.2,11.9,8.8,27.4,6.9,41c-1.9,13.3-5.5,37.5,12.3,43c1.7,0.5,1.2,3.1-0.6,2.7C746.2,477.1,740.6,460.5,741.6,449.2z"/>
		<path class="st4" d="M756.6,368.3c0.9-1.6,2.9-2.4,4.7-2.1c2.2,0.3,3.7,2.1,5,3.8c0.7,0.8,0.2,1.9-0.5,2.5c-1.3,1.1-3,1.3-4.5,0.8
			c-0.9,0.5-2.1,0.5-3.1,0C756.4,372.4,755.7,370,756.6,368.3z"/>
		<path class="st4" d="M745.6,371.4c0.3-1.8,2.4-2.5,3.9-1.7c0,0,0,0-0.1,0c0.6,0.2,1,0.8,1.2,1.4c0.2,0.1,0.3,0.3,0.4,0.5
			c0.3,0.6,0.2,1.4-0.5,1.8c-0.9,0.5-1.8,0.7-2.9,0.6c-0.4-0.1-0.9-0.2-1.3-0.5C745.7,373,745.4,372.2,745.6,371.4z"/>
		<path class="st4" d="M759.3,397.5c0.2,0,0.4-0.1,0.5-0.2c0.5,0.1,1.1,0.1,1.6-0.3c1.3-0.8,1.8-2.4,1.6-3.9
			c-0.2-1.5-0.9-2.6-2.2-3.4c-2.5-1.6-5.7,0.1-6.4,2.8C753.6,395.5,756.3,398.3,759.3,397.5z M758.1,393.4c0.1,0.2,0.2,0.3,0.4,0.5
			c0,0,0.1,0.1,0.1,0.1c0,0.1,0,0.1,0,0c-0.1,0.2-0.1,0.3,0,0.2c0,0,0,0,0,0.1c0,0-0.1,0-0.3-0.1
			C757.8,393.9,757.8,393.6,758.1,393.4z"/>
		<path class="st4" d="M766.6,405.6c1.3-1.3,3.2-1.6,4.9-2.2c1.8-0.6,3.3,0.5,3.8,2.3c0.3,1.1,0.2,2.1-0.2,3
			c1.3,3.5-3.3,6.4-6.3,5.4C765.1,412.9,763.9,408.3,766.6,405.6z"/>
		<g>
			<path class="st4" d="M759.6,421.4C759.6,421.4,759.6,421.4,759.6,421.4C759.6,421.4,759.6,421.4,759.6,421.4
				C759.6,421.4,759.6,421.4,759.6,421.4C759.6,421.4,759.6,421.4,759.6,421.4C759.6,421.4,759.6,421.4,759.6,421.4z"/>
			<path class="st4" d="M757.6,423.2c0.4,0.4,1,0.8,1.6,0.7c0.6,0,1.2-0.3,1.7-0.5c0.9-0.3,1.3-1.3,1-2.1c0,0,0,0,0-0.1
				c0,0,0.1,0,0.1-0.1c0.6-0.6,0.6-1.9-0.2-2.5c-0.9-0.7-2-0.9-3.1-0.6c-1,0.3-1.8,1.2-2,2.2C756.5,421.4,756.8,422.5,757.6,423.2z"
				/>
		</g>
		<path class="st4" d="M756.3,446.9c0.9-0.2,1.8-0.3,2.6-0.2c1.4-0.9,3.1-1.4,4.7-1c2.5,0.7,3.6,3.4,2.6,5.7
			c-0.9,2.2-3.2,3.5-5.6,3.1c-2.7-0.5-4.6-2.8-5.6-5.2C754.8,448.4,755.4,447.2,756.3,446.9z"/>
		<path class="st4" d="M753,456.7c0.8,0.4,1.7,0.9,2.4,1.5c0.8-0.1,1.6,0.3,1.7,1.3c0,0.2,0,0.5-0.1,0.7c0.4,0.8,0.3,1.8-0.5,2.4
			c-0.5,0.3-1.1,0.4-1.6,0.2c-1,0.4-2.1,0.4-3.2,0c-0.6-0.2-0.9-0.9-0.9-1.4c-0.1-1-0.2-2-0.2-3C750.3,457,751.8,456.2,753,456.7z"
			/>
		<path class="st4" d="M650,418.8c-0.1,2.4,1.8,4.4,4,5.3c3.1,1.2,6.1,0.5,8.2-1.4c4.4-1.9,8.3-7.4,4.2-11.6
			c-1.5-1.5-3.8-1.8-5.6-0.7c-0.9,0.6-1.6,1.5-2.2,2.3c-1.1,1.5-1.6,2.1-3.6,2.2C652.5,415.1,650.1,416,650,418.8z M653.9,419.4
			c0.1-0.9,1.1-0.9,2.1-0.9c-0.4,0.2-0.7,0.4-1.1,0.6c-0.4,0.2-0.6,0.4-0.8,0.7C653.9,419.7,653.9,419.6,653.9,419.4z"/>
		<path class="st4" d="M473.7,455.9c2.5,1.7,6,1.2,8.5-0.1c5.4-2.7,8.9-9.5,6.9-15.3c1.4-3.9-2.8-8.9-7.6-6.9
			c-2.8,1.2-3.6,4.1-3.9,6.9c-0.3,2.3-0.2,4-1.9,5.8c-1.1,1.1-2.4,1.8-3.3,3.1C471.1,451.6,471.5,454.4,473.7,455.9z M481.9,439.1
			c0.1-0.3,0.1-0.6,0.2-0.9c0.2,0,0.4,0.1,0.6,0.1c-0.2,0.2-0.4,0.4-0.5,0.7C482.2,439,482,439.1,481.9,439.1z"/>
	</g>
	<path class="st14" d="M0,587.3c23.3,14.9,53.2,37.8,64.2,62.5c1.1,2.6,2.2,5.4,3.3,8.5C79,692,84,751.6,85.9,783.5
		c-3.1-0.6-6.2-1.3-9.3-2c-9.2-2.2-19-5-29.2-8.4c-0.4-0.1-0.9-0.3-1.3-0.4L29.3,712l17.7-6.7l-18.1-3L28.4,691l17.8-4.5l-18.1-3.8
		l-4.7-23.1l17-5.2L20,650.9l-4.1-8.8l10.4-3.4l-13.8-6.2l4.9-9.2l-13.8-6.9l-2.3-18.7L0,597.7L0,587.3z"/>
	<path class="st14" d="M141.2,763.6l15.3,16.8l3.5,3.9h0c2.8-0.6,5.5-1.3,8.1-2.1l10.1-36.7l0,0l3.9-13.9l1.9-6.8l0.9-3.3l4.2-15
		l2.9-10.6l5.5-19.8l1.5-5.3l-4-1.5l-13.7-5.2l10.9-1.8l4.9-0.8l2.3-0.4l0.5-11.2l-17.8-4.5l18.1-3.8l4.7-23.1l-17-5.2l20.4-3.7
		l4.1-8.8l-10.4-3.4l13.7-6.2l-4.9-9.2l13.8-6.9l2.3-18.6l8.2,0.3l5.6-8l18.1-20.2c-1.1,0.6-70.1,34.8-92.2,75.1
		c-0.9,1.7-1.8,3.3-2.5,5C145,651.3,141.2,763.6,141.2,763.6z"/>
	<g>
		<path class="st14" d="M362.6,326.9c4.4-7.4,6.6-16.5,9-24.7c2.1-7.4,4-14.9,5.6-22.4c0.2-0.9,0.4-1.7,0.5-2.6
			c0.1-0.7,0.3-1.4,0.4-2.1c3.1-16.1,5-32.4,5.6-48.7c0.6-16.5,0.1-33.4-1.9-50.1c-2.2-2.5-4.3-5.2-6.2-8.1
			c2.9,18.9,4.3,37.9,3.6,57.3c-0.6,16.4-2.4,32.7-5.6,48.8h0c-0.1,0.6-0.2,1.1-0.3,1.7c-0.2,1-0.4,2-0.6,3
			c-1.6,7.4-3.4,14.8-5.5,22c-2.4,8.2-6,16.2-7.7,24.5C359,327.6,361.6,328.6,362.6,326.9z"/>
		<path class="st14" d="M319.4,190.1c0.8,0,1.6-0.1,2.4-0.2c3-0.4,6.1-1.3,9-2.5c4.9-2,9.5-4.9,13.6-7.7c0.3-0.2,0.6-0.4,0.9-0.7
			c2.1-1.5,4.2-3,6.2-4.7c4.2-3.4,8.1-7,11.8-10.9c1.6-1.7,3.1-3.4,4.6-5.2c0.1-0.1,0.1-0.1,0.1-0.2c0.3-0.4,0.5-0.7,0.7-1.1
			c1.3-2.7-0.3-5.3-2.5-6.3c-0.2-0.1-0.5-0.2-0.7-0.3c-1.8-0.5-4,0-5.3,2.3c-0.2,0.3-0.4,0.6-0.6,0.9c-2.9,4.7-6.1,8.9-9.7,12.9
			c-2.3,2.5-4.7,4.8-7.4,6.9c-0.7,0.6-1.3,1.1-2,1.6c-3.2,2.5-6.8,4.6-10.3,6.7c-0.2,0.1-0.5,0.3-0.7,0.4c-1.3,0.8-2.7,1.6-4,2.4
			c-1.4,0.9-2.8,1.9-4.2,2.9c-0.8,0.6-1.6,1.2-2.4,1.9C318.7,189.6,319,190.1,319.4,190.1z"/>
		<path class="st14" d="M363.1,183.8c-4.7,5-9.9,9.6-15.4,13.8c-9.4,7-23.1,16.1-35.2,16.2c-0.9,0-1.6-1.2-0.8-1.9
			c4.3-3.6,9.5-5.6,14.3-8.5c5.7-3.3,11-7.1,16.1-11.3c4.5-3.7,8.7-7.7,12.7-12.1c3.8-4.2,7.2-11.3,12.3-13.8c2.1-1,5.7,0,5.5,3
			C371.9,175.2,367,179.6,363.1,183.8z"/>
		<path class="st14" d="M308.8,242.3c-1.6,0.5-2.5-1.8-1.2-2.7c22.4-14.6,43.3-30.8,59.2-52.7c3-4.1,8.7,1.4,5.8,5.5
			C356.5,214.4,335,233.6,308.8,242.3z"/>
		<path class="st14" d="M347,243.6c-6.3,4.9-12.8,9.3-20,12.7c-5.3,2.5-13,7.4-19,5.7c-0.6-0.2-1-0.9-0.7-1.5c3-4.9,10.3-7,15-10
			c6.3-4,12.6-8.4,18.3-13.2c5.3-4.4,10.2-9.3,14.8-14.4c2.6-2.9,5.1-6,7.4-9.2c2.1-2.9,3.4-5.6,6.6-7.3c2.3-1.2,6.1,0.1,5.9,3.2
			c-0.5,6.9-7.1,13.3-11.5,18.3C358.6,233.6,353,238.8,347,243.6z"/>
		<path class="st14" d="M350,268.1c-5.8,4.7-12.1,8.8-18.8,12.1c-5,2.5-12.8,6.4-18.4,4.6c-0.5-0.1-0.6-0.6-0.3-1
			c3.2-4.3,10.5-6.7,15.2-9.3c6.3-3.6,12.2-7.9,17.6-12.9c4.8-4.5,9.5-9.3,13.4-14.6c3.6-4.8,6.1-12.9,11.3-15.9
			c2.2-1.3,4.5,0.3,4.8,2.6c0.8,6.3-5.8,13.5-9.4,18.3C361,257.9,355.8,263.3,350,268.1z"/>
		<path class="st14" d="M351,291.9c-9.4,7.7-20.1,13.1-32.1,14.9c-1.1,0.2-1.6-1.6-0.6-2.1c10.3-4.6,20.3-10.3,28.7-18
			c4-3.7,7.7-7.9,10.9-12.4c3-4.3,4.8-10.6,8.8-14c2.1-1.7,5.7-0.9,5.7,2.2c0,5.4-4.1,10.4-7.2,14.6
			C361,282.6,356.3,287.6,351,291.9z"/>
		<path class="st14" d="M346.5,313.2c-6.8,4.6-14.6,8.4-23,8.3c-0.9,0-1.4-1.3-0.5-1.8c6.6-3.7,13.6-6.6,19.6-11.2
			c3.6-2.7,6.8-5.8,9.4-9.4c2.1-2.8,3.8-6,6.2-8.5c3.1-3.4,7.5,0.6,6.1,4.4C361.4,302.3,352.9,308.9,346.5,313.2z"/>
		<path class="st14" d="M347.5,328.9c-4.7,3.4-10.6,6.4-16.4,6.9c-1.5,0.1-2.2-2.1-0.8-2.8c4.8-2.4,9.6-4.2,14-7.5
			c4.1-3.1,7.1-8.4,11.5-10.7c1.2-0.6,2.4,0.3,2.3,1.6C357.4,321.7,351.6,326,347.5,328.9z"/>
		<path class="st14" d="M387.9,187.3c7.7,6.7,16.5,12.4,25.7,16.8c8,3.9,18.4,8,27.5,6.7c0.4-0.1,0.6-0.7,0.2-0.9
			c-7.4-4.3-16-6.5-23.6-10.6c-1.5-0.8-3-1.7-4.5-2.6c-9.8-3.3-18.9-8.3-26.6-15.4C385.7,183.1,385.8,185.4,387.9,187.3z"/>
		<path class="st14" d="M398.8,216.8c5.5,4.2,11.3,7.9,17.4,11.1c10.4,5.4,25.4,12.2,37.4,10.3c0.9-0.1,1.4-1.5,0.5-2
			c-4.9-2.8-10.3-4-15.5-6c-6.1-2.3-12-5.2-17.7-8.5c-5-3-9.9-6.2-14.5-9.9c-4.4-3.5-8.9-10-14.4-11.6c-2.3-0.6-5.7,0.9-4.9,3.8
			C388.7,209.8,394.2,213.3,398.8,216.8z"/>
		<path class="st14" d="M461.5,263.9c1.7,0.3,2.2-2.2,0.7-2.8c-24.5-10.8-47.8-23.3-67-42.3c-3.6-3.6-8.4,2.8-4.8,6.3
			C410,244.2,434.3,259.6,461.5,263.9z"/>
		<path class="st14" d="M417.6,273.9c7,3.9,14.2,7.1,21.8,9.3c5.7,1.6,14.1,5.2,19.7,2.5c0.6-0.3,0.9-1,0.4-1.6
			c-3.7-4.3-11.3-5.2-16.4-7.4c-6.9-2.9-13.8-6.3-20.2-10.1c-5.9-3.5-11.6-7.5-16.9-11.8c-3-2.5-6-5.1-8.8-7.9
			c-2.5-2.5-4.3-5-7.7-6.2c-2.5-0.8-6,1.1-5.3,4.1c1.6,6.7,9.2,11.9,14.4,16.2C404.5,266,410.8,270.2,417.6,273.9z"/>
		<path class="st14" d="M413.3,299.4c6.5,3.7,13.4,6.7,20.5,8.8c5.3,1.6,13.7,4.2,18.9,1.6c0.4-0.2,0.5-0.7,0.1-1
			c-3.9-3.7-11.5-4.9-16.5-6.7c-6.8-2.5-13.4-5.9-19.4-9.9c-5.5-3.7-10.9-7.7-15.7-12.2c-4.3-4.1-8.1-11.7-13.8-13.8
			c-2.4-0.9-4.4,1-4.3,3.4c0.3,6.3,7.9,12.3,12.3,16.5C400.8,291.1,406.7,295.7,413.3,299.4z"/>
		<path class="st14" d="M404.3,317.1c10.5,6.1,22,9.6,34.1,9.5c1.1,0,1.3-1.8,0.3-2.1c-10.9-2.9-21.8-6.9-31.2-13.1
			c-4.6-3-8.9-6.5-12.7-10.5c-3.6-3.8-6.4-9.7-10.9-12.3c-2.3-1.4-5.8,0-5.3,3.1c0.9,5.4,5.7,9.5,9.5,13.2
			C392.9,309.6,398.4,313.7,404.3,317.1z"/>
		<path class="st14" d="M390.7,331.1c6.6,4.9,14.3,9,22.7,9.2c0.9,0,1.5-1.2,0.6-1.8c-6.4-4-13.3-7.1-19.1-11.9
			c-3.5-2.9-6.6-6.1-9.1-9.8c-1.9-2.9-3.6-6.1-5.8-8.8c-3-3.5-7.6,0.3-6.2,4.1C376.3,319.6,384.5,326.5,390.7,331.1z"/>
		<path class="st14" d="M378.6,343.5c4.1,4.1,9.4,7.9,15.1,9.4c1.4,0.4,2.5-1.8,1.3-2.7c-4.4-3.1-8.9-5.7-12.7-9.6
			c-3.6-3.7-5.7-9.4-9.7-12.4c-1.1-0.8-2.5,0-2.5,1.3C370,334.9,375,340,378.6,343.5z"/>
		<path class="st14" d="M342.9,366.7c-1.7,1-3.3-0.8-2.6-2.4c2.3-5.4,6.3-10,9.1-15.2c2.9-5.2,4.7-10.9,7.4-16.2
			c1.8-3.5,7.3-1.4,6.4,2.4c-1.5,6.3-5,12.4-8.5,17.9C351.6,358.2,348.1,363.5,342.9,366.7z"/>
	</g>
	<g>
		<path class="st14" d="M0,283.4c5,5.3,10.3,10.4,15.8,15.3c13.1,11.7,27.1,22.3,41.9,31.7c7.5,4.7,15.2,9.2,23,13.3
			c7.8,4.1,16.4,7.1,23.7,11.8c1.7,1.1,0.6,3.7-1.4,3.2c-8.6-2-17-6.9-24.8-10.9c-7.8-4.1-15.5-8.5-23-13.3
			c-14.9-9.4-28.9-20.1-42.1-31.8c-4.5-4-8.9-8.1-13.2-12.4L0,283.4z"/>
		<path class="st14" d="M0,234.4c1.9-0.1,3.8-0.3,5.7-0.6c8.8-1.3,17.2-4.8,26-5.8c0.5-0.1,0.7,0.6,0.4,0.9
			c-6.7,6.7-17.8,9.7-26.8,11.4c-1.7,0.3-3.5,0.6-5.3,0.9L0,234.4z"/>
		<path class="st14" d="M0,248c5.8,0.1,11.6-0.2,17.4-0.8c6.7-0.8,13.4-2.1,19.9-3.9c5.5-1.6,10.8-4,16.5-4.6c1-0.1,1.4,1.3,0.8,2
			c-8.8,9-25.3,12.6-37.2,14.6c-5.7,1-11.6,1.5-17.4,1.6L0,248z"/>
		<path class="st14" d="M0,262.4c26.2,2.9,51.7-1,77.3-6.9c1.6-0.4,2.7,2,1.2,2.8C54.6,270.8,26.6,273.5,0,270.5L0,262.4z"/>
		<path class="st14" d="M52.1,287.6c8.2-1.1,16.1-2.9,23.8-5.8c5.7-2.1,14.8-4.4,17.8-10.1c0.3-0.6,0.1-1.4-0.6-1.5
			c-5.7-1.3-12.6,2.6-18.1,4c-7.5,1.8-15.3,3.4-22.9,4.2c-7,0.8-14.2,1-21.3,0.7c-4-0.2-8.1-0.5-12.1-1.1c-3.6-0.5-6.6-1.5-10.2-0.3
			c-2.6,0.9-4.3,4.6-1.8,6.7c5.5,4.6,15,4.2,21.9,4.5C36.4,289.1,44.3,288.6,52.1,287.6z"/>
		<path class="st14" d="M68.2,307.3c7.7-1,15.2-2.7,22.4-5.4c5.4-2,13.9-5,16.5-10.4c0.2-0.5-0.1-0.9-0.5-0.9
			c-5.5-0.7-12.5,3.1-17.8,4.6c-7.2,2.1-14.7,3.4-22.2,3.8c-6.8,0.4-13.7,0.4-20.5-0.4c-6.1-0.7-14-4.6-19.9-2.9
			c-2.5,0.7-3,3.6-1.5,5.5c4.1,5.1,14.2,5.3,20.3,6C52.8,308.2,60.6,308.2,68.2,307.3z"/>
		<path class="st14" d="M85.3,325c12.5-1.5,24.1-5.6,34.1-13.3c0.9-0.7-0.1-2.3-1.1-1.9c-10.8,4.4-22.2,7.8-33.9,8.5
			c-5.7,0.3-11.4,0.1-17-0.8c-5.3-0.9-11.3-4-16.6-3.5c-2.8,0.3-4.8,3.6-2.5,5.8c4,3.9,10.6,4.3,16,5
			C71.2,325.8,78.3,325.9,85.3,325z"/>
		<path class="st14" d="M104.3,336.9c8.3-1.8,16.7-4.9,22.6-11.2c0.7-0.7,0-2-1-1.7c-7.5,2.2-14.6,5.4-22.3,6.6
			c-4.6,0.7-9.2,0.9-13.8,0.3c-3.6-0.5-7.2-1.4-10.8-1.5c-4.7-0.1-4.9,6.1-1.1,7.7C85.6,340.2,96.5,338.6,104.3,336.9z"/>
		<path class="st14" d="M115.3,348.9c5.9-1.1,12.3-3.3,16.8-7.2c1.2-1,0-3.1-1.5-2.6c-5.2,1.8-10,4.2-15.6,5.1
			c-5.3,0.9-11.3-0.7-16.2,0.9c-1.3,0.4-1.5,2.1-0.4,2.9C102.9,351.1,110.2,349.8,115.3,348.9z"/>
		<path class="st14" d="M0,303.3c2.1-2.2,7.2-0.8,7.3,3.4c0.2,17.1-1.9,34.6-7.3,50.9L0,303.3z"/>
		<path class="st14" d="M24.4,361.8c-2.1,8-4.8,15.6-8.7,22.9c-2.8,5.4-6.2,14.2-12.2,16.4c-0.6,0.2-1.4-0.1-1.5-0.8
			c-0.6-5.8,4.2-12.1,6.2-17.5c2.7-7.2,5.2-14.7,7-22.3c1.6-6.9,2.7-14,3.3-21.1c0.3-4,0.5-8.1,0.4-12.1c-0.1-3.6-0.7-6.7,0.9-10.1
			c1.2-2.5,5.1-3.7,6.8-1c3.9,6,2.3,15.3,1.8,22.2C27.8,346.4,26.4,354.1,24.4,361.8z"/>
		<path class="st14" d="M46.3,376.7c-1.9,7.5-4.6,14.7-8.1,21.6c-2.6,5.1-6.6,13.2-12.3,15.2c-0.5,0.2-0.9-0.2-0.9-0.6
			c0-5.6,4.6-12,6.8-17.1c3-6.9,5.2-14.1,6.5-21.5c1.2-6.7,2.1-13.5,2.1-20.4c0-6.2-2.9-14.4-0.4-20.1c1-2.4,3.9-2.6,5.6-0.8
			c4.5,4.7,3.5,14.7,3.5,20.9C49.1,361.5,48.3,369.2,46.3,376.7z"/>
		<path class="st14" d="M65.9,382.7c-3,12.2-8.5,23.2-17.3,32.2c-0.8,0.8-2.3-0.3-1.8-1.3c5.7-10.2,10.4-21.1,12.5-32.6
			c1-5.6,1.5-11.3,1.3-17c-0.2-5.4-2.6-11.7-1.4-16.9c0.6-2.7,4.1-4.3,6.1-1.7c3.4,4.5,3,11.1,3,16.5
			C68.5,368.9,67.6,375.9,65.9,382.7z"/>
		<path class="st14" d="M86,382.6c-1.1,8.4-3.5,17.1-9.3,23.4c-0.6,0.7-2,0.2-1.7-0.8c1.6-7.6,4.2-15,4.8-22.8
			c0.3-4.6,0.2-9.2-0.8-13.7c-0.8-3.5-2-7-2.4-10.6c-0.5-4.7,5.7-5.4,7.5-1.7C87.8,363.7,87.1,374.7,86,382.6z"/>
		<path class="st14" d="M104,382.5c0.1,6-0.8,12.7-3.8,17.9c-0.8,1.3-3.1,0.6-2.9-1c0.8-5.5,2.1-10.6,1.9-16.3
			c-0.2-5.3-3-10.9-2.3-16.1c0.2-1.4,1.7-1.9,2.7-0.9C103.7,369.9,103.9,377.3,104,382.5z"/>
		<path class="st14" d="M146.7,372.4c1.9-0.5,1.7-3,0-3.7c-5.7-2.2-11.9-2.5-17.8-4c-6-1.6-11.5-4.3-17.4-6.1
			c-3.9-1.2-6.3,4.5-2.8,6.5c5.8,3.4,12.8,5.1,19.3,6.5C134.2,372.8,140.6,374,146.7,372.4z"/>
	</g>
	<path class="st12" d="M178.3,745.5c1.7-3.8,3.2-7.6,4.5-11.5c0.8-2.3,1.5-4.6,2.2-6.9c0.3-0.9-0.2-1.9-0.9-2.3
		c-0.5-0.3-1.1-0.4-1.7-0.3c-0.5,0.1-1,0.3-1.6,0.4c-0.3-0.3-0.6-0.5-1.1-0.6c-0.1,0-0.3,0-0.4,0c-2.4,0.2-4.8,0.9-7.1,1.7
		c1.8-2.4,3.5-4.8,5-7.3c1.2-1.9,2.2-3.8,3.3-5.7v0c2.3-4.4,4.2-9,5.7-13.6v0c1-3,1.8-6.1,2.5-9.2v0c1.3-6,2-12.2,2-18.4
		c0-1.5-1.8-2.6-3.1-1.8c-6,3.9-12,7.8-18,11.7c-0.1,0.1-0.2,0.1-0.3,0.2c9.5-28.5,13.8-58.4,12.9-88.5c0-1.5-1.8-2.2-2.9-1.2
		c-4.2,3.9-8.5,7.7-12.7,11.5v0c0-6.8,0-13.6,0.1-20.4c0-1.3-1.6-2.3-2.7-1.6c-1.1,0.7-2.3,1.5-3.4,2.2
		c-2.5-26.9-7.6-53.5-15.2-79.5c-0.4-1.4-2.7-2-3.3-0.4c-2.3,5.3-4.6,10.6-6.9,15.9c-5.2-17.3-13.3-33.4-24-48
		c-0.2-0.2-0.4-0.4-0.6-0.5c-0.2-0.4-0.4-0.8-0.7-1.2c-1.8-3.1-6.6-1.7-6.6,1.8c0,1.3,0,2.5-0.1,3.8c-0.3,0.7-0.4,1.5-0.2,2.4
		c0.1,0.2,0.1,0.5,0.1,0.7c0,0.7-0.1,1.4-0.1,2.2c0,0-0.1,0.1-0.1,0.1c-6.1-7-12.2-14.1-18.4-21.1c-0.1-0.1-0.2-0.3-0.4-0.3
		c-0.6-0.4-1.2-0.4-1.7-0.1c-0.8,0.4-1.3,1.4-1.1,2.3c4.6,25.5,2.5,51.6-6,76c-0.9,0.9-1.4,2.1-1.2,3.3c-0.4,1.1-0.8,2.2-1.2,3.3
		c-0.3,0.7,0.1,1.5,0.5,2c4.9,5.5,9.9,11,14.8,16.4c-6.1,0.1-12.2,0.2-18.2,0.4c-1.8,0-2.5,1.8-1.8,3.2
		c6.3,14.2,14.8,27.1,25.4,38.4c-9.5-1.7-19-3.4-28.6-5c-1.7-0.3-3,1-2.7,2.7c4,22.9,16.6,43.5,34.8,57.7c0,0-0.1,0.1-0.1,0.1
		c-9.8-0.6-19.6-1.2-29.4-1.8c-1.6-0.1-3.3-0.2-4.9-0.3c-1.3-0.1-2.3,1.1-2.3,2.3c-0.3,12.4,3.4,24.2,10.6,34
		c-4.6-0.8-9.3-1.5-13.9-2.3c-1.9-0.3-3.3,1.1-3,3c4.5,29.5,11.9,58.6,22.6,86.4c3.2,0.8,6.3,1.4,9.3,2c10.5,2.1,20.4,3.4,29.6,4
		c1.5,0.1,3,0.2,4.5,0.2c11.5,0.5,22-0.2,31.6-1.8c1.7-1.8,3.3-3.6,4.9-5.5C165.4,769.9,172.7,758.2,178.3,745.5L178.3,745.5z
		 M77.8,631.7c-2.3-3.9-4.4-8-6.1-12.3c1.5,3.1,3.1,6.2,4.8,9.2C76.9,629.6,77.3,630.6,77.8,631.7z M85.9,607.8
		c-1.5-0.2-3-0.4-4.4-0.8C82.9,607.3,84.4,607.5,85.9,607.8z M87.9,482.4c-0.2,0.1-0.3,0.1-0.5,0.2c0-0.7,0-1.5-0.1-2.2
		C87.5,481.1,87.7,481.8,87.9,482.4z M98.2,576.9c-0.6-0.8-1.3-1.5-1.9-2.2C97.2,575.3,97.9,576,98.2,576.9z M99.2,508.3
		c-0.1,0.1-0.3,0.3-0.4,0.4c0-0.5,0-1,0-1.5C98.9,507.6,99.1,507.9,99.2,508.3z M105.5,660.3c0,0.1,0,0.2,0,0.3
		c-0.2-0.1-0.3-0.2-0.5-0.3c0,0,0-0.1,0-0.1c0-0.2-0.1-0.4-0.1-0.5c0.2,0,0.3-0.1,0.5-0.1C105.3,659.8,105.4,660,105.5,660.3z
		 M156.4,580.3c-0.4-2.4-0.8-4.9-1.2-7.3c0.1,0,0.2-0.1,0.3-0.1C155.9,575.3,156.2,577.8,156.4,580.3z M163,588
		c-0.3-0.4-0.6-0.7-1-0.9c0.3-0.2,0.7-0.4,1-0.6V588z M175.9,712.6c0.5-1.3,1-2.6,1.4-3.8c0.3-0.8,0.6-1.6,0.9-2.5
		c0.4-0.2,0.7-0.4,1-0.7c-0.5,1.2-1.1,2.4-1.6,3.5C177.2,710.3,176.6,711.5,175.9,712.6z"/>
	<path class="st14" d="M113.4,537.5c15.3,53.2,21.6,108.2,17.4,163.4c-2.1,27.7-6.9,55.2-14,82c-0.4,1.5-0.8,3.1-1.2,4.6
		c1.5,0.1,3,0.2,4.5,0.2c1.3-4.9,2.6-9.8,3.7-14.7c24.5-104.4,11.1-218.6-39.6-313.5c-0.6-0.4-1.2-0.4-1.7-0.1
		C94.9,484.6,105.6,510.4,113.4,537.5z"/>
	<path class="st11" d="M497.5,611.7c3.7,13.4,7.6,26.9,13.1,39.7c1.8,4.1,3.8,8.1,6,12.1c1.2-1.4,2.3-2.9,3.5-4.4
		c-0.6-1.2-1.2-2.4-1.8-3.6c-8.7-18.1-14.5-38.9-18.5-58.6c-1.9-9.5-2.4-19.7,1.8-28.6c3.7-7.9,10.9-13.5,19.8-13.3
		c17.2,0.4,33.9,19.9,27.9,37c-3.1,8.8-13.9,15.3-22.1,8.5c-5.8-4.7-4-12.9,1.3-15.4c0.3,1.2,1.3,2.2,2.9,1.7
		c1.8-0.6,3.6-1.2,5.4-1.9c2.2-0.9,3.6-4.6,0.8-5.8c-9.6-4.2-21,3.8-20.8,14.3c0.3,11.4,13.2,18.7,23.5,15.7
		c10.4-3.1,16.7-13.7,16.6-24.3c-0.1-11.1-6.1-21.9-14.8-28.6c-8-6.1-19-9.6-28.9-6.4c-10.1,3.2-16.8,12.4-19.4,22.4
		C490.3,585.4,494,599,497.5,611.7z"/>
	<path class="st11" d="M564.2,624.9c4.4-1.5,8.7-2.5,13-3.3c0-0.2,0-0.3,0-0.5c0-0.4,0.1-0.9,0.1-1.3c0,0.6,0.1,1.2,0.1,1.8
		c3.1-0.6,6.2-1,9.2-1.3c-2.5-18.7-1-37.8,4.4-55.9c0.8-2.8-2.9-3.9-4.4-1.8c-3.3,4.5-6.2,9.3-8.8,14.2c-0.2,0.2-0.4,0.5-0.4,0.9
		C569.9,592.4,565.5,608.5,564.2,624.9z M581.9,584.4c0.4-2.2,0.8-4.3,1.2-6.5c-0.5,2.9-0.9,5.8-1.2,8.7
		C581.9,585.9,581.9,585.1,581.9,584.4z M521.2,617.6c8.5,4.8,15.5,11.1,21.2,18.5c4.1-2.9,8.2-5.3,12.3-7.3
		c-8.9-7.6-19.8-13.1-31.7-15.6C520.5,612.5,518.8,616.2,521.2,617.6z M540.9,624.2c2.8,1.5,5.5,3.2,8,5.1c-0.6,0.4-1,1.1-1,1.9
		C545.8,628.7,543.4,626.4,540.9,624.2z"/>
	<path class="st11" d="M355.2,612.1c10.1,26.2,16.1,53.2,18.4,80.5v0c0.2,2.6,0.4,5.3,0.6,8v0c0.2,3.4,0.3,6.9,0.4,10.3
		c2.9,1.1,5.8,2.2,8.7,3.1c5.3,1.7,10.7,2.9,16.1,3.8c1.6-25.7-4.8-51.8-16.6-75c-6.2-12.2-14-23.5-22.9-33.5
		C358,607.5,354.2,609.5,355.2,612.1z M389.7,698c0-0.5-0.1-1.1-0.1-1.6c0.1,0.6,0.2,1.1,0.3,1.7c0,0.2,0.1,0.4,0.1,0.7
		c-0.1,0-0.2,0.1-0.2,0.2C389.8,698.6,389.8,698.3,389.7,698z M373,649.7c0.5,1.5,0.9,3,1.4,4.5c0,0.5,0,1.1,0,1.6
		C373.9,653.8,373.4,651.7,373,649.7z M365.8,625.6c1.2,1.7,2.4,3.4,3.6,5.2c-0.7-1-1.4-2-2.2-3c-0.3-0.4-0.6-0.6-0.9-0.8
		C366.1,626.5,366,626.1,365.8,625.6z"/>
	<path class="st11" d="M1.4,758.6c0.4,8,1.2,16,2.4,23.8c8.9-4.6,18.3-9.2,27.7-10.6c-3.8-10.1-7.5-20.3-10.4-30.7
		c-5.9-21.3-9.3-43.2-7.8-65.3c0.2-3.1-5-3.8-5.5-0.7C4.1,702.8,0.2,730.6,1.4,758.6z M9.2,736.6c0-0.9,0-1.8,0-2.8
		c0.2,0.9,0.4,1.7,0.6,2.6C9.6,736.4,9.4,736.5,9.2,736.6z"/>
	<path class="st11" d="M412.8,616.8c0.1,1.1,0.3,2.1,0.6,3.1c1.6,6,5.4,10.8,8.8,16.1c0.3,0.5,0.6,0.9,0.9,1.4
		c6.9,20.2,13.5,40.7,18.7,61.4c0.8,3.3,1.6,6.6,2.4,9.9c0.6,2.6,1.2,5.2,1.7,7.8c2.6-0.6,5.2-1.3,7.7-2.1c0.9-0.3,1.8-0.6,2.7-0.9
		c0.5-0.2,1.1-0.4,1.6-0.6c1.8-0.7,3.6-1.4,5.3-2.2c0.5-0.2,1.1-0.5,1.6-0.7c0.1-0.1,0.2-0.1,0.4-0.2c0.7-0.3,1.4-0.7,2.1-1
		c0,0,0,0,0,0c0.7-0.4,1.4-0.7,2.1-1.1c1.5-0.8,2.9-1.6,4.3-2.5c0.7-0.4,1.3-0.8,2-1.2c0.1,0,0.2-0.1,0.2-0.2
		c0.5-0.4,1.1-0.7,1.6-1.1c0.8-0.5,1.5-1,2.2-1.5l0,0c6.7-4.8,12.9-10.4,18.7-16.5c-2.1-8.1-4-16.2-6.5-24.2
		c-0.4-1.2-0.8-2.4-1.2-3.6c-1.2-3.5-2.4-7.1-3.5-10.6c-1.2-6.2-2.4-12.4-3.4-18.6c-0.8-5.1-1.6-10.3-2.3-15.4
		c0-0.2-0.1-0.3-0.1-0.5c-2.8-20.8-4.5-41.7-5.1-62.6c-0.1-2.8-4-3.2-4.8-0.6c-3.8,11.3-7.1,22.8-9.8,34.4c-1.1,4.4-2,8.8-2.9,13.3
		c-0.7,1-1.2,2.2-1.5,3.5c-0.8,3.9-1.2,8-1.3,12c-0.8,5.3-1.6,10.6-2.2,16v0c-0.4,3.7-0.8,7.4-1.1,11.1c-0.7,7.5-1.1,15.1-1.3,22.7
		c-3-6-6.3-11.8-9.8-17.5c-3.7-5.9-7.6-11.7-11.8-17.4c-1.3-1.7-2.5-3.4-3.8-4.9c-0.9-1.1-1.9-2.2-3-3.1c0-0.1-0.1-0.1-0.1-0.2
		c-0.4-0.6-1-1-1.5-1.1c-1.5-1.1-3.2-2-5.1-2.8C414.6,613.9,412.6,615.2,412.8,616.8z M471.6,564.5c0.1-0.4,0.2-0.8,0.3-1.2
		c0,0.5,0.1,1.1,0.1,1.6C471.9,564.7,471.8,564.6,471.6,564.5z"/>
	<path class="st13" d="M371.5,692c0.6,3.2,1.5,6,2.6,8.6v0c2.3,5.6,5.5,10,9.1,13.4c5.3,1.7,10.7,2.9,16.1,3.8
		c15.4,2.6,31.3,2.1,46.5-1.5c2.6-0.6,5.2-1.3,7.7-2.1c9.6-3,18.1-7.6,26-13.3c-7.3,2.7-26.7,9.4-35.5,7.6c-3.3-0.7-5.1-2.5-4.1-6.3
		c0.3-1.4,0.9-2.6,1.8-3.7c8.6-11.5,41.4-7.3,41.4-7.3l5.4-20.9l-7.3-2.5l10.7-7.7l3.5-2.6l-3.3-34.6c0,0-3.4,1.9-8.3,4.4
		c-9.5,4.8-24.4,11.7-31.1,11.2c-2.2-0.2-3.5-1.1-3.4-3.1c0-2.7,1.8-5.4,4.6-8v0c8.4-8,25.7-14.7,27.7-15.5c0.1-0.1,0.2-0.1,0.2-0.1
		l-0.3-0.4l-19.7-28.9l-9.3-13.6l-22.7,15.6l9,14.4l-18.6-9.6l-10.7,12.7c0,0,23.1,5,21.9,15.1c-0.3,2.7-2.5,3.8-5.5,4.1
		c-3.5,0.3-8.2-0.6-12.5-1.8c-6.1-1.7-11.4-3.9-11.4-3.9l-5.9,17.9c28.1,15.5,20.6,24.6,20.6,24.6c-11.8,10.6-30.9-22.7-30.9-22.7
		c-1.2,2.4-2.2,4.8-3,7.1c-12.2,33.8,9.6,56,9.6,56l-2.4-0.8l-0.2-0.1l-16.2-5.4v0L371.5,692z"/>
	<path class="st10" d="M0,460.9l0,31.8c5.9,4.1,12.6,6.5,19.1,9.7c2.8,1.4,5.6,2.7,7.4,5.3c2.2,3.2,2.5,7.4,4,10.8
		c1.5,3.4,7.2,4,9.5,1.2c5.8-6.9,4.3-17.1-0.3-24.3c-4.7-7.4-12.3-10.9-19.9-14.5c-6.7-3.1-12.5-7.4-16.6-13.6
		C2,465.5,1,463.3,0,460.9z"/>
	<path class="st9" d="M414.9,157.4c11.9,17.3,35.5,25.6,55.6,26.8c0.3,0,0.7,0,1,0.1c9.7,0.4,19.8-1.3,27.6-7.4
		c7.8-6.2,11.6-16.2,10.1-26c-1.4-9.6-8.3-17.9-17.3-21.4c-6.4-2.5-13.2-1.1-19.8-0.9c-0.2-0.2-0.4-0.4-0.6-0.5
		c-3-2.7-6-5.4-9.3-7.8c-8.8-6.4-19.8-9.9-30.6-8.1C410.1,115.4,403.4,140.7,414.9,157.4z"/>
	<path class="st9" d="M535.6,675.9c1.4,14,10.9,20,22.3,20.3c6.8,0.2,14.3-1.7,21-5c0.1-0.1,0.3-0.1,0.4-0.2
		c4.5-2.3,8.7-5.3,12.1-8.9c3.1-3.2,5.5-6.9,7-10.8c3.1-4.2,5.2-9,5.3-14.3c0.3-9.1-5.7-17.3-13.8-21c-1-0.5-2-0.9-3-1.2
		c-2.3-0.8-4.8-1.2-7.2-1.3h-0.2c-5.3-0.3-10.7,0.7-15.7,2.6c-0.5,0.2-1,0.4-1.5,0.6c-1.4,0.6-2.8,1.2-4.1,2c-4.7,2.5-9,6-12.6,10.1
		C538.8,656,534.6,665.7,535.6,675.9z"/>
	<path class="st9" d="M487.9,725.1c2.5,4.6,7.4,6.5,12.2,5.9c0.6-0.1,1.2-0.2,1.8-0.4c1.1-0.3,2.2-0.7,3.2-1.3c3.2-1.8,6-5,8.2-8.4
		c0.4-0.7,0.8-1.3,1.2-2c6.1-3.5,6.4-14.8-1.9-16.4c-2.6-0.5-5.7-0.7-8.7-0.4c-1,0.1-2.1,0.3-3.1,0.5c-0.1,0-0.1,0-0.2,0.1
		c-1.8,0.4-3.6,1-5.2,1.8c-0.7,0.3-1.4,0.7-2,1.2c-0.9,0.6-1.8,1.3-2.5,2.2c-1.1,1.2-2,2.5-2.7,3.9c-0.3,0.6-0.5,1.1-0.7,1.7
		C486,717.3,485.9,721.5,487.9,725.1z"/>
	<path class="st11" d="M545.5,648.5c4.4,10,8,20,10.2,30.8c1.1,5.6,1.8,11.2,2.2,16.9c6.8,0.2,14.3-1.7,21-5c0-1,0-2-0.1-3
		c0.2,1,0.3,1.9,0.5,2.8c4.5-2.3,8.7-5.3,12.1-8.9c-0.8-4.5-1.6-9.1-2.1-13.7c-1.3-11.2-1.3-22.5-2.4-33.7c-2.3-0.8-4.8-1.2-7.2-1.3
		c-0.1,0.1-0.1,0.2-0.1,0.3c0-0.1,0-0.2,0-0.3c-5.3-0.3-10.7,0.7-15.7,2.6c-0.2,2.9,0.2,6.1,0.4,8.9c0.1,2.1,0.3,4.2,0.5,6.4
		c-1.8-4.4-3.9-8.8-6.5-12.7C553.4,641,549.1,644.4,545.5,648.5z"/>
	<path class="st11" d="M487.9,725.1c2.5,4.6,7.4,6.5,12.2,5.9c0.1-0.3,0.1-0.6,0-0.9c0.4-0.1,0.7-0.3,0.9-0.6
		c0.3,0.4,0.5,0.8,0.8,1.1c1.1-0.3,2.2-0.7,3.2-1.3c3.2-1.8,6-5,8.2-8.4c-0.6-0.8-1.1-1.6-1.7-2.5c-3.5-5.2-5.6-10.6-7.7-16.3
		c-1,0.1-2.1,0.3-3.1,0.5c0.1,0.2,0.1,0.5,0.2,0.8c-0.1-0.2-0.3-0.5-0.4-0.7c-1.8,0.4-3.6,1-5.2,1.8c0.2,0.3,0.3,0.6,0.5,0.9
		c-0.7,0.1-1.4,0.6-1.8,1.3c-0.1-0.1-0.1-0.2-0.2-0.3c-0.1-0.3-0.3-0.5-0.6-0.6c-0.9,0.6-1.8,1.3-2.5,2.2c-1.1,1.2-2,2.5-2.7,3.9
		c0.3,0.8,0.7,1.7,1,2.5c-0.2,0.1-0.3,0.2-0.5,0.3c0-0.1-0.1-0.2-0.1-0.2c-0.3-0.5-0.7-0.8-1.1-0.9
		C486,717.3,485.9,721.5,487.9,725.1z"/>
	<path class="st10" d="M414.9,157.4c11.9,17.3,35.5,25.6,55.6,26.8c0.3,0,0.7,0,1,0.1v-56.3c-3-2.7-6-5.4-9.3-7.8
		c-8.8-6.4-19.8-9.9-30.6-8.1C410.1,115.4,403.4,140.7,414.9,157.4z"/>
</g>
<path class="st7" d="M1010.1,465.4c1.4-5.5,1.8-11.2,2.9-16.7c0.1-0.6,1.1-0.6,1.2,0c0.9,5.7,0,11.9-1.2,17.5
	c-1.2,5.6-2.6,12-6.4,16.4c-0.7,0.8-1.7-0.1-1.6-0.9C1006,476.2,1008.8,470.9,1010.1,465.4z"/>
<path class="st0" d="M770.7,426c-0.8-1.5,1.2-3.2,2.4-1.9c1.4,1.6,2.8,3.8,4,6.2c0.3-3.5,0.2-7.1-0.3-10.6c-0.7-5.3-2.7-11,0.9-15.6
	c0.3-0.4,1.1-0.1,1.1,0.4c-0.5,5.8,1.4,11.2,2.3,16.9c0.2-8.1-0.6-16.2-1.4-24.3c-0.1-1.3,1.7-1.3,2.2-0.3c2.7,6.7,3.9,13.8,4,21
	c0.2-0.1,0.4-0.1,0.6,0c-0.5-5-1.3-9.9-2.1-15.1c-0.1-0.4,0.5-0.7,0.7-0.3c4,7.4,5,16.9,4.6,25.2c-0.2,4.2-0.8,8.3-1.7,12.4
	c-1.4,6.3-3,11.6,0.9,17.3c0.2,0.3,0.2,0.7,0.1,0.9c0.8,0.8,1.7,1.7,2.5,2.5c0.7,0.7,0.4,1.6-0.3,2.2c-2.6,1.9-5.6,4-9,3
	c-1.1-0.3-2-0.9-2.7-1.6c-0.2,0.2-0.4,0.2-0.7,0.1c-5.3-2.5-8.5-9-9.2-14.7C768.8,441.9,774.7,433.6,770.7,426z"/>
<path class="st1" d="M949.2,421.5c-1.9,1.2-22.9,25.6-35.7,33.1c-50.8,29.9-121.9,6.2-121.9,6.2l-9.3,5.2c0,0,59.9,82.3,145.3,38.3
	C977,478.8,949.2,421.5,949.2,421.5z"/>
<path class="st7" d="M1000.3,494.1c-13.7-11.4-35.2,3.6-50.5,0.2c-4.8-1.1-9.9-4-12.3-8.4c-3.6-6.9,0.6-13.2,3.5-19.2
	c2.5-5.1,4.6-10.5,2.1-15.9c-0.2-0.3-0.7-0.2-0.7,0.2c1.4,15-18.8,30.3-1.3,42.7c6.3,4.5,14.1,5,21.5,4c5.3-0.7,10.5-2.2,15.9-3.1
	c7.6-1.3,13.5-0.1,20.8,1.3C1000.2,495.9,1001.1,494.8,1000.3,494.1z"/>
<path class="st7" d="M881.8,478.6c-2.1,0.7-4,1.9-6.1,2.6c-2.2,0.8-4.5,1.2-6.8,1.2c-1,0-0.9,1.4-0.1,1.6c4.7,1.2,11.3,0.7,14.1-3.7
	C883.5,479.5,882.9,478.3,881.8,478.6z"/>
</svg>
