<?xml version="1.0" encoding="utf-8"?>
<!-- Generator: Adobe Illustrator 18.1.1, SVG Export Plug-In . SVG Version: 6.00 Build 0)  -->
<svg version="1.1" id="Слой_1" xmlns="http://www.w3.org/2000/svg" xmlns:xlink="http://www.w3.org/1999/xlink" x="0px" y="0px"
	 viewBox="0 0 17.3 13.6" style="enable-background:new 0 0 17.3 13.6;" xml:space="preserve">
<style type="text/css">
	.st0{fill-rule:evenodd;clip-rule:evenodd;fill:#100F10;stroke:#201600;stroke-width:0.5669;stroke-miterlimit:22.9256;}
	.st1{fill:#E9ECEB;}
	.st2{fill:#E2E2E2;}
	.st3{fill-rule:evenodd;clip-rule:evenodd;fill:#FFFFFF;}
	.st4{fill:#FFFFFF;}
	.st5{fill:#FFFEFF;}
	.st6{fill:#ECECEC;}
	.st7{fill-rule:evenodd;clip-rule:evenodd;fill:#E61C21;}
	.st8{fill-rule:evenodd;clip-rule:evenodd;fill:#E2E2E2;}
	.st9{fill:#F3444E;}
	.st10{fill-rule:evenodd;clip-rule:evenodd;fill:#F3444E;}
	.st11{fill:#DC7D43;}
	.st12{fill:#201600;}
	.st13{fill:#D24A43;}
	.st14{fill:#B6B8BD;}
	.st15{fill-rule:evenodd;clip-rule:evenodd;fill:#FFFEFF;}
	.st16{fill:#E62A13;}
	.st17{fill-rule:evenodd;clip-rule:evenodd;fill:#E62A13;}
	.st18{fill:#F1444C;}
	.st19{fill-rule:evenodd;clip-rule:evenodd;fill:#FF0000;}
	.st20{fill-rule:evenodd;clip-rule:evenodd;fill:#5C768B;}
	.st21{fill:none;stroke:#D24A43;stroke-width:1.4173;stroke-miterlimit:22.9256;}
	.st22{fill-rule:evenodd;clip-rule:evenodd;fill:#D24A43;}
	.st23{fill-rule:evenodd;clip-rule:evenodd;fill:#E8444C;}
	.st24{fill:none;stroke:#C6C6C6;stroke-width:1.0001;stroke-miterlimit:22.9256;}
	.st25{fill:#E61C21;}
	.st26{fill-rule:evenodd;clip-rule:evenodd;fill:#E41C22;}
	.st27{fill:none;stroke:#F1444C;stroke-miterlimit:10;}
	.st28{fill:none;stroke:#F1444C;stroke-width:2.1099;stroke-miterlimit:10;}
	.st29{fill:none;stroke:#F1444C;stroke-width:5.6693;stroke-miterlimit:10;}
	.st30{fill:none;stroke:#F1444C;stroke-width:2.8347;stroke-miterlimit:10;}
	.st31{fill:none;stroke:#F1444C;stroke-width:1.9345;stroke-miterlimit:10;}
	.st32{fill:none;stroke:#F1444C;stroke-width:1.3761;stroke-miterlimit:10;}
	.st33{fill:none;stroke:#F1444C;stroke-width:2.6283;stroke-miterlimit:10;}
	.st34{fill:none;stroke:#F1444C;stroke-width:3.536;stroke-miterlimit:10;}
	.st35{fill:none;stroke:#F1444C;stroke-width:3.3797;stroke-miterlimit:10;}
	.st36{fill:none;stroke:#F1444C;stroke-width:2.9335;stroke-miterlimit:10;}
	.st37{fill:none;stroke:#F1444C;stroke-width:1.275;stroke-miterlimit:10;}
	.st38{fill:none;stroke:#F1444C;stroke-width:1.0997;stroke-miterlimit:10;}
	.st39{fill:none;stroke:#F1444C;stroke-width:1.9238;stroke-miterlimit:10;}
</style>
<path class="st4" d="M6.2,13.6c-0.7,0-1.3-0.1-1.9-0.2c-0.8-0.2-1.4-0.4-1.9-0.6c-0.3-0.2-0.7-0.3-1-0.5L0,11.4l1.3,0
	c0.1,0,0.2,0,0.4,0c0.2,0,0.4,0,0.6,0c0.2,0,0.3,0,0.5,0c0.2,0,0.3,0,0.4-0.1C4,11.2,4.5,11,5,10.7l0.1-0.1c0,0-0.1,0-0.1,0
	c-1.1-0.4-1.8-1.1-2.2-2.3L2.5,7.8L3,7.9C2.3,7.3,1.6,6.5,1.6,5l0-0.6l0.7,0.3C1.7,3.8,1.5,2.8,1.7,1.9C1.8,1.5,2,1.2,2.1,0.9
	l0.2-0.3l0.4,0.2L2.8,1c0,0,0.1,0.1,0.1,0.1c0,0,0.1,0.1,0.1,0.1c0.2,0.3,0.5,0.6,0.9,0.9c1.2,1,2.2,1.5,3.8,1.8
	C8,4,8.3,4.1,8.6,4.1c0-0.4,0-0.9,0.1-1.2c0.3-1.1,1-1.9,2-2.4c0.2-0.1,0.5-0.2,0.8-0.2l0.6-0.1c1.3,0,2,0.5,2.6,1
	c0.4-0.1,1-0.3,1.4-0.5L17.2,0l-0.3,0.9c-0.1,0.4-0.3,0.7-0.5,1c0,0,0,0,0,0c0.2-0.1,0.3-0.1,0.5-0.2l0.5-0.1v0.6l-0.1,0.1
	c-0.3,0.5-0.7,1-1.2,1.3l-0.4,0.3c0,0.6,0,1.3-0.2,2c-0.8,3.7-3.1,6.3-6.5,7.4C8.3,13.4,7.2,13.6,6.2,13.6z M2.8,12.1
	c0.5,0.2,1,0.4,1.7,0.6c1.2,0.3,3.1,0.2,4.3-0.2c3.2-1,5.3-3.3,6-6.8C15,5.1,15,4.3,15,3.7l0-0.2L15.7,3c0.1-0.1,0.2-0.2,0.3-0.2
	c-0.2,0.1-0.5,0.1-0.8,0.1l-0.4,0V2.3L15,2.2c0,0,0.1-0.1,0.2-0.1L15.3,2c0.2-0.1,0.3-0.3,0.4-0.4c-0.4,0.1-0.8,0.3-1.2,0.3l-0.2,0
	l-0.1-0.1c-0.5-0.5-1.1-0.9-2.2-0.9l-0.4,0C11.4,1,11.2,1,11,1.1c-0.8,0.4-1.4,1-1.6,1.9c-0.1,0.4-0.1,1,0,1.3l0.2,0.5L9,4.8
	c-0.5,0-1-0.1-1.5-0.2c-1.6-0.4-2.8-0.9-4.1-2c-0.4-0.3-0.7-0.6-1-0.9c0,0.1-0.1,0.2-0.1,0.3c-0.3,1.1,0.2,2,0.7,2.6
	c0.1,0.1,0.1,0.1,0.2,0.2C3.4,4.9,3.5,5,3.5,5h1.8L3.5,5.7c-0.2,0.1-0.4,0-0.6,0c-0.2,0-0.4-0.1-0.6-0.1c0.2,1,0.8,1.6,1.3,1.9
	c0.2,0.1,0.6,0.3,0.9,0.4l0.9,0L4.7,8.4C4.6,8.6,4.2,8.6,3.7,8.6C4,9.3,4.5,9.7,5.2,9.9C5.5,10,5.8,10.1,6,10.1h0.8l-0.5,0.6
	c-0.2,0.2-0.5,0.4-0.8,0.5l-0.2,0.1c-0.5,0.3-1.2,0.5-2,0.7C3.2,12.1,3,12.1,2.8,12.1C2.8,12.1,2.8,12.1,2.8,12.1z"/>
</svg>
