<?xml version="1.0" encoding="utf-8"?>
<!-- Generator: Adobe Illustrator 23.0.3, SVG Export Plug-In . SVG Version: 6.00 Build 0)  -->
<svg version="1.1" id="Layer_3" xmlns="http://www.w3.org/2000/svg" xmlns:xlink="http://www.w3.org/1999/xlink" x="0px" y="0px"
	 viewBox="0 0 572.6 427.6" style="enable-background:new 0 0 572.6 427.6;" xml:space="preserve">
<style type="text/css">
	.st0{fill-rule:evenodd;clip-rule:evenodd;fill:#D4EAFB;}
	.st1{fill-rule:evenodd;clip-rule:evenodd;fill:#E2EEFF;}
	.st2{fill-rule:evenodd;clip-rule:evenodd;fill:#ACD2FF;}
	.st3{fill-rule:evenodd;clip-rule:evenodd;fill:url(#SVGID_1_);}
	.st4{fill-rule:evenodd;clip-rule:evenodd;fill:#FFFFFF;}
	.st5{fill-rule:evenodd;clip-rule:evenodd;fill:#FF65A7;}
	.st6{fill-rule:evenodd;clip-rule:evenodd;fill:#6CA4DF;}
	.st7{fill-rule:evenodd;clip-rule:evenodd;fill:url(#SVGID_2_);}
	.st8{fill-rule:evenodd;clip-rule:evenodd;fill:#FFDC78;}
	.st9{fill-rule:evenodd;clip-rule:evenodd;fill:url(#SVGID_3_);}
	.st10{fill-rule:evenodd;clip-rule:evenodd;fill:#C5E3FF;}
	.st11{fill-rule:evenodd;clip-rule:evenodd;fill:#00195F;}
	.st12{fill-rule:evenodd;clip-rule:evenodd;fill:#0B2F96;}
	.st13{fill-rule:evenodd;clip-rule:evenodd;fill:#F1FBFF;}
	.st14{fill-rule:evenodd;clip-rule:evenodd;fill:#0154A3;}
	.st15{fill-rule:evenodd;clip-rule:evenodd;fill:#54B2C6;}
	.st16{fill-rule:evenodd;clip-rule:evenodd;fill:#0065D3;}
	.st17{fill-rule:evenodd;clip-rule:evenodd;fill:url(#SVGID_4_);}
	.st18{fill-rule:evenodd;clip-rule:evenodd;fill:#E8F9FF;}
	.st19{fill-rule:evenodd;clip-rule:evenodd;fill:url(#SVGID_5_);}
	.st20{fill-rule:evenodd;clip-rule:evenodd;fill:url(#SVGID_6_);}
	.st21{fill-rule:evenodd;clip-rule:evenodd;fill:#BCE5F2;}
	.st22{fill-rule:evenodd;clip-rule:evenodd;fill:url(#SVGID_7_);}
	.st23{fill-rule:evenodd;clip-rule:evenodd;fill:#DDDDFF;}
	.st24{opacity:0.451;}
	.st25{fill-rule:evenodd;clip-rule:evenodd;fill:#00163A;}
	.st26{fill-rule:evenodd;clip-rule:evenodd;fill:#F2FAFF;}
	.st27{fill-rule:evenodd;clip-rule:evenodd;fill:#8EC2FF;}
	.st28{fill-rule:evenodd;clip-rule:evenodd;fill:#FFD22E;}
	.st29{fill-rule:evenodd;clip-rule:evenodd;fill:#FA6E00;}
	.st30{fill-rule:evenodd;clip-rule:evenodd;fill:url(#SVGID_8_);}
	.st31{fill-rule:evenodd;clip-rule:evenodd;fill:#8ABCF7;}
	.st32{fill-rule:evenodd;clip-rule:evenodd;fill:#FBE57E;}
	.st33{fill-rule:evenodd;clip-rule:evenodd;fill:#9999FC;}
	.st34{fill-rule:evenodd;clip-rule:evenodd;fill:#BD1C61;}
	.st35{fill-rule:evenodd;clip-rule:evenodd;fill:#FFCC00;}
	.st36{fill-rule:evenodd;clip-rule:evenodd;fill:#9494E9;}
</style>
<g>
	<g>
		<path class="st0" d="M413,244.6l37.2,21.3l-3,1.8l-22.7-13c-1.3-1.8-3.6-3.6-6.8-5.4l-5.4-3.1L413,244.6z M476.1,267.7l-3-1.8
			l10.7-6.2V201l3,1.7v57.9c0,0.3-0.1,0.5-0.2,0.8c-0.1,0.2-0.3,0.4-0.5,0.6L476.1,267.7z M472.8,282.4l2.6-1.5l53.7,30.7
			c0.1,0,0.1,0.1,0.1,0.1c0,0,0-0.1,0-0.1c0.1-0.3,0.2-0.5,0.5-0.6l2.6-1.5c0.2-0.1,0.5-0.2,0.8-0.1c0.3,0.1,0.5,0.2,0.6,0.5
			c0.1,0.2,0.2,0.5,0.1,0.8c-0.1,0.3-0.2,0.5-0.5,0.6l-2.6,1.5c-0.2,0.1-0.5,0.2-0.8,0.1c-0.1,0-0.1,0-0.1-0.1c0,0.2,0,0.4-0.1,0.7
			c-0.1,0.3-0.3,0.6-0.6,0.8l-16.4,9.4l1.5-2.5l-4.6,0.9l15.8-9.1l-51.8-29.6C473.1,283,472.9,282.7,472.8,282.4z M537.7,308.4
			c-0.3-0.1-0.5-0.2-0.6-0.5c-0.1-0.2-0.2-0.5-0.1-0.8c0.1-0.3,0.2-0.5,0.5-0.6l2.6-1.5c0.2-0.1,0.5-0.2,0.8-0.1
			c0.3,0.1,0.5,0.2,0.6,0.5c0.1,0.2,0.2,0.5,0.1,0.8c-0.1,0.3-0.2,0.5-0.5,0.6l-2.6,1.5C538.2,308.4,538,308.4,537.7,308.4z
			 M547.9,300.5c0.2-0.1,0.5-0.2,0.8-0.1c0.3,0.1,0.5,0.2,0.6,0.5c0.1,0.2,0.2,0.5,0.1,0.8c-0.1,0.3-0.2,0.5-0.5,0.6l-2.6,1.5
			c-0.2,0.1-0.5,0.2-0.8,0.1c-0.3-0.1-0.5-0.2-0.6-0.5c-0.1-0.2-0.2-0.5-0.1-0.8c0.1-0.3,0.2-0.5,0.5-0.6L547.9,300.5z M497.7,332.1
			l-3-1.7l9.6-5.5l3,1.7L497.7,332.1z M515.9,355.5l3-1.8l26.8,15.3c0.4,0.2,0.6,0.5,0.7,0.9c0,0.1,0,0.1,0,0.1
			c0.1,0,0.2,0.1,0.3,0.1l1.9,1.1c0.2,0.1,0.4,0.4,0.5,0.6c0.1,0.3,0,0.5-0.1,0.8c-0.1,0.2-0.4,0.4-0.6,0.5c-0.3,0.1-0.5,0-0.8-0.1
			l-1.9-1.1c-0.1-0.1-0.2-0.1-0.3-0.2c0,0-0.1,0-0.1,0c-0.4,0.1-0.8,0.1-1.2-0.1L515.9,355.5z M475.6,344.8l1.5-2.6l1.5,0.8
			L475.6,344.8z M447.6,357.4l19.9-11.4l3,1.7l-20,11.4L447.6,357.4z M460.8,385.2l24.7,14.2c0.3,0.2,0.6,0.5,0.7,0.9
			c0.4-0.1,0.8-0.1,1.1,0.1l2.6,1.5c0.4,0.2,0.6,0.5,0.7,0.9c0.1,0.4,0.1,0.8-0.2,1.1c-0.2,0.4-0.5,0.6-0.9,0.7
			c-0.4,0.1-0.8,0.1-1.2-0.1l-2.6-1.5c-0.3-0.2-0.6-0.5-0.7-0.9c-0.4,0.1-0.8,0.1-1.1-0.1l-26.2-15L460.8,385.2z M411.5,378.1l3,1.8
			l-15.2,8.7l17.6,10.1l0,0l2.6,1.5c0.4,0.2,0.6,0.5,0.7,0.9c0.1,0.4,0.1,0.8-0.1,1.2c-0.2,0.4-0.5,0.6-0.9,0.7
			c-0.4,0.1-0.8,0.1-1.1-0.1l-2.6-1.5l0,0l-19.7-11.3c-0.1,0-0.2-0.1-0.2-0.2l-32.8-18.8l-7.8,4.5l-3-1.7l7.8-4.5l-11.3-6.5
			c-0.4-0.2-0.6-0.5-0.7-0.9c-0.1-0.4-0.1-0.8,0.2-1.2c0.2-0.4,0.5-0.6,0.9-0.7c0.4-0.1,0.8-0.1,1.2,0.1l13.5,7.7c0,0,0.1,0,0.1,0.1
			l0,0c0,0,0,0,0.1,0l32.8,18.9L411.5,378.1z M327.3,391.3l-32,18.4l0.3,0.2c0.4,0.2,0.6,0.5,0.7,0.9c0.1,0.4,0.1,0.8-0.2,1.1
			c-0.2,0.4-0.5,0.6-0.9,0.7c-0.4,0.1-0.8,0.1-1.2-0.1l-10.2-5.9l3-1.7l5.4,3.1l32-18.4L327.3,391.3z M346.4,380.3l-3-1.7l3.3-1.9
			l-1.5,2.6l4.6-0.9L346.4,380.3z M366.7,404.7l3-1.7l18.2,10.4c0.3,0.2,0.5,0.4,0.6,0.7c0.3,0,0.7,0,1,0.2l2.6,1.5
			c0.4,0.2,0.6,0.5,0.7,0.9c0.1,0.4,0.1,0.8-0.2,1.1c-0.2,0.4-0.5,0.6-0.9,0.7c-0.4,0.1-0.8,0.1-1.1-0.1l-2.6-1.5
			c-0.3-0.2-0.5-0.4-0.6-0.7c-0.3,0-0.7,0-1-0.2L366.7,404.7z M277.6,401.7l1.1,1.9l-2.2-1.2C276.8,402.1,277.2,401.9,277.6,401.7z
			 M238.3,380.4l-28.7-16.5l3-1.7l28.7,16.5c-0.5,0.3-1,0.5-1.5,0.8C239.2,379.7,238.7,380.1,238.3,380.4z M241,402.2
			c0.3,0.2,0.7,0.3,1,0.5c0.1,0.1,0.1,0.2,0.2,0.2c0.2,0.4,0.3,0.7,0.2,1.1c-0.1,0.4-0.3,0.7-0.7,0.9l-2.6,1.5
			c-0.4,0.2-0.7,0.3-1.2,0.1c-0.4-0.1-0.7-0.3-0.9-0.7c-0.2-0.4-0.3-0.7-0.1-1.2c0.1-0.4,0.3-0.7,0.7-0.9l2.6-1.5
			C240.4,402.2,240.7,402.2,241,402.2z M204.3,360.8l-2.8-1.6l1.4-0.8L204.3,360.8z M207.6,359.3l-4.5-0.9l1.5-0.9L207.6,359.3z
			 M186.3,368c0.1,0.2,0.2,0.5,0.2,0.8v18.5c0,0.4-0.2,0.8-0.4,1c-0.1,0.1-0.1,0.1-0.2,0.2c0.1,0.2,0.1,0.3,0.1,0.5v3
			c0,0.3-0.1,0.5-0.3,0.7c-0.2,0.2-0.4,0.3-0.7,0.3c-0.3,0-0.5-0.1-0.7-0.3c-0.2-0.2-0.3-0.4-0.3-0.7v-3c0-0.2,0.1-0.4,0.1-0.5
			c-0.1,0-0.1-0.1-0.2-0.2c-0.3-0.3-0.4-0.6-0.5-1v-18.5c0-0.3,0.1-0.5,0.2-0.7l1.2,0.7L186.3,368z M166.8,358.3l3,1.7l-20.6,11.8
			c-0.1,0.1-0.3,0.2-0.5,0.3c0,0-0.1,0-0.1,0.1L127,384.6l-3-1.7l23.2-13.3c0.1,0,0.2-0.1,0.2-0.1c0.1-0.1,0.2-0.1,0.2-0.2l0.1,0
			L166.8,358.3z M141.9,324.6l3-1.7l25.5,14.6l-3,1.7L141.9,324.6z M136.6,321.5l-2.9-1.7l1.4-0.8L136.6,321.5z M88.4,333.9l3,1.8
			l-4.5,2.6l0,0l-2.6,1.5c-0.4,0.2-0.7,0.3-1.1,0.1c-0.4-0.1-0.7-0.3-0.9-0.7c-0.2-0.4-0.3-0.7-0.1-1.2c0.1-0.4,0.3-0.7,0.7-0.9
			l2.5-1.4l0.1-0.1L88.4,333.9z M67.6,281.9l3-1.7L90,291.3l40.1-23.1l3,1.7L93,293l24.6,14.2l-3,1.7l-25.1-14.5
			c-0.1,0-0.2-0.1-0.3-0.1L67.6,281.9z M62.7,275.6l0.2,0.1l3,5.2l-6.4-3.7C60.6,276.8,61.7,276.2,62.7,275.6z M24.4,253.7
			c-1,0.6-1.9,1.2-2.7,1.9l-2.8-1.6c-0.4-0.2-0.6-0.5-0.7-0.9c-0.1-0.4-0.1-0.8,0.2-1.2c0.2-0.4,0.5-0.6,0.9-0.7
			c0.4-0.1,0.8-0.1,1.1,0.1L24.4,253.7z M25,275.7c1,0.6,2.1,1.1,3.2,1.6l-2.6,1.5c-0.4,0.2-0.7,0.3-1.1,0.1
			c-0.4-0.1-0.7-0.3-0.9-0.7c-0.2-0.4-0.3-0.7-0.1-1.2c0.1-0.4,0.3-0.7,0.7-0.9L25,275.7z M60,252c-1.2-0.5-2.4-1-3.7-1.4l35.1-20.2
			l3,1.8L60,252z M88.4,200.2l-3,1.7l-3.6-2.1c-0.3-0.2-0.6-0.5-0.7-0.9c0,0,0,0,0,0c-0.4,0.1-0.8,0.1-1.2-0.2l-2.6-1.5
			c-0.4-0.2-0.6-0.5-0.7-0.9c-0.1-0.4-0.1-0.8,0.1-1.2c0.2-0.4,0.5-0.6,0.9-0.7c0.4-0.1,0.8-0.1,1.2,0.2l2.6,1.5
			c0.3,0.2,0.6,0.5,0.7,0.9c0,0,0,0,0,0c0.4-0.1,0.8-0.1,1.2,0.2L88.4,200.2z M129,212.4l-0.1-0.1l0-3.3v0l13-7.4l3,1.7L129,212.4z
			 M163.9,192.3l-3-1.8l28.3-16.2l-7-4.1l3-1.8l7,4.1l25.8-14.9V65.2l3,1.7v91.6c0,0.3-0.1,0.5-0.2,0.8c-0.1,0.2-0.3,0.4-0.5,0.5
			l-27.3,15.7l-0.1,0l0,0L163.9,192.3z M146.7,146.2l-3,1.7l-14.1-8.2c-0.3-0.2-0.6-0.5-0.7-0.9c0,0-0.1,0-0.1,0
			c-0.4,0.1-0.8,0.1-1.2-0.1l-2.6-1.5c-0.4-0.2-0.6-0.5-0.7-0.9c-0.1-0.4-0.1-0.8,0.1-1.1c0.2-0.4,0.5-0.6,0.9-0.7
			c0.4-0.1,0.8-0.1,1.2,0.1l2.6,1.5c0.3,0.2,0.6,0.5,0.7,0.9c0,0,0,0,0.1,0c0.4-0.1,0.8-0.1,1.1,0.1L146.7,146.2z M560.9,378.7
			c0.3-0.1,0.5,0,0.8,0.1l2.6,1.5c0.2,0.1,0.4,0.4,0.5,0.6c0.1,0.3,0,0.5-0.1,0.8c-0.1,0.2-0.4,0.4-0.6,0.5c-0.3,0.1-0.5,0-0.8-0.1
			l-2.6-1.5c-0.2-0.1-0.4-0.4-0.5-0.6c-0.1-0.3,0-0.5,0.1-0.8C560.4,378.9,560.6,378.8,560.9,378.7z M556.9,376.4
			c0.1,0.3,0,0.5-0.1,0.8c-0.1,0.2-0.4,0.4-0.6,0.5c-0.3,0.1-0.5,0-0.8-0.1l-2.6-1.5c-0.2-0.1-0.4-0.4-0.5-0.6
			c-0.1-0.3,0-0.5,0.1-0.8c0.1-0.2,0.4-0.4,0.6-0.5c0.3-0.1,0.5,0,0.8,0.1l2.6,1.5C556.7,376,556.9,376.2,556.9,376.4z M569.5,383.3
			l2.6,1.5c0.2,0.1,0.4,0.4,0.5,0.6c0.1,0.3,0,0.5-0.1,0.8c-0.1,0.2-0.4,0.4-0.6,0.5c-0.3,0.1-0.5,0-0.8-0.1l-2.6-1.5
			c-0.2-0.1-0.4-0.4-0.5-0.6c-0.1-0.3,0-0.5,0.1-0.8c0.1-0.2,0.4-0.4,0.6-0.5C569,383.1,569.2,383.2,569.5,383.3z M557.1,297.1
			c-0.1,0.3-0.2,0.5-0.5,0.6l-2.6,1.5c-0.2,0.1-0.5,0.2-0.8,0.1c-0.3-0.1-0.5-0.2-0.6-0.5c-0.1-0.2-0.2-0.5-0.1-0.8
			c0.1-0.3,0.2-0.5,0.5-0.6l2.6-1.5c0.2-0.1,0.5-0.2,0.8-0.1c0.3,0.1,0.5,0.2,0.6,0.5C557.2,296.6,557.2,296.9,557.1,297.1z
			 M472.8,342.9l2.8-1.6l1.3,0.8L472.8,342.9z M203.8,339.8l-3-1.7l25.5-14.7l3,1.7L203.8,339.8z M281.8,401.9l-3.4-0.6
			c0.4-0.2,0.7-0.4,1-0.7L281.8,401.9z M449.7,314l-3,1.8l-17.4-10c-0.4-0.2-0.6-0.5-0.7-0.9c-0.1-0.4-0.1-0.8,0.1-1.1
			c0.2-0.4,0.5-0.6,0.9-0.7c0.4-0.1,0.8-0.1,1.2,0.2L449.7,314z M501.8,409.1c0.4-0.1,0.8-0.1,1.1,0.2l2.6,1.5
			c0.4,0.2,0.6,0.5,0.7,0.9c0.1,0.4,0.1,0.8-0.1,1.1c-0.2,0.4-0.5,0.6-0.9,0.7c-0.4,0.1-0.8,0.1-1.1-0.2l-2.6-1.5
			c-0.4-0.2-0.6-0.5-0.7-0.9c-0.1-0.4-0.1-0.8,0.2-1.2C501.1,409.5,501.4,409.2,501.8,409.1z M497.7,406.3c0.4,0.2,0.6,0.5,0.7,0.9
			c0.1,0.4,0.1,0.8-0.1,1.1c-0.2,0.4-0.5,0.6-0.9,0.7c-0.4,0.1-0.8,0.1-1.2-0.2l-2.6-1.5c-0.4-0.2-0.6-0.5-0.7-0.9
			c-0.1-0.4-0.1-0.8,0.2-1.2c0.2-0.4,0.5-0.6,0.9-0.7c0.4-0.1,0.8-0.1,1.2,0.2L497.7,406.3z M405.1,423.3l2.6,1.5
			c0.4,0.2,0.6,0.5,0.7,0.9c0.1,0.4,0.1,0.8-0.1,1.1c-0.2,0.4-0.5,0.6-0.9,0.7c-0.4,0.1-0.8,0.1-1.2-0.2l-2.6-1.5
			c-0.4-0.2-0.6-0.5-0.7-0.9c-0.1-0.4-0.1-0.8,0.2-1.2c0.2-0.4,0.5-0.6,0.9-0.7C404.4,423,404.7,423.1,405.1,423.3z M395.1,420.5
			c-0.1-0.4-0.1-0.8,0.2-1.2c0.2-0.4,0.5-0.6,0.9-0.7c0.4-0.1,0.8-0.1,1.2,0.2l2.6,1.5c0.4,0.2,0.6,0.5,0.7,0.9
			c0.1,0.4,0.1,0.8-0.2,1.1c-0.2,0.4-0.5,0.6-0.9,0.7c-0.4,0.1-0.8,0.1-1.2-0.2l-2.6-1.5C395.4,421.2,395.2,420.9,395.1,420.5z
			 M427,407.4c-0.4,0.1-0.8,0.1-1.1-0.1l-2.6-1.5c-0.4-0.2-0.6-0.5-0.7-0.9c-0.1-0.4-0.1-0.8,0.1-1.1c0.2-0.4,0.5-0.6,0.9-0.7
			c0.4-0.1,0.8-0.1,1.1,0.1l2.6,1.5c0.4,0.2,0.6,0.5,0.7,0.9c0.1,0.4,0.1,0.8-0.2,1.2C427.7,407,427.4,407.3,427,407.4z
			 M431.4,407.4c0.4-0.1,0.8-0.1,1.2,0.1l2.6,1.5c0.4,0.2,0.6,0.5,0.7,0.9c0.1,0.4,0.1,0.8-0.2,1.1c-0.2,0.4-0.5,0.6-0.9,0.7
			c-0.4,0.1-0.8,0.1-1.2-0.1l-2.6-1.5c-0.4-0.2-0.6-0.5-0.7-0.9c-0.1-0.4-0.1-0.8,0.2-1.2C430.7,407.8,431,407.5,431.4,407.4z
			 M121.4,131.6c0.4,0.2,0.6,0.5,0.7,0.9c0.1,0.4,0.1,0.8-0.2,1.1c-0.2,0.4-0.5,0.6-0.9,0.7c-0.4,0.1-0.8,0.1-1.1-0.1l-2.6-1.5
			c-0.4-0.2-0.6-0.5-0.7-0.9c-0.1-0.4-0.1-0.8,0.1-1.1c0.2-0.4,0.5-0.6,0.9-0.7c0.4-0.1,0.8-0.1,1.1,0.1L121.4,131.6z M109.8,125.4
			c0.4-0.1,0.8-0.1,1.1,0.1l2.6,1.5c0.4,0.2,0.6,0.5,0.7,0.9c0.1,0.4,0.1,0.8-0.1,1.1c-0.2,0.4-0.5,0.6-0.9,0.7
			c-0.4,0.1-0.8,0.1-1.1-0.1l-2.6-1.5c-0.4-0.2-0.6-0.5-0.7-0.9c-0.1-0.4-0.1-0.8,0.1-1.1C109.1,125.8,109.4,125.5,109.8,125.4z
			 M105.8,122.6c0.4,0.2,0.6,0.5,0.7,0.9c0.1,0.4,0.1,0.8-0.1,1.1c-0.2,0.4-0.5,0.6-0.9,0.7c-0.4,0.1-0.8,0.1-1.1-0.1l-2.6-1.5
			c-0.4-0.2-0.6-0.5-0.7-0.9c-0.1-0.4-0.1-0.8,0.1-1.1c0.2-0.4,0.5-0.6,0.9-0.7c0.4-0.1,0.8-0.1,1.1,0.1L105.8,122.6z M73.6,191.8
			c0.4,0.2,0.6,0.5,0.7,0.9c0.1,0.4,0.1,0.8-0.2,1.1c-0.2,0.4-0.5,0.6-0.9,0.7c-0.4,0.1-0.8,0.1-1.1-0.2l-2.6-1.5
			c-0.4-0.2-0.6-0.5-0.7-0.9c-0.1-0.4-0.1-0.8,0.1-1.2c0.2-0.4,0.5-0.6,0.9-0.7c0.4-0.1,0.8-0.1,1.1,0.2L73.6,191.8z M54.3,181.1
			c0.4-0.1,0.8-0.1,1.1,0.2l2.6,1.5c0.4,0.2,0.6,0.5,0.7,0.9c0.1,0.4,0.1,0.8-0.1,1.1c-0.2,0.4-0.5,0.6-0.9,0.7
			c-0.4,0.1-0.8,0.1-1.1-0.2l-2.6-1.5c-0.4-0.2-0.6-0.5-0.7-0.9c-0.1-0.4-0.1-0.8,0.1-1.2C53.6,181.5,53.9,181.2,54.3,181.1z
			 M62.1,185.6c0.4-0.1,0.8-0.1,1.1,0.2l2.6,1.5c0.4,0.2,0.6,0.5,0.7,0.9c0.1,0.4,0.1,0.8-0.1,1.1c-0.2,0.4-0.5,0.6-0.9,0.7
			c-0.4,0.1-0.8,0.1-1.1-0.2l-2.6-1.5c-0.4-0.2-0.6-0.5-0.7-0.9c-0.1-0.4-0.1-0.8,0.1-1.2C61.4,186,61.7,185.7,62.1,185.6z
			 M20.1,279c0.4,0.1,0.7,0.3,0.9,0.7c0.2,0.4,0.3,0.7,0.1,1.1c-0.1,0.4-0.3,0.7-0.7,0.9l-2.6,1.5c-0.4,0.2-0.7,0.3-1.1,0.1
			c-0.4-0.1-0.7-0.3-0.9-0.7c-0.2-0.4-0.3-0.7-0.2-1.2c0.1-0.4,0.3-0.7,0.7-0.9l2.6-1.5C19.3,278.9,19.7,278.9,20.1,279z M5.4,288.7
			c0.2,0.4,0.3,0.7,0.2,1.1c-0.1,0.4-0.3,0.7-0.7,0.9l-2.6,1.5c-0.4,0.2-0.7,0.3-1.1,0.1c-0.4-0.1-0.7-0.3-0.9-0.7
			c-0.2-0.4-0.3-0.7-0.1-1.2c0.1-0.4,0.3-0.7,0.7-0.9l2.6-1.5c0.4-0.2,0.7-0.3,1.1-0.1C4.9,288.1,5.2,288.3,5.4,288.7z M7.9,286
			c0.1-0.4,0.3-0.7,0.7-0.9l2.6-1.5c0.4-0.2,0.7-0.3,1.2-0.1c0.4,0.1,0.7,0.3,0.9,0.7c0.2,0.4,0.3,0.7,0.1,1.1
			c-0.1,0.4-0.3,0.7-0.7,0.9l-2.6,1.5c-0.4,0.2-0.7,0.3-1.2,0.1c-0.4-0.1-0.7-0.3-0.9-0.7C7.8,286.8,7.7,286.4,7.9,286z M66.4,347
			c0.1-0.4,0.3-0.7,0.7-0.9l2.6-1.5c0.4-0.2,0.7-0.3,1.1-0.1c0.4,0.1,0.7,0.3,0.9,0.7c0.2,0.4,0.3,0.7,0.1,1.1
			c-0.1,0.4-0.3,0.7-0.7,0.9l-2.6,1.5c-0.4,0.2-0.7,0.3-1.1,0.1c-0.4-0.1-0.7-0.3-0.9-0.7C66.3,347.8,66.3,347.4,66.4,347z
			 M61.9,349.1c0.4-0.2,0.7-0.3,1.2-0.1c0.4,0.1,0.7,0.3,0.9,0.7c0.2,0.4,0.3,0.7,0.1,1.1c-0.1,0.4-0.3,0.7-0.7,0.9l-2.6,1.5
			c-0.4,0.2-0.7,0.3-1.2,0.1c-0.4-0.1-0.7-0.3-0.9-0.7c-0.2-0.4-0.3-0.7-0.1-1.2c0.1-0.4,0.3-0.7,0.7-0.9L61.9,349.1z M306.6,417.8
			c0.2-0.4,0.5-0.6,0.9-0.7c0.4-0.1,0.8-0.1,1.1,0.2l2.6,1.5c0.4,0.2,0.6,0.5,0.7,0.9c0.1,0.4,0.1,0.8-0.1,1.1
			c-0.2,0.4-0.5,0.6-0.9,0.7c-0.4,0.1-0.8,0.1-1.1-0.2l-2.6-1.5c-0.4-0.2-0.6-0.5-0.7-0.9C306.3,418.6,306.4,418.2,306.6,417.8z
			 M300.8,412.8l2.6,1.5c0.4,0.2,0.6,0.5,0.7,0.9c0.1,0.4,0.1,0.8-0.2,1.1c-0.2,0.4-0.5,0.6-0.9,0.7c-0.4,0.1-0.8,0.1-1.2-0.1
			l-2.6-1.5c-0.4-0.2-0.6-0.5-0.7-0.9c-0.1-0.4-0.1-0.8,0.2-1.2c0.2-0.4,0.5-0.6,0.9-0.7C300.1,412.6,300.4,412.6,300.8,412.8z
			 M234.5,408.6c-0.1,0.4-0.3,0.7-0.7,0.9l-2.6,1.5c-0.4,0.2-0.7,0.3-1.1,0.1c-0.4-0.1-0.7-0.3-0.9-0.7c-0.2-0.4-0.3-0.7-0.1-1.2
			c0.1-0.4,0.3-0.7,0.7-0.9l2.6-1.5c0.4-0.2,0.7-0.3,1.1-0.1c0.4,0.1,0.7,0.3,0.9,0.7C234.6,407.8,234.6,408.2,234.5,408.6z
			 M169.4,290.8l-8.9,5.1l-3-1.7l8.9-5.1L169.4,290.8z M139.7,319.9l-4.5-0.9l1.5-0.8L139.7,319.9z M79.6,340.7
			c0.2,0.4,0.3,0.7,0.1,1.1c-0.1,0.4-0.3,0.7-0.7,0.9l-2.6,1.5c-0.4,0.2-0.7,0.3-1.1,0.1c-0.4-0.1-0.7-0.3-0.9-0.7
			c-0.2-0.4-0.3-0.7-0.1-1.2c0.1-0.4,0.3-0.7,0.7-0.9l2.6-1.5c0.4-0.2,0.7-0.3,1.1-0.1C79.1,340.1,79.4,340.3,79.6,340.7z
			 M215.6,420c-0.4,0.2-0.7,0.3-1.2,0.1c-0.4-0.1-0.7-0.3-0.9-0.7c-0.2-0.4-0.3-0.7-0.2-1.2c0.1-0.4,0.3-0.7,0.7-0.9l2.6-1.5
			c0.4-0.2,0.7-0.3,1.2-0.1c0.4,0.1,0.7,0.3,0.9,0.7c0.2,0.4,0.3,0.7,0.1,1.1c-0.1,0.4-0.3,0.7-0.7,0.9L215.6,420z M222.3,415.6
			c-0.4-0.1-0.7-0.3-0.9-0.7c-0.2-0.4-0.3-0.7-0.2-1.2c0.1-0.4,0.3-0.7,0.7-0.9l2.6-1.5c0.4-0.2,0.7-0.3,1.1-0.1
			c0.4,0.1,0.7,0.3,0.9,0.7c0.2,0.4,0.3,0.7,0.1,1.1c-0.1,0.4-0.3,0.7-0.7,0.9l-2.6,1.5C223,415.7,222.7,415.7,222.3,415.6z
			 M185,406c0.3,0,0.5,0.1,0.7,0.3c0.2,0.2,0.3,0.4,0.3,0.7v3c0,0.3-0.1,0.5-0.3,0.7c-0.2,0.2-0.4,0.3-0.7,0.3
			c-0.3,0-0.5-0.1-0.7-0.3c-0.2-0.2-0.3-0.4-0.3-0.7v-3c0-0.3,0.1-0.5,0.3-0.7C184.5,406.1,184.7,406,185,406z M184.3,397.3
			c0.2-0.2,0.4-0.3,0.7-0.3c0.3,0,0.5,0.1,0.7,0.3c0.2,0.2,0.3,0.4,0.3,0.7v3c0,0.3-0.1,0.5-0.3,0.7c-0.2,0.2-0.4,0.3-0.7,0.3
			c-0.3,0-0.5-0.1-0.7-0.3c-0.2-0.2-0.3-0.4-0.3-0.7v-3C184,397.7,184.1,397.5,184.3,397.3z"/>
		<path class="st0" d="M475.4,280.9l-2.6,1.5l-11.1,6.4L436.2,274l11.1-6.4l3-1.8l11.4-6.6l11.5,6.6l3,1.8l11,6.4L475.4,280.9z
			 M518.9,353.7l-3,1.8l-5.3,3c-1.8,1-3.5,1-5.3,0l-26.7-15.4l-1.5-0.8l0.1-0.2l-0.2,0l-1.3-0.8l-34-19.6c-1.8-1-1.8-2,0-3l5.1-3
			l3-1.8l5.7-3.3c1.8-1,3.5-1,5.3,0l34.1,19.6l3,1.7l26.7,15.4c1.8,1,1.8,2,0,3L518.9,353.7z M450.6,359.1l22,12.7
			c3.8,2.2,3.8,4.4,0,6.5l-11.7,6.8l-3,1.8l-9.8,5.7c-3.8,2.2-7.6,2.2-11.4,0l-22.1-12.8l-3-1.8l-24.7-14.3c-3.8-2.2-3.8-4.3,0-6.5
			l24.5-14.2c3.8-2.2,7.6-2.2,11.4,0l24.9,14.4L450.6,359.1z M346.4,380.3l28.7,16.6c1.8,1,1.8,2,0,3l-5.4,3.1l-3,1.7l-5.4,3.1
			c-1.8,1-3.5,1-5.3,0l-28.8-16.6l-3-1.7l-32-18.5c-1.8-1-1.8-2,0-3l13.8-8c1.8-1,3.5-1,5.3,0l32,18.5L346.4,380.3z M278.4,401.2
			l-1.2-0.2l0.4,0.7c-0.4,0.2-0.7,0.4-1.1,0.6c-5,2.5-10.8,3.8-17.6,3.8c-6.4,0-12-1.1-16.9-3.4c-0.3-0.2-0.7-0.3-1-0.5
			c-0.4-0.2-0.8-0.4-1.2-0.7c-5.3-3-7.9-6.7-7.9-11c0-3.9,2.1-7.2,6.4-10.1c0.5-0.3,1-0.6,1.5-0.9c0.5-0.3,1-0.5,1.5-0.8
			c5-2.5,10.9-3.8,17.6-3.8c7.5,0,13.8,1.6,19.1,4.6c5.3,3,7.9,6.7,7.9,11c0,3.9-2.1,7.2-6.4,10.1
			C279.1,400.8,278.8,401,278.4,401.2z M166.8,358.3l-16.3-9.4l16.8-9.7l3-1.7L185,329l15.8,9.1l3,1.7l15.7,9l-14.9,8.6l-1.5,0.9
			l-0.2,0l0.1,0.1l-1.4,0.8l-15.2,8.8l-1.3,0.8l-1.2-0.7l-13.9-8L166.8,358.3z M91.4,335.6l-3-1.8l-5.9-3.4c-1.8-1-1.8-2,0-3
			l32.1-18.5l3-1.7l28.6-16.5c1.8-1,3.5-1,5.3,0l6,3.5l3,1.7l4.8,2.8c1.8,1,1.8,2,0,3l-28.6,16.5l-1.5,0.8l-0.1,0l0,0.1l-1.4,0.8
			l-32.1,18.6c-1.8,1-3.5,1-5.3,0L91.4,335.6z M28.2,277.2c-1.1-0.5-2.2-1-3.2-1.6c-0.1,0-0.2-0.1-0.2-0.1c-5.3-3-7.9-6.7-7.9-11
			c0-3.4,1.6-6.3,4.8-8.9c0.8-0.7,1.7-1.3,2.7-1.9c0.1-0.1,0.3-0.2,0.4-0.2c5.3-3,11.7-4.6,19.1-4.6c4.6,0,8.7,0.6,12.5,1.8
			c1.3,0.4,2.5,0.8,3.7,1.4c1,0.4,2,0.9,3,1.5c5.3,3,7.9,6.7,7.9,11c0,4.3-2.6,7.9-7.8,10.9l-0.4-0.1l0.2,0.2c0,0-0.1,0-0.1,0
			c-1,0.6-2.1,1.1-3.2,1.6c-4.5,1.9-9.7,2.8-15.6,2.8C38,280.1,32.8,279.1,28.2,277.2z M160.9,190.5l3,1.8l2.3,1.3c1.8,1,1.8,2,0,3
			l-13.8,8c-1.8,1-3.5,1-5.3,0l-2.3-1.3l-3-1.7l-58.4-33.7c-1.8-1-1.8-2,0-3l13.8-8c1.8-1,3.5-1,5.3,0L160.9,190.5z"/>
		<path class="st0" d="M128.8,212.3l0.1,0.1l2.6,1.5c1.1,0.6,1.7,1.2,1.8,1.9c0,0.2,0,0.3,0,0.5c-0.2,0.6-0.7,1.2-1.7,1.8
			l-27.4,15.8c-2.4,1.3-4.8,1.3-7.2,0l-2.8-1.6l-3-1.8l-8.4-4.9l0,0l-13.4-7.6c-1.1-0.7-1.7-1.3-1.8-2c0-0.7,0.6-1.5,1.8-2.2
			l5.5-3.2v5.9c0,0.5,0.5,1.1,1.5,1.7l22.6,13c1.9,1.1,3.9,1.1,5.8-0.1l22.4-12.9c1.1-0.7,1.6-1.3,1.4-2v-3.5c0.1-0.1,0.1-0.3,0-0.4
			V212.3z M185.2,168.5l-3,1.8l-13.8,8c-2.4,1.3-4.8,1.3-7.1,0l-14.2-8.3l0,0.1l-13.4-7.7c-1.1-0.7-1.7-1.3-1.8-2
			c0-0.7,0.6-1.5,1.9-2.2l3.8-2.2v0.3l0.1,0l-0.1,4c0,0.6,0.6,1.1,1.6,1.8l23.1,13.3c2,1.2,4,1.2,6,0l23-13.3c1.2-0.7,1.6-1.3,1.5-2
			l0-3.5l0,0v0h0l2.9,1.7c1.1,0.6,1.7,1.2,1.8,1.8c0,0.2,0,0.4,0,0.5c-0.2,0.6-0.7,1.2-1.7,1.8L185.2,168.5z M421.6,308.9l4.2,2.5
			c1.1,0.6,1.7,1.2,1.8,1.9c0,0.2,0,0.3,0,0.4c-0.2,0.6-0.7,1.2-1.7,1.8l-27.4,15.8c-2.4,1.3-4.8,1.3-7.2,0l-14.2-8.3l0,0l-13.4-7.7
			c-1.1-0.7-1.7-1.3-1.8-2c0-0.7,0.6-1.4,1.8-2.1l6.2-3.5l-0.1,2.8l0.1,0.1v3.7c0,0.5,0.5,1.1,1.4,1.7l21.7,12.5
			c1.9,1.1,3.7,1,5.6,0l21.5-12.4c1.1-0.6,1.6-1.2,1.4-1.8l0-3.3c0-0.1,0-0.3,0-0.4L421.6,308.9z M364,340.1l4.8,2.8
			c1.1,0.6,1.7,1.2,1.8,1.9c0,0.2,0,0.3,0,0.5c-0.2,0.6-0.7,1.2-1.7,1.8l-27.4,15.8c-2.4,1.3-4.8,1.3-7.1,0l-14.2-8.3l0,0l-13.4-7.6
			c-1.1-0.7-1.7-1.3-1.8-2c0-0.7,0.6-1.5,1.9-2.2l5.6-3.2v5.8c0,0.5,0.5,1.1,1.4,1.7l21.8,12.5c1.8,1.1,3.7,1.1,5.5,0l21.5-12.5
			c1.1-0.6,1.5-1.2,1.4-1.8v-3.3l0,0c0-0.1,0-0.3-0.1-0.5L364,340.1z"/>
	</g>
	<path class="st1" d="M486.9,202.8l-3-1.7l-2.6-1.5l4.1-7l4,11.8L486.9,202.8z M507.3,326.6l-3-1.7l-2.5-1.4l7.6-1.5l4.6-0.9
		l-1.5,2.5l-2.6,4.5L507.3,326.6z M477.1,342.2l-1.5,2.6l-2.5,4.4l-2.5-1.5l-3-1.7l-2.6-1.5l7.9-1.5l4.1-0.8l0.2,0L477.1,342.2z
		 M351.9,373.7l3,1.7l2.5,1.5l-7.7,1.5l-4.6,0.9l1.5-2.6l2.6-4.5L351.9,373.7z M278.7,403.6l-1.1-1.9l-0.4-0.7l1.2,0.2l3.4,0.6
		l7.6,1.5l-2.5,1.5l-3,1.7l-2.6,1.5L278.7,403.6z M207.6,359.3l7.5,1.5l-2.5,1.4l-3,1.7l-2.7,1.6l-2.6-4.6l-1.4-2.4l-0.1-0.1l0.2,0
		L207.6,359.3z M124,382.9l3,1.7l2.5,1.5l-12.3,2.4l4.1-7.1L124,382.9z M139.7,319.9l7.6,1.5l-2.5,1.5l-3,1.7l-2.6,1.5l-2.6-4.5
		l-1.4-2.5l0-0.1l0.1,0L139.7,319.9z M70.6,280.2l-3,1.7l-0.9,0.5l-0.9-1.5l-3-5.2l-0.1-0.2l-0.2-0.2l0.4,0.1l11.8,2.3L70.6,280.2z
		 M221.1,67l-3-1.7l-2.6-1.5l4.1-7.1l4,11.8L221.1,67z"/>
	<path class="st2" d="M192.8,152.5c-0.1,0.5-0.6,1-1.5,1.5l-23,13.3c-2,1.1-4,1.1-6,0l-11.9-7l-0.1,0.1l-11.2-6.5
		c-0.9-0.6-1.4-1.1-1.5-1.7c0-0.6,0.5-1.2,1.6-1.8l4.5-2.6l3-1.7l15.5-8.9c2-1.2,3.9-1.2,5.9,0l6.7,3.8v0l16.5,9.5
		c0.9,0.5,1.4,1,1.5,1.6C192.8,152.3,192.8,152.4,192.8,152.5z M164.4,148.2l3-1.7l-13.5-1.5l-2.9,1.7l2.6,7.8l3-1.8l-2.4-5.8h0
		L164.4,148.2z M176.6,148l-24.9,8.5l1.4,0.8l24.9-8.5L176.6,148z M174.8,158.8l-10-1.3l-3,1.8l13.4,1.5l2.9-1.7l-2.5-7.8l-3,1.7
		l2.2,5.8L174.8,158.8z"/>
	
		<linearGradient id="SVGID_1_" gradientUnits="userSpaceOnUse" x1="-2560.2402" y1="-459.3269" x2="-2503.2903" y2="-459.3269" gradientTransform="matrix(-1 8.780000e-04 4.840000e-04 -1 -2366.1909 -292.8839)">
		<stop  offset="0.3412" style="stop-color:#1A80CC"/>
		<stop  offset="0.5686" style="stop-color:#72C3FF"/>
	</linearGradient>
	<path class="st3" d="M192.8,156.6L192.8,156.6L192.8,156.6l0,3.5c0.2,0.7-0.3,1.3-1.5,2l-23,13.3c-2,1.1-4,1.1-6,0L139.2,162
		c-1-0.6-1.5-1.2-1.6-1.8l0.1-4l-0.1,0v-0.3v-3.6c0.1,0.6,0.6,1.1,1.5,1.7l11.2,6.5l0.1-0.1l11.9,7c2,1.1,4,1.1,6,0l23-13.3
		c0.8-0.5,1.3-1,1.5-1.5v3.5C192.9,156.2,192.9,156.4,192.8,156.6z"/>
	<path class="st4" d="M418.2,99.3l-27.8-15.9v-3l27.8,15.9V99.3z M431.1,111.7l5.9,9.9c0,0-0.1,0.1-0.2,0.1
		c-1.6,0.8-3.6,0.6-5.8-0.7c-2.3-1.3-4.3-3.2-5.9-6L431.1,111.7z M418.2,105.3l-27.8-16v-2.9l27.8,15.9V105.3z M418.4,110.6
		l-17.2-9.8v-3l17.2,9.8V110.6z M396.9,299.6c0.1,0.5,0,1-0.3,1.6c-0.4,0.8-1.2,1.5-2.2,2.3l-2.4-0.3c0.7-0.5,1.1-1,1.4-1.4
		c0.3-0.4,0.4-0.8,0.2-1c0-0.3-0.2-0.5-0.5-0.8c-0.3-0.2-0.8-0.3-1.3-0.3c-0.5,0-1.1,0-1.8,0.2c-1.2,0.2-2.5,0.7-3.8,1.4
		c-1.3,0.8-2.2,1.5-2.7,2.2c-0.2,0.4-0.3,0.7-0.3,1c0.1,0.3,0.3,0.6,0.6,0.8c0.3,0.2,0.8,0.3,1.2,0.4c0.6,0,1.2-0.1,1.9-0.2
		c0.7-0.2,1.5-0.4,2.4-0.8l0.7,1.3c-1.4,0.6-2.8,1-4,1.2c-1,0.2-2,0.3-2.8,0.2c-0.9-0.1-1.6-0.3-2.1-0.6c-0.6-0.3-0.9-0.7-1-1.2
		c-0.1-0.5,0-1,0.3-1.6c0.3-0.6,0.8-1.3,1.5-1.9c0.7-0.6,1.6-1.2,2.6-1.8c1-0.6,2.1-1.1,3.2-1.5c1.1-0.4,2.2-0.7,3.2-0.9
		c1-0.2,1.9-0.3,2.8-0.2c0.9,0.1,1.6,0.3,2.1,0.6C396.4,298.7,396.8,299.1,396.9,299.6z M401.3,302.2l1.5,0.2l0.5,0.2
		c0.4,0.3,0.8,0.6,0.9,0.9c0.3,0.5,0.3,1,0.2,1.8l-3.1,0.7c0.2-0.4,0.1-0.8-0.2-1.2l-0.5-0.5l-0.5-0.2l-0.5-0.1
		c-0.5,0-1.1,0.1-1.6,0.4c-0.6,0.4-0.9,0.8-0.8,1.2l0.1,0.2l0.3,0.4c0.1,0,0.1,0.1,0.1,0.1h0.1l0,0.1h0l0.6,0.8l0.2,0.5
		c0.2,1-0.6,1.9-2.2,2.9c-1.5,0.9-3.1,1.4-4.7,1.5c-1.2,0-2.1-0.2-2.8-0.5c-0.7-0.4-1.1-1-1-1.9l0.2-1.3c0-0.1,0.1-0.1,0.1-0.1v-0.2
		l3.2-0.6l-0.3,0.9c-0.1,0.6,0.1,1.1,0.6,1.5c0.5,0.3,1.2,0.4,1.9,0.2c0.3,0,0.5-0.1,0.8-0.2c0,0,0.1,0,0.2,0c0,0,0.1-0.1,0.1-0.1
		c0,0,0.1,0,0.1,0l0.1,0c0.6-0.3,0.8-0.7,0.6-1.2l-0.5-0.7c0,0-0.1,0-0.1,0v0l0,0l-0.3-0.4c-0.2-0.3-0.4-0.6-0.4-0.9
		c-0.2-1,0.5-1.9,2.1-2.8C398,302.5,399.7,302.1,401.3,302.2z M407.7,308.5l-0.5-0.2l-0.5-0.2c-0.5,0-1.1,0.1-1.6,0.4
		c-0.6,0.4-0.9,0.8-0.7,1.2l0.1,0.2l0.3,0.4c0,0,0.1,0,0.1,0v0.1l0.1,0.1l0.6,0.8l0.1,0.5c0.2,1-0.6,1.9-2.2,2.9
		c-1.5,0.9-3.1,1.4-4.6,1.4c-1.2,0.1-2.2-0.1-2.9-0.5c-0.7-0.4-1-1-1-1.8l0.2-1.1l0.1-0.2c0,0,0,0,0,0v-0.1l0.1,0l3.1-0.7l-0.3,1
		c-0.1,0.6,0.1,1.1,0.6,1.4c0.5,0.3,1.2,0.4,1.9,0.3c0.2-0.1,0.5-0.1,0.7-0.2c0.1,0,0.1,0,0.2,0c0,0,0.1-0.1,0.1-0.1
		c0,0,0.1,0,0.1,0l0.1,0c0.6-0.3,0.8-0.7,0.6-1.2l-0.3-0.5L402,312c0,0,0-0.1,0-0.1h0v0h0l-0.3-0.3c-0.2-0.3-0.4-0.7-0.5-1
		c-0.2-1,0.5-1.9,2.1-2.8c1.9-1.1,3.6-1.6,5.2-1.5l1.5,0.2l0.5,0.3c0.4,0.2,0.8,0.5,1,0.8c0.3,0.5,0.3,1.1,0.1,1.8l-3,0.8
		c0.1-0.5,0.1-0.9-0.2-1.2L407.7,308.5C407.8,308.5,407.7,308.5,407.7,308.5z M267.7,17.6l27.8,15.9v3l-27.8-16V17.6z M267.7,11.6
		l27.8,15.9v3l-27.8-16V11.6z M278.4,29.1l17.2,9.8v2.9l-17.2-9.8V29.1z M304.5,39.8c0,0.1,0,0.2,0,0.3c0,0,0,0.1,0,0.2
		c0,0.9,0.3,1.9,0.9,2.8c0.6,0.9,1.2,1.7,2,2.2c0.1,0,0.2,0.1,0.2,0.1v0.1v5.4v0c-1.5-0.8-2.8-2-4-3.4c-0.6-0.8-1.2-1.7-1.8-2.6
		c-0.5-0.8-0.9-1.6-1.2-2.3c-0.8-1.9-1.2-3.7-1.2-5.5L304.5,39.8z M176.6,148l1.4,0.8l-24.9,8.5l-1.4-0.8L176.6,148z M164.4,148.2
		l-10.1-1.3h0l2.4,5.8l-3,1.8l-2.6-7.8l2.9-1.7l13.5,1.5L164.4,148.2z M101.8,198.7c0.9,0,2.1,0.3,3.6,1.1l1.1,0.7
		c0.7,0.4,1.1,0.7,1.1,1l-0.3,0.4l-0.7,0.2l-2-0.6h-1c-0.4,0-0.9,0.2-1.4,0.5l-4.8,2.7l-1,0.2l-1.3,0l-1.8-0.7l1,1.2l0.2,0.7
		l-0.4,0.6l-5.1,3.1c-0.3,0.2-0.5,0.5-0.4,0.8l0.2,0.3l0.6,0.5l0.3,0.5c-0.1,0.1-0.2,0.2-0.3,0.3c-0.6,0.3-1.2,0.3-2-0.1l-3.2-2
		c-0.3-0.3-0.4-0.7-0.4-1c0-0.4,0.3-0.9,0.9-1.3l4.8-3c0.5-0.3,0.8-0.6,0.9-0.8l-0.1-0.5l-0.6-0.6c-0.1-0.1-0.3-0.3-0.4-0.4l0.3-0.4
		c0.1-0.1,0.3-0.1,0.7-0.2l1.7,0.6l1.1,0c0.4,0,0.8-0.2,1.3-0.5l5.2-2.8C100.3,198.9,101,198.7,101.8,198.7z M109,211.3l5.3-3.1
		c0.2-0.2,0.3-0.5,0.2-0.9c-0.1-0.1-0.2-0.2-0.2-0.3l-0.5-0.5c-0.2-0.1-0.3-0.3-0.4-0.5l0.4-0.3c0.5-0.3,1.1-0.3,1.9,0.1l3.2,2.1
		c0.3,0.3,0.5,0.6,0.5,1c-0.1,0.4-0.3,0.8-0.8,1.2l-5,3c-0.5,0.3-0.8,0.6-0.8,0.9v0.5l1,1c-0.1,0.2-0.2,0.3-0.3,0.3
		c-0.2,0.1-0.4,0.2-0.7,0.2l-1.8-0.5l-0.8-0.1c-0.6,0-1.1,0.2-1.5,0.5l-5.1,2.9c-0.8,0.3-1.5,0.4-2.2,0.4c-1.1,0-2.4-0.4-3.8-1.1
		l-1.1-0.7c-0.7-0.4-1.1-0.7-1.1-0.9c-0.1-0.2,0-0.3,0.3-0.5c0.1-0.1,0.4-0.1,0.6-0.2l2.1,0.6h0.9c0.4-0.1,0.9-0.2,1.4-0.5l4.7-2.7
		l1-0.2l1.3,0.1l1.9,0.6l-1.1-1.1l-0.2-0.8L109,211.3z M174.8,158.8l0.1,0l-2.2-5.8l3-1.7l2.5,7.8l-2.9,1.7l-13.4-1.5l3-1.8
		L174.8,158.8z M321.7,338.6c-1.1-0.6-1.8-1.2-2.1-2l5.1-0.8c0.1,0.3,0.4,0.5,0.8,0.8c0.6,0.3,1.3,0.5,2.2,0.5
		c0.8,0,1.6-0.2,2.2-0.5l12.2-7.1l3.8,2.2l-12.2,7c-1.7,1-3.7,1.5-6,1.5C325.3,340.1,323.3,339.6,321.7,338.6z M332.7,343.9l-0.4-1
		c0-0.1-0.1-0.2-0.1-0.2c0-0.1,0-0.2,0-0.2v-0.2l3.2-0.1l0.2,1c0.3,0.7,0.9,1.3,1.8,1.8c0.8,0.5,1.6,0.7,2.4,0.8l0.8-0.1
		c0,0,0.1,0,0.1-0.1c0,0,0,0,0,0c0.1,0,0.1,0,0.2,0l0,0c0.5-0.2,0.5-0.7,0-1.2l-0.9-0.8c-0.1-0.1-0.2-0.1-0.2-0.1l0,0
		c0,0-0.1,0-0.1,0l-0.1,0l-1.7-1.7c-0.9-1.2-0.6-2.1,0.7-2.8c1.5-0.9,3.3-1.1,5.2-0.6l1.8,0.6l0.8,0.5c0.7,0.4,1.2,0.8,1.7,1.2
		c0.6,0.6,1.1,1.3,1.3,2.1l-3.2,0.2c-0.1-0.5-0.4-1-1-1.5l-0.7-0.5l-1-0.5l-0.8-0.2c-0.6-0.2-1.2-0.1-1.6,0.1
		c-0.5,0.3-0.5,0.7-0.1,1.2l0.6,0.7l0.3,0.1c0.1,0.1,0.1,0.2,0.2,0.2l1.5,1.2l0.4,0.6c0.8,1.2,0.6,2.1-0.8,2.9
		c-1.2,0.7-2.7,1-4.5,0.6c-1.4-0.2-2.6-0.6-3.8-1.2C334,345.8,333.2,344.9,332.7,343.9z"/>
	<path class="st5" d="M431.1,111.7l-5.9,3.4h0c-1.6-2.8-2.5-5.5-2.5-8.1c0-2.5,0.8-4.3,2.3-5.2l0.2-0.1c0.1-0.1,0.3-0.1,0.5-0.2
		c1.6-0.7,3.4-0.4,5.5,0.8v0.1L431.1,111.7L431.1,111.7L431.1,111.7z M308,67.1l-6.1-10.6l-11.7-6.8l-2.4-1.4l-5.6-3.2l-13-7.5
		c-2.1-1.2-3.1-3-3.1-5.4V4.4c0-1.2,0.3-2,0.8-2.2h0c0.5-0.3,1.3-0.1,2.3,0.4L318.4,31c2.1,1.2,3.2,3,3.2,5.4v27.8
		c0,1-0.2,1.7-0.5,2.1c-0.2,0.1-0.3,0.2-0.5,0.2c-0.5,0.1-1,0-1.8-0.4c-0.1-0.1-0.3-0.1-0.4-0.2l-3.1-1.9v15.5L308,67.1z
		 M421.6,307.1c-0.1,0.4-0.4,0.8-1,1.2c-0.1,0.1-0.2,0.2-0.3,0.2L398.7,321c-1.9,1.1-3.8,1.1-5.6,0l-13.2-7.5v-0.1l-8.5-4.9
		c-0.5-0.3-0.9-0.6-1.1-1c-0.2-0.2-0.2-0.4-0.2-0.7c0-0.5,0.5-1.1,1.4-1.6l21.5-12.5c1.9-1.1,3.7-1.1,5.6,0l6.2,3.5l0.1,0l9.2,5.3
		l0,0.1l6.3,3.6c0.8,0.5,1.3,1,1.4,1.5C421.6,306.9,421.6,307,421.6,307.1z M407.7,308.5C407.7,308.5,407.8,308.5,407.7,308.5
		l0.5,0.4c0.3,0.4,0.3,0.8,0.2,1.2l3-0.8c0.2-0.7,0.1-1.2-0.1-1.8c-0.2-0.3-0.5-0.6-1-0.8l-0.5-0.3l-1.5-0.2
		c-1.6-0.1-3.3,0.4-5.2,1.5c-1.6,0.9-2.3,1.8-2.1,2.8c0.1,0.3,0.2,0.6,0.5,1l0.3,0.3h0v0h0c0,0,0,0.1,0,0.1l0.1,0.1l0.3,0.5
		c0.2,0.5,0,0.9-0.6,1.2l-0.1,0c0,0-0.1,0-0.1,0c0,0-0.1,0.1-0.1,0.1c-0.1,0-0.1,0-0.2,0c-0.2,0.1-0.5,0.1-0.7,0.2
		c-0.7,0.1-1.4,0-1.9-0.3c-0.5-0.3-0.8-0.8-0.6-1.4l0.3-1l-3.1,0.7l-0.1,0v0.1c0,0,0,0,0,0l-0.1,0.2l-0.2,1.1c0,0.8,0.3,1.4,1,1.8
		c0.7,0.4,1.7,0.6,2.9,0.5c1.5,0,3.1-0.5,4.6-1.4c1.7-1,2.4-1.9,2.2-2.9l-0.1-0.5l-0.6-0.8l-0.1-0.1v-0.1c0,0-0.1,0-0.1,0l-0.3-0.4
		l-0.1-0.2c-0.2-0.4,0.1-0.8,0.7-1.2c0.5-0.3,1.1-0.4,1.6-0.4l0.5,0.2L407.7,308.5z M401.3,302.2c-1.6-0.1-3.3,0.3-5.2,1.4
		c-1.6,0.9-2.3,1.8-2.1,2.8c0.1,0.3,0.2,0.6,0.4,0.9l0.3,0.4l0,0v0c0,0,0.1,0,0.1,0l0.5,0.7c0.2,0.4,0,0.8-0.6,1.2l-0.1,0
		c0,0-0.1,0-0.1,0c0,0-0.1,0.1-0.1,0.1c-0.1,0-0.2,0-0.2,0c-0.2,0.1-0.5,0.2-0.8,0.2c-0.7,0.1-1.3,0-1.9-0.2
		c-0.5-0.3-0.8-0.8-0.6-1.5l0.3-0.9l-3.2,0.6v0.2c0,0-0.1,0-0.1,0.1l-0.2,1.3c0,0.8,0.3,1.4,1,1.9c0.7,0.4,1.7,0.6,2.8,0.5
		c1.6-0.1,3.1-0.5,4.7-1.5c1.7-1,2.4-1.9,2.2-2.9l-0.2-0.5l-0.6-0.8h0l0-0.1h-0.1c0,0,0-0.1-0.1-0.1l-0.3-0.4l-0.1-0.2
		c-0.1-0.4,0.1-0.8,0.8-1.2c0.5-0.3,1.1-0.4,1.6-0.4l0.5,0.1l0.5,0.2l0.5,0.5c0.3,0.4,0.3,0.8,0.2,1.2l3.1-0.7
		c0.2-0.7,0.1-1.3-0.2-1.8c-0.2-0.3-0.5-0.6-0.9-0.9l-0.5-0.2L401.3,302.2z M396.9,299.6c-0.1-0.5-0.5-0.9-1-1.2
		c-0.5-0.3-1.2-0.5-2.1-0.6c-0.9-0.1-1.8,0-2.8,0.2c-1,0.2-2.1,0.5-3.2,0.9c-1.1,0.4-2.2,0.9-3.2,1.5c-1,0.6-1.9,1.2-2.6,1.8
		c-0.7,0.6-1.2,1.3-1.5,1.9c-0.3,0.6-0.4,1.1-0.3,1.6c0.1,0.5,0.4,0.9,1,1.2c0.5,0.3,1.2,0.5,2.1,0.6c0.8,0.1,1.8,0,2.8-0.2
		c1.3-0.2,2.6-0.6,4-1.2l-0.7-1.3c-0.9,0.3-1.7,0.6-2.4,0.8c-0.7,0.1-1.3,0.2-1.9,0.2c-0.5,0-0.9-0.2-1.2-0.4
		c-0.3-0.2-0.5-0.4-0.6-0.8c0-0.3,0.1-0.7,0.3-1c0.5-0.7,1.4-1.4,2.7-2.2c1.3-0.7,2.5-1.2,3.8-1.4c0.7-0.2,1.3-0.3,1.8-0.2
		c0.5,0,1,0.1,1.3,0.3c0.3,0.2,0.5,0.5,0.5,0.8c0.1,0.3,0,0.7-0.2,1c-0.3,0.4-0.7,0.9-1.4,1.4l2.4,0.3c1-0.8,1.7-1.6,2.2-2.3
		C396.9,300.6,397,300.1,396.9,299.6z M267.7,11.6v2.9l27.8,16v-3L267.7,11.6z M267.7,17.6v2.9l27.8,16v-3L267.7,17.6z M278.4,29.1
		v2.9l17.2,9.8v-2.9L278.4,29.1z M307.7,38.4c0.9,0.5,1.6,1.2,2.2,2.2c0.6,0.9,0.9,1.8,0.9,2.6c0,0.1,0,0.2,0,0.4
		c0,0.9-0.3,1.6-0.9,1.9c-0.6,0.3-1.3,0.3-2.2-0.2v-0.1c-0.1,0-0.1-0.1-0.2-0.1c-0.8-0.5-1.4-1.2-2-2.2c-0.6-1-0.9-1.9-0.9-2.8
		c0-0.1,0-0.1,0-0.2c0-0.1,0-0.2,0-0.3c0-0.8,0.3-1.4,0.9-1.6C306,37.8,306.8,37.9,307.7,38.4z M307.7,32.4
		c-2.3-1.3-4.2-1.5-5.8-0.6l0,0.1c-1.5,0.9-2.3,2.6-2.4,5.1c0,1.8,0.4,3.6,1.2,5.5c0.3,0.8,0.7,1.5,1.2,2.3c0.6,0.9,1.2,1.8,1.8,2.6
		c1.2,1.4,2.5,2.5,4,3.4v0c2.1,1.2,3.9,1.4,5.4,0.8c0.2-0.1,0.3-0.1,0.5-0.2c1.6-0.9,2.4-2.6,2.4-5.1s-0.8-5.1-2.4-7.9
		C311.9,35.6,310,33.7,307.7,32.4L307.7,32.4z M255.1,245c0.7-0.1,1.5,0,2.7,0.2l20.1,3.3c2.9,0.5,4.9,1.4,6.1,2.8
		c0.2,0.3,0.4,0.5,0.6,0.8c0.1,0.1,0.1,0.2,0.1,0.3l5.9,11.7c1,2-0.2,2.8-3.8,2.2l-20.2-3.4c-3.5-0.6-5.8-1.9-6.8-3.9l-5.8-11.6
		c-0.4-0.8-0.4-1.4-0.2-1.8l1.4,0.2l-0.4-0.7C254.9,245.1,255,245,255.1,245z M344.7,112.1l-0.9-0.5l-23.9-13.7
		c-1.4-0.8-1.7-1.9-1-3.4l5.5-11.2c0.7-1.4,1.7-1.8,3.1-1l50,28.7c1.4,0.8,1.7,1.9,1,3.3l-5.4,11.2c-0.7,1.4-1.7,1.8-3.1,1
		L344.7,112.1z M352,227.7c-1.2,0.7-2.4,1.2-3.9,1.5c-2,0.4-3.6,0.2-5-0.6l-11.8-6.8l-0.4-0.2l0.1-0.6l-0.7,0.2l-12.9-7.4
		c-1.4-0.8-2-1.9-2-3.3c0-1.1,0.5-2.1,1.3-3.1c0.2-0.3,0.4-0.5,0.7-0.8c0.1-0.1,0.2-0.2,0.3-0.3v0c1.4-1.3,3.1-2.1,5.1-2.5
		c2-0.4,3.7-0.2,5.1,0.6l12,6.9l0.9,0.5l12.8,7.4c1.3,0.8,2,1.9,1.9,3.4c-0.1,1.4-0.8,2.8-2.2,4.1v0c-0.1,0.1-0.3,0.2-0.4,0.3
		C352.6,227.3,352.3,227.5,352,227.7z"/>
	<path class="st6" d="M295.1,280l2.6-1.5l3.7,2.1l-1.8,0.9c-0.1,0.1-0.2,0.1-0.3,0.1c-0.5,0.3-1.1,0.2-1.7,0v-0.1L295.1,280z
		 M302,276l3.1,1.8c0.2,0.2,0.3,0.3,0.5,0.3c-0.1,0.1-0.3,0.2-0.4,0.2h0l-1.8,1.3l-3.6-2.2L302,276z M310.7,285.8
		c0,0-0.1,0.1-0.2,0.2h-0.1l-2.1,1.2c-0.6,0.4-1.2,0.4-1.8,0l-5.5-3.3c-0.3,0-0.5-0.1-0.5-0.2c0,0,0.2-0.1,0.4-0.2l2-1.3
		c0.8-0.3,1.5-0.3,2.1,0L310.7,285.8z M304.5,274.5l6.9-4l12.7,7c0.1,0.1,0.2,0.3,0.2,0.5c0,0.1-0.1,0.2-0.2,0.2v-0.1l-5.8,3.2v0.1
		c-0.6,0.4-1.2,0.4-2,0v-0.1L304.5,274.5z M320.4,265.4l12.5,7.2c0.1,0.2,0.2,0.3,0.2,0.3c0,0.1,0.1,0.1,0.1,0.1
		c-0.1,0-0.2,0.1-0.3,0.2l-5.7,2.9v0.2c-0.5,0.4-1.1,0.4-1.8-0.2l-11.8-6.8L320.4,265.4z M329.5,260.1l3.4,2.1h0.2
		c0.2,0.1,0.3,0.1,0.4,0.1c-0.1,0.2-0.3,0.4-0.6,0.5l-5.3,3.2c-0.8,0.4-1.5,0.4-2.2,0l-3-1.7L329.5,260.1z M336.1,271.1
		c-0.7,0.4-1.4,0.4-2.1,0l-5.6-3.2c-0.1-0.2-0.2-0.3-0.2-0.3c0,0,0.1-0.1,0.2-0.4l5.6-3c0.7-0.4,1.4-0.4,2.1,0l5.7,3l0.2,0.4
		c0,0.1-0.1,0.2-0.2,0.3h-0.2L336.1,271.1z M338,256.3c0.9-0.3,1.7-0.3,2.4,0l10,5.9l0.5,0.1c0,0.1-0.2,0.2-0.5,0.3l-5.5,3.3h0.2
		c-0.8,0.3-1.5,0.3-2.2,0v-0.1l-10.1-6c-0.2,0-0.3,0-0.4-0.1c0.1,0,0.2,0,0.4-0.1L338,256.3z M343.7,251.8l3.5,2
		c0,0.1-0.1,0.2-0.2,0.3l-2.2,1.2h0.2c-0.8,0.4-1.5,0.4-2.2,0l-2.5-1.4l0.8-0.4c0.1,0,0.2-0.1,0.4-0.2l1.2-0.8c0.1,0,0.1,0,0.1,0
		C343,252.3,343.4,252.1,343.7,251.8z M355.9,259c0.4,0.2,0.6,0.3,0.7,0.3c-0.1,0-0.2,0.1-0.5,0.3l-2.3,1.4
		c-0.7,0.3-1.4,0.3-2.2-0.1l-5.4-3.3c-0.2-0.1-0.3-0.2-0.4-0.2c0.1,0,0.2-0.1,0.4-0.3l2.1-1.2h0.2c0.6-0.3,1.3-0.3,2,0h-0.2
		L355.9,259z"/>
	
		<linearGradient id="SVGID_2_" gradientUnits="userSpaceOnUse" x1="-2788.3438" y1="-612.7596" x2="-2736.4685" y2="-612.7596" gradientTransform="matrix(-1 4.820000e-04 5.170000e-04 -1 -2366.1873 -293.3524)">
		<stop  offset="0.3412" style="stop-color:#F11F79"/>
		<stop  offset="0.5725" style="stop-color:#FF4494"/>
	</linearGradient>
	<path class="st7" d="M370,307.7v-0.8c0,0.2,0.1,0.4,0.2,0.7c0.2,0.3,0.6,0.6,1.1,1l8.5,4.9v0.1l13.2,7.5c1.9,1.1,3.8,1.1,5.6,0
		l21.6-12.5c0.1-0.1,0.2-0.1,0.3-0.2c0.6-0.4,0.9-0.8,1-1.2l0,1.8l0,1.6c0,0.2,0,0.3,0,0.4l0,3.3c0.2,0.6-0.2,1.2-1.4,1.8
		l-21.5,12.4c-1.9,1.1-3.7,1.1-5.6,0L371.4,316c-0.9-0.6-1.4-1.1-1.4-1.7v-3.7l-0.1-0.1L370,307.7z"/>
	<path class="st8" d="M128.9,209L128.9,209c-0.2,0.5-0.6,1-1.5,1.5L105,223.3c-0.9,0.5-1.8,0.8-2.7,0.9c-1.1,0.1-2.1-0.2-3.2-0.8
		l-11.5-6.7h0l-2.1-1.2h0l-8.9-5.1c-0.2-0.1-0.4-0.2-0.5-0.3c-0.6-0.4-0.9-0.9-1-1.2c0-0.6,0.5-1.2,1.5-1.8l8.7-5l3-1.7l10.6-6.1
		c1.9-1.1,3.9-1.1,5.9,0l6.4,3.7h0.1l9.5,5.5h-0.1l6.6,3.8c0.9,0.5,1.4,1,1.5,1.5C128.9,208.7,128.9,208.9,128.9,209z M109,211.3
		l-0.4,0.6l0.2,0.8l1.1,1.1l-1.9-0.6l-1.3-0.1l-1,0.2l-4.7,2.7c-0.5,0.3-1,0.5-1.4,0.5h-0.9l-2.1-0.6c-0.3,0-0.5,0.1-0.6,0.2
		c-0.3,0.2-0.4,0.3-0.3,0.5c0,0.2,0.3,0.5,1.1,0.9l1.1,0.7c1.4,0.8,2.6,1.1,3.8,1.1c0.7,0,1.4-0.1,2.2-0.4l5.1-2.9
		c0.4-0.3,0.9-0.4,1.5-0.5l0.8,0.1l1.8,0.5c0.3,0,0.5-0.1,0.7-0.2c0.1-0.1,0.2-0.2,0.3-0.3l-1-1v-0.5c0-0.3,0.2-0.6,0.8-0.9l5-3
		c0.5-0.4,0.8-0.8,0.8-1.2c0-0.4-0.2-0.7-0.5-1l-3.2-2.1c-0.8-0.4-1.4-0.4-1.9-0.1l-0.4,0.3c0.1,0.2,0.2,0.4,0.4,0.5l0.5,0.5
		c0.1,0.1,0.2,0.2,0.2,0.3c0,0.3-0.1,0.6-0.2,0.9L109,211.3z M101.8,198.7c-0.8,0-1.5,0.1-2.2,0.5l-5.2,2.8c-0.5,0.3-1,0.5-1.3,0.5
		l-1.1,0l-1.7-0.6c-0.3,0-0.6,0.1-0.7,0.2l-0.3,0.4c0.1,0.2,0.3,0.3,0.4,0.4l0.6,0.6l0.1,0.5c-0.1,0.2-0.4,0.5-0.9,0.8l-4.8,3
		c-0.6,0.4-0.9,0.9-0.9,1.3c0,0.3,0.1,0.6,0.4,1l3.2,2c0.7,0.4,1.4,0.4,2,0.1c0.1-0.1,0.2-0.2,0.3-0.3l-0.3-0.5l-0.6-0.5l-0.2-0.3
		c-0.1-0.3,0.1-0.6,0.4-0.8l5.1-3.1l0.4-0.6l-0.2-0.7l-1-1.2l1.8,0.7l1.3,0l1-0.2l4.8-2.7c0.5-0.3,1-0.5,1.4-0.5h1l2,0.6l0.7-0.2
		l0.3-0.4c0-0.2-0.4-0.6-1.1-1l-1.1-0.7C103.9,199.1,102.7,198.7,101.8,198.7z"/>
	
		<linearGradient id="SVGID_3_" gradientUnits="userSpaceOnUse" x1="-2493.7224" y1="-514.3181" x2="-2441.3726" y2="-514.3181" gradientTransform="matrix(-1 0 4.970000e-04 -1 -2366.1899 -293.9234)">
		<stop  offset="0.3333" style="stop-color:#FFB200"/>
		<stop  offset="0.5725" style="stop-color:#FFD55D"/>
	</linearGradient>
	<path class="st9" d="M128.9,209l0,3.3v0.2c0.1,0.1,0.1,0.3,0,0.4v3.5c0.2,0.6-0.3,1.3-1.4,2L105,231.1c-1.9,1.1-3.9,1.2-5.8,0.1
		l-22.6-13c-0.9-0.6-1.4-1.2-1.5-1.7v-5.9v-1.8c0.1,0.4,0.4,0.8,1,1.2c0.2,0.1,0.3,0.2,0.5,0.3l8.9,5.1h0l2.1,1.2h0l11.5,6.7
		c1.1,0.6,2.1,0.9,3.2,0.8c0.9,0,1.8-0.3,2.7-0.9l22.4-12.9C128.2,210,128.7,209.5,128.9,209z"/>
	<path class="st10" d="M166.4,289.1L133.1,270l-3-1.7l-6.2-3.6c-7.6-4.3-9.9-8.6-7-12.9c2.2,1.8,5,3.6,8.5,5.6l125.3,72.2
		c6,3.4,11.3,5.8,16.1,7c6.6,1.6,12.1,1.2,16.6-1.4L393.1,272c3.7-2.2,4.8-4.8,3.5-7.7c1.9-3.5-1-7.8-8.7-13l1.9,0.8
		c0.3,0.1,0.5,0.2,0.7,0.2l8.6,1.7c0.1,0,0.2,0,0.2,0c0.1-0.1,0.2-0.1,0.2-0.1c0.2,0,0.4-0.1,0.5-0.1c0.1,0,0.2,0,0.2,0
		c5.5,0.8,9.2-1.1,11.1-5.6l0.8-2.1l5.4,3.1c3.2,1.8,5.4,3.6,6.8,5.4c3.2,4.3,1.1,8.6-6.3,12.8l-129.2,74.1c-10.4,6-21,5.9-31.8-0.2
		l-28-16.1l-3-1.7l-56.9-32.6L166.4,289.1z"/>
	<path class="st11" d="M405.2,238.6l-3.4,8.5l-32.1-18.4c1.3-1.7,2.6-3.4,3.8-5.1l13.7,7.8c2.1,1.2,4.1,2.3,5.9,3.2
		c2.3,1.1,4.4,2,6.3,2.7c0.6,0.2,1.3,0.4,1.8,0.6C402.7,238.3,404,238.5,405.2,238.6z M403.2,155.9l25.1,14.4
		c1.3,0.7,2.5,1.3,3.5,1.7l-4.8,12l-28.6-16.4L403.2,155.9z M443.3,136.2l3.7-2.1l0,0l-3.3,8.5l-16.4-9.5c-3.7-2.1-6.5-2.6-8.4-1.5
		l-7.5,4.3l1.7-4c1.8-4.5,0.9-7.7-2.8-9.6h0.1l-4.7-2.7l3.5-2l31.6,18.2c1.1,0.6,1.9,0.8,2.5,0.5
		C443.2,136.2,443.2,136.2,443.3,136.2z M247.9,155.3l30.9-17.8c-0.1,0.3-0.2,0.5-0.3,0.8l-0.1,0.3v0.1
		c-3.7,10.4-9.1,19.9-16.1,28.4l-15.4-8.8L247.9,155.3z M383.9,96.2v2.8c0,2.6,1.1,4.6,3.4,5.9l6.3,3.6v4L358,92
		c1.2-0.5,2.4-0.8,3.7-1c0.6-0.1,1.2-0.2,1.9-0.2c1.9-0.2,3.9-0.1,6.1,0.3c3.5,0.6,7.3,1.9,11.4,3.8C382,95.3,382.9,95.8,383.9,96.2
		z"/>
	<path class="st12" d="M427.1,183.9l-21.9,54.6c-1.2-0.1-2.5-0.3-3.9-0.7c-0.6-0.2-1.2-0.4-1.8-0.6c-1.9-0.7-4-1.6-6.3-2.7
		c-1.8-0.9-3.8-2-5.9-3.2l-13.7-7.8c2.9-4.2,5.5-8.6,7.7-13.2c0.1-0.3,0.2-0.7,0.4-1c0,0,0-0.1,0-0.1l16.9-41.7L427.1,183.9z
		 M443.7,142.5l-11.8,29.4c-1.1-0.4-2.2-0.9-3.5-1.7l-25.1-14.4l8.1-20.1l7.5-4.3c1.9-1,4.7-0.5,8.4,1.5L443.7,142.5z"/>
	<path class="st13" d="M388,251.3c-2.1-0.9-4.4-2.1-6.9-3.6l-18.7-10.8c1.9-1.9,3.7-3.8,5.4-5.8c0.3-0.3,0.5-0.6,0.8-0.9l32.5,18.7
		l0.9-1.9l3.4-8.5l21.9-54.6l4.8-12l11.8-29.4l3.3-8.5l0,0c0.5-0.3,0.8-1,0.8-2.1l1-2.6l-1-0.6v-8.8c5.1,5.2,6.6,10.3,4.5,15.4
		L407,248.2c-1.4,3.2-3.6,5-6.6,5.6c-0.1,0-0.1,0-0.2,0c-0.2,0-0.3,0.1-0.5,0.1c-0.1,0-0.2,0-0.2,0.1c-0.1,0-0.2,0-0.2,0l-8.6-1.7
		c-0.2-0.1-0.4-0.2-0.7-0.2L388,251.3z M260.9,168.6c-1.9,2.2-3.9,4.3-6,6.4c-1.2-0.7-2.3-1.4-3.3-2.1c-0.2-0.1-0.3-0.2-0.5-0.3
		l-3.8-2.8c-5.5-4.7-8.5-8.9-8.8-12.7c0,0,0-0.1,0-0.1c0-0.3,0-0.6,0-0.9c0-0.3,0-0.6,0-0.9c0-1.2,0.3-2.4,0.9-3.6l42.8-106.4
		l5.6,3.2l-44.2,110.3L260.9,168.6z M325.1,58.2v-11l58.8,34V92L325.1,58.2z"/>
	<path class="st14" d="M447.9,131.9c0-0.1,0-0.2,0-0.2v-3l1,0.6L447.9,131.9z M278.8,137.5l-30.9,17.8l42.3-105.7l11.7,6.8l6.1,10.6
		c-0.7,0.4-1.3,1.2-1.8,2.5L278.8,137.5L278.8,137.5z M358,92l-34.6-20v2.4l-4.5-2.6v-5.6c0.7,0.4,1.3,0.5,1.8,0.4
		c0.1,0,0.3-0.1,0.5-0.2l3.1-1.8c0.1,0,0.1-0.1,0.2-0.1c0.5-0.3,0.8-1,0.8-2.2v-4L383.9,92v4.2c-1-0.5-1.9-0.9-2.8-1.4
		c-4.1-1.9-7.9-3.1-11.4-3.8c-2.2-0.4-4.2-0.5-6.1-0.3c-0.6,0-1.2,0.1-1.9,0.2C360.4,91.2,359.1,91.5,358,92z"/>
	<path class="st15" d="M413,244.6l-0.6,1.5l-0.8,2.1c-1.9,4.6-5.6,6.4-11.1,5.6c3-0.6,5.2-2.5,6.6-5.6l45.4-112.9
		c2.1-5.1,0.5-10.2-4.5-15.4v-4c8.7,6.6,11.7,13,9.1,19.4L413,244.6z M112.2,241.7c0.1,0.2,0.2,0.3,0.2,0.4c1.2,2.1,3.5,4.4,7.1,7
		c1.7,1.2,3.6,2.4,5.9,3.7l125.3,72.4c6,3.4,11.3,5.7,16.1,6.9c6.6,1.7,12.1,1.2,16.6-1.3h0.1l109.8-63.4c1.7-0.9,2.8-2,3.5-3.1
		c1.3,2.9,0.2,5.5-3.5,7.7l-109.8,63.4c-4.4,2.5-10,3-16.6,1.4c-4.8-1.3-10.1-3.6-16.1-7l-125.3-72.2c-3.5-2-6.3-3.9-8.5-5.6
		c-2.2-1.8-3.7-3.5-4.5-5.1C111.4,244.9,111.4,243.2,112.2,241.7z M383.9,78.5v2.6l-58.8-34v-2.6L383.9,78.5z"/>
	<path class="st16" d="M369.7,228.7l32.1,18.4l-0.9,1.9l-32.5-18.7C368.8,229.7,369.3,229.2,369.7,228.7z M290.2,49.7l-42.3,105.7
		l-1,2.9l15.4,8.8c-0.4,0.5-0.9,1-1.3,1.5l-17.3-9.9l44.2-110.3L290.2,49.7z"/>
	<linearGradient id="SVGID_4_" gradientUnits="userSpaceOnUse" x1="220.154" y1="310.1021" x2="288.7761" y2="191.361">
		<stop  offset="8.627450e-02" style="stop-color:#E8FAFF"/>
		<stop  offset="0.9686" style="stop-color:#C4F2FF"/>
	</linearGradient>
	<path class="st17" d="M185,268c-0.2,0.6,0.1,1.2,0.9,1.9c0.6,0.5,1.6,1.2,2.8,1.9l33,18.9c2.6,1.5,4.8,2.2,6.5,2.1l17.8,10.2h-0.1
		c2.9,1.8,6.1,1.8,9.5,0c0.1-0.1,0.2-0.2,0.3-0.2l35.8-20.6l2.1,1.2c2.1,1.2,4.1,2.3,5.9,3.2c7.8,3.8,13.2,4.9,16,3.3l50.6-29.1
		c0.5-0.3,0.8-0.6,1-0.9c0.8-1.3-0.2-3.2-3-5.6c-2.1-1.8-5.2-3.8-9.2-6.2l-3.2-1.8c3.9-3,7.5-6.1,10.8-9.4l18.7,10.8
		c2.5,1.5,4.8,2.7,6.9,3.6c7.6,5.1,10.5,9.5,8.7,13c-0.7,1.1-1.8,2.2-3.5,3.1l-109.8,63.4h-0.1c-4.4,2.6-10,3-16.6,1.3
		c-4.8-1.2-10.1-3.5-16.1-6.9l-125.3-72.4c-2.2-1.3-4.2-2.5-5.9-3.7c-3.6-2.5-5.9-4.9-7.1-7c-0.1-0.1-0.1-0.2-0.2-0.4
		c-0.7-1.7-0.6-3.3,0.2-4.7c0.7-1.1,1.8-2.1,3.3-3l109.8-63.4c6.4-3.6,14.9-3,25.6,1.9c0.2,0.1,0.3,0.2,0.5,0.3
		c1,0.7,2.1,1.4,3.3,2.1c-3.8,3.7-7.9,7.1-12.5,10.4c-3.8-1.1-6.5-1.2-8.3-0.1l-50.7,29c-1.2,0.7-1.6,1.7-1,3
		c0.3,0.7,0.9,1.5,1.8,2.3L150,239.2c-1.2,0.7-1.9,1.4-1.9,2c-0.4,0.6-0.7,1.3-0.6,2c-0.6,1.8,0.4,3.4,2.9,4.8L185,268z"/>
	<path class="st18" d="M343.7,251.8c2.1-1.4,4.2-2.8,6.2-4.3l4.7,2.7c4.1,2.4,7.2,4.4,9.2,6.2c1.6,1.3,2.7,2.5,3,3.5
		c-0.2,0.3-0.5,0.6-1,0.9l-50.6,29.1c-2.9,1.6-8.2,0.5-16-3.3c-1.8-0.9-3.8-2-5.9-3.2l-2.1-1.2l3.8-2.2l2.5,1.5v0.1
		c0.6,0.3,1.2,0.3,1.7,0c0.1,0,0.2-0.1,0.3-0.1l1.8-0.9l-3.7-2.1l2.1-1.2l3.6,2.2l1.8-1.3h0c0.1,0,0.3-0.1,0.4-0.2
		c-0.1,0-0.3-0.1-0.5-0.3L302,276l2.5-1.5l11.8,6.9v0.1c0.8,0.4,1.5,0.4,2,0v-0.1l5.8-3.2v0.1c0.1-0.1,0.2-0.2,0.2-0.2
		c0-0.2-0.1-0.3-0.2-0.5l-12.7-7l2.1-1.2l11.8,6.8c0.7,0.6,1.3,0.6,1.8,0.2v-0.2l5.7-2.9c0.1-0.2,0.2-0.2,0.3-0.2c0,0-0.1,0-0.1-0.1
		c0,0-0.1-0.1-0.2-0.3l-12.5-7.2l1.9-1.1l3,1.7c0.7,0.4,1.4,0.4,2.2,0l5.3-3.2c0.3-0.1,0.5-0.2,0.6-0.5c-0.1,0-0.2,0-0.4-0.1h-0.2
		l-3.4-2.1l10.7-6.2l2.5,1.4c0.7,0.4,1.5,0.4,2.2,0h-0.2l2.2-1.2c0.2-0.1,0.2-0.2,0.2-0.3L343.7,251.8z M310.7,285.8l-5.8-3.5
		c-0.6-0.3-1.3-0.3-2.1,0l-2,1.3c-0.2,0.1-0.3,0.2-0.4,0.2c0,0.1,0.2,0.2,0.5,0.2l5.5,3.3c0.6,0.4,1.2,0.4,1.8,0l2.1-1.2h0.1
		C310.6,285.9,310.7,285.8,310.7,285.8z M338,256.3l-5.2,3.3c-0.2,0.1-0.3,0.1-0.4,0.1c0.1,0.1,0.2,0.1,0.4,0.1l10.1,6v0.1
		c0.6,0.3,1.4,0.3,2.2,0h-0.2l5.5-3.3c0.3-0.1,0.5-0.2,0.5-0.3l-0.5-0.1l-10-5.9C339.7,256,338.9,256,338,256.3z M336.1,271.1
		l5.5-3.2h0.2c0.1-0.2,0.2-0.3,0.2-0.3l-0.2-0.4l-5.7-3c-0.7-0.4-1.4-0.4-2.1,0l-5.6,3c-0.1,0.3-0.2,0.4-0.2,0.4
		c0,0.1,0.1,0.2,0.2,0.3l5.6,3.2C334.6,271.5,335.3,271.5,336.1,271.1z M240.3,186.8c-1,0.7-2.1,1.4-3.2,2.1l-53,30.6
		c-0.9-0.9-1.5-1.6-1.8-2.3c0.3-0.3,0.6-0.6,1-0.9l50.7-29C235.6,186.4,237.6,186.3,240.3,186.8z M355.9,259l-5.5-3.2h0.2
		c-0.7-0.3-1.3-0.3-2,0h-0.2l-2.1,1.2c-0.2,0.2-0.3,0.3-0.4,0.3c0.1,0.1,0.2,0.2,0.4,0.2l5.4,3.3c0.8,0.4,1.5,0.4,2.2,0.1l2.3-1.4
		c0.2-0.2,0.4-0.3,0.5-0.3C356.5,259.3,356.3,259.2,355.9,259z"/>
	
		<linearGradient id="SVGID_5_" gradientUnits="userSpaceOnUse" x1="182.7925" y1="221.9795" x2="367.2172" y2="221.9795" gradientTransform="matrix(1 1.360000e-04 0 1 0 0.1645)">
		<stop  offset="0.2118" style="stop-color:#29C1ED"/>
		<stop  offset="0.3569" style="stop-color:#B3E4F2"/>
	</linearGradient>
	<path class="st19" d="M366.9,259.9c-0.4-1-1.4-2.2-3-3.5c-2.1-1.8-5.2-3.8-9.2-6.2l-4.7-2.7c0.5-0.4,1-0.8,1.5-1.2l3.2,1.8
		c4.1,2.4,7.2,4.4,9.2,6.2C366.7,256.8,367.7,258.6,366.9,259.9z M242.5,185.3c-0.7,0.5-1.4,1-2.1,1.5c-2.7-0.5-4.8-0.4-6.2,0.5
		l-50.7,29c-0.4,0.3-0.8,0.6-1,0.9c-0.5-1.3-0.2-2.2,1-3l50.7-29C235.9,184.1,238.7,184.2,242.5,185.3z"/>
	<linearGradient id="SVGID_6_" gradientUnits="userSpaceOnUse" x1="184.9035" y1="268.9875" x2="256.755" y2="269.1369">
		<stop  offset="0.3804" style="stop-color:#5FCBE3"/>
		<stop  offset="0.4627" style="stop-color:#A8EFFF"/>
	</linearGradient>
	<path class="st20" d="M187,269.2l-1.2,0.7c-0.8-0.7-1-1.3-0.9-1.9L187,269.2z"/>
	<path class="st21" d="M185.8,269.9l1.2-0.7l41,23.6c-1.7,0.1-3.9-0.6-6.5-2.1l-33-18.9C187.4,271.1,186.4,270.5,185.8,269.9z"/>
	
		<linearGradient id="SVGID_7_" gradientUnits="userSpaceOnUse" x1="-2730.8677" y1="-643.0115" x2="-2679.2129" y2="-643.0115" gradientTransform="matrix(-1 0 1.117000e-03 -1 -2366.1021 -293.9234)">
		<stop  offset="0.3412" style="stop-color:#9797EE"/>
		<stop  offset="0.5725" style="stop-color:#C7C7FF"/>
	</linearGradient>
	<path class="st22" d="M364,338.2l0,1.9l0,1.3c0.1,0.2,0.1,0.3,0.1,0.5l0,0v3.3c0.2,0.6-0.2,1.2-1.4,1.8l-21.5,12.5
		c-1.9,1.1-3.7,1.1-5.5,0L313.8,347c-0.9-0.6-1.4-1.2-1.4-1.7v-5.8v-1.7c0,0.4,0.3,0.8,0.8,1.2c0.2,0.1,0.4,0.3,0.6,0.4l8.5,5h0
		l2,1.1h0l11.2,6.5c1.9,1.1,3.7,1.1,5.6,0l21.5-12.4c0.1,0,0.1-0.1,0.2-0.1C363.5,339,363.9,338.6,364,338.2z"/>
	<path class="st23" d="M321.7,338.6c1.6,1,3.6,1.5,5.9,1.5c2.3,0,4.3-0.5,6-1.5l12.2-7l-3.8-2.2l-12.2,7.1c-0.6,0.3-1.4,0.5-2.2,0.5
		c-0.9,0-1.6-0.2-2.2-0.5c-0.4-0.2-0.6-0.5-0.8-0.8l-5.1,0.8C319.9,337.3,320.6,338,321.7,338.6z M312.4,337.9c0-0.5,0.5-1,1.5-1.6
		l21.5-12.4c1.9-1.1,3.7-1.1,5.6,0l6.2,3.5h0l9.2,5.3h0l6.3,3.6c0.9,0.5,1.3,1,1.3,1.5c0.1,0.1,0.1,0.3,0.1,0.4
		c-0.1,0.4-0.5,0.9-1.2,1.3c-0.1,0-0.1,0.1-0.2,0.1L341.1,352c-1.9,1.1-3.7,1.1-5.6,0l-11.2-6.5h0l-2-1.1h0l-8.5-5
		c-0.2-0.1-0.4-0.3-0.6-0.4C312.7,338.7,312.4,338.3,312.4,337.9z M332.7,343.9c0.5,1,1.3,1.8,2.5,2.4c1.1,0.6,2.4,1.1,3.8,1.2
		c1.8,0.3,3.3,0.1,4.5-0.6c1.4-0.8,1.6-1.7,0.8-2.9l-0.4-0.6l-1.5-1.2c-0.1,0-0.1-0.1-0.2-0.2l-0.3-0.1l-0.6-0.7
		c-0.4-0.5-0.4-0.9,0.1-1.2c0.4-0.3,1-0.3,1.6-0.1l0.8,0.2l1,0.5l0.7,0.5c0.6,0.5,0.9,1,1,1.5l3.2-0.2c-0.2-0.8-0.7-1.5-1.3-2.1
		c-0.5-0.4-1-0.8-1.7-1.2l-0.8-0.5l-1.8-0.6c-2-0.5-3.7-0.3-5.2,0.6c-1.3,0.7-1.5,1.7-0.7,2.8l1.7,1.7l0.1,0c0,0,0,0,0.1,0l0,0
		c0,0,0.1,0,0.2,0.1l0.9,0.8c0.5,0.6,0.5,1,0,1.2l0,0c0,0-0.1,0-0.2,0c0,0,0,0,0,0c-0.1,0-0.1,0.1-0.1,0.1l-0.8,0.1
		c-0.8,0-1.6-0.3-2.4-0.8c-0.8-0.5-1.4-1.1-1.8-1.8l-0.2-1l-3.2,0.1v0.2c0,0,0,0.1,0,0.2c0,0,0,0.1,0.1,0.2L332.7,343.9z"/>
	<g class="st24">
		<path class="st25" d="M405.6,119.5l4.7,2.7h-0.1c3.7,1.9,4.6,5.1,2.8,9.6l-1.7,4l-8.1,20.1l-4.7,11.7l-16.9,41.7
			c0,0.1,0,0.1,0,0.1c-0.2,0.3-0.3,0.7-0.4,1c-2.2,4.6-4.8,9-7.7,13.2c-1.2,1.7-2.5,3.5-3.8,5.1c-0.4,0.5-0.9,1.1-1.3,1.6
			c-0.2,0.3-0.5,0.6-0.8,0.9c-1.7,2-3.5,3.9-5.4,5.8c-3.3,3.3-6.9,6.5-10.8,9.4c-0.5,0.4-1,0.8-1.5,1.2c-2,1.5-4,2.9-6.2,4.3
			c-0.4,0.2-0.7,0.5-1.1,0.7c0,0-0.1,0-0.1,0l-1.2,0.8c-0.1,0.1-0.2,0.1-0.4,0.2l-0.8,0.4l-10.7,6.2l-7.1,4.1l-1.9,1.1l-6.9,4
			l-2.1,1.2l-6.9,4L302,276l-2.2,1.3l-2.1,1.2l-2.6,1.5l-3.8,2.2l-35.8,20.6c-0.1,0.1-0.2,0.2-0.3,0.2c-3.4,1.8-6.5,1.8-9.5,0h0.1
			l-17.8-10.2l-41-23.6L185,268l-34.6-20c-2.5-1.4-3.5-3-2.9-4.8c0-0.7,0.2-1.3,0.6-2c0,0.6,0.5,1.2,1.5,1.8l95.4,55.1
			c2.1,1.2,4.3,1.1,6.7-0.3h0.1l85.7-49.4h0.1l1.3-0.8c17.4-11.1,30-25,37.9-41.8l31.3-77.5c1.1-2.7,0.6-4.7-1.5-6l-2.9-1.7
			L405.6,119.5z M393.6,114.9l-70.2-40.5V72L358,92l35.7,20.6V114.9z M278.4,138.7L278.4,138.7l0.1-0.4
			C278.4,138.4,278.4,138.5,278.4,138.7z"/>
	</g>
	<path class="st26" d="M254.9,174.9c2.1-2.1,4.1-4.2,6-6.4c0.4-0.5,0.9-1,1.3-1.5c7-8.5,12.4-17.9,16.1-28.4c0-0.1,0.1-0.2,0.1-0.4
		c0.1-0.3,0.2-0.5,0.3-0.8v0l27.4-68c0.5-1.2,1.1-2.1,1.8-2.5l7.2,12.6l3.5-2v-5.9l4.5,2.6l70.2,40.5v11.5l10-5.8l2.9,1.7
		c2,1.2,2.5,3.2,1.5,6l-31.3,77.5c-7.9,16.8-20.5,30.8-37.9,41.8l-1.3,0.8h-0.1l-85.7,49.4h-0.1c-2.3,1.4-4.5,1.5-6.7,0.3
		l-95.4-55.1c-1-0.6-1.5-1.2-1.5-1.8c0-0.7,0.7-1.3,1.9-2l34.2-19.7l53-30.6c1.1-0.7,2.2-1.4,3.2-2.1c0.7-0.5,1.4-1,2.1-1.5
		C247,182.1,251.1,178.6,254.9,174.9z M189.5,229.3l-2,1.2l11.1,6.4c0.5-0.4,0.8-0.6,1-0.8c0.3-0.2,0.5-0.4,0.8-0.5L189.5,229.3z
		 M226.6,229.7l0.6,0.4l1.6,5.6l4.1-2.4l7.8,4.5l-23.4,13.5l-22.6-13c-1.4-0.8-2.8-0.8-4.1,0l-10.8,6.3c-1.4,0.8-1.4,1.6,0,2.4
		l50,28.8c1.4,0.8,2.8,0.8,4.2,0l10.8-6.3c1.4-0.8,1.4-1.6,0-2.4l-26.5-15.3l23.4-13.5l5.5,3.2l-4.5,2.9l11.2,1.1
		c-0.3,0.4-0.2,1,0.2,1.8l5.8,11.6c1,2,3.3,3.3,6.8,3.9l20.2,3.4c3.5,0.6,4.8-0.1,3.8-2.2l-5.9-11.7c0-0.1-0.1-0.2-0.1-0.3l8.7-5
		l3.6,2.1l2-5.4l1.5-0.9c0.6,0.1,1.3,0.2,2,0.2h17.8c3.1,0,4.7-0.9,4.7-2.7v-10.3c0-0.8-0.3-1.5-1-1.9c1.1-0.9,2.3-1.8,3.4-2.7
		l3.2,1.9l0.6-5.2c0.1-0.1,0.3-0.2,0.4-0.4l11.8,6.8c1.3,0.8,3,1,5,0.6c1.4-0.3,2.7-0.8,3.9-1.5l2.9,1.7l0.2-0.3
		c7.8-7.9,14-16.7,18.6-26.4v0l0,0l7.5-18.5l-3.3-1.9l2-4.2h-7.2c1.7-3.5,1.9-7.2,0.8-11c-1.1-3.8-3.3-6.6-6.6-8.5l3.1-7.6
		c1.6,0.9,3.2,1.9,4.9,2.8c4.2,2.5,8.3,4.9,12.5,7.4c0.4-0.8,0.8-1.6,1.2-2.5c-5.7-3.4-11.5-6.8-17.5-10.2l4.2-10.4L342,118.8
		l2.7-6.7l25.2,14.5c1.4,0.8,2.4,0.4,3.1-1l5.4-11.2c0.7-1.4,0.4-2.5-1-3.3l-50-28.7c-1.4-0.8-2.4-0.5-3.1,1l-5.5,11.2
		c-0.7,1.4-0.4,2.5,1,3.4l23.9,13.7l-3.8,9.5c-1.2-0.6-2.6-0.9-4.1-0.9l-19.8-0.1c-2.9,0-3.9,1.1-3,3.3l-6.4-7.8l-1.2,3.6l-13.3-7.7
		l-15,37c0,0,0,0,0,0.1c-4.4,9.3-10.2,17.7-17.4,25.2l-0.1,0.1v0.1c-5.8,5.9-13,11.6-21.5,17h0l-39.4,22.8l2.5,1.4c0,0,0,0-0.1,0.1
		h0c-1.7,1-2.8,2-3.2,3c-0.5,1.1-0.3,1.9,0.7,2.5l18.4,10.5c1,0.5,2.4,0.7,4.2,0.3C223.1,231.4,224.8,230.7,226.6,229.7L226.6,229.7
		z M330.4,221.3l-6.7,2.2l2.6,1.5c-1.1,0.9-2.3,1.9-3.5,2.8c-0.7-0.2-1.5-0.3-2.5-0.3h-17.8c-3.1,0-4.6,0.9-4.6,2.6v10.3
		c0,1,0.4,1.7,1.3,2.1l-0.7,0.4l-10.2,1.2l4,2.3l-8.3,4.8c-1.2-1.4-3.2-2.3-6.1-2.8l-20.1-3.3c-1.1-0.2-2-0.2-2.7-0.2l-0.3-0.2
		l-3.3-6l-3.3,2.1l-5.5-3.2l14.9-8.6l3.6,2.1l1.9-4.9c2.8,1.4,5.9,2.4,9.4,2.8l-2,1.2l4.9,2.8c0.8-0.6,1.5-0.9,2-1.1l-4.8-2.8
		c1.2,0.1,2.4,0.2,3.7,0.2c5.4,0,10-1.2,13.8-3.4c3.8-2.2,5.8-4.9,5.8-8c0-3.1-1.9-5.8-5.8-8c-0.2-0.1-0.4-0.2-0.7-0.3
		c4.5-3.4,8.6-7.1,12.4-10.9l5.9,3.4v0l1.3,0.7l-3.5,3.5l10,0.3l1.3,0.7c-0.8,1-1.3,2-1.3,3.1c0,1.5,0.6,2.6,2,3.3L330.4,221.3z
		 M268.2,231.6l-2,1.2l7.8,4.5c0.1-0.1,0.2-0.2,0.4-0.3c0.5-0.3,1.1-0.6,1.8-0.8L268.2,231.6z M311.1,186.2l-6,3.1l2.7,1.5
		c-0.8,1.1-1.7,2.1-2.6,3.2h-0.3c-1.1,1.2-2.1,2.4-3.2,3.5l-1.5-0.9l3.1-2.8l-9.3-1.1c1-1.1,1.5-2.1,1.7-3.2
		c0.2-1.4-0.4-2.5-1.6-3.2L274.1,175c4.3-5.1,8.1-10.6,11.2-16.4l4.5,2.6l-2.1,4.5l8.8-0.6l0.8,0.4l-2.7,6.9c-0.9,2.4-0.2,4.2,2,5.5
		L311.1,186.2z M322.2,165.2l-17-9.8c-2.2-1.3-3.8-0.7-4.6,1.6l-2.9,7.4l-5.7-8.1l-1.8,3.9l-5.3-3.1l-0.2,0.5
		c-3.2,6-7,11.6-11.4,16.8l-2.2-1.2c-1.2-0.7-2.8-0.8-4.7-0.4c-1.9,0.4-3.5,1.2-5,2.5v0.1c-1.5,1.3-2.3,2.6-2.5,4
		c-0.1,1.4,0.4,2.5,1.7,3.2l3,1.7l-10.2,1.2l8.6,5l2.2-5.9l19.4,11.1c1.2,0.7,2.8,0.8,4.6,0.4c1.8-0.4,3.5-1.3,5-2.5l0.5,0.3h0l0,0
		l2.2,6.5l3.6-3.2l1.5,0.9c-3.8,3.8-8,7.4-12.5,10.9c-3.5-1.6-7.5-2.4-12.2-2.4c-5.4,0-10.1,1.1-13.9,3.3s-5.8,4.9-5.8,8
		c0,2.8,1.5,5.2,4.5,7.2l-8.5,1l4,2.3l-14.9,8.6l-7.7-4.4l3.6-2.1l-9.7-1.8c1-0.7,1.7-1.5,2-2.3c0.5-1.1,0.3-1.9-0.7-2.4l-18.4-10.5
		c-1-0.6-2.4-0.7-4.2-0.5c-1.5,0.3-2.9,0.7-4.2,1.3l-1.6-0.9l37.9-21.9h0c8.7-5.5,15.9-11.2,21.8-17.3l0.2-0.2v0
		c7.3-7.6,13.1-16.1,17.5-25.4v0l0,0l14.5-36l12.5,7.2l-1.8,5.2l8.7-1.3l2.2,1.2l10.8,17.2c1.2,1.9,2.7,3.3,4.6,4l-4.4,3l2.8,1.6
		l-0.9,2.3c0,0,0,0.1,0,0.1L322.2,165.2z M228.6,206.4l-2,1.1l7.8,4.5c0.1-0.1,0.2-0.2,0.4-0.3c0.5-0.3,1.1-0.6,1.8-0.8L228.6,206.4
		z M224.3,208.9l-2,1.2l11,6.5c0.5-0.4,0.8-0.6,1-0.8c0.3-0.2,0.5-0.4,0.8-0.5L224.3,208.9z M199.9,237.2c-0.1,0.1-0.2,0.1-0.3,0.2
		l5.8,3.4l2.1-1.2l-6.2-3.7C200.9,236.4,200.5,236.8,199.9,237.2z M201.7,231.3l-7.8-4.5l-2.1,1.2l7.8,4.5c0.1-0.1,0.2-0.2,0.4-0.4
		C200.4,231.8,201,231.5,201.7,231.3z M196,225.5l4.9,2.8c0.8-0.6,1.5-1,2-1.1l-4.8-2.9L196,225.5z M212.1,232.5
		c-0.5,0.3-1.2,0.7-2,1.2l3.9,2.2l2-1.2L212.1,232.5z M203.7,234.9c0.2-0.2,0.5-0.5,0.9-0.8c0.3-0.2,0.6-0.5,1-0.7l-2.5-1.3
		c-0.2,0.4-0.6,0.7-1.1,1.1c-0.2,0.1-0.3,0.2-0.4,0.3L203.7,234.9z M207,234.4c-0.2,0.3-0.5,0.5-0.8,0.8c-0.3,0.3-0.5,0.5-0.8,0.7
		l4.3,2.5l2.1-1.2L207,234.4z M203.8,227.6c-0.2,0.3-0.6,0.6-1,1c-0.2,0.2-0.5,0.3-0.7,0.5l6.5,3.8c0.4-0.2,0.9-0.5,1.4-0.8
		c0.3-0.1,0.5-0.2,0.8-0.3L203.8,227.6z M330.7,146.9c0.7,0.2,1.5,0.3,2.4,0.3l19.9,0.1c3.4,0,4.2-1.5,2.2-4.7L344,124.8
		c-0.9-1.4-1.9-2.5-3.1-3.2l0.7-1.8l32.4,18.7l-1.7,4.1c-2.5-1.4-5-2.8-7.5-4.2c-0.3,0.8-0.7,1.7-1,2.6c2.5,1.4,5,2.8,7.5,4.2
		l-5.2,12.9c-3.1-1.6-6.4-1.9-9.8-0.9c-3.6,1.1-6.2,3.4-7.9,6.9c-0.1,0.3-0.3,0.6-0.4,0.9l-20-11.6l0.8-1.8l3.1,1.8L330.7,146.9z
		 M317.5,206.7l-0.2-0.1l-4.4-7.4l-3.1,3.1l-7-4c2.1-2.2,4.1-4.5,5.9-6.8l3.2,1.9l-0.3-5.7c0.2-0.3,0.4-0.5,0.6-0.8l13.3,7.6
		c2.2,1.3,3.7,0.7,4.6-1.6l2.6-6.9l3.4,7.5l2.1-4.3l12.2,7c-2.9,5.4-6.3,10.5-10.3,15.3l-12-6.9c-1.4-0.8-3.1-1-5.1-0.6
		c-2,0.3-3.7,1.2-5.1,2.5v0C317.7,206.5,317.6,206.6,317.5,206.7z M333.2,184.4l2.7-6.9c0.9-2.4,0.3-4.2-1.9-5.5l-11-6.3l4.6-11.2
		l20,11.5c-1,3-1,6-0.1,9.2c1.1,3.8,3.4,6.7,6.8,8.6c3.4,1.9,6.9,2.4,10.5,1.2c2.9-0.9,5.3-2.7,7-5.2l0.8,0.4l3.1,6.8l1.9-3.9
		l2.5,1.4l-7.2,17.7c0,0,0,0,0,0.1c-4.5,9.5-10.5,18.1-18,25.8l-1.8-1.1c0.1-0.1,0.3-0.2,0.4-0.3v0c1.4-1.3,2.2-2.7,2.2-4.1
		c0.1-1.5-0.6-2.6-1.9-3.4l-12.8-7.4c4.1-5,7.6-10.2,10.5-15.8l0.2-0.4l-13.1-7.5l1.8-3.7H333.2z M314.3,145.5
		c0.4-0.8,0.8-1.6,1.2-2.5c-5.8-3.4-11.8-6.9-17.9-10.5c-0.1,0.3-0.4,0.8-0.7,1.5c-0.2,0.4-0.4,0.7-0.6,1c1.8,1.1,3.7,2.1,5.5,3.1
		C305.9,140.6,310.1,143,314.3,145.5z M316.5,140.3c0.4-0.9,0.7-1.8,0.9-2.6c-1.8-1.1-3.6-2.2-5.4-3.2c-0.1,0.4-0.3,0.9-0.5,1.5
		c-0.1,0.4-0.2,0.8-0.4,1.1C312.9,138.2,314.7,139.2,316.5,140.3z M325.1,115.5c0.4-0.8,0.8-1.6,1.2-2.5c-5.8-3.4-11.8-6.9-18-10.5
		c-0.1,0.3-0.4,0.8-0.7,1.5c-0.2,0.4-0.4,0.7-0.6,1c1.8,1.1,3.7,2.1,5.5,3.1C316.7,110.6,320.9,113,325.1,115.5z M314.7,102.8
		c1.8,1,3.6,2.1,5.4,3.1c0.1-0.3,0.2-0.6,0.3-0.9c0.3-0.6,0.6-1.1,1-1.5c-3.1-1.8-6.2-3.6-9.4-5.5c-0.1,0.4-0.2,1-0.4,1.7
		c-0.1,0.4-0.2,0.8-0.4,1C312.3,101.5,313.5,102.1,314.7,102.8z M327.3,110.3c0.4-0.9,0.7-1.8,1-2.6c-1.8-1.1-3.6-2.2-5.4-3.2
		c-0.1,0.4-0.3,0.9-0.5,1.5c-0.1,0.4-0.2,0.8-0.4,1.1C323.7,108.2,325.5,109.2,327.3,110.3z M373.9,145.3c-0.1,0.4-0.2,0.8-0.4,1.1
		c1.2,0.7,2.4,1.4,3.5,2c1.8,1,3.6,2.1,5.3,3.1c0.1-0.3,0.2-0.6,0.4-1c0.3-0.6,0.6-1.1,0.9-1.4c-3.1-1.8-6.2-3.6-9.4-5.5
		C374.2,144.1,374.1,144.6,373.9,145.3z M362.8,143.6c-0.4,0.8-0.7,1.6-1.1,2.5c2,1.1,4,2.3,6,3.4c0.4-0.8,0.8-1.6,1.4-2.3
		C367,146,364.9,144.8,362.8,143.6z M289.6,128c-0.4,0.8-0.7,1.6-1,2.5c2,1.1,3.9,2.3,5.9,3.5c0.4-0.8,0.8-1.6,1.4-2.4
		C293.8,130.4,291.7,129.2,289.6,128z M305.3,104c0.4-0.8,0.8-1.6,1.4-2.4c-2.1-1.2-4.2-2.4-6.3-3.6c-0.4,0.8-0.7,1.6-1,2.5
		C301.3,101.7,303.3,102.8,305.3,104z M301.4,95.3c2.7,1.5,5.3,3,8,4.5c0.2-0.8,0.7-1.6,1.3-2.4c-2.7-1.6-5.4-3.1-8.2-4.6
		C302.2,93.6,301.8,94.4,301.4,95.3z M298.6,129.8c0.2-0.8,0.7-1.6,1.3-2.4c-2.7-1.6-5.4-3.1-8.2-4.6c-0.3,0.8-0.6,1.7-1,2.6
		C293.3,126.8,295.9,128.3,298.6,129.8z M303.9,132.8c1.8,1,3.6,2.1,5.3,3.1c0.1-0.3,0.2-0.6,0.4-0.9c0.3-0.6,0.6-1.1,1-1.5
		c-3.1-1.8-6.2-3.6-9.4-5.5c-0.1,0.4-0.2,1-0.4,1.7c-0.1,0.4-0.2,0.8-0.4,1C301.5,131.5,302.7,132.1,303.9,132.8z M245,213.3
		l3.9,2.2l2-1.2l-3.9-2.2C246.4,212.4,245.8,212.8,245,213.3z M236.1,215.6c-0.3,0.3-0.8,0.7-1.4,1.2c-0.1,0.1-0.2,0.2-0.3,0.2
		l5.9,3.4l2-1.2L236.1,215.6z M239.4,213.8c0.3-0.2,0.6-0.5,1-0.7l-2.5-1.3c-0.2,0.4-0.6,0.7-1.1,1.1c-0.2,0.1-0.3,0.2-0.5,0.4
		l2.2,1.3C238.7,214.3,239,214.1,239.4,213.8z M241,214.8c-0.3,0.3-0.5,0.5-0.8,0.7l4.3,2.5l2.1-1.2l-4.8-2.8
		C241.5,214.3,241.3,214.5,241,214.8z M237.7,206.8l-4.8-2.8l-2,1.2l4.8,2.8C236.5,207.4,237.2,207,237.7,206.8z M244.9,211.7
		c0.3-0.1,0.5-0.2,0.8-0.4l-7.1-4.1c-0.2,0.3-0.5,0.6-1,1c-0.2,0.2-0.5,0.3-0.7,0.5l6.6,3.8C243.9,212.3,244.4,212,244.9,211.7z
		 M284.6,238.5l3.8,2.2l2-1.2l-3.9-2.2C286,237.6,285.4,238,284.6,238.5z M275.7,240.8c-0.3,0.3-0.8,0.7-1.3,1.2
		c-0.1,0.1-0.2,0.2-0.3,0.2l5.8,3.4l2-1.2L275.7,240.8z M280.6,240c-0.3,0.3-0.5,0.5-0.8,0.7l4.3,2.5l2.1-1.2l-4.8-2.8
		C281.1,239.5,280.9,239.7,280.6,240z M279,239c0.3-0.2,0.6-0.5,1-0.7l-2.5-1.3c-0.2,0.4-0.6,0.7-1.1,1.1c-0.2,0.1-0.3,0.2-0.5,0.4
		l2.2,1.3C278.3,239.5,278.6,239.3,279,239z M277.2,233.4c-0.2,0.2-0.4,0.3-0.6,0.5l6.5,3.8c0.4-0.2,0.9-0.5,1.4-0.8
		c0.3-0.1,0.5-0.2,0.8-0.4l-7.2-4.1C277.9,232.7,277.6,233,277.2,233.4z M261.9,235.2l11,6.5c0.5-0.4,0.8-0.6,1.1-0.8
		c0.3-0.2,0.5-0.4,0.8-0.5l-10.9-6.3L261.9,235.2z M385.3,150.1c-0.1,0.4-0.3,0.9-0.6,1.5c-0.1,0.4-0.2,0.8-0.4,1.1
		c1.8,1.1,3.6,2.1,5.4,3.2c0.4-0.9,0.7-1.8,1-2.6C388.9,152.2,387.1,151.1,385.3,150.1z M276.4,275.5l2-1.2l-3.9-2.2
		c-0.5,0.3-1.2,0.7-2,1.2L276.4,275.5z M267.8,275.5l4.3,2.5l2.1-1.2l-4.8-2.8c-0.2,0.3-0.5,0.5-0.8,0.8
		C268.3,275.1,268,275.3,267.8,275.5z M267.9,280.5l2-1.2l-6.2-3.7c-0.3,0.3-0.8,0.7-1.3,1.2c-0.1,0.1-0.2,0.2-0.3,0.2L267.9,280.5z
		 M251.9,268.9l-2,1.2l11,6.5c0.5-0.4,0.8-0.6,1.1-0.8c0.3-0.2,0.5-0.4,0.8-0.5L251.9,268.9z M265.5,271.8c-0.2,0.4-0.6,0.7-1.1,1.1
		c-0.2,0.1-0.3,0.2-0.5,0.4l2.2,1.3c0.2-0.2,0.5-0.5,0.8-0.8c0.3-0.2,0.6-0.5,1-0.7L265.5,271.8z M266.2,267.2c-0.2,0.3-0.5,0.6-1,1
		c-0.2,0.2-0.4,0.3-0.6,0.5l6.5,3.8c0.4-0.2,0.9-0.5,1.4-0.8c0.3-0.1,0.5-0.2,0.8-0.4L266.2,267.2z M260.5,263.9l-2,1.2l4.9,2.8
		c0.8-0.6,1.5-1,2-1.2L260.5,263.9z M256.2,266.4l-2,1.1l7.8,4.5c0.1-0.1,0.2-0.2,0.4-0.3c0.5-0.3,1.1-0.6,1.8-0.8L256.2,266.4z"/>
	<path class="st27" d="M189.5,229.3l10.9,6.3c-0.3,0.1-0.5,0.3-0.8,0.5c-0.2,0.2-0.6,0.4-1,0.8l-11.1-6.4L189.5,229.3z M226.6,229.7
		c0.2-0.1,0.3-0.2,0.5-0.3l-0.2-0.7l1,0.2l9.7,1.8l-3.6,2.1l7.7,4.4l14.9-8.6l-4-2.3l8.5-1l2.5-0.3l-0.5,1.4l-1.9,4.9l-3.6-2.1
		l-14.9,8.6l5.5,3.2l3.3-2.1l3.3,6l0.3,0.2c-0.1,0-0.1,0-0.2,0l0.4,0.7l-1.4-0.2l-11.2-1.1l4.5-2.9l-5.5-3.2l-23.4,13.5l26.5,15.3
		c1.4,0.8,1.4,1.6,0,2.4l-10.8,6.3c-1.4,0.8-2.8,0.8-4.2,0l-50-28.8c-1.4-0.8-1.4-1.6,0-2.4l10.8-6.3c1.4-0.8,2.8-0.8,4.1,0l22.6,13
		l23.4-13.5l-7.8-4.5l-4.1,2.4l-1.6-5.6L226.6,229.7z M224.3,208.9l10.9,6.3c-0.3,0.1-0.5,0.3-0.8,0.5c-0.2,0.2-0.6,0.4-1,0.8
		l-11-6.5L224.3,208.9z M228.6,206.4l7.8,4.5c-0.6,0.2-1.2,0.5-1.8,0.8c-0.2,0.1-0.3,0.2-0.4,0.3l-7.8-4.5L228.6,206.4z M313,123.4
		l0.4,0.5l-0.1,0c0.1,0.3,0.3,0.6,0.5,0.9l0.3,0.5l-2.2-1.2l-8.7,1.3l1.8-5.2l-12.5-7.2l-14.5,36l0,0v0
		c-4.4,9.3-10.2,17.8-17.5,25.4v0l-0.2,0.2c-5.9,6-13.2,11.8-21.8,17.3h0l-37.9,21.9l1.6,0.9c-0.3,0.2-0.7,0.4-1,0.5l-2.5-1.4
		l39.4-22.8h0c8.5-5.4,15.7-11.1,21.5-17v-0.1l0.1-0.1c7.2-7.5,13.1-16,17.4-25.2c0,0,0,0,0-0.1l15-37l13.3,7.7l1.2-3.6L313,123.4z
		 M203.8,227.6l7.1,4.2c-0.3,0.1-0.5,0.2-0.8,0.3c-0.5,0.3-1,0.5-1.4,0.8l-6.5-3.8c0.2-0.2,0.4-0.3,0.7-0.5
		C203.2,228.2,203.5,227.9,203.8,227.6z M207,234.4l4.9,2.8l-2.1,1.2l-4.3-2.5c0.2-0.2,0.5-0.4,0.8-0.7
		C206.5,234.9,206.7,234.7,207,234.4z M203.7,234.9l-2.2-1.3c0.1-0.1,0.3-0.2,0.4-0.3c0.5-0.4,0.9-0.7,1.1-1.1l2.5,1.3
		c-0.3,0.2-0.7,0.4-1,0.7C204.2,234.5,203.9,234.7,203.7,234.9z M212.1,232.5l3.9,2.2l-2,1.2l-3.9-2.2
		C211,233.2,211.6,232.8,212.1,232.5z M196,225.5l2.1-1.2l4.8,2.9c-0.5,0.2-1.2,0.6-2,1.1L196,225.5z M201.7,231.3
		c-0.6,0.2-1.2,0.5-1.8,0.8c-0.2,0.1-0.3,0.2-0.4,0.4l-7.8-4.5l2.1-1.2L201.7,231.3z M199.9,237.2c0.6-0.5,1-0.9,1.4-1.2l6.2,3.7
		l-2.1,1.2l-5.8-3.4C199.7,237.4,199.8,237.3,199.9,237.2z M340,121.1l3.8-9.5l0.9,0.5l-2.7,6.7l33.3,19.2l-4.2,10.4
		c6,3.5,11.9,6.9,17.5,10.2c-0.4,0.9-0.8,1.7-1.2,2.5c-4.2-2.5-8.3-4.9-12.5-7.4c-1.6-0.9-3.3-1.8-4.9-2.8l-3.1,7.6
		c3.3,1.9,5.5,4.8,6.6,8.5c1.2,3.8,0.9,7.5-0.8,11h7.2l-2,4.2l3.3,1.9l-7.5,18.5l0,0v0c-4.6,9.7-10.8,18.6-18.6,26.4l-0.2,0.3
		l-2.9-1.7c0.3-0.2,0.6-0.4,0.9-0.7l1.8,1.1c7.5-7.7,13.6-16.3,18-25.8c0,0,0,0,0-0.1l7.2-17.7l-2.5-1.4l-1.9,3.9l-3.1-6.8l-0.8-0.4
		c-1.7,2.6-4,4.3-7,5.2c-3.6,1.1-7.1,0.7-10.5-1.2c-3.4-1.9-5.6-4.8-6.8-8.6c-1-3.2-0.9-6.2,0.1-9.2l-20-11.5l-4.6,11.2l-0.9-0.5
		l4.7-11.7c0,0,0,0,0-0.1l0.9-2.3l-2.8-1.6l4.4-3l1-0.7l0.2,1.1l1.2,6.6l-3.1-1.8l-0.8,1.8l20,11.6c0.1-0.3,0.3-0.6,0.4-0.9
		c1.7-3.5,4.3-5.8,7.9-6.9c3.4-1,6.6-0.7,9.8,0.9l5.2-12.9c-2.5-1.4-5-2.8-7.5-4.2c0.4-0.9,0.8-1.8,1-2.6c2.5,1.4,5,2.8,7.5,4.2
		l1.7-4.1l-32.4-18.7l-0.7,1.8C340.6,121.4,340.3,121.2,340,121.1z M327.3,110.3c-1.8-1.1-3.6-2.1-5.4-3.2c0.2-0.3,0.3-0.7,0.4-1.1
		c0.2-0.6,0.4-1.1,0.5-1.5c1.8,1,3.6,2.1,5.4,3.2C328,108.5,327.7,109.4,327.3,110.3z M314.7,102.8c-1.2-0.7-2.3-1.4-3.5-2
		c0.2-0.3,0.3-0.6,0.4-1c0.2-0.7,0.3-1.2,0.4-1.7c3.2,1.8,6.3,3.7,9.4,5.5c-0.3,0.4-0.7,0.9-1,1.5c-0.1,0.3-0.2,0.6-0.3,0.9
		C318.2,104.9,316.5,103.9,314.7,102.8z M325.1,115.5c-4.2-2.5-8.3-4.9-12.5-7.4c-1.8-1-3.7-2-5.5-3.1c0.2-0.3,0.4-0.6,0.6-1
		c0.3-0.6,0.5-1.1,0.7-1.5c6.2,3.5,12.1,7,18,10.5C325.9,113.9,325.5,114.7,325.1,115.5z M316.5,140.3c-1.8-1.1-3.6-2.1-5.4-3.2
		c0.2-0.3,0.3-0.7,0.4-1.1c0.2-0.6,0.4-1.1,0.5-1.5c1.8,1,3.6,2.1,5.4,3.2C317.2,138.5,316.9,139.4,316.5,140.3z M314.3,145.5
		c-4.2-2.5-8.3-4.9-12.5-7.4c-1.8-1-3.7-2-5.5-3.1c0.2-0.3,0.4-0.6,0.6-1c0.3-0.6,0.5-1.1,0.7-1.5c6.2,3.5,12.1,7,17.9,10.5
		C315.1,143.9,314.7,144.7,314.3,145.5z M362.8,143.6c2.1,1.2,4.2,2.4,6.3,3.6c-0.6,0.7-1,1.5-1.4,2.3c-2-1.2-4-2.3-6-3.4
		C362,145.3,362.4,144.4,362.8,143.6z M373.9,145.3c0.2-0.7,0.3-1.2,0.4-1.6c3.2,1.8,6.3,3.6,9.4,5.5c-0.3,0.4-0.6,0.9-0.9,1.4
		c-0.1,0.3-0.2,0.7-0.4,1c-1.8-1-3.5-2.1-5.3-3.1c-1.2-0.7-2.4-1.4-3.5-2C373.7,146.1,373.8,145.7,373.9,145.3z M301.4,95.3
		c0.4-0.9,0.8-1.8,1-2.6c2.8,1.5,5.5,3.1,8.2,4.6c-0.6,0.8-1.1,1.6-1.3,2.4C306.7,98.3,304.1,96.8,301.4,95.3z M305.3,104
		c-2-1.2-4-2.3-6-3.5c0.3-0.9,0.7-1.7,1-2.5c2.1,1.2,4.2,2.4,6.3,3.6C306.1,102.4,305.6,103.2,305.3,104z M289.6,128
		c2.1,1.2,4.2,2.4,6.3,3.6c-0.6,0.7-1,1.5-1.4,2.4c-2-1.2-4-2.3-5.9-3.5C288.8,129.7,289.2,128.8,289.6,128z M303.9,132.8
		c-1.2-0.7-2.3-1.4-3.5-2c0.2-0.3,0.3-0.6,0.4-1c0.2-0.7,0.3-1.2,0.4-1.7c3.2,1.8,6.3,3.7,9.4,5.5c-0.3,0.4-0.7,0.9-1,1.5
		c-0.1,0.3-0.2,0.6-0.4,0.9C307.4,134.9,305.7,133.9,303.9,132.8z M298.6,129.8c-2.6-1.5-5.3-3-8-4.5c0.4-0.9,0.8-1.8,1-2.6
		c2.8,1.5,5.5,3.1,8.2,4.6C299.2,128.2,298.8,129,298.6,129.8z M297.3,165.5l-0.8-0.4l-8.8,0.6l2.1-4.5l-4.5-2.6
		c-3.1,5.8-6.8,11.3-11.2,16.4l19.9,11.5c1.2,0.7,1.8,1.8,1.6,3.2c-0.2,1.1-0.7,2.2-1.7,3.2l9.3,1.1l-3.1,2.8l1.5,0.9
		c1.1-1.2,2.2-2.3,3.2-3.5h0.3c0.9-1,1.8-2.1,2.6-3.2l-2.7-1.5l6-3.1l0.3-0.2l0,0.4l0.7,0.4c-0.2,0.3-0.4,0.6-0.6,0.8l0.3,5.7
		l-3.2-1.9c-1.9,2.3-3.8,4.6-5.9,6.8l7,4l3.1-3.1l4.4,7.4l0.2,0.1c-0.3,0.2-0.5,0.5-0.7,0.8l-1.3-0.7l-10-0.3l3.5-3.5l-1.3-0.7v0
		l-5.9-3.4c-3.8,3.8-7.9,7.4-12.4,10.9c-0.3-0.2-0.7-0.4-1-0.5c4.6-3.4,8.7-7.1,12.5-10.9l-1.5-0.9l-3.6,3.2l-2.2-6.5l0,0h0
		l-0.5-0.3c-1.5,1.3-3.1,2.1-5,2.5c-1.9,0.4-3.4,0.3-4.6-0.4l-19.4-11.1l-2.2,5.9l-8.6-5l10.2-1.2l-3-1.7c-1.2-0.7-1.8-1.8-1.7-3.2
		c0.2-1.4,1-2.8,2.5-4v-0.1c1.4-1.3,3.1-2.1,5-2.5c1.9-0.4,3.5-0.3,4.7,0.4l2.2,1.2c4.4-5.2,8.2-10.8,11.4-16.8l0.2-0.5l5.3,3.1
		l1.8-3.9l5.7,8.1l0.4,0.5l-0.6,0L297.3,165.5z M244.9,211.7c-0.5,0.3-1,0.5-1.4,0.8l-6.6-3.8c0.2-0.2,0.4-0.3,0.7-0.5
		c0.4-0.4,0.7-0.7,1-1l7.1,4.1C245.4,211.5,245.2,211.6,244.9,211.7z M237.7,206.8c-0.5,0.2-1.2,0.6-2,1.2l-4.8-2.8l2-1.2
		L237.7,206.8z M241,214.8c0.3-0.3,0.6-0.5,0.8-0.8l4.8,2.8l-2.1,1.2l-4.3-2.5C240.4,215.3,240.7,215.1,241,214.8z M239.4,213.8
		c-0.3,0.3-0.6,0.5-0.8,0.8l-2.2-1.3c0.1-0.1,0.3-0.2,0.5-0.4c0.5-0.4,0.9-0.7,1.1-1.1l2.5,1.3C240,213.3,239.7,213.6,239.4,213.8z
		 M236.1,215.6l6.2,3.7l-2,1.2l-5.9-3.4c0.1-0.1,0.2-0.2,0.3-0.2C235.3,216.4,235.7,216,236.1,215.6z M245,213.3
		c0.8-0.5,1.5-0.9,2-1.2l3.9,2.2l-2,1.2L245,213.3z M268.2,231.6l7.9,4.5c-0.6,0.2-1.2,0.5-1.8,0.8c-0.2,0.1-0.3,0.2-0.4,0.3
		l-7.8-4.5L268.2,231.6z M272.5,229.2l4.8,2.8c-0.5,0.2-1.2,0.6-2,1.1l-4.9-2.8l2-1.2L272.5,229.2L272.5,229.2z M300.4,243l-1.5,0.9
		l-2,5.4l-3.6-2.1l-8.7,5c-0.2-0.3-0.4-0.6-0.6-0.8l8.3-4.8l-4-2.3l10.2-1.2l0.7-0.4C299.5,242.7,299.9,242.9,300.4,243z
		 M261.9,235.2l2-1.2l10.9,6.3c-0.3,0.1-0.5,0.3-0.8,0.5c-0.2,0.2-0.6,0.4-1.1,0.8L261.9,235.2z M277.2,233.4c0.4-0.4,0.7-0.7,1-0.9
		l7.2,4.1c-0.3,0.1-0.5,0.2-0.8,0.4c-0.5,0.3-1,0.5-1.4,0.8l-6.5-3.8C276.8,233.7,277,233.6,277.2,233.4z M279,239
		c-0.3,0.3-0.6,0.5-0.8,0.8l-2.2-1.3c0.1-0.1,0.3-0.2,0.5-0.4c0.5-0.4,0.9-0.7,1.1-1.1l2.5,1.3C279.6,238.5,279.3,238.8,279,239z
		 M280.6,240c0.3-0.3,0.6-0.5,0.8-0.8l4.8,2.8l-2.1,1.2l-4.3-2.5C280,240.5,280.3,240.3,280.6,240z M275.7,240.8l6.2,3.7l-2,1.2
		l-5.8-3.4c0.1-0.1,0.2-0.2,0.3-0.2C274.9,241.6,275.3,241.2,275.7,240.8z M284.6,238.5c0.8-0.5,1.5-0.9,2-1.2l3.9,2.2l-2,1.2
		L284.6,238.5z M322.7,227.8c1.2-0.9,2.4-1.9,3.5-2.8l-2.6-1.5l6.7-2.2l0.7-0.2l-0.1,0.6l0.4,0.2c-0.1,0.1-0.3,0.3-0.4,0.4l-0.6,5.2
		l-3.2-1.9c-1.1,0.9-2.2,1.8-3.4,2.7C323.5,228,323.1,227.9,322.7,227.8z M385.3,150.1c1.8,1,3.6,2.1,5.4,3.2
		c-0.3,0.8-0.6,1.7-1,2.6c-1.8-1.1-3.6-2.1-5.4-3.2c0.2-0.3,0.3-0.7,0.4-1.1C384.9,151,385.1,150.5,385.3,150.1z M333.2,184.4h7.2
		l-1.8,3.7l13.1,7.5l-0.2,0.4c-2.9,5.5-6.4,10.8-10.5,15.8l-0.9-0.5c4-4.8,7.4-9.9,10.3-15.3l-12.2-7l-2.1,4.3l-3.4-7.5l-0.7-1.5
		H333.2z M276.4,275.5l-3.8-2.2c0.8-0.5,1.5-0.9,2-1.2l3.9,2.2L276.4,275.5z M256.2,266.4l7.9,4.5c-0.6,0.2-1.2,0.5-1.8,0.8
		c-0.2,0.1-0.3,0.2-0.4,0.3l-7.8-4.5L256.2,266.4z M260.5,263.9l4.9,2.8c-0.5,0.2-1.2,0.6-2,1.2l-4.9-2.8L260.5,263.9z M266.2,267.2
		l7.2,4.1c-0.3,0.1-0.5,0.2-0.8,0.4c-0.5,0.3-1,0.5-1.4,0.8l-6.5-3.8c0.2-0.2,0.4-0.3,0.6-0.5C265.6,267.8,265.9,267.5,266.2,267.2z
		 M265.5,271.8l2.5,1.3c-0.3,0.2-0.6,0.4-1,0.7c-0.3,0.3-0.6,0.5-0.8,0.8l-2.2-1.3c0.1-0.1,0.3-0.2,0.5-0.4
		C264.9,272.5,265.2,272.2,265.5,271.8z M251.9,268.9l10.9,6.3c-0.3,0.1-0.5,0.3-0.8,0.5c-0.2,0.2-0.6,0.4-1.1,0.8l-11-6.5
		L251.9,268.9z M267.9,280.5l-5.8-3.4c0.1-0.1,0.2-0.2,0.3-0.2c0.6-0.5,1-0.9,1.3-1.2l6.2,3.7L267.9,280.5z M267.8,275.5
		c0.2-0.2,0.5-0.4,0.8-0.7c0.3-0.3,0.6-0.5,0.8-0.8l4.8,2.8l-2.1,1.2L267.8,275.5z"/>
	<path class="st28" d="M418.2,99.3v-3l-27.8-15.9v3L418.2,99.3z M425.6,101.4L425.6,101.4l-0.5,0.2l-0.2,0.1
		c-1.6,0.9-2.3,2.7-2.3,5.2c0,2.6,0.9,5.3,2.5,8.1h0c1.6,2.7,3.6,4.7,5.9,6c2.2,1.3,4.2,1.5,5.8,0.7l0,0.1c0.1,0,0.2-0.1,0.2-0.2
		c1.5-0.9,2.2-2.6,2.2-5.1c0-2.6-0.8-5.3-2.4-8c-1.6-2.7-3.6-4.7-5.8-6v-0.1C429,101,427.1,100.8,425.6,101.4z M418.4,110.6v-2.9
		l-17.2-9.8v3L418.4,110.6z M418.2,105.3v-3l-27.8-15.9v2.9L418.2,105.3z M403.6,120.7l-10,5.8v-11.5v-2.4v-4l-6.3-3.6
		c-2.3-1.3-3.4-3.2-3.4-5.9v-2.8V92V81.1v-2.6V69c0-1.3,0.3-2.1,0.9-2.4l0,0c0.6-0.3,1.4-0.1,2.5,0.5l53.3,30.8
		c2.3,1.3,3.4,3.2,3.4,5.9v30c0,1.3-0.3,2.1-0.8,2.4c0,0-0.1,0.1-0.2,0.1c-0.6,0.3-1.4,0.1-2.5-0.5l-31.6-18.2l-3.5,2L403.6,120.7z"
		/>
	<path class="st29" d="M447.9,119.9v8.8v3c0,0.1,0,0.2,0,0.2c0,1.1-0.3,1.8-0.8,2.1l0,0l0,0l-3.7,2.1c0.5-0.3,0.8-1.1,0.8-2.4v-30
		c0-2.6-1.1-4.6-3.4-5.9l-53.3-30.8c-1.1-0.7-1.9-0.8-2.5-0.5l3.8-2.1c0.6-0.3,1.4-0.2,2.5,0.5l53.3,30.8c2.3,1.3,3.4,3.3,3.4,5.9
		V116V119.9z"/>
	
		<linearGradient id="SVGID_8_" gradientUnits="userSpaceOnUse" x1="-2225.2439" y1="1122.532" x2="-2201.6331" y2="1122.532" gradientTransform="matrix(-0.4994 -0.8664 0.8664 -0.4994 -1646.6151 -1245.4062)">
		<stop  offset="0.4863" style="stop-color:#B80065"/>
		<stop  offset="0.5333" style="stop-color:#658000"/>
	</linearGradient>
	<path class="st30" d="M425.6,101.4c-0.2,0.1-0.3,0.1-0.5,0.2L425.6,101.4L425.6,101.4z"/>
	<path class="st31" d="M436.9,121.7c0.1,0,0.1-0.1,0.2-0.1l-5.9-9.9h0l0,0l0-9.2c2.3,1.3,4.2,3.3,5.8,6c1.6,2.8,2.4,5.4,2.4,8
		c0,2.5-0.7,4.2-2.2,5.1C437.1,121.7,437,121.7,436.9,121.7L436.9,121.7z M315.9,46.2c0,2.5-0.8,4.2-2.4,5.1
		c-0.1,0.1-0.3,0.1-0.5,0.2c-1.5,0.6-3.3,0.4-5.4-0.8v-5.4c0.9,0.5,1.6,0.5,2.2,0.2c0.6-0.4,0.9-1,0.9-1.9c0-0.1,0-0.2,0-0.4
		L315.9,46.2z"/>
	<path class="st32" d="M272.4,229.2c-3.5-0.4-6.6-1.3-9.4-2.8l0.5-1.4l-2.5,0.3c-3-2-4.5-4.4-4.5-7.2c0-3.1,1.9-5.8,5.8-8
		s8.5-3.3,13.9-3.3c4.6,0,8.7,0.8,12.2,2.4c0.3,0.2,0.7,0.3,1,0.5c0.2,0.1,0.4,0.2,0.7,0.3c3.9,2.2,5.8,4.9,5.8,8c0,3.1-2,5.7-5.8,8
		c-3.8,2.2-8.5,3.4-13.8,3.4c-1.3,0-2.5-0.1-3.7-0.2L272.4,229.2L272.4,229.2z M329.5,146.5c-1.8-0.7-3.3-2.1-4.6-4l-10.8-17.2
		l-0.3-0.5c-0.2-0.3-0.4-0.6-0.5-0.9l0.1,0l-0.4-0.5c-0.9-2.2,0.1-3.2,3-3.3l19.8,0.1c1.5,0,2.9,0.3,4.1,0.9
		c0.3,0.1,0.6,0.3,0.9,0.5c1.2,0.8,2.2,1.8,3.1,3.2l11.2,17.8c1.9,3.1,1.2,4.7-2.2,4.7l-19.9-0.1c-0.8,0-1.6-0.1-2.4-0.3l-0.2-1.1
		L329.5,146.5z"/>
	<path class="st33" d="M227.8,229l-1-0.2l0.2,0.7c-0.1,0.1-0.3,0.2-0.5,0.3h0c-1.7,1-3.5,1.6-5.4,1.9c-1.9,0.3-3.3,0.2-4.2-0.3
		l-18.4-10.5c-1-0.6-1.2-1.4-0.7-2.5c0.5-1,1.6-2,3.2-3h0c0,0,0.1,0,0.1-0.1c0.3-0.2,0.7-0.4,1-0.5c1.3-0.6,2.8-1.1,4.2-1.3
		c1.9-0.3,3.3-0.1,4.2,0.5l18.4,10.5c1,0.5,1.2,1.3,0.7,2.4C229.4,227.5,228.8,228.2,227.8,229z M322.2,165.2l0.9,0.5l11,6.3
		c2.2,1.3,2.8,3.1,1.9,5.5l-2.7,6.9H332l0.7,1.5l-2.6,6.9c-0.9,2.4-2.4,2.9-4.6,1.6l-13.3-7.6l-0.7-0.4l0-0.4l-0.3,0.2l-14.5-8.4
		c-2.2-1.3-2.9-3.1-2-5.5l2.7-6.9l0.2-0.5l0.6,0l-0.4-0.5l2.9-7.4c0.9-2.4,2.4-2.9,4.6-1.6L322.2,165.2z M322.7,227.8
		c0.4,0.1,0.8,0.3,1,0.5c0.7,0.4,1,1.1,1,1.9v10.3c0,1.8-1.5,2.7-4.7,2.7h-17.8c-0.8,0-1.4-0.1-2-0.2c-0.5-0.1-0.9-0.2-1.3-0.4
		c-0.9-0.4-1.3-1.2-1.3-2.1v-10.3c0-1.8,1.5-2.6,4.6-2.6h17.8C321.2,227.5,322.1,227.6,322.7,227.8z"/>
	<path class="st34" d="M325.1,47.2v11v4c0,1.2-0.2,2-0.8,2.2c-0.1,0-0.1,0.1-0.2,0.1l-3.1,1.8c0.4-0.4,0.5-1.1,0.5-2.1V36.4
		c0-2.4-1-4.2-3.2-5.4L269.2,2.6c-1-0.6-1.8-0.7-2.3-0.4l3.3-1.9c0.5-0.5,1.3-0.4,2.5,0.3L322,29c2.1,1.2,3.1,3,3.1,5.4v10.1V47.2z
		 M318.8,71.8v5.9l-3.5,2V64.1l3.1,1.9c0.1,0.1,0.3,0.1,0.4,0.2V71.8z"/>
	<path class="st35" d="M315.9,46.2l-5.1-2.9c0-0.9-0.3-1.8-0.9-2.6c-0.6-1-1.3-1.8-2.2-2.2v-6v0c2.3,1.3,4.2,3.2,5.9,5.9
		C315.1,41,315.9,43.7,315.9,46.2z"/>
	<path class="st36" d="M307.7,32.4v6c-0.9-0.5-1.6-0.6-2.2-0.2c-0.6,0.3-0.9,0.9-0.9,1.6l-5.1-2.8c0-2.5,0.8-4.2,2.4-5.1l0-0.1
		C303.4,30.9,305.4,31.1,307.7,32.4z"/>
</g>
</svg>
