<?xml version="1.0" encoding="utf-8"?>
<!-- Generator: Adobe Illustrator 18.1.1, SVG Export Plug-In . SVG Version: 6.00 Build 0)  -->
<svg version="1.1" id="Слой_1" xmlns="http://www.w3.org/2000/svg" xmlns:xlink="http://www.w3.org/1999/xlink" x="0px" y="0px"
	 viewBox="0 0 14 8.1" style="enable-background:new 0 0 14 8.1;" xml:space="preserve">
<style type="text/css">
	.st0{fill-rule:evenodd;clip-rule:evenodd;fill:#100F10;stroke:#201600;stroke-width:0.5669;stroke-miterlimit:22.9256;}
	.st1{fill:#E9ECEB;}
	.st2{fill:#E2E2E2;}
	.st3{fill-rule:evenodd;clip-rule:evenodd;fill:#FFFFFF;}
	.st4{fill:#FFFFFF;}
	.st5{fill:#FFFEFF;}
	.st6{fill:#ECECEC;}
	.st7{fill-rule:evenodd;clip-rule:evenodd;fill:#E61C21;}
	.st8{fill-rule:evenodd;clip-rule:evenodd;fill:#E2E2E2;}
	.st9{fill:#F3444E;}
	.st10{fill-rule:evenodd;clip-rule:evenodd;fill:#F3444E;}
	.st11{fill:#DC7D43;}
	.st12{fill:#201600;}
	.st13{fill:#D24A43;}
	.st14{fill:#B6B8BD;}
	.st15{fill-rule:evenodd;clip-rule:evenodd;fill:#FFFEFF;}
	.st16{fill:#E62A13;}
	.st17{fill-rule:evenodd;clip-rule:evenodd;fill:#E62A13;}
	.st18{fill:#F1444C;}
	.st19{fill-rule:evenodd;clip-rule:evenodd;fill:#FF0000;}
	.st20{fill-rule:evenodd;clip-rule:evenodd;fill:#5C768B;}
	.st21{fill:none;stroke:#D24A43;stroke-width:1.4173;stroke-miterlimit:22.9256;}
	.st22{fill-rule:evenodd;clip-rule:evenodd;fill:#D24A43;}
	.st23{fill-rule:evenodd;clip-rule:evenodd;fill:#E8444C;}
	.st24{fill:none;stroke:#C6C6C6;stroke-width:1.0001;stroke-miterlimit:22.9256;}
	.st25{fill:#E61C21;}
	.st26{fill-rule:evenodd;clip-rule:evenodd;fill:#E41C22;}
	.st27{fill:none;stroke:#F1444C;stroke-miterlimit:10;}
	.st28{fill:none;stroke:#F1444C;stroke-width:2.1099;stroke-miterlimit:10;}
	.st29{fill:none;stroke:#F1444C;stroke-width:5.6693;stroke-miterlimit:10;}
	.st30{fill:none;stroke:#F1444C;stroke-width:2.8347;stroke-miterlimit:10;}
	.st31{fill:none;stroke:#F1444C;stroke-width:1.9345;stroke-miterlimit:10;}
	.st32{fill:none;stroke:#F1444C;stroke-width:1.3761;stroke-miterlimit:10;}
	.st33{fill:none;stroke:#F1444C;stroke-width:2.6283;stroke-miterlimit:10;}
	.st34{fill:none;stroke:#F1444C;stroke-width:3.536;stroke-miterlimit:10;}
	.st35{fill:none;stroke:#F1444C;stroke-width:3.3797;stroke-miterlimit:10;}
	.st36{fill:none;stroke:#F1444C;stroke-width:2.9335;stroke-miterlimit:10;}
	.st37{fill:none;stroke:#F1444C;stroke-width:1.275;stroke-miterlimit:10;}
	.st38{fill:none;stroke:#F1444C;stroke-width:1.0997;stroke-miterlimit:10;}
	.st39{fill:none;stroke:#F1444C;stroke-width:1.9238;stroke-miterlimit:10;}
</style>
<path class="st4" d="M13.4,8.1H11c-0.3,0-0.6-0.1-0.8-0.3L8.6,6.4c0,0.1-0.1,0.3-0.1,0.5c0,0.1,0,0.3-0.1,0.4
	C8.4,7.8,8.1,8.1,7.7,8.1H6C5.7,8.1,5.5,8,5.2,7.9C4.1,7.4,1.5,5.7,0,1.2C0,1,0,0.8,0.1,0.6c0.1-0.2,0.3-0.2,0.5-0.2h2.3
	c0.2,0,0.4,0.1,0.5,0.3c0.5,1,1,2,1.7,2.8c0.2-0.6,0.4-1.6-0.2-2.4C4.8,1,4.7,0.9,4.8,0.7c0-0.2,0.2-0.3,0.3-0.4c1-0.4,2-0.4,2.9,0
	c0.3,0.1,0.5,0.4,0.5,0.8l0.2,2.8c0.7-0.3,1.2-1.7,1.7-2.9c0.1-0.3,0.4-0.5,0.8-0.5h2.1c0.2,0,0.4,0.1,0.5,0.2
	c0.1,0.1,0.2,0.3,0.1,0.5c-0.2,1.1-1.3,2.6-1.9,3.3c-0.1,0.1-0.1,0.2,0,0.3l1.9,2.3C14,7.2,14,7.5,13.9,7.7
	C13.8,7.9,13.6,8.1,13.4,8.1z M8.6,5.6c0.2,0,0.3,0.1,0.5,0.2l1.7,1.4c0.1,0.1,0.2,0.1,0.3,0.1h2.2l-1.8-2.1c-0.3-0.4-0.3-0.9,0-1.3
	c0.9-1.1,1.6-2.2,1.7-2.9h-2c0,0-0.1,0-0.1,0.1c-0.5,1.5-1.2,3.1-2.4,3.4l-0.1,0C8.2,4.6,7.9,4.3,7.9,4L7.7,1.1c0-0.1,0-0.1-0.1-0.1
	C7,0.6,6.3,0.6,5.6,0.9c0.8,1.2,0.3,2.6,0.1,3.2C5.5,4.5,5,4.5,4.8,4.2C4,3.3,3.4,2.3,2.8,1.1H0.8c1.4,4.1,3.8,5.7,4.7,6.1
	C5.7,7.3,5.8,7.3,6,7.3h1.6c0,0,0.1,0,0.1-0.1c0-0.2,0-0.3,0.1-0.4c0.1-0.5,0.1-0.8,0.3-1C8.2,5.7,8.4,5.6,8.6,5.6z"/>
</svg>
