<?xml version="1.0" encoding="utf-8"?>
<!-- Generator: Adobe Illustrator 23.0.3, SVG Export Plug-In . SVG Version: 6.00 Build 0)  -->
<svg version="1.1" xmlns="http://www.w3.org/2000/svg" xmlns:xlink="http://www.w3.org/1999/xlink" x="0px" y="0px"
	 viewBox="0 0 243 307" style="enable-background:new 0 0 243 307;" xml:space="preserve">
<style type="text/css">
	.st0{fill:#2158F4;}
	.st1{fill:#FFFFFF;}
	.st2{fill:#F1F7FD;}
</style>
<g id="Layer_2">
	<path class="st0" d="M237,307H6c-3.3,0-6-2.7-6-6V6c0-3.3,2.7-6,6-6h231c3.3,0,6,2.7,6,6v295C243,304.3,240.3,307,237,307z"/>
	<g>
		<circle class="st1" cx="13.8" cy="13" r="3"/>
		<circle class="st1" cx="28.3" cy="13" r="3"/>
		<circle class="st1" cx="42.7" cy="13" r="3"/>
	</g>
</g>
<g id="Layer_3">
	<path class="st2" d="M32.3,69.7c0-0.5,0.4-0.9,0.9-0.9h8.3c0.5,0,0.9,0.4,0.9,0.9v0.1H47v-0.1c0-0.5,0.4-0.9,0.9-0.9h8.3
		c0.5,0,0.9,0.4,0.9,0.9c0,0.5-0.4,0.9-0.9,0.9h-7.6c-0.3,0.6-0.9,1-1.7,1h-4.6c-0.7,0-1.4-0.4-1.7-1h-7.6
		C32.8,70.6,32.3,70.2,32.3,69.7z M26.8,71.4v-1.7c0-0.5,0.4-0.9,0.9-0.9h1.7V52.5c0-1.3,1-2.3,2.3-2.3h25.8c1.3,0,2.3,1,2.4,2.3
		c0,0,0,0.1,0,0.1v16.3h1.7c0.5,0,0.9,0.4,0.9,0.9v1.7c0,1.9-1.6,3.5-3.5,3.5H30.3C28.4,74.9,26.8,73.3,26.8,71.4z M28.7,71.4
		c0,0.9,0.8,1.7,1.7,1.7h28.9c0.9,0,1.7-0.8,1.7-1.7v-0.8h-1.7c-0.5,0-0.9-0.4-0.9-0.9V52.6c0-0.3-0.3-0.6-0.6-0.6H31.8
		c-0.3,0-0.5,0.3-0.5,0.5v17.2c0,0.5-0.4,0.9-0.9,0.9h-1.7V71.4z M41.3,64.2c0.2,0.2,0.4,0.3,0.7,0.3c0.3,0,0.5-0.1,0.7-0.3l2.2-2.2
		l2.2,2.2c0.2,0.2,0.4,0.3,0.7,0.3c0.3,0,0.5-0.1,0.7-0.3c0.4-0.4,0.4-0.9,0-1.3l-2.2-2.2l2.2-2.2c0.4-0.4,0.4-0.9,0-1.3
		c-0.4-0.4-0.9-0.4-1.3,0l-2.2,2.2l-2.2-2.2c-0.4-0.4-0.9-0.4-1.3,0c-0.4,0.4-0.4,0.9,0,1.3l2.2,2.2L41.4,63
		C41,63.3,41,63.9,41.3,64.2z"/>
	<path class="st2" d="M135.5,76.1c1.4,0,2.6-1.2,2.6-2.6v-22c0-1.4-1.2-2.6-2.6-2.6h-28.4c-1.4,0-2.6,1.2-2.6,2.6v22
		c0,1.4,1.2,2.6,2.6,2.6H135.5z M107.2,50.7h28.3c0.4,0,0.8,0.4,0.8,0.8v3.8h-29.9v-3.8C106.4,51.1,106.7,50.7,107.2,50.7z
		 M106.4,73.5V57.1h29.9v16.4c0,0.4-0.4,0.8-0.8,0.8h-28.4C106.7,74.3,106.4,74,106.4,73.5z M111.2,53c0-0.6,0.5-1.1,1.1-1.1
		s1.1,0.5,1.1,1.1c0,0.6-0.5,1.1-1.1,1.1S111.2,53.6,111.2,53z M114.8,53c0-0.6,0.5-1.1,1.1-1.1s1.1,0.5,1.1,1.1
		c0,0.6-0.5,1.1-1.1,1.1S114.8,53.6,114.8,53z M107.6,53c0-0.6,0.5-1.1,1.1-1.1c0.6,0,1.1,0.5,1.1,1.1c0,0.6-0.5,1.1-1.1,1.1
		C108.1,54.1,107.6,53.6,107.6,53z M117.7,72.6h7.3c1.1,0,2-0.9,2-2v-4c0-0.9-0.7-1.7-1.6-1.9v-1.6c0-2.2-1.8-4.1-4.1-4.1
		c-2.2,0-4.1,1.8-4.1,4.1v1.6c-0.9,0.2-1.6,1-1.6,1.9v4C115.7,71.7,116.6,72.6,117.7,72.6z M125.2,70.6c0,0.1-0.1,0.2-0.2,0.2h-7.3
		c-0.1,0-0.2-0.1-0.2-0.2v-4c0-0.1,0.1-0.2,0.2-0.2h7.3c0.1,0,0.2,0.1,0.2,0.2L125.2,70.6L125.2,70.6z M121.4,60.8
		c1.3,0,2.3,1,2.3,2.3v1.6h-4.6v-1.6C119.1,61.9,120.1,60.8,121.4,60.8z"/>
	<path class="st2" d="M211.1,46.8h-26.3c-2,0-3.6,1.6-3.6,3.6v18.9c0,2,1.6,3.6,3.6,3.6h26.3c2,0,3.6-1.6,3.6-3.6V50.4
		C214.7,48.4,213.1,46.8,211.1,46.8z M212.9,69.3c0,1-0.8,1.8-1.8,1.8h-26.3c-1,0-1.8-0.8-1.8-1.8v-1.7h27.4c0.5,0,0.9-0.4,0.9-0.9
		c0-0.5-0.4-0.9-0.9-0.9h-3.9c-0.1-1.5-0.9-2.5-2.1-2.8c-2.4-0.6-3.4-1.3-3.8-1.8c0.1-0.1,0.3-0.3,0.4-0.4c1.6-1.8,1.4-4.9,1.3-5.2
		c-0.2-3.3-2.5-4.5-4.4-4.5c0,0-0.1,0-0.1,0c0,0,0,0-0.1,0c-1.9,0-4.2,1.2-4.4,4.5c0,0.4-0.3,3.4,1.3,5.2c0.1,0.2,0.3,0.3,0.5,0.5
		c-0.4,0.4-1.3,1.1-3.8,1.7c-1.2,0.3-2,1.3-2.1,2.8H183V50.4c0-1,0.8-1.8,1.8-1.8h26.3c1,0,1.8,0.8,1.8,1.8V69.3z M199.7,59.6
		c-0.4,0.5-1,0.7-1.8,0.7h0c-0.8,0-1.3-0.3-1.8-0.7c-0.9-1.1-1-3.2-0.9-3.9c0,0,0,0,0-0.1c0.1-2.5,1.8-2.8,2.6-2.8h0c0,0,0,0,0.1,0
		h0c0.8,0,2.5,0.3,2.6,2.8c0,0,0,0,0,0.1C200.7,56.5,200.6,58.6,199.7,59.6z M197,62.1c0.3,0.1,0.6,0.1,0.9,0.1h0l0,0
		c0.4,0,0.7,0,1-0.1c0.5,0.8,1.8,1.9,5,2.7c0.5,0.1,0.7,0.6,0.7,1h-13.4c0.1-0.5,0.3-0.9,0.7-1C195.2,64,196.5,62.9,197,62.1z
		 M204.1,77.3c0,0.5-0.4,0.9-0.9,0.9h-10.5c-0.5,0-0.9-0.4-0.9-0.9s0.4-0.9,0.9-0.9h4.4V75c0-0.5,0.4-0.9,0.9-0.9
		c0.5,0,0.9,0.4,0.9,0.9v1.4h4.4C203.7,76.4,204.1,76.8,204.1,77.3z"/>
	<path class="st2" d="M58.9,144.2c1.4,0,2.6-1.2,2.6-2.6v-22c0-1.4-1.2-2.6-2.6-2.6H30.5c-1.4,0-2.6,1.2-2.6,2.6v22
		c0,1.4,1.2,2.6,2.6,2.6H58.9z M30.5,118.9h28.3c0.4,0,0.8,0.4,0.8,0.8v3.8H29.8v-3.8C29.8,119.2,30.1,118.9,30.5,118.9z
		 M29.8,141.6v-16.5h29.9v16.4c0,0.4-0.4,0.8-0.8,0.8H30.5C30.1,142.4,29.8,142.1,29.8,141.6z M34.6,121.1c0-0.6,0.5-1.1,1.1-1.1
		s1.1,0.5,1.1,1.1c0,0.6-0.5,1.1-1.1,1.1S34.6,121.7,34.6,121.1z M38.2,121.1c0-0.6,0.5-1.1,1.1-1.1c0.6,0,1.1,0.5,1.1,1.1
		c0,0.6-0.5,1.1-1.1,1.1C38.7,122.2,38.2,121.7,38.2,121.1z M31,121.1c0-0.6,0.5-1.1,1.1-1.1c0.6,0,1.1,0.5,1.1,1.1
		c0,0.6-0.5,1.1-1.1,1.1C31.5,122.2,31,121.7,31,121.1z M51.9,130.3c1.7,1.4,2.7,2.9,2.7,2.9c0.2,0.3,0.2,0.7,0,1
		c-0.2,0.3-4.1,5.8-9.9,5.8c-0.5,0-0.9,0-1.4-0.1c-0.5-0.1-0.8-0.5-0.8-1c0.1-0.5,0.5-0.8,1-0.8c0.4,0.1,0.7,0.1,1.1,0.1
		c3.9,0,6.9-3.2,8-4.5c-0.4-0.5-1.1-1.3-2-2c-0.4-0.3-0.4-0.9-0.1-1.3C51,130,51.5,129.9,51.9,130.3z M39,138.1l-1.5,1.5
		c-0.4,0.4-0.4,0.9,0,1.3c0.2,0.2,0.4,0.3,0.7,0.3c0.3,0,0.5-0.1,0.7-0.3l8.3-8.3l0,0l0,0l4.9-5c0.4-0.4,0.4-0.9,0-1.3
		c-0.4-0.4-0.9-0.4-1.3,0l-2,2c-1.3-0.6-2.7-0.9-4-0.9c-5.7,0-9.7,5.6-9.9,5.8c-0.2,0.3-0.2,0.7,0,1C35,134.3,36.5,136.4,39,138.1z
		 M43.3,133.6c0-0.8,0.7-1.5,1.5-1.5c0.1,0,0.1,0,0.2,0l-1.6,1.6C43.3,133.7,43.3,133.6,43.3,133.6z M44.8,129.2
		c0.9,0,1.7,0.2,2.6,0.5l-1,1c-0.5-0.3-1-0.4-1.6-0.4c-1.8,0-3.3,1.5-3.3,3.3c0,0.5,0.1,1.1,0.4,1.6l-1.6,1.6
		c-1.6-1-2.9-2.3-3.5-3.1C37.9,132.4,41,129.2,44.8,129.2z"/>
	<path class="st2" d="M133.2,120.3c0-2.8-2.3-5.1-5.1-5.1h-19.6c-2.8,0-5.1,2.3-5.1,5.1c0,1.7,0.9,3.2,2.2,4.2
		c-1.3,0.9-2.2,2.4-2.2,4.2c0,1.7,0.9,3.2,2.2,4.1c-1.3,0.9-2.2,2.4-2.2,4.2c0,2.8,2.2,5,5,5H122c0.5,0,0.9-0.4,0.9-0.9
		c0-0.5-0.4-0.9-0.9-0.9h-13.5c-1.8,0-3.2-1.4-3.2-3.3c0-1.8,1.4-3.2,3.2-3.2h15c0.5,0,0.9-0.4,0.9-0.9c0-0.5-0.4-0.9-0.9-0.9h-15
		c-1.8,0-3.2-1.4-3.2-3.3c0-1.8,1.4-3.2,3.2-3.2l0,0h19.6l0,0c1.8,0,3.2,1.4,3.2,3.3c0,0.5,0.4,0.9,0.9,0.9c0.5,0,0.9-0.4,0.9-0.9
		c0-1.7-0.9-3.2-2.2-4.1C132.4,123.6,133.2,122.1,133.2,120.3z M128.2,123.6h-19.6c-1.8,0-3.3-1.4-3.3-3.3c0-1.8,1.4-3.3,3.3-3.3
		h19.6c1.8,0,3.3,1.4,3.3,3.3C131.4,122.1,130,123.6,128.2,123.6z M127.3,120.3c0,0.5-0.4,0.9-0.9,0.9h-8.3c-0.5,0-0.9-0.4-0.9-0.9
		c0-0.5,0.4-0.9,0.9-0.9h8.3C126.9,119.4,127.3,119.9,127.3,120.3z M112.2,120.3c0,0.5-0.4,0.9-0.9,0.9s-0.9-0.4-0.9-0.9
		c0-0.5,0.4-0.9,0.9-0.9S112.2,119.8,112.2,120.3z M126.4,127.7c0.5,0,0.9,0.4,0.9,0.9s-0.4,0.9-0.9,0.9h-8.3
		c-0.5,0-0.9-0.4-0.9-0.9s0.4-0.9,0.9-0.9H126.4z M111.2,127.7c0.5,0,0.9,0.4,0.9,0.9s-0.4,0.9-0.9,0.9s-0.9-0.4-0.9-0.9
		S110.7,127.7,111.2,127.7z M121.9,136c0.5,0,0.9,0.4,0.9,0.9c0,0.5-0.4,0.9-0.9,0.9h-3.8c-0.5,0-0.9-0.4-0.9-0.9
		c0-0.5,0.4-0.9,0.9-0.9H121.9z M111.2,136c0.5,0,0.9,0.4,0.9,0.9c0,0.5-0.4,0.9-0.9,0.9s-0.9-0.4-0.9-0.9
		C110.3,136.4,110.7,136,111.2,136z M131.7,130.9c-2,0-3.9,0.8-5.3,2.2c-1.4,1.4-2.2,3.3-2.2,5.3c0,2,0.8,3.9,2.2,5.3
		c1.4,1.4,3.3,2.2,5.3,2.2c2,0,3.9-0.8,5.3-2.2c2.9-2.9,2.9-7.7,0-10.7C135.6,131.6,133.7,130.9,131.7,130.9z M135.7,142.5
		c-1.1,1.1-2.5,1.7-4,1.7s-3-0.6-4-1.7s-1.7-2.5-1.7-4s0.6-3,1.7-4c1.1-1.1,2.5-1.7,4-1.7s3,0.6,4,1.7
		C138,136.6,138,140.2,135.7,142.5z M134.1,137.3l-1.1,1.1l1.1,1.1c0.4,0.4,0.4,0.9,0,1.3c-0.2,0.2-0.4,0.3-0.7,0.3
		c-0.3,0-0.5-0.1-0.7-0.3l-1.1-1.1l-1.1,1.1c-0.2,0.2-0.4,0.3-0.7,0.3s-0.5-0.1-0.7-0.3c-0.4-0.4-0.4-0.9,0-1.3l1.1-1.1l-1-1.1
		c-0.4-0.4-0.4-0.9,0-1.3c0.4-0.4,0.9-0.4,1.3,0l1.1,1.1l1.1-1.1c0.4-0.4,0.9-0.4,1.3,0C134.4,136.4,134.4,136.9,134.1,137.3z"/>
	<path class="st2" d="M197.6,114.7l-12.9,5.4c-0.3,0.1-0.5,0.5-0.5,0.8v12c0,7.6,6.2,13.8,13.8,13.8c7.6,0,13.8-6.2,13.8-13.8v-12
		c0-0.4-0.2-0.7-0.5-0.8l-13-5.4C198,114.5,197.8,114.5,197.6,114.7z M210,132.8c0,6.6-5.4,12-12,12s-12-5.4-12-12v-11.3l12-5l12,5
		V132.8z M193.9,127.9v1.6c-0.9,0.2-1.6,1-1.6,1.9v4c0,1.1,0.9,2,2,2h7.3c1.1,0,2-0.9,2-2v-4c0-0.9-0.7-1.7-1.6-1.9v-1.6
		c0-2.2-1.8-4.1-4.1-4.1C195.7,123.8,193.9,125.6,193.9,127.9z M201.8,135.4c0,0.1-0.1,0.2-0.2,0.2h-7.3c-0.1,0-0.2-0.1-0.2-0.2v-4
		c0-0.1,0.1-0.2,0.2-0.2h7.3c0.1,0,0.2,0.1,0.2,0.2L201.8,135.4L201.8,135.4z M200.2,127.9v1.6h-4.6v-1.6c0-1.3,1-2.3,2.3-2.3
		S200.2,126.6,200.2,127.9z"/>
	<path class="st2" d="M44.8,176.2c-1.5,0-2.9,0.3-4.3,0.9c-5.7,2.3-8.4,8.8-6,14.5c1.7,4.2,5.8,6.9,10.3,6.9c1.5,0,2.9-0.3,4.3-0.9
		c5.7-2.3,8.4-8.8,6-14.6C53.3,178.9,49.3,176.2,44.8,176.2z M35.9,190.3c-0.7-2-0.7-4,0-6h2.4c-0.2,1-0.3,2-0.3,3
		c0,0.9,0.1,2,0.4,3L35.9,190.3L35.9,190.3z M39.8,187.3c0-1,0.1-2.1,0.3-3h3.7v6h-3.6C40,189.3,39.8,188.3,39.8,187.3z M45.7,178.4
		c1.3,0.5,2.4,2.1,3.2,4h-3.2V178.4z M43.9,178.4v4h-3.2C41.4,180.5,42.6,178.9,43.9,178.4z M43.9,192.1v4c-1.2-0.5-2.3-2.1-3.1-4
		H43.9z M45.7,196.1v-4h3.1C48,194,46.9,195.6,45.7,196.1z M45.7,190.3v-6h3.7c0.2,1,0.3,2,0.3,3c0,1-0.1,2-0.4,3L45.7,190.3
		L45.7,190.3z M51.2,184.3h2.4c0.7,2,0.7,4.1,0,6h-2.5c0.3-1,0.4-2.1,0.4-3C51.5,186.3,51.4,185.3,51.2,184.3z M52.8,182.5h-2
		c-0.4-1.3-1-2.5-1.7-3.5C50.6,179.8,51.9,181,52.8,182.5z M40.5,179c-0.7,1-1.3,2.2-1.7,3.5h-2C37.6,181,38.9,179.8,40.5,179z
		 M36.7,192.1h2.1c0.5,1.3,1.1,2.6,1.9,3.6C39.1,195,37.7,193.7,36.7,192.1z M48.8,195.7c0.8-1,1.4-2.3,1.8-3.6h2.1
		C51.8,193.6,50.5,194.9,48.8,195.7z M30.2,210.2c1,0,1.9-0.4,2.6-1.2c0.3-0.4,0.5-0.8,0.7-1.2h8.2c0.4,1.4,1.7,2.4,3.2,2.4
		s2.8-1,3.2-2.4h8.2c0.4,1.4,1.7,2.4,3.2,2.4c1.8,0,3.3-1.5,3.3-3.3s-1.5-3.3-3.3-3.3c-1.5,0-2.8,1-3.2,2.4h-8.2
		c-0.3-1.1-1.2-2-2.3-2.3v-2.5c0-0.5-0.4-0.9-0.9-0.9c-0.5,0-0.9,0.4-0.9,0.9v2.5c-1.1,0.3-2,1.2-2.3,2.3h-8.2
		c-0.3-1.2-1.3-2.1-2.5-2.3s-2.4,0.2-3.2,1.2c-0.7,0.8-0.9,1.8-0.7,2.7c0.3,1.3,1.3,2.4,2.6,2.6C29.8,210.2,30,210.2,30.2,210.2z
		 M59.3,205.3c0.8,0,1.5,0.7,1.5,1.5c0,0.8-0.7,1.5-1.5,1.5c-0.8,0-1.4-0.6-1.5-1.4c0,0,0-0.1,0-0.1s0-0.1,0-0.1
		C57.9,206,58.5,205.3,59.3,205.3z M44.8,205.3c0.8,0,1.5,0.7,1.5,1.5c0,0.8-0.7,1.5-1.5,1.5c-0.8,0-1.5-0.7-1.5-1.5
		C43.2,206,43.9,205.3,44.8,205.3z M28.7,207.2c-0.1-0.5,0-0.9,0.3-1.3c0.3-0.4,0.7-0.5,1.2-0.5c0.1,0,0.2,0,0.3,0
		c0.6,0.1,1.1,0.6,1.2,1.2c0.1,0.5,0,0.9-0.3,1.3c-0.4,0.4-0.9,0.6-1.5,0.5C29.3,208.2,28.8,207.8,28.7,207.2z"/>
	<g>
		<path class="st2" d="M134.6,182.6l-12.9-5.4c-0.2-0.1-0.5-0.1-0.7,0l-12.9,5.4c-0.3,0.1-0.5,0.5-0.5,0.8v12
			c0,7.6,6.2,13.8,13.8,13.8c7.6,0,13.8-6.2,13.8-13.8v-12C135.2,183.1,134.9,182.7,134.6,182.6z M133.3,195.4c0,6.6-5.4,12-12,12
			c-6.6,0-12-5.4-12-12V184l12-5l12,5V195.4z M124.3,189h-5.9c-1.1,0-2.1,0.8-2.3,1.8h-0.7c-0.2,0-0.4-0.1-0.4-0.4v-1.8
			c0-0.5-0.4-0.9-0.9-0.9c-0.5,0-0.9,0.4-0.9,0.9v1.8c0,1.2,1,2.2,2.2,2.2h0.6v0.4h-4.1c-0.5,0-0.9,0.4-0.9,0.9
			c0,0.5,0.4,0.9,0.9,0.9h4.1v0.1c0,0.1,0,0.2,0,0.3h-0.7c-1.2,0-2.2,1-2.2,2.2v1.8c0,0.5,0.4,0.9,0.9,0.9c0.5,0,0.9-0.4,0.9-0.9
			v-1.8c0-0.2,0.1-0.4,0.4-0.4h1c0.8,2,2.7,3.3,5,3.3c2.2,0,4.2-1.4,5-3.3h1c0.2,0,0.4,0.1,0.4,0.4v1.8c0,0.5,0.4,0.9,0.9,0.9
			c0.5,0,0.9-0.4,0.9-0.9v-1.8c0-1.2-1-2.2-2.2-2.2h-0.6c0-0.1,0-0.2,0-0.3v-0.1h4.1c0.5,0,0.9-0.4,0.9-0.9c0-0.5-0.4-0.9-0.9-0.9
			h-4.1v-0.4h0.6c1.2,0,2.2-1,2.2-2.2v-1.8c0-0.5-0.4-0.9-0.9-0.9c-0.5,0-0.9,0.4-0.9,0.9v1.8c0,0.2-0.1,0.4-0.4,0.4h-0.7
			C126.4,189.7,125.4,189,124.3,189z M117.7,194.9v-3.5c0-0.4,0.3-0.7,0.7-0.7h2.1v7.6C118.9,198,117.7,196.6,117.7,194.9z
			 M122.2,198.4v-7.6h2.1c0.4,0,0.7,0.3,0.7,0.7v3.5C124.9,196.6,123.8,198,122.2,198.4z M121.3,184.4c2,0,3.6,1.6,3.6,3.6
			c0,0.5-0.4,0.9-0.9,0.9c-0.5,0-0.9-0.4-0.9-0.9c0-1-0.8-1.8-1.8-1.8s-1.8,0.8-1.8,1.8c0,0.5-0.4,0.9-0.9,0.9s-0.9-0.4-0.9-0.9
			C117.7,186,119.3,184.4,121.3,184.4z"/>
	</g>
	<path class="st2" d="M183.2,189.2h5.1v1.3h-1.5c-0.5,0-0.9,0.4-0.9,0.9s0.4,0.9,0.9,0.9h4.8c0.5,0,0.9-0.4,0.9-0.9
		s-0.4-0.9-0.9-0.9h-1.5v-1.3h5.1c1.2,0,2.1-1,2.1-2.1v-8.6c0-1.2-1-2.1-2.1-2.1h-11.9c-1.2,0-2.1,1-2.1,2.1v8.6
		C181,188.3,182,189.2,183.2,189.2z M182.8,178.5c0-0.2,0.1-0.3,0.3-0.3H195c0.2,0,0.3,0.1,0.3,0.3v8.6c0,0.2-0.1,0.3-0.3,0.3h-11.9
		c-0.2,0-0.3-0.1-0.3-0.3V178.5z M200.8,206.9h5.1v1.3h-1.5c-0.5,0-0.9,0.4-0.9,0.9c0,0.5,0.4,0.9,0.9,0.9h4.8
		c0.5,0,0.9-0.4,0.9-0.9c0-0.5-0.4-0.9-0.9-0.9h-1.5v-1.3h5.1c1.2,0,2.1-1,2.1-2.1v-8.6c0-1.2-1-2.1-2.1-2.1h-11.9
		c-1.2,0-2.1,1-2.1,2.1v8.6C198.7,205.9,199.6,206.9,200.8,206.9z M200.5,196.2c0-0.2,0.1-0.3,0.3-0.3h11.9c0.2,0,0.3,0.1,0.3,0.3
		v8.6c0,0.2-0.1,0.3-0.3,0.3h-11.9c-0.2,0-0.3-0.1-0.3-0.3V196.2z M199.3,182.8c0-0.5,0.4-0.9,0.9-0.9h6.5c0.5,0,0.9,0.4,0.9,0.9
		v6.6l0.6-0.6c0.4-0.4,0.9-0.4,1.3,0c0.4,0.4,0.4,0.9,0,1.3l-2.2,2.2c-0.2,0.2-0.4,0.3-0.7,0.3s-0.5-0.1-0.7-0.3l-2.2-2.2
		c-0.4-0.4-0.4-0.9,0-1.3c0.4-0.4,0.9-0.4,1.3,0l0.6,0.6v-5.7h-5.6C199.7,183.7,199.3,183.3,199.3,182.8z M190,197.3v5.7h5.6
		c0.5,0,0.9,0.4,0.9,0.9s-0.4,0.9-0.9,0.9h-6.5c-0.5,0-0.9-0.4-0.9-0.9v-6.6l-0.6,0.6c-0.4,0.4-0.9,0.4-1.3,0
		c-0.4-0.4-0.4-0.9,0-1.3l2.2-2.2c0.4-0.4,0.9-0.4,1.3,0l2.2,2.2c0.4,0.4,0.4,0.9,0,1.3c-0.2,0.2-0.4,0.3-0.7,0.3s-0.5-0.1-0.7-0.3
		L190,197.3z"/>
	<path class="st2" d="M48.2,254.5c0.4,0.4,0.4,0.9,0,1.3l-5.3,5.3c-0.2,0.2-0.4,0.3-0.7,0.3l0,0c-0.3,0-0.5-0.1-0.7-0.3l-2.2-2.2
		c-0.4-0.4-0.4-0.9,0-1.3c0.4-0.4,0.9-0.4,1.3,0l1.6,1.6l4.7-4.7C47.3,254.1,47.8,254.1,48.2,254.5z M43.8,273.8
		c-7.6,0-13.8-6.2-13.8-13.8v-12c0-0.4,0.2-0.7,0.5-0.8l12.9-5.4c0.2-0.1,0.5-0.1,0.7,0l12.9,5.4c0.3,0.1,0.5,0.5,0.5,0.8v12
		C57.6,267.6,51.4,273.8,43.8,273.8z M55.8,260v-11.3l-12-5l-12,5V260c0,6.6,5.4,12,12,12S55.8,266.6,55.8,260z"/>
	<path class="st2" d="M108,265c0-0.5,0.4-0.9,0.9-0.9h8.3c0.5,0,0.9,0.4,0.9,0.9v0.1h4.6V265c0-0.5,0.4-0.9,0.9-0.9h8.3
		c0.5,0,0.9,0.4,0.9,0.9s-0.4,0.9-0.9,0.9h-7.6c-0.3,0.6-0.9,1-1.7,1h-4.6c-0.7,0-1.4-0.4-1.7-1h-7.6C108.4,265.9,108,265.5,108,265
		z M102.5,266.7V265c0-0.5,0.4-0.9,0.9-0.9h1.7v-16.3c0-1.3,1-2.3,2.3-2.3h25.8c1.3,0,2.3,1,2.4,2.3c0,0,0,0.1,0,0.1v16.3h1.7
		c0.5,0,0.9,0.4,0.9,0.9v1.7c0,1.9-1.6,3.5-3.5,3.5h-28.9C104,270.1,102.5,268.6,102.5,266.7z M104.3,266.7c0,0.9,0.8,1.7,1.7,1.7
		h28.9c0.9,0,1.7-0.8,1.7-1.7v-0.8h-1.7c-0.5,0-0.9-0.4-0.9-0.9v-17.1c0-0.3-0.3-0.6-0.6-0.6h-25.9c-0.3,0-0.5,0.3-0.5,0.5V265
		c0,0.5-0.4,0.9-0.9,0.9h-1.7V266.7z M116.2,258.3c-0.3-0.4-0.8-0.6-1.2-0.3c-0.4,0.3-0.6,0.8-0.3,1.2c1.1,1.9,3.3,3.1,5.7,3.1
		c2.4,0,4.6-1.2,5.7-3.1c0.3-0.4,0.1-1-0.3-1.2c-0.4-0.3-1-0.1-1.2,0.3c-0.8,1.3-2.4,2.2-4.2,2.2C118.6,260.5,117,259.6,116.2,258.3
		z M113.6,251.6l2.5,1.1l-2.5,1.5c-0.4,0.3-0.6,0.8-0.3,1.2c0.2,0.3,0.5,0.4,0.8,0.4c0.1,0,0.3,0,0.5-0.1l4-2.4
		c0.3-0.2,0.5-0.5,0.4-0.8c0-0.3-0.2-0.6-0.5-0.8l-4.1-1.8c-0.5-0.2-1,0-1.2,0.5C112.9,250.9,113.2,251.4,113.6,251.6z M122.1,253.3
		l4,2.4c0.1,0.1,0.3,0.1,0.5,0.1c0.3,0,0.6-0.1,0.8-0.4c0.3-0.4,0.1-1-0.3-1.2l-2.5-1.5l2.5-1.1c0.5-0.2,0.7-0.7,0.5-1.2
		c-0.2-0.5-0.7-0.7-1.2-0.5l-4.1,1.8c-0.3,0.1-0.5,0.4-0.5,0.8C121.7,252.9,121.9,253.2,122.1,253.3z"/>
	<path class="st2" d="M211.8,265.3v-5c0-2.2-1.8-3.9-3.9-3.9h-22c-2.2,0-3.9,1.8-3.9,3.9v5c0,2.2,1.8,3.9,3.9,3.9h6.5l-2.7,4.1
		c-0.3,0.4-0.2,1,0.3,1.3c0.1,0.1,0.3,0.1,0.5,0.1c0.3,0,0.6-0.1,0.8-0.4l3.5-5.1h4.7l3.5,5.1c0.2,0.3,0.5,0.4,0.8,0.4
		c0.2,0,0.4,0,0.5-0.1c0.4-0.3,0.5-0.8,0.3-1.3l-2.8-4.1h6.3C210.1,269.3,211.8,267.5,211.8,265.3z M183.9,265.3v-5
		c0-1.2,0.9-2.1,2.1-2.1h21.9c1.2,0,2.1,0.9,2.1,2.1v5c0,1.2-0.9,2.1-2.1,2.1h-8l0,0h-5.7l0,0H186
		C184.8,267.5,183.9,266.5,183.9,265.3z M201.8,249.4c-1.4-1-3-1.5-4.8-1.5s-3.4,0.5-4.8,1.5c-0.1,0.1-0.3,0.2-0.5,0.2
		c-0.3,0-0.6-0.1-0.7-0.4c-0.3-0.4-0.2-1,0.2-1.3c1.7-1.2,3.7-1.8,5.8-1.8s4.1,0.7,5.8,1.8c0.4,0.3,0.5,0.9,0.2,1.3
		C202.8,249.6,202.2,249.7,201.8,249.4z M199.6,252.2c0.4,0.3,0.5,0.9,0.2,1.3c-0.2,0.3-0.5,0.4-0.7,0.4c-0.2,0-0.4,0-0.5-0.2
		c-0.9-0.7-2.2-0.7-3.1,0c-0.4,0.3-1,0.2-1.3-0.2c-0.3-0.4-0.2-1,0.2-1.3c0.8-0.5,1.7-0.8,2.6-0.8
		C198,251.3,198.9,251.6,199.6,252.2z M205.6,245.3c-2.5-1.8-5.4-2.7-8.5-2.7c-3.1,0-6,0.9-8.5,2.7c-0.4,0.3-1,0.2-1.3-0.2
		c-0.3-0.4-0.2-1,0.2-1.3c2.8-2,6.1-3,9.5-3s6.8,1,9.5,3c0.4,0.3,0.5,0.9,0.2,1.3c-0.2,0.3-0.5,0.4-0.7,0.4
		C205.9,245.5,205.7,245.4,205.6,245.3z M195.9,262.5c0.1-0.4,0.5-0.6,0.9-0.6h8.3c0.5,0,0.9,0.4,1,0.8c0,0.5-0.4,1-0.9,1h-8.4
		C196.2,263.7,195.7,263.2,195.9,262.5z M191,262.8c0,0.7-0.5,1.2-1.2,1.2c-0.6,0-1.1-0.5-1.1-1.1c0-0.7,0.5-1.2,1.2-1.2
		C190.5,261.7,191,262.2,191,262.8z"/>
</g>
</svg>
