<?xml version="1.0" encoding="utf-8"?>
<!-- Generator: Adobe Illustrator 23.0.3, SVG Export Plug-In . SVG Version: 6.00 Build 0)  -->
<svg version="1.1" id="Layer_1" xmlns="http://www.w3.org/2000/svg" xmlns:xlink="http://www.w3.org/1999/xlink" x="0px" y="0px"
	 viewBox="0 0 2787.3 1866.9" style="enable-background:new 0 0 2787.3 1866.9;" xml:space="preserve">
<style type="text/css">
	.st0{opacity:0.8;}
	.st1{fill:#F3E0CB;}
	.st2{opacity:0.18;fill:#D6AA9B;}
	.st3{fill:#F69A91;}
	.st4{fill:#8B6C3D;}
	.st5{fill:#2C243C;}
	.st6{fill:#C18972;}
	.st7{fill:#5C403F;}
	.st8{opacity:0.5;fill:#F8E8D5;}
	.st9{fill:#514C86;}
	.st10{fill:#565C98;}
	.st11{fill:#ABAB5B;}
	.st12{fill:#789BA4;}
	.st13{fill:#BDBF5B;}
	.st14{fill:#FFFFFF;}
	.st15{fill:#85A0FE;}
</style>
<g class="st0">
	<path class="st1" d="M2700.4,1109.2c-7-14.8-17.4-27.2-26.8-40.2c-10.9-15-19.6-31.5-25-49.8c-3.8-12.9-6.5-26.1-8-39.5
		c-0.6-4.7-1-9.5-1.2-14.3c-0.9-16.8,0.1-33.7,3.2-50.2c9.6-51.5-3.8-45.7-18.4-45.3c-0.4-0.1-0.9-0.2-1.4-0.3
		c-21.9-3.1-43.9-5.8-65.9-8c-5-0.5-9.9-1-14.9-1.4c-69.1-6.3-138.4-8.1-207.7-5.6c-5,0.2-10,0.4-15,0.6
		c-51.8,2.4-103.6,7.2-155.1,14.4c-45.2,6.4-89.9,15-134.3,25.1c-4.9,1.1-9.7,2.2-14.6,3.4c-26.1,6.1-52.1,12.7-78.1,19.5
		c-56.4,14.8-112.8,28.7-170.3,34.5c-5,0.5-10,0.9-14.9,1.3c-13.5,1-27,1.5-40.6,1.5c-44.1-0.2-87.8-4.9-131.1-11.9
		c-4.9-0.8-9.9-1.6-14.8-2.5c-78.3-13.6-155.9-34-234.2-48c-4.9-0.9-9.8-1.7-14.7-2.6c-13.1-2.2-26.3-4.2-39.5-5.9
		c-75.2-9.9-149.6-7.7-224.6,2.2c-7.8,1-15.5,2.1-23.3,3.2c-5.4,0.8-10.9,1.5-16.3,2.3c-64.9,9.5-129.5,20.5-194.6,28.2
		c-21.9,2.6-43.9,4.9-65.8,7c-5.2,0.5-10.5,1-15.7,1.5c-102.4,9.3-205.2,13.7-308,13.1c-6,0-12-0.1-18-0.1
		c-21.2-0.2-42.4-0.6-63.5-1.3c-19.9-0.6-39.8-1.4-59.6-2.3c-12.9-0.6-15.9,16.9-8.1,24.1c1.2,16.1,0,31.9-3,47.3
		c-1,5.4-2.3,10.7-3.7,16c-10.8,39.7-31.7,77.2-48.9,112.9c-14.1,29.2-27.6,59.4-35.2,91.6c-2.6,11.2-4.3,22.4-5.2,33.7
		c-0.4,4.9-0.7,9.8-0.8,14.7c-0.7,21.3,0.7,42.7,2.4,64.3c2.9,38.7,2.7,75.3-8.6,112.4c-5.4,17.8-12.5,34.9-20.4,51.6
		c-2.7,5.7-5.5,11.4-8.3,17c-2.8,5.6-5.7,11.2-8.6,16.7c-28.6,54.5-61.8,109.3-70.7,172.6c-4,28.1-6.8,70.1,23.9,81.5
		c25.9,9.7,52.8-8.7,75-21c7-3.9,14.1-7.4,21.4-10.6c5.9-2.6,11.9-4.9,17.9-7.1c53.2-18.9,111-20.9,166.6-15.8
		c53.6,4.8,106.3,16.7,159.2,27.7c4.9,1,9.8,2,14.7,3c16.8,3.4,33.6,6.7,50.5,9.6c76.2,13,151.9,15,227.1-5.7
		c29.7-8.2,58.7-18.8,87.5-30.1c4.9-1.9,9.7-3.8,14.6-5.8c35.5-14.2,70.7-29,106.8-41.2c62.4-21.3,126.7-31.9,191.7-34.4
		c5.1-0.2,10.2-0.4,15.3-0.5c4.8-0.1,9.5-0.2,14.3-0.2c73.3-0.2,146,7.8,218.6,17.5c4.9,0.7,9.9,1.3,14.8,2
		c72.7,9.9,145.3,21.2,218.2,27.2c11.7,1,23.3,1.7,35,2.3c5.1,0.2,10.1,0.5,15.2,0.7c58.7,2.2,117-0.3,175.8-6.8
		c60.1-6.7,120.2-15.6,180.6-17.2c5.1-0.1,10.2-0.2,15.3-0.2c13.2-0.1,26.5,0.2,39.7,1c64.7,3.9,128.1,18.7,191.5,32.6
		c5.1,1.1,10.2,2.2,15.3,3.3c6.7,1.4,13.4,2.8,20,4.2c37.5,7.7,75.2,14.6,113.3,17.9c9.4,0.8,18.8,1.5,28.3,1.8c5,0.2,10,0.3,15,0.4
		c3.3,0,6.5,0,9.8,0c16-0.1,33.3-0.1,47.7-8.8c27.4-16.5,34.2-61.4,38.7-91.8c5.4-36.7,5.5-73.9,4.2-110.9
		c-0.5-14.4-1.3-28.9-2-43.5c-0.2-4.8-0.5-9.7-0.7-14.6c-2.6-57-3.3-114.7,14.1-168.9c9.3-29.1,25-59.6,36-90.7
		c2-5.6,3.8-11.1,5.4-16.7C2712.9,1172,2715.3,1140.5,2700.4,1109.2z"/>
	<path class="st2" d="M2698.7,1219.7c2-5.6,3.8-11.1,5.4-16.7c-51.9,13.8-104.6,24.6-157.8,32.8c0.9-67.5,2.3-135.1,4.3-202.6
		c0.4-13.3,0.8-26.6,1.3-39.8c29.5-5.2,59.1-9.9,88.8-13.7c-0.6-4.7-1-9.5-1.2-14.3c-29.1,3.7-58.1,8.3-87.1,13.4
		c1.3-39.1,2.9-78.1,4.6-117.1c-5-0.5-9.9-1-14.9-1.4c-1.8,40.4-3.4,80.8-4.7,121.2c-64.1,11.6-128,25.2-192.1,36.8
		c-1-54.7-3.9-109.4-10.9-163.7c-5,0.2-10,0.4-15,0.6c7.2,55,10,110.3,11,165.7c-7.6,1.4-15.3,2.7-22.9,3.9
		c-83.8,13.9-168.2,21.2-252.8,24.5c-6.3-51.8-14.2-103.5-24.7-154.7c-4.9,1.1-9.7,2.2-14.6,3.4c8.8,42.9,15.8,86.1,21.5,129.4
		c1,7.5,1.9,15,2.9,22.4c-89.6,3-179.4,1.7-269.1-0.8l-2.6-0.1c-0.2-32.4-0.6-64.7-1.1-97c-5,0.5-10,0.9-14.9,1.3
		c0.5,31.8,0.9,63.6,1.1,95.3c-62.3-1.7-124.6-3.5-186.8-6.6c4.6-33.1,9.2-66.2,13.9-99.2c-4.9-0.8-9.9-1.6-14.8-2.5
		c-4.9,33.6-9.5,67.3-14,100.9c-77.9-4.2-155.7-10.6-232.9-21.9c4-42.4,8.2-84.7,12.8-127c-4.9-0.9-9.8-1.7-14.7-2.6
		c-4.6,42.4-8.8,84.9-12.8,127.3c-23.1-3.6-46.2-7.6-69.3-12.2c-75.3-14.9-150.3-32.4-226.6-41.8c4.9-18,9.9-35.8,15.2-53.7
		c2-6.8,4-13.5,6.1-20.3c-5.4,0.8-10.9,1.5-16.3,2.3c-7,23.2-13.7,46.5-20,69.8c-5-0.5-10-1-15-1.5c-77.6-7.1-155.6-5.4-233.3-0.9
		l7.8-32.3c-5.2,0.5-10.5,1-15.7,1.5c-2.5,10.6-5.1,21.2-7.6,31.8c-6.8,0.4-13.6,0.9-20.4,1.3c-103,7-207.3,13.3-310.1,27.1
		c9.2-16.2,19.3-31.9,30.2-47.1c-6,0-12-0.1-18-0.1c-11.1,16-21.3,32.6-30.5,49.7c-34.8,5-69.5,10.9-103.8,18.1
		c-1,5.4-2.3,10.7-3.7,16c32.8-6.9,65.8-12.7,99-17.5c-1.2,2.5-2.4,4.9-3.6,7.4c-28.8,60.7-46,126.2-49.9,193
		c-0.8,14.7-1.1,29.3-1,44c-44.6,3.5-89.2,7.3-133.8,11.3c-0.4,4.9-0.7,9.8-0.8,14.7c44.9-4.1,89.8-7.9,134.8-11.4
		c1,51.7,5.5,103.3,4.6,155c-0.3,19-1.5,38.1-3.9,57c-54.4,7.1-108.5,16.1-162.1,27.8c-2.7,5.7-5.5,11.4-8.3,17
		c55.5-12.4,111.7-22.1,168.1-29.6c-1.7,10.2-3.9,20.4-6.6,30.4c-9.5,35-26.1,65.9-46.8,95.7c-10.9,15.6-22.2,31-32.2,47.2
		c-9.6,15.5-17.7,31.7-24.8,48.5c-6.5,15.4-12,31.2-16.8,47.1c5.9-2.6,11.9-4.9,17.9-7.1c0.9-2.9,1.9-5.7,2.9-8.6
		c12.2-35.5,29.5-67.6,51.1-98.5c20.9-29.9,41.6-59.3,54.5-93.4c7.7-20.5,12.9-41.7,16.3-63.3c72.7-9.1,145.9-14.8,219.1-18.1
		c18.6-0.9,37.2-1.6,55.8-2.2c-2.3,9.4-4.5,18.9-6.8,28.3c-17.1,71.1-33.3,142.4-51.8,213.2c-4.8,18.2-9.8,36.4-15.3,54.4
		c4.9,1,9.8,2,14.7,3c2.7-8.8,5.3-17.6,7.8-26.5c19.4-69.2,34.8-139.5,51.6-209.4c5.1-21.2,10.2-42.4,15.3-63.6
		c96.6-2.9,193.2-3.1,289.9-2.5c-2.8,51.2-4,102.4-3.6,153.7c0.3,40.7,1.7,81.5,4.1,122.1c4.9-1.9,9.7-3.8,14.6-5.8
		c-1.6-29-2.8-58.1-3.3-87.2c-1.2-60.9-0.1-121.9,3.2-182.7c58.8,0.4,117.5,1,176.2,1.3c51.5,0.3,102.9,0.7,154.4,1.3
		c-7.2,53-15.6,105.8-25.5,158.3c-2.1,11.1-4.3,22.2-6.5,33.3c5.1-0.2,10.2-0.4,15.3-0.5c12.7-63.3,23-127.1,31.8-191
		c74,0.8,148,2,222,3.6c-5.1,42.5-9.9,85-14.1,127.7c-2.5,25.7-4.8,51.3-6.8,77c4.9,0.7,9.9,1.3,14.8,2c1.2-15.6,2.5-31.3,3.9-46.9
		c4.8-53.2,10.6-106.4,17.1-159.4c54.7,1.3,109.4,2.9,164.1,4.8c21.5,0.8,42.9,1.7,64.4,2.6c-1.9,34.1-3.2,68.1-3.3,102.3
		c-0.1,42.1,1.9,84.4,7.1,126.2c5.1,0.2,10.1,0.5,15.2,0.7c-4.5-34.7-6.6-69.7-7.1-104.7c-0.6-41.3,0.9-82.5,3.1-123.7
		c109.8,5.1,219.6,12.2,329.4,17.7c6.3,53,14.2,105.9,24.9,158.3c1.9,9.5,4,19,6.1,28.5c5.1-0.1,10.2-0.2,15.3-0.2
		c-0.7-3.1-1.4-6.1-2-9.2c-12.8-58.3-22-117.3-29.1-176.5c47.3,2.3,94.7,4.2,142.1,5.4c33.9,0.9,67.9,1.3,101.8,1.2
		c2.9,44.7,6.4,89.3,10.6,133.9c2.4,26.3,5.1,52.5,8,78.7c5.1,1.1,10.2,2.2,15.3,3.3c-7.9-71.9-14.2-143.9-18.9-216
		c58.6-0.4,117.1-2.2,175.5-5.6c0.7,70.3,2,140.7,4,211c0.3,11.5,0.7,23.1,1,34.7c5,0.2,10,0.3,15,0.4c-2.5-80.7-4.2-161.5-5-242.3
		c0-1.5,0-3.1,0-4.6c34.5-2.1,69-4.8,103.4-8.1c-0.2-4.8-0.5-9.7-0.7-14.6c-34.2,3.2-68.5,6-102.9,8.1
		c-0.7-78.9-0.6-157.8,0.3-236.7C2597.5,1243,2648.4,1232.8,2698.7,1219.7z M2237,1050c31.3-3.9,62.5-8.8,93.5-14.3
		c0.8,60.7-0.3,121.4-0.1,181.9c0.1,12.9,0.2,25.8,0.3,38.7c-10,0.4-20,0.8-30,1.1c-75.5,2.3-151,1.4-226.5-1.3
		c-5.1-64-10.4-128.1-17.9-191.9C2116.7,1061.9,2176.9,1057.5,2237,1050z M1768,1121.6c0.1-19.3,0.1-38.5,0.1-57.8
		c91.1,2.5,182.4,4,273.4,1c6.8,57.9,11.8,116.1,16.5,174.2c0.4,5.5,0.9,11.1,1.3,16.6c-94.2-3.6-188.3-9.6-282.3-15.2
		c-3.7-0.2-7.5-0.4-11.2-0.7C1767,1200.3,1767.7,1161,1768,1121.6z M1307.4,1139.6c3.2-35.2,6.4-70.5,9.7-105.7
		c41,6.3,82.2,11.4,123.8,14.9c36.1,3.1,72.2,5.4,108.4,7.2c-2.4,17.5-4.7,35-7.1,52.5c-5.4,39.8-10.8,79.6-16.2,119.4
		c-75.4-2.9-150.8-5-226.2-6.3C1302.4,1194.3,1304.9,1167,1307.4,1139.6z M1003.8,978c59.8,7.4,118.9,19.1,178.1,31.4
		c40.1,8.3,80.1,15.8,120.3,22.2c-2.2,23.1-4.3,46.2-6.4,69.3c-3.6,40.2-7.3,80.4-11.1,120.6c-21.9-0.3-43.7-0.6-65.6-0.8
		c-88.9-0.8-177.8-0.4-266.8,1.1c3.6-22.8,7.5-45.6,11.8-68.4C975.2,1094.5,988.4,1036,1003.8,978z M740.9,974
		c58.7-3.5,117.6-5.4,176.4-3.2c24,0.9,47.8,2.8,71.5,5.4c-12.7,48.3-24,96.9-33.7,145.9c-6.6,33.2-12.5,66.5-17.8,99.9
		c-86,1.6-172,4.3-258,8c11.4-47.4,22.8-94.7,34.2-142.1C722.6,1049.9,731.8,1012,740.9,974z M332,1243.2
		c0.4-67.2,12.2-133,37.7-195.5c5.9-14.5,12.5-28.7,19.7-42.6c86.6-11.9,174.2-18.3,261.2-24.9c24.9-1.9,49.8-3.7,74.7-5.3
		c-6.4,26.8-12.9,53.5-19.3,80.3c-14.1,58.5-28.1,116.9-42.2,175.4c-2.7,0.1-5.3,0.2-8,0.3c-108,4.9-216,11.6-323.8,19.8
		C332,1248.3,332,1245.8,332,1243.2z M609.4,1456.8c-92.2,2.9-184.6,8.6-276.3,19.9c0.9-7.1,1.5-14.2,2.1-21.3
		c4.7-63.3-1.9-126.6-3.1-189.9c88.4-6.8,177-12.5,265.6-17c20.8-1.1,41.7-2.1,62.5-3c-2.6,10.7-5.1,21.4-7.7,32.1
		C638.1,1337.3,623.8,1397,609.4,1456.8z M918.5,1370.8c-2.6,27.6-4.8,55.2-6.5,82.9c-95.8-0.4-191.6,0-287.2,2.7
		c11.6-48.4,23.3-96.7,34.9-145.1c5.3-22.2,10.7-44.3,16-66.5c86.4-3.8,172.8-6.4,259.3-8.1C928.3,1281.2,922.8,1326,918.5,1370.8z
		 M1269.9,1366.1c-3.4,30.2-7.1,60.4-11.1,90.5c-32.1-0.3-64.2-0.6-96.3-0.9c-78.4-0.6-156.9-1.5-235.4-1.9
		c1.1-17.6,2.3-35.2,3.8-52.8c4.6-55,11-109.9,19.3-164.6c70.3-1.2,140.6-1.7,210.9-1.5c40.8,0.1,81.6,0.5,122.4,1.1
		C1279.2,1279.4,1274.8,1322.8,1269.9,1366.1z M1495.6,1460.4c-73.9-1.7-147.9-2.8-221.8-3.7c2.3-17.4,4.5-34.7,6.6-52.1
		c6.8-56,12.6-112.2,18-168.3c75.2,1.2,150.5,3.3,225.7,6.1c-5.1,38.1-10.2,76.2-15.2,114.4
		C1504.3,1391.3,1499.8,1425.8,1495.6,1460.4z M1746.4,1340.2c-2.5,42.6-5.7,85.2-8.3,127.9c-1.7-0.1-3.5-0.2-5.2-0.2
		c-74.1-3-148.2-5.3-222.3-7.1c2.9-24,6-48,9.1-72c6.3-48.6,12.8-97.2,19.3-145.8c61.4,2.4,122.8,5.4,184.2,8.9
		c9.1,0.5,18.2,1,27.2,1.6C1749.4,1282.3,1748.1,1311.3,1746.4,1340.2z M1750.9,1238.8c-70-4-140-7.5-210-10.3
		c3.8-28.4,7.7-56.8,11.5-85.3c3.9-28.8,7.8-57.7,11.8-86.5c47.7,2.2,95.4,3.7,143.1,5.2c15.2,0.5,30.5,0.9,45.7,1.4
		c0,10.1,0,20.2,0,30.2C1753,1142,1752.4,1190.4,1750.9,1238.8z M1753.1,1468.7c2.1-34.7,4.6-69.4,6.8-104
		c2.3-36.8,4.1-73.5,5.4-110.3c98.3,5.8,196.7,12.3,295.1,16c4.8,60.1,9.4,120.1,15.6,180.1c1.2,12,2.5,24,3.9,36
		C1970.9,1480.8,1862,1473.5,1753.1,1468.7z M2301,1493.9c-68.7-0.8-137.4-3.4-206-6.8c-0.6-5.4-1.2-10.8-1.8-16.2
		c-7.3-66.6-12.5-133.4-17.8-200.1c57.1,2,114.3,3,171.5,2.3c28-0.3,56-1,84.1-2.2c1.2,74.4,4.1,148.8,8.7,223.2
		C2326.8,1494.1,2313.9,1494,2301,1493.9z M2530.9,1488.4c-58.7,3.5-117.5,5.3-176.3,5.7c-0.9-14.1-1.7-28.1-2.4-42.2
		c-3.2-60.5-5.3-121-6.2-181.6c62-3,123.8-8.5,185.2-17.2C2530.2,1331.4,2530.2,1409.9,2530.9,1488.4z M2531.3,1238
		c-61.4,8.9-123.4,14.5-185.5,17.6c-0.1-5.1-0.1-10.2-0.2-15.3c-0.6-69.1,0.8-138.2-0.2-207.3c63.9-11.6,127.5-25.3,191.4-36.9
		C2534.1,1076.7,2532.3,1157.4,2531.3,1238z"/>
	<path class="st1" d="M152.5,1854.6l-18.3-55.9c-0.1-0.4-0.3-0.8-0.5-1.1c1.4-3.7,1.6-7.9,0.4-12c-3-10.3-12.8-16.8-23.3-17.9
		c-2.6-0.3-4.4,0.9-5.4,2.5c-2.8-0.4-5.8,0.8-7,4.1c-3.4,9.3-5.7,20.8,0.4,29.5c1.4,2,3.1,3.5,4.9,4.7
		c-5.3,12.3-10.2,24.7-14.7,37.3c-2.7,7.5,9.4,11.1,12.1,3.5c4-11.1,8.3-22.1,12.9-32.9c0.8,14.8,1,29.6,0.3,44.4
		c-0.3,8,12.3,8.3,12.7,0.4c0.6-14.9,0.5-29.9-0.4-44.8c4.5,13.7,8.9,27.4,13.4,41.1C142.6,1865,155,1862.3,152.5,1854.6z"/>
	<path class="st1" d="M285,1785.7c-8.6-13-17.2-25.9-25.8-38.9c-0.3-0.5-0.7-0.9-1.1-1.3c1.4-3.1,2.2-6.4,2.2-9.6
		c0.1-11-9.3-21.2-21-16.8c-7.4,2.7-10.8,8.4-11.9,14.9c-2.1,0.3-4,1.6-4.9,4.1c-3,8.4,2.4,17,10.3,20.1
		c-4.3,15.1-8.5,30.2-12.8,45.4c-2.2,7.7,10,11.2,12.1,3.5c3.7-13,7.3-26,11-39c3.1,17.4,6.2,34.8,9.3,52.3c1.4,7.9,13.7,5,12.3-2.8
		l-9.6-54.1c6.2,9.4,12.4,18.8,18.6,28.1C278.2,1798.1,289.5,1792.4,285,1785.7z M242.9,1745.3c-1-0.3-2-0.3-3-0.2
		c-0.8-4.1-1.5-8.8,0.8-12.1c3.1-4.5,6.7-2.2,6.9,2.5C247.8,1739.1,246,1743.1,242.9,1745.3z"/>
	<path class="st1" d="M440.1,1809.4c-8.1-17.8-14.1-36.4-18-55.6c7.4-9.6,4.5-25.5-6.6-32.7c-9.7-6.3-18.5-3-23.8,4
		c-0.7,0.6-1.3,1.5-1.7,2.6c-3.5,6.1-4.7,14-2.4,20.8c0.7,2.4,1.8,4.6,3.6,6.7c0.5,0.6,1.1,1.2,1.7,1.7
		c-9.9,16.6-18.5,33.8-25.6,51.7c-3,7.4,9.2,10.9,12.1,3.5c6.2-15.4,13.5-30.2,21.8-44.6c-1.2,15.3-2.4,30.6-3.6,45.9
		c-0.6,7.9,12,8.3,12.7,0.4c1.1-13.9,2.2-27.7,3.3-41.6c3.9,14.7,9.1,29,15.4,42.9C432.2,1822.5,443.4,1816.7,440.1,1809.4z
		 M402.1,1732.1c-0.2,0.1-0.3,0.2-0.4,0.2c0.1-0.2,0.1-0.4,0.2-0.6c1.4-1.4,3.3-2,5.4-1c0,0,0,0,0,0
		C405.5,1730.9,403.8,1731.4,402.1,1732.1z M410.4,1743.5c0.3,0.2,0.6,0.6,0.9,1c0.5,0.9,0.5,1.8,0.2,2.6c-0.4,0.4-0.9,0.7-1.5,1
		C410.2,1746.6,410.4,1745,410.4,1743.5z"/>
	<path class="st1" d="M625.8,1825.9c-3.5-12.2-6.4-24.6-8.5-37.2c-0.2-1.2-0.6-2.1-1.2-2.8c2.3-3.7,3.2-8.2,1.7-12.8
		c-2-6.2-7.5-10.2-13.5-12.4c-5.6-2.1-13.9-3.5-19.2,0l-0.3,0c-2.2,0.2-4,2.3-4.6,4.3c-0.3,0.8-0.5,1.6-0.6,2.5
		c-3,6.8-1.6,15.7,2.7,21.8c-10.6,10.1-21.2,20.2-31.8,30.3c-5.8,5.6,2.7,14.7,8.6,9.1c9.7-9.2,19.4-18.4,29-27.7
		c-4.9,11.8-10.6,23.3-17,34.4c-4,6.9,6.7,13.5,10.7,6.6c8.7-15.1,16.2-30.8,22.2-47.1c0.4-0.2,0.8-0.4,1.3-0.6
		c0.1,0,0.2-0.1,0.3-0.1c2.1,11.6,4.7,23.1,8,34.4C615.7,1836.3,628,1833.6,625.8,1825.9z M593.3,1773c-0.6,0.2-1.2,0.4-1.6,0.7
		c0-0.5,0-0.9,0-1.4c0.1,0,0.2,0,0.3,0c1.3-0.1,2.2-0.5,3-1.1c0,0,0.1,0,0.1,0c1.9,0.3,3.8,0.6,5.5,1.3c0.4,0.2,0.9,0.4,1.3,0.6
		C599.3,1772.2,596.3,1772.1,593.3,1773z"/>
	<path class="st1" d="M755.9,1784.9c1.8-13.1-8.9-25.1-22.8-23.7c-15.7,1.6-18.4,17.6-17.3,30.2c0,0.2,0.1,0.4,0.1,0.5
		c-2.5-1.9-4-4.8-3.6-8.6c0.7-7.9-11.9-8.3-12.7-0.4c-0.9,10,5.9,17.8,14.7,21.7c-5,12.7-8.8,25.8-11.4,39.2
		c-1.5,7.7,10.6,11.4,12.1,3.5c1.5-7.9,3.5-15.6,5.9-23.3c-0.2,11.1-0.8,22.2-2,33.3c-0.8,7.9,11.8,8.3,12.7,0.4
		c1-10.1,1.7-20.2,1.9-30.3c2,8.9,4.7,17.7,8.1,26.4c2.9,7.4,14.1,1.6,11.2-5.8c-5.6-14.3-9.1-29.3-10.4-44.5
		C749.5,1799.8,754.7,1793.3,755.9,1784.9z M743.2,1784.4c-0.1,0.4-0.2,0.7-0.3,1c-0.6-1.3-1.6-2.3-3.1-2.9
		c-0.8-3.8-3.3-7.2-6.8-8.8C739.7,1771.2,744.4,1778.7,743.2,1784.4z"/>
	<path class="st1" d="M917.3,1791.9c-14.7-5.3-27-14.6-36.4-26.8c-0.1-0.1-0.1-0.1-0.2-0.2c3.5-6.4,4.9-14.2,4.9-21.5
		c0-7.3-9.8-8.3-12.4-2c-2.4,5.8-8.3,9-14.5,8.8c-1.9-0.1-4,0.9-5.2,2.4c-2.8-3-9.3-3.1-11.2,2c-4,10.6,4.1,20.9,14.4,22.9
		c-3.7,16-7.3,31.9-11,47.9c-1.8,7.7,10.4,11.3,12.1,3.5c3.2-14.1,6.5-28.3,9.7-42.4c2.1,13.9,6,27.4,11.7,40.4
		c3.2,7.3,14.4,1.5,11.2-5.8c-5.4-12.4-9-25.4-10.9-38.7c9.6,9.4,21.2,16.5,34,21.1C921.3,1806.5,924.9,1794.6,917.3,1791.9z"/>
	<path class="st1" d="M1063.6,1746c-14.7-9.9-27.8-22-38.5-35.9c3-9.3,0.1-20.4-8.8-27.1c-4.8-3.6-9.7,1.2-9.3,6
		c-0.6-0.6-1.1-1.2-1.7-1.8c-4-3.9-9.7-1.1-10.9,3c-2.6,0-5.1,1.2-7,3.8c-0.2,0.2-0.3,0.5-0.4,0.7c-3.3-3.4-10.8-2.2-11.1,3.9
		c-0.6,14.7,10.8,26.7,24.6,27.5v43.5c0,7.9,12.7,8.4,12.7,0.4v-38.6c7.3,10.2,14.6,20.3,21.8,30.5c4.6,6.5,15.9,0.8,11.2-5.8
		c-4.8-6.8-9.7-13.5-14.5-20.3c7.7,7.6,16.2,14.4,25.3,20.6C1063.6,1761,1070.3,1750.5,1063.6,1746z M1013.8,1703.2
		c-0.1,0-0.1,0-0.2,0.1c0-0.6,0-1.3-0.1-1.9c-0.2-1.8-0.7-3.6-1.5-5.2C1013.5,1698.3,1014.1,1700.8,1013.8,1703.2z"/>
	<path class="st1" d="M1185.4,1721.1c-8.6-13.8-14.7-28.7-18.2-44.5c5.9-9,7.4-21.4,5.6-31.5c-1.4-7.9-13.8-5-12.3,2.8
		c0.4,2.3,0.6,4.8,0.5,7.5c-1.3-3.9-4.2-7.4-8.6-8.2c-1.1-0.2-2.3-0.2-3.5,0.1c3.8-5.5-4-13.2-9.5-8c-3.5,3.3-5.8,7.7-6.6,12.3
		c-2,0.8-3.6,2.5-4,5.1c-1.2,7.7-1.7,16.3,2.4,23.2c0.3,0.5,0.6,1,1,1.5c-6.1,13.4-11.2,27.2-15.3,41.3c-2.2,7.7,9.9,11.2,12.1,3.5
		c3.7-12.9,8.3-25.6,13.8-37.9c0.2,0,0.4,0.1,0.6,0.1c-2.2,14.8-5,29.6-8.4,44.2c-1.8,7.7,10.3,11.3,12.1,3.5
		c3.9-16.4,7-33,9.3-49.7c0.1,0,0.1-0.1,0.2-0.1c3.8,14.3,9.7,28,17.7,40.7C1178.4,1733.7,1189.6,1727.9,1185.4,1721.1z"/>
	<path class="st1" d="M1331.4,1717.5c-4.6-15.1-7.9-30.5-9.9-46.2c5.4-8.2,7.5-18.1,8.2-27.9c0.5-8-12.1-8.3-12.7-0.4
		c-0.3,4-0.9,8.6-2.2,12.8c-1.9-4.2-5.4-7.7-10.7-9.2c-0.2,0-0.3-0.1-0.5-0.1c-0.3-1-0.7-2-1.1-3c-2.5-5.5-9.5-3.6-11.3,0.9
		c-1.6,0.6-3,1.8-3.6,3.9c0,0.1-0.1,0.3-0.1,0.4c-1.4,0.5-2.7,1.2-3.9,2.1c0.1-0.6,0.3-1.2,0.5-1.8c0.2-0.3,0.3-0.6,0.4-0.9
		c2.4-1.6,4-4.6,2.5-7.9c-0.1-0.2-0.2-0.4-0.2-0.5c-1.2-2.7-4.4-3.5-7-3.2c-5.5,0.7-7,6.2-8.1,10.6c-1.4,5.7-2.3,11.6-1.6,17.4
		c0.7,5.9,3.3,11.2,7.4,15.1c-5.5,10.8-12.8,20.6-21.7,29.1c-5.8,5.6,2.8,14.7,8.6,9.1c9.9-9.5,18-20.4,24.2-32.3
		c0.5,0.1,1.1,0.2,1.6,0.3c0,0,0.1,0,0.1,0c-2.6,13.1-4.4,26.4-5.2,39.8c-0.5,8,12.2,8.3,12.7,0.4c0.8-13.8,2.7-27.4,5.6-40.9
		c2.5-0.7,5-1.7,7.3-3c2,12.9,4.9,25.6,8.7,38.2C1321.4,1727.9,1333.8,1725.2,1331.4,1717.5z"/>
	<path class="st1" d="M1465.4,1743.7c-7.2-17.4-11.2-36-12-54.8c0-0.5-0.1-1-0.2-1.5c3.5-4.3,6.2-9.3,8.3-13.9
		c3.1-6.9-7.6-10.3-11.6-4.6c-1.6-4.2-5.2-7.7-10.3-8.8c-2-0.5-4-0.5-5.9-0.3c-1.9-2.9-6.6-3.3-9.5-1.1c-1.2-5.3-10.3-6.9-12.3-0.4
		c-3.1,9.8-2.8,22,3,30.3c-7.9,11.2-15.8,22.4-23.7,33.7c-4.6,6.6,6.1,13.1,10.7,6.6c7.6-10.8,15.2-21.6,22.7-32.3
		c0.3,0.1,0.6,0.2,0.9,0.3c-2.8,15.1-4.7,30.3-5.8,45.7c-0.5,8,12.1,8.3,12.7,0.4c1-15.2,3-30.2,5.8-45.1c1-0.2,2-0.6,3-1
		c1.6,18.1,5.9,35.6,12.9,52.6C1457.2,1756.9,1468.4,1751,1465.4,1743.7z"/>
	<path class="st1" d="M1591.9,1753.7c-7.9-18.1-15.8-36.1-23.8-54.2c0-0.1-0.1-0.1-0.1-0.2c3.9-6,5.6-13.3,6.7-20.4
		c1.2-7.9-11.5-8.2-12.7-0.4c-0.5,3.5-1.8,8.5-4.1,12.8c-0.8-2.9-2.6-5.4-5.4-7.2c-1.3-0.8-2.7-1.4-4.2-1.6c0.1-0.3,0.2-0.5,0.3-0.8
		c1.5-3.1,1.1-6.6-2-8.5c-2.6-1.6-7.3-1.1-8.7,2c-1.3,2.6-2,5.5-2.2,8.3c0-0.9,0-1.8,0-2.7c0.1-1.3,0.2-2.7,0.3-4
		c0-0.5,0.1-1,0.2-1.5c2.6-1.5,4.2-4.6,2.4-8c-0.1-0.2-0.2-0.4-0.3-0.6c-1.3-2.4-4.3-3.8-7-3.2c-9.8,2.4-8.8,16.9-7.8,24.6
		c0.8,6.3,3.5,12.6,8.1,17.1c-3.8,10.6-8.2,21.1-13.2,31.2c-3.5,7.1,7.2,13.7,10.7,6.6c5.1-10.4,9.7-21,13.7-31.9
		c0.4,0.1,0.7,0.1,1.1,0.2c-0.6,16.1,0.8,32.2,3.9,48c1.5,7.8,13.9,5,12.3-2.8c-3.1-15.7-4.2-31.5-3.4-47.4c0.5-0.3,1.1-0.5,1.6-0.8
		c7.5,17,14.9,34,22.4,51C1583.9,1766.8,1595.1,1761,1591.9,1753.7z"/>
	<path class="st1" d="M1720.4,1775.3c-4.6-17.5-8-35.2-10.4-53.1c9.6-7.4,13.6-20.9,7.4-32.8c-3.7-7.1-14.9-1.3-11.2,5.8
		c3,5.7,1.6,12.1-2.5,16.1c0.1-1,0.1-2,0.1-2.9c1-1.4,1.8-2.9,2.3-4.5c1.6-4.5-2.1-7.6-6-7.7c-1-1.2-2.1-2.3-3.5-3.2
		c-3.7-2.5-8.3-3-12.2-1.7c-2.2-1.9-5.6-2.4-8.1-0.8c-2.9-3.8-9.8-4.3-11,1.5c-2.1,10.3,1.1,20.7,7.9,27.6
		c-9.6,16.4-18.5,33-26.9,50c-3.5,7.1,7.2,13.7,10.7,6.6c8.3-16.9,17.3-33.5,26.8-49.8c0.1,0,0.1,0,0.2,0.1
		c-2.1,6.1-4.2,12.2-6.3,18.3c-4.1,12.1-8.1,24.2-12,36.4c-2.5,7.6,9.7,11.1,12.1,3.5c3.5-10.8,7-21.5,10.6-32.2
		c1.8-5.2,3.5-10.4,5.3-15.5c0.9-2.5,1.6-6.1,2.8-9.2c0.5-0.1,1-0.1,1.5-0.2c2.4,17.1,5.7,33.9,10.1,50.6
		C1710.1,1785.8,1722.5,1783,1720.4,1775.3z"/>
	<path class="st1" d="M1857.3,1765.8c-10.2-13.2-19.3-27.2-27.3-41.7c4.5-5.8,7.6-12.8,9.1-19.9c1.2-5.6-4.9-9.1-9-7.5
		c0.2-0.4,0.4-0.8,0.5-1.2c3.6-7.1-7.1-13.7-10.7-6.6c-2.4,4.7-4.1,9.6-5.2,14.7c-1.6-1.1-3.4-1.9-5.4-2.2c-2.2-0.4-4.5-0.3-6.8,0.2
		c-0.1,0-0.2-0.1-0.3-0.1c0-0.2,0-0.4-0.1-0.5c-0.9-6.9-10.5-5.6-12.2,0.1c-0.8,0.3-1.6,0.7-2.4,1.2c-0.2,0.1-0.3,0.2-0.4,0.3
		c-0.3-1.7-0.6-3.3-0.8-4.8c-1.3-7.9-13.6-5.1-12.3,2.8c1.9,11.6,5.8,24.6,15.1,31.6c-3.7,10.6-6.3,21.4-8,32.5
		c-1.1,7.9,11.5,8.2,12.7,0.4c1.4-9.6,3.8-19,7-28.2c0.5,0.1,1,0.1,1.5,0.2c0.5,0,1,0.1,1.5,0.1c0.1,11.4,1.4,22.8,3.9,34
		c1.8,7.8,14.1,5,12.3-2.8c-2.5-11.1-3.7-22.2-3.6-33.4c1.4-0.6,2.7-1.3,4-2.1c8.2,14.4,17.4,28.2,27.5,41.4
		C1852.9,1780.5,1862.2,1772.1,1857.3,1765.8z M1816.4,1719.4c0.1-0.1,0.1-0.2,0.2-0.2c0.3,0.2,0.5,0.3,0.8,0.4
		c-0.2,0.2-0.5,0.4-0.7,0.7C1816.6,1719.9,1816.5,1719.7,1816.4,1719.4z"/>
	<path class="st1" d="M2028.5,1747c-12.2-12.6-24.3-25.3-36.5-37.9c3.9-6.8,4.8-15.2,1.9-22.8c-2.9-7.4-14.1-1.6-11.2,5.8
		c0.8,2,0.9,4.1,0.5,6.2c-0.9-5.4-3.1-10.4-7.9-13.9c-6.5-4.9-16.2-5-21.3,1.8c-1.8,2.4-2.7,5.2-2.8,8.1c-0.9-1.8-1.6-3.6-2.2-5.2
		c-2.7-7.4-15.1-4.7-12.3,2.8c3.1,8.5,8.3,17.8,15.7,23.9c-3,15.2-5.9,30.4-8.9,45.6c-1.5,7.7,10.6,11.4,12.1,3.5l8.4-43.2
		c0.7,0.2,1.3,0.3,2,0.4c2.5,15.6,6.6,30.8,12.4,45.7c2.9,7.4,14.1,1.6,11.2-5.8c-5.2-13.3-8.9-27.1-11.2-41.2
		c1.8-0.6,3.4-1.5,5-2.5c11.9,12.4,23.8,24.8,35.8,37.1C2024.7,1761.2,2034,1752.8,2028.5,1747z"/>
	<path class="st1" d="M2220.1,1743.7c-13-12.1-23.1-26.4-30.1-42.6c-0.2-0.4-0.4-0.8-0.6-1.2c0.2-0.3,0.4-0.7,0.6-1
		c5.2-9.9,4.6-21.1,3.3-31.9c-0.9-7.9-13.3-5.1-12.3,2.8c0.3,2.3,0.5,5.2,0.5,8.3c-3-5.2-10.2-7.5-15.2-3.8
		c-0.6-0.1-1.1-0.2-1.7-0.2c-2.8-2.4-7.9-2-9.9,1.4c0.1-1.9,0.3-3.7,0.4-5.1c0.7-7.9-11.9-8.3-12.7-0.4c-0.9,10.1-1.5,21,3.7,30.2
		c1.3,2.2,2.9,4.3,4.7,6.1c-2,7.4-5.1,14.6-8.3,21.6c-5.2,11.4-10.5,22.8-15.7,34.1c-3.3,7.2,8.8,10.7,12.1,3.5
		c5.5-12,11.1-23.9,16.5-36c2.5-5.5,4.7-11.1,6.5-16.8c0.4,0.1,0.8,0.2,1.2,0.2c0.7,14.9,1.4,29.7,2.1,44.6c0.4,7.9,13,8.4,12.7,0.4
		c-0.7-15.4-1.5-30.9-2.2-46.3c1.5-0.6,3-1.4,4.4-2.3c7.4,15.9,17.8,30.3,30.8,42.4C2216.6,1757.6,2226,1749.2,2220.1,1743.7z"/>
	<path class="st1" d="M2369.3,1760.8c-11.2-7.4-18.7-18.4-21.5-31.3c-0.5-2-1.6-3.3-3.1-4c4.1-6.8,5-15.6,0.9-23.6
		c-3.6-7.2-14.8-1.4-11.2,5.8c2.2,4.4,1.4,9-1,12.4c0.5-1.4,0.9-2.9,0.9-4.6c0.2-8.4-3.5-19.2-13.4-20.4c-3.7-0.4-7.3,1.2-9.6,3.8
		c-0.4,0.3-0.9,0.7-1.2,1.2c0.6-7.3-10.9-10.6-12.2-2.9c-1.8,10.5,0.5,23.1,7.7,31.4c-3.2,11.3-7.4,22.3-12.6,32.9
		c-3.5,7.1,7.2,13.7,10.7,6.6c5.1-10.4,9.4-21.1,12.8-32.1c0.4,0.1,0.7,0.2,1.1,0.3c0.1,16.4,2.4,32.7,7,48.5
		c2.2,7.6,14.6,4.9,12.3-2.8c-4.3-14.9-6.6-30.1-6.7-45.5c2-0.5,3.8-1.3,5.5-2.3c3.9,15.2,13.3,28.3,26.7,37.1
		C2369.3,1775.8,2376,1765.3,2369.3,1760.8z"/>
	<path class="st1" d="M2529.8,1777.7c-13-7.9-24.2-18.2-33-30.4c5.1-7.6,6.5-17.8,2.9-27.2c-2.9-7.4-14.1-1.6-11.2,5.8
		c1.1,2.7,1.3,5.5,0.8,8.1c-0.2-7.6-5.7-15-13.7-16.1c-5-0.6-10.7,2.9-13.2,7.4c-2,0.6-3.7,2-4.1,4.1c-0.8,3.9,0,7.8,1.9,11
		c-3.2-4.5-4.1-10.5-1.3-16c3.5-7.1-7.2-13.7-10.7-6.6c-6.6,13.2-2.5,28.4,8.4,36.3c-4.1,8.7-8.6,17.3-13.7,25.6
		c-4.2,6.8,6.6,13.4,10.7,6.6c5.4-8.8,10.2-17.9,14.5-27.2c1.1,0.2,2.3,0.3,3.5,0.4c0.8,9.1,2.6,18.1,5.6,26.8
		c2.6,7.5,14.9,4.8,12.3-2.8c-2.9-8.5-4.7-17.1-5.4-25.9c1.2-0.5,2.4-1.1,3.5-1.7c9.6,12.9,21.5,23.8,35.5,32.3
		C2530,1792.4,2536.8,1781.9,2529.8,1777.7z M2475.4,1732.6c0.1-0.5,0.1-1,0.1-1.6c0.3,0.3,0.5,0.8,0.7,1.2
		C2475.9,1732.3,2475.6,1732.4,2475.4,1732.6z"/>
	<path class="st1" d="M2674.9,1729.7c-11.3,0.6-22.5,0.5-33.7-0.4c4.1-17.7-6.6-36.7-18.3-50.3c-5.3-6.1-14.6,2.3-9.3,8.4
		c4.4,5.1,8.9,11.1,12,17.4c-4.1-2.3-9.2-2.5-13.4,1.6c-3.7,3.6-4.9,9.1-6.2,13.8c-1.6,6.2-2.6,12.5-3.2,18.8
		c-1.5-1.1-2.7-2.5-3.4-4.3c-2.7-7.4-15.1-4.7-12.3,2.8c4.6,12.3,16.4,17.5,27.8,16.2c0.2,15.6,4.1,30.9,11.3,45
		c3.7,7.1,14.9,1.4,11.2-5.8c-6-11.7-9.3-24.3-9.8-37.2c8.3,7,17.1,13.4,26.5,19.1c6.9,4.2,13.6-6.3,6.7-10.5
		c-9.8-5.9-18.9-12.6-27.5-20.1c0.6-0.7,1.2-1.4,1.8-2.2c0.2-0.3,0.4-0.6,0.6-0.8c12.9,1.2,25.8,1.5,38.7,0.8
		C2682.6,1741.7,2683.1,1729.3,2674.9,1729.7z M2620.9,1720.1c-0.1,0.4-0.2,0.8-0.3,1.1c-0.4,0.2-0.7,0.5-1,0.8
		c0.4-1.1,0.4-2.2,0.1-3.2c0.2-0.5,0.3-1.1,0.5-1.6c0.1-0.2,0.1-0.3,0.2-0.5C2620.8,1717.8,2621.2,1718.6,2620.9,1720.1z"/>
	<path class="st1" d="M2702.5,1535.9c-12.4,5.7-25.4,9.7-38.8,12.3c-2.6-5.8-7.4-10.6-13.5-12.8c-7.9-2.9-22.2,0.8-16.7,11.5
		c1.8,3.5,5,5.1,8.6,6c-0.2,0.2-0.5,0.5-0.9,1c-1.1,1.3-2.2,2.6-3.3,3.9c-2.2,2.6-4.3,5.2-6.5,7.7c-5.2,6.1,5.6,12.6,10.7,6.6
		c3-3.5,7.4-7.6,10.5-11.9c-1.3,6.5-6.8,11.6-12,15.4c-6.6,4.7,2.1,13.8,8.6,9.1c4.6-3.3,8.7-7.5,11.7-12.2
		c8,9.2,17.6,16.8,28.5,22.5c7.2,3.7,13.9-6.7,6.7-10.5c-7.3-3.8-13.9-8.5-19.8-14c6.5,0.6,12.8,2.3,18.6,5.2
		c7.2,3.5,14-6.9,6.7-10.5c-8.3-4.1-16.9-6.4-25.8-7c11.1-2.8,21.9-6.5,32.3-11.3C2715.8,1543.5,2709.8,1532.5,2702.5,1535.9z"/>
	<path class="st1" d="M2695,1384.5c-13.3,6-27.3,10.2-41.7,12.5c-5.8-5.9-14.1-9.6-22.3-11.6c-7.9-1.9-11.6,10-3.6,11.9
		c2.7,0.6,5.6,1.4,8.3,2.5c-2.8,0.9-5,3.4-4.1,7c1,4.5,2.1,9,3.1,13.6c0.1,0.5,0.3,1,0.5,1.4c-4.7,1.8-5.9,9.9,0.4,11.8
		c7.8,2.4,15.3-0.5,20.1-5.9c12.3,6.8,25.3,12.2,38.9,16.2c7.8,2.3,11.4-9.6,3.6-11.9c-12.2-3.6-23.9-8.4-35-14.4
		c9.4,1.7,18.7,3.7,27.9,6.1c7.9,2,11.5-9.8,3.6-11.9c-8.3-2.1-16.7-4-25.1-5.5c10.7-2.6,21.2-6.3,31.3-10.9
		C2708.3,1392.2,2702.4,1381.2,2695,1384.5z M2647,1418.2c0-0.2,0-0.3-0.1-0.5c-0.6-2.4-1.1-4.8-1.7-7.2c0.3,0,0.5,0,0.8,0
		c0.4,0,0.8-0.1,1.1-0.1C2648.1,1412.8,2648,1415.8,2647,1418.2z"/>
	<path class="st1" d="M2727.4,1297c-11.8-3.9-23.4-8.5-34.7-13.6c8.7-0.4,17.3-1.6,25.8-3.5c7.9-1.8,5.1-13.9-2.8-12.1
		c-9.1,2.1-18.2,3.2-27.5,3.4c-2.6-5.5-7.1-10.2-12.5-13c-7.2-3.7-13.9,6.8-6.7,10.5c1.7,0.9,3.3,2,4.7,3.4
		c-0.5,0.3-0.9,0.7-1.2,1.2c-0.6-0.1-1.3-0.2-2.1-0.1c-1.2,0.1-2.3,0.6-3.3,1.3c-3.3,0-6.4,2.7-6.4,6c0,2.8-0.1,5.6-0.1,8.5
		c-5.4,0.2-9,8-3.2,11.4c6.4,3.8,14.1,3.7,20.5,0.7c0.1,0.1,0.2,0.3,0.3,0.4c8.3,9.1,17.8,17.2,28.2,24c6.8,4.4,13.5-6.1,6.7-10.5
		c-8.5-5.6-16.1-12-23-19.2c11,4.9,22.3,9.3,33.8,13.2C2731.5,1311.5,2735.1,1299.6,2727.4,1297z"/>
	<path class="st1" d="M2757.1,1121.9c-13-1.3-25.9-2.6-38.9-3.8c8.5-4.7,18.1-6.9,28-6.5c8.1,0.3,8.5-12,0.4-12.4
		c-14.6-0.6-28.5,3.6-40.3,11.8c-2.2-0.6-4.8-0.3-6.8,1.5c-1.4,0.4-2.7,1.1-4.1,2c-7,4.7-6.7,13.8-2.2,18.9
		c0.6,4.7,2.5,9.1,5.8,12.6c4.5,4.8,11.8,5.7,16.9,1.1c0.7-0.6,1.3-1.3,1.9-2.1c10.1,4.6,20.7,7.8,31.9,9.5c8,1.2,8.3-11.1,0.4-12.4
		c-9.9-1.5-19.5-4.6-28.5-9c0-0.8,0-1.6,0-2.4l35,3.5C2764.8,1135,2765.2,1122.7,2757.1,1121.9z"/>
	<path class="st1" d="M2705.2,1019.5c-13.2-1.9-26.2-5.1-38.8-9.4c11.8-0.2,23.5-2,34.7-5.6c7.7-2.4,4.9-14.5-2.8-12.1
		c-9.9,3.1-20,4.9-30.2,5.2c5.3-5.6,11.2-10.6,17.7-15c6.6-4.5,0.8-15.5-5.9-11c-11.4,7.7-21.3,16.8-29.6,27.5
		c-7.4-1.2-15.2,1.4-19.7,8.4c-6.1,9.4-0.6,22.4,9.6,25.4c0,0,0,0,0.1,0.1c4.1,4.4,10.6,6.9,16.7,5.4c7.4-1.9,11-7.9,11.7-14.6
		c11.8,3.6,23.9,6.3,36.3,8.1C2712.9,1033,2713.2,1020.6,2705.2,1019.5z M2654.6,1019.3c0-0.3,0-0.5,0-0.8c0.4,0.4,0.9,0.7,1.4,0.9
		c0,0.2,0.1,0.3,0.1,0.5C2655.6,1019.7,2655.1,1019.5,2654.6,1019.3z"/>
	<path class="st1" d="M2708.5,893.3c-11.9-5.3-24.5-8.6-37.4-10h25.1c8.1,0,8.6-12.4,0.4-12.4h-42.1c-6.6-4.7-15.7-5.8-23-1.1
		c-8.5,5.4-9.3,16-3.7,22.7c2,7.1,8.8,13,16.8,12.9c4.7-0.1,8.9-1.9,12-4.8c0.1,0.1,0.2,0.1,0.3,0.2c10.8,7.5,22.4,13.7,34.6,18.7
		c7.5,3.1,11.1-8.8,3.6-11.9c-8-3.3-15.7-7.3-23-11.8c11.3,1.5,22.3,4.6,32.9,9.2C2712.3,908.5,2715.8,896.6,2708.5,893.3z"/>
	<path class="st1" d="M90.3,1660.4c-0.5,0.7-1,1.4-1.6,2.1c1.2-2.3,1.7-5.1,1.4-7.8c0.7,0,1.5,0.1,2.2,0.2
		c8.1,0.8,8.5-11.6,0.4-12.4c-2.7-0.3-6.2-0.1-10,0.3c-0.5-0.4-1.2-0.7-1.9-1c-18.7-6-36.1-14.6-52.1-25.7
		c-6.7-4.6-13.3,5.9-6.7,10.5c13,9,27,16.4,41.8,22.2c-1.3,0.8-2.4,1.7-3.4,2.6c-5.4-0.7-10.8-1.5-16.2-2.2
		c-3.3-0.5-6.6-0.9-9.9-1.4c-2-0.3-6-0.3-7.2-2.2c-4.1-6.9-15.3-1.1-11.2,5.8c4,6.7,10.8,7.9,18.1,8.9c-3,0.7-5.9,1.5-8.8,2.1
		c-7.9,1.9-5.1,13.9,2.8,12.1c6.6-1.6,13.2-3,19.8-4.3c2.9-0.6,5.9-1.1,8.9-1.6c0.9-0.2,2.1-0.2,3.1-0.3c10,14.6,31.9,13.3,41.3-1.3
		C105.4,1660.2,94.7,1653.6,90.3,1660.4z"/>
	<path class="st1" d="M134.2,1555.2c1.2-2.5,0.8-5.5-2.6-7c-14.8-6.6-26.9-17.1-35-30.9c-4-6.9-15.3-1.2-11.2,5.8
		c6.9,11.7,16.3,21.8,27.7,29.2c-0.2,0.2-0.4,0.5-0.6,0.7c-11.8-5.5-23-12.2-33.4-20c-6.5-4.8-13.2,5.7-6.7,10.5
		c8.9,6.6,18.4,12.4,28.2,17.4c-11.2,1.5-22.4,1.5-33.8,0c-8.1-1.1-8.4,11.3-0.4,12.4c13.2,1.8,26.6,1.5,39.6-0.7
		c1.2,3.2,3.7,5.9,7.5,7.5c0.5,0.2,1,0.4,1.4,0.5c5.2,5.8,12.7,9.1,19.8,3.1C144.4,1575.6,141.7,1562.5,134.2,1555.2z"/>
	<path class="st1" d="M184.4,1437.1c-5.2-1.4-10.9-2.3-16.2-1.8c-12.8-4.5-25-10.4-36.5-17.6c-6.9-4.3-13.6,6.2-6.7,10.5
		c5.5,3.4,11.1,6.5,16.9,9.4c-10-0.9-20.1-1.3-30.3-1c-8.1,0.2-8.6,12.6-0.4,12.4c13.3-0.3,26.6,0.3,39.8,2
		c-0.2,1.4-0.3,2.7-0.3,4.1c-12.2,2.8-24.8,3.9-37.5,3.3c-8.1-0.4-8.5,12-0.4,12.4c14.1,0.7,28.1-0.6,41.7-3.8
		c2.9,4.9,7.1,9.4,11.2,13.2c4.2,3.9,10.1,0.8,11.1-3.3c4.8-1.4,8.9-5.3,10.3-10.5c1.9-6.7-0.7-12.4-4.8-17.2
		C189.4,1448.9,191.6,1439,184.4,1437.1z M171.8,1463.2c0.9,0.4,1.9,0.7,3,0.9C174.1,1465,172.9,1465,171.8,1463.2z"/>
	<path class="st1" d="M207.2,1354.6c0-0.3,0.1-0.7,0.1-1c0.3-3.8-0.6-7.8-2.5-11.1c-2.1-3.7-5.8-6.6-6.4-11
		c-0.3-1.9-1.2-3.2-2.4-3.9c2.2-3.3,1.7-8.1-3.2-9c-7.8-1.4-13.8,1.7-18.1,6.8c-11.1-8.1-21.3-17.2-30.8-27.1
		c-5.6-5.8-14.9,2.5-9.3,8.4c8.5,9,17.8,17.3,27.6,24.9c-11.4-3.3-22-8.6-31.6-15.9c-6.4-4.9-13.1,5.7-6.7,10.5
		c12.9,9.7,27.9,16.3,43.7,19.4c0,0.5,0,1,0,1.6c-14.2-0.6-28.3-2.8-42.1-6.7c-7.8-2.2-11.5,9.6-3.6,11.9c15.7,4.5,31.8,7,48.1,7.4
		c6.9,14.9,31.1,19.4,39.8,3.6C211.7,1359.6,210,1356.2,207.2,1354.6z M186.4,1331.2c-0.3,0.8-0.4,1.6-0.4,2.6
		c-0.3-0.4-0.7-0.8-1.1-1.2C185.4,1332,185.9,1331.5,186.4,1331.2z"/>
	<path class="st1" d="M207.3,1201.5c-5.1-8.4-14.6-9.3-22-5.5c-9.6-6.9-19.1-13.8-28.7-20.7c-6.6-4.7-13.2,5.8-6.7,10.5
		c5.5,4,11,7.9,16.5,11.9c-11.4-2.9-22.8-5.9-34.2-8.8c-7.9-2-11.5,9.8-3.6,11.9c12.2,3.1,24.3,6.3,36.5,9.4
		c-8.6,0.3-17.2,1.6-25.6,3.9c-7.8,2.2-5,14.2,2.8,12.1c10.5-2.9,21.3-4.2,32-3.7c1.4,9.7,6.6,19.2,12.8,26.1
		c5.3,5.8,14.2-1.9,9.8-7.8c2.1-1.7,3.5-4.4,3.8-8.2c0.4-4.9,0-10.1-1.7-14.7c0.4-2.3,0.4-4.7,0-7.3c0.8-0.1,1.7-0.1,2.5-0.1
		C206.1,1210.8,209.7,1205.4,207.3,1201.5z"/>
	<path class="st1" d="M252.5,1091.4c-1.7,2.3-3.6,0.3-3.5-1.8c0-0.1,0-0.2,0-0.3c3.6-2.3,6.8-5.4,6.6-9.9c0-0.7-0.1-1.4-0.3-2.1
		c5.2-2.1,6.6-10.4-0.1-11.5c-6.3-1.1-12.6,0.1-17.9,3.1c-12.5-3.5-24.5-8.5-35.8-15.1c-7-4.1-13.7,6.4-6.7,10.5
		c2.8,1.6,5.6,3.1,8.5,4.6c-6.3-1-12.6-2.4-18.8-4.4c-7.8-2.4-11.4,9.4-3.6,11.9c3.7,1.1,7.4,2.1,11.1,3c-3.7,0.4-7.3,0.9-11,1.5
		c-8.1,1.2-5.2,13.3,2.8,12.1c12.7-1.9,25.5-3.1,38.3-3.5c0.4,1.4,0.9,2.9,1.5,4.4c0.8,10.8,8.2,20.8,17.9,26.1
		c6.3,3.4,12.6-4,8-9.4c-2.2-2.6-4.2-5.2-6.1-7.9c6.1,3.4,14.6,2.3,19.7-4.6C268,1091.5,257.2,1085,252.5,1091.4z"/>
	<path class="st1" d="M294.6,961.8c-0.8-3.5-3.6-6.1-7.2-7.2c0.5-0.8,0.8-1.7,0.9-2.8c0.5-5.7-3.4-10.7-8.9-12.3
		c-5.9-1.7-11.9,1.3-15.4,6c-1.9,2.6-3.1,5.5-3.6,8.6c-16.3,0.7-32.6,2.6-48.6,5.6c-8,1.5-5.2,13.6,2.8,12.1c13.2-2.5,26.6-4.2,40-5
		c-11.8,4.3-23.2,9.7-33.9,16.3c-6.9,4.2-1,15.2,5.9,11c9.8-6,20-11,30.7-15.1c-6.8,4.4-13.1,9.5-18.7,15.4c-5.5,5.8,3,15,8.6,9.1
		c8.6-9,18.6-16,30-21.1c6.6,2.5,14.2,2.3,19.5-2.8C302.3,974.1,299.9,965.3,294.6,961.8z"/>
</g>
<g>
	<path class="st3" d="M318.5,1316.1l-51.1-0.8c0,0-16.6-28.4-53.8-14.3c-37.2,14.1-31,61.7-47.4,75.2c-5,4.1-15.8,6.8-29,8.9
		c-5.1,0.8-10.4,0.6-15.5-0.6c0,0-0.1,0-0.1,0c-19.8-4.5-34.3,3.6-40.6,8.2c-12.5,2.1-22.7,4.8-27.3,9c-2.9,2.7-1.5,6.1,3.5,9.5
		c-1.5,2.9-0.3,6.8,3.2,8c3.8,1.3,8.5,2,13.2,2c-12.3,5.9,2.4,10.5,13.5,11.9c22.9,2.9,45.6,1.3,68.5-1c22.3-2.3,48-5.5,70.6-14.5
		c13.4-3.2,27.1-7.3,41.2-12.4l87.2-10.6L318.5,1316.1z"/>
	<path class="st3" d="M951.7,437.8c-2.7,5.8-110.6,150.5-110.6,150.5l95.6,51.4l109.9-171.6c0,0,34.8-8.3,45.6-47.7
		c9.5-35-10.2-84-63.7-61.7c-10.6,4.4-21.2,9-28.4,18.1L951.7,437.8z"/>
	<path class="st4" d="M947.2,649.2c-19.7,47.9-76.3,162-161.1,141.9c-47.5-11.2-123.7-53.4-193.5-97c-2.3-1.4-4.6-2.9-6.9-4.3
		c-84.3-53.2-157.4-107.2-156.3-109.2c1.9-3.7,72.6-257.8,72.6-257.8s86.1,24.6,134.4,81.1c15.4,18,34.4,44.2,56,75.1
		c1.8,2.5,3.5,5.1,5.4,7.7c25.4,36.7,54.1,79.3,84.2,122.5c2,2.9,4.1,5.8,6.1,8.7c2.6,3.6,5.1,7.3,7.7,10.9l36.2-42
		c6.6-7.7,17.5-10,26.5-5.5l77.8,38.3C947,624.9,951.8,637.9,947.2,649.2z"/>
	<path class="st5" d="M648.3,52.4c-23.1-31.8-69.4-63-108.5-44.2c-35.3-18.4-82.1-3.4-108.1,23.4c-29.9,30.9-33.7,80.7-26.1,122.9
		c4.6,25.7,15.5,49.7,30.3,70.8c0.5,0.8,1.2,1.1,1.9,1c0.4,2.6,4.5,3.5,5.3,0.4c5.5-21.1,16.1-40,28.1-57.9
		c10.4-15.6,20.9-33.6,35.8-45.2c19.4-15,42.9-8.6,64.2-1.8c20.6,6.6,41.1,13.8,61.4,21.5c-0.2,1.9,1.7,4,4,2.9
		c15.3-7.4,24.5-22.8,27.1-39.5C666.6,87,659.6,68,648.3,52.4z"/>
	<path class="st6" d="M398.2,299.3l103.7,23.5l84.9,330.8l-58.7,307.6l-290.8,30.8c0,0,82.2-527.7,83.5-533.8
		C322.2,452,398.2,299.3,398.2,299.3z"/>
	<path class="st3" d="M641.4,149.3c0-0.2,0-0.5,0-0.7c0-1.7-0.1-3.5-0.2-5.3c0-0.2,0-0.4,0-0.6c-0.1-1.6-0.2-3.1-0.4-4.7
		c-0.2-2.2-0.5-4.3-0.9-6.5c-0.2-1.2-0.4-2.3-0.7-3.5c-0.2-0.8-0.3-1.6-0.5-2.4c-2.1-9.2-5.5-18-10-26.3C615,74,591.1,54,563.3,47.6
		c-13.1-6.3-28-8-42.5-5.9c-16.1,2.4-31.8,9.8-44.2,20.9c-14.1,12.6-24.1,29.7-30.1,47.8c-6.1,18.6-8.2,38.5-6.7,57.8
		c1,13.8,4.1,27.9,11.1,39.6c-0.5,1.7-0.4,3.5,0.3,5.2c7.7,19,11,24.1,24.6,39.2c11.3,12.6,17.9,25.7,37.9,33.5
		c15.9,6.2,45.8,2.4,59.9-7.3c30.2-20.8,49.6-46.6,59.4-82.2c0.3-1,0.3-1.9,0.2-2.7c5-14.1,8.4-29.1,8.4-44.1V149.3z"/>
	<path class="st3" d="M424,149.7c-6,9.8-6,30.2,14.7,35.2l-40.4,114.4l11.1,7.7c27.1,18.9,60.9,24.6,92.5,15.8h0
		c0,0,13.4-44.7,16-49.4l-58.6-89.2c-0.2-0.6-0.5-1.2-1-1.6l-6.8-10.3c1.2-8.8,5.4-15.8,6.6-24.6c0.2-3.5-8.3-7.1-18.8-7
		C436.5,140.8,428.7,141.9,424,149.7z"/>
	<path class="st5" d="M457.2,218.4c8.8,20.7,22,39,38.6,53.6c2.2,2-0.5,5.8-2.8,3.8c-17.3-15.1-31-34-40.1-55.5
		C451.8,217.5,456,215.6,457.2,218.4z"/>
	<path class="st5" d="M589.4,156.6c-1,9.8,0.6,19.4,4.7,28.2c1.6,3.5-3.9,5.9-5.5,2.4c-4.5-9.8-6.2-20.6-5.1-31.4
		C583.9,151.8,589.8,152.7,589.4,156.6z"/>
	<path class="st5" d="M550,142.7c2.4-0.3,4.5,1.3,5.3,3.6c0,0.1,0.1,0.2,0.1,0.3c0.3,0.4,0.5,1,0.5,1.8c-0.2,4.7-1.4,12.1-5.9,14.6
		c-2,1.1-4.4,0.7-5.8-1c-1.6-1.9-1.5-4.5-1.2-6.9C543.5,151,544.8,143.3,550,142.7z"/>
	<path class="st5" d="M616,153.2c2.4-0.3,4.5,1.3,5.3,3.6c0,0.1,0.1,0.2,0.1,0.3c0.3,0.4,0.5,1,0.5,1.8c-0.2,4.7-1.4,12.1-5.9,14.6
		c-2,1.1-4.4,0.7-5.8-1c-1.6-1.9-1.5-4.5-1.2-6.9C609.5,161.5,610.8,153.8,616,153.2z"/>
	<path class="st5" d="M635.1,83.2c-11.7-39.8-56.9-56.6-94.1-57.7c-39.3-1.2-76.4,16.5-98.8,49.9c-10.8,16.1-17.4,34.7-19.2,54.1
		c-3.1-0.1-4.4,4.8-1.1,5.4c0.3,0.1,0.5,0.1,0.8,0.2c0.5,1.9,2.9,2.3,4.3,1.3c10.8,4.1,18.1,13.9,18.6,26.3c0.1,2.8,3.5,3.5,4.9,2
		c0.3-0.2,0.6-0.4,0.9-0.8c9.7-12,10.1-28.2,18.2-41c6.1-9.6,16.4-12,26.8-13.6c10.1-1.5,20.4-2.4,30.3-4.9
		c8.2-2.1,16.2-5.2,23.1-10.2c7.6-5.5,12.5-15.4,22.6-16.3c10.1-0.9,20.7,3.9,30.5,6.1c9.5,2.1,19.2,3.4,28.9,4.3
		c0.6,0.3,1.3,0.3,1.9,0.2C636.6,88.4,637.1,84.6,635.1,83.2z"/>
	<path class="st5" d="M570.8,117.4c-5.4-3.9-14.3-3.2-20.4-2.5c-1.1,0.1-2.1,0.3-3.2,0.5c-5.9,0.7-11.7,2.1-17.4,4.2
		c-4.5,1.7-12.7,4.1-13.2,10.1c-0.5,5.2,4.7,8.2,9.2,7.9c4.2-0.2,8.5-2.1,12.6-2.9c5.6-1.1,11.4-1.6,17.1-1.5
		c5.9,0.1,13.9,2.1,18-3.6C576.5,125.5,574.6,120.1,570.8,117.4z"/>
	<path class="st5" d="M641.4,148.6c0-1.7-0.1-3.5-0.2-5.3c0-0.2,0-0.4,0-0.6c-0.1-1.6-0.2-3.1-0.4-4.7c-0.2-2.2-0.5-4.3-0.9-6.5
		c-0.2-1.2-0.4-2.3-0.7-3.5c-1.1-0.6-2.3-1.2-3.4-1.7c-1-0.5-1.9-1-2.9-1.4c-5.6-2.6-13.8-6-20.1-4c-4.4,1.4-7.8,5.9-6.2,10.7
		c2.2,6.8,10.5,7.3,16.1,9.1c5.5,1.7,10.8,4,15.8,6.8c1,0.5,1.9,1.2,2.9,1.8C641.4,149.1,641.4,148.8,641.4,148.6z"/>
	<path class="st5" d="M564.1,228.1c-10.1,1.9-19.6-2.5-24.8-11.5c-1.8-3.1-6.6-0.5-4.8,2.6c6.5,11.3,18.3,16.7,30.9,14.4
		C568.8,232.9,567.6,227.5,564.1,228.1z"/>
	<path class="st7" d="M176.1,898c0,0-38,85.1-47.4,177.6c-11.6,114,85.2,226.6,197.1,228.3l95.4-11.7l-112,8l1.7,120.9
		c0,0,561.1,87.6,655.4-85.7c17.7-32.5,15.8-86.7-24.3-119.7c-92.9-76.7-393.5-199.1-604-264.1C272.3,931.2,215.2,898.9,176.1,898z"
		/>
	<path class="st4" d="M398.2,299.3l-98.9,664.8c0,0-126.6,47.1-170,157.6c0,0-36.1,23-45.6-1c-9.5-24,50.4-253.9,50.4-253.9
		L108,704.5c0,0,126-280.2,128.5-284.5C239.1,415.7,398.2,299.3,398.2,299.3z"/>
	<path class="st4" d="M501.9,322.8l145.9,311.3l-11.6,293.4l-139.6,21.8c0,0,42-208.4,36.6-385.1
		C528.1,397.6,501.9,322.8,501.9,322.8z"/>
	<path class="st7" d="M290.8,949.6c0,0,629.1-204.8,720.4-166c121.4,51.6,26.7,211.1,26.7,211.1l-124.2,280.5l-174.8-59.6l40-137.2
		L534,1192.8L290.8,949.6z"/>
	<path class="st3" d="M496.5,1015.9c4.1,4.2,8.3,8.3,14.1,10.3c4.5,1.5,8.4-3.8,6.4-7.9c-7.4-14.9-20.5-24.5-32.6-35.2
		c-1-0.9-2.1-1.8-3.1-2.7c9-2.9,17.2-7.8,14-14.7c-3.1-6.8-14.1-3.6-19.5-3.2c-6.5,0.5-12.7-0.2-18.9-1
		c-19.1-12.7-55.6-21-120.8-17.7L210.7,812.6l-76.6,71.8l183.4,144.1c14.3,11.3,32.5,13.3,50.4,10.7c29-4.3,48.5-3.3,62.7-3.3
		c5.4,0,10.4,2.9,13.3,7.6c0,0,0,0,0,0.1c4.3,6.9,8.6,14.5,16.6,17.1c3.1,1,7.2-1.6,7-5.2c-0.5-7.5-10.8-24.9-9.7-25.7
		c11.1,14.5,26.8,37.7,37.2,26.3c2.8-3,3.1-6.5,2.2-9.8c2.4,2.3,5,4.4,7.9,5.5c4.9,1.8,10.6,0,11.2-5.9c0.6-5.8-4.3-11.2-7.9-15
		C504.1,1026,500.5,1020.8,496.5,1015.9z"/>
	<path class="st4" d="M423,360.1l-42,54.8l-7.3-70.9l-70,127.8l-6.9,12.7L164,726.9l79,102.7l-95.5,80.1
		c-157.7-86.5-147.3-172-147.3-172c8.9-55.5,26.8-134.6,50.7-207.5c1.1-3.2,2.1-6.4,3.2-9.6c24.3-71.7,54.4-136,87.8-163.7
		c7-5.8,14.2-11.1,21.5-15.9c2.8-1.8,5.7-3.6,8.5-5.3c55-32.6,117.9-40.3,163.4-40.7h0c3.3,0,6.5,0,9.6,0c8.2,0.1,15.6,0.5,22.2,0.9
		c0.2-0.3,0.5-0.6,0.7-0.9c3.7-4.2,7.6-3.9,12.5-4.8c5.7-1,7.2-10.3,11.8-14c3.7-3,8.1-4.3,12.8-4.3c0.9,0,1.5,0.4,2,0.9l0.9-0.7
		l18.7,70C428.3,348.3,427,355,423,360.1z"/>
	<path class="st4" d="M510.7,294.2l32,55.2c0,0-24.6,46.6-24.8,45c-0.3-1.7-16-71.6-16-71.6L510.7,294.2z"/>
	<path class="st3" d="M960.8,1486.5c3.1-2.5,3.4-8.5-1.5-9.7c-6.1-1.6-11.4-4.6-17.1-7.3c-2.4-1.1-4.7-2.1-7.1-3.2
		c-39.5-27-103.7-62.6-106.1-76.5l-1.2-27.1l-98.2-12.4c-1,1.6-0.1,25.5-14.5,39.7c-20.2,19.9-31.1,60.6,13.7,76.7
		c10.4,3.7,21.5,4.8,32.4,3.6c12.6-1.3,37-1.4,70.8,9.1c12,3.8,23.4,9.3,34.2,15.7c5.8,3.4,12.5,6,20.3,6.6c28,2.1,33.4,0,33.4,0
		s20.8,13.7,35,5.8c4.6-2.5,5.7-5.6,5.1-8.6C967.6,1497.4,966.8,1492.9,960.8,1486.5z"/>
	<path class="st5" d="M592.1,1185.8c-71.5,47.7-149.6,84.4-231.5,108.7c-3.4,1-2.2,6.4,1.2,5.4c82.4-24.4,161-61.2,232.8-109.2
		C597.6,1188.7,595.1,1183.8,592.1,1185.8z"/>
	<path class="st5" d="M668.3,1135.3c-16.8,9.8-33.6,19.6-50.4,29.4c-3,1.8-0.5,6.7,2.5,4.9c16.8-9.8,33.6-19.6,50.3-29.4
		C673.8,1138.4,671.3,1133.5,668.3,1135.3z"/>
	<path class="st5" d="M986.9,871.5c-13-7.7-21.2-21.3-21.8-36.7c-0.1-3.6-5.6-3.8-5.4-0.2c0.6,17.3,9.6,32.9,24.3,41.6
		C987,878,989.9,873.3,986.9,871.5z"/>
	<path class="st5" d="M861.6,971.5c-16.4,19-32.8,38.1-49.2,57.1c-2.3,2.7,1.4,6.8,3.7,4.1c16.4-19,32.8-38.1,49.2-57.1
		C867.6,972.9,863.9,968.8,861.6,971.5z"/>
	<path class="st5" d="M654.5,1260c-45.5-6.6-91.8-5.5-137,3.1c-3.5,0.7-2.2,6.1,1.2,5.4c44.8-8.6,90.5-9.5,135.6-3
		C657.8,1266.1,657.9,1260.5,654.5,1260z"/>
	<path class="st5" d="M909.2,1253c-9.5,20.9-19.1,41.9-28.6,62.8c-1.5,3.2,3.1,6.2,4.6,3c9.5-20.9,19.1-41.9,28.6-62.8
		C915.3,1252.7,910.7,1249.7,909.2,1253z"/>
	<path class="st5" d="M236.8,1033.3c-30.2,22.9-52.5,55.3-63.6,92.1c-1,3.4,4.2,5,5.2,1.6c10.8-35.9,32.5-67.2,62-89.6
		C243.3,1035.3,239.6,1031.2,236.8,1033.3z"/>
	<path class="st5" d="M268.4,1021.2c-9.5,10.7-19.1,21.4-28.6,32.1c-2.4,2.6,1.3,6.8,3.7,4.1c9.5-10.7,19.1-21.4,28.6-32.1
		C274.4,1022.7,270.8,1018.6,268.4,1021.2z"/>
	<path class="st5" d="M418.8,350.9c-8.6-4.1-17.7-0.8-24,6.1c-7.6,8.2-13.6,26.1-26.6,25.8c2.3-25.3,0.4-50.7-5.4-75.4
		c-0.8-3.5-6.1-2.2-5.3,1.3c5.9,25,7.6,50.5,5.1,76c0,0.3,0,0.6,0,0.9c-0.1,1.1,0.5,2.1,1.9,2.4c8.9,1.5,16.3-2.9,21.9-9.7
		c7-8.5,15.2-29.3,29.5-22.5C419.1,357.1,422,352.4,418.8,350.9z"/>
	<path class="st5" d="M389.4,343.5c-1.6-9.3-3.2-18.6-4.8-27.9c-0.6-3.5-5.9-2.3-5.3,1.3c1.6,9.3,3.2,18.6,4.8,27.9
		C384.7,348.3,390,347,389.4,343.5z"/>
	<path class="st5" d="M550.6,376.8c-4.2,1.6-9.4,0.3-12.2-3.3c-3.3-4.2-2.2-9.8-1.8-14.8c0.5-5.3,0.3-11.7-3.8-15.6
		c-7.7-7.5-19.2-0.9-19,9.3c0.1,3.6,5.5,3.8,5.4,0.2c-0.1-7.4,9-9.1,11.6-2.1c1.2,3.2,0.4,7.1,0.1,10.4c-0.5,5-0.7,10.1,2,14.5
		c4.3,7.1,12.9,9.2,20.2,6.4C556.5,380.5,553.9,375.5,550.6,376.8z"/>
	<path class="st5" d="M352.9,418.9C334,529.3,315.2,639.6,296.4,750c-5.3,31-10.6,62-15.9,93.1c-0.6,3.5,4.6,5.1,5.2,1.6
		c18.8-110.4,37.7-220.8,56.5-331.2c5.3-31,10.6-62,15.9-93.1C358.7,417,353.5,415.3,352.9,418.9z"/>
	<path class="st5" d="M173.6,988c-23.5,16.5-43.4,37.6-58.4,62.4c-1.8,3.1,2.8,6,4.6,3c14.5-23.9,33.6-44.5,56.3-60.4
		C179,991,176.5,986,173.6,988z"/>
	<path class="st5" d="M186,1007c-15.5,10.4-29.1,22.9-40.9,37.5c-2.2,2.8,2.4,5.7,4.6,3c11.1-13.8,24.1-25.8,38.8-35.5
		C191.4,1010,188.9,1005,186,1007z"/>
	<path class="st5" d="M231.4,788.4c-13.2-9-28.2-1.3-37.2,10.1c-5.5,6.9-9,15-13.8,22.3c-6,9.3-13.7,15.1-23.4,19.8
		c-14.4,7-30.2,12.9-36.6,29.2c-1.3,3.3,3.9,4.9,5.2,1.6c5.5-14.1,20.4-19.5,32.9-25.4c11.8-5.6,20.8-12.8,27.7-24.1
		c7-11.5,13.3-27.2,27.4-31.2c8.5-2.4,15.6,1.9,21.1,8.2c4.9,5.6,14.3,15.9,10.2,24c-1.6,3.2,3,6.2,4.6,3
		C256.1,812.7,241.6,795.3,231.4,788.4z"/>
	<path class="st5" d="M213.6,824.1c-7.4,7-14.9,14.1-22.4,21.1c-2.6,2.4,1.1,6.5,3.7,4.1c7.4-7,14.9-14.1,22.4-21.1
		C219.8,825.8,216.1,821.6,213.6,824.1z"/>
	<path class="st5" d="M171.7,855.1c-6.3,3.8-12.6,7.6-19,11.4c-3,1.8-0.5,6.8,2.5,4.9c6.3-3.8,12.6-7.6,19-11.4
		C177.3,858.2,174.8,853.3,171.7,855.1z"/>
	<path class="st5" d="M234,611.8c-21.9,39.1-53.8,71.4-92.2,93.4c0,0,0,0-0.1,0.1c-2.6-2.2-5.3-4.4-8.1-6.4
		c-2.8-2.1-5.7,2.6-2.9,4.7c19.2,14.4,35.2,32.5,47.4,53.4c1.8,3.1,6.6,0.5,4.8-2.6c-10-17-22.4-32.2-36.9-45.2
		c38.4-22.4,70.5-55,92.5-94.3C240.4,611.7,235.7,608.7,234,611.8z"/>
	<path class="st5" d="M245.2,407.2c-7.4-21-21.4-38.4-40.2-49.6c-3-1.8-5.9,2.9-2.9,4.7c17.5,10.4,30.9,26.6,37.8,46.2
		C241.1,411.8,246.4,410.6,245.2,407.2z"/>
	<path class="st5" d="M254,442.8c-0.7-3.5-6-2.3-5.3,1.3c4.1,19.8,5.3,39.8,3.7,59.9c-0.3,3.6,5.2,3.7,5.4,0.2
		C259.6,483.5,258.3,463,254,442.8z"/>
	<path class="st5" d="M614.5,427.5c-1.1-3.4-6.4-2.1-5.3,1.3c15.8,47.7,25.3,97.4,28.1,147.7c0.2,3.6,5.7,3.8,5.4,0.2
		C639.9,525.8,630.5,475.7,614.5,427.5z"/>
	<path class="st4" d="M922.2,677.2c0,0,10.8,4.8,25.1-7.1c7.6-6.3,9.3-17.7,9.1-26.9c-0.1-8.4-5-16-12.4-19.7l-90.3-44.4
		c-7.2-3.6-15.8-2.8-22.3,2c-10.3,7.7-23.2,20.6-18.5,35.1C820.6,639.4,922.2,677.2,922.2,677.2z"/>
	<path class="st5" d="M639.7,630.4c-0.1-3.6-5.6-3.8-5.4-0.2c0.5,13.9,1.1,27.9,1.6,41.8c0.1,3.6,5.6,3.8,5.4,0.2L639.7,630.4z"/>
	<path class="st5" d="M799.7,643.7c-1.5-3.3-6.3-0.7-4.8,2.6c5.7,12.8,7.6,26.5,5.4,40.4c-0.6,3.5,4.7,5.1,5.2,1.6
		C808,672.9,806.1,657.9,799.7,643.7z"/>
	<path class="st5" d="M938.7,671.5c-22,19.8-45.6-16.7-62.8-26.5c-10.1-5.8-21.4-6.4-32.5-8.7c-11.2-2.4-23.7-8.3-25-21.3
		c-0.4-3.6-5.7-2.3-5.3,1.3c1.1,11.2,10,18.8,19.7,22.8c14.6,5.9,30.7,3.9,44.1,13.2c12,8.3,20.9,20.8,34.4,27
		c10.3,4.7,22.4,4.3,31.1-3.5C945,673.3,941.3,669.2,938.7,671.5z"/>
	<path class="st5" d="M904.3,637.9c-11.4-9.4-24.4-16.1-38.5-20.1c-3.4-0.9-5,4.4-1.6,5.4c13.7,3.8,26.1,10.4,37.1,19.5
		C904.2,644.9,907,640.1,904.3,637.9z"/>
	<path class="st5" d="M928.6,656.6c-2.9-3-5.9-6.1-8.8-9.1c-2.5-2.6-6.5,1.2-4,3.8c2.9,3,5.9,6.1,8.8,9.1
		C927.1,663,931.1,659.2,928.6,656.6z"/>
	<path class="st5" d="M562.2,527.3c-1.7-30.8-4.2-61.5-7.4-92.1c-0.4-3.6-5.7-2.3-5.3,1.3c11.6,109.6,13.2,220.3,4.7,330.2
		c-2.4,30.9-5.6,61.8-9.6,92.6c-0.5,3.6,5,3.7,5.4,0.2C564.1,749.4,568.3,638.1,562.2,527.3z"/>
	<path class="st5" d="M536.1,852.1c-1.3-4.4-6-7.2-10.4-6.1c-0.8,0.2-1.3,0.6-1.6,1.1c-0.6,0-1.2,0.2-1.8,0.7
		c-2.9,2.8-3.5,7.5-1.5,11.1c2.1,3.8,6.6,5,10.4,3.3C535,860.5,537.4,856.2,536.1,852.1z"/>
	<path class="st5" d="M544.5,782.2c-1.3-4.4-6-7.2-10.4-6.1c-0.8,0.2-1.3,0.6-1.6,1.1c-0.6,0-1.2,0.2-1.8,0.7
		c-2.9,2.8-3.5,7.5-1.5,11.1c2.1,3.8,6.6,5,10.4,3.3C543.4,790.7,545.8,786.4,544.5,782.2z"/>
	<path class="st5" d="M550.9,713.2c-1.3-4.4-6-7.2-10.4-6.1c-0.8,0.2-1.3,0.6-1.6,1.1c-0.6,0-1.2,0.2-1.8,0.7
		c-2.9,2.8-3.5,7.5-1.5,11.1c2.1,3.8,6.6,5,10.4,3.3C549.8,721.6,552.1,717.4,550.9,713.2z"/>
	<path class="st5" d="M553.9,637.4c-1.3-4.4-6-7.2-10.4-6.1c-0.8,0.2-1.3,0.6-1.6,1.1c-0.6,0-1.2,0.2-1.8,0.7
		c-2.9,2.8-3.5,7.5-1.5,11.1c2.1,3.8,6.6,5,10.4,3.3C552.8,645.9,555.2,641.6,553.9,637.4z"/>
	<path class="st5" d="M553.9,563.8c-1.3-4.4-6-7.2-10.4-6.1c-0.8,0.2-1.3,0.6-1.6,1.1c-0.6,0-1.2,0.2-1.8,0.7
		c-2.9,2.8-3.5,7.5-1.5,11.1c2.1,3.8,6.6,5,10.4,3.3C552.8,572.2,555.2,568,553.9,563.8z"/>
	<path class="st5" d="M548.4,480.1c-1.3-4.4-6-7.2-10.4-6.1c-0.8,0.2-1.3,0.6-1.6,1.1c-0.6,0-1.2,0.2-1.8,0.7
		c-2.9,2.8-3.5,7.5-1.5,11.1c2.1,3.8,6.6,5,10.4,3.3C547.3,488.5,549.7,484.3,548.4,480.1z"/>
	<path class="st5" d="M544.1,414.6c-1.3-4.4-6-7.2-10.4-6.1c-0.8,0.2-1.3,0.6-1.6,1.1c-0.6,0-1.2,0.2-1.8,0.7
		c-2.9,2.8-3.5,7.5-1.5,11.1c2.1,3.8,6.6,5,10.4,3.3C543,423.1,545.4,418.8,544.1,414.6z"/>
	<path class="st5" d="M453.5,983.9c-6.1,11.8-15.3,21.1-27,27.1c-3.1,1.6-0.6,6.6,2.5,4.9c12.5-6.4,22.5-16.4,29.1-29.1
		C459.8,983.7,455.2,980.7,453.5,983.9z"/>
	<path class="st5" d="M332.1,949.6c-6.6,6.5-13.3,13.1-19.9,19.6c-2.5,2.5,1.2,6.6,3.7,4.1c6.6-6.5,13.3-13.1,19.9-19.6
		C338.3,951.2,334.6,947.1,332.1,949.6z"/>
	<path class="st5" d="M504.9,646c-44.5-3.8-89-7.6-133.5-11.3c-3.5-0.3-3.7,5.3-0.2,5.6c44.5,3.8,89,7.6,133.5,11.3
		C508.3,651.9,508.4,646.3,504.9,646z"/>
	<path class="st8" d="M130.4,458.7c-3.3-8.9-6.5-17.7-9.8-26.6c-2-5.3-9.6-1.1-7.6,4.1c3.3,8.9,6.5,17.7,9.8,26.6
		C124.7,468.1,132.3,464,130.4,458.7z"/>
	<path class="st8" d="M211.6,529.9l-18.4,7.6c-5.1,2.1-1.1,10,4,7.9l18.4-7.6C220.7,535.6,216.6,527.8,211.6,529.9z"/>
	<path class="st8" d="M173.7,629.7L159.9,615c-3.9-4.1-9.3,2.8-5.5,6.8l13.8,14.7C172.1,640.6,177.5,633.7,173.7,629.7z"/>
	<path class="st8" d="M128.4,531.1c-2.9,8.9-5.7,17.7-8.6,26.6c-1.7,5.4,6.5,8,8.2,2.5c2.9-8.9,5.7-17.7,8.6-26.6
		C138.4,528.2,130.2,525.7,128.4,531.1z"/>
	<path class="st8" d="M87,630.3c-5.7-7.6-11.3-15.3-17-22.9c-3.4-4.5-9.7,1.5-6.3,6c5.7,7.6,11.3,15.3,17,22.9
		C84,640.8,90.3,634.8,87,630.3z"/>
	<path class="st8" d="M70.2,526.7c-6.5,1.2-13.1,2.3-19.6,3.5c1-3.2,2.1-6.4,3.1-9.5c4.9-0.9,9.7-1.7,14.6-2.6
		C73.7,517.1,75.7,525.8,70.2,526.7z"/>
	<path class="st8" d="M192.4,402.7c-4.7,10.2-9.4,20.4-14.2,30.7c-2.4,5.1,4.9,9.8,7.3,4.7c4.7-10.2,9.4-20.4,14.2-30.7
		C202.1,402.3,194.8,397.6,192.4,402.7z"/>
	<path class="st8" d="M172,357.9c0,5.7-8.5,4.6-8.5-1c0-5.3,0-10.6,0-15.9c2.8-1.8,5.7-3.6,8.5-5.3
		C171.9,343.1,171.9,350.5,172,357.9z"/>
	<path class="st8" d="M287.4,327.8c-8.6-3.9-17.1-7.8-25.7-11.7c-5-2.3-7.5,6.2-2.5,8.5c8.6,3.9,17.1,7.8,25.7,11.7
		C290,338.6,292.4,330.1,287.4,327.8z"/>
	<path class="st8" d="M344.9,295c-3.4,6.8-6.8,13.6-10.2,20.5c-2.5,5-10.6,2-8.1-3c2.9-5.8,5.8-11.7,8.7-17.5h0
		C338.7,295,341.9,295,344.9,295z"/>
	<path class="st8" d="M311.3,468.5c-7.4,3.3-14.8,6.5-22.2,9.8c-5.1,2.3-1.1,10.1,4,7.9c7.4-3.3,14.8-6.5,22.2-9.8
		C320.4,474.1,316.4,466.2,311.3,468.5z"/>
	<path class="st8" d="M315,402c-1.5-8.2-2.9-16.4-4.4-24.5c-1-5.6-9.3-3.3-8.3,2.3c1.5,8.2,2.9,16.4,4.4,24.5
		C307.7,410,316,407.6,315,402z"/>
	<path class="st8" d="M295.5,589.1c-4-8-8.1-16.1-12.1-24.1c-2.5-5.1-10.2-0.9-7.6,4.1c4,8,8.1,16.1,12.1,24.1
		C290.4,598.3,298,594.2,295.5,589.1z"/>
	<path class="st8" d="M261.1,657.7c-6.1,7.6-12.2,15.2-18.3,22.9c-3.5,4.4,3.8,9,7.3,4.7c6.1-7.6,12.2-15.2,18.3-22.9
		C271.9,658,264.6,653.4,261.1,657.7z"/>
	<path class="st8" d="M216.5,723l-14.1-28.2c-2.5-5.1-10.1-1-7.6,4.1c4.7,9.4,9.4,18.8,14.1,28.2C211.4,732.2,219,728.1,216.5,723z"
		/>
	<path class="st8" d="M94.8,706.7c-6.5,5.9-13.1,11.8-19.6,17.8c-4.2,3.8,1.7,10.3,5.8,6.5c6.5-5.9,13.1-11.8,19.6-17.8
		C104.8,709.4,99,702.9,94.8,706.7z"/>
	<path class="st8" d="M27.1,697.5c-6.9,2-13.8,4.1-20.6,6.1c0.6-3.2,1.2-6.5,1.9-9.8l16.8-5C30.5,687.3,32.4,696,27.1,697.5z"/>
	<path class="st8" d="M170.9,780.3c-8.6-3.1-17.1-6.1-25.7-9.2c-5.2-1.9-7.7,6.6-2.5,8.5c8.6,3.1,17.1,6.1,25.7,9.2
		C173.7,790.7,176.2,782.2,170.9,780.3z"/>
	<path class="st8" d="M83.1,806.4c-2.3,7.6-4.7,15.3-7,22.9c-1.7,5.4,6.6,8,8.2,2.5c2.3-7.6,4.7-15.3,7-22.9
		C93,803.5,84.7,801,83.1,806.4z"/>
	<path class="st8" d="M590.8,395.5c-4.8-5.1-9.7-10.3-14.5-15.4c-3.8-4.1-10.2,1.9-6.3,6c4.8,5.1,9.7,10.3,14.5,15.4
		C588.3,405.6,594.6,399.6,590.8,395.5z"/>
	<path class="st8" d="M600.3,491.7c-5.3,4.2-10.7,8.4-16,12.6c-4.4,3.5,1.5,10,5.8,6.5c5.3-4.2,10.7-8.4,16-12.6
		C610.6,494.7,604.7,488.2,600.3,491.7z"/>
	<path class="st8" d="M697.6,486.7c-3.3,5.2-6.7,10.3-10,15.5c-3.1,4.7-10.4,0.1-7.3-4.7c4-6.2,8-12.3,12-18.5
		C694,481.5,695.8,484.1,697.6,486.7z"/>
	<path class="st8" d="M723.8,585.3c-2.1-9.3-4.2-18.6-6.3-27.8c-1.3-5.6-9.6-3.6-8.4,2c2.1,9.3,4.2,18.6,6.3,27.8
		C716.7,592.8,725.1,590.8,723.8,585.3z"/>
	<path class="st8" d="M713.5,644.7c-7.8-5.1-15.5-10.2-23.3-15.2c-4.7-3.1-9.2,4.5-4.6,7.5c7.8,5.1,15.5,10.2,23.3,15.2
		C713.7,655.2,718.2,647.7,713.5,644.7z"/>
	<path class="st8" d="M611.6,593.2c-3.2-7.6-6.4-15.3-9.6-22.9c-2.2-5.2-9.8-1.1-7.6,4.1c3.2,7.6,6.4,15.3,9.6,22.9
		C606.2,602.6,613.8,598.4,611.6,593.2z"/>
	<path class="st8" d="M606.7,673.1c-6.5,4.7-13,9.5-19.5,14.2c-4.5,3.3,1.4,9.8,5.8,6.5c6.5-4.7,13-9.5,19.5-14.2
		C617,676.3,611.1,669.8,606.7,673.1z"/>
	<path class="st8" d="M587.4,794.1c-2.9,5.9-5.7,11.8-8.6,17.7c-2.5,5.1,4.8,9.8,7.3,4.7c2.9-5.9,5.7-11.8,8.6-17.7
		C597.1,793.7,589.9,789,587.4,794.1z"/>
	<path class="st8" d="M251.6,761.7c2.3,6.2,4.5,12.4,6.8,18.5c1.9,5.3,10.2,3,8.3-2.3c-2.3-6.2-4.5-12.4-6.8-18.5
		C257.9,754.1,249.6,756.3,251.6,761.7z"/>
	<path class="st8" d="M729.5,696.4c-5.4,8-10.7,16-16.1,24c-3.1,4.7,4.1,9.4,7.3,4.7c5.4-8,10.7-16,16.1-24
		C739.9,696.4,732.6,691.7,729.5,696.4z"/>
	<path class="st8" d="M826.9,742.3c-9.9-3.1-19.8-6.3-29.7-9.4c-5.3-1.7-7.8,6.8-2.5,8.5c9.9,3.1,19.8,6.3,29.7,9.4
		C829.7,752.4,832.2,743.9,826.9,742.3z"/>
	<path class="st8" d="M875.9,678.8c-5.3,7.2-10.6,14.4-16,21.5c-3.4,4.5,4,9.2,7.3,4.7c5.3-7.2,10.6-14.4,16-21.5
		C886.5,679,879.2,674.3,875.9,678.8z"/>
	<path class="st8" d="M788,617.9c-2.7,7.9-5.4,15.9-8,23.8c-1.8,5.4-10.1,2.8-8.2-2.5c3.4-10,6.8-20,10.1-30.1
		C783.9,612,785.9,615,788,617.9z"/>
	<path class="st8" d="M169.2,946.2c-4.1-6.7-8.2-13.5-12.4-20.2c-2.9-4.8-10.6-0.7-7.6,4.1c4.1,6.7,8.2,13.5,12.4,20.2
		C164.5,955.1,172.1,951,169.2,946.2z"/>
	<path class="st8" d="M216.6,979.6c-7.4-3.4-14.7-6.8-22.1-10.1c-5-2.3-7.5,6.2-2.5,8.5c7.4,3.4,14.7,6.8,22.1,10.1
		C219.2,990.4,221.6,981.9,216.6,979.6z"/>
	<path class="st8" d="M133.6,986.3c-5.7,3.8-11.5,7.6-17.2,11.4c-4.6,3.1-0.7,10.9,4,7.9c5.7-3.8,11.5-7.6,17.2-11.4
		C142.2,991.1,138.3,983.2,133.6,986.3z"/>
	<g>
		<polygon class="st9" points="1031.1,455.1 1082.6,315.4 1062.5,316.3 1016.3,444.1 		"/>
		<polygon class="st10" points="1054.7,465 1106.1,325.3 1082.6,315.4 1031.1,455.1 		"/>
	</g>
	<path class="st3" d="M1096.3,413.9c1.4-3.8,3.2-6.8,2.7-11.1c-0.3-2.3-1.4-3.8-2-5.8c-0.6-2.1-0.2-2.5,0.4-5
		c1.3-5.8-0.4-12.7-5.1-15.7c-5.9-4.8-10.9,0.4-10.6,3.9c0.2,3,2.1,5.6,5.3,5.7c0.6,0-1,6.4-1.1,7.2c-0.4,2.3-0.5,4.4,0.3,6.7
		c1,2.9,2.8,3.7,1.3,7.2c-0.9,2-2.5,3.3-3,5.6c-0.5,2.3,0.2,4.4,0.6,6.6c0.4,2.5,0.1,4.6-0.9,6.6c1.3-4.1-2.6-8.6-6.4-7.4
		c0.6-0.9,0.8-1.9,0.8-2.9c2.5-1.3,3.3-5,2.1-7.4c-1.5-2.9-4.3-2.2-1.5-2.9c19.5-4.5,14.7-27.7,8.1-30.4
		c-5.5-2.2-31.8,14.7-34.4,23.1c-0.9,3,0.9,6,3.7,6.9c0.7,0.2,1.3,0.4,1.9,0.5c-2,2.7-3.7,5.9-3,9.2c0.8,3.9,3.7,6,7.1,6.4
		c-1.9,3.1-3.3,6.5-3.7,10.3c-0.3,3.1,2.5,5.6,5.3,5.7c0.3,0,0.7,0,1,0c-1.4,1.8-2.5,3.9-3.4,6.1c-1.4,3.5,1.9,7,5.1,7.2
		c8.2,0.5,16.2-6,21.6-11.8c3.5-3.7,6.5-8.3,7.7-13.4C1097,421.3,1095.1,417.3,1096.3,413.9z M1079.7,432c-0.1-0.2-0.2-0.3-0.4-0.5
		c1.3-1,2.4-2.1,3.5-3.3c-0.3,0.4-0.6,0.8-0.9,1.3C1081.3,430.2,1080.5,431.1,1079.7,432z"/>
	<path class="st5" d="M1085.4,407.6c-4.8,4-9.7,8.1-14.5,12.1c-2.7,2.3,1,6.4,3.7,4.1c4.8-4,9.7-8.1,14.5-12.1
		C1091.8,409.4,1088.1,405.3,1085.4,407.6z"/>
	<path class="st5" d="M1086.1,427.8l-12.8,7.2c-3.1,1.7-0.5,6.7,2.5,4.9c4.3-2.4,8.6-4.8,12.9-7.2
		C1091.7,431,1089.1,426,1086.1,427.8z"/>
	<path class="st3" d="M1058.1,368.9c-2.8-11.9-18.2-8.5-26-5.3c-10,4.1-24.2,12.1-29.1,22.6c-3,6.4,6.3,12.4,9.2,5.9
		c0.5-1.2,1.2-2.3,2-3.4c-0.3,2,0.8,4,2.5,5.3c-1.7,1.1-3.2,2.3-4.7,3.6c-5.2,4.8,2.2,13,7.4,8.2c5.4-5,16-10.1,23-15.2
		C1048.8,386.1,1060.2,378.3,1058.1,368.9z"/>
	<path class="st5" d="M1080.1,387.3c-3.4,3.4-6.7,6.8-10.1,10.2c-2.5,2.5,1.2,6.6,3.7,4.1c3.4-3.4,6.7-6.8,10.1-10.2
		C1086.3,388.9,1082.6,384.8,1080.1,387.3z"/>
	<path class="st3" d="M1039.8,387.3l-6.9,32.8c0,0-11.6,12.3-12.6,12.8c-1,0.4-17.9,4.4-17.9,4.4l6.1-31.9L1039.8,387.3z"/>
	<path class="st5" d="M1041.5,390.4c-11.8,4-8.3,17.8-13,27.2c-5.7,11.4-17.6,18.3-30,17.5c-3.5-0.2-3.7,5.4-0.2,5.6
		c10.2,0.6,20.1-3.2,27.6-10.4c3.4-3.3,6.3-7.4,8.2-11.8c2.7-6.1,1.7-20.3,8.6-22.6C1046,394.7,1044.8,389.2,1041.5,390.4z"/>
</g>
<g>
	<g>
		<g>
			
				<rect x="1305.9" y="736.7" transform="matrix(-1 -1.224647e-16 1.224647e-16 -1 2792.5938 1521.5214)" class="st11" width="180.8" height="48"/>
			
				<rect x="1305.9" y="832.8" transform="matrix(-1 -1.224647e-16 1.224647e-16 -1 2792.5938 1713.6833)" class="st11" width="180.8" height="48"/>
			
				<rect x="1302" y="928.9" transform="matrix(-1 -1.224647e-16 1.224647e-16 -1 2784.7341 1905.8453)" class="st11" width="180.8" height="48"/>
			
				<rect x="1302" y="1025" transform="matrix(-1 -1.224647e-16 1.224647e-16 -1 2784.7341 2098.0073)" class="st9" width="180.8" height="48"/>
			
				<rect x="1302" y="1121.1" transform="matrix(-1 -1.224647e-16 1.224647e-16 -1 2784.7341 2290.1692)" class="st11" width="180.8" height="48"/>
			
				<rect x="1302" y="1217.1" transform="matrix(-1 -1.224647e-16 1.224647e-16 -1 2784.7341 2482.3313)" class="st11" width="180.8" height="48"/>
			
				<rect x="1357.8" y="784.8" transform="matrix(-1 -1.224647e-16 1.224647e-16 -1 2791.8018 1617.6024)" class="st12" width="76.2" height="48"/>
			
				<rect x="1366.2" y="880.9" transform="matrix(-1 -1.224647e-16 1.224647e-16 -1 2792.5935 1809.7643)" class="st9" width="60.3" height="48"/>
			
				<rect x="1302" y="976.9" transform="matrix(-1 -1.224647e-16 1.224647e-16 -1 2664.218 2001.9264)" class="st12" width="60.3" height="48"/>
			
				<rect x="1362.2" y="1073" transform="matrix(-1 -1.224647e-16 1.224647e-16 -1 2784.7339 2194.0884)" class="st12" width="60.3" height="48"/>
			
				<rect x="1362.2" y="1169.1" transform="matrix(-1 -1.224647e-16 1.224647e-16 -1 2784.7339 2386.2502)" class="st12" width="60.3" height="48"/>
			<polygon class="st13" points="1302.5,1217.1 1362.2,1217.1 1362.2,1201.5 1307.9,1201.5 			"/>
			<polygon class="st13" points="1482.8,1121.2 1422.5,1120.9 1422.6,1105 1477.3,1105.4 			"/>
			<polygon class="st13" points="1302,928.9 1366.2,928.9 1366.2,913.2 1307.9,913.2 			"/>
			<polygon class="st13" points="1482.8,929.2 1426.4,928.8 1426.5,913 1477.7,913.3 			"/>
			<polygon class="st13" points="1305.9,737 1311.8,725.9 1477.8,725.9 1486.7,737.2 1370.1,736.7 1370.1,737 			"/>
			
				<rect x="1105.8" y="1253" transform="matrix(-1 -5.718755e-03 5.718755e-03 -1 2379.2126 2551.9255)" class="st11" width="174.8" height="39"/>
			<polygon class="st13" points="1105.9,1252.8 1111.7,1243.7 1166.8,1244.1 1166.8,1243.7 1272.2,1244.7 1280.8,1253.9 
				1168,1252.9 1168,1253.1 			"/>
			
				<rect x="1410.5" y="1378.5" transform="matrix(-1 -5.718731e-03 5.718731e-03 -1 2993.741 2805.8289)" class="st9" width="180.8" height="40.4"/>
			<polygon class="st10" points="1410.6,1378.2 1416.5,1368.8 1473.5,1369.2 1473.5,1368.8 1582.6,1369.8 1591.4,1379.3 
				1474.8,1378.3 1474.8,1378.5 			"/>
			
				<rect x="1525" y="1080.3" transform="matrix(-0.9985 -5.510019e-02 5.510019e-02 -0.9985 3167.6843 2288.197)" class="st11" width="180.8" height="40.4"/>
			<polygon class="st13" points="1526.2,1075.5 1532.6,1066.5 1589.5,1069.6 1589.5,1069.3 1698.4,1075.7 1706.7,1085.6 
				1590.3,1078.8 1590.3,1079.1 			"/>
			<polygon class="st10" points="1422.5,1025 1362.2,1025.1 1362.2,1009.2 1422.5,1009.2 			"/>
			
				<rect x="1302" y="1073" transform="matrix(-1 -1.224647e-16 1.224647e-16 -1 2664.218 2194.0884)" class="st12" width="60.3" height="48"/>
			
				<rect x="1422.5" y="1169.1" transform="matrix(-1 -1.224647e-16 1.224647e-16 -1 2905.25 2386.2502)" class="st9" width="60.3" height="48"/>
			
				<rect x="1422.5" y="976.9" transform="matrix(-1 -1.224647e-16 1.224647e-16 -1 2905.25 2001.9264)" class="st12" width="60.3" height="48"/>
			
				<rect x="1305.9" y="784.8" transform="matrix(-1 -1.224647e-16 1.224647e-16 -1 2672.0774 1617.6024)" class="st12" width="60.3" height="48"/>
		</g>
		<g>
			<polygon class="st9" points="1051.2,1284.4 1192.3,1222.7 1177,1207.7 1048.6,1264.7 			"/>
			<polygon class="st10" points="1060.9,1310.1 1202,1248.4 1192.3,1222.7 1051.2,1284.4 			"/>
		</g>
	</g>
</g>
<g>
	<path class="st3" d="M2515.7,1262.3l48.2-12.3c0,0,9.6-30.6,47.9-25.7c38.3,5,42.7,51.5,61.1,60.6c5.6,2.8,16.5,2.8,29.4,1.9
		c5.1-0.4,10-1.8,14.5-4.1c0,0,0,0,0.1,0c17.8-8.7,33.3-4.3,40.3-1.4c12.3-0.8,22.6-0.5,27.8,2.3c3.4,1.9,2.8,5.4-1.2,9.8
		c2,2.4,1.8,6.4-1.3,8.3c-3.3,2.1-7.6,3.8-12.1,4.9c13,2.8-0.1,10.5-10.3,14.3c-21.1,8-42.9,11.5-65.1,14.5
		c-21.7,2.9-46.7,5.6-70,2.2c-13.4,0-27.3-0.8-41.7-2.4l-84.9,9.7L2515.7,1262.3z"/>
	<path class="st12" d="M2224,956.2c0,0-559.3,154.4-582.5,329.3c-23.2,174.9,236.7,79.4,249.9,75.4s-126.6,291,669.5,0l-24.4-100.5
		c0,0,306-72.6,128.6-331.6L2224,956.2z"/>
	<path class="st5" d="M2282.5,68.2c0,0,76.6-79.3,166.9-22c74.5,47.3,78.3,214.3,135.8,290.9c30.9,41.2-10,105.3-116.7,94
		C2361.8,419.9,2399,172,2399,172L2282.5,68.2z"/>
	<path class="st9" d="M2595.3,702.9c0,0,130.6,212.6,88.5,242.3c-200.9,142-489.2,19.9-489.2,19.9s-12.9-68.5,62.2-256.1
		C2274.7,664,2595.3,702.9,2595.3,702.9z"/>
	<path class="st9" d="M2292.9,813.3c0,0-280.4,118.1-186.9-104.6c35.5-84.6,72.1-329.6,262.1-375.5c110.7-26.7,191.2,3.5,242.9,37.6
		c183.5,120.9,84.3,487.4,42.6,530c-122.4,125-236.5-6.2-236.5-6.2l-75.1-60.3L2292.9,813.3z"/>
	<path class="st5" d="M2435.6,65.2c0,0,104.5,85.2,19.1,175.3C2383.8,315.2,2435.6,65.2,2435.6,65.2z"/>
	<path class="st3" d="M2246,214.4c-0.1,0.9-0.1,1.9,0.2,2.9c9.6,38.1,29.1,65.8,59.7,88.4c14.3,10.5,44.8,14.9,61.1,8.5
		c20.4-8.1,27.3-22,39.1-35.3c14-15.9,17.4-21.3,25.5-41.5c0.7-1.8,0.9-3.8,0.4-5.6c7.2-12.5,10.6-27.4,11.8-42.1
		c1.7-20.6-0.2-41.9-6.2-61.7c-5.9-19.3-15.9-37.7-30.2-51.3c-12.5-11.9-28.5-20.1-45-22.8c-14.8-2.5-30.1-0.9-43.5,5.7
		c-28.5,6.5-53.1,27.5-67.5,54.5c-4.7,8.7-8.2,18.1-10.5,27.9c-0.5,2.1-0.9,4.2-1.3,6.3c-0.4,2.3-0.7,4.6-1,6.9
		c-0.2,1.7-0.4,3.3-0.5,5c0,0.2,0,0.4,0,0.6c-0.1,1.9-0.2,3.8-0.2,5.6c0,0.3,0,0.6,0,0.9C2237.8,183.2,2241,199.3,2246,214.4z"/>
	<path class="st3" d="M2444.5,160.5c-10.7-0.2-19.5,3.4-19.3,7.2c1.1,9.4,5.3,16.9,6.4,26.3l-7.1,10.9c-0.5,0.4-0.9,1-1.1,1.7
		l-60.9,94.3c2.6,5.1,15.8,52.8,15.8,52.8l0,0c32.2,9.8,66.8,4.1,94.7-15.6l11.5-8.1l-39.9-122.5c3.4-1.7,6.5-4.1,9-7.3
		c6-7.5,12.4-19.6,6.4-30.1C2455.3,161.8,2447.3,160.5,2444.5,160.5z"/>
	<path class="st5" d="M2417.2,242.9c-9.2,22-22.9,41.3-40.1,56.6c-2.3,2.1,0.5,6.2,2.8,4.1c17.8-15.8,32.1-35.9,41.6-58.6
		C2422.8,242,2418.5,239.9,2417.2,242.9z"/>
	<path class="st5" d="M2292.4,175.8c0.9,10.4-0.9,20.7-5.1,30c-1.7,3.8,3.9,6.3,5.6,2.6c4.7-10.4,6.6-21.8,5.5-33.4
		C2298,170.8,2292,171.6,2292.4,175.8z"/>
	<path class="st5" d="M2331.4,161.2c-2.4-0.3-4.6,1.3-5.5,3.7c0,0.1-0.1,0.2-0.1,0.3c-0.3,0.5-0.5,1.1-0.5,1.9
		c0.2,5,1.3,12.9,5.9,15.6c2,1.2,4.4,0.8,5.9-1c1.7-2,1.6-4.7,1.3-7.3C2337.9,170.1,2336.6,161.9,2331.4,161.2z"/>
	<path class="st5" d="M2261.7,173.2c-2.4-0.3-4.6,1.3-5.5,3.7c0,0.1-0.1,0.2-0.1,0.3c-0.3,0.5-0.5,1.1-0.5,1.9
		c0.2,5,1.3,12.9,5.9,15.6c2,1.2,4.4,0.8,5.9-1c1.7-2,1.6-4.7,1.3-7.3C2268.2,182.1,2267,173.9,2261.7,173.2z"/>
	<path class="st14" d="M2280,255.9c0,0,34.3,7.5,77.1-30c0,0,6.3,42.8-28.6,56.8C2297.4,295.1,2280,255.9,2280,255.9z"/>
	<path class="st9" d="M2445,195.8c-3.6,2.1-4.5,8-1.6,11.2c1.1,1.7,2.9,2.9,4.8,3.1c4.5,0.4,7.9-4.8,6.7-9.3
		C2453.9,196.3,2448.8,193.6,2445,195.8z"/>
	<path class="st5" d="M2329.3,126c-8.5-1.9-22.3-0.3-27.8,7.7c-2.2,3.3,0.5,8.4,4.8,9.5c4.8,1.2,10.1-1.7,14.7-2.1
		c15.6-1.4,27.4,4.9,31.4,6.7c5.1,1.7,6.1-3.1,4-5.4C2349,133.9,2340.1,128.4,2329.3,126z"/>
	<path class="st5" d="M2237.9,166.3c6-5,12.8-8.8,19.9-11.9c4-1.8,9.4-3.1,10.8-8.3c1.1-4.2-1.8-7.5-5.4-8.5
		c-8.3-2.3-17.6,5.4-23.5,10.7c-0.4,2.3-0.7,4.6-1,6.9c-0.2,1.7-0.4,3.3-0.5,5c0,0.2,0,0.4,0,0.6
		C2238,162.6,2237.9,164.5,2237.9,166.3z"/>
	<path class="st5" d="M2378.2,46.3c-0.7-0.2-19.1-20-37.1-13.9C2242.9,65.2,2244,131,2244,131c8.7-23.1,37.4-53.1,37.4-53.1
		c74.7,77,163.1,82.6,163.1,82.6c8.7-14.4,5.7-41.8-8-66.7C2432.2,93.2,2381.9,47.3,2378.2,46.3z"/>
	<path class="st5" d="M2606.2,377.4c-20.3,3.3-37.2,17.7-45.1,37.8c-1.4,3.5,3.9,5.3,5.3,1.8c7.1-18.2,22.7-30.9,40.9-33.8
		C2610.9,382.6,2609.7,376.8,2606.2,377.4z"/>
	<path class="st5" d="M2277.4,382.1c-13.2,24.8-20.2,52.5-20.4,81c0,3.8,5.5,4.1,5.6,0.2c0.2-27.5,6.8-54.2,19.5-78.1
		C2283.9,382,2279.2,378.7,2277.4,382.1z"/>
	<path class="st5" d="M2456.3,174.4c-5-11.2-18.9-12-25.3-1.8c-2,3.2,2.7,6.4,4.7,3.2c4.1-6.6,12.5-5.8,15.6,1.3
		C2452.9,180.6,2457.8,177.8,2456.3,174.4z"/>
	<path class="st15" d="M2322.7,376.8c-7.3,0-7.7,11.7-0.3,11.7C2329.7,388.5,2330.1,376.8,2322.7,376.8z"/>
	<path class="st15" d="M2386.2,448.4c-7.3,0-7.7,11.7-0.3,11.7C2393.2,460.1,2393.6,448.4,2386.2,448.4z"/>
	<path class="st15" d="M2507,370.3c-7.3,0-7.7,11.7-0.3,11.7C2514,382,2514.4,370.3,2507,370.3z"/>
	<path class="st15" d="M2490.5,479.6c-7.3,0-7.7,11.7-0.3,11.7C2497.5,491.3,2497.8,479.6,2490.5,479.6z"/>
	<path class="st15" d="M2303.6,516.1c-7.3,0-7.7,11.7-0.3,11.7C2310.6,527.8,2311,516.1,2303.6,516.1z"/>
	<path class="st15" d="M2390,569.4c-7.3,0-7.7,11.7-0.3,11.7C2397,581.2,2397.4,569.4,2390,569.4z"/>
	<path class="st15" d="M2311.6,715.7c-7.3,0-7.7,11.7-0.3,11.7C2318.7,727.4,2319,715.7,2311.6,715.7z"/>
	<path class="st15" d="M2531.1,578.6c-7.3,0-7.7,11.7-0.3,11.7C2538.1,590.3,2538.5,578.6,2531.1,578.6z"/>
	<path class="st15" d="M2270.5,596.8c-7.3,0-7.7,11.7-0.3,11.7C2277.6,608.5,2277.9,596.8,2270.5,596.8z"/>
	<path class="st15" d="M2423,648.6c-7.3,0-7.7,11.7-0.3,11.7C2430,660.3,2430.3,648.6,2423,648.6z"/>
	<path class="st15" d="M2575.9,714.5c-1-1.1-2.6-1.9-4-1.9c-1.5,0-3,0.5-4,1.5c-1.1,1.1-1.8,2.5-1.8,4.1v1.3c0,1.5,0.5,3,1.5,4.1
		c1,1.1,2.6,1.9,4,1.9c1.5,0,3-0.5,4-1.5c1.1-1.1,1.8-2.5,1.8-4.1v-1.3C2577.4,717.1,2576.9,715.6,2575.9,714.5z"/>
	<path class="st15" d="M2274.6,781.8c-7.3,0-7.7,11.7-0.3,11.7C2281.6,793.5,2282,781.8,2274.6,781.8z"/>
	<path class="st15" d="M2643,454.9c-7.3,0-7.7,11.7-0.3,11.7C2650,466.6,2650.4,454.9,2643,454.9z"/>
	<path class="st15" d="M2640.5,609.8c-7.3,0-7.7,11.7-0.3,11.7C2647.5,621.5,2647.8,609.8,2640.5,609.8z"/>
	<path class="st15" d="M2663.6,800.4c-1-1.1-2.6-1.9-4-1.9c-1.5,0-3,0.5-4,1.5c-1.1,1.1-1.8,2.5-1.8,4.1v1.3c0,1.5,0.5,3,1.5,4.1
		c1,1.1,2.6,1.9,4,1.9c1.5,0,3-0.5,4-1.5c1.1-1.1,1.8-2.5,1.8-4.1v-1.3C2665.1,803.1,2664.6,801.5,2663.6,800.4z"/>
	<path class="st15" d="M2572,831.7c-1-1.1-2.6-1.9-4-1.9c-1.5,0-3,0.5-4,1.5c-1.1,1.1-1.8,2.5-1.8,4.1v1.3c0,1.5,0.5,3,1.5,4.1
		c1,1.1,2.6,1.9,4,1.9c1.5,0,3-0.5,4-1.5c1.1-1.1,1.8-2.5,1.8-4.1v-1.3C2573.5,834.3,2573,832.8,2572,831.7z"/>
	<path class="st15" d="M2414.1,956.2c-1-1.1-2.6-1.9-4-1.9c-1.5,0-3,0.5-4,1.5c-1.1,1.1-1.8,2.5-1.8,4.1v1.3c0,1.5,0.5,3,1.5,4.1
		c1,1.1,2.6,1.9,4,1.9c1.5,0,3-0.5,4-1.5c1.1-1.1,1.8-2.5,1.8-4.1v-1.3C2415.6,958.9,2415.1,957.4,2414.1,956.2z"/>
	<path class="st15" d="M2637.9,877.9c-7.3,0-7.7,11.7-0.3,11.7C2644.9,889.6,2645.3,877.9,2637.9,877.9z"/>
	<path class="st15" d="M2154.9,711.3c-7.3,0-7.7,11.7-0.3,11.7C2161.9,723,2162.3,711.3,2154.9,711.3z"/>
	<path class="st15" d="M2185.4,552.5c-7.3,0-7.7,11.7-0.3,11.7C2192.4,564.2,2192.8,552.5,2185.4,552.5z"/>
	<path class="st15" d="M2235.2,439.9c-1.1-1.1-2.5-1.9-4-1.9h-1.3c-1.5,0-2.9,0.5-4,1.5c-1,1-1.9,2.7-1.8,4.1c0,1.5,0.4,3.1,1.5,4.1
		c1.1,1.1,2.5,1.9,4,1.9h1.3c1.5,0,2.9-0.5,4-1.5c1-1,1.9-2.7,1.8-4.1C2236.7,442.5,2236.2,441,2235.2,439.9z"/>
	<path class="st15" d="M2189.2,782.9c-7.3,0-7.7,11.7-0.3,11.7C2196.2,794.6,2196.6,782.9,2189.2,782.9z"/>
	<path class="st3" d="M1730.9,634.5l-16.8,23.7c0,0,24.2,36.5,28.1,62.7c1.8,12.4,68.4,49.7,72.6,48.2c4.2-1.5,42-36.9,42-36.9
		S1798,637,1730.9,634.5z"/>
	<path class="st3" d="M1746.1,636.6c0,0-58.8-11.2-74.4-4.4c-16.2,7.1,66,20,66,20L1746.1,636.6z"/>
	<path class="st3" d="M1736.7,655.7c0,0-68.4-5.6-80.4,7.6c-12,13.2,68.4,7.5,68.4,7.5L1736.7,655.7z"/>
	<path class="st3" d="M1723.7,644.6c0,0-46-16.3-70.6,13.9c0,0-2.9,10,31.1,0.4c34-9.6,42.3,3.3,42.3,3.3L1723.7,644.6z"/>
	<path class="st3" d="M1832.7,699.5c0,0,147.9,40.4,244.7,13.1l22.6,132.9c0,0-126.8,3.8-285.3-76.4L1832.7,699.5z"/>
	
		<rect x="1572.5" y="681.3" transform="matrix(-1 -1.224647e-16 1.224647e-16 -1 3280.2595 1405.3776)" class="st12" width="135.4" height="42.7"/>
	<path class="st3" d="M1676.1,729.3c0,0,117,40.5,146,34.2l-65.8-42.3C1756.3,721.2,1669.7,712.9,1676.1,729.3z"/>
	<path class="st3" d="M1731.6,664.7c0,0-61.9,4.1-58.7,10.6c3.2,6.6,71.5,15.9,71.5,15.9L1731.6,664.7z"/>
	<path class="st3" d="M2477.4,1027.2l-84.4-56.9l-100.5,146c-63.2,7.2-97,20.9-113.5,36.2c-5.9,1.7-11.7,3.4-18,3.9
		c-4.8,0.4-14.4-0.6-17.5,4.5c-0.1,0.4-0.2,0.8-0.2,1.1c-0.1,0.3-0.1,0.4-0.1,0.5c0,0.2,0,0.5-0.1,0.9c-0.1,1.1-0.1,2.3-0.2,3.4
		c1.5,3.8,7,6,13.1,7.2c-9.4,6.1-18.9,12.1-28.3,18.2c-4.5,2.9-9.1,5.8-13,9.4c-3.8,3.6-6.7,8.3-11.6,10.6c-6,2.7-3.3,12.1,2.8,12.3
		c14.3,0.5,20.9-11.5,32.3-17.6c1.5-0.8,3.1-1.5,4.6-2.1c-9.5,8.9-18.2,19.2-29.4,26.1c-0.8,0.5-1.4,1.1-1.9,1.7
		c-6.7,3-3.8,14.5,3.8,12.3c12.5-3.6,22.6-11.3,33-18.9c0.5-0.3,1-0.7,1.4-1c-7,6.8-14,13.8-21.8,19.3c-1,0.7-1.8,1.6-2.3,2.6
		c-3.1,4.5-0.1,12.4,6.2,10.2c13.4-4.6,24.2-10.8,34.7-20.4c-2.6,4.3-4.7,8.8-8.3,12.2c-0.5,0.4-1,0.8-1.3,1.3
		c-4.9,5.4,2.8,13.9,8.7,9.4c12.7-6.2,23.3-15.7,34.1-24.8c1.5-1.2,2.9-2.4,4.4-3.6c7-2.8,14.8-4.3,21.3-6.1
		c13.3-3.6,26.9-6.5,40.5-8.6c7.9-1.2,16.2-2.6,24-4.9c12.5-2.2,24.1-7.4,32.9-17L2477.4,1027.2z"/>
	<path class="st5" d="M2185.4,1173.5c7.7,10.4,17.9,17.8,30.1,21.7c3.3,1.1,1.6,6.2-1.7,5.2c-12.9-4.2-24.1-12.2-32.4-23.3
		C2179.4,1174.3,2183.4,1170.7,2185.4,1173.5z"/>
	<path class="st5" d="M2297,1121.2c7.4,5.2,14.7,10.5,22.1,15.7c2.8,2-0.1,6.5-2.9,4.5c-7.4-5.2-14.7-10.5-22.1-15.7
		C2291.3,1123.8,2294.2,1119.3,2297,1121.2z"/>
	<path class="st9" d="M2380.5,873.2c-9.2,3.9-47,66.6-4.2,117.2c42.7,50.7,119.6,108.7,208.9-35.5
		C2674.5,810.8,2380.5,873.2,2380.5,873.2z"/>
	<path class="st9" d="M1985.9,724c0,0-82.6,186.4,231.4,154.1c260.7-26.9,27.4-136.5,27.4-136.5l-91.7-72.1
		C2153,669.5,2001.1,690,1985.9,724z"/>
	<path class="st5" d="M2286.8,683c-17,4-34.5-1.3-48-12.8c-15.2-12.9-22.4-32.1-20.8-52.7c3.7-45.6,39.8-79.8,42.5-125.9
		c0.2-3.8-5.3-4.1-5.6-0.2c-3,50.8-48.8,89.6-42.2,142.3c4.7,37,41.4,63,75.2,55.1C2291.5,688,2290.3,682.2,2286.8,683z"/>
	<path class="st5" d="M2150.3,732.8c-3.8-16.1-12.6-29.8-25.4-39.8c-3.2-2.6-6.6,3-3.4,5.5c11.4,9,19.2,21.5,22.6,35.8
		C2145,738.3,2151.2,736.9,2150.3,732.8z"/>
	<path class="st5" d="M2528,472.2c-42.1,80-28.1,176.2-65,258c-1.7,3.8,3.7,7.2,5.4,3.4c36.8-81.8,22.9-178.2,65-258
		C2535.4,472,2530,468.5,2528,472.2z"/>
	<path class="st5" d="M2451.6,692.3c-25.3,15.8-57.8,15.8-83.1-0.2c-3.5-2.2-6.9,3.3-3.4,5.5c27,17.1,62.2,17.4,89.4,0.4
		C2458,695.9,2455.1,690.1,2451.6,692.3z"/>
	<path class="st5" d="M2652.7,887.1c-19.6,29.7-44,55.7-72.2,77c-3.3,2.5,1,7.3,4.3,4.8c28.6-21.7,53.3-48.1,73.3-78.3
		C2660.4,887.1,2655,883.6,2652.7,887.1z"/>
	<path class="st5" d="M2244.1,715c0,25.2-7.2,49.4-20.7,70.4c-2.2,3.5,3.1,6.9,5.4,3.4c14.1-21.9,21.6-47.4,21.6-73.6
		C2250.4,711,2244.1,710.8,2244.1,715z"/>
	<path class="st5" d="M2122.3,1107.2c-64,32.6-122.9,75.5-173.9,126.9c-14.5,14.6-28.4,30-41.6,45.9c-2.6,3.2,1.7,8,4.3,4.8
		c59.2-71.4,132.2-130.1,214.1-171.8C2129,1111.1,2126,1105.4,2122.3,1107.2z"/>
	<path class="st5" d="M2238.2,1036c-24.7,12-48.8,25.1-72.4,39.2c-3.5,2.1-0.6,7.9,3,5.8c23.6-14.1,47.7-27.2,72.4-39.2
		C2244.9,1040,2241.9,1034.2,2238.2,1036z"/>
	<path class="st5" d="M2461.7,1284.4c-81.6,39.9-171,57.5-259.2,74.8c-4,0.8-2.6,7.1,1.4,6.3c88.8-17.4,178.6-35.3,260.7-75.4
		C2468.4,1288.4,2465.4,1282.6,2461.7,1284.4z"/>
	<path class="st5" d="M1822.7,729c-3.3,6.1-7.8,11.1-13.6,14.7c-3.5,2.2-0.5,7.9,3,5.8c6.7-4.2,12.3-10,16.1-17.1
		C1830,728.7,1824.6,725.3,1822.7,729z"/>
	<path class="st5" d="M1750.5,647.3c-4.8,3-8.2,7.1-10.5,12.3c-0.7,1.6,0.7,3.6,2.1,4c1.8,0.6,3.2-0.6,4-2.2
		c1.5-3.5,4.2-6.5,7.4-8.4C1757,650.9,1754,645.1,1750.5,647.3z"/>
	<path class="st15" d="M2376.4,761.3c-7.3,0-7.7,11.7-0.3,11.7C2383.5,773,2383.8,761.3,2376.4,761.3z"/>
	<path class="st15" d="M2466.5,875.9c-7.3,0-7.7,11.7-0.3,11.7C2473.5,887.7,2473.9,875.9,2466.5,875.9z"/>
	<path class="st15" d="M2501.4,961.5c-7.3,0-7.7,11.7-0.3,11.7C2508.5,973.2,2508.8,961.5,2501.4,961.5z"/>
	<path class="st15" d="M2270.5,787.4c-7.3,0-7.7,11.7-0.3,11.7C2277.6,799.1,2277.9,787.4,2270.5,787.4z"/>
	<path class="st15" d="M2270.5,879.8c-7.3,0-7.7,11.7-0.3,11.7C2277.6,891.5,2277.9,879.8,2270.5,879.8z"/>
	<path class="st15" d="M2110.9,818c-7.3,0-7.7,11.7-0.3,11.7C2117.9,829.8,2118.3,818,2110.9,818z"/>
	<path class="st15" d="M2016.7,799.2c-7.3,0-7.7,11.7-0.3,11.7C2023.7,810.9,2024.1,799.2,2016.7,799.2z"/>
	<path class="st15" d="M2212.3,843.4c-7.3,0-7.7,11.7-0.3,11.7C2219.3,855.1,2219.7,843.4,2212.3,843.4z"/>
	<path class="st15" d="M2223.1,926.9c-7.3,0-7.7,11.7-0.3,11.7C2230.1,938.6,2230.4,926.9,2223.1,926.9z"/>
	<path class="st15" d="M2179.8,660.4c-7.3,0-7.7,11.7-0.3,11.7C2186.9,672.1,2187.2,660.4,2179.8,660.4z"/>
	<path class="st15" d="M2185.4,749.4c-7.3,0-7.7,11.7-0.3,11.7C2192.4,761.1,2192.8,749.4,2185.4,749.4z"/>
	<path class="st15" d="M2054.9,729c-7.3,0-7.7,11.7-0.3,11.7C2061.9,740.7,2062.3,729,2054.9,729z"/>
	<path class="st15" d="M2346.9,844.8c-7.3,0-7.7,11.7-0.3,11.7C2353.9,856.5,2354.3,844.8,2346.9,844.8z"/>
	<path class="st15" d="M2333.4,949.1c-7.3,0-7.7,11.7-0.3,11.7C2340.4,960.8,2340.8,949.1,2333.4,949.1z"/>
	<path class="st5" d="M2440.5,801.4c-16,22.4-30.4,46-42.9,70.6c-11.7,23-25.7,48.7-24.6,75.4c0.2,4.2,6.5,4.4,6.4,0.2
		c-1-26.9,13.8-53.3,25.8-76.4c12-23.1,25.6-45.2,40.7-66.4C2448.3,801.4,2442.9,798,2440.5,801.4z"/>
	<path class="st5" d="M2429.3,1032.7c-21.4-10-38.9-26.6-49.9-47.9c-1.9-3.7-7.5-0.7-5.6,3c11.5,22.2,29.8,40,52.2,50.4
		C2429.6,1039.9,2433,1034.4,2429.3,1032.7z"/>
</g>
</svg>
