<?xml version="1.0" encoding="utf-8"?>
<!-- Generator: Adobe Illustrator 23.0.3, SVG Export Plug-In . SVG Version: 6.00 Build 0)  -->
<svg version="1.1" id="Layer_6" xmlns="http://www.w3.org/2000/svg" xmlns:xlink="http://www.w3.org/1999/xlink" x="0px" y="0px"
	 viewBox="0 0 314.8 440.2" style="enable-background:new 0 0 314.8 440.2;" xml:space="preserve">
<style type="text/css">
	.st0{fill-rule:evenodd;clip-rule:evenodd;fill:#DBDFFF;}
	.st1{fill-rule:evenodd;clip-rule:evenodd;fill:#F0F0FF;}
	.st2{fill-rule:evenodd;clip-rule:evenodd;fill:#0D8E90;}
	.st3{fill-rule:evenodd;clip-rule:evenodd;fill:#ED428B;}
	.st4{fill-rule:evenodd;clip-rule:evenodd;fill:#FD9C3C;}
	.st5{fill-rule:evenodd;clip-rule:evenodd;fill:#FFDB59;}
	.st6{fill-rule:evenodd;clip-rule:evenodd;fill:#FFBD59;}
	.st7{fill-rule:evenodd;clip-rule:evenodd;fill:#CB2069;}
	.st8{fill-rule:evenodd;clip-rule:evenodd;fill:#ABB1EB;}
	.st9{fill-rule:evenodd;clip-rule:evenodd;fill:#FFFFFF;}
	.st10{fill-rule:evenodd;clip-rule:evenodd;fill:#9999EF;}
	.st11{fill-rule:evenodd;clip-rule:evenodd;fill:#B1B1FF;}
	.st12{fill-rule:evenodd;clip-rule:evenodd;fill:#000080;}
	.st13{fill-rule:evenodd;clip-rule:evenodd;fill:#E8EAFF;}
	.st14{fill-rule:evenodd;clip-rule:evenodd;fill:#6A6ADC;}
	.st15{fill-rule:evenodd;clip-rule:evenodd;fill:#1818A3;}
	.st16{fill-rule:evenodd;clip-rule:evenodd;fill:#BA9A7C;}
	.st17{fill-rule:evenodd;clip-rule:evenodd;fill:#8EC2FF;}
	.st18{fill-rule:evenodd;clip-rule:evenodd;fill:#33FFFF;}
	.st19{fill-rule:evenodd;clip-rule:evenodd;fill:#FF66CC;}
	.st20{fill-rule:evenodd;clip-rule:evenodd;fill:#39ADB5;}
	.st21{fill-rule:evenodd;clip-rule:evenodd;fill:#7AEAF2;}
	.st22{fill-rule:evenodd;clip-rule:evenodd;fill:url(#SVGID_1_);}
	.st23{fill-rule:evenodd;clip-rule:evenodd;fill:#FF65A7;}
</style>
<path class="st0" d="M306.8,34.8v13.9l-13.7-2.4v-14L306.8,34.8z M314.8,54.1v10.8L304.2,63V52.2L314.8,54.1z M292.2,64.2l10.6,1.9
	v10.8L292.2,75V64.2z M270.4,216.5c2.2-3.1,3.3-7.8,3.3-14.1V60.5c0-13.9-5.3-21.8-16-23.7L65.2,2.9c-4.1-0.7-7.4-0.3-9.9,1.3
	c2.6-3.6,6.8-4.9,12.6-3.9l192.5,34c10.6,1.9,16,9.8,16,23.6v141.9C276.4,208.3,274.4,213.8,270.4,216.5z M120.8,26.3l17.6,3.1v4.8
	L120.8,31V26.3z M148.8,31.9l17.6,3.1v4.8l-17.6-3.1V31.9z M82.4,24.3l-17.6-3.1v-4.8l17.6,3.1V24.3z M94.2,22.1l17.6,3.1v4.8
	l-17.6-3.1V22.1z M37.8,233.7v-3.1l10.9,2v3.1L37.8,233.7z M50.3,236v-3.1l2.2,0.5v3L50.3,236z M75.3,239.7v-3.1l10.9,2v3.1
	L75.3,239.7z M54.1,233.6l9.5,1.8v3l-9.5-1.8V233.6z M40.7,237.1v2.6l-2.9-0.5v-2.5L40.7,237.1z M44.2,237.7v2.6l-1.9-0.2v-2.6
	L44.2,237.7z M58,240v2.6l-12.2-2.1c0-1,0-1.8,0.1-2.5L58,240z M75.3,245.1v-2.5l2.9,0.5v2.6L75.3,245.1z M81.7,246.2l-1.9-0.2v-2.6
	l1.9,0.3V246.2z M95.5,246v2.6l-12.2-2.1c0-1,0-1.8,0-2.5L95.5,246z M90,239.3v3l-2.2-0.4v-3.1L90,239.3z M111.3,252.6v-2.5l3,0.5
	v2.6L111.3,252.6z M117.7,251.2v2.6l-1.9-0.2v-2.6L117.7,251.2z M101,241.4v3l-9.4-1.8v-3L101,241.4z M111.3,247.2v-3.1l11,2v3.1
	L111.3,247.2z M244,125.7l17.6,3.1v4.8l-17.6-3.1V125.7z M201.2,131.7l-16.8-2.1v-3.5l16.8,2.1V131.7z M248,187.2l-1.8-2.1
	c0.1-0.1,0.2-0.1,0.3-0.2c4.9-4.3,7.4-9.9,7.4-16.9s-2.5-13.3-7.4-19c-3.3-3.8-7-6.5-11.2-8.1l0.7-2.4c4.6,1.9,8.8,4.9,12.4,9.1
	c5.4,6.2,8.1,13.1,8.1,20.9c0,7.7-2.7,13.9-8.1,18.6C248.2,187,248.1,187.1,248,187.2z M184.5,131.6l13.9,1.8v3.5l-13.9-1.8V131.6z
	 M193.8,141.8l-9.4-1.2v-3.5l9.4,1.2V141.8z M137,248.9v3l-9.4-1.8v-3L137,248.9z M119.2,254c0-1,0-1.8,0-2.5l12.2,2v2.6L119.2,254z
	 M123.8,246.4l2.2,0.5v3l-2.2-0.4V246.4z M197.8,271.8l-10.6-1.8v-10.8l10.6,1.8V271.8z M188.1,227.4l13.7,2.4v14l-13.7-2.4V227.4z
	 M209.8,259.8l-10.6-1.8v-10.8l10.6,1.8V259.8z M214.3,365.9v8.7l-8.5-1.5v-8.7L214.3,365.9z M195,355.3v14l-13.7-2.4v-14L195,355.3
	z M193.8,372.8l10.6,1.8v10.8l-10.6-1.8V372.8z"/>
<path class="st1" d="M164.9,204.1v-59.9c0-11.2-5.5-17.7-16.5-19.7L49.3,107V20.9c0-8.6,2-14.1,6-16.7c2.5-1.6,5.8-2,9.9-1.3
	l192.5,33.9c10.6,1.9,16,9.8,16,23.7v141.8c0,6.3-1.1,11-3.3,14.1c-2.6,3.7-6.9,5-12.7,4L164.9,204.1z"/>
<path class="st1" d="M175.8,36.4c0-0.2-0.1-0.4-0.2-0.6c-0.2-0.2-0.4-0.4-0.6-0.4s-0.4,0-0.6,0.2c-0.2,0.1-0.2,0.3-0.2,0.5v37.2
	c-5.8-4.7-11.3-10.3-16.5-16.8c-5.1-6.4-8.5-10.4-10-11.8V31.4c0-0.2-0.1-0.4-0.3-0.6c-0.2-0.2-0.4-0.4-0.6-0.4
	c-0.2,0-0.4,0-0.6,0.2c-0.2,0.1-0.2,0.3-0.2,0.5v12.6c-1.2-0.7-2.6-1.4-4-1.9c-8.7-2.9-16.2-2.8-22.6,0.1V26.4
	c0-0.2-0.1-0.5-0.2-0.6c-0.2-0.2-0.4-0.4-0.6-0.4c-0.2-0.1-0.4,0-0.6,0.2c-0.2,0.2-0.2,0.4-0.2,0.6v16.8c-3.7,2.1-7,5.2-9.7,9.6
	c-4.7,7.1-10.3,10.7-16.8,10.9V21.4c0-0.2-0.1-0.5-0.2-0.6c-0.2-0.2-0.4-0.4-0.6-0.4c-0.2,0-0.4,0-0.6,0.2c-0.2,0.1-0.2,0.3-0.2,0.5
	v42.1c-4.6-0.3-9.7-2.3-15.3-5.9c-3.7-2.4-7.4-2.8-11.3-1.2V16.4c0-0.2-0.1-0.5-0.2-0.6c-0.2-0.2-0.4-0.4-0.6-0.4
	c-0.2,0-0.4,0-0.6,0.2c-0.2,0.1-0.2,0.3-0.2,0.5v69.5c0,0.2,0.1,0.5,0.2,0.6c0.2,0.2,0.4,0.4,0.6,0.4l113,20c0.2,0,0.4,0,0.6-0.2
	c0.2-0.1,0.2-0.3,0.2-0.5V36.4z"/>
<polygon class="st1" points="148.8,31.9 148.8,36.6 166.4,39.7 166.4,35 "/>
<polygon class="st1" points="120.8,26.3 120.8,31 138.4,34.1 138.4,29.4 "/>
<path class="st1" d="M196.9,56.5c-2.1-0.4-4,0-5.5,1.3c-1.5,1.3-2.2,2.9-2.2,5c0,0,0,0.1,0,0.1c0,2.1,0.8,4.1,2.2,5.9
	c1.5,1.8,3.3,2.8,5.5,3.2v-7.8h0v7.8c2.1,0.4,4-0.1,5.5-1.4c1.5-1.3,2.2-3,2.2-5.1h0c0-2.1-0.8-4.1-2.2-5.9
	C200.8,57.9,199,56.8,196.9,56.5z"/>
<path class="st1" d="M198,84.5L198,84.5c-2.1-0.4-3.9,0-5.4,1.3s-2.2,3-2.2,5.1c0,2.2,0.8,4.1,2.2,5.9h0c1.5,1.8,3.3,2.8,5.4,3.2
	c2.1,0.4,3.9,0,5.4-1.2h0c1.5-1.2,2.2-2.9,2.2-5.1c0-2.2-0.8-4.1-2.2-5.9C201.9,86,200.1,84.9,198,84.5z"/>
<polygon class="st1" points="238.3,57.6 226.2,55.5 226.2,58.6 238.3,60.7 "/>
<polygon class="st1" points="227.2,60.6 227.2,63.7 236.7,65.4 236.7,62.2 "/>
<polygon class="st1" points="224.1,55.1 214.3,53.4 214.3,56.5 224.1,58.2 "/>
<polygon class="st1" points="214.5,61.5 226.3,63.6 226.3,60.4 214.5,58.4 "/>
<polygon class="st1" points="214.5,83.8 214.5,86.9 235.4,90.5 235.4,87.4 "/>
<polygon class="st1" points="214.5,78.4 214.5,81.5 226.7,83.6 226.7,80.5 "/>
<polygon class="st1" points="214.5,76.6 222.4,77.9 222.4,74.8 214.5,73.4 "/>
<polygon class="st1" points="230.5,71.5 230.5,74.6 240,76.2 240,73.1 "/>
<polygon class="st1" points="214.3,68.7 214.3,71.8 226.2,73.8 226.2,70.7 "/>
<polygon class="st1" points="214.3,63.7 214.3,66.8 223.4,68.4 223.4,65.3 "/>
<polygon class="st1" points="227.4,66 227.4,69.1 240.6,71.4 240.6,68.3 "/>
<polygon class="st1" points="228,78.9 260,84.4 260,81.3 228,75.7 "/>
<polygon class="st1" points="228.2,83.9 239.3,85.8 239.3,82.7 228.2,80.7 "/>
<polygon class="st1" points="240.4,61 248.4,62.4 248.4,59.3 240.4,57.9 "/>
<polygon class="st1" points="250.2,69.9 250.2,73 260,74.7 260,71.6 "/>
<polygon class="st1" points="255.5,65.5 249.1,64.3 249.1,67.5 255.5,68.6 "/>
<polygon class="st1" points="256.4,68.8 260,69.4 260,66.2 256.4,65.6 "/>
<polygon class="st1" points="247.5,67.2 247.5,64.1 239.9,62.7 239.9,65.9 "/>
<polygon class="st1" points="241.3,86.1 260,89.4 260,86.2 241.3,83 "/>
<polygon class="st1" points="252.6,75.3 242.7,73.6 242.7,76.7 252.6,78.4 "/>
<polygon class="st1" points="254.7,75.7 254.7,78.8 260,79.7 260,76.6 "/>
<polygon class="st1" points="260,64.4 260,61.3 252.2,60 252.2,63.1 "/>
<polygon class="st1" points="94.2,22.1 94.2,26.8 111.8,29.9 111.8,25.2 "/>
<polygon class="st1" points="82.4,24.3 82.4,19.6 64.8,16.5 64.8,21.2 "/>
<polygon class="st1" points="260,94.7 260,91.6 244.3,88.9 244.3,92 "/>
<polygon class="st1" points="260,99.7 260,96.6 255.2,95.8 255.2,98.9 "/>
<polygon class="st1" points="260,105.8 245.2,103.3 245.2,106.4 260,108.9 "/>
<polygon class="st1" points="254.3,98.7 254.3,95.6 238.5,92.9 238.5,96 "/>
<polygon class="st1" points="239.7,102.3 227.9,100.3 227.9,103.4 239.7,105.4 "/>
<polygon class="st1" points="245,111.7 245,108.6 229.9,106 229.9,109.1 "/>
<polygon class="st1" points="247.6,109 247.6,112.1 259.8,114.3 259.8,111.2 "/>
<polygon class="st1" points="259.8,101.3 248.5,99.3 248.5,102 259.8,104 "/>
<polygon class="st1" points="243.5,98.4 226.8,95.5 226.8,98.2 243.5,101.1 "/>
<polygon class="st1" points="243.8,116.4 243.8,113.3 232,111.3 232,114.4 "/>
<polygon class="st1" points="245,116.6 259.8,119.2 259.8,116.1 245,113.5 "/>
<polygon class="st1" points="244,125.7 244,130.4 261.6,133.5 261.6,128.8 "/>
<polygon class="st1" points="224.6,108.2 224.6,105.1 214.6,103.3 214.6,106.4 "/>
<polygon class="st1" points="223.9,93.4 223.9,90.3 214.5,88.7 214.5,91.8 "/>
<polygon class="st1" points="222.1,97.4 222.1,94.7 214.3,93.4 214.3,96.1 "/>
<polygon class="st1" points="237.1,95.7 237.1,92.6 225.9,90.7 225.9,93.8 "/>
<polygon class="st1" points="224.5,99.7 214.3,97.9 214.3,101 224.5,102.8 "/>
<polygon class="st1" points="218.6,109 218.6,112.1 228,113.7 228,110.6 "/>
<polygon class="st1" points="216.6,111.7 216.6,108.6 214.3,108.2 214.3,111.3 "/>
<polygon class="st1" points="201.2,131.7 201.2,128.2 184.5,126.1 184.5,129.6 "/>
<polygon class="st1" points="202.6,121 202.6,116.3 185,113.2 185,117.9 "/>
<path class="st1" d="M210.6,137.2c-2.6,1.6-4.8,3.6-6.8,6c-0.4,0.5-0.8,1.1-1.1,1.6c-0.4,0.6-0.7,1.1-1,1.7
	c-2.1,3.7-3.2,7.9-3.3,12.6c0,0,0,0.1,0,0.1c0,0.1,0,0.1,0,0.2c0,0.2,0,0.3,0,0.5c0,0.1,0,0.1,0,0.2c0,0.1,0,0.3,0,0.5
	c0.1,8.3,3.1,15.9,9,22.5c5.9,6.7,13,10.7,21.2,12c8.2,1.2,15.3-0.7,21.3-5.6l-1.9-2.2c0.1-0.1,0.2-0.2,0.3-0.3
	c5.4-4.7,8.1-11,8.1-18.6c0-7.7-2.7-14.7-8.1-20.9c-3.6-4.2-7.8-7.2-12.4-9.1l0.7-2.5c-4.7-1.9-9.3-2.8-13.9-2.4
	C218.3,133.7,214.2,134.9,210.6,137.2z"/>
<path class="st1" d="M246.2,185.1l-3.2-3.7c-4,3.4-8.8,4.7-14.4,3.9c-5.6-0.9-10.4-3.6-14.4-8.1c-4-4.5-6-9.6-6.1-15.3
	c0-0.1,0-0.2,0-0.3c0-0.2,0-0.4,0-0.6c0.1-3.6,1.1-6.8,2.9-9.6c0.3-0.4,0.6-0.8,0.9-1.1c0.2-0.2,0.4-0.5,0.6-0.7l0.2-0.2
	c0.2-0.2,0.4-0.4,0.6-0.6c0.2-0.2,0.4-0.4,0.6-0.6c1-0.9,2.1-1.7,3.2-2.4c1.1-0.6,2.3-1.1,3.5-1.5c0.4-0.1,0.7-0.2,1.1-0.3
	c0.3-0.1,0.6-0.1,1-0.2c0.9-0.2,1.8-0.2,2.7-0.3c0.9,0,1.8,0,2.7,0.1v0c2,0.2,4,0.8,6.1,1.6l1.2-4.2c4.2,1.7,7.9,4.4,11.2,8.1
	c4.9,5.7,7.4,12,7.4,19s-2.5,12.6-7.4,16.9C246.4,184.9,246.3,185,246.2,185.1z"/>
<polygon class="st1" points="229.1,159.9 229.1,163.8 232.1,164.3 232.1,160.4 "/>
<polygon class="st1" points="213.1,160.9 227.2,163.5 227.2,159.5 213.1,157 "/>
<polygon class="st1" points="216.9,168.5 216.9,165.2 213.1,164.6 213.1,167.9 "/>
<polygon class="st1" points="218.9,168.9 221.3,169.3 221.3,166 218.9,165.5 "/>
<path class="st1" d="M223.3,169.6l15.8,2.8v-3.4l-15.6-2.8C223.3,167.3,223.3,168.4,223.3,169.6z"/>
<polygon class="st1" points="234.1,164.7 246.2,166.9 246.2,163.1 234.1,160.8 "/>
<polygon class="st1" points="184.5,131.6 184.5,135.1 198.3,136.9 198.3,133.4 "/>
<polygon class="st1" points="193.8,141.8 193.8,138.3 184.5,137.1 184.5,140.6 "/>
<polygon class="st1" points="183.5,192.7 183.5,197.4 201.1,200.5 201.1,195.8 "/>
<path class="st1" d="M146.3,411.3c0,2.3-0.5,4.2-1.6,5.6c-1.1,1.4-2.4,2-4,1.7l-40-7c-1.6-0.3-2.9-1.3-4-3.2
	c-1.1-1.8-1.7-3.8-1.7-6.1c0-2.3,0.6-4.2,1.7-5.6c1.1-1.4,2.4-2,4-1.7l40,7c1.6,0.3,2.9,1.3,4,3.1
	C145.7,406.9,146.3,409,146.3,411.3z"/>
<path class="st2" d="M138,309.9c-0.4-0.1-0.8-0.4-1.1-0.8c-0.2-0.3-0.3-0.5-0.4-0.8l0-0.1c0-0.2,0-0.3,0-0.5v0c0-0.5,0.1-1,0.5-1.3
	c0.4-0.3,0.8-0.5,1.2-0.3l19.9,3.5c0.2,0,0.3,0.1,0.5,0.1c0.3,0.1,0.5,0.3,0.7,0.6c0.4,0.5,0.5,1,0.5,1.5c0,0.5-0.2,0.9-0.5,1.2
	c-0.3,0.3-0.7,0.5-1.2,0.4l-19.9-3.5C138,309.9,138,309.9,138,309.9z"/>
<path class="st2" d="M160.7,316.5c0.8,0.4,1.5,1,2.2,1.8c1.1,1.3,1.6,2.7,1.6,4.2c0,1.6-0.5,2.8-1.6,3.8c-0.6,0.5-1.4,0.9-2.2,1
	c-0.5,0.1-1.1,0.1-1.8,0c-1.5-0.3-2.8-1-4-2.3c-1.1-1.3-1.6-2.7-1.6-4.3s0.5-2.8,1.6-3.7c1.1-0.9,2.4-1.3,4-1
	C159.5,316,160.1,316.2,160.7,316.5z"/>
<path class="st2" d="M160.8,321.4l-2.1-3.5c-0.1-0.2-0.3-0.4-0.5-0.4c-0.2-0.1-0.5-0.1-0.7,0c-0.2,0.1-0.3,0.3-0.3,0.5
	c0,0.2,0,0.5,0.1,0.7l1.9,3l-1.9,2.4c-0.1,0.2-0.2,0.4-0.1,0.6c0,0.2,0.1,0.4,0.3,0.6c0.2,0.2,0.4,0.3,0.7,0.3
	c0.2,0,0.4-0.1,0.5-0.2l2.1-2.8c0.1-0.1,0.2-0.3,0.2-0.4C160.9,321.8,160.9,321.6,160.8,321.4z"/>
<polygon class="st3" points="224.1,55.1 224.1,58.2 214.3,56.5 214.3,53.4 "/>
<polygon class="st3" points="214.5,83.8 235.4,87.4 235.4,90.5 214.5,86.9 "/>
<polygon class="st3" points="227.4,66 240.6,68.3 240.6,71.4 227.4,69.1 "/>
<polygon class="st3" points="228,78.9 228,75.7 260,81.3 260,84.4 "/>
<path class="st3" d="M105.6,186.6c2.8,4.3,4.2,9,4.2,14c0,6.3-2.2,11.2-6.6,14.8c-4.3,3.7-9.5,5-15.7,4c-6.2-1.1-11.4-4.2-15.8-9.5
	c-4.3-5.1-6.5-10.8-6.5-17s2.1-11.3,6.5-15c4.4-3.6,9.7-4.9,15.8-3.8c6.2,1.1,11.4,4.2,15.7,9.3C104,184.4,104.8,185.5,105.6,186.6z
	"/>
<path class="st3" d="M92.3,184.2c-0.5-1.5-1.5-2.6-3.1-3.4c-1.3-0.6-2.7-0.8-4.1-0.6c-0.7,0.1-1.4,0.5-2,1.1
	c-0.7,0.6-1.1,1.4-1.4,2.3c-0.6,1.5-0.6,3.4-0.2,5.6c0.2,1.9,0.9,3.6,2.1,5c1,1.2,2.1,2,3.5,2.3c1.4,0.3,2.6,0,3.7-0.7
	c1.4-1,2.2-2.6,2.5-5C93.6,188.5,93.3,186.4,92.3,184.2z"/>
<path class="st3" d="M113,233.5c-0.3-0.1-0.5,0.1-0.6,0.5l-1.6-0.5c0.3-1,1.1-1.5,2.3-1.2c0.7,0.1,1.2,0.4,1.5,0.8
	c0.4,0.4,0.5,1,0.5,1.5c0,0.4-0.1,0.7-0.3,1c-0.2,0.3-0.6,0.6-1.3,1c-0.3,0.2-0.6,0.4-0.8,0.7l2.6,0.4v1.3l-4.6-0.8
	c0-0.5,0.2-1,0.5-1.4c0.3-0.4,0.7-0.8,1.2-1.1l1-0.8c0.2-0.2,0.2-0.4,0.2-0.6l-0.2-0.5C113.2,233.6,113.1,233.6,113,233.5z"/>
<path class="st3" d="M91,229.6c-0.3-0.1-0.5,0.1-0.6,0.5l-1.5-0.5c0.3-1,1.1-1.5,2.3-1.2c0.7,0.1,1.2,0.4,1.5,0.8
	c0.4,0.4,0.5,1,0.5,1.5c0,0.4-0.1,0.7-0.3,1c-0.2,0.3-0.6,0.6-1.3,1c-0.3,0.2-0.6,0.4-0.8,0.7l2.5,0.5v1.3l-4.6-0.8
	c0-0.5,0.2-1,0.5-1.5c0.3-0.4,0.7-0.8,1.2-1l1-0.8c0.2-0.2,0.2-0.4,0.2-0.7l-0.2-0.5C91.3,229.7,91.1,229.7,91,229.6z"/>
<path class="st3" d="M81.6,227.8c-0.4,0.4-0.7,1-1,2c-0.2,0.9-0.4,1.9-0.4,3l-1.7-0.3c0-2,0.4-3.5,1.4-4.6l-3-0.5V226l4.6,0.8V227.8
	z"/>
<path class="st3" d="M85.3,228.5c-0.3,0-0.5,0-0.6,0.2c-0.2,0.2-0.2,0.8-0.2,1.6c0,1,0.1,1.6,0.2,1.8c0.2,0.3,0.4,0.5,0.6,0.5
	c0.3,0.1,0.5,0,0.7-0.3c0.1-0.3,0.2-0.8,0.2-1.7c0-0.8,0-1.3-0.2-1.6C85.8,228.7,85.6,228.5,85.3,228.5z"/>
<path class="st3" d="M83.5,227.8c0.4-0.5,1-0.7,1.8-0.5c0.8,0.2,1.4,0.6,1.8,1.2c0.4,0.7,0.6,1.5,0.6,2.5c0,1-0.2,1.8-0.6,2.3
	c-0.4,0.5-1,0.7-1.8,0.5c-0.7-0.1-1.3-0.5-1.8-1.2c-0.5-0.7-0.7-1.5-0.7-2.5C82.8,229.1,83,228.3,83.5,227.8z"/>
<path class="st3" d="M98.9,205.8c-0.5-1.1-0.8-2-1-2.5c-0.3-0.8-0.7-1.5-1.2-2c-0.6-0.4-1.3-1-2.3-1.9c-1-0.7-1.8-1.2-2.2-1.7
	c-1,0.3-1.8,0.5-2.5,0.8c-0.8,0.3-1.6,0.4-2.3,0.3c-0.8-0.3-1.7-0.7-2.6-1.2c-0.5-0.3-1.3-0.9-2.4-1.9c-1.2,0.6-2.1,1-2.7,1.4
	c-1.2,0.4-2.1,0.9-2.7,1.5c-0.5,0.8-1,1.9-1.5,3.3c-0.4,0.7-0.9,1.9-1.5,3.6c-0.2,0.6-0.3,1.2-0.1,1.7c0.2,0.8,0.6,1.2,1.2,1.4
	c2.8,0.6,6.6,1.4,11.5,2.3c5.6,1,9.3,1.7,11.3,2c0.9,0.1,1.5,0.1,2,0.2c0.6-0.2,0.9-0.6,1-1.2c-0.1-0.9-0.3-2-0.8-3.1L98.9,205.8z"
	/>
<path class="st3" d="M40.3,222.9l1-0.8c0.2-0.2,0.2-0.4,0.2-0.6l-0.1-0.5c-0.2-0.1-0.3-0.2-0.5-0.2c-0.3-0.1-0.5,0.1-0.6,0.5
	l-1.5-0.5c0.3-1,1.1-1.5,2.3-1.2c0.7,0.1,1.2,0.4,1.6,0.8c0.4,0.4,0.5,1,0.5,1.5c0,0.4-0.1,0.7-0.3,1c-0.2,0.3-0.6,0.6-1.3,1
	c-0.3,0.2-0.6,0.4-0.8,0.7l2.5,0.4v1.3l-4.6-0.8c0-0.5,0.2-1,0.5-1.4C39.4,223.6,39.8,223.2,40.3,222.9z"/>
<polygon class="st3" points="47.4,220.7 48.9,220.9 48.9,224.9 49.8,225.1 49.8,226.2 48.9,226.1 48.9,227.2 47.3,226.9 47.3,225.8 
	44.2,225.3 44.2,224.3 "/>
<polygon class="st3" points="50.6,225.9 52.2,226.2 52.2,227.8 50.6,227.5 "/>
<path class="st3" d="M56.5,226.6l-0.2-0.8l-0.6-0.4c-0.3,0-0.5,0-0.8,0.2l-1.3-0.3l0.6-3.2l3.6,0.6v1.3l-2.5-0.4l-0.1,0.9h0.9
	c0.5,0.1,1,0.4,1.4,0.8c0.4,0.5,0.5,1,0.5,1.6c0,0.7-0.2,1.2-0.6,1.5c-0.5,0.3-1,0.4-1.8,0.2c-1.2-0.1-1.9-0.8-2.2-2l1.5,0l0.3,0.5
	c0.2,0.2,0.3,0.3,0.5,0.3c0.2,0,0.4,0,0.6-0.1C56.4,227.2,56.5,226.9,56.5,226.6z"/>
<polygon class="st3" points="59.7,219.7 60.7,219.9 60.7,225.9 60.7,229.3 59.7,229.1 "/>
<polygon class="st3" points="63.7,223.3 64.9,223.5 62.1,226.1 65,230.1 63.7,229.8 60.7,225.9 "/>
<polygon class="st3" points="47.3,222.6 45.8,224.4 47.3,224.6 "/>
<polygon class="st3" points="116.2,238 116.2,237 119.4,233.4 120.9,233.7 120.9,237.7 121.8,237.8 121.8,239 120.9,238.8 
	120.9,240 119.3,239.7 119.3,238.5 "/>
<polygon class="st3" points="247.6,109 259.8,111.2 259.8,114.3 247.6,112.1 "/>
<polygon class="st3" points="218.6,109 228,110.6 228,113.7 218.6,112.1 "/>
<polygon class="st3" points="183.5,192.7 201.1,195.8 201.1,200.5 183.5,197.4 "/>
<polygon class="st3" points="124.2,239 124.2,240.6 122.6,240.3 122.6,238.7 "/>
<path class="st3" d="M126.3,234.7l3.6,0.6v1.3l-2.5-0.4l-0.2,0.9h0.9c0.5,0.1,1,0.4,1.4,0.8c0.4,0.5,0.6,1,0.6,1.6
	c0,0.7-0.2,1.2-0.6,1.5c-0.5,0.3-1,0.4-1.7,0.2c-1.2-0.1-2-0.8-2.2-2l1.5,0l0.3,0.5c0.2,0.2,0.3,0.3,0.5,0.3c0.2,0,0.4,0,0.6-0.1
	c0.2-0.1,0.2-0.3,0.2-0.7l-0.2-0.8l-0.6-0.4c-0.3,0-0.5,0-0.8,0.2l-1.3-0.3L126.3,234.7z"/>
<polygon class="st3" points="131.7,232.4 132.7,232.6 132.7,238.7 132.7,242.1 131.7,241.9 "/>
<polygon class="st3" points="135.7,236.1 136.9,236.3 134.1,238.8 137,242.8 135.7,242.6 132.7,238.7 "/>
<polygon class="st3" points="119.3,237.4 119.3,235.3 117.8,237.1 "/>
<path class="st3" d="M28.8,384.7c1.1-1.4,2.4-2,3.9-1.7l40,7c1.6,0.3,2.9,1.3,4,3.1c1.1,1.8,1.7,3.9,1.7,6.2c0,2.3-0.6,4.1-1.7,5.5
	c-1.1,1.5-2.4,2-4,1.8l-40-7c-1.6-0.3-2.9-1.3-3.9-3.2c-1.1-1.8-1.7-3.9-1.7-6.1c0-0.1,0-0.3,0-0.4C27.1,387.7,27.7,386,28.8,384.7z
	"/>
<path class="st4" d="M124.2,292.3c0.1,0.6,0.2,1.3,0.2,2v21.5c0,3-1,4.8-3,5.5l-6.8,1.2c1-0.2,1.7-0.7,2.3-1.4
	c0.7-1,1.1-2.4,1.1-4.2v-21.5c0-1.9-0.4-3.5-1.3-4.7c-1.1-1.5-2.8-2.5-5.1-2.9l-21.1-3.7c-0.9-0.2-1.7-0.2-2.3-0.1l5.6-1.1H94
	c0.8-0.1,1.8-0.1,2.9,0.1l21.1,3.7C121.5,287.3,123.6,289.2,124.2,292.3z"/>
<path class="st4" d="M107.8,310l1.9,3l-1.9,2.3c-0.1,0.2-0.2,0.4-0.1,0.6c0,0.2,0.1,0.4,0.3,0.6c0.2,0.2,0.4,0.3,0.7,0.3
	c0.2,0,0.4-0.1,0.5-0.2l2.2-2.8c0.1-0.1,0.1-0.3,0.1-0.5c0-0.2,0-0.4-0.1-0.5l-2.2-3.5c-0.1-0.2-0.3-0.4-0.5-0.5
	c-0.2-0.1-0.5-0.1-0.7,0c-0.2,0.1-0.3,0.3-0.3,0.5C107.6,309.6,107.6,309.8,107.8,310z"/>
<path class="st4" d="M88.5,301.2l-1.2-0.2c-0.1,0-0.2-0.2-0.3-0.7c-0.1-0.3-0.1-0.7-0.1-1.2V299c0-0.5,0-1,0.1-1.4
	c0.1-0.3,0.2-0.5,0.3-0.5l4.3,0.8c0,0,0.1,0,0.1,0c0.1,0.1,0.2,0.3,0.2,0.6c0.1,0.4,0.1,0.9,0.1,1.4c0,0.5,0,1-0.1,1.4
	c-0.1,0.4-0.2,0.5-0.3,0.5L88.5,301.2z"/>
<path class="st4" d="M113.4,309.6c1.1,1.3,1.6,2.7,1.6,4.2s-0.5,2.8-1.6,3.8c-1.1,0.9-2.4,1.2-3.9,1c-1.5-0.3-2.8-1-4-2.3
	c-1.1-1.3-1.6-2.7-1.6-4.3c0-1.6,0.5-2.8,1.6-3.7c1.1-0.9,2.4-1.3,4-1C111,307.5,112.3,308.3,113.4,309.6z"/>
<path class="st5" d="M147.6,47.1c1.7,1.7,4.6,5.2,8.8,10.5c5.6,7,11.5,12.9,17.8,17.8v29.4l-26.5-4.7V47.1z"/>
<path class="st5" d="M114.6,322.5c-0.8,0.1-1.8,0.1-3-0.1L92.3,319l-1.9-0.3c-4.3-0.8-6.5-3.4-6.5-7.8v-21.5c0-2.9,1-4.6,3-5.2
	c0.4-0.1,0.8-0.2,1.2-0.2c0.7-0.1,1.5,0,2.3,0.1l21.1,3.7c2.4,0.4,4.1,1.4,5.1,2.9c0.8,1.2,1.3,2.8,1.3,4.7v21.5
	c0,1.8-0.4,3.2-1.1,4.2C116.3,321.8,115.5,322.2,114.6,322.5z"/>
<path class="st5" d="M91.7,297.9C91.7,297.9,91.7,297.9,91.7,297.9l-4.4-0.8c-0.1,0-0.2,0.2-0.3,0.5c-0.1,0.4-0.1,0.9-0.1,1.4v0.1
	c0,0.5,0,0.9,0.1,1.2c0.1,0.4,0.2,0.7,0.3,0.7l1.2,0.2c0.2,0.1,0.3,0.1,0.5,0.1l23.8,4.2c0.6,0.1,1,0,1.5-0.4
	c0.4-0.3,0.6-0.7,0.6-1.2c0-0.5-0.2-1-0.6-1.5c-0.4-0.4-0.9-0.7-1.5-0.8L91.7,297.9z"/>
<path class="st5" d="M113.4,309.6c-1.1-1.3-2.4-2.1-3.9-2.3c-1.5-0.3-2.8,0.1-4,1c-1.1,0.9-1.6,2.1-1.6,3.7c0,1.6,0.5,3,1.6,4.3
	c1.1,1.3,2.4,2,4,2.3c1.5,0.3,2.8,0,3.9-1c1.1-0.9,1.6-2.2,1.6-3.8S114.5,310.8,113.4,309.6z"/>
<path class="st6" d="M196.9,64.3V72c-2.1-0.4-4-1.5-5.5-3.2c-1.5-1.8-2.2-3.7-2.2-5.9L196.9,64.3z"/>
<path class="st7" d="M198.6,319.2l-10.9-1.9c-0.1,0-0.2,0-0.3,0l-0.8-0.2c-0.3-0.1-0.5-0.3-0.7-0.8c-0.2-0.3-0.3-0.7-0.3-1.1v-0.1
	c0,0,0-0.1,0-0.1v0c0-0.5,0.1-1,0.3-1.4c0.2-0.3,0.4-0.5,0.7-0.4l11.9,2.1c0.1,0,0.1,0,0.2,0c0.2,0.1,0.4,0.3,0.5,0.6
	c0.2,0.4,0.4,0.9,0.4,1.4c0,0.5-0.1,1-0.4,1.3C199.1,319.1,198.9,319.3,198.6,319.2z"/>
<path class="st7" d="M208.2,323.2c1.5,0.3,2.8,1,3.9,2.3c1.1,1.3,1.6,2.7,1.6,4.2s-0.5,2.8-1.6,3.8c-1.1,0.9-2.4,1.2-3.9,1
	c-1.5-0.3-2.8-1-4-2.3c-1.1-1.3-1.6-2.7-1.6-4.3c0-1.6,0.5-2.8,1.6-3.7C205.4,323.3,206.7,323,208.2,323.2z"/>
<path class="st7" d="M207.4,324.8c-0.2-0.1-0.5-0.1-0.7,0c-0.2,0.1-0.3,0.3-0.3,0.5c0,0.2,0,0.5,0.1,0.7l1.9,3l-1.9,2.3
	c-0.1,0.2-0.2,0.4-0.1,0.6c0,0.2,0.1,0.4,0.3,0.6c0.2,0.2,0.4,0.3,0.7,0.3c0.2,0,0.4-0.1,0.5-0.2l2.2-2.8c0.1-0.1,0.1-0.3,0.1-0.5
	c0-0.2,0-0.4-0.1-0.5l-2.2-3.5C207.8,325,207.6,324.9,207.4,324.8z"/>
<path class="st7" d="M186.1,300l5.6-1.1h0.2c0.8-0.1,1.8-0.1,2.9,0.1l21.1,3.7c4.3,0.7,6.5,3.3,6.5,7.6v21.5c0,3-1,4.8-3,5.5
	l-6.8,1.2c1-0.2,1.7-0.7,2.3-1.4c0.7-1,1.1-2.4,1.1-4.2v-21.5c0-4.3-2.1-6.8-6.4-7.6l-21.1-3.7C187.6,300,186.8,299.9,186.1,300z"/>
<path class="st7" d="M114.3,368.6c1.4-0.4,2.4-1.4,3-3.2c0.4-1.2,0.6-2.7,0.6-4.5v-18.5c0-2.5-0.4-4.5-1.1-6.1c-1-2.1-2.7-3.4-5-3.8
	l-96.9-17.1c-0.1-0.5-0.1-1-0.2-1.4l3.1-0.5c0.5,0,1,0,1.6,0.1l1.8,0.3l98.5,17.4c3.3,0.6,5.2,2.8,5.8,6.7c0.2,1,0.2,2,0.2,3.2v18.5
	c0,4.1-1,6.6-3,7.5L114.3,368.6z"/>
<path class="st8" d="M175.8,36.4v69.5c0,0.2-0.1,0.4-0.2,0.5c-0.2,0.2-0.4,0.2-0.6,0.2l-113-20c-0.2,0-0.4-0.2-0.6-0.4
	c-0.2-0.2-0.2-0.4-0.2-0.6V16.1c0-0.2,0.1-0.4,0.2-0.5c0.2-0.2,0.4-0.2,0.6-0.2c0.2,0,0.4,0.2,0.6,0.4c0.2,0.2,0.2,0.4,0.2,0.6v39.7
	c3.8-1.6,7.6-1.2,11.3,1.2c5.6,3.6,10.7,5.6,15.3,5.9V21.1c0-0.2,0.1-0.4,0.2-0.5c0.2-0.2,0.4-0.2,0.6-0.2c0.2,0,0.4,0.2,0.6,0.4
	c0.2,0.2,0.2,0.4,0.2,0.6v41.9c6.5-0.2,12.1-3.8,16.8-10.9c2.8-4.3,6-7.5,9.7-9.6V26.1c0-0.2,0.1-0.4,0.2-0.6
	c0.2-0.2,0.4-0.2,0.6-0.2c0.2,0,0.4,0.2,0.6,0.4c0.2,0.2,0.2,0.4,0.2,0.6v15.5c6.3-2.9,13.9-3,22.6-0.1c1.4,0.5,2.8,1.1,4,1.9V31.1
	c0-0.2,0.1-0.4,0.2-0.5c0.2-0.2,0.4-0.2,0.6-0.2c0.2,0,0.4,0.2,0.6,0.4c0.2,0.2,0.3,0.4,0.3,0.6v13.5c1.6,1.4,4.9,5.3,10,11.8
	c5.2,6.5,10.7,12,16.5,16.8V36.1c0-0.2,0.1-0.4,0.2-0.5c0.2-0.2,0.4-0.2,0.6-0.2s0.4,0.2,0.6,0.4C175.7,35.9,175.8,36.1,175.8,36.4z
	 M147.6,47.1V100l26.5,4.7V75.3c-6.3-4.9-12.2-10.8-17.8-17.8C152.2,52.3,149.3,48.8,147.6,47.1z M141.6,43.5
	c-8.7-2.9-16.1-2.7-22.3,0.5v51l26.6,4.6V45.6C144.5,44.7,143.1,44,141.6,43.5z M227.2,60.6l9.5,1.6v3.1l-9.5-1.6V60.6z M238.3,57.6
	v3.1l-12.1-2.1v-3.1L238.3,57.6z M214.5,61.5v-3.2l11.9,2.1v3.1L214.5,61.5z M214.5,78.4l12.2,2.1v3.1l-12.2-2.1V78.4z M214.5,76.6
	v-3.1l7.9,1.4v3.1L214.5,76.6z M214.3,63.7l9.1,1.6v3.1l-9.1-1.6V63.7z M214.3,68.7l11.8,2v3.1l-11.8-2V68.7z M230.5,71.5l9.5,1.6
	v3.1l-9.5-1.6V71.5z M240.4,61v-3.1l8,1.4v3.1L240.4,61z M228.2,83.9v-3.1l11.2,2v3.1L228.2,83.9z M250.2,69.9l9.8,1.7v3.1l-9.8-1.7
	V69.9z M241.3,86.1V83l18.6,3.2v3.1L241.3,86.1z M247.5,67.2l-7.6-1.4v-3.1l7.6,1.4V67.2z M256.4,68.8v-3.2l3.5,0.6v3.1L256.4,68.8z
	 M255.5,65.5v3.1l-6.4-1.1v-3.1L255.5,65.5z M254.7,75.7l5.2,0.9v3.1l-5.2-0.9V75.7z M252.6,75.3v3.1l-9.9-1.8v-3.1L252.6,75.3z
	 M260,64.4l-7.8-1.4V60l7.8,1.4V64.4z M62.8,85l26.6,4.7V65c-4.9-0.4-10.2-2.5-16-6.3l0.1,0c-3.4-2.2-7-2.4-10.6-0.7V85z
	 M109.3,53.5c-5,7.7-11.1,11.5-18.2,11.5v25l26.6,4.7V45.1C114.5,47,111.7,49.9,109.3,53.5z M46.6,183.2c0.1,0.5,0,0.9-0.2,1.1
	l-3.4,4.4l3.4,5.6c0.3,0.4,0.4,0.8,0.2,1.2c-0.1,0.5-0.3,0.8-0.6,1c-0.4,0.2-0.8,0.2-1.2,0c-0.4-0.1-0.7-0.4-1-0.8l-4-6.7
	c-0.2-0.3-0.3-0.7-0.3-1c0-0.3,0.1-0.6,0.3-0.9l4-5.1c0.2-0.3,0.6-0.5,1-0.5c0.4,0,0.8,0.2,1.2,0.5
	C46.3,182.4,46.5,182.7,46.6,183.2z M71.6,209.9c4.4,5.2,9.7,8.4,15.8,9.5c6.2,1.1,11.4-0.2,15.7-4c4.4-3.6,6.6-8.6,6.6-14.8
	c0-5-1.4-9.7-4.2-14c4.3,5.2,6.5,10.9,6.5,17.1c0,6.3-2.2,11.2-6.6,14.9c-4.3,3.7-9.5,5-15.7,4c-6.2-1.1-11.4-4.2-15.8-9.5
	C73.1,212,72.3,211,71.6,209.9z M44.8,275.5c0.4-0.1,0.8-0.2,1.2-0.2c0.7-0.1,1.5,0,2.4,0.1l21.1,3.7c4.3,0.8,6.4,3.3,6.4,7.6v21.5
	c0,1.8-0.4,3.2-1.1,4.2c-0.6,0.7-1.3,1.1-2.3,1.4c-0.8,0.1-1.8,0.1-3-0.1l-21.1-3.7c-4.3-0.8-6.5-3.4-6.5-7.8v-21.5
	C41.8,277.8,42.8,276,44.8,275.5z M3,268.1c0.4-0.1,0.8-0.2,1.2-0.2c0.7-0.1,1.5,0,2.4,0.1l21.1,3.7c4.3,0.8,6.4,3.3,6.4,7.6v21.5
	c0,1.8-0.4,3.2-1.1,4.2c-0.6,0.7-1.3,1.1-2.3,1.4c-0.8,0.1-1.8,0.1-3-0.1l-21.1-3.7c-4.3-0.8-6.5-3.4-6.5-7.8v-21.5
	C0,270.4,1,268.7,3,268.1z M260,99.7l-4.8-0.8v-3.1l4.8,0.8V99.7z M260,94.7L244.3,92v-3.1l15.6,2.7V94.7z M260,105.8v3.1l-14.8-2.6
	v-3.1L260,105.8z M254.3,98.7L238.5,96v-3.1l15.8,2.7V98.7z M239.7,102.3v3.1l-11.8-2.1v-3.1L239.7,102.3z M245,111.7l-15.1-2.6V106
	l15.1,2.6V111.7z M243.5,98.4v2.7l-16.7-2.9v-2.7L243.5,98.4z M259.8,101.3v2.7l-11.3-2v-2.7L259.8,101.3z M245,116.6v-3.1l14.9,2.6
	v3.1L245,116.6z M243.8,116.4l-11.8-2.1v-3.1l11.8,2V116.4z M237.1,95.7l-11.2-1.9v-3.1l11.2,1.9V95.7z M222.1,97.4l-7.8-1.4v-2.7
	l7.8,1.4V97.4z M223.9,93.4l-9.5-1.6v-3.1l9.5,1.6V93.4z M224.6,108.2l-10-1.8v-3.1l10,1.8V108.2z M224.5,99.7v3.1l-10.1-1.8v-3.1
	L224.5,99.7z M216.6,111.7l-2.2-0.4v-3.1l2.2,0.4V111.7z M229.1,159.9l3,0.5v3.9l-3-0.5V159.9z M234.1,164.7v-3.9l12.1,2.3v3.8
	L234.1,164.7z M223.3,169.6c0-1.2,0-2.3,0.1-3.3l15.6,2.8v3.4L223.3,169.6z M218.9,168.9v-3.3l2.4,0.4v3.4L218.9,168.9z
	 M216.9,168.5l-3.8-0.7v-3.2l3.8,0.6V168.5z M213.1,160.9V157l14.1,2.6v3.9L213.1,160.9z M131.2,195.4c0.4,0.1,0.7,0.4,1,0.8l4,6.6
	c0.2,0.3,0.3,0.7,0.3,1c0,0.3-0.1,0.6-0.3,0.9l-4,5.1c-0.2,0.3-0.6,0.5-1,0.5c-0.4,0-0.8-0.2-1.2-0.5c-0.4-0.3-0.6-0.7-0.6-1.1
	c-0.1-0.5,0-0.9,0.2-1.2l3.4-4.4l-3.4-5.6c-0.3-0.4-0.4-0.8-0.2-1.2c0.1-0.5,0.3-0.8,0.6-0.9C130.4,195.3,130.8,195.3,131.2,195.4z"
	/>
<path class="st9" d="M46.6,183.2c-0.1-0.4-0.3-0.8-0.6-1.1c-0.4-0.3-0.8-0.5-1.2-0.5c-0.4,0-0.8,0.2-1,0.5l-4,5.1
	c-0.2,0.3-0.3,0.6-0.3,0.9c0,0.3,0.1,0.7,0.3,1l4,6.7c0.3,0.4,0.6,0.7,1,0.8c0.4,0.2,0.8,0.1,1.2,0c0.4-0.2,0.6-0.5,0.6-1
	c0.1-0.4,0-0.9-0.2-1.2l-3.4-5.6l3.4-4.4C46.6,184,46.7,183.6,46.6,183.2z M71.6,209.9c0.7,1.1,1.4,2.1,2.3,3.1
	c4.4,5.2,9.7,8.4,15.8,9.5c6.2,1.1,11.4-0.2,15.7-4c4.4-3.6,6.6-8.6,6.6-14.9c0-6.2-2.2-11.9-6.5-17.1c-0.7-1.1-1.5-2.2-2.4-3.2
	c-4.3-5.1-9.5-8.2-15.7-9.3c-6.2-1.1-11.4,0.2-15.8,3.8c-4.3,3.7-6.5,8.7-6.5,15S67.3,204.8,71.6,209.9z M92.3,184.2
	c1,2.1,1.3,4.3,1,6.6c-0.3,2.4-1.1,4-2.5,5c-1,0.7-2.2,1-3.7,0.7c-1.4-0.3-2.6-1.1-3.5-2.3c-1.2-1.4-1.9-3.1-2.1-5
	c-0.4-2.2-0.3-4,0.2-5.6c0.2-1,0.7-1.8,1.4-2.3c0.6-0.6,1.3-0.9,2-1.1c1.4-0.2,2.8,0,4.1,0.6C90.8,181.6,91.8,182.7,92.3,184.2z
	 M34.6,255.8c-2.9-3-4.3-7.2-4.3-12.5v-30.5v-49.1c0-10,4.9-14.1,14.8-12.4l88.2,15.5c9.8,1.7,14.8,7.6,14.8,17.6v49.1V264
	c0,10-4.9,14.1-14.8,12.4l-82.9-14.6 M98.9,205.8l1.2,3.2c0.4,1.2,0.7,2.2,0.8,3.1c-0.1,0.6-0.4,1-1,1.2c-0.4-0.1-1-0.1-2-0.2
	c-2-0.3-5.7-1-11.3-2c-4.9-0.9-8.8-1.7-11.5-2.3c-0.6-0.2-1-0.6-1.2-1.4c-0.2-0.5-0.1-1.1,0.1-1.7c0.6-1.7,1.1-2.9,1.5-3.6
	c0.6-1.5,1.1-2.6,1.5-3.3c0.6-0.6,1.5-1.1,2.7-1.5c0.6-0.3,1.5-0.8,2.7-1.4c1.1,0.9,1.9,1.5,2.4,1.9c0.9,0.5,1.8,0.9,2.6,1.2
	c0.7,0.1,1.5,0,2.3-0.3c0.6-0.2,1.4-0.5,2.5-0.8c0.5,0.4,1.2,1,2.2,1.7c1,0.9,1.7,1.5,2.3,1.9c0.6,0.5,1,1.2,1.2,2
	C98.1,203.9,98.4,204.7,98.9,205.8z M83.5,227.8c-0.4,0.5-0.7,1.3-0.7,2.3c0,1,0.2,1.8,0.7,2.5c0.5,0.7,1.1,1.1,1.8,1.2
	c0.8,0.2,1.4,0,1.8-0.5c0.4-0.5,0.6-1.3,0.6-2.3c0-1-0.2-1.8-0.6-2.5c-0.4-0.6-1-1-1.8-1.2C84.5,227.2,83.9,227.4,83.5,227.8z
	 M85.3,228.5c0.3,0.1,0.5,0.3,0.7,0.6c0.2,0.3,0.2,0.8,0.2,1.6c0,0.8-0.1,1.4-0.2,1.7c-0.1,0.3-0.3,0.4-0.7,0.3
	c-0.2,0-0.4-0.1-0.6-0.5c-0.1-0.2-0.2-0.8-0.2-1.8c0-0.9,0.1-1.5,0.2-1.6C84.8,228.5,85,228.4,85.3,228.5z M81.6,227.8v-1l-4.6-0.8
	v1.3l3,0.5c-0.9,1.1-1.4,2.6-1.4,4.6l1.7,0.3c0-1.1,0.1-2.1,0.4-3C80.9,228.8,81.2,228.2,81.6,227.8z M91,229.6
	c0.1,0,0.3,0.1,0.5,0.2l0.2,0.5c0,0.3-0.1,0.5-0.2,0.7l-1,0.8c-0.5,0.3-0.9,0.6-1.2,1c-0.3,0.5-0.5,1-0.5,1.5l4.6,0.8v-1.3l-2.5-0.5
	c0.2-0.3,0.5-0.5,0.8-0.7c0.7-0.4,1.1-0.7,1.3-1c0.2-0.3,0.3-0.6,0.3-1c0-0.6-0.2-1.1-0.5-1.5c-0.3-0.4-0.8-0.7-1.5-0.8
	c-1.2-0.2-2,0.2-2.3,1.2l1.5,0.5C90.5,229.7,90.7,229.6,91,229.6z M113,233.5c0.1,0,0.3,0.1,0.5,0.2l0.2,0.5c0,0.3-0.1,0.5-0.2,0.6
	l-1,0.8c-0.5,0.3-0.9,0.7-1.2,1.1c-0.3,0.5-0.5,0.9-0.5,1.4l4.6,0.8v-1.3l-2.6-0.4c0.2-0.3,0.5-0.5,0.8-0.7c0.7-0.4,1.1-0.7,1.3-1
	c0.2-0.3,0.3-0.6,0.3-1c0-0.6-0.2-1.1-0.5-1.5c-0.3-0.4-0.9-0.7-1.5-0.8c-1.2-0.2-2,0.2-2.3,1.2l1.6,0.5
	C112.4,233.6,112.6,233.5,113,233.5z M47.4,220.7l-3.2,3.6v1l3.1,0.5v1.1l1.6,0.3v-1.2l0.9,0.2v-1.2l-0.9-0.2v-4L47.4,220.7z
	 M40.3,222.9c-0.5,0.3-0.9,0.7-1.1,1.1c-0.3,0.5-0.5,0.9-0.5,1.4l4.6,0.8v-1.3l-2.5-0.4c0.2-0.3,0.5-0.5,0.8-0.7
	c0.7-0.4,1.1-0.7,1.3-1c0.2-0.3,0.3-0.6,0.3-1c0-0.6-0.2-1.1-0.5-1.5c-0.3-0.4-0.9-0.7-1.6-0.8c-1.2-0.2-2,0.2-2.3,1.2l1.5,0.5
	c0.1-0.4,0.3-0.6,0.6-0.5c0.1,0,0.3,0.1,0.5,0.2l0.1,0.5c0,0.3-0.1,0.5-0.2,0.6L40.3,222.9z M37.8,233.7l10.9,2v-3.1l-10.9-2V233.7z
	 M56.5,226.6c0,0.4-0.1,0.6-0.2,0.7c-0.2,0.1-0.4,0.1-0.6,0.1c-0.1,0-0.3-0.1-0.5-0.3l-0.3-0.5l-1.5,0c0.3,1.2,1.1,1.8,2.2,2
	c0.7,0.2,1.3,0.1,1.8-0.2c0.4-0.3,0.6-0.8,0.6-1.5c0-0.5-0.2-1.1-0.5-1.6c-0.4-0.4-0.9-0.7-1.4-0.8h-0.9l0.1-0.9l2.5,0.4v-1.3
	l-3.6-0.6l-0.6,3.2l1.3,0.3c0.2-0.1,0.5-0.2,0.8-0.2l0.6,0.4L56.5,226.6z M50.6,225.9v1.6l1.6,0.3v-1.6L50.6,225.9z M50.3,236
	l2.2,0.4v-3l-2.2-0.5V236z M47.3,222.6v2l-1.5-0.2L47.3,222.6z M63.7,223.3l-3,2.6l3,3.9l1.3,0.2l-2.9-4l2.8-2.5L63.7,223.3z
	 M59.7,219.7v9.5l1,0.2v-3.4v-6L59.7,219.7z M54.1,233.6v3l9.5,1.8v-3L54.1,233.6z M75.3,239.7l10.9,2v-3.1l-10.9-2V239.7z
	 M75.3,245.1l2.9,0.5v-2.6l-2.9-0.5V245.1z M58,240l-12.2-2c0,0.7-0.1,1.6-0.1,2.5l12.2,2.1V240z M44.2,237.7l-1.9-0.3v2.6l1.9,0.2
	V237.7z M40.7,237.1l-2.9-0.5v2.5l2.9,0.5V237.1z M116.2,238l3.1,0.5v1.1l1.5,0.3v-1.2l0.9,0.2v-1.2l-0.9-0.2v-4l-1.5-0.2l-3.2,3.6
	V238z M111.3,247.2l11,2v-3.1l-11-2V247.2z M101,241.4l-9.4-1.8v3l9.4,1.8V241.4z M117.7,251.2l-1.9-0.3v2.6l1.9,0.2V251.2z
	 M111.3,252.6l3,0.5v-2.6l-3-0.5V252.6z M90,239.3l-2.2-0.5v3.1l2.2,0.4V239.3z M95.5,246l-12.2-2c0,0.7,0,1.6,0,2.5l12.2,2.1V246z
	 M81.7,246.2v-2.6l-1.9-0.3v2.6L81.7,246.2z M131.2,195.4c-0.4-0.2-0.8-0.1-1.2,0.1c-0.4,0.2-0.6,0.5-0.6,0.9
	c-0.1,0.4,0,0.9,0.2,1.2l3.4,5.6l-3.4,4.4c-0.3,0.3-0.4,0.7-0.2,1.2c0.1,0.4,0.3,0.8,0.6,1.1c0.4,0.3,0.8,0.5,1.2,0.5
	c0.4,0,0.8-0.2,1-0.5l4-5.1c0.2-0.3,0.3-0.6,0.3-0.9c0-0.3-0.1-0.7-0.3-1l-4-6.6C131.9,195.8,131.6,195.6,131.2,195.4z M135.7,236.1
	l-3,2.6l3,3.9l1.3,0.2l-2.9-4l2.8-2.5L135.7,236.1z M131.7,232.4v9.5l1,0.2v-3.4v-6L131.7,232.4z M126.3,234.7l-0.6,3.2l1.3,0.3
	c0.2-0.1,0.5-0.2,0.8-0.2l0.6,0.4l0.2,0.8c0,0.4-0.1,0.6-0.2,0.7c-0.2,0.1-0.4,0.1-0.6,0.1c-0.1,0-0.3-0.1-0.5-0.3l-0.3-0.5l-1.5,0
	c0.3,1.2,1,1.8,2.2,2c0.7,0.2,1.3,0.1,1.7-0.2c0.4-0.3,0.6-0.8,0.6-1.5c0-0.5-0.2-1.1-0.6-1.6c-0.4-0.4-0.9-0.7-1.4-0.8h-0.9
	l0.2-0.9l2.5,0.4v-1.3L126.3,234.7z M124.2,239l-1.6-0.3v1.6l1.6,0.3V239z M123.8,246.4v3.1l2.2,0.4v-3L123.8,246.4z M119.2,254
	l12.2,2.1v-2.6l-12.2-2C119.2,252.2,119.2,253.1,119.2,254z M137,248.9l-9.4-1.8v3l9.4,1.8V248.9z M119.3,237.4l-1.6-0.2l1.6-1.8
	V237.4z M198.6,319.2c0.3,0,0.5-0.1,0.7-0.5c0.2-0.3,0.4-0.8,0.4-1.3c0-0.5-0.1-1-0.4-1.4c-0.1-0.3-0.3-0.5-0.5-0.6l12.7,2.2
	c0.6,0.1,1,0.4,1.5,0.8c0.4,0.5,0.6,1,0.6,1.5c0,0.5-0.2,1-0.6,1.2c-0.4,0.3-0.9,0.5-1.5,0.4L198.6,319.2z M207.4,324.8
	c0.2,0.1,0.4,0.2,0.5,0.5l2.2,3.5c0.1,0.2,0.1,0.3,0.1,0.5c0,0.2,0,0.3-0.1,0.5l-2.2,2.8c-0.1,0.1-0.3,0.2-0.5,0.2
	c-0.2,0-0.5-0.1-0.7-0.3c-0.2-0.2-0.3-0.4-0.3-0.6c0-0.2,0-0.4,0.1-0.6l1.9-2.3l-1.9-3c-0.1-0.2-0.2-0.5-0.1-0.7
	c0-0.2,0.1-0.4,0.3-0.5C206.9,324.7,207.1,324.7,207.4,324.8z M158.4,309.6l3.7,0.7c0.6,0.1,1,0.4,1.5,0.8c0.4,0.5,0.6,1,0.6,1.5
	s-0.2,1-0.6,1.2c-0.4,0.3-0.9,0.5-1.5,0.3l-23.8-4.2c-0.2,0-0.3-0.1-0.5-0.1c0,0,0.1,0,0.1,0l19.9,3.5c0.5,0.1,0.9-0.1,1.2-0.4
	c0.4-0.3,0.5-0.7,0.5-1.2c0-0.5-0.2-1-0.5-1.5C158.9,310,158.7,309.8,158.4,309.6z M160.8,321.4c0.1,0.2,0.2,0.4,0.2,0.6
	c0,0.2,0,0.3-0.2,0.4l-2.1,2.8c-0.1,0.1-0.3,0.2-0.5,0.2c-0.2,0-0.5-0.1-0.7-0.3c-0.2-0.2-0.3-0.4-0.3-0.6c0-0.2,0-0.4,0.1-0.6
	l1.9-2.4l-1.9-3c-0.1-0.2-0.2-0.5-0.1-0.7c0-0.2,0.1-0.4,0.3-0.5c0.2-0.1,0.4-0.1,0.7,0c0.2,0.1,0.4,0.2,0.5,0.4L160.8,321.4z
	 M107.8,310c-0.1-0.2-0.2-0.5-0.1-0.7c0-0.2,0.1-0.4,0.3-0.5c0.2-0.1,0.4-0.1,0.7,0c0.2,0.1,0.4,0.2,0.5,0.5l2.2,3.5
	c0.1,0.2,0.1,0.3,0.1,0.5c0,0.2,0,0.3-0.1,0.5l-2.2,2.8c-0.1,0.1-0.3,0.2-0.5,0.2c-0.2,0-0.5-0.1-0.7-0.3c-0.2-0.2-0.3-0.4-0.3-0.6
	c0-0.2,0-0.4,0.1-0.6l1.9-2.3L107.8,310z M88.5,301.2l3.2,0.6c0.1,0,0.2-0.2,0.3-0.5c0.1-0.4,0.1-0.8,0.1-1.4c0-0.5,0-1-0.1-1.4
	c-0.1-0.3-0.1-0.5-0.2-0.6l21,3.7c0.6,0.1,1,0.4,1.5,0.8c0.4,0.5,0.6,1,0.6,1.5c0,0.5-0.2,1-0.6,1.2c-0.4,0.3-0.9,0.5-1.5,0.4
	L89,301.3C88.8,301.3,88.6,301.3,88.5,301.2z M38.6,328.2l62.5,11c0.4,0.1,0.8,0.4,1.1,0.8c0.3,0.5,0.4,1,0.4,1.6v0.1
	c0,0.6-0.1,1.1-0.4,1.4c-0.3,0.4-0.7,0.5-1.1,0.5l-62.5-11c-0.4-0.1-0.8-0.4-1.1-0.8c-0.3-0.5-0.4-1-0.4-1.6v0
	c0-0.6,0.1-1.1,0.4-1.5C37.8,328.3,38.2,328.1,38.6,328.2z M38.5,339.9l48.2,8.5c0.3,0.1,0.6,0.3,0.8,0.8c0.2,0.5,0.3,1.1,0.3,1.7
	v0.1c0,0.7-0.1,1.2-0.3,1.6c-0.2,0.4-0.5,0.6-0.8,0.5l-48.2-8.5c-0.3-0.1-0.6-0.3-0.8-0.8c-0.2-0.5-0.3-1-0.3-1.7v0
	c0-0.6,0.1-1.2,0.3-1.6C37.9,340,38.2,339.9,38.5,339.9z M108.1,343.1c0.4,0.1,0.7,0.4,1,0.8l4,6.7c0.2,0.3,0.3,0.7,0.3,1
	c0,0.3-0.1,0.6-0.3,0.9l-4,5.1c-0.2,0.3-0.6,0.5-1,0.5c-0.4,0-0.8-0.2-1.2-0.5c-0.4-0.3-0.6-0.7-0.7-1.1c-0.1-0.5,0-0.9,0.2-1.2
	l3.4-4.4l-3.4-5.5c-0.3-0.4-0.3-0.8-0.2-1.2c0.1-0.5,0.3-0.8,0.7-1C107.3,343,107.7,343,108.1,343.1z M13.2,341.1
	c0-0.2,0.1-0.4,0.1-0.6c0.1,0,0.2-0.1,0.4-0.2l0.5-4.4c0-0.4,0.1-0.9,0.1-1.2l0.1-0.3c0.3-1.7,0.4-3.1,0.5-4.4
	c0.1-0.8,0.1-1.7,0.2-2.5l0.1-1.7c0-0.6,0-1.1,0-1.7c1.7-1.1,3.7-1.5,6-1.3c0.4,0,0.8,0.1,1.2,0.2c3.3,0.6,6.1,2.2,8.5,5
	c2.3,2.8,3.5,5.8,3.5,9.2c0,3.4-1.2,6-3.5,8c-2.4,1.9-5.2,2.6-8.5,2c-0.4-0.1-0.8-0.2-1.2-0.3c-2.8-0.8-5.1-2.4-7.1-4.8
	C13.7,341.8,13.4,341.4,13.2,341.1z M21.8,328c-0.2,0-0.4,0.1-0.6,0.2c-0.1,0.1-0.2,0.1-0.4,0.2c-0.3,0.3-0.5,0.6-0.6,1
	c-0.3,0.7-0.3,1.6-0.1,2.6c0.1,0.9,0.4,1.8,1,2.5c0,0.1,0.1,0.1,0.1,0.2c0.4,0.5,0.9,0.8,1.5,1c0.7,0.2,1.2,0.1,1.7-0.2
	c0.7-0.4,1-1.2,1.1-2.3c0.2-1,0-2.1-0.5-3.1c-0.2-0.7-0.7-1.3-1.4-1.7C23,328.1,22.4,328,21.8,328z M27.7,343.9
	c0.4,0.1,0.8,0.1,1,0.2c0.3-0.1,0.4-0.2,0.4-0.5c0-0.5-0.1-1-0.4-1.5l-0.5-1.5c-0.2-0.6-0.4-1-0.5-1.2c-0.1-0.4-0.3-0.7-0.5-1
	c-0.3-0.2-0.6-0.5-1.1-1c-0.4-0.3-0.8-0.6-1-0.8c-0.5,0.1-0.9,0.2-1.1,0.3c-0.4,0.1-0.7,0.1-1.1,0.1c-0.4-0.2-0.8-0.4-1.2-0.7
	c-0.1-0.1-0.3-0.2-0.5-0.3c-0.2-0.2-0.4-0.3-0.6-0.6c-0.6,0.3-1,0.5-1.2,0.5c-0.6,0.2-1,0.4-1.2,0.7c-0.2,0.4-0.5,0.9-0.8,1.5
	c-0.2,0.3-0.4,0.9-0.6,1.7c-0.1,0.3-0.2,0.6-0.1,0.8c0.1,0.4,0.3,0.6,0.6,0.7c1,0.3,2.4,0.7,4,1.1c0.4,0.1,0.8,0.2,1.3,0.3
	C25,343.3,26.8,343.7,27.7,343.9z"/>
<path class="st10" d="M142.1,142.1l0.1,1.8l1.2,1.1l1.2-0.5c0.5,0.6,1,1.4,1.5,2.4l-1.2,0.8l0.3,1.6c0.2,0.1,0.5,0.2,0.8,0.5
	c0.3,0.2,0.5,0.4,0.5,0.6c0.1,0.3,0,0.7,0,1c-0.1,0.2-0.2,0.6-0.2,1l-1.6-0.2l-0.8,0.9c0.2,0.6,0.4,1.1,0.5,1.6
	c-0.3,0.3-0.5,0.6-0.8,0.8c-0.4,0.2-0.8,0.2-1.2,0.1l-1-1H140l-0.5,1.3c-0.8-0.2-1.5-0.5-2.3-0.8l0.1-1.6l-1.2-1
	c-0.4,0.1-0.7,0.1-0.9,0.1c-0.4,0-0.6,0-0.8-0.1c-0.2-0.3-0.5-0.6-0.7-1.1c-0.1-0.2-0.2-0.6-0.4-1.1l1.1-0.6l-0.3-1.6
	c-0.7-0.5-1.2-0.8-1.4-1c-0.1-0.7,0-1.3,0.4-1.9c0.2,0,0.5,0,0.8,0c0.2,0,0.4,0,0.8,0l0.8-1l-0.6-1.7c0.2-0.1,0.5-0.2,0.9-0.5
	c0.4-0.2,0.7-0.3,1-0.3c0.2,0.1,0.4,0.3,0.7,0.5c0.1,0.2,0.3,0.4,0.5,0.7h1.5l0.3-1.3C140.4,141.6,141.2,141.8,142.1,142.1z
	 M141.4,145.7c-1.2-0.8-2.3-1-3.3-0.5c-1.2,0.4-1.8,1.3-1.8,2.8c0,1.5,0.6,2.6,1.8,3.4c1.2,0.9,2.3,1,3.5,0.4
	c1.2-0.6,1.8-1.5,1.5-2.9C143.1,147.6,142.5,146.6,141.4,145.7z M68.6,378.7c0-1.1,0.4-2,1.1-2.6c0.8-0.6,1.7-0.8,2.8-0.6
	c1.1,0.2,2,0.7,2.8,1.6c0.8,0.9,1.1,1.9,1.1,3c0,1.1-0.4,2-1.1,2.7c-0.7,0.7-1.6,0.9-2.8,0.7c-1.1-0.2-2-0.8-2.8-1.6
	C68.9,380.9,68.6,379.9,68.6,378.7z M82.8,381.2c0-1.1,0.4-2,1.1-2.6c0.8-0.6,1.7-0.8,2.8-0.6c1.1,0.2,2,0.7,2.8,1.6
	c0.8,0.9,1.2,1.9,1.2,3c0,1.1-0.4,2-1.2,2.7c-0.7,0.7-1.6,0.9-2.8,0.7c-1.1-0.2-2-0.8-2.8-1.6C83.2,383.4,82.8,382.4,82.8,381.2z
	 M104.2,382.4c0.8,0.9,1.2,1.9,1.2,3c0,1.1-0.4,2-1.2,2.7c-0.7,0.7-1.7,0.9-2.8,0.7c-1.1-0.2-2-0.8-2.8-1.7c-0.8-0.9-1.2-1.9-1.2-3
	c0-1.1,0.4-2,1.2-2.6c0.8-0.6,1.7-0.8,2.8-0.6C102.5,381,103.4,381.5,104.2,382.4z M107.1,421.2c-0.2,0.3-0.4,0.4-0.7,0.4l-38.5-6.8
	c-0.3,0-0.5-0.2-0.6-0.6c-0.2-0.3-0.3-0.7-0.3-1.1v0c0-0.4,0.1-0.8,0.3-1.1c0.2-0.3,0.4-0.4,0.6-0.3l38.5,6.8c0.3,0,0.5,0.2,0.7,0.5
	c0.2,0.4,0.2,0.8,0.2,1.2v0C107.3,420.6,107.2,420.9,107.1,421.2z"/>
<path class="st11" d="M49.3,107l99.2,17.5c11,2,16.5,8.5,16.5,19.7v59.9v90.3l-4.2-0.8v-57.8V147c0-11.2-5.5-17.7-16.5-19.7
	L37.6,108.5c-3.7-0.6-6.7-0.6-9.1,0.2c2.7-3.1,7.1-4.1,13.4-3.1L49.3,107z M164.9,377.1v43.5c0,4.2-0.8,7.4-2.3,9.8
	c-1.2,2.6-5,3.4-6.2,4.1l2-1.5c1.5-2.3,2.2-5.5,2.2-9.7v-47L164.9,377.1z M164.9,342.6l-4.2-0.8v-11.4c1.1,0.2,2.1,0.2,2.9,0.1
	l1.3-0.2V342.6z"/>
<path class="st12" d="M160.7,235.8l-12.7-2.2v-49.1c0-10-4.9-15.9-14.8-17.6l-88.2-15.5c-9.9-1.7-14.8,2.4-14.8,12.4v49.1l-9.1-1.6
	v-88.8c0-7.4,2.4-12,7.3-13.6c2.4-0.8,5.5-0.9,9.1-0.2l106.6,18.8c11,2,16.5,8.5,16.5,19.7V235.8z M40.6,124.1
	c-0.7-0.9-1.7-1.4-2.8-1.6c-1.1-0.2-2,0-2.8,0.6c-0.8,0.6-1.1,1.5-1.1,2.6c0,1.1,0.4,2.1,1.1,3.1c0.8,0.9,1.7,1.4,2.8,1.6
	c1.1,0.2,2,0,2.8-0.7c0.8-0.6,1.1-1.5,1.1-2.6C41.8,126,41.4,125,40.6,124.1z M141.4,145.7c1.1,0.8,1.7,1.9,1.8,3.1
	c0.2,1.4-0.3,2.3-1.5,2.9c-1.2,0.6-2.3,0.5-3.5-0.4c-1.2-0.8-1.8-1.9-1.8-3.4c0-1.5,0.6-2.4,1.8-2.8
	C139.1,144.7,140.2,144.9,141.4,145.7z M142.1,142.1c-0.9-0.3-1.7-0.5-2.4-0.6l-0.3,1.3h-1.5c-0.2-0.3-0.4-0.5-0.5-0.7
	c-0.2-0.2-0.5-0.4-0.7-0.5c-0.3,0-0.6,0.1-1,0.3c-0.4,0.2-0.7,0.4-0.9,0.5l0.6,1.7l-0.8,1c-0.4,0-0.6,0-0.8,0c-0.3,0-0.6,0-0.8,0
	c-0.4,0.6-0.5,1.2-0.4,1.9c0.2,0.2,0.7,0.6,1.4,1l0.3,1.6l-1.1,0.6c0.2,0.5,0.3,0.9,0.4,1.1c0.2,0.4,0.4,0.8,0.7,1.1
	c0.2,0.1,0.5,0.1,0.8,0.1c0.2,0,0.5-0.1,0.9-0.1l1.2,1l-0.1,1.6c0.8,0.3,1.6,0.6,2.3,0.8l0.5-1.3h1.5l1,1c0.4,0.2,0.8,0.1,1.2-0.1
	c0.3-0.2,0.6-0.4,0.8-0.8c-0.1-0.5-0.3-1-0.5-1.6l0.8-0.9l1.6,0.2c0.1-0.4,0.2-0.7,0.2-1c0.1-0.3,0.1-0.7,0-1c0-0.2-0.2-0.4-0.5-0.6
	c-0.3-0.2-0.6-0.4-0.8-0.5l-0.3-1.6l1.2-0.8c-0.4-0.9-0.9-1.7-1.5-2.4l-1.2,0.5l-1.2-1.1L142.1,142.1z"/>
<path class="st13" d="M156,435.6l14.6,2.5c-4.5,0.8-8.8,1.3-13,1.7c-4.5,0.4-7.5,0.5-9,0.2L19.5,417.3c-1.5-0.3-1.1-0.8,1.2-1.5
	c1.6-0.6,3.9-1.1,6.7-1.7c2.6,2.1,6,3.6,10.2,4.3l106.6,18.8C149.3,438.1,153.3,437.6,156,435.6z"/>
<path class="st14" d="M62.8,85V58.1c3.6-1.7,7.2-1.5,10.6,0.7l-0.1,0c5.8,3.8,11.1,5.8,16,6.3v24.7L62.8,85z M40.6,124.1
	c0.8,0.9,1.1,1.9,1.1,3c0,1.1-0.4,2-1.1,2.6c-0.7,0.7-1.7,0.9-2.8,0.7c-1.1-0.2-2-0.8-2.8-1.6c-0.8-0.9-1.1-1.9-1.1-3.1
	c0-1.1,0.4-2,1.1-2.6c0.8-0.6,1.7-0.8,2.8-0.6C39,122.7,39.9,123.2,40.6,124.1z"/>
<path class="st15" d="M19.9,352.4l91.8,16.2h0c0.9,0.2,1.8,0.2,2.5,0l8.5-1.5c2-0.9,3-3.4,3-7.5V341c0-1.2-0.1-2.2-0.2-3.2
	c3.8,0.9,5.7,4.2,5.7,9.8v18.5c0,5.9-2,8.4-6.1,7.7L24.9,356.2c-1.5-0.3-2.8-0.9-3.7-1.9C20.6,353.7,20.2,353.1,19.9,352.4z
	 M137.1,326c0.7,0.3,1.5,0.6,2.4,0.7l20.2,3.6v6.4l-15.6-2.8C139.5,333.1,137.2,330.4,137.1,326z M124.2,292.3
	c3,1.2,4.6,3.8,4.6,7.5V323c0,2-0.4,3.5-1.2,4.5c-0.6,0.7-1.5,1.2-2.5,1.5c-0.9,0.1-2,0.1-3.2-0.1l-22.8-4c-3.8-0.7-6.1-2.7-6.8-5.9
	l19.2,3.4c1.2,0.2,2.2,0.2,3,0.1l6.8-1.2c2-0.6,3-2.5,3-5.5v-21.5C124.4,293.6,124.3,292.9,124.2,292.3z M146.6,373.5
	c0.8,0.4,1.8,0.8,3,1l10.8,1.9v6.2l-6.7-1.2C149.1,380.5,146.8,377.9,146.6,373.5z"/>
<path class="st16" d="M9.2,294.1L9,293.3c-0.1,0-0.2,0-0.2,0c0.1-0.1,0.2-0.1,0.2-0.1L9.2,294.1z"/>
<path class="st17" d="M196.9,56.5v7.8l-7.7-1.4c0,0,0-0.1,0-0.1c0-2.1,0.8-3.8,2.2-5C192.9,56.5,194.7,56.1,196.9,56.5z M198,92.3
	L198,92.3l5.4,6.5c-1.5,1.2-3.2,1.6-5.4,1.2c-2.1-0.4-3.9-1.4-5.4-3.2l0,0L198,92.3z M109.3,53.5c2.4-3.7,5.2-6.5,8.3-8.5v49.6
	L91,90v-25C98.2,65.1,104.3,61.2,109.3,53.5z M202.6,121l-17.6-3.1v-4.8l17.6,3.1V121z M208.1,161.5l-9.7-1.4c0-0.1,0-0.1,0-0.2
	c0-0.2,0-0.4,0-0.5c0-0.1,0-0.1,0-0.2c0-0.1,0-0.1,0-0.1c0.1-4.7,1.3-8.9,3.3-12.6c0.3-0.6,0.6-1.1,1-1.7c0.4-0.5,0.7-1.1,1.1-1.6
	c1.9-2.5,4.2-4.5,6.8-6c2.3-1.4,4.9-2.4,7.8-3.1c1.4-0.3,2.9-0.5,4.3-0.6c4.6-0.3,9.2,0.5,13.9,2.4l-0.7,2.5l-0.7,2.4l-1.2,4.2
	c-2-0.8-4-1.4-6.1-1.6c-0.9-0.1-1.8-0.1-2.7-0.1c-0.9,0-1.8,0.1-2.7,0.3c-0.3,0-0.7,0.1-1,0.2c-0.4,0.1-0.7,0.2-1.1,0.3
	c-1.3,0.4-2.4,0.9-3.5,1.5c-1.4,0.8-2.7,1.7-3.8,2.9c-0.2,0.2-0.4,0.4-0.6,0.6l-0.2,0.2c-0.2,0.2-0.4,0.5-0.6,0.7
	c-0.3,0.4-0.6,0.8-0.9,1.1c-1.8,2.8-2.8,6-2.9,9.6C208.1,161.1,208.1,161.3,208.1,161.5z"/>
<path class="st18" d="M198,84.5L198,84.5l0,7.8l-5.4,4.5l0,0h0c-1.5-1.8-2.2-3.7-2.2-5.9c0-2.2,0.8-3.9,2.2-5.1S195.9,84.1,198,84.5
	L198,84.5z M196.9,56.5c2.1,0.4,4,1.5,5.5,3.2c1.5,1.8,2.2,3.7,2.2,5.9c0,0,0,0.1,0,0.1l-7.7-1.4h0V56.5z"/>
<path class="st19" d="M204.6,65.6L204.6,65.6c0,2.2-0.7,3.9-2.2,5.1c-1.5,1.3-3.3,1.7-5.5,1.4v-7.8l7.7,1.4
	C204.6,65.6,204.6,65.6,204.6,65.6z M203.4,98.8l-5.4-6.5v0v-7.8h0c2.1,0.4,3.9,1.4,5.4,3.2c1.5,1.8,2.2,3.8,2.2,5.9
	C205.7,95.9,204.9,97.6,203.4,98.8L203.4,98.8z"/>
<path class="st20" d="M137.1,292l5.6-1.1h0.2c0.8-0.1,1.8-0.1,2.9,0.1l14.8,2.6l4.2,0.8l2,0.4c4.3,0.7,6.5,3.3,6.5,7.6v21.5
	c0,3-1,4.8-3,5.5l-5.5,1l-1.3,0.2c0.5-0.1,1-0.3,1.3-0.6c0.4-0.2,0.7-0.5,1-0.8c0.7-1,1.1-2.4,1.1-4.2v-21.5c0-2.4-0.7-4.3-2-5.6
	c-1-1-2.4-1.6-4.2-2c0,0-0.1,0-0.1,0l-21.1-3.7C138.6,292,137.8,291.9,137.1,292z"/>
<path class="st21" d="M159.7,330.2l-20.2-3.6c-0.9-0.2-1.7-0.4-2.4-0.7c-2.7-1.2-4.1-3.6-4.1-7v-21.5c0-2.9,1-4.6,3-5.2
	c0.4-0.1,0.8-0.2,1.2-0.2c0.7-0.1,1.5,0,2.3,0.1l21.1,3.7c0,0,0.1,0,0.1,0c1.8,0.3,3.2,1,4.2,2c1.4,1.3,2,3.2,2,5.6v21.5
	c0,1.8-0.4,3.2-1.1,4.2c-0.3,0.3-0.6,0.6-1,0.8c-0.4,0.2-0.8,0.4-1.3,0.6c-0.8,0.1-1.8,0.1-2.9-0.1c0,0-0.1,0-0.1,0L159.7,330.2z
	 M138,309.9c0.1,0.1,0.3,0.1,0.5,0.1l23.8,4.2c0.6,0.1,1,0,1.5-0.3c0.4-0.3,0.6-0.7,0.6-1.2s-0.2-1-0.6-1.5
	c-0.4-0.4-0.9-0.7-1.5-0.8l-3.7-0.7c-0.2-0.1-0.3-0.1-0.5-0.1l-19.9-3.5c-0.5-0.1-0.9,0-1.2,0.3c-0.3,0.3-0.5,0.8-0.5,1.3v0
	c0,0.2,0,0.3,0,0.5l0,0.1c0.1,0.3,0.2,0.5,0.4,0.8C137.1,309.5,137.5,309.7,138,309.9z M160.7,316.5c-0.5-0.3-1.1-0.5-1.8-0.6
	c-1.5-0.3-2.8,0.1-4,1c-1.1,0.9-1.6,2.1-1.6,3.7s0.5,3,1.6,4.3c1.1,1.3,2.4,2,4,2.3c0.6,0.1,1.2,0.1,1.8,0c0.8-0.1,1.5-0.4,2.2-1
	c1.1-0.9,1.6-2.2,1.6-3.8c0-1.6-0.5-3-1.6-4.2C162.2,317.5,161.5,316.9,160.7,316.5z"/>
<linearGradient id="SVGID_1_" gradientUnits="userSpaceOnUse" x1="90.9019" y1="92.1463" x2="90.9029" y2="439.6145">
	<stop  offset="0" style="stop-color:#3333C1"/>
	<stop  offset="0.9412" style="stop-color:#7D7DEA"/>
</linearGradient>
<path class="st22" d="M135.9,292.2c0.4-0.1,0.8-0.2,1.2-0.2l5.6-1.1h0.2c0.8-0.1,1.8-0.1,2.9,0.1l14.8,2.6v-57.8l-12.7-2.2V264
	c0,10-4.9,14.1-14.8,12.4l-79.6-14c-0.5-0.2-1.1-0.4-1.8-0.5c-7.8-1.4-8.3-2-13.7-3.9c-1.5-0.5-2.8-1.5-3.9-2.6c-2.6-2.9-4-7-4-12.2
	v-30.5l-9.1-1.6v35v5.1v12v4.4v2.8l6.2,1.1c4.3,0.8,6.4,3.3,6.4,7.6v21.5c0,1.8-0.4,3.2-1.1,4.2c-0.6,0.7-1.3,1.1-2.3,1.4
	c-0.8,0.1-1.8,0.1-3-0.1l-6.2-1.1v8.7l98.5,17.4c3.3,0.6,5.2,2.8,5.8,6.7c3.8,0.9,5.7,4.2,5.7,9.8v18.5c0,5.9-2,8.4-6.1,7.7
	L24.9,356.2c-1.5-0.3-2.8-0.9-3.7-1.9v44.5c0,6.9,2.1,12,6.2,15.3c2.6,2.1,6,3.6,10.3,4.3l106.6,18.8c5.1,0.9,9,0.4,11.8-1.5
	c1-0.7,1.8-1.6,2.5-2.6c1.5-2.3,2.2-5.5,2.2-9.7v-47l-0.3-0.1v6.2l-6.7-1.2c-4.5-0.8-6.9-3.5-7-7.9c-2.4-1.3-3.5-3.5-3.5-6.8v-21.5
	c0-2.9,1-4.6,2.9-5.2c0.4-0.1,0.8-0.2,1.2-0.2c0.7-0.1,1.5,0,2.4,0.1l11.1,2v-11.4c0,0-0.1,0-0.1,0l-0.9-0.1v6.4l-15.6-2.8
	c-4.6-0.8-6.9-3.5-7-8c-2.7-1.2-4.1-3.6-4.1-7v-21.5C133,294.5,133.9,292.8,135.9,292.2z M75.8,308.2c0,1.8-0.4,3.2-1.1,4.2
	c-0.6,0.7-1.3,1.1-2.3,1.4c-0.8,0.1-1.8,0.1-3-0.1l-21.1-3.7c-4.3-0.8-6.5-3.4-6.5-7.8v-21.5c0-2.9,1-4.6,3-5.2
	c0.4-0.1,0.8-0.2,1.2-0.2c0.7-0.1,1.5,0,2.4,0.1l21.1,3.7c4.3,0.8,6.4,3.3,6.4,7.6V308.2z M128.8,323c0,2-0.4,3.5-1.2,4.5
	c-0.6,0.7-1.5,1.2-2.5,1.5c-0.9,0.1-2,0.1-3.2-0.1l-22.8-4c-3.8-0.7-6.1-2.7-6.8-5.9l-1.9-0.3c-4.3-0.8-6.5-3.4-6.5-7.8v-21.5
	c0-2.9,1-4.6,3-5.2c0.4-0.1,0.8-0.2,1.2-0.2l5.6-1.1H94c0.8-0.1,1.8-0.1,2.9,0.1l21.1,3.7c3.6,0.6,5.7,2.5,6.3,5.5
	c3,1.2,4.6,3.8,4.6,7.5V323z M98.6,381.4c0.8-0.6,1.7-0.8,2.8-0.6s2,0.7,2.8,1.6c0.8,0.9,1.2,1.9,1.2,3c0,1.1-0.4,2-1.2,2.7
	c-0.7,0.7-1.7,0.9-2.8,0.7c-1.1-0.2-2-0.8-2.8-1.7s-1.2-1.9-1.2-3C97.5,382.9,97.8,382.1,98.6,381.4z M84,378.6
	c0.8-0.6,1.7-0.8,2.8-0.6c1.1,0.2,2,0.7,2.8,1.6c0.8,0.9,1.2,1.9,1.2,3c0,1.1-0.4,2-1.2,2.7c-0.7,0.7-1.6,0.9-2.8,0.7
	c-1.1-0.2-2-0.8-2.8-1.6c-0.8-0.9-1.1-1.9-1.1-3C82.8,380.1,83.2,379.3,84,378.6z M69.7,376.1c0.8-0.6,1.7-0.8,2.8-0.6
	c1.1,0.2,2,0.7,2.8,1.6c0.8,0.9,1.1,1.9,1.1,3c0,1.1-0.4,2-1.1,2.7c-0.7,0.7-1.6,0.9-2.8,0.7c-1.1-0.2-2-0.8-2.8-1.6
	c-0.8-0.9-1.1-1.9-1.1-3C68.6,377.6,68.9,376.8,69.7,376.1z M32.7,399.5c-1.6-0.3-2.9-1.3-3.9-3.2c-1.1-1.8-1.7-3.9-1.7-6.1
	c0-0.1,0-0.3,0-0.4c0.1-2.1,0.6-3.8,1.7-5.2c1.1-1.4,2.4-2,3.9-1.7l40,7c1.6,0.3,2.9,1.3,4,3.1c1.1,1.8,1.7,3.9,1.7,6.2
	c0,2.3-0.6,4.1-1.7,5.5c-1.1,1.5-2.4,2-4,1.8L32.7,399.5z M107.3,420.1c0,0.4-0.1,0.8-0.2,1c-0.2,0.3-0.4,0.4-0.7,0.4l-38.5-6.8
	c-0.3,0-0.5-0.2-0.6-0.6c-0.2-0.3-0.3-0.7-0.3-1.1v0c0-0.4,0.1-0.8,0.3-1.1c0.2-0.3,0.4-0.4,0.6-0.3l38.5,6.8c0.3,0,0.5,0.2,0.7,0.5
	C107.2,419.2,107.3,419.6,107.3,420.1L107.3,420.1z M140.6,402c1.6,0.3,2.9,1.3,4,3.1c1.1,1.8,1.6,3.8,1.6,6.1s-0.5,4.2-1.6,5.6
	c-1.1,1.4-2.4,2-4,1.7l-40-7c-1.6-0.3-2.9-1.3-4-3.2c-1.1-1.8-1.7-3.8-1.7-6.1c0-2.3,0.6-4.2,1.7-5.6c1.1-1.4,2.4-2,4-1.7L140.6,402
	z"/>
<path class="st23" d="M222.7,133.4c-4.5,0.2-8.5,1.5-12.1,3.8c2.3-1.4,4.9-2.4,7.8-3.1C219.8,133.8,221.3,133.5,222.7,133.4z"/>
<path class="st23" d="M217,145.6c-1.4,0.8-2.7,1.7-3.8,2.9c0.2-0.2,0.4-0.4,0.6-0.6C214.8,147,215.8,146.2,217,145.6z"/>
<path class="st23" d="M228,143.4c-0.9-0.1-1.8-0.1-2.7-0.1C226.2,143.3,227.1,143.4,228,143.4L228,143.4z"/>
<path class="st23" d="M111.8,332.4L22,316.6l-0.7-0.1l-11.4-2c-0.9-0.2-1.7-0.2-2.4-0.2c-0.4,0.1-0.9,0.2-1.2,0.3
	c-2,0.6-3,2.4-3,5.4v22.5c0,3.4,1.2,5.8,3.6,7.1c0.9,0.5,1.9,0.8,3,1l11,2l0.4,0.1l4.4,0.8l5.9,1.1c0.4,0.1,0.9,0.1,1.3,0.2
	l78.8,13.9h0c0.9,0.2,1.8,0.2,2.5,0c1.4-0.4,2.4-1.4,3-3.2c0.4-1.2,0.6-2.7,0.6-4.5v-18.5c0-2.5-0.4-4.5-1.1-6.1
	C115.8,334.1,114.1,332.9,111.8,332.4z M87.9,351c0,0.7-0.1,1.2-0.3,1.6c-0.2,0.4-0.5,0.6-0.8,0.5l-48.2-8.5c-0.1,0-0.2-0.1-0.4-0.2
	V340c0.1,0,0.2-0.1,0.4,0l48.2,8.5c0.3,0.1,0.6,0.3,0.8,0.8C87.8,349.7,87.9,350.3,87.9,351L87.9,351z M102.7,341.7
	c0,0.6-0.1,1.1-0.4,1.4c-0.3,0.4-0.7,0.5-1.1,0.5l-62.5-11c-0.2,0-0.3-0.1-0.5-0.2v-4.2c0.1,0,0.3,0,0.5,0l62.5,11
	c0.4,0.1,0.8,0.4,1.1,0.8C102.5,340.5,102.7,341.1,102.7,341.7L102.7,341.7z M113.2,352.5l-4,5.1c-0.2,0.3-0.6,0.5-1,0.5
	c-0.4,0-0.8-0.2-1.2-0.5c-0.4-0.3-0.6-0.7-0.7-1.1c-0.1-0.5,0-0.9,0.2-1.2l3.4-4.4l-3.4-5.5c-0.3-0.4-0.3-0.8-0.2-1.2
	c0.1-0.5,0.3-0.8,0.7-1c0.4-0.2,0.8-0.2,1.2,0c0.4,0.1,0.7,0.4,1,0.8l4,6.7c0.2,0.3,0.3,0.7,0.3,1S113.4,352.2,113.2,352.5z"/>
<path class="st23" d="M248,187.2l-1.8-2.1l-3.2-3.7c-4,3.4-8.8,4.7-14.4,3.9c-5.6-0.9-10.4-3.6-14.4-8.1c-4-4.5-6-9.6-6.1-15.3
	c0-0.1,0-0.2,0-0.3l-9.7-1.4c0,0.1,0,0.3,0,0.5c0.1,8.3,3.1,15.9,9,22.5c5.9,6.7,13,10.7,21.2,12c8.2,1.2,15.3-0.7,21.3-5.6
	L248,187.2z"/>
<path class="st23" d="M209.6,303.8l-21.1-3.7c-0.9-0.2-1.7-0.2-2.3-0.1c-0.4,0.1-0.8,0.1-1.2,0.2c-2,0.6-3,2.3-3,5.2v21.5
	c0,4.4,2.2,7,6.5,7.8l21.1,3.7c1.2,0.2,2.2,0.2,3,0.1c1-0.2,1.7-0.7,2.3-1.4c0.7-1,1.1-2.4,1.1-4.2v-21.5
	C216,307.1,213.8,304.6,209.6,303.8z M187.7,317.3c-0.1,0-0.2,0-0.3,0l-0.8-0.2c-0.3-0.1-0.5-0.3-0.7-0.8c-0.2-0.3-0.3-0.7-0.3-1.1
	v-0.1c0,0,0-0.1,0-0.1v0c0-0.5,0.1-1,0.3-1.4c0.2-0.3,0.4-0.5,0.7-0.4l11.9,2.1c0.1,0,0.1,0,0.2,0l12.7,2.2c0.6,0.1,1,0.4,1.5,0.8
	c0.4,0.5,0.6,1,0.6,1.5c0,0.5-0.2,1-0.6,1.2c-0.4,0.3-0.9,0.5-1.5,0.4l-12.9-2.3L187.7,317.3z M212.1,333.6c-1.1,0.9-2.4,1.2-3.9,1
	s-2.8-1-4-2.3c-1.1-1.3-1.6-2.7-1.6-4.3c0-1.6,0.5-2.8,1.6-3.7c1.1-0.9,2.4-1.3,4-1s2.8,1,3.9,2.3c1.1,1.3,1.6,2.7,1.6,4.2
	S213.2,332.6,212.1,333.6z"/>
<path class="st23" d="M145.8,45.6c-1.3-0.9-2.7-1.5-4.2-2c-8.7-2.9-16.1-2.7-22.3,0.5v51l26.6,4.6V45.6z"/>
<path class="st23" d="M170.7,343.6l-5.8-1l-4.2-0.8l-11.1-2c-0.9-0.2-1.7-0.2-2.4-0.1c-0.4,0.1-0.8,0.1-1.2,0.2
	c-2,0.6-2.9,2.3-2.9,5.2v21.5c0,3.2,1.2,5.5,3.5,6.8c0.8,0.4,1.8,0.8,3,1l10.8,1.9l0.3,0.1l4.2,0.8l5.8,1c1.2,0.2,2.2,0.2,3,0.1
	c1-0.2,1.7-0.7,2.3-1.4c0.7-1,1.1-2.4,1.1-4.2v-21.5C177.1,346.9,174.9,344.3,170.7,343.6z"/>
</svg>
