<?xml version="1.0" encoding="utf-8"?>
<!-- Generator: Adobe Illustrator 18.1.1, SVG Export Plug-In . SVG Version: 6.00 Build 0)  -->
<svg version="1.1" id="Слой_1" xmlns="http://www.w3.org/2000/svg" xmlns:xlink="http://www.w3.org/1999/xlink" x="0px" y="0px"
	 viewBox="0 0 8.5 16.9" style="enable-background:new 0 0 8.5 16.9;" xml:space="preserve">
<style type="text/css">
	.st0{fill-rule:evenodd;clip-rule:evenodd;fill:#100F10;stroke:#201600;stroke-width:0.5669;stroke-miterlimit:22.9256;}
	.st1{fill:#E9ECEB;}
	.st2{fill:#E2E2E2;}
	.st3{fill-rule:evenodd;clip-rule:evenodd;fill:#FFFFFF;}
	.st4{fill:#FFFFFF;}
	.st5{fill:#FFFEFF;}
	.st6{fill:#ECECEC;}
	.st7{fill-rule:evenodd;clip-rule:evenodd;fill:#E61C21;}
	.st8{fill-rule:evenodd;clip-rule:evenodd;fill:#E2E2E2;}
	.st9{fill:#F3444E;}
	.st10{fill-rule:evenodd;clip-rule:evenodd;fill:#F3444E;}
	.st11{fill:#DC7D43;}
	.st12{fill:#201600;}
	.st13{fill:#D24A43;}
	.st14{fill:#B6B8BD;}
	.st15{fill-rule:evenodd;clip-rule:evenodd;fill:#FFFEFF;}
	.st16{fill:#E62A13;}
	.st17{fill-rule:evenodd;clip-rule:evenodd;fill:#E62A13;}
	.st18{fill:#F1444C;}
	.st19{fill-rule:evenodd;clip-rule:evenodd;fill:#FF0000;}
	.st20{fill-rule:evenodd;clip-rule:evenodd;fill:#5C768B;}
	.st21{fill:none;stroke:#D24A43;stroke-width:1.4173;stroke-miterlimit:22.9256;}
	.st22{fill-rule:evenodd;clip-rule:evenodd;fill:#D24A43;}
	.st23{fill-rule:evenodd;clip-rule:evenodd;fill:#E8444C;}
	.st24{fill:none;stroke:#C6C6C6;stroke-width:1.0001;stroke-miterlimit:22.9256;}
	.st25{fill:#E61C21;}
	.st26{fill-rule:evenodd;clip-rule:evenodd;fill:#E41C22;}
	.st27{fill:none;stroke:#F1444C;stroke-miterlimit:10;}
	.st28{fill:none;stroke:#F1444C;stroke-width:2.1099;stroke-miterlimit:10;}
	.st29{fill:none;stroke:#F1444C;stroke-width:5.6693;stroke-miterlimit:10;}
	.st30{fill:none;stroke:#F1444C;stroke-width:2.8347;stroke-miterlimit:10;}
	.st31{fill:none;stroke:#F1444C;stroke-width:1.9345;stroke-miterlimit:10;}
	.st32{fill:none;stroke:#F1444C;stroke-width:1.3761;stroke-miterlimit:10;}
	.st33{fill:none;stroke:#F1444C;stroke-width:2.6283;stroke-miterlimit:10;}
	.st34{fill:none;stroke:#F1444C;stroke-width:3.536;stroke-miterlimit:10;}
	.st35{fill:none;stroke:#F1444C;stroke-width:3.3797;stroke-miterlimit:10;}
	.st36{fill:none;stroke:#F1444C;stroke-width:2.9335;stroke-miterlimit:10;}
	.st37{fill:none;stroke:#F1444C;stroke-width:1.275;stroke-miterlimit:10;}
	.st38{fill:none;stroke:#F1444C;stroke-width:1.0997;stroke-miterlimit:10;}
	.st39{fill:none;stroke:#F1444C;stroke-width:1.9238;stroke-miterlimit:10;}
</style>
<path class="st4" d="M5.8,16.9H1.5l0-8H0V5.5h1.5C1.6,3.7,1.7,2,2.6,1.1C3.6,0.1,4.5,0,6.4,0l2,0v3.5l-0.5,0c0,0-0.2,0-0.5,0
	C6.5,3.4,6,3.6,5.9,3.8C5.8,4,5.8,4.7,5.8,5.1c0,0.1,0,0.3,0,0.4h2.6L8.3,6.6C8.1,7.3,8,7.9,7.8,8.5L7.8,8.9H5.8V16.9z M2.3,16.1H5
	V8h2.1c0.1-0.5,0.2-1,0.3-1.6l0,0H5l0-0.4c0-0.2,0-0.5,0-0.8c0-0.8,0-1.4,0.2-1.8c0.3-0.5,1.1-0.8,2.2-0.8c0,0,0.1,0,0.1,0V0.9
	l-1.1,0C4.5,0.9,3.9,1,3.2,1.7C2.5,2.4,2.4,4,2.3,5.7l0,0.7H0.8v1.7h1.5V16.1z"/>
</svg>
