<?xml version="1.0" encoding="utf-8"?>
<!-- Generator: Adobe Illustrator 23.0.3, SVG Export Plug-In . SVG Version: 6.00 Build 0)  -->
<svg version="1.1" id="Layer_1" xmlns="http://www.w3.org/2000/svg" xmlns:xlink="http://www.w3.org/1999/xlink" x="0px" y="0px"
	 viewBox="0 0 806 899.8" style="enable-background:new 0 0 806 899.8;" xml:space="preserve">
<style type="text/css">
	.st0{fill:#2B4750;}
	.st1{fill:#FFC595;}
	.st2{fill:#1D2018;}
	.st3{fill:#454240;}
	.st4{fill:#DADAD8;}
	.st5{fill:#FFFFFF;}
	.st6{fill:#E6E6E5;}
	.st7{fill-rule:evenodd;clip-rule:evenodd;fill:#FA6D2F;}
	.st8{opacity:0.5;fill:#FFFFFF;}
</style>
<g>
	<g>
		<path class="st0" d="M644.4,523.2c-45.8-49.4-227.2-47.1-236.3-46.9c-9.2-0.1-190.6-2.4-236.3,46.9
			C124.9,573.9,121.1,748,121.1,748s40.8,74.3,98.8,95.1h376.3c58.1-20.8,98.8-95.1,98.8-95.1S691.4,573.9,644.4,523.2z"/>
		<path class="st1" d="M513.7,365.1c0,70.3-47.3,123.5-105.6,123.5c-58.3,0-105.6-53.3-105.6-123.5c0-24.2,1.3-49.2,6.9-71.5
			c10.6-42.5,36.7-75.5,98.7-75.5c54.9,0,82.5,30.5,95.5,70.6C511.2,312.3,513.7,339.2,513.7,365.1z"/>
		<path class="st2" d="M514.7,331.8H301.5c-6.6,0-12-5.4-12-12v-34.1c0-6.6,5.4-12,12-12h213.2c6.6,0,12,5.4,12,12v34.1
			C526.7,326.4,521.3,331.8,514.7,331.8z"/>
		<path class="st2" d="M513.7,288.1c-2.8,4.7-8,7.9-13.8,7.9H311.1c-3.2,0-6.1-0.9-8.6-2.5c11.6-46.6,39.9-82.7,107.4-82.7
			C469.6,210.7,499.7,244.1,513.7,288.1z"/>
		
			<ellipse transform="matrix(0.228 -0.9737 0.9737 0.228 -126.5293 568.6801)" class="st1" cx="295.3" cy="364.1" rx="18.2" ry="18.2"/>
		
			<ellipse transform="matrix(0.228 -0.9737 0.9737 0.228 46.3355 786.6957)" class="st1" cx="519.3" cy="364.1" rx="18.2" ry="18.2"/>
		<path class="st2" d="M302.8,346h210.4l0.5,24.9c0,0-18,24.9-48.8,24.8c-21.3,0-37.6-8.4-47.6-15.4c-6.7-4.7-15.7-4.6-22.3,0.3
			c-10.4,7.6-30.5,16.4-55.3,14.4c-28.4-2.2-37.1-24.1-37.1-24.1L302.8,346z"/>
		<path class="st1" d="M341.1,356.6c-0.2,0.4-0.3,0.7-0.5,1.1c-2.2,6.6,2.4,18.2,12.5,21.6c10,3.3,21.7-2.9,23.9-9.5
			c0.1-0.4,0.2-0.8,0.3-1.2L341.1,356.6z"/>
		<path class="st1" d="M437.2,368.9c0.1,0.4,0.2,0.8,0.3,1.2c2.1,6.6,13.6,13,23.7,9.7c10.1-3.3,14.9-14.9,12.8-21.6
			c-0.1-0.4-0.3-0.8-0.5-1.1L437.2,368.9z"/>
		<path class="st2" d="M513.7,370.7c0,0,8.8,114-61.1,142.9c-10.9,4.5-22.6,6.6-34.3,6.6h-20.8c-11.7,0-23.4-2.1-34.3-6.6
			c-69.8-28.8-60.7-142.7-60.7-142.7s16.3,83,53.6,68.9c1.6-0.6,19.7-12.3,40.2-14.4c1.6,4.8,5.9,8.2,10.9,8.2c5.1,0,9.5-3.6,11-8.5
			c21.1,1.6,40.2,13.9,41.9,14.5C497.4,453.7,513.7,370.7,513.7,370.7z"/>
		<path class="st1" d="M431.8,456c-3.8,3.6-13.7,0.6-23.4,1.1c-9.7-0.3-19.5,2.6-23.5-1.1c-4.3-3.4,4.9-17.9,23.4-18
			C426.9,438.2,436,452.7,431.8,456z"/>
		<path class="st3" d="M396.6,221c-6.4-2.4-16.4,0.3-22.8,2c-7.5,2.1-14.8,5.2-21.5,9.2c-6.7,4-12.9,9-18.1,14.8
			c-4.8,5.3-10.4,12-12.3,19c-0.3,1,1.1,2,1.9,1.1c4.7-5.6,8.1-12,13.3-17.3c5.2-5.3,11.1-10,17.5-13.8c6.4-3.8,13.3-6.7,20.5-8.6
			c3.6-0.9,7.3-1.7,11-2.1c3.5-0.4,7.3,0,10.6-1.1C398.3,223.7,398.2,221.6,396.6,221z"/>
		<path class="st3" d="M458.2,229.1c-4.6-6-16.7-7.7-23.7-8.9c-8.5-1.5-18.9-2.8-27.1,0.5c-0.6,0.2-0.8,1.3,0,1.4
			c8.5,1.7,17.3,0.9,25.8,2.5c4,0.8,7.9,1.8,11.8,3c3.8,1.3,7.9,3.8,11.9,3.6C457.9,231.1,458.9,230,458.2,229.1z"/>
		<path class="st3" d="M501.1,274.3c-28.1-0.4-56.3,0.3-84.4,0.5c-13.9,0.1-27.7,0.1-41.6,0.3c-13.1,0.2-27.8-1.4-40.6,1.8
			c-0.5,0.1-0.5,0.8,0,0.9c12.5,3,26.7,1.3,39.5,1.3c14.2,0,28.5-0.1,42.7-0.2c28.1-0.2,56.3,0.1,84.4-0.6
			C503.7,278.3,503.7,274.3,501.1,274.3z"/>
	</g>
	<g>
		<path class="st4" d="M601.4,863.9H217.2c-18.4,0-34.7-14.9-36.3-33.4L160,593.4c-1.6-18.4,13.7-33.4,34.2-33.4h428.1
			c20.5,0,36,14.9,34.5,33.4l-19.3,237.2C636,849,619.8,863.9,601.4,863.9z"/>
		<path class="st4" d="M617.6,899.8H199.1c-5.5,0-10-4.5-10-10v-4.7c0-5.5,4.5-10,10-10h418.5c5.5,0,10,4.5,10,10v4.7
			C627.6,895.3,623.1,899.8,617.6,899.8z"/>
		<circle class="st5" cx="408.4" cy="703" r="26.3"/>
		<ellipse class="st5" cx="408.4" cy="753.2" rx="26.3" ry="9"/>
		<path class="st6" d="M425.7,577.6c-8.2-2-17.7-0.9-26.1-1c-9.6-0.2-19.2-0.3-28.8-0.5c-18.5-0.3-36.9-0.5-55.4-0.8
			c-18.8-0.3-37.6-0.5-56.4-0.7c-9.2-0.1-18.5-0.2-27.7-0.3c-7.8-0.1-15.7-0.2-23.4,1.3c-12.9,2.6-28.5,12.9-26.1,28
			c0.2,1.2,2.3,1.2,2.5,0c3.3-23.7,28.2-24.4,47.1-24.1c21.7,0.3,43.3,0.8,65,1c21.7,0.3,43.3,0.6,65,0.8
			c10.6,0.1,21.3,0.3,31.9,0.4c5.7,0.1,11.4,0.1,17,0.2c5.1,0.1,10.4,0.6,15.5-0.5C427.7,581.2,427.6,578.1,425.7,577.6z"/>
		<path class="st6" d="M522.9,578.4c-5.5-2.3-12.5-1.2-18.4-1.2c-6.7,0-13.4,0-20.1,0.1c-6.3,0.1-12.7,0.3-19,0.4
			c-4.7,0.1-10.1-0.4-15,0.4c-0.1-0.1-0.3-0.2-0.5-0.2c-0.3,0-0.5,0.2-0.6,0.4c-1.1,0.2-2.2,0.6-3.2,1c-0.7,0.3-0.7,1.1,0,1.4
			c5.4,2.3,12.3,1.4,18.1,1.6c6.7,0.1,13.4,0.3,20.1,0.4c6.3,0.1,12.7,0.1,19,0.1c6.2,0,13.7,1.2,19.4-1.2
			C524.5,581,524.5,579,522.9,578.4z"/>
	</g>
</g>
<path class="st7" d="M794.6,0H11.5C5.1,0,0,5.1,0,11.5v132.7c0,6.3,5.1,11.5,11.5,11.5h374.2l17.4,23.9l17.4-23.9h374.2
	c6.3,0,11.5-5.1,11.5-11.5V11.5C806,5.1,800.9,0,794.6,0z"/>
<path class="st5" d="M85.7,77.5l4.5-4.5c-2.8-0.4-5-2.8-5-5.7c0-3.2,2.6-5.8,5.8-5.8c2.9,0,5.3,2.2,5.7,5l4.5-4.5
	c-1.9-3.7-5.8-6.2-10.2-6.2c-6.4,0-11.6,5.2-11.6,11.6C79.5,71.7,82,75.6,85.7,77.5z M99.8,41.1C80.6,41.1,65,56.8,65,76
	s15.6,34.9,34.9,34.9c19.2,0,34.9-15.6,34.9-34.9S119.1,41.1,99.8,41.1z M99.8,105c-16,0-29.1-13-29.1-29.1s13-29.1,29.1-29.1
	c16,0,29.1,13,29.1,29.1S115.9,105,99.8,105z M114.2,57.3L81.3,90.2l4.1,4.1l8.7-8.7c0.5,6,5.4,10.8,11.5,10.8
	c6.4,0,11.6-5.2,11.6-11.6c0-6.1-4.8-11.1-10.8-11.5l11.8-11.8L114.2,57.3z M111.5,84.7c0,3.2-2.6,5.8-5.8,5.8
	c-3.2,0-5.8-2.6-5.8-5.8s2.6-5.8,5.8-5.8C108.8,78.9,111.5,81.5,111.5,84.7z"/>
<path class="st8" d="M219.8,46.9v26.2h8.7v-5.8h-2.9V52.7h58.1v14.5h-2.9v5.8h8.7V46.9H219.8z M272.1,99.2h-5.8V58.5h-5.8v40.7
	h-23.3V58.5h-5.8v40.7c0,3.2,2.6,5.8,5.8,5.8h34.9c3.2,0,5.8-2.6,5.8-5.8V58.5h-5.8V99.2z"/>
<path class="st5" d="M415.3,61.5h-2.9v-2.9h-5.8v2.9h-2.9c-3.2,0-5.8,2.6-5.8,5.8V71c0,2.5,1.6,4.7,4,5.5l13.5,4.5v3.7h-11.6v-2.9
	h-5.8v2.9c0,3.2,2.6,5.8,5.8,5.8h2.9v2.9h5.8v-2.9h2.9c3.2,0,5.8-2.6,5.8-5.8V81c0-2.5-1.6-4.7-4-5.5L403.7,71v-3.7h11.6v2.9h5.8
	v-2.9C421.1,64.1,418.5,61.5,415.3,61.5z M409.5,41.1c-19.2,0-34.9,15.6-34.9,34.9s15.6,34.9,34.9,34.9c19.2,0,34.9-15.6,34.9-34.9
	S428.7,41.1,409.5,41.1z M409.5,105c-16,0-29.1-13-29.1-29.1s13-29.1,29.1-29.1c16,0,29.1,13,29.1,29.1S425.5,105,409.5,105z"/>
<path class="st5" d="M567.2,52.7c0-6.4-5.2-11.6-11.6-11.6S544,46.3,544,52.7s5.2,11.6,11.6,11.6S567.2,59.1,567.2,52.7z
	 M555.6,58.5c-3.2,0-5.8-2.6-5.8-5.8s2.6-5.8,5.8-5.8s5.8,2.6,5.8,5.8S558.8,58.5,555.6,58.5z M545.4,67.3c-4,0-7.3,3.3-7.3,7.3v16
	h5.8v-16c0-0.8,0.6-1.4,1.5-1.4c0.8,0,1.4,0.6,1.4,1.4v36.3h5.8V74.5C552.7,70.5,549.4,67.3,545.4,67.3z M590.5,87.6v-2.9
	c0-3.2-2.6-5.8-5.8-5.8h-2.9V76h-5.8v2.9H573c-3.2,0-5.8,2.6-5.8,5.8v3.7c0,2.5,1.6,4.7,4,5.5l13.5,4.5v3.7H573v-2.9h-5.8v2.9
	c0,3.2,2.6,5.8,5.8,5.8h2.9v2.9h5.8V108h2.9c3.2,0,5.8-2.6,5.8-5.8v-3.7c0-2.5-1.6-4.7-4-5.5L573,88.4v-3.7h11.6v2.9H590.5z
	 M581.7,67.3h-17.4c-3.2,0-5.8,2.6-5.8,5.8v37.8h5.8V73.1h17.4V67.3z"/>
<path class="st8" d="M684.2,46.9v26.2h8.7v-5.8h-2.9V52.7h58.1v14.5h-2.9v5.8h8.7V46.9H684.2z M736.6,87.6h-34.9V58.5h-5.8v34.9
	h46.5V58.5h-5.8V87.6z M695.9,105h46.5v-5.8h-46.5V105z M704.6,58.5v5.8c0,8,6.5,14.5,14.5,14.5s14.5-6.5,14.5-14.5v-5.8h-5.8v5.8
	c0,4.8-3.9,8.7-8.7,8.7c-4.8,0-8.7-3.9-8.7-8.7v-5.8H704.6z"/>
</svg>
