<?xml version="1.0" encoding="utf-8"?>
<!-- Generator: Adobe Illustrator 23.0.3, SVG Export Plug-In . SVG Version: 6.00 Build 0)  -->
<svg version="1.1" xmlns="http://www.w3.org/2000/svg" xmlns:xlink="http://www.w3.org/1999/xlink" x="0px" y="0px"
	 viewBox="0 0 1133.5 1031.3" style="enable-background:new 0 0 1133.5 1031.3;" xml:space="preserve">
<style type="text/css">
	.st0{opacity:0.5;fill:#C18D59;}
	.st1{fill:#D04025;}
	.st2{fill:#2C2B3C;}
	.st3{fill:#2E7AE9;}
	.st4{fill:#56C4F5;}
	.st5{fill:#CCEEF0;}
	.st6{fill:#2F52EF;}
	.st7{fill:#FF7270;}
	.st8{fill:#FF894A;}
</style>
<g id="Layer_1">
	<ellipse class="st0" cx="633.2" cy="979" rx="373.7" ry="52.2"/>
	<g>
		<polygon class="st1" points="1098,331.8 0,331.8 0,213 1007.2,213 		"/>
		<polygon class="st1" points="1098,331.8 1098,403.1 0,403.1 0,328.3 		"/>
		<path class="st1" d="M1013.9,889.1L1013.9,889.1c7.1-0.7,12.3-6.9,11.5-13.8l-50.7-485.5c-0.7-6.9-7.1-12-14.2-11.3l0,0
			c-7.1,0.7-12.3,6.9-11.5,13.8l50.7,485.5C1000.4,884.7,1006.8,889.8,1013.9,889.1z"/>
		<path class="st2" d="M607.5,400.3H1097c2.2,0,2.5,3.5,0.3,3.5H951.1c0.1,0.2,0.1,0.3,0.1,0.5c5.4,50.9,10.8,101.8,16.2,152.8
			c1.5,14.3,3,28.7,4.6,43c0.2,2.2-3.2,2.5-3.5,0.3c-5.4-50.9-10.8-101.8-16.2-152.8c-1.5-14.3-3-28.7-4.6-43c0-0.3,0-0.6,0.1-0.8
			H607.8C605.6,403.8,605.3,400.3,607.5,400.3z"/>
		<path class="st2" d="M88.2,399.6h129.3c2.2,0,2.5,3.5,0.3,3.5H88.5C86.3,403.1,86,399.6,88.2,399.6z"/>
		<path class="st2" d="M987.2,749.8c4.5,40.9,9,81.9,13.5,122.8c0.2,2.2-3.2,2.5-3.5,0.3c-4.5-40.9-9-81.9-13.5-122.8
			C983.5,747.8,987,747.6,987.2,749.8z"/>
		<path class="st2" d="M1036.6,332.6H774.5c-2.3,0-2.4,3.6-0.1,3.6h262.1C1038.8,336.2,1038.9,332.6,1036.6,332.6z"/>
		<path class="st2" d="M1092.8,332.3h-42.3c-2.3,0-2.4,3.6-0.1,3.6h42.3C1095,335.9,1095.1,332.3,1092.8,332.3z"/>
	</g>
	<g>
		<path class="st3" d="M876.6,313.7l-323.3,2.5c-7.4,0-10.6-15.5-8.5-22.5l39.7-40.5c1.4-4.6,5.7-7.8,10.6-7.8h232.9
			c5,0,9,3.4,10.3,8.1l44.6,37.3C884.9,297.6,885.3,310.9,876.6,313.7z"/>
		<path class="st4" d="M819.8,234.7h-219c-8,0-14.4-6.5-14.4-14.5l-8.3-120.4c0-8,6.5-14.5,14.4-14.5l236.7-0.8
			c8,0,14.4,6.5,14.4,14.5l-9.4,121.1C834.2,228.2,827.8,234.7,819.8,234.7z"/>
		<path class="st5" d="M831.3,110.4l-9.4,94.7c0,1-0.1,2-0.3,3c-1.4,6.6-7.2,11.6-14.1,11.6H613.6c-8,0-14.4-6.5-14.4-14.5l-0.8-8.6
			l-7.6-85.3c0-8,6.5-14.5,14.4-14.5L783.6,96l2.9,0l30.5-0.1C824.9,95.9,831.3,102.4,831.3,110.4z"/>
		<path class="st4" d="M873.6,303.1l-317.9,2.5c-7.2,0-12.9-4.9-10.8-11.9c0,0,49.6-61,54.4-61l223.9,0.1c4.9,0,59.8,57.9,59.8,57.9
			C884.8,297.6,880.7,303,873.6,303.1z"/>
		<path class="st3" d="M745.5,300.5h-72.1c-2.2,0-3.3-1.9-2.3-3.9l5.1-13.9c0.6-1.3,1.9-2.1,3.2-2.1h60.7c1.3,0,2.6,0.9,3.3,2.2
			l4.4,13.9C748.8,298.6,747.6,300.5,745.5,300.5z"/>
		<g>
			<path class="st2" d="M735.3,274.7h-91.9c-0.6,0-0.9-0.5-0.7-1l1.1-4.1c0.2-0.6,0.7-1,1.3-1h89.4c0.5,0,1.1,0.5,1.1,1l0.6,4.1
				C736.2,274.2,735.8,274.7,735.3,274.7z"/>
			<path class="st2" d="M757.5,274.7h-13c-0.6,0-1.1-0.5-1.2-1l-0.7-4.1c-0.1-0.6,0.3-1,0.8-1H756c0.5,0,1.1,0.5,1.2,1l1,4.1
				C758.4,274.2,758,274.7,757.5,274.7z"/>
			<path class="st2" d="M779.3,274.7h-13c-0.6,0-1.1-0.5-1.3-1l-1.1-4.1c-0.2-0.6,0.2-1,0.7-1h12.7c0.5,0,1.1,0.5,1.3,1l1.4,4.1
				C780.2,274.2,779.9,274.7,779.3,274.7z"/>
			<path class="st2" d="M823.2,274.7h-13c-0.6,0-1.2-0.5-1.5-1l-1.9-4.1c-0.3-0.6,0-1,0.5-1h12.7c0.5,0,1.2,0.5,1.5,1l2.2,4.1
				C823.9,274.2,823.7,274.7,823.2,274.7z"/>
			<path class="st2" d="M804.5,274.7h-13c-0.6,0-1.2-0.5-1.4-1l-0.7-1.9c-0.2-0.6,0.1-1,0.6-1h12.8c0.6,0,1.2,0.5,1.5,1l0.8,1.9
				C805.3,274.2,805,274.7,804.5,274.7z"/>
			<path class="st2" d="M842.4,274.7h-13c-0.6,0-1.3-0.5-1.6-1l-1-1.9c-0.3-0.6-0.1-1,0.4-1H840c0.6,0,1.3,0.5,1.6,1l1.2,1.9
				C843.2,274.2,843,274.7,842.4,274.7z"/>
			<path class="st2" d="M831.1,257.1h-12c-0.5,0-1.2-0.5-1.5-1l-1.8-3.2c-0.3-0.6-0.2-1,0.3-1h11.7c0.5,0,1.2,0.5,1.5,1l2,3.2
				C831.8,256.6,831.6,257.1,831.1,257.1z"/>
			<path class="st2" d="M790.9,256.7h-12c-0.5,0-1.1-0.5-1.3-1l-1.1-3.2c-0.2-0.6,0-1,0.5-1h11.7c0.5,0,1.1,0.5,1.3,1l1.4,3.2
				C791.6,256.2,791.4,256.7,790.9,256.7z"/>
			<path class="st2" d="M753.2,256.7h-12c-0.5,0-1-0.5-1.1-1l-0.6-3.2c-0.1-0.6,0.2-1,0.7-1H752c0.5,0,1,0.5,1.2,1l0.8,3.2
				C754.1,256.2,753.8,256.7,753.2,256.7z"/>
			<path class="st2" d="M712.9,256.7h-12c-0.5,0-0.9-0.5-0.9-1l0.1-3.2c0-0.6,0.4-1,0.9-1h11.7c0.5,0,0.9,0.5,1,1l0.1,3.2
				C713.8,256.2,713.4,256.7,712.9,256.7z"/>
			<path class="st2" d="M674.2,256.7h-12c-0.5,0-0.8-0.5-0.7-1l0.7-3.2c0.1-0.6,0.6-1,1.1-1H675c0.5,0,0.8,0.5,0.8,1l-0.5,3.2
				C675.2,256.2,674.7,256.7,674.2,256.7z"/>
			<path class="st2" d="M635.1,256.7h-12c-0.5,0-0.8-0.5-0.5-1l1.3-3.2c0.2-0.6,0.8-1,1.3-1h11.7c0.5,0,0.8,0.5,0.6,1l-1.1,3.2
				C636.2,256.2,635.6,256.7,635.1,256.7z"/>
			<path class="st2" d="M609.2,248.3h-11.5c-0.5,0-0.6-0.5-0.3-1l1.8-3.2c0.3-0.6,1-1,1.4-1h11.2c0.5,0,0.7,0.5,0.4,1l-1.5,3.2
				C610.3,247.8,609.7,248.3,609.2,248.3z"/>
			<path class="st2" d="M615.4,256.7h-24.6c-0.5,0-0.7-0.5-0.4-1l1.8-3.2c0.3-0.6,1-1,1.5-1h23.9c0.5,0,0.7,0.5,0.5,1l-1.4,3.2
				C616.5,256.2,615.9,256.7,615.4,256.7z"/>
			<path class="st2" d="M811.7,256.7h-12c-0.5,0-1.1-0.5-1.4-1l-1.5-3.2c-0.3-0.6-0.1-1,0.4-1h11.7c0.5,0,1.2,0.5,1.4,1l1.7,3.2
				C812.4,256.2,812.2,256.7,811.7,256.7z"/>
			<path class="st2" d="M771.5,256.7h-12c-0.5,0-1.1-0.5-1.2-1l-0.8-3.2c-0.1-0.6,0.1-1,0.6-1h11.7c0.5,0,1.1,0.5,1.2,1l1.1,3.2
				C772.3,256.2,772,256.7,771.5,256.7z"/>
			<path class="st2" d="M732.8,256.7h-12c-0.5,0-1-0.5-1-1l-0.2-3.2c0-0.6,0.3-1,0.8-1h11.7c0.5,0,1,0.5,1.1,1l0.5,3.2
				C733.7,256.2,733.3,256.7,732.8,256.7z"/>
			<path class="st2" d="M693.5,256.7h-12c-0.5,0-0.9-0.5-0.8-1l0.4-3.2c0.1-0.6,0.5-1,1-1h11.7c0.5,0,0.9,0.5,0.9,1l-0.2,3.2
				C694.4,256.2,694,256.7,693.5,256.7z"/>
			<path class="st2" d="M654.2,256.7h-12c-0.5,0-0.8-0.5-0.6-1l1-3.2c0.2-0.6,0.7-1,1.2-1h11.7c0.5,0,0.8,0.5,0.7,1l-0.8,3.2
				C655.2,256.2,654.7,256.7,654.2,256.7z"/>
			<path class="st2" d="M774.4,248.3h-11.3c-0.5,0-1-0.5-1.2-1l-0.9-3.2c-0.2-0.6,0.1-1,0.6-1h11c0.5,0,1,0.5,1.2,1l1.2,3.2
				C775.2,247.9,774.9,248.3,774.4,248.3z"/>
			<path class="st2" d="M738.8,248.3h-11.3c-0.5,0-0.9-0.5-1-1l-0.4-3.2c-0.1-0.6,0.3-1,0.8-1h11c0.5,0,1,0.5,1.1,1l0.6,3.2
				C739.6,247.9,739.3,248.3,738.8,248.3z"/>
			<path class="st2" d="M700.6,248.3h-11.3c-0.5,0-0.9-0.5-0.8-1l0.3-3.2c0-0.6,0.5-1,1-1h11c0.5,0,0.9,0.5,0.9,1l-0.1,3.2
				C701.5,247.9,701.1,248.3,700.6,248.3z"/>
			<path class="st2" d="M664,248.3h-11.3c-0.5,0-0.8-0.5-0.6-1l0.9-3.2c0.2-0.6,0.7-1,1.1-1h11c0.5,0,0.8,0.5,0.7,1l-0.7,3.2
				C665,247.9,664.5,248.3,664,248.3z"/>
			<path class="st2" d="M627,248.3h-11.3c-0.5,0-0.7-0.5-0.4-1l1.5-3.2c0.3-0.6,0.9-1,1.3-1h11c0.5,0,0.7,0.5,0.5,1l-1.3,3.2
				C628.1,247.9,627.5,248.3,627,248.3z"/>
			<path class="st2" d="M794.1,248.3h-11.3c-0.5,0-1.1-0.5-1.3-1l-1.3-3.2c-0.2-0.6,0-1,0.5-1h11c0.5,0,1.1,0.5,1.3,1l1.5,3.2
				C794.8,247.9,794.6,248.3,794.1,248.3z"/>
			<path class="st2" d="M756.1,248.3h-11.3c-0.5,0-1-0.5-1.1-1l-0.6-3.2c-0.1-0.6,0.2-1,0.7-1h11c0.5,0,1,0.5,1.1,1l0.9,3.2
				C756.8,247.9,756.5,248.3,756.1,248.3z"/>
			<path class="st2" d="M719.5,248.3h-11.3c-0.5,0-0.9-0.5-0.9-1l0-3.2c0-0.6,0.4-1,0.9-1h11c0.5,0,0.9,0.5,1,1l0.3,3.2
				C720.3,247.9,720,248.3,719.5,248.3z"/>
			<path class="st2" d="M682.3,248.3H671c-0.5,0-0.8-0.5-0.7-1l0.6-3.2c0.1-0.6,0.6-1,1.1-1h11c0.5,0,0.8,0.5,0.8,1l-0.4,3.2
				C683.2,247.9,682.8,248.3,682.3,248.3z"/>
			<path class="st2" d="M645.1,248.3h-11.3c-0.5,0-0.7-0.5-0.5-1l1.2-3.2c0.2-0.6,0.8-1,1.2-1h11c0.5,0,0.7,0.5,0.6,1l-1,3.2
				C646.1,247.9,645.6,248.3,645.1,248.3z"/>
			<path class="st2" d="M764.5,265.5H752c-0.5,0-1.1-0.5-1.2-1l-0.7-3.2c-0.1-0.6,0.2-1,0.7-1H763c0.5,0,1.1,0.5,1.2,1l0.9,3.2
				C765.3,265.1,765,265.5,764.5,265.5z"/>
			<path class="st2" d="M806,265.5h-12.5c-0.5,0-1.2-0.5-1.4-1l-1.3-3.2c-0.2-0.6,0-1,0.5-1h12.2c0.5,0,1.2,0.5,1.4,1l1.5,3.2
				C806.7,265.1,806.5,265.5,806,265.5z"/>
			<path class="st2" d="M785.5,265.5h-12.5c-0.5,0-1.1-0.5-1.3-1l-1-3.2c-0.2-0.6,0.1-1,0.6-1h12.2c0.5,0,1.1,0.5,1.3,1l1.2,3.2
				C786.3,265.1,786.1,265.5,785.5,265.5z"/>
			<path class="st2" d="M722.4,265.5h-12.5c-0.5,0-1-0.5-1-1l-0.1-3.2c0-0.6,0.4-1,0.9-1H722c0.5,0,1,0.5,1,1l0.3,3.2
				C723.3,265.1,722.9,265.5,722.4,265.5z"/>
			<path class="st2" d="M682,265.5h-12.5c-0.5,0-0.9-0.5-0.8-1l0.5-3.2c0.1-0.6,0.6-1,1.1-1h12.2c0.5,0,0.9,0.5,0.8,1l-0.3,3.2
				C683,265.1,682.6,265.5,682,265.5z"/>
			<path class="st2" d="M641.2,265.5h-12.5c-0.5,0-0.8-0.5-0.6-1l1.2-3.2c0.2-0.6,0.8-1,1.3-1h12.2c0.5,0,0.8,0.5,0.7,1l-0.9,3.2
				C642.4,265.1,641.8,265.5,641.2,265.5z"/>
			<path class="st2" d="M619.3,265.5H584c-0.5,0-0.7-0.5-0.4-1l1.8-3.2c0.3-0.6,1-1,1.5-1h34.4c0.5,0,0.8,0.5,0.5,1l-1.3,3.2
				C620.5,265.1,619.8,265.5,619.3,265.5z"/>
			<path class="st2" d="M743.2,265.5h-12.5c-0.5,0-1-0.5-1.1-1l-0.4-3.2c-0.1-0.6,0.3-1,0.8-1h12.2c0.5,0,1,0.5,1.1,1l0.6,3.2
				C744.1,265.1,743.7,265.5,743.2,265.5z"/>
			<path class="st2" d="M702.2,265.5h-12.5c-0.5,0-0.9-0.5-0.9-1l0.2-3.2c0-0.6,0.5-1,1-1h12.2c0.5,0,0.9,0.5,0.9,1l0,3.2
				C703.1,265.1,702.7,265.5,702.2,265.5z"/>
			<path class="st2" d="M661.1,265.5h-12.5c-0.5,0-0.9-0.5-0.7-1l0.9-3.2c0.2-0.6,0.7-1,1.2-1h12.2c0.5,0,0.9,0.5,0.7,1l-0.6,3.2
				C662.2,265.1,661.7,265.5,661.1,265.5z"/>
			<path class="st2" d="M634.6,274.3h-13c-0.6,0-0.8-0.5-0.6-1l1.2-3.2c0.2-0.6,0.8-1,1.4-1h12.7c0.5,0,0.8,0.5,0.7,1l-1,3.2
				C635.7,273.8,635.1,274.3,634.6,274.3z"/>
			<path class="st2" d="M591.2,274.3h-13c-0.6,0-0.8-0.5-0.4-1l1.8-3.2c0.3-0.6,1-1,1.6-1h12.7c0.5,0,0.8,0.5,0.5,1l-1.6,3.2
				C592.4,273.8,591.7,274.3,591.2,274.3z"/>
			<path class="st2" d="M612.8,274.3h-13c-0.6,0-0.8-0.5-0.5-1l1.5-3.2c0.3-0.6,0.9-1,1.5-1H615c0.5,0,0.8,0.5,0.6,1l-1.3,3.2
				C614,273.8,613.4,274.3,612.8,274.3z"/>
			<path class="st2" d="M838,265.9h-23.8c-0.5,0-1.2-0.5-1.5-1l-2-4.1c-0.3-0.6-0.1-1,0.4-1h23.1c0.5,0,1.2,0.5,1.6,1l2.5,4.1
				C838.7,265.5,838.5,265.9,838,265.9z"/>
			<path class="st2" d="M824.5,248.2h-22.7c-0.5,0-1.1-0.5-1.4-1l-1.5-3.2c-0.3-0.6-0.1-1,0.4-1h22.1c0.5,0,1.2,0.5,1.5,1l1.9,3.2
				C825.1,247.8,825,248.2,824.5,248.2z"/>
		</g>
	</g>
	<g>
		<g>
			<path class="st1" d="M575.5,996.1L575.5,996.1c5.3-0.5,9.1-5.3,8.6-10.7l-37.7-374.1c-0.5-5.3-5.3-9.2-10.5-8.7h0
				c-5.3,0.5-9.1,5.3-8.6,10.7l37.7,374.1C565.5,992.8,570.2,996.7,575.5,996.1z"/>
			<path class="st1" d="M322.6,996.1L322.6,996.1c-5.3-0.5-9.1-5.3-8.6-10.7l37.7-374.1c0.5-5.3,5.3-9.2,10.5-8.7h0
				c5.3,0.5,9.1,5.3,8.6,10.7l-37.7,374.1C332.6,992.8,327.9,996.7,322.6,996.1z"/>
			<path class="st1" d="M348.6,639.8H550c5.6,0,10.2-4.5,10.2-10.2V601c0-5.6-4.5-10.2-10.2-10.2H348.6c-5.6,0-10.2,4.5-10.2,10.2
				v28.7C338.4,635.3,343,639.8,348.6,639.8z"/>
			
				<rect x="336.8" y="840" transform="matrix(-1 -1.224647e-16 1.224647e-16 -1 895.2734 1704.4397)" class="st1" width="221.8" height="24.5"/>
			
				<rect x="349.6" y="714.2" transform="matrix(-1 -1.224647e-16 1.224647e-16 -1 903.8544 1452.8776)" class="st1" width="204.6" height="24.5"/>
		</g>
		<path class="st2" d="M402.7,639.2H530c2.3,0,2.6,3.6,0.3,3.6H403C400.7,642.8,400.4,639.2,402.7,639.2z"/>
		<path class="st2" d="M350.5,639.2h40.1c2.3,0,2.6,3.6,0.3,3.6h-40.1C348.5,642.8,348.2,639.2,350.5,639.2z"/>
		<path class="st2" d="M399.8,734.8h138c2.3,0,2.6,3.6,0.3,3.6h-138C397.8,738.4,397.5,734.8,399.8,734.8z"/>
		<path class="st2" d="M359.8,734.8h29.3c2.3,0,2.6,3.6,0.3,3.6H360C357.8,738.4,357.5,734.8,359.8,734.8z"/>
		<path class="st2" d="M346.9,861.4h204.6c2.3,0,2.6,3.6,0.3,3.6H347.2C344.9,865.1,344.6,861.4,346.9,861.4z"/>
	</g>
	<g>
		<g>
			<path class="st6" d="M925.5,178.4L925.5,178.4c1.1,0.1,1.7-1.2,1-2c-3.2-3.6-4.5-8.7-3-13.8c1.7-6,6.1-10.9,8.3-16.7
				c4.8-12.2-0.6-24.9-5.7-36c-0.6-1.2-2.4-0.2-1.8,1c3.8,8.3,7.9,17.1,7.3,26.4c-0.5,8.4-5.7,14.3-8.9,21.7
				C919.6,165.9,920.8,173.5,925.5,178.4z"/>
			<path class="st6" d="M945.1,123.4c-2.6-7.2-7.5-13.3-10.7-20.3c-3.7-8.2-0.6-20.1,1.8-28.4c0.4-1.3-1.6-1.9-2-0.6
				c-2.2,7.6-4.3,16.8-3.2,24.8c1,7.5,6.9,14.2,10.3,20.8c4.4,8.9,4.7,18.8,0.9,28c-2.7,6.5-6.2,12.7-2.7,19.7
				c0.6,1.2,2.4,0.2,1.8-1c-4.2-8.4,3.4-16.8,5-24.9C947.6,135.6,947.2,129.2,945.1,123.4z"/>
			<path class="st6" d="M959.1,123.4c-4.5-11.3-15.8-21.3-11.9-34.5c0.4-1.3-1.6-1.9-2-0.6c-2.7,9.3,1.7,17.7,6.4,25.5
				c6.6,10.9,10.5,22,4.2,34.2c-0.6,1.2,1.1,2.3,1.7,1.1C961.7,141,962.5,131.9,959.1,123.4z"/>
			<path class="st6" d="M958.7,169.9c-1-1.7-2.6-3.1-3.4-4.9c-1.5-3.7-1-7.6,0.2-11.2c0.4-1.3-1.6-1.8-2-0.6
				c-1.1,3.5-1.9,7.6-0.7,11.2c1.7,5.1,6.9,7.8,4.5,13.9c-0.5,1.2,1.5,1.8,2,0.6C960.5,175.8,960.3,172.8,958.7,169.9z"/>
			<path class="st6" d="M945.7,177.6c-0.3-2.5-1.2-4.8-2.5-6.9c-0.7-1.1-2.5-0.2-1.8,1c1.7,2.6,2.6,5.4,2.3,8.6
				c-0.2,2.4-1,4.4-0.7,6.8c0.2,1.3,2.2,0.8,2-0.5C944.5,183.5,946,180.6,945.7,177.6z"/>
		</g>
		<path class="st7" d="M906.8,198.9l4,15.3c-3.2-0.4-6.5,0.6-9,3c-5.5,5.4-3.7,14.2-2,20.8c1.8,7.2,4.3,15.8,11.4,19.4
			c3.7,1.9,7.8,1.7,11-0.2l2.9,10.9c0.9,3.2,3.8,5.5,7.1,5.5l26,0.1c3.5,0,6.6-2.5,7.3-5.9l14.2-69.7c0.5-2.6-1.5-5-4.1-4.9
			l-65.9,1.6C907.8,194.9,906.3,196.9,906.8,198.9z M909,249.1c-2.4-3.6-3.5-8-4.6-12.1c-1-4-2.3-8.7-1.2-12.8
			c1.1-4.2,5.3-6.3,8.9-4.9l8.8,33.2C917.9,256.3,911.4,252.7,909,249.1z"/>
		<path class="st2" d="M911.6,213.3c-1.1-4.6-2.3-9.3-3.4-13.9c-0.3-1.2-2.1-0.8-1.8,0.4c1.1,4.6,2.3,9.3,3.4,13.9
			C910,214.9,911.9,214.5,911.6,213.3z"/>
		<path class="st2" d="M975.8,193.1c-19.7,0.5-39.4,0.9-59.1,1.4c-1.2,0-1.3,1.9-0.1,1.9c19.7-0.5,39.4-0.9,59.1-1.4
			C977,195,977,193.1,975.8,193.1z"/>
		<path class="st2" d="M960.5,272.8c-9.6,0.7-19.3,0.9-29,0.7c-1.2,0-1.3,1.9-0.1,1.9c9.7,0.2,19.3,0,29-0.7
			C961.7,274.6,961.7,272.7,960.5,272.8z"/>
		<path class="st2" d="M921.7,251.4c-2.4-9.3-4.7-18.7-7.1-28c-0.3-1.2-2.1-0.8-1.8,0.4c2.4,9.3,4.7,18.7,7.1,28
			C920.2,253,922,252.6,921.7,251.4z"/>
	</g>
	<g>
		<path class="st8" d="M422.3,165.1c3.1,7.4,9.9,9.9,17.3,10.8c4.8,0.6,9.6,1.2,14.3,1.7c3.6,0.4,7.8,1.5,11.4,0
			c8.8-3.6,6.5-12.7,4.8-19.9c-2.6-11-3-22.3-1.7-33.4c0.1-1.3,0.3-2.6,0.5-4c0,0,0,0,0,0c12.8-2.9,23.9-11.7,29.9-23.8
			c0.7-1.4,1.3-2.8,1.8-4.2c0.5-1.4,1-2.9,1.3-4.3c7.8-32.1-27-64.8-57.4-55.6c-1.6-0.2-3.3,0-5,1c-18.5,10.4-28.7,33-23.6,53.6
			c1.9,7.8,6.2,14.9,11.9,20.6c-3.1,10.7-5.3,21.7-6.4,32.8C420.8,148.3,419.2,157.7,422.3,165.1z"/>
		<path class="st8" d="M436.7,99.2c0.8-6,5.5-10.7,11.5-11.5c6.3-0.8,12.8,3.5,14.5,9.6c0.6,2.1,0.3,4.3-0.7,6.2
			c0.2,2-0.3,4.1-1.8,5.9c-3.7,4.7-10.1,5.8-15.6,3.9C438.9,111.1,435.9,105,436.7,99.2z"/>
		<path class="st2" d="M461.4,0c-12.3-0.3-21.9,9.2-33.3,12.6c-6,1.8-11.5,1.5-17.4-0.5c-5.3-1.8-10.4-4.3-16-5.2
			c-9.9-1.6-18.1,3.4-23.6,11.3c-6.2,9.1-7.6,20.6-14,29.6C345.3,64,296.2,78.1,312,106c6.6,11.8,19.9,4.3,30.7,2.7
			c7.1-1.1,10.9,3.3,15,8.4c3.4,4.2,7.1,7.8,12.3,9.7c4.2,1.6,8.7,2,13,1.4c5,0,10.1-1.3,15.1-3.3c3.4-1.3,7-3,10.8-4.2
			c4.5-0.4,8.9-0.4,13.3,1c5.9,2,11,5.7,16.6,8.4c7.3,3.5,16.5,4.9,23.8,0.6c2.8-1.6,4.6-3.9,5.7-6.4c0.1,0,0.2,0,0.3,0
			c0-0.4,0.1-0.8,0.1-1.2c1.5-4.6,0.5-9.9-2.4-14.3c-2.7-4-6.4-6.9-10.3-9.6c-4.4-3-10.1-6.1-12.3-11.2c-2-4.7-0.8-11.1,5.2-11.2
			c4.7-0.1,9.2,2.2,13.9,0.7c4.3-1.4,6.3-5.5,5.9-9.8c-0.3-2.9-2.1-6.3-1.4-9.3c0.6-2.3,2.8-3.7,4.7-4.9c4.2-2.6,8.7-4.5,12-8.4
			c3.4-4.1,5.4-9.4,5.3-14.8C489,25.5,490.8,0.8,461.4,0z"/>
		<path class="st2" d="M498,61.5c1.7,3.5,5.3,5.8,9.2,5.9c2.6,0,3,4,0.4,4c-5.8-0.1-10.8-3.2-13.3-8.4
			C493.1,60.6,496.9,59.2,498,61.5z"/>
		<path class="st2" d="M491.4,68.5c3.3-1,5.2,4,1.9,5C490,74.5,488.1,69.5,491.4,68.5z"/>
		<path class="st2" d="M483.7,72.3c0.1-3,0.9-5.7,2.7-8.2c1.5-2.1,4.6,0.5,3.1,2.5c-1.1,1.5-1.7,3.4-1.8,5.2c0,1.1-0.6,2.1-1.8,2.2
			C484.9,74.2,483.7,73.4,483.7,72.3z"/>
		<path class="st2" d="M494.2,90.2c1.9,1.6,4.2,2.3,6.4,2.2c0.5-1.4,1-2.9,1.3-4.3c-1.6,0.7-3.5,0.5-5.2-0.9
			C494.8,85.5,492.2,88.6,494.2,90.2z"/>
		<path class="st2" d="M490.8,54.8c0.1-1.8,1.1-3.5,2.6-4.5c0.9-0.6,2.2-0.4,2.8,0.5c0.6,0.9,0.4,2.2-0.5,2.8
			c-0.1,0.1-0.2,0.1-0.3,0.2c0,0,0,0,0,0.1c-0.1,0.1-0.2,0.2-0.2,0.3c0,0,0,0.1-0.1,0.1c0,0,0,0,0,0.1c-0.1,0.1-0.1,0.2-0.2,0.3
			c0,0,0,0.1-0.1,0.2c0,0.1,0,0.2,0,0.2c0,0.2,0,0.3-0.1,0.5c-0.1,1.1-1.3,1.8-2.3,1.6C491.2,56.9,490.7,55.9,490.8,54.8z"/>
		<g>
			<path class="st8" d="M956.8,878.6c-5.1,0.9-10.3,4.4-14.8,6.4c-6.2,2.8-12.5,5.4-18.2,9.2c-0.2-0.3-0.4-0.5-0.6-0.8
				c-1.9-2.4-5.5,0.3-4.8,2.8c2.8,10.9,9.8,21.5,14.8,31.6c5.4,10.8,10.8,21.6,16.2,32.3c1.4,2.8,5.2,2.2,6.7,0
				c3.9-5.7,11.6-7.1,17.2-10.5c5.8-3.5,9.7-8.8,10-15.7c0.4-8.9-4.2-17.7-7.4-25.7c-3.8-9.9-7.7-19.7-11.5-29.6
				C963,874.8,957.6,875.6,956.8,878.6z"/>
			<path class="st2" d="M1033.9,938.3c0.5,0.4,0.9,0.9,1.2,1.3c3.1,3.6,3.7,7.5,2.7,7.9l-78.9,31c-4,1.6-8.5-0.4-9.9-4.3l-1.4-3.8
				l-0.6-1.5l-4.2-11c-0.2-0.5-0.4-1-0.6-1.7c-4.5-15.8,6.3-18.2,6.3-18.2c4.6-1.7,8.6-1.5,12.1-0.3c3.6,1.2,7.5,1,10.7-0.9
				c2.8-1.6,6-3.7,8.8-6.6c7.9-7.9,12.1,5.7,34.1,3.1c0.3,0,0.6-0.1,0.9-0.1c0.3,0,0.6-0.1,0.9-0.1
				C1024.8,932.3,1030.5,935,1033.9,938.3z"/>
			<path class="st6" d="M1033.9,938.3c0.5,0.4,0.9,0.9,1.2,1.3c-1.3,0.5-2.6,1.1-3.9,1.6c-4.3,1.8-8.7,3.6-13,5.4
				c-0.2,0.2-0.5,0.4-0.8,0.3c-8.5,3.4-17.1,6.6-25.8,9.6c-8.9,3.1-17.9,6.1-26.9,8.8c-5.7,1.7-11.4,3.5-17.2,5l-0.6-1.5
				c5.8-1.6,11.6-3.2,17.4-5c9.3-2.8,18.5-5.9,27.6-9.1c8.2-2.9,16.4-6,24.5-9.2c-1.7-3.4-2.6-7.9-2.2-12.1c0.3,0,0.6-0.1,0.9-0.1
				c0.3,0,0.6-0.1,0.9-0.1c-0.1,0.3-0.1,0.7-0.1,1.1c-0.4,3.7,0.4,7.3,2,10.7c0.2-0.1,0.4-0.1,0.6-0.2c4.5-1.8,9-3.7,13.5-5.6
				C1032.6,938.9,1033.3,938.6,1033.9,938.3z"/>
			<path class="st6" d="M989.8,917.5c-2.7,2-2.2,6.3-1.2,9.1c1.1,3.1,3.3,5.8,6.3,7.5c-0.1,0.1-0.1,0.1-0.2,0.2
				c-3.7-3.7-13.1-2-13.2,3.9c-0.1,3.6,4.1,3.1,6.5,2.3c2.4-0.8,4.6-2.1,6.5-3.7c-0.3,0.9-0.4,1.8-0.4,2.6c0,0.6,0.9,0.8,1.1,0.2
				c0.4-1.4,0.8-2.9,1.6-4.2c0.7-1.2,1.8-2.1,2.4-3.3c0.3-0.5-0.2-1.1-0.7-0.8c-0.6,0.3-1.1,0.7-1.6,1.2c-0.1,0-0.1,0-0.2,0
				c-0.1-2.2-0.2-4.4-0.3-6.7c-0.1-2,0.1-4.4-0.5-6.3C994.8,916.8,992.1,915.8,989.8,917.5z M983.1,937.5c0.3-2.4,3.7-3.6,5.8-3.7
				c1.8-0.1,3.3,0.6,4.8,1.4c-0.9,0.9-2,1.7-3.1,2.3C989.3,938.3,982.5,941.6,983.1,937.5z M993.9,919.2c0.3,0.8,0.5,1.7,0.5,2.6
				c0.1,1.3,0.1,2.6,0.2,3.9c0.1,2.3,0.2,4.5,0.3,6.8c-3.6-2.7-7-7.6-5.3-12C990.5,918.1,991.9,917.7,993.9,919.2z"/>
			<path class="st6" d="M1006.3,931.8c-2.3,0.8-5.1,4.6-5.1,7.1c0,0.5,0.6,0.6,0.9,0.3c0.9-1,1.4-2.4,2.2-3.5c0.8-1.1,2-1.9,2.8-3.1
				C1007.4,932.1,1006.8,931.6,1006.3,931.8z"/>
		</g>
		<g>
			<path class="st8" d="M1027.8,703.5c-3.7,3.6-6.2,9.3-8.8,13.6c-3.6,5.8-7.4,11.5-10,17.7c-0.3-0.1-0.6-0.2-0.9-0.3
				c-2.9-0.9-4.4,3.3-2.4,5c8.4,7.5,20.1,12.5,29.8,18c10.5,6,20.9,11.9,31.4,17.9c2.7,1.5,5.5-1.1,5.5-3.7
				c0.1-6.9,5.7-12.4,8.5-18.3c2.9-6.1,3.2-12.7-0.4-18.6c-4.6-7.6-13.3-12.3-20.4-17.3c-8.7-6.1-17.4-12.2-26-18.2
				C1030.7,696.9,1026.7,700.5,1027.8,703.5z"/>
			<path class="st2" d="M1125,710.3c0.6,0.1,1.2,0.2,1.8,0.4c4.6,1.3,7.2,4.2,6.6,5.1l-48.4,69.6c-2.4,3.5-7.3,4.4-10.7,1.9
				l-3.3-2.3l-1.3-1l-9.5-6.8c-0.5-0.3-1-0.6-1.4-1c-12.6-10.6-4.8-18.6-4.8-18.6c2.8-3.9,6.4-6,9.9-7c3.6-1,6.7-3.4,8.5-6.7
				c1.5-2.9,2.9-6.4,3.7-10.3c2.1-10.9,13.2-2,30.1-16.3c0.2-0.2,0.4-0.4,0.7-0.6c0.2-0.2,0.5-0.4,0.7-0.6
				C1114.1,710.4,1120.3,709.5,1125,710.3z"/>
			<path class="st6" d="M1125,710.3c0.6,0.1,1.2,0.2,1.8,0.4c-0.8,1.2-1.6,2.3-2.4,3.5c-2.6,3.9-5.2,7.8-7.9,11.7
				c0,0.3-0.2,0.6-0.5,0.7c-5.2,7.5-10.6,15-16.1,22.3c-5.7,7.6-11.5,15-17.5,22.3c-3.8,4.6-7.5,9.2-11.5,13.7l-1.3-1
				c3.9-4.6,7.9-9.1,11.7-13.8c6.1-7.5,12.1-15.1,17.9-22.9c5.2-7,10.3-14.1,15.2-21.2c-3.3-1.9-6.5-5.1-8.5-8.8
				c0.2-0.2,0.4-0.4,0.7-0.6c0.2-0.2,0.5-0.4,0.7-0.6c0.1,0.3,0.3,0.7,0.5,1c1.8,3.3,4.4,5.9,7.6,7.8c0.1-0.2,0.2-0.3,0.3-0.5
				c2.8-4,5.5-8.1,8.1-12.2C1124.3,711.6,1124.7,710.9,1125,710.3z"/>
			<path class="st6" d="M1076.8,717.5c-1.1,3.2,1.7,6.5,4,8.2c2.7,2,6,3,9.4,2.7c0,0.1,0,0.2-0.1,0.3c-5.1-1-12,5.6-8.9,10.6
				c2,3.1,5.1,0.3,6.7-1.7c1.6-2,2.7-4.3,3.3-6.7c0.3,0.9,0.7,1.7,1.1,2.4c0.3,0.5,1.2,0.2,1-0.5c-0.5-1.4-0.9-2.8-1-4.4
				c-0.1-1.4,0.3-2.8,0.2-4.1c-0.1-0.5-0.7-0.8-1.1-0.3c-0.3,0.6-0.6,1.2-0.7,1.9c-0.1,0-0.1,0.1-0.2,0.1c-1.3-1.8-2.7-3.6-4-5.4
				c-1.2-1.6-2.3-3.7-4-5C1080.5,714.1,1077.7,714.8,1076.8,717.5z M1082.3,737.9c-1-2.2,1.1-5.1,2.8-6.3c1.5-1.1,3.1-1.4,4.8-1.5
				c-0.3,1.3-0.7,2.5-1.3,3.7C1087.9,735.1,1084.1,741.6,1082.3,737.9z M1081.1,716.6c0.7,0.5,1.4,1.1,1.9,1.9
				c0.8,1,1.5,2.1,2.3,3.1c1.4,1.8,2.7,3.7,4.1,5.5c-4.5-0.2-10-2.4-11.1-7.1C1077.7,717.7,1078.6,716.5,1081.1,716.6z"/>
			<path class="st6" d="M1098.4,720.2c-1.5,2-1.7,6.7-0.3,8.7c0.3,0.4,0.8,0.2,0.9-0.3c0.2-1.3-0.2-2.7-0.1-4.1
				c0.1-1.4,0.6-2.7,0.6-4.1C1099.5,719.8,1098.7,719.7,1098.4,720.2z"/>
		</g>
		<polygon class="st7" points="544.9,448.7 838.2,500 1055.5,708.7 1021,757.1 713,600.7 		"/>
		<path class="st7" d="M919.9,915.7L722.7,630.6l-94.5-1.6c-16.8-0.3-33.5-1.2-50.2-2.8l-207.4-19.4c-26.6-2.5-50.6-17.1-64.5-39.9
			c-16.2-26.5-26.8-69.3-5.9-135.1c42.5-134.2,254.1,34.7,254.1,34.7l281.3,74.1l143.4,359.4L919.9,915.7z"/>
		<path class="st6" d="M597.5,372.9c-0.5-5.9-0.6-11.9-0.5-17.8c5,2.5,10.1,5,15.2,7.3c-0.6-2-1.2-4.1-1.8-6.1
			c-0.8-2.9-1.6-5.9-2.4-8.9c-3.3-9.8-6-19.8-8.1-29.7c-0.9-4.2,0.2-8.3,3.1-11.1c0,0,0-0.1,0-0.1c0.1-1.9,0.6-3.6,1.4-5.1
			c-8.9-15-16.5-30.8-23.2-46.8c-9.8-23.7-17.3-48.5-20.3-74c-0.2-1.8,0.3-3.7,1.2-5.3C503.1,148,438.6,128.9,373,134.2
			c-64.8,5.3-123.9,36.2-175.5,74c-12.9,9.4-25.5,19.4-37.7,29.6c-12.3,10.3-24.3,21-33.2,34.6c-8.2,12.6-13,28.1-11.1,43.2
			c1.8,15.1,10.2,27.6,23.1,35.5c11.4,7,25.3,9.6,38.4,10.5c16.6,1.1,33.4,0.1,49.9-1.8c6.4-0.8,12.8-1.7,19.2-2.9
			c1.5,21.5,6.3,42.7,14.4,62.6c7.3,17.9,17.6,35.3,34.6,45.5c18.6,11.2,41.8,10.1,62.7,10.5c47.8,1.1,95.6,2.1,143.4,3.2
			c12.1,0.3,24.3,0.5,36.4,0.8c11.4,0.3,22.8,0.3,34-2.2c9.5-2.1,18.4-6.6,25.4-13.4c7.4-7.1,11-16.8,11.5-26.9
			c0.5-10.9-2.8-21.6-5.5-32C600.2,394.4,598.3,383.8,597.5,372.9z"/>
		<path class="st2" d="M525.1,267.1c3.3,10,8.8,18.9,16.2,26.3c1.6,1.6-0.7,4.3-2.4,2.7c-7.9-7.8-13.8-17.2-17.3-27.8
			C521,266.1,524.4,264.9,525.1,267.1z"/>
		<path class="st2" d="M259.5,233c0.6-2.2,4.1-1.5,3.5,0.7c-9.7,35.5-14.6,72.2-14.5,109c0,2.3-3.6,2.6-3.6,0.3
			C244.9,305.8,249.7,268.8,259.5,233z"/>
		<path class="st2" d="M263.5,219.1c3.4-8.8,7.5-17.2,12.3-25.3c1.2-2,4.4-0.4,3.2,1.6c-4.8,8.1-8.9,16.5-12.3,25.3
			C265.9,222.8,262.7,221.2,263.5,219.1z"/>
		<path class="st2" d="M837.9,639.2c14.1,19.9,34.3,34.1,54.2,47.8c1.9,1.3-0.5,4-2.4,2.7c-20.1-13.9-40.5-28.3-54.8-48.5
			C833.6,639.3,836.5,637.3,837.9,639.2z"/>
		<path class="st2" d="M818.4,612c2.4,7.2,6.4,13.4,11.9,18.5c1.7,1.6-0.7,4.2-2.4,2.7c-6-5.5-10.4-12.3-13-20
			C814.3,610.9,817.7,609.8,818.4,612z"/>
		<path class="st2" d="M540,620.7c65.2,9.8,131.5,11.4,197.1,4.8c18.5-1.9,37-4.4,55.4-7.6c2.3-0.4,2.4,3.2,0.2,3.6
			c-21.9,3.8-44,6.6-66.1,8.6c50.2,73.5,100.3,147,150.5,220.5c13.9,20.4,28.2,42.5,42.1,63c19.4-5.3,38.8-10.6,58.3-15.9
			c2.2-0.6,3.4,2.8,1.2,3.4c-19.6,5.3-39.1,10.7-58.7,16c-0.7,0.2-1.3,0-1.7-0.4c-0.6-0.1-1.2-0.4-1.6-1
			c-50.3-73.8-100.7-148.2-151-222L723,631.3c-0.2-0.3-0.3-0.6-0.3-1c-42.6,3.5-85.5,3.6-128.2,0.2c-18.5-1.5-37-3.6-55.3-6.4
			C536.9,623.8,537.7,620.3,540,620.7z"/>
		<path class="st2" d="M399.1,559.8c6.3,13,23.9,23.2,39.4,15c18.2-9.7,16.5-30.4,14-46.2c0-0.2-0.1-0.3-0.2-0.5
			c0-1-0.6-1.8-1.8-1.6c-17.7,3.4-35.7,3.5-53.4,0.1c-1-0.2-1.7,0.4-2,1.2c-0.1,0.2-0.1,0.4-0.1,0.6
			C394.6,538.9,394.3,549.9,399.1,559.8z M398.5,530.5c16.8,2.9,33.9,2.9,50.7-0.2c1.6,9.9,3.1,20.6-1.5,30
			c-3.9,8-12.3,15.1-22.9,14.3c-10.4-0.8-18.9-8.3-22.6-16.4C398.2,549.5,398.2,539.8,398.5,530.5z"/>
		<path class="st2" d="M303.8,519.1c-0.9-1.3,0.5-3.5,2.3-2.6c2.6,1.3,5.2,2.7,7.8,4c2,1.1,0.5,4.3-1.6,3.2
			c-1.7-0.9-3.4-1.8-5.1-2.7c-0.8,8.2,0.2,16.5,2.9,24.3c2.7,7.5,7.3,17,15.5,19.7c8.2,2.7,16.3-3.6,19.8-10.6
			c4.1-8.3,3.2-18.1,2.5-27.1c-9.6-0.6-19.1-1.4-28.6-2.6c-2.3-0.3-1.6-3.8,0.7-3.5c9.6,1.2,19.2,2.1,28.8,2.6
			c0.8,0,1.3,0.5,1.6,1.1c0.5,0.2,0.9,0.7,0.9,1.4c0.9,10.6,1.9,22.5-4,31.9c-4.4,7-12.6,12.5-21.2,10.7c-9.2-2-14.7-11-18.1-19
			C303.9,540.2,302.6,529.6,303.8,519.1z"/>
		<path class="st2" d="M369.7,501.9c0.5-2.2,4.1-1.6,3.5,0.7c-4.8,19.8-5.7,40.2-2.7,60.3c0.3,2.3-3.2,2.5-3.6,0.3
			C363.9,542.8,364.8,522,369.7,501.9z"/>
		<path class="st2" d="M1019.8,756.6c11-16.7,22.4-33.2,34.2-49.4c1.4-1.9,4,0.5,2.7,2.4c-11.6,16-22.8,32.2-33.7,48.7
			C1021.8,760.1,1018.6,758.5,1019.8,756.6z"/>
		<path class="st8" d="M739.4,241.3c-0.5-3.3-2-6.8-5.4-8c-2-0.7-4.3-0.6-6,0.5c-3.9-2.6-9-2.2-12.7,0.6c-3.8-2.5-8.7-2.3-12.5,0.3
			c-3.1-2.8-14.1-0.5-15.3,11.8c-0.1,1.2-0.3,2.4-0.5,3.5c-1.8-1.2-7.5-4.1-9.5-4.5c-3.5-0.6-5.9,1.9-5.8,5.3
			c0.4,8.1,6.5,16.5,12.4,21.6c0.4,1.3,1.5,2.4,3.2,2.2c16.4-1.8,32.9-1.7,49.3,0.2c0.9,2.8,5.6,2.8,5.3-0.5
			C741.2,263.4,741.1,252.1,739.4,241.3z"/>
		<path class="st6" d="M744,264.5c0,0,94.3,288.7-150,178.2s-31.7-267.5-31.7-267.5s90.4,81.2,112.7,108.6l1.2-19.6L744,264.5z"/>
		<path class="st2" d="M534.7,174.5c1.7-1.5,4.4,0.8,2.7,2.4c-21.8,19.6-21.8,50.8-15.7,77.3c0.5,2.2-2.9,3.4-3.4,1.2
			C512,227.8,512,195,534.7,174.5z"/>
		<path class="st8" d="M463.5,80.8c-3.9-11.7-20.9-12.9-24.6-0.3c-3.7,12.4,11.2,20.9,20.8,13.1c3.2-2.6-1.2-7.3-4.3-4.7
			c-4.9,4-12.2-0.4-10.4-6.6c1.8-6.1,10.4-6,12.4,0C458.6,86.1,464.8,84.7,463.5,80.8z"/>
		<path class="st2" d="M457.8,81.1c-2.9-4.6-9.9-4.5-12,0.8c-2,5.2,2.9,10.4,8.2,8.8c2.2-0.7,1.4-4.2-0.8-3.5
			c-2.4,0.7-5-1.2-4.1-3.8c0.8-2.5,4.1-2.8,5.5-0.6C455.9,84.8,459.1,83.1,457.8,81.1z"/>
		<path class="st2" d="M729.9,386.2c-4.4-34.2-19.6-66.5-43.2-91.6c-1.6-1.7-4.3,0.8-2.7,2.5c23.2,24.7,38,56.3,42.3,90
			C726.6,389.3,730.2,388.5,729.9,386.2z"/>
		<path class="st2" d="M705.2,239.2c-0.2-2.3-3.8-2.4-3.6-0.1c0.1,2.1,0.3,4.2,0.4,6.3c0.2,2.3,3.8,2.4,3.6,0.1
			C705.5,243.5,705.4,241.3,705.2,239.2z"/>
		<path class="st2" d="M717.9,238.8c-0.1-2.3-3.8-2.4-3.6-0.1c0.1,2.1,0.3,4.2,0.4,6.3c0.1,2.3,3.8,2.4,3.6,0.1L717.9,238.8z"/>
		<path class="st2" d="M730.1,237.9c-0.2-2.3-3.8-2.4-3.6-0.1c0.2,2.3,0.3,4.5,0.5,6.8c0.2,2.3,3.8,2.4,3.6,0.1
			C730.5,242.4,730.3,240.1,730.1,237.9z"/>
		<path class="st2" d="M731.4,396.8c-0.4-2.3-3.9-1.5-3.5,0.8c1.2,7.5,0.3,14.7-2.6,21.7c-0.9,2.2,2.6,3.2,3.5,1
			C731.8,412.8,732.7,404.9,731.4,396.8z"/>
		<path class="st2" d="M592.2,423.5c-21.3-18.9-37.7-42.5-48.1-69c-0.9-2.2-4.1-0.5-3.2,1.7c10.5,26.7,27.2,50.7,48.7,69.8
			C591.3,427.4,594,425,592.2,423.5z"/>
	</g>
</g>
<g id="Layer_2">
</g>
</svg>
