<?xml version="1.0" encoding="utf-8"?>
<!-- Generator: Adobe Illustrator 23.0.3, SVG Export Plug-In . SVG Version: 6.00 Build 0)  -->
<svg version="1.1" id="Layer_1" xmlns="http://www.w3.org/2000/svg" xmlns:xlink="http://www.w3.org/1999/xlink" x="0px" y="0px"
	 viewBox="0 0 17.1 14.9" style="enable-background:new 0 0 17.1 14.9;" xml:space="preserve">
<style type="text/css">
	.st0{fill:#DF271C;}
</style>
<g>
	<path class="st0" d="M8.9,0c0.9,0,1.7,0.8,1.7,1.7c0,0.9-0.8,1.7-1.7,1.7C8,3.4,7.2,2.7,7.2,1.7C7.2,0.8,8,0,8.9,0z M16.9,8.7
		c-0.3,0.6-0.4,1.6-0.6,2.1c-0.3,0.6-0.7,1.1-1.1,1.4c-0.2,0.2-0.3,0.3-0.4,0.4c-0.1,0.1-0.1,0.1-0.1,0.1c-0.1,0.1-0.1,0.2-0.2,0.3
		l-0.1,1.9h-1.9V14c0-0.1,0-0.2-0.1-0.3c-0.1-0.1-0.2-0.1-0.3-0.1H5.8c-0.1,0-0.2,0-0.3,0.1c-0.1,0.1-0.1,0.2-0.1,0.3v0.9H3.8v-1.7
		c0-0.1,0-0.2-0.1-0.2l-1.1-1.4l-1-1.2c-0.1-0.1-0.2-0.1-0.3-0.1H0V8.1l0.8,0C1,8.1,1.2,8,1.2,7.8c0,0,0-0.1,0.1-0.2
		C1.4,7.1,1.8,6,3,5c0.2-0.1,0.3-0.2,0.5-0.4c0.1-0.1,0.2-0.2,0.2-0.3c0-0.4,0.1-0.9,0.1-1.2c0-0.1,0-0.2,0.1-0.2
		c0.1,0.2,0.3,0.6,0.4,1C4.4,4,4.6,4.1,4.8,4.1c0.5-0.1,0.9-0.2,1.1-0.2c0.1,0,0.1,0,0.1,0c0.3,0.5,1.1,1.8,3,1.8
		c1.5,0,2.4-1.2,2.7-1.7c0.4,0,1.4,0.2,2.6,1.1c0.8,0.6,1.4,1.4,1.8,2c0.4,0.6,0.6,1,0.6,1c0.1,0.1,0.1,0.2,0.2,0.2
		C17,8.5,17,8.6,16.9,8.7z M3.3,5.8c-0.4,0-0.8,0.3-0.8,0.8c0,0.4,0.3,0.8,0.8,0.8c0.4,0,0.8-0.3,0.8-0.8C4.1,6.2,3.7,5.8,3.3,5.8z"
		/>
</g>
</svg>
