<?xml version="1.0" encoding="utf-8"?>
<!-- Generator: Adobe Illustrator 23.0.3, SVG Export Plug-In . SVG Version: 6.00 Build 0)  -->
<svg version="1.1" id="Layer_1" xmlns="http://www.w3.org/2000/svg" xmlns:xlink="http://www.w3.org/1999/xlink" x="0px" y="0px"
	 viewBox="0 0 14.9 17" style="enable-background:new 0 0 14.9 17;" xml:space="preserve">
<style type="text/css">
	.st0{fill:#DF271C;}
</style>
<path class="st0" d="M11.9,0.9C11.9,0.9,11.9,0.8,11.9,0.9c-0.2-0.3-0.4-0.5-0.7-0.7C10.9,0.1,10.4,0,9.8,0h0C9.2,0,8.6,0.1,7.9,0.1
	c-0.6,0.1-1,0.2-1.3,0.6C6.4,1,6.3,1.3,6.3,1.7c0,0.4,0.1,0.7,0.2,0.8c0,0,0.1,0.1,0.1,0.1c0.3,0.2,0.7,0.2,1,0.2
	c0.3,0,0.6,0,0.8-0.1c0.2,0,0.3-0.1,0.3-0.1l0.4-0.1L8.9,2.9c0,0-0.2,0.2-0.6,0.4c0,0,0,0-0.1,0C8.1,3.3,8,3.4,8,3.5
	c0,0.1,0.1,0.2,0.2,0.2c0,0,0,0,0,0c0.1,0,0.3,0.1,0.5,0.1c0.8,0,1.7-0.5,1.8-0.6c0.1-0.1,0.2-0.1,0.2-0.1l0.3-0.2l0,0.3h0
	c0,0,0,0,0,0c0,0.6-0.1,2.5-0.6,3.9c-0.3,1-0.4,1.5-0.4,1.7l0,0.3L9.6,8.9c-0.5-0.5-1.3-0.8-2-0.8c-0.8,0-1.5,0.3-2,0.7L5.4,9
	L5.3,8.8c-0.5-1-2.2-1.7-3.9-1.7l0,0c-0.4,0-0.7,0-1.1,0.1C0.1,7.3,0,7.4,0,7.5v9.3c0,0.1,0,0.1,0.1,0.2c0,0,0.1,0.1,0.2,0.1
	c0,0,0,0,0,0c0.5,0,1-0.3,1.4-0.8c0.4-0.5,0.7-1.2,0.9-2.1l0.1-0.3l0.2,0.3C3.5,15,5.2,15.6,7,15.6h0c1.1,0,2.3-0.3,3.2-0.8l0,0l0,0
	c0.8-0.2,1.9-0.4,2.9-0.9c1.1-0.5,1.7-1.1,1.7-1.7c0,0,0-0.1,0-0.2C14.9,9.9,12.4,1.8,11.9,0.9z"/>
</svg>
