<?xml version="1.0" encoding="utf-8"?>
<!-- Generator: Adobe Illustrator 23.0.3, SVG Export Plug-In . SVG Version: 6.00 Build 0)  -->
<svg version="1.1" id="Layer_1" xmlns="http://www.w3.org/2000/svg" xmlns:xlink="http://www.w3.org/1999/xlink" x="0px" y="0px"
	 viewBox="0 0 12.3 17.2" style="enable-background:new 0 0 12.3 17.2;" xml:space="preserve">
<style type="text/css">
	.st0{fill:#DF271C;}
</style>
<g>
	<path class="st0" d="M9.2,3c0-1.7-1.4-3-3-3c-1.7,0-3,1.4-3,3c0,1.7,1.4,3,3,3C7.8,6.1,9.2,4.7,9.2,3z"/>
	<polygon class="st0" points="6.1,14.9 7.1,13.9 6.4,8.3 7.1,7.5 6.1,6.6 5.2,7.5 5.9,8.3 5.2,13.9 	"/>
	<path class="st0" d="M8.1,7.3H8l0.3,0.3L7.7,8.1L7.2,8.6l0.7,5.2L8,14.2l-0.3,0.3l-1,1L6.1,16l-0.6-0.6l-1-1l-0.3-0.3l0.1-0.4
		l0.7-5.2L4.6,8.1L4,7.5l0.3-0.3H4.2C1.9,7.3,0,9.1,0,11.4v5.7h1.9v-5.9h0.8v5.9h6.8v-5.9h0.8v5.9h1.9v-5.7
		C12.3,9.1,10.4,7.3,8.1,7.3z"/>
</g>
</svg>
