<?xml version="1.0" encoding="utf-8"?>
<!-- Generator: Adobe Illustrator 23.0.3, SVG Export Plug-In . SVG Version: 6.00 Build 0)  -->
<svg version="1.1" id="Layer_2" xmlns="http://www.w3.org/2000/svg" xmlns:xlink="http://www.w3.org/1999/xlink" x="0px" y="0px"
	 viewBox="0 0 651 406" style="enable-background:new 0 0 651 406;" xml:space="preserve">
<style type="text/css">
	.st0{fill:#DF271C;stroke:#DF271C;stroke-width:16;stroke-miterlimit:10;}
	.st1{fill:none;stroke:#DF271C;stroke-width:16;stroke-miterlimit:10;}
</style>
<path class="st0" d="M253,203c0-61.3,28.3-116,72.5-151.7C292,24.2,249.4,8,203,8C95.3,8,8,95.3,8,203s87.3,195,195,195
	c46.4,0,89-16.2,122.5-43.3C281.3,319,253,264.3,253,203z"/>
<path class="st1" d="M448,8c-46.4,0-89,16.2-122.5,43.3C369.7,87,398,141.7,398,203s-28.3,116-72.5,151.7
	C359,381.8,401.6,398,448,398c107.7,0,195-87.3,195-195S555.7,8,448,8z"/>
</svg>
