<?xml version="1.0" encoding="utf-8"?>
<!-- Generator: Adobe Illustrator 23.0.3, SVG Export Plug-In . SVG Version: 6.00 Build 0)  -->
<svg version="1.1" id="Layer_1" xmlns="http://www.w3.org/2000/svg" xmlns:xlink="http://www.w3.org/1999/xlink" x="0px" y="0px"
	 viewBox="0 0 17.1 16" style="enable-background:new 0 0 17.1 16;" xml:space="preserve">
<style type="text/css">
	.st0{fill:#DF271C;}
</style>
<g>
	<path class="st0" d="M11.4,0l5.2,3.1l-2.5,1.6L9.3,2L11.4,0z M0.5,3.1L5.8,0l2.1,2L3,4.7L0.5,3.1z M0,7.2l3-1.5l0,0l0,0l4.6,2.2
		L4.3,9.5L0,7.2z M3.2,9.9l1,0.6l0.2-0.1l3.7-1.8l0,7.5l-4.9-2.7L3.2,9.9z M13.9,13.4L9,16l0-7.5l3.9,1.9l0.2-0.1l0.8-0.4L13.9,13.4
		z M12.9,9.5L9.6,7.9l4.6-2.2l0,0l0,0l3,1.5L12.9,9.5z"/>
</g>
</svg>
