<?xml version="1.0" encoding="utf-8"?>
<!-- Generator: Adobe Illustrator 23.0.3, SVG Export Plug-In . SVG Version: 6.00 Build 0)  -->
<svg version="1.1" id="Layer_1" xmlns="http://www.w3.org/2000/svg" xmlns:xlink="http://www.w3.org/1999/xlink" x="0px" y="0px"
	 viewBox="0 0 63.1 81.6" style="enable-background:new 0 0 63.1 81.6;" xml:space="preserve">
<style type="text/css">
	.st0{fill:#DF271C;}
</style>
<path class="st0" d="M6.4,50.6l22.4,29.6c1.2,1.5,3.4,1.8,4.9,0.7c0.3-0.2,0.5-0.4,0.7-0.7l22.4-29.6c10.5-13.9,7.8-33.7-6.1-44.2
	S16.9-1.4,6.4,12.5C-2.1,23.8-2.1,39.3,6.4,50.6L6.4,50.6z M31.6,14.9c9,0,16.3,7.3,16.3,16.2s-7.3,16.2-16.3,16.2
	s-16.2-7.3-16.2-16.2C15.3,22.2,22.6,14.9,31.6,14.9z"/>
</svg>
