<?xml version="1.0" encoding="utf-8"?>
<!-- Generator: Adobe Illustrator 23.0.3, SVG Export Plug-In . SVG Version: 6.00 Build 0)  -->
<svg version="1.1" id="Layer_1" xmlns="http://www.w3.org/2000/svg" xmlns:xlink="http://www.w3.org/1999/xlink" x="0px" y="0px"
	 viewBox="0 0 11.5 19.3" style="enable-background:new 0 0 11.5 19.3;" xml:space="preserve">
<style type="text/css">
	.st0{fill:#DF271C;}
</style>
<path class="st0" d="M10.7,16c0,1.4-1.1,2.5-2.5,2.5c-1.4,0-2.5-1.1-2.5-2.5v-1.2c2.8-0.2,5-2.5,5-5.3l0-5.5h-0.4L8.7,4V0H7.9v4
	l-5,0V0H2.1v4H0v5.5c0,2.8,2.2,5.1,5,5.3L5,16c0,1.8,1.5,3.3,3.3,3.3c1.8,0,3.3-1.5,3.3-3.3H10.7z M2.1,9.2V8.4h6.6v0.8H2.1z"/>
</svg>
