<?xml version="1.0" encoding="utf-8"?>
<!-- Generator: Adobe Illustrator 23.0.3, SVG Export Plug-In . SVG Version: 6.00 Build 0)  -->
<svg version="1.1" id="Layer_1" xmlns="http://www.w3.org/2000/svg" xmlns:xlink="http://www.w3.org/1999/xlink" x="0px" y="0px"
	 viewBox="0 0 17.7 16.1" style="enable-background:new 0 0 17.7 16.1;" xml:space="preserve">
<style type="text/css">
	.st0{fill:#DF271C;}
</style>
<path class="st0" d="M11.8,7.3l0.4,0.4L12.6,8l0.3-0.3L17.2,3c0.3-0.3,0.5-0.7,0.5-1.2c0-0.5-0.2-0.9-0.5-1.3
	C16.8,0.2,16.3,0,15.8,0h0h0c-0.5,0-0.9,0.2-1.2,0.5l-4.3,4.6L10,5.4l0.3,0.3l0.4,0.4l-0.3,0.3L8.9,7.9L8.6,7.6L7.6,6.5L7.3,6.2
	l0.1-0.1h0L7.6,6l0.2-0.2L8,5.5L7.7,5.2L3.1,0.5C2.7,0.2,2.3,0,1.8,0h0h0C1.4,0,0.9,0.2,0.5,0.6C0.2,0.9,0,1.4,0,1.9
	c0,0.5,0.2,0.9,0.5,1.2l4.6,4.7l0.3,0.3l0.3-0.3l0.4-0.4l0.3,0.3l1.1,1.1L7.8,9l-2.5,2.5l-1.3,0.1l-0.2,0l-0.1,0.2l-1.7,2.4
	l-0.2,0.3l0.2,0.2l1.2,1.2l0.2,0.2l0.3-0.2l2.5-1.6l0.2-0.1v-0.2v-1.3l2.4-2.4l0.3,0.3l1.2,1.3c-0.2,0.4-0.3,0.8-0.3,1.2
	c0,0.8,0.3,1.5,0.9,2.1c0.5,0.5,1.2,0.8,1.9,0.8l1.1,0l-0.8-0.7l-0.6-0.6l-0.4-1.3l1-1l1.4,0.3l0.6,0.6l0.8,0.7l-0.1-1.1
	c-0.1-0.7-0.4-1.4-0.9-1.8c-0.5-0.5-1.2-0.8-1.9-0.8c-0.5,0-1,0.1-1.5,0.4l-1.2-1.2L10.1,9l1.5-1.5L11.8,7.3z"/>
</svg>
