<?xml version="1.0" encoding="utf-8"?>
<!-- Generator: Adobe Illustrator 23.0.3, SVG Export Plug-In . SVG Version: 6.00 Build 0)  -->
<svg version="1.1" id="Layer_1" xmlns="http://www.w3.org/2000/svg" xmlns:xlink="http://www.w3.org/1999/xlink" x="0px" y="0px"
	 viewBox="0 0 15.3 15.1" style="enable-background:new 0 0 15.3 15.1;" xml:space="preserve">
<style type="text/css">
	.st0{fill:#DF271C;}
</style>
<path class="st0" d="M4,1.7c-0.5,0-1.1,0.2-1.4,0.6c-0.8,0.8-0.8,2.1,0,2.9C2.9,5.6,3.5,5.8,4,5.8c0.5,0,1-0.2,1.4-0.6
	c0.8-0.8,0.8-2.1,0-2.9C5,1.9,4.5,1.7,4,1.7z M4.8,4.6C4.6,4.8,4.3,4.9,4,4.9c-0.3,0-0.6-0.1-0.8-0.3C3,4.4,2.9,4.1,2.9,3.8
	C2.9,3.5,3,3.2,3.2,3C3.4,2.8,3.7,2.7,4,2.7c0.3,0,0.6,0.1,0.8,0.3C5,3.2,5.1,3.5,5.1,3.8C5.1,4.1,5,4.4,4.8,4.6z M9.3,15.1L0.6,6.4
	L0,0l6.6,0.4l8.7,8.7L9.3,15.1z"/>
</svg>
