<?xml version="1.0" encoding="utf-8"?>
<!-- Generator: Adobe Illustrator 23.0.3, SVG Export Plug-In . SVG Version: 6.00 Build 0)  -->
<svg version="1.1" id="Layer_1" xmlns="http://www.w3.org/2000/svg" xmlns:xlink="http://www.w3.org/1999/xlink" x="0px" y="0px"
	 viewBox="0 0 13.1 20.6" style="enable-background:new 0 0 13.1 20.6;" xml:space="preserve">
<style type="text/css">
	.st0{fill:#DF271C;}
</style>
<g>
	<rect x="6.3" y="1.8" transform="matrix(0.3874 -0.9219 0.9219 0.3874 3.1788 9.1182)" class="st0" width="4.3" height="0.8"/>
	<rect x="4.4" y="0" transform="matrix(0.9257 -0.3782 0.3782 0.9257 -0.4497 1.9683)" class="st0" width="0.8" height="4.3"/>
	<rect x="1.8" y="2.6" transform="matrix(0.3873 -0.922 0.922 0.3873 -2.999 4.8731)" class="st0" width="0.8" height="4.3"/>
	<rect x="0" y="7.9" transform="matrix(0.9257 -0.3784 0.3784 0.9257 -3.0042 1.4268)" class="st0" width="4.3" height="0.8"/>
	<path class="st0" d="M12.5,12.2c-0.3,0-0.6,0.3-0.6,0.6v1.2h-0.8v-2.1c0-0.3-0.3-0.6-0.6-0.6c-0.3,0-0.6,0.3-0.6,0.6h0l0,1.8H9.1
		v-1.8h0c0,0,0,0,0,0v-0.5c0-0.3-0.3-0.6-0.6-0.6C8.2,10.8,8,11,8,11.3v2H7.1h0l0-6.6c0-0.3-0.3-0.6-0.6-0.6C6.3,6.2,6,6.4,6,6.7
		v10.4l-2.4-3.8c-0.1-0.2-0.4-0.4-0.7-0.4c-0.4,0-0.8,0.4-0.8,0.8c0,0.1,0.1,0.4,0.2,0.6c0.5,0.8,3.6,5.6,3.8,6
		c0.1,0.2,0.4,0.3,0.6,0.3h3.8c0.4,0,0.7-0.2,1-0.5c0.3-0.4,0.6-0.9,0.8-1.4c0.4-0.9,0.6-1.9,0.6-2.1v-3.8
		C13,12.5,12.8,12.2,12.5,12.2z"/>
	<rect x="10.6" y="6.3" transform="matrix(0.387 -0.9221 0.9221 0.387 -1.0642 15.3012)" class="st0" width="0.8" height="4.3"/>
	<rect x="8.9" y="4.4" transform="matrix(0.9257 -0.3781 0.3781 0.9257 -0.992 4.5205)" class="st0" width="4.3" height="0.8"/>
</g>
</svg>
