<?xml version="1.0" encoding="utf-8"?>
<!-- Generator: Adobe Illustrator 23.0.3, SVG Export Plug-In . SVG Version: 6.00 Build 0)  -->
<svg version="1.1" id="Layer_1" xmlns="http://www.w3.org/2000/svg" xmlns:xlink="http://www.w3.org/1999/xlink" x="0px" y="0px"
	 viewBox="0 0 15.4 15.4" style="enable-background:new 0 0 15.4 15.4;" xml:space="preserve">
<style type="text/css">
	.st0{fill:#DF271C;}
</style>
<g>
	<path class="st0" d="M0,7.7c0,1.2,0.3,2.5,0.9,3.5l2.7-1.7C3.3,9,3.1,8.3,3.1,7.7c0-2.3,1.7-4.2,4-4.5V0C3.1,0.3,0,3.6,0,7.7z"/>
	<path class="st0" d="M15.4,7.7c0-4-3.1-7.4-7.1-7.7v3.2c2.3,0.3,4,2.2,4,4.5c0,2.3-1.7,4.2-4,4.5v3.2C12.3,15.1,15.4,11.7,15.4,7.7
		z"/>
	<path class="st0" d="M7.1,15.4v-3.2c-1.2-0.1-2.2-0.7-3-1.7l-2.7,1.7C2.8,14.1,4.9,15.2,7.1,15.4z"/>
	<path class="st0" d="M4.3,7.7c0,1.9,1.5,3.4,3.4,3.4c1.9,0,3.4-1.5,3.4-3.4c0-1.9-1.5-3.4-3.4-3.4C5.8,4.3,4.3,5.8,4.3,7.7z"/>
</g>
</svg>
