<?xml version="1.0" encoding="utf-8"?>
<!-- Generator: Adobe Illustrator 23.0.3, SVG Export Plug-In . SVG Version: 6.00 Build 0)  -->
<svg version="1.1" id="Layer_1" xmlns="http://www.w3.org/2000/svg" xmlns:xlink="http://www.w3.org/1999/xlink" x="0px" y="0px"
	 viewBox="0 0 14.8 20" style="enable-background:new 0 0 14.8 20;" xml:space="preserve">
<style type="text/css">
	.st0{fill:#DF271C;}
</style>
<g>
	<path class="st0" d="M5.8,7.7C5.9,7.8,6,7.8,6.1,7.8c0.1,0,0.2,0,0.3-0.1c0.1-0.2,0.1-0.4,0-0.5h0C5.9,6.8,5.8,6.5,5.8,6.3
		c0-0.3,0.2-0.6,0.5-1C6.6,4.9,7,4.4,7.1,3.8l0,0v0C7.1,3.3,7,3,6.9,2.8C6.7,2.5,6.6,2.3,6.4,2.1C6.3,1.9,6.1,1.8,5.9,1.9
		C5.7,2,5.6,2.3,5.8,2.4C5.9,2.7,6.1,3,6.2,3.2c0.1,0.2,0.2,0.3,0.2,0.5C6.3,4,6,4.4,5.7,4.8C5.4,5.3,5,5.7,5,6.3
		C5,6.8,5.3,7.3,5.8,7.7z"/>
	<path class="st0" d="M2.9,6.6C2.9,6.7,3,6.7,3.1,6.7c0.1,0,0.2,0,0.3-0.1c0.1-0.2,0.1-0.4,0-0.5h0C2.9,5.7,2.8,5.4,2.8,5.2
		c0-0.3,0.2-0.6,0.5-1C3.6,3.8,4,3.3,4.2,2.7l0,0v0c0-0.4-0.1-0.7-0.3-0.9C3.8,1.5,3.6,1.2,3.4,1C3.3,0.8,3.1,0.7,2.9,0.8
		C2.8,1,2.7,1.2,2.8,1.4C3,1.7,3.2,1.9,3.3,2.1c0.1,0.2,0.2,0.3,0.2,0.5C3.3,3,3,3.4,2.7,3.8C2.4,4.2,2.1,4.6,2.1,5.2
		C2.1,5.7,2.3,6.2,2.9,6.6z"/>
	<path class="st0" d="M8.8,5.8C8.9,5.9,8.9,5.9,9,5.9c0.1,0,0.2,0,0.3-0.1c0.1-0.2,0.1-0.4,0-0.5h0C8.8,4.9,8.7,4.6,8.7,4.4
		c0-0.3,0.2-0.6,0.5-1C9.6,3,9.9,2.5,10.1,1.9l0,0v0c0-0.4-0.1-0.7-0.3-0.9C9.7,0.7,9.5,0.4,9.4,0.2C9.2,0,9-0.1,8.8,0.1
		C8.7,0.2,8.6,0.4,8.7,0.6c0.2,0.3,0.4,0.5,0.5,0.7c0.1,0.2,0.2,0.3,0.2,0.5C9.2,2.2,8.9,2.6,8.6,3C8.3,3.4,8,3.8,8,4.4
		C8,4.9,8.3,5.4,8.8,5.8z"/>
	<path class="st0" d="M12.7,10.1c-0.1-0.4-0.2-0.8-0.5-1.1c-0.3-0.3-0.8-0.6-1.4-0.6H1.9C0.8,8.5,0,9.4,0,10.4c0,0.1,0,0.1,0,0.2
		L0.7,18c0.1,1.1,1.1,2,2.2,2h6.8c1.1,0,2.1-0.9,2.2-2l0.2-2.4c1.4-0.1,2.5-1.3,2.5-2.8C14.8,11.5,13.9,10.4,12.7,10.1z M12.6,10.9
		c0.8,0.3,1.4,1,1.4,1.9c0,1-0.7,1.8-1.7,2C12.5,12.2,12.5,12,12.6,10.9z"/>
</g>
</svg>
