<?xml version="1.0" encoding="utf-8"?>
<!-- Generator: Adobe Illustrator 23.0.3, SVG Export Plug-In . SVG Version: 6.00 Build 0)  -->
<svg version="1.1" id="Layer_1" xmlns="http://www.w3.org/2000/svg" xmlns:xlink="http://www.w3.org/1999/xlink" x="0px" y="0px"
	 viewBox="0 0 16.5 18.8" style="enable-background:new 0 0 16.5 18.8;" xml:space="preserve">
<style type="text/css">
	.st0{fill:#DF271C;}
</style>
<g>
	<path class="st0" d="M6.8,0.3c3.6,0,6.6,2.9,6.6,6.6c0,3.6-2.9,6.6-6.6,6.6c-3.6,0-6.6-2.9-6.6-6.6C0.3,3.2,3.2,0.3,6.8,0.3z
		 M13.7,13.7c1.9-1.9,2.8-4.4,2.8-6.8c0-2.5-0.9-5-2.8-6.8L13,0.6c1.7,1.7,2.6,4,2.6,6.2c0,2.2-0.9,4.5-2.6,6.2
		c-1.7,1.7-4,2.6-6.2,2.6c-2.2,0-4.5-0.9-6.2-2.6L0,13.7c1.8,1.8,4.1,2.7,6.4,2.8v1.4H3.6v0.9h6.6v-0.9H7.3v-1.4
		C9.6,16.4,11.9,15.5,13.7,13.7z"/>
</g>
</svg>
