<?xml version="1.0" encoding="utf-8"?>
<!-- Generator: Adobe Illustrator 23.0.3, SVG Export Plug-In . SVG Version: 6.00 Build 0)  -->
<svg version="1.1" id="Layer_1" xmlns="http://www.w3.org/2000/svg" xmlns:xlink="http://www.w3.org/1999/xlink" x="0px" y="0px"
	 viewBox="0 0 13.5 19.8" style="enable-background:new 0 0 13.5 19.8;" xml:space="preserve">
<style type="text/css">
	.st0{fill:#DF271C;}
</style>
<g>
	<path class="st0" d="M11.5,1.9C10.3,0.7,8.6,0,6.8,0H6.7C4.9,0,3.2,0.7,2,1.9C0.8,3,0,4.6,0,6.4c0,1.8,0.7,3.1,1.5,4.3
		c0.8,1.1,1.7,1.9,1.9,2.7c0.2,0.6,0.2,1.1,0.2,1.4c0.1,0.2,0,0.2,0.3,0.4c0.3,0.1,1.5,0.2,2.7,0.2c1.2,0,2.4-0.1,2.7-0.2
		c0.3-0.1,0.3-0.1,0.3-0.3c0.1-0.3,0.1-0.7,0.2-1.4c0.3-0.8,1.1-1.6,1.9-2.7c0.8-1.1,1.5-2.5,1.5-4.3C13.5,4.6,12.7,3,11.5,1.9z"/>
	<rect x="3.9" y="16" class="st0" width="5.8" height="0.8"/>
	<rect x="3.9" y="17.5" class="st0" width="5.8" height="0.8"/>
	<rect x="3.9" y="19" class="st0" width="5.8" height="0.8"/>
</g>
</svg>
