<?xml version="1.0" encoding="utf-8"?>
<!-- Generator: Adobe Illustrator 18.1.1, SVG Export Plug-In . SVG Version: 6.00 Build 0)  -->
<svg version="1.1" id="Слой_1" xmlns="http://www.w3.org/2000/svg" xmlns:xlink="http://www.w3.org/1999/xlink" x="0px" y="0px"
	 viewBox="0 0 12.6 12.6" style="enable-background:new 0 0 12.6 12.6;" xml:space="preserve">
<style type="text/css">
	.st0{fill-rule:evenodd;clip-rule:evenodd;fill:#100F10;stroke:#201600;stroke-width:0.5669;stroke-miterlimit:22.9256;}
	.st1{fill:#E9ECEB;}
	.st2{fill:#E2E2E2;}
	.st3{fill-rule:evenodd;clip-rule:evenodd;fill:#FFFFFF;}
	.st4{fill:#FFFFFF;}
	.st5{fill:#FFFEFF;}
	.st6{fill:#ECECEC;}
	.st7{fill-rule:evenodd;clip-rule:evenodd;fill:#E61C21;}
	.st8{fill-rule:evenodd;clip-rule:evenodd;fill:#E2E2E2;}
	.st9{fill:#F3444E;}
	.st10{fill-rule:evenodd;clip-rule:evenodd;fill:#F3444E;}
	.st11{fill:#DC7D43;}
	.st12{fill:#201600;}
	.st13{fill:#D24A43;}
	.st14{fill:#B6B8BD;}
	.st15{fill-rule:evenodd;clip-rule:evenodd;fill:#FFFEFF;}
	.st16{fill:#E62A13;}
	.st17{fill-rule:evenodd;clip-rule:evenodd;fill:#E62A13;}
	.st18{fill:#F1444C;}
	.st19{fill-rule:evenodd;clip-rule:evenodd;fill:#FF0000;}
	.st20{fill-rule:evenodd;clip-rule:evenodd;fill:#5C768B;}
	.st21{fill:none;stroke:#D24A43;stroke-width:1.4173;stroke-miterlimit:22.9256;}
	.st22{fill-rule:evenodd;clip-rule:evenodd;fill:#D24A43;}
	.st23{fill-rule:evenodd;clip-rule:evenodd;fill:#E8444C;}
	.st24{fill:none;stroke:#C6C6C6;stroke-width:1.0001;stroke-miterlimit:22.9256;}
	.st25{fill:#E61C21;}
	.st26{fill-rule:evenodd;clip-rule:evenodd;fill:#E41C22;}
	.st27{fill:none;stroke:#F1444C;stroke-miterlimit:10;}
	.st28{fill:none;stroke:#F1444C;stroke-width:2.1099;stroke-miterlimit:10;}
	.st29{fill:none;stroke:#F1444C;stroke-width:5.6693;stroke-miterlimit:10;}
	.st30{fill:none;stroke:#F1444C;stroke-width:2.8347;stroke-miterlimit:10;}
	.st31{fill:none;stroke:#F1444C;stroke-width:1.9345;stroke-miterlimit:10;}
	.st32{fill:none;stroke:#F1444C;stroke-width:1.3761;stroke-miterlimit:10;}
	.st33{fill:none;stroke:#F1444C;stroke-width:2.6283;stroke-miterlimit:10;}
	.st34{fill:none;stroke:#F1444C;stroke-width:3.536;stroke-miterlimit:10;}
	.st35{fill:none;stroke:#F1444C;stroke-width:3.3797;stroke-miterlimit:10;}
	.st36{fill:none;stroke:#F1444C;stroke-width:2.9335;stroke-miterlimit:10;}
	.st37{fill:none;stroke:#F1444C;stroke-width:1.275;stroke-miterlimit:10;}
	.st38{fill:none;stroke:#F1444C;stroke-width:1.0997;stroke-miterlimit:10;}
	.st39{fill:none;stroke:#F1444C;stroke-width:1.9238;stroke-miterlimit:10;}
</style>
<g>
	<g>
		<g>
			<path class="st5" d="M9,12.3H3.6c-1.8,0-3.3-1.5-3.3-3.3V3.6c0-1.8,1.5-3.3,3.3-3.3H9c1.8,0,3.3,1.5,3.3,3.3V9
				C12.3,10.8,10.8,12.3,9,12.3z M3.6,0.9c-1.5,0-2.7,1.2-2.7,2.7V9c0,1.5,1.2,2.7,2.7,2.7H9c1.5,0,2.7-1.2,2.7-2.7V3.6
				c0-1.5-1.2-2.7-2.7-2.7H3.6z"/>
			<path class="st4" d="M9,12.6H3.6C1.6,12.6,0,11,0,9V3.6C0,1.6,1.6,0,3.6,0H9c2,0,3.6,1.6,3.6,3.6V9C12.6,11,11,12.6,9,12.6z
				 M3.6,0.6c-1.6,0-3,1.3-3,3V9c0,1.6,1.3,3,3,3H9c1.6,0,3-1.3,3-3V3.6c0-1.6-1.3-3-3-3H3.6z M9,12H3.6C1.9,12,0.6,10.6,0.6,9V3.6
				c0-1.6,1.3-2.9,2.9-2.9H9c1.6,0,2.9,1.3,2.9,2.9V9C12,10.6,10.6,12,9,12z M3.6,1.2c-1.3,0-2.4,1.1-2.4,2.4V9
				c0,1.3,1.1,2.4,2.4,2.4H9c1.3,0,2.4-1.1,2.4-2.4V3.6c0-1.3-1.1-2.4-2.4-2.4H3.6z"/>
		</g>
	</g>
	<g>
		<g>
			<path class="st5" d="M6.3,10c-2.1,0-3.7-1.7-3.7-3.7s1.7-3.7,3.7-3.7S10,4.2,10,6.3S8.3,10,6.3,10z M6.3,3.2
				c-1.7,0-3.1,1.4-3.1,3.1s1.4,3.1,3.1,3.1S9.4,8,9.4,6.3S8,3.2,6.3,3.2z"/>
			<path class="st4" d="M6.3,10.3c-2.2,0-4-1.8-4-4c0-2.2,1.8-4,4-4s4,1.8,4,4C10.3,8.5,8.5,10.3,6.3,10.3z M6.3,2.8
				c-1.9,0-3.4,1.5-3.4,3.4c0,1.9,1.5,3.4,3.4,3.4c1.9,0,3.4-1.5,3.4-3.4C9.7,4.4,8.2,2.8,6.3,2.8z M6.3,9.7c-1.9,0-3.4-1.5-3.4-3.4
				s1.5-3.4,3.4-3.4s3.4,1.5,3.4,3.4S8.2,9.7,6.3,9.7z M6.3,3.5c-1.6,0-2.8,1.3-2.8,2.8s1.3,2.8,2.8,2.8c1.6,0,2.8-1.3,2.8-2.8
				S7.9,3.5,6.3,3.5z"/>
		</g>
	</g>
	<g>
		<path class="st5" d="M10.5,2.5c0.2,0.5-0.3,0.9-0.7,0.7C9.6,3.2,9.5,3.1,9.5,3C9.3,2.5,9.7,2,10.2,2.2C10.3,2.3,10.4,2.4,10.5,2.5
			z"/>
		<path class="st4" d="M10,3.6c-0.1,0-0.2,0-0.3-0.1C9.5,3.4,9.3,3.3,9.2,3.1C9.1,2.8,9.1,2.5,9.3,2.3c0.2-0.3,0.7-0.5,1-0.3
			c0.2,0.1,0.4,0.2,0.4,0.4c0.1,0.3,0.1,0.6-0.1,0.8C10.5,3.4,10.3,3.6,10,3.6z M10,2.5c-0.1,0-0.2,0-0.2,0.1c0,0-0.1,0.1,0,0.3
			C9.8,2.9,9.8,3,9.9,3c0.1,0.1,0.3,0,0.4-0.1c0,0,0.1-0.1,0-0.3c0-0.1-0.1-0.1-0.1-0.1C10.1,2.5,10,2.5,10,2.5z"/>
	</g>
</g>
</svg>
