<?xml version="1.0" encoding="utf-8"?>
<!-- Generator: Adobe Illustrator 23.0.3, SVG Export Plug-In . SVG Version: 6.00 Build 0)  -->
<svg version="1.1" id="Layer_1" xmlns="http://www.w3.org/2000/svg" xmlns:xlink="http://www.w3.org/1999/xlink" x="0px" y="0px"
	 viewBox="0 0 1608.9 1682.8" style="enable-background:new 0 0 1608.9 1682.8;" xml:space="preserve">
<style type="text/css">
	.st0{fill:#FF8A56;}
	.st1{fill:#574CD6;}
	.st2{fill:#010101;}
	.st3{fill:#FFC414;}
	.st4{fill:#FF966E;}
	.st5{fill:#FF615C;}
	.st6{fill:#012C3E;}
	.st7{fill:#D45536;}
	.st8{fill:#FF9358;}
	.st9{fill:#58B2D3;}
	.st10{fill:#FF4500;}
	.st11{fill:#E16C49;}
	.st12{fill:#094984;}
	.st13{fill:#BBAC2A;}
</style>
<g>
	<g>
		<g>
			<path class="st0" d="M1120.5,502.5c10.3-4.3-3.8-0.6,6.5-4.9c8.4-3.5,51.7-15,58.2-21.9c5.1-5.4-2.7-11.6-4.3-18.7
				c-1.5-6.8-6-13.9-4.5-21c0.6-2.8-1.7-6.2-4.8-5.2c-12.1,3.8-34,8.4-46.1,12.2c-11.3,3.5-14.6,5-24.9,10.9
				c-2.4,1.4-1.9,6.1,1.3,5.8c0.3,0,0.7-0.1,1-0.1c1.3,7.2,3.9,14,6.2,20.8c1.7,5,2.8,11.6,5.8,16.2
				C1113.2,499.5,1116.5,504.2,1120.5,502.5z"/>
			<path class="st1" d="M1213.8,513.7c0.6,0.1,1.3,0.1,1.9,0.1c5,0,8.5-2.2,8.1-3.3l-27.2-84c-1.4-4.2-5.9-6.5-10-4.9l-4,1.5
				l-1.6,0.6l-11.5,4.2c-0.6,0.2-1.1,0.4-1.7,0.6c-15.7,7.3-10.4,17.5-10.4,17.5c1.6,4.8,4.5,7.9,7.7,9.8c3.3,2,5.7,5.3,6.4,9.1
				c0.6,3.3,0.9,7.3,0.5,11.5c-1.2,11.7,12.5,5.7,25,24.9c0.2,0.2,0.3,0.5,0.5,0.8s0.3,0.5,0.5,0.8
				C1202.9,510.5,1208.9,513.2,1213.8,513.7z"/>
			<path class="st2" d="M1213.8,513.7c0.6,0.1,1.3,0.1,1.9,0.1c-0.4-1.4-0.9-2.8-1.3-4.2c-1.4-4.7-2.8-9.4-4.3-14
				c0.1-0.3,0-0.6-0.3-0.8c-2.9-9.1-6-18.1-9.2-27.1c-3.4-9.2-6.9-18.4-10.7-27.5c-2.4-5.7-4.7-11.4-7.3-17.1l-1.6,0.6
				c2.5,5.7,5.1,11.4,7.5,17.2c3.8,9.3,7.5,18.7,10.9,28.2c3.1,8.5,6,17.1,8.7,25.8c-3.9,1-8,3.4-11.1,6.6c0.2,0.2,0.3,0.5,0.5,0.8
				s0.3,0.5,0.5,0.8c0.2-0.3,0.5-0.6,0.8-0.9c2.7-2.8,6.1-4.8,9.9-5.8c0.1,0.2,0.1,0.4,0.2,0.6c1.5,4.8,3,9.7,4.4,14.6
				C1213.4,512.2,1213.6,513,1213.8,513.7z"/>
			<path class="st2" d="M1173.3,496.4c2-0.8,3.8-2.6,5.4-3.9c1.9-1.4,3.7-2.9,5.6-4.3c0,0.1,0.1,0.1,0.1,0.1
				c-0.1,0.7-0.1,1.5,0.1,2.1s0.9,0.6,1.1,0c0.5-1.3,0.6-2.8,1.1-4.2c0.6-1.5,1.4-2.8,2.3-4.1c0.4-0.6-0.4-1.2-0.9-0.8
				c-0.6,0.5-1.2,1.3-1.8,2.1c0.1-2.6-0.3-5.3-1.3-7.7c-1-2.5-3.3-6.1-6.1-3.6c-4.6,4.1,0.2,12.8,5.6,13.1c0,0.1,0,0.2,0,0.3
				c-3.3-1.2-6.9-1.1-10.1,0.2c-2.9,1.1-6.6,3.7-6.5,7.2C1168.1,496,1170.7,497.4,1173.3,496.4z M1184.6,479.8
				c0.2,1.4,0.3,2.7,0.2,4.1c-1.7-0.6-3.2-1.4-4.3-2.9c-1.3-1.7-2.5-5.3-0.8-7.1C1182.5,470.6,1184.3,478.3,1184.6,479.8z
				 M1170.2,490.9c2.5-4.4,8.6-5.1,13.2-4.1c-1.9,1.5-3.8,2.9-5.7,4.4c-1.1,0.8-2.1,1.7-3.2,2.5c-0.7,0.6-1.5,1.1-2.4,1.4
				C1169.5,494.5,1168.9,493.1,1170.2,490.9z"/>
			<path class="st2" d="M1191.4,497.7c-0.8-2.1,0.2-6.3,1.9-7.8c0.3-0.3,0.7,0,0.7,0.4c-0.2,1.2-0.8,2.4-1.1,3.6
				c-0.3,1.2-0.1,2.5-0.5,3.8C1192.2,498.3,1191.6,498.2,1191.4,497.7z"/>
		</g>
		<path class="st3" d="M905.7,467.3c4.6-4.1,226.5-38.4,226.5-38.4l27.7,68.3l-142.3,97.7L905.7,467.3z"/>
		<path class="st3" d="M688,298.6c-2.3,7.2-165.7,53-213.9,124.5c-56.7,84.2,28.1,156.6,59.2,155.6
			c143.1-4.6,399.8-138.9,401.6-141.6c22.5-34.2-51.6-157-51.6-157L688,298.6z"/>
		<path class="st4" d="M909.5,107.5c2.4,0.5,126.5,26.2,273.4,141.4l-26.6,30.6c0,0-172-83.7-319.7-48.3
			C688.9,266.4,909.5,107.5,909.5,107.5z"/>
		<path class="st4" d="M591.2,135.7c0,0-154.5,61.6-238.9,142.6c-5.5,5.2-7.4,13.3-5.9,20.8l8.1,40.6c0,0,181.3-121.4,316.6-106
			c53.2,6.1,7.3-62.8,7.3-62.8L591.2,135.7z"/>
		<g>
			<path class="st5" d="M960.1,108c0,0-99.6-33.5-196.4-20.5c-113.9,15.3-173.2,45.3-173.2,45.3l35.2,126.1l38-2.6l3.1,39.8
				c3.3,14.5,39.1,25.6,53.6,27.4c37.6,4.8,88.4,2,110,0.4c11-0.8,21.7-3.6,31.5-8.7c45.6-23.5,29.4-69.6,29.4-69.6l41.8-4.9
				L960.1,108z"/>
			<path class="st6" d="M744,75.2c1.1,1.1,2.4,2.1,3.7,3c0.1,0.1,0.2,0.2,0.4,0.2c1.4,0.8,2.8,1,4.1,0.6l0,0
				c0.3-0.1,0.5-0.2,0.8-0.3s0.6-0.3,0.8-0.5c0.2,0,0.4,0.1,0.5,0.1c4.3,0.7,9.9-2.9,8.5-8.2c-1.4-5.6,2.3-10.5,6.9-14.2l0,0
				c0.7-0.6,1.4-1.1,2.2-1.6c0.5-0.3,0.9-0.6,1.4-0.9c1.1-0.7,2.2-1.4,3.4-2c1-0.6,2-1.1,3.1-1.7c2.5-1.4,5.1-2.7,7.6-4.1
				c0.8-0.4,1.6-0.9,2.4-1.4c1-0.6,2-1.2,3-1.9c1.2-0.8,2.4-1.6,3.5-2.5c2.1-1.6,4.1-3.5,5.8-5.6c6-7.2,9.3-16.3,6.1-24.1
				c-0.7-1.7-1.8-3.4-3.2-4.9c-2.2-2.4-5.1-4-8.3-4.8c-2.5-0.6-5.1-0.6-7.8,0.1c-1.9,0.5-3.8,1.3-5.6,2.3
				c-5.1,2.8-9.8,7.2-14.7,10.1c-13,7.6-27.5,15-32.3,29.9C732.3,55.1,735.6,67.3,744,75.2z"/>
			<path class="st4" d="M795.3,45.1c-17.9-21.8-53.7-1.1-46.1,25.6c-0.3,0.2-0.6,0.3-1,0.5c-3.5,2.1-6.3,5.9-6.3,10.2
				c-0.1,4.8,3.2,8.9,7.7,10.4c5.1,1.6,10-0.6,14.2-3.5c5.3,2.7,11.4,3.8,17.5,2.5c13.2-2.7,24.6-16.2,22.3-29.6
				C801.9,50.7,796.9,47,795.3,45.1z"/>
			<path class="st4" d="M789.1,66.6l9,43.7c-0.4,6.7-6.2,12.1-19.7,13.3c-8.6,0.8-15.8-5-15.7-9.3c0.2-6.6,0.5-16.1,0.8-23.1
				c0.1-1.3,0.1-2.6,0.2-3.7c0.2-2.9,0.3-4.9,0.5-5.3L789.1,66.6z"/>
			<path class="st2" d="M785.1,90.7c-7,3-14.6,3.2-21.7,0.5c0.1-1.3,0.1-2.6,0.2-3.7c0.2,0,0.4,0,0.6,0.1c6.7,2.5,13.4,2.4,20-0.4
				C786.3,86.3,787.2,89.8,785.1,90.7z"/>
			<path class="st2" d="M786.3,56.8c-2.6-1.7-4.8-4-6.3-6.7c-1.1-2-4.4-0.6-3.3,1.4c1.9,3.3,4.3,6.1,7.5,8.3
				C786.1,61,788.3,58.1,786.3,56.8z"/>
			<path class="st2" d="M771.2,54.5c-2.9,1-1.6,5.7,1.3,4.7C775.4,58.1,774.1,53.4,771.2,54.5z"/>
			<path class="st2" d="M786.6,47c-1.2,0.4-2.1,1.7-1.7,3l0.1,0.3c0.4,1.2,1.6,2.1,2.9,1.7c1.2-0.4,2.1-1.7,1.7-3l-0.1-0.3
				C789.1,47.5,787.9,46.6,786.6,47z"/>
			<path class="st2" d="M769.3,50.8c-0.6-0.9-1.5-1.1-2.4-0.6c-1.4,0.7-2.5,2.1-2.8,3.6c-0.2,1,0.4,2,1.3,2.2s1.9-0.4,2.2-1.3
				c0-0.1,0.1-0.2,0.1-0.3c0,0,0,0,0-0.1c0.1-0.1,0.1-0.2,0.2-0.3c-0.1,0.1-0.1,0.1,0,0l0.3-0.3c0.2-0.1,0.3-0.2,0.5-0.3
				C769.5,52.9,769.8,51.6,769.3,50.8z"/>
			<path class="st2" d="M788.9,42.4c-1.6-1-3.7-1.2-5.5-0.5c-0.9,0.3-1.5,1.2-1.3,2.2c0.2,0.9,1.3,1.6,2.2,1.3
				c1-0.4,1.9-0.4,2.8,0.2C789.2,46.7,790.9,43.6,788.9,42.4z"/>
			<path class="st2" d="M793,64.1c-2,4-5.9,6.2-10.4,5.9c-2.3-0.2-2.3,3.5,0,3.6c5.6,0.4,10.9-2.7,13.5-7.8
				C797.2,63.8,794.1,62,793,64.1z"/>
			<path class="st2" d="M753.4,75.1c-2.3,0-4.5,1.4-5.4,3.6c-0.9,2.2-0.3,4.7,1.3,6.4c1.6,1.7,4.1-0.9,2.5-2.6
				c-1.4-1.5-0.3-3.8,1.6-3.8C755.7,78.6,755.7,75,753.4,75.1z"/>
		</g>
		<path class="st2" d="M672.1,129c-4.6,16.9-6.7,34.4-6.3,52c0.1,2.5,3.9,2.6,3.8,0.1c-0.5-17.3,1.6-34.4,6.1-51
			C676.4,127.7,672.7,126.6,672.1,129z"/>
		<path class="st2" d="M664.7,197.3V223c0,2.5,3.8,2.6,3.8,0.1v-25.7C668.5,195,664.7,194.8,664.7,197.3z"/>
		<path class="st2" d="M494,441.5c-3.4,4.8-12.3,12.4-17.2,4.8c-1.3-2.1-4.7-0.3-3.4,1.8c2.5,3.9,6.8,5.7,11.3,5
			c5.5-0.9,9.4-5.2,12.5-9.5C498.7,441.5,495.5,439.5,494,441.5z"/>
		<path class="st2" d="M894.4,228.2c-4-15.4-6.3-31.1-6.7-47c-0.1-2.5-3.9-2.6-3.8-0.1c0.4,16.2,2.7,32.3,6.8,48
			C891.3,231.5,895,230.6,894.4,228.2z"/>
	</g>
	<g>
		<path class="st7" d="M117.7,482.9c0,0,40.7-100.8,197.6-175.2l18.3,36.2c0,0-130.4,167.5-124.9,234.7
			C214.2,645.9,117.7,482.9,117.7,482.9z"/>
		<path class="st2" d="M166,411.3c0.8-14.6-14.9-23.4-27.9-16.6c0.6-11.2-5.9-22.3-16.9-26.1c-11.7-4-25.6,1.3-32.9,11.4
			c-9.9-8.1-25-9.5-36.7-2C40,385.5,35,399.9,38.4,412.3c-10.8,2.2-18.3,12.4-19.8,22.8c-2,14,7,25.8,16.6,34.7
			c-10.7,7.3-12,22.4-3.6,31.5c9.9,10.7,25.6,10.1,38.8,4.6c0.8,10,12.8,14.2,22.4,11.7c13.5-3.4,25.7-13.5,34.4-24.3
			c0.4-0.1,0.8-0.4,1.1-0.8c4.8-6,5.5-8.7,10.2-14.7c0.4,0.4,32.1-12,41.1-34.8c2.9-7.3,3.8-16.2,0.5-23.3
			C177.6,414.5,172.1,411,166,411.3z"/>
		<g>
			<path class="st8" d="M98.7,983.6c-2.9-4.7-8.3-8.4-12-12.1c-5.2-5-10.2-10.2-16-14.3c0.2-0.3,0.3-0.6,0.5-0.9
				c1.6-2.8-2.4-5.3-4.6-3.6c-9.5,7.1-12.2,9.5-20,18.4c-8.4,9.6-21.6,27.8-29.9,37.4c-2.2,2.5-0.1,6,2.6,6.6
				c7,1.6,11.5,8.6,16.9,12.8c5.7,4.4,8,14.1,14.9,11.6c8.8-3.1,36.9-38.3,43.5-44.6c8.1-7.7-1,3.8,7.1-3.9
				C104.8,988.1,102,983.1,98.7,983.6z"/>
			<path class="st9" d="M73.2,1081.7c-0.2,0.6-0.4,1.2-0.7,1.7c-2.1,4.5-5.5,6.9-6.3,6.1l-63.7-59.7c-3.2-3-3.3-8.1-0.3-11.3l2.9-3
				l1.2-1.2l8.5-8.9c0.4-0.5,0.8-0.9,1.3-1.3c13-11.4,19.9-2.4,19.9-2.4c3.6,3.5,5.2,7.4,5.6,11.2c0.4,3.9,2.4,7.4,5.5,9.6
				c2.7,1.9,6.1,3.9,10,5.2c10.9,3.7-0.1,13.9,11.9,33.3c0.2,0.2,0.3,0.5,0.5,0.8s0.3,0.5,0.5,0.8
				C74.8,1070.4,74.8,1076.9,73.2,1081.7z"/>
			<path class="st2" d="M73.2,1081.7c-0.2,0.6-0.4,1.2-0.7,1.7c-1.1-1-2.1-2-3.2-2.9c-3.6-3.2-7.2-6.4-10.8-9.7
				c-0.3-0.1-0.6-0.3-0.6-0.6c-6.9-6.4-13.7-13-20.4-19.7c-6.9-6.9-13.6-14-20.1-21.2c-4.1-4.5-8.3-9.1-12.3-13.7l1.2-1.2
				c4.1,4.7,8.1,9.4,12.3,14c6.7,7.4,13.6,14.6,20.7,21.7c6.3,6.4,12.8,12.6,19.4,18.7c2.5-3.1,6.3-6,10.5-7.6
				c0.2,0.2,0.3,0.5,0.5,0.8s0.3,0.5,0.5,0.8c-0.4,0.1-0.7,0.2-1.1,0.4c-3.7,1.4-6.8,3.7-9.2,6.7c0.1,0.1,0.3,0.3,0.4,0.4
				c3.7,3.4,7.4,6.8,11.2,10.1C72,1080.7,72.6,1081.2,73.2,1081.7z"/>
			<path class="st2" d="M73.6,1030.9c-3.1-1.6-6.9,0.8-9.1,3c-2.5,2.5-4.1,5.8-4.3,9.3c-0.1,0-0.2-0.1-0.3-0.1
				c1.9-5.2-3.9-13.2-9.4-10.6c-3.5,1.6-1.1,5.2,0.7,7.1c1.8,1.9,4,3.4,6.4,4.4c-1,0.2-1.9,0.4-2.6,0.8c-0.6,0.3-0.4,1.3,0.3,1.1
				c1.6-0.3,3.1-0.5,4.6-0.4c1.4,0.1,2.8,0.7,4.2,0.7c0.6,0,0.9-0.7,0.4-1.1s-1.2-0.7-1.9-1c0-0.1,0-0.1-0.1-0.2
				c2.1-1.1,4.1-2.2,6.2-3.3c1.9-1,4.2-1.9,5.7-3.4C76.4,1035.3,76.2,1032.3,73.6,1030.9z M51.7,1033.8c2.4-0.8,5,1.8,6,3.7
				c0.9,1.7,0.9,3.4,0.8,5.1c-1.2-0.5-2.4-1.1-3.6-1.8C53.7,1039.9,47.6,1035.1,51.7,1033.8z M73.8,1035.5c-0.6,0.7-1.4,1.3-2.2,1.7
				c-1.2,0.7-2.4,1.3-3.6,1.9c-2.1,1.1-4.2,2.3-6.3,3.4c0.9-4.6,4.1-10,9.1-10.5C73.3,1031.8,74.3,1033,73.8,1035.5z"/>
			<path class="st2" d="M68.1,1054.4c-1.6-1.6-5.7-2.4-7.7-1.4c-0.4,0.2-0.3,0.7,0.1,0.8c1.2,0.3,2.5,0.2,3.7,0.5s2.3,0.9,3.6,1.1
				C68.3,1055.5,68.5,1054.8,68.1,1054.4z"/>
		</g>
		<path class="st5" d="M97.9,708.3c-3.4,5.2-33.8,91.9,42.8,153s205.8,257.1,205.8,257.1l44.6-36.9L309,828.4L97.9,708.3z"/>
		<path class="st5" d="M225.3,641.2c0,0,162.3-9.2,193.1,65.8s-302.9,314-302.9,314l-89.7-61.2L150.7,801l-12.8-103.3L225.3,641.2z"
			/>
		<path class="st10" d="M136,633.3c6.3,20.9,14.4,41.3,24.1,60.8c1,2-2.2,3.1-3.2,1.2c-9.7-19.5-17.8-39.9-24.1-60.8
			C132.2,632.3,135.4,631.2,136,633.3z"/>
		<path class="st7" d="M113.3,508.7c0,0-161.5,128.7,25.6,412.3l68.3-41.2c0,0-81.1-115.3-57.5-264.9c5-31.4-9.8-64.2-4-98
			L113.3,508.7z"/>
		<path class="st3" d="M153.5,471.5c0,0,23.7,76.8-57.8,55.6c0,0-12.1,13.3-14.2,20.1l8.6,10.1c30.4,45.1,50.2,96.8,57.7,150.9l0,0
			c0,0,74-37,76.7-61.4c2.7-24.5,16.3-140.5-59.2-184.5L153.5,471.5z"/>
		<path class="st7" d="M148.3,508.6l-11.1-28.4l-1.5-3.7l-4.7-12l-23.4,21c-0.1,0.5,0.1,2.6,0.5,5.7c0.1,1.2,0.3,2.5,0.5,3.9
			c0.9,7.4,2.5,17.4,3.3,24.4C112.7,526.1,142.5,523.4,148.3,508.6z"/>
		<g>
			<path class="st7" d="M130.7,434.3c-22.7-19.6-56.5,8.8-43.8,35.4c-0.3,0.2-0.6,0.4-0.9,0.7c-3.3,2.8-5.5,7.4-4.8,11.9
				c0.8,5.1,5,8.8,9.9,9.4c5.6,0.7,10.3-2.5,14.2-6.2c6.1,1.9,12.7,1.8,18.8-0.6c13.3-5.2,22.9-21.5,18.1-35.2
				C138.5,438.9,132.7,436,130.7,434.3z"/>
			<path class="st2" d="M123.3,448.2c-3.1-1.4-5.7-3.3-7.8-5.9c-1.5-1.9-4.7,0.2-3.2,2.1c2.6,3.2,5.6,5.6,9.4,7.3
				C123.9,452.7,125.6,449.2,123.3,448.2z"/>
			<path class="st2" d="M106.7,450.9c-2.8,1.6-0.7,6.3,2.2,4.7C111.6,454,109.5,449.3,106.7,450.9z"/>
			<path class="st2" d="M124.3,438.7c-1.1,0.6-1.9,2.2-1.2,3.4l0.2,0.3c0.7,1.2,2.1,1.9,3.4,1.2c1.1-0.6,1.9-2.2,1.2-3.4l-0.2-0.3
				C127,438.8,125.6,438.1,124.3,438.7z"/>
			<path class="st2" d="M103.9,447.4c-0.8-0.8-1.8-0.8-2.7-0.2c-1.4,1-2.2,2.6-2.3,4.3c-0.1,1,0.7,2,1.7,2.1s2-0.7,2-1.8
				c0-0.1,0-0.2,0-0.3c0,0,0,0,0-0.1s0.1-0.2,0.1-0.4c-0.1,0.2-0.1,0.1,0-0.1c0-0.1,0.3-0.4,0.3-0.4c0.2-0.2,0.3-0.3,0.5-0.4
				C104.5,449.6,104.6,448.2,103.9,447.4z"/>
			<path class="st2" d="M125.9,433.5c-1.9-0.7-4.1-0.6-5.9,0.5c-0.9,0.5-1.4,1.6-0.9,2.6c0.4,0.9,1.6,1.5,2.5,0.9
				c1-0.6,1.9-0.7,3-0.3C126.9,438,128.2,434.4,125.9,433.5z"/>
			<path class="st2" d="M92,473.5c-2.4,0.5-4.5,2.3-5,4.8s0.5,5,2.5,6.5s4.1-1.7,2.1-3.2c-1.7-1.3-1-3.9,1-4.3
				C95.1,476.8,94.4,473,92,473.5z"/>
			<path class="st2" d="M132.6,453.8c-0.2,7.2-6.7,11.8-13.5,9.2c-1.9-0.7-3.1,2.3-1.1,3.1c8.6,3.3,17.6-2.6,17.9-12
				C135.9,452,132.7,451.7,132.6,453.8z"/>
		</g>
		<path class="st2" d="M129.2,484.8c2.7-0.8,8.2-3.2,9.4-6.7l-2.1-2.5c-2.3,2.5-5.9,4.6-9.1,5.8
			C125.1,482.2,126.8,485.5,129.2,484.8z"/>
		<path class="st2" d="M106.7,417c0-0.1-0.1-0.3-0.1-0.4c-1.1-2.7-5.1-0.8-4,1.9c0.9,2.2,1.2,4.3,1.1,6.4l0,0
			c-2.3,1.7-4.6,3.3-6.8,5c-0.1,0.1-0.2,0.2-0.2,0.3c-0.7-1.1-2.3-1.6-3.3-0.6c-6.3,6.5-9.9,14.7-10.5,23.5c-0.8,0.6-1.2,1.7-1,2.7
			c-0.5,0.4-0.8,1.1-0.6,2c0.9,3.4,0.6,6.2-0.8,9.3c-0.5,0-1-0.1-1.5-0.3c-2.7-0.8-4.3,3.4-1.6,4.2c4.5,1.4,9.5-0.2,11.9-4.4
			c1.8-3.1,1.6-7.1-0.2-10.1c1.2-0.8,2.2-1.9,2.8-3.2c1.1-2.4,0.9-5,0.2-7.5c0.2-0.5,0.5-1,0.7-1.5c1.9,0.1,3.8-0.4,5.5-1.4
			c1.5-0.9,2.4-2.1,3.4-3.4c1.4-1.9,1.2-1.6,3.5-2.5c8.2-3,7.1-12.4,4.2-18.9C108.8,416.9,107.6,416.6,106.7,417z"/>
		<path class="st2" d="M142.1,912.6c21.5,19.1,43,38.2,64.5,57.3c1.5,1.4-0.3,4-1.8,2.6c-21.5-19.1-43-38.2-64.5-57.3
			C138.8,913.8,140.6,911.2,142.1,912.6z"/>
		<path class="st2" d="M252,739.3c9.8,5.6,21.4,6.4,31.9,2.1c0.6-0.2,1-0.1,1.4,0.1c1.9-0.8,2.9,2.2,1,3
			c-6.1,2.6-11.7,6.2-16.7,10.7c-1.5,1.4-3.3-1.3-1.8-2.6c2.3-2.1,4.7-3.9,7.3-5.6c-8.4,1.1-17-0.5-24.5-4.8
			C248.8,741.2,250.2,738.3,252,739.3z"/>
		<g>
			<path class="st7" d="M377.9,271.7c-2.8,0.4-5.5,1.2-8.1,2.4c-5.6,2.4-10.6,5.8-15.7,9.1c-6.1,3.9-12.2,7.7-18.3,11.6
				c-4.8,3.1-9.7,6.2-14.5,9.2c-2,1.3-3.9,2.5-5.9,3.7c-0.5,0.3-0.5,0.9-0.2,1.3c5,11.2,9.9,22.6,14.5,34c0.2,0.4,0.3,0.7,0.5,1.1
				c0.1,0.4,0.4,0.5,0.7,0.6c0.2,0.1,0.4,0.2,0.7,0.1c0.9-0.3,1.6-0.6,2.2-0.9l0,0c3.8-1.7,3.2-2.6,8.9-2.5c0.3,0,0.6,0,0.9,0.1
				c0.3,0,0.7,0.1,1,0.2c0.1,0,0.3,0.1,0.4,0.1l0,0c6.8,1.7,17.7,8.8,22.9,5.5c9.1-5.8-0.8-10.1-2.4-13c5.8-5.5,17.6-16.9,23.5-22.4
				c2.9-2.8,5.8-5.5,8.7-8.2c1.7-1.6,4.3-3.8,3.5-6.3c-0.1-0.4-0.3-0.8-0.7-1.2c-0.3-0.4-0.7-0.7-1-0.9c-1-0.6-2.3-0.8-3.5-0.7
				c-1,0.1-2,0.4-3,0.6c1.5-1.3,2.8-2.9,3.8-4.6c1.4-2.2,0.4-4.3-1.9-5.1c-2-0.7-4.3-0.5-6.3-0.1c0.1-0.1,0.1-0.1,0.2-0.2
				c1.4-1.5,3.5-3.8,1.8-5.9c-1.5-1.8-4.4-1.6-6.5-1.4c1.1-1.2,1.9-2.7,1-4.3C383.8,271,380.2,271.4,377.9,271.7z"/>
			<path class="st2" d="M371,283.9c2.8-2.2,6-3.6,9.4-4.4c2.2-0.5,1.6-4-0.6-3.5c-4.1,0.9-7.8,2.6-11.1,5.1
				C367,282.5,369.2,285.2,371,283.9z"/>
			<path class="st2" d="M376.9,292.5c1.8-2.2,4.3-3.5,7.1-3.9c2.2-0.3,1.7-3.8-0.6-3.5c-3.7,0.5-7,2.4-9.4,5.3
				C372.6,292.2,375.4,294.3,376.9,292.5z"/>
			<path class="st2" d="M382.7,302c2-1.9,4.4-3.2,7-4c2.2-0.6,1.6-4.1-0.6-3.5c-3.2,0.9-6.2,2.4-8.7,4.7
				C378.8,300.8,381,303.5,382.7,302z"/>
		</g>
		<path class="st2" d="M331.1,307.3c-2.5,4.5-2.9,9.6-1.3,14.5c0.6,1.8-2.2,2.6-2.7,0.8c-1.9-5.6-1.3-11.5,1.5-16.7
			C329.5,304.3,332,305.6,331.1,307.3z"/>
		<path class="st4" d="M394.3,309.9c-1.8-0.8-3.6-1.5-5.4-2.3c-2.1-0.9-3.8-1.5-6-0.5c-1.2,0.5-1.9,2-1.8,3.4c-0.1,0-0.2,0-0.3-0.1
			c-1.3-0.6-2.9-0.5-3.8,0.6l0.4-0.1c-0.2,0-0.3,0.1-0.4,0.2c-0.9,0.2-1.8,0.8-2.3,1.6c-0.9,1.5-0.5,3.1,0.5,4.3
			c-1.6-0.8-3.3-1.3-5.1-0.7c-1.3,0.5-2.8,1.7-2.7,3.3c0.1,0.8,0.2,1.5,0.5,2c-2.4-0.3-4.7,0.3-5.4,3.2c-0.9,3.5,2,5.3,5,6.4
			c2.1,1.1,4.5,1.8,6.7,1.3s3.8-2.5,3.3-4.7c1.4,0.7,3.1,0.6,4.2-0.6c1.4-0.7,2.3-2.2,2.1-3.7c0.7,0.3,1.3,0.5,2,0.6
			c1.9,0.1,3.6-1.3,4.1-3.1c0.3-0.9,0.3-1.8,0.1-2.5l0,0c2.3,1.3,4.5-0.3,5.1-2.2c0.6-0.5,1.1-1.1,1.3-1.8
			C397.2,312.3,396,310.6,394.3,309.9z"/>
		<path class="st4" d="M361.2,270.1c-11.1,5.9-16.7,13.3-17.9,14.7c-2.4,2.8-5.5,6.5-6,10.3c-0.5,3.5,2.8,6.2,6,4.6
			c2.9-1.5,5.3-5.5,7.1-8.1c2.4-3.6,9.4-11.6,12.8-14.3C366.6,274.6,365,268.1,361.2,270.1z"/>
		<path class="st2" d="M305.2,839.3c-6.1-17.3-14.2-33.7-24.5-48.9c-1.4-2-4.8-0.3-3.4,1.8c10,14.9,18.1,31,24.1,47.9
			C302.3,842.5,306,841.6,305.2,839.3z"/>
		<path class="st2" d="M159.1,592.2c-1.3,7.3-3.8,14.9-9.3,20.1c-5.3,5.1-13.6,7.2-20.2,3.3c-2.1-1.2-4.2,2.1-2,3.3
			c7.1,4.1,15.9,3,22.5-1.8c7.5-5.5,11.1-14.8,12.7-23.8C163.3,590.9,159.6,589.7,159.1,592.2z"/>
		<path class="st2" d="M211.4,554.7c-0.9,13.1-12.5,22.6-25.4,20.4c-2.4-0.4-3.5,3.3-1.1,3.7c15.3,2.6,29.2-8.2,30.3-24.1
			C215.4,552.3,211.6,552.2,211.4,554.7z"/>
	</g>
	<g>
		<path class="st11" d="M1447.2,442.7l-67.7-60.9c-69.1-63.6-186.1-111.7-186.1-111.7l-20.6,35.2c0,0,14.5,10.9,35.6,29.2
			c50.9,44.2,140.2,131.4,156.3,212.3L1447.2,442.7z"/>
		<g>
			<g>
				<path class="st9" d="M1557,878.5l33.1,21l-3.6,7.6l-14.5-5.9c0,0,0.6,92.3-15.1,99.8c-8.4,4-13.3-18.3-15.9-39.8
					c-2.3-18.5-3-36.3-3-36.3L1557,878.5z"/>
				<path class="st11" d="M1555.6,877.5c17.3,12.7-0.7,92.2-4.4,95.8c-4.9,4.8-10.3-12-10.3-12c-2.3-18.5-4.5-37.1-4.5-37.1
					L1555.6,877.5z"/>
			</g>
			<polygon class="st11" points="1555.6,877.5 1507.5,850.7 1472.7,890.9 1536.3,924.1 			"/>
		</g>
		<g>
			<g>
				<path class="st9" d="M1318.9,1152.2l-15.3,36.5l-7.9-2.5l3.5-15.5c0,0-89.7,14.8-99.4,0.2c-5.2-7.9,15.8-16.2,36.2-22.1
					c17.6-5.2,34.9-8.6,34.9-8.6L1318.9,1152.2z"/>
				<path class="st11" d="M1319.7,1150.6c-9.7,19.3-89.8,13.5-93.9,10.4c-5.5-4.1,10.1-12.2,10.1-12.2c17.6-5.2,35.4-10.3,35.4-10.3
					L1319.7,1150.6z"/>
			</g>
			<polygon class="st11" points="1319.7,1150.6 1338.3,1098.3 1293.9,1069.4 1271.4,1138.5 			"/>
		</g>
		<path class="st1" d="M1531.7,689.9c0,0-41.5,150.1-194.9,442.3l-64.2-29.4c0,0,48.7-470,103.8-477.3
			C1431.6,618.1,1531.7,689.9,1531.7,689.9z"/>
		<path class="st1" d="M1341.3,602.1c0,0-155.1-4.1-178.1,55.4c-17,44-0.4,124.6,326.9,246.9l44.6-49.4l-114.3-89
			c0,0,103.2-116.4,40.9-165.8C1399.1,550.7,1341.3,602.1,1341.3,602.1z"/>
		<path class="st2" d="M1356.9,617.8c24.1,10.2,49.6,16.6,75.7,18.9c1.9,0.2,1.4,3.2-0.5,3c-26.3-2.3-52.1-8.8-76.4-19.1
			C1353.9,619.8,1355.2,617.1,1356.9,617.8z"/>
		<path class="st2" d="M1366.9,615c0.1-2,1.8-3.6,3.9-3.2c1.1,0.2,1.9,1,2.4,1.9c0.7,0.2,1.1,1,1,1.7c-0.2,1.9-2,3.4-3.8,3.5
			C1368.2,618.8,1366.7,617,1366.9,615z"/>
		<path class="st3" d="M1394.3,390.4c0,0-53.7,46.9-72.4,102.7l28,46.6l65.5-61l26.2-46.1L1394.3,390.4z"/>
		<path class="st2" d="M1421.3,396.2L1421.3,396.2c0.8,0.6,1.5,1.1,2.2,1.6c1.2,0.9,2.3,1.7,3.4,2.4c2.4,1.6,4.6,3,7,4.4
			c1,0.6,2,1.2,3.1,1.8c1.1,0.7,2.3,1.4,3.5,2.1c0.5,0.3,0.9,0.6,1.4,0.9c0.8,0.5,1.6,1.1,2.3,1.7c4.8,3.7,8.8,8.8,7.5,14.7
			c-0.6,2.7,0.4,4.9,2.1,6.4c-0.8,3-1.8,6.1-2.8,9.2c-0.3,1-0.6,2-0.9,2.9c-6.7,2.6-13.6,2.5-20.3-0.2c-1.5-0.6-2.4,0.9-2.1,2.2
			c0.1,0.6,0.5,1.2,1.2,1.5c6.4,2.6,13.3,2.9,19.9,1c-1.2,4.1-2.2,8.2-2.7,12.2c-0.7,5.4-0.5,10.9,1.2,16.3c0.2,0.6,0.4,1.1,0.6,1.6
			c0.1,0.2,0.1,0.3,0.2,0.5c0.3,0.8,0.7,1.5,1.1,2.2c4.5,8-4.4,23.9,4.2,21.6c0.5-0.1,8.6,2.6,9.1,2.4c-0.8,1.9,2.1-0.8,1.3,1.3
			c-5.5,15.3-1.6,26.3,10.2,37.2c5.7,5.2,13.5,6.8,20.3,2.8c4.7-2.8,10.5-8.9,14.6-1.4c2,3.6,2.5,7.7,4.4,11.3
			c0.3,0.5,0.6,1,0.9,1.5c1.2,1.7,2.6,3.3,4.2,4.6c8.8,7.6,22.6,8.9,32.7,3.5c22.6-12.1,23.6-27.5,23.7-27.8
			c0.4-0.8,1.2-0.7,2.2-0.3c24.3,8.1,35-23.4,31.2-37.7c-2.2-8.5-7.7-15.8-13.7-22c-3.3-3.4-7.9-6.8-8.6-11.9s3.5-9.9,4.8-14.7
			c3.9-14.6-3.7-30.7-17.7-36.1c-6.8-2.6-14.5-2.7-21.3-0.2c-8.9,3.3-15.4,12.4-25.3,13.9c-8.4,1.3-4.1-8.9-2.8-17.2
			c1.1-6.9-0.3-13.5-5.7-18.1c-9-7.6-16.9-4.2-25.6-2.6c-3.7,0.7-7.5,0.4-11-0.7c3.7-1.9,7-4.7,9.5-8.3c3.9-5.5,6.8-14.8,2.7-21
			c-4.8-7.1-13.8-3.1-18.6,1.7c-3.8,3.8-6.5,8.5-8.1,13.5c-0.5,1.5-0.9,3.1-1.1,4.7c-3.2-1.8-6.4-3-9.6-3.9
			c-0.5-0.1-0.9-0.2-1.4-0.4c-5-1.2-9.8-1.3-14.2-0.7C1424.3,379,1414.3,391,1421.3,396.2z"/>
		<path class="st11" d="M1422.4,437.1c0,0,113.3,72.9,124,200c7.9,93.4-50.4,180.1-138.9,206.7c-20.7,6.2-42.9,9-65.3,5.5l13.4-49.3
			c0,0,148.3-58.1,70.5-213.2L1422.4,437.1z"/>
		<path class="st3" d="M1341.3,602.1c-2-5.5-47.7-55.2-0.7-113.1c35.9-44.2,110.9-41.1,110.9-41.1s65.7,60,85.2,139.9l-96.4,34.9
			L1341.3,602.1z"/>
		<path class="st2" d="M1438,515.7c6.9-13.3,19.4-22.6,33.9-25.2c1.9-0.3,2.1,2.7,0.3,3c-13.4,2.4-25.2,11.2-31.5,23.5
			C1439.8,518.7,1437.1,517.4,1438,515.7z"/>
		<path class="st2" d="M1431.9,538.5c0.5-1.9,3.4-1.4,2.9,0.6c-1.8,7.4-2.2,14.8-1,22.3c0.3,1.9-2.7,2.2-3,0.3
			C1429.7,553.9,1430,546.1,1431.9,538.5z"/>
		<path class="st2" d="M1325.2,522.5c5.3-14.2,16.2-25.3,26.6-35.8c1.4-1.4,3.5,0.8,2.1,2.2c-9.8,9.9-20.1,20.3-25.4,33.6
			c-6.1,15.3-2.2,30.9,4,45.5c0.8,1.8-1.9,3.3-2.6,1.5C1323.5,554.4,1319.2,538.3,1325.2,522.5z"/>
		<path class="st2" d="M1521.5,716.6c3.9-0.1,6.8-3.8,6.2-7.6c-0.3-1.9,2.7-2.2,3-0.3c0.9,5.4-3.5,10.8-8.9,10.9
			C1519.9,719.7,1519.6,716.6,1521.5,716.6z"/>
		<path class="st2" d="M1182.7,670.3c4.1,3.9,11.3,3.2,14.3-1.8c1-1.7,3.7-0.4,2.7,1.3c-3.9,6.6-13.3,8.2-18.9,2.9
			C1179.3,671.3,1181.3,669,1182.7,670.3z"/>
		<g>
			<path class="st11" d="M1417.2,400.3c18.3-23.2,56.1-2.3,48.7,25.8c0.3,0.2,0.7,0.3,1,0.5c3.7,2.1,6.7,6.1,6.8,10.5
				c0.2,5.1-3.2,9.4-7.8,11c-5.3,1.8-10.4-0.4-14.9-3.3c-5.5,3-11.9,4.2-18.3,3c-13.8-2.5-26.1-16.4-24-30.5
				C1410.5,406.3,1415.6,402.4,1417.2,400.3z"/>
			<path class="st11" d="M1424.2,422.7l-8.5,45.8c4.4,9.2,19.7,11.2,29.4,11.5c4.4,0.1,8-3.6,7.8-8c-0.3-6.9-0.8-16.8-1.3-24.1
				c-0.1-1.4-0.2-2.7-0.3-3.9c-0.2-3-0.4-5.1-0.6-5.6L1424.2,422.7z"/>
			<path class="st2" d="M1426.9,412.4c2.7-1.9,4.9-4.3,6.5-7.2c1.1-2.1,4.6-0.7,3.5,1.4c-1.9,3.5-4.4,6.5-7.7,8.8
				C1427.2,416.8,1424.9,413.8,1426.9,412.4z"/>
			<path class="st2" d="M1442.6,409.6c3,1,1.8,5.9-1.2,4.9S1439.6,408.6,1442.6,409.6z"/>
			<path class="st2" d="M1426.4,402.1c1.2,0.4,2.3,1.7,1.8,3.1l-0.1,0.3c-0.4,1.3-1.7,2.2-3,1.8c-1.2-0.4-2.2-1.7-1.8-3.1l0.1-0.3
				C1423.8,402.7,1425,401.7,1426.4,402.1z"/>
			<path class="st2" d="M1444.6,405.8c0.6-0.9,1.6-1.2,2.5-0.7c1.5,0.7,2.6,2.1,3.1,3.7c0.3,1-0.3,2.1-1.3,2.3c-1,0.3-2-0.3-2.3-1.3
				c0-0.1-0.1-0.2-0.1-0.3c0,0,0,0-0.1-0.1s-0.1-0.2-0.2-0.3c0.1,0.1,0.1,0.1,0-0.1c0,0-0.3-0.3-0.4-0.4c-0.2-0.1-0.4-0.2-0.6-0.3
				C1444.4,407.9,1444.1,406.6,1444.6,405.8z"/>
			<path class="st2" d="M1423.9,397.3c1.7-1.1,3.9-1.3,5.7-0.7c0.9,0.3,1.6,1.2,1.4,2.3c-0.2,0.9-1.3,1.7-2.3,1.4
				c-1.1-0.4-2-0.3-3,0.3C1423.7,401.9,1421.9,398.6,1423.9,397.3z"/>
			<path class="st2" d="M1420.1,420.1c2.2,4.1,6.3,6.3,10.9,5.9c2.4-0.2,2.4,3.6,0,3.8c-5.9,0.5-11.4-2.6-14.2-7.8
				C1415.7,419.9,1418.9,418,1420.1,420.1z"/>
			<path class="st2" d="M1461.7,430.8c2.4,0,4.8,1.4,5.7,3.7c1,2.3,0.4,4.9-1.2,6.8c-1.6,1.8-4.3-0.9-2.6-2.7c1.4-1.6,0.3-4-1.8-4
				C1459.4,434.6,1459.3,430.8,1461.7,430.8z"/>
			<path class="st2" d="M1444.3,384.3c1.1-1.7,3.7-0.1,2.7,1.7c-0.4,0.6-0.6,1.2-0.7,1.7c0.7-0.3,1.5-0.2,2.1,0.6s1.1,1.7,1.7,2.5
				c0.4-0.2,0.9-0.2,1.4,0.1c0.5-0.2,1.1-0.1,1.5,0.4l6.5,7.5c0.5,0.6,1,1.2,1.6,1.8c0.7-0.5,1.7-0.5,2.3,0.4c1.6,2.5,2.7,5.2,3.5,8
				c0.2,0.2,0.4,0.4,0.6,0.6c1.9,2.5,2.9,8.9,1.2,12.2c0.3,0.3,0.6,0.6,0.6,1.2c1.5,0.2,1.9,2.7,0.1,3.1
				c-10.6,2.6-11.8-10.1-13.6-17.3c-1.7-6.7-7.1-8.6-10.7-13.8C1442.9,391.7,1442.2,387.8,1444.3,384.3z"/>
			<path class="st10" d="M1445.7,375.7c0.4,0.1,0.7,0.2,1.2,0.4c-1.3-4.9-0.6-10.2,2-14.7c0.6-1.1,2.1-1.1,2.7,0
				c2.8,5.4,3.7,11.2,2.8,17.1c6-2.5,12.7-2.3,18.7,0.7c0.8,0.4,0.9,1.5,0.5,2.2c-2.8,4.6-7.2,5.6-11.6,5.1
				c9.8,10.8,13.3,26.8,8.9,41.5c0,0.2-0.5,0.6-1.1,0.7c-0.7-0.7-1.2-1.1-2.3-1.8c0.5-15.4-4.7-30.1-14.6-41.6
				c-1.1,0.4-2.4,0.2-3.3-0.5c-1-0.9-1.5-2.3-1.1-3.6c-1.7-1.8-5.6-4-8.1-4.3c-0.1,0,0.2-0.2,0.7-0.5
				C1442.5,375.5,1444.1,375.3,1445.7,375.7z"/>
			<path class="st2" d="M1432.8,445c5.9,1.2,11.8,1.1,17.6-0.3c1.9-0.4,2.7,2.5,0.8,2.9c-6.3,1.5-12.8,1.6-19.1,0.3
				C1430.2,447.6,1430.9,444.6,1432.8,445z"/>
		</g>
		<path class="st2" d="M1355.5,661.2c-19.5,38.3-33,79.5-39.8,122.1c-0.4,2.4,3.3,3.6,3.7,1.1c6.8-42.2,20-83.1,39.4-121.1
			C1359.9,661,1356.6,659,1355.5,661.2z"/>
		<path class="st2" d="M1312.4,797.6c-0.6,4.7-1.2,9.3-1.8,14c-0.3,2.5,3.5,2.6,3.8,0.1c0.6-4.7,1.2-9.3,1.8-14
			C1316.5,795.2,1312.7,795.1,1312.4,797.6z"/>
	</g>
	<g>
		<g>
			<path class="st12" d="M1134.3,788.2c-2.1,16.8-6.1,33.5-11.6,50c-18.8,56.8-53.2,107.1-96.9,146.7c-8.5,7.8-17.4,15.1-26.7,22.1
				c-61.4,46.1-138.2,72.2-214.4,71.4c-75.2-0.8-146.5-29.6-205.2-77.2c-112.4-91.4-169-251.4-131.3-394.8
				c11.7-44.5,32.9-86.1,61.3-121.6c13.9-17.4,29.5-33.4,46.5-47.7c1.3-1.1,2.6-2.2,3.9-3.2l0,0c25.1-20.4,52.7-36.8,82.7-48.5
				c15.2-5.9,30.9-10.5,46.9-13.6c7.4-1.4,15.1-3,22.7-3.6c0.7-0.3,1.5-0.6,2.4-0.7c18.9-3.7,37.9-6.6,57-8.4
				c49.8-4.8,111.3,1.6,164.7,20.7c27.5,9.8,52.9,23.1,73.5,39.9c22.3,18.2,112.8,99.8,126.8,259.1
				C1139.8,711.7,1139.4,748.2,1134.3,788.2z"/>
			<path class="st13" d="M678.7,506.7c-2.2,9-4.8,18.3-10.4,25.8c-4.8,6.4-11.5,10.1-18.8,13.3c-16.4,7.1-30.7,16.7-42,30.7
				c-5.5,6.8-10.1,14.5-13.6,22.5c-3.4,7.8-4.7,16-7.3,24c-4.5,13.8-15.8,21.3-30.1,15.6c-5.8-2.3-16-10.7-22.2-5.7
				c-7.4,6-1.9,17.1,2.5,23c10.3,13.8,27.9,26.2,22,45.9c-2.9,9.6-13.1,16.1-22.3,13.7c-6,0-12.1-2.1-17.2-6
				c-8.1-6.3-12.4-15.6-16.8-24.7c-4.9-10.3-9.7-20.7-14-31.3c-8.6-21.3-15.1-44.6-13.6-67.7c1.4-21.9,11.1-41.1,20.5-60.6
				c4.6-9.5,8.9-19.1,11.9-29.1c1.1-3.7,2-7.5,2.2-11.3c13.9-17.4,29.5-33.4,46.5-47.7c1.3-1.1,2.6-2.2,3.9-3.2l0,0
				c6.5,0.6,13.1,1.2,19.7,0.9c19.3-1,35.3-12.8,52.6-19.9c12.2-5,31.8-10.8,41.9,1.6c11.7,14.3-5.9,26.1-17.9,30.4
				c-9.9,3.5-21.6,5.6-29.2,13.4c-4.4,4.5-8.4,15.9,0.1,19.2c6.2,2.4,13.3-6.2,17.7-9.3c5.5-3.9,12.1-6.4,18.9-4.7
				C682.8,470.1,682.4,491.9,678.7,506.7z"/>
			<path class="st13" d="M775.9,377.3c-12.8-5.2-29.3-3.9-42.8-2.7c-11.5,1-23,3.2-34.3,6.3c-5,1.2-9.8,2.7-14.1,4.2
				c-0.2,0.1-0.4,0.2-0.6,0.3c-0.3,0.1-0.6,0.2-0.9,0.5c0,0,0,0.1-0.1,0.1c-0.9,0.7-1.5,1.7-1.8,2.7c-1.8,4.8,4.5,8.4,9.1,10.2
				c12.1,4.6,15.8,17.3,16.1,29.1c0.4,12.3-1.1,25.4,4.3,36.9c3.7,8,12.4,15.7,21.9,12.1c10-3.8,11.5-17.8,16.1-26.1
				c6.3-11.4,15-20.3,25.5-27.9c7.6-5.6,16.2-12.1,17.3-22.2C793,390.1,785.5,381.2,775.9,377.3z"/>
			<path class="st13" d="M1136.9,678.6c-6.6,7-12.5,13.7-13.7,18.5c-4.1,16.1-20.6,21.5-33.8,11.7c-14.8-10.8-12.2-30.7-18.4-46
				c-4.8-11.8-13.3-21.7-23.8-28.7c0.9,3.7,1.2,7.5,1.3,11.4c0,14.6-5.9,28.5-5.5,43.1c0.2,7.5,2,14.9,1.9,22.4
				c-0.1,7.2-1.5,14.4-3.2,21.4c-6.6,27.9-11.6,55.9-16.7,84.1c-4.9,27.3-11.9,44.5-23.7,69.7c-9.9,21.3-24.8,55.9-50.9,57.5
				c-23.9,1.4-40.3-18.8-33.7-41.6c3.5-12.1,11.3-21.8,19.1-31.5c8.6-10.7,18.2-23.4,13.7-37.8c-3.7-12-13.1-21.4-17.7-33.1
				c-5.2-13.3-3.5-27.7-6.4-41.4c-2.6-12-9.1-22-22.2-23.2c-10.3-0.9-20.8,1.9-31,3.3c-9.8,1.3-20.2,1.7-29.2-3
				c-9.9-5.1-15.5-15.1-17.7-25.7c-5-24.3-2-53.1,8.5-75.7c9.9-21.4,30.2-38.6,54.2-41.5c12.5-1.5,24,1.9,35,7.5
				c11.5,5.9,29.4,18.8,42.7,10.5c4.2-2.7,8.2-9.4,5.7-14.3c-2.4-4.7-8.2-6.4-10.4-11.6c-5.1-11.9,3.8-21.4,8.6-31.4
				c0.9-1.8,3.6-11.8-1.5-10.9c-0.8,1.9-1.6,3.9-2.8,5.6c-1,1.5-2.1,2.8-3.3,4.1c-1.9,2.9-4.3,5.4-7.6,7.1
				c-9.1,4.8-20.4,1.7-29.1-2.5c-6.4-3.1-12.8-7.9-20.1-8.5c-7.7-0.7-12.5,4.7-16.1,10.7c-6,10.2-9.7,22.9-21.2,28.5
				c-8,3.9-19.2,3.3-25-4.1c-7.3-9.3-2-22.6,1.8-32.2c8.9-22.8,24.8-41.7,45.7-54.5c5.1-3.1,15.1-7.3,15.2-14.3
				c0.2-8.9-7.2-2.7-11.4-0.9c-8.2,3.5-18.1,2.5-25.8-1.8c-17.6-9.8-17-34.4-1.2-45.8c10.7-7.8,21.3-3.9,33.2-2.2
				c8.7,1.3,17-2.2,22.8-8.3c0-0.2-0.1-0.4-0.1-0.6c-0.7-5.4,6.2-26.4,13.4-43.2c27.5,9.8,52.9,23.1,73.5,39.9
				C1032.4,437.8,1123,519.4,1136.9,678.6z"/>
			<path class="st13" d="M1134.3,788.2c-2.3,16.8-6.1,33.5-11.6,50c-18.8,56.8-53.3,107.1-96.9,146.7c-2-6-2.5-13.7-2.3-17.8
				c0.7-14.8,6.2-29.2,15.8-40.5c10.3-12.2,25.6-18.5,29-35.4c1.7-8.2,2.8-15.7,8-22.5c4-5.2,12.2-7.6,13.5-14
				C1101.7,795.1,1127.2,785.2,1134.3,788.2z"/>
			<path class="st13" d="M741.7,796.7c-2-10.8-9.8-19.4-18.7-25.4c-12.9-8.6-26.1-14.3-36.2-26.7c-1.5-1.9-3-3.8-4.6-5.6
				c-2.8-4.5-6.2-8.5-10.5-11.9c-10.3-8.4-21.9-13.8-31.3-23.5c-8.6-9-17.7-18.5-30.6-20.5c-25.5-3.8-33.5,24.6-37.8,43.6
				c-5.1,22.4-8.2,47.4-4.6,70.6c-1.1,16.2,4.5,32.9,17.2,43.5c9.4,7.9,21.3,12.5,25.8,24.8c4,11.2,2.4,23.8,1.5,35.4
				c-2,25.5,0.5,51,8.5,75.3c6.3,19.2,15.6,45.6,37.4,51.6c1.1,0.3,2.3,0,3.3-0.5c1.1,0,2.4-0.5,2.6-1.7c2.4-12.6-1.8-23.3-4.6-35.4
				c-3.9-16.2,0-30.9,6.1-46c10.1-24.9,21-51.4,41.9-69.4c7.6-6.6,16.9-13.6,16.8-24.7c0-5.7-4.4-11.5-3.4-17
				c0.9-5,6.7-8.4,10.3-11.4C738.6,815.3,743.6,807.2,741.7,796.7z M580,822.6c0.3,0.1,0.6,0.2,0.8,0.3c0.6,1.1,1.2,2.2,1.9,3.2
				C581.7,824.9,580.8,823.8,580,822.6z M621.3,931.6c0.2,3.3,0.5,6.6,0.9,9.8C621.8,938.1,621.5,934.8,621.3,931.6z"/>
			<path class="st13" d="M1043.5,830.6c-5.4,18.7-16.5,22.3-21,37.2c-2.2,7.4,5.6,13.6,12,9.7c9-5.5,19-17.3,19.6-42.7
				C1054.3,828.9,1045.1,825,1043.5,830.6z"/>
		</g>
	</g>
	<g>
		<path class="st0" d="M1318.9,836.9c0,0,71-37.9,70.1,1.7c-1.3,55-119.1,230.3-229.7,296.6l-104.2-24.3l2.4-29.7
			c2.5-30.4,22.4-56.3,50.8-66.1C1152.9,1000,1238.4,948.7,1318.9,836.9z"/>
		<g>
			<path class="st0" d="M1341.6,1440.3c11,1.3-3-2.4,8-1.1c9,1.1,52.4,12.3,61.3,9.5c7-2.2,3.2-11.5,5.2-18.4
				c1.9-6.7,1.3-15.1,6.1-20.6c1.8-2.2,1.5-6.2-1.7-6.9c-12.4-2.7-33.8-9.4-46.1-12c-11.5-2.5-15.1-2.8-27-2.7
				c-2.8,0-4.5,4.4-1.6,5.7c0.3,0.1,0.6,0.3,0.9,0.4c-2.3,6.9-3.3,14.1-4.5,21.3c-0.9,5.2-3,11.5-2.6,17
				C1336.7,1434.1,1337.4,1439.8,1341.6,1440.3z"/>
			<path class="st1" d="M1417.9,1496.1c0.5,0.4,1.1,0.7,1.6,1c4.4,2.4,8.5,2.2,8.7,1.1l16.3-86.8c0.8-4.4-2.1-8.5-6.4-9.2l-4.2-0.7
				l-1.7-0.3l-12.1-2c-0.6-0.1-1.2-0.2-1.8-0.3c-17.2-1.3-17.4,10.2-17.4,10.2c-0.8,5,0.2,9.1,2.1,12.4c1.9,3.4,2.5,7.4,1.2,11.1
				c-1.1,3.2-2.6,6.8-5,10.3c-6.6,9.6,8.3,11.1,10,34.1c0,0.3,0,0.6,0.1,0.9c0,0.3,0,0.6,0.1,0.9
				C1409.9,1487.9,1413.9,1493.2,1417.9,1496.1z"/>
			<path class="st2" d="M1417.9,1496.1c0.5,0.4,1.1,0.7,1.6,1c0.3-1.5,0.6-2.9,0.9-4.3c1-4.8,2-9.6,3-14.4c0.2-0.2,0.3-0.6,0.2-0.9
				c1.8-9.4,3.4-18.8,4.8-28.2c1.5-9.7,2.7-19.5,3.7-29.3c0.6-6.1,1.3-12.3,1.8-18.5l-1.7-0.3c-0.5,6.3-1,12.5-1.7,18.8
				c-1.1,10-2.4,20-3.9,30c-1.4,9-2.9,17.9-4.6,26.8c-3.9-1-8.6-1-12.9,0.3c0,0.3,0,0.6,0.1,0.9c0,0.3,0,0.6,0.1,0.9
				c0.3-0.1,0.7-0.3,1.1-0.4c3.8-1.1,7.6-1.2,11.4-0.2c0,0.2-0.1,0.4-0.1,0.6c-1,5-2,10-3.1,14.9
				C1418.3,1494.5,1418.1,1495.3,1417.9,1496.1z"/>
			<path class="st2" d="M1390.8,1461c2.1,0.3,4.5-0.4,6.6-0.8c2.3-0.3,4.6-0.7,6.9-1c0,0.1,0,0.1,0.1,0.2c-0.4,0.6-0.8,1.2-0.9,1.9
				c-0.1,0.6,0.5,1,1,0.6c1.1-0.9,1.8-2.2,2.9-3.1c1.2-1,2.6-1.7,4-2.5c0.6-0.3,0.2-1.2-0.4-1.1c-0.8,0.2-1.7,0.5-2.6,1
				c1.3-2.3,2.2-4.8,2.6-7.4c0.3-2.6,0.1-7-3.7-6.2c-6,1.3-5.9,11.3-1.4,14.3c-0.1,0.1-0.1,0.2-0.2,0.2c-2.3-2.7-5.5-4.4-8.9-4.8
				c-3-0.4-7.6,0-9.1,3.1C1386.4,1458,1388,1460.6,1390.8,1461z M1408.6,1452c-0.5,1.3-1.1,2.5-1.8,3.7c-1.1-1.4-2.1-2.7-2.4-4.6
				c-0.3-2.1,0.3-5.8,2.7-6.7C1411.1,1443,1409.1,1450.6,1408.6,1452z M1390.7,1454.6c4.3-2.7,10-0.2,13.4,2.9
				c-2.4,0.4-4.7,0.7-7.1,1.1c-1.3,0.2-2.7,0.4-4,0.6c-0.9,0.2-1.8,0.2-2.8,0C1388.4,1457.5,1388.5,1455.9,1390.7,1454.6z"/>
			<path class="st2" d="M1406,1471c0.3-2.2,3.2-5.4,5.4-5.9c0.4-0.1,0.6,0.4,0.4,0.7c-0.7,1-1.9,1.7-2.7,2.6c-0.8,0.9-1.3,2.2-2.2,3
				C1406.4,1472,1405.9,1471.5,1406,1471z"/>
		</g>
		<g>
			<path class="st0" d="M1003.2,1582.6c0.1,11.3,2-3.4,2.1,7.9c0.1,9.2-5.6,54.4-1.7,63c3,6.8,11.6,1.8,18.6,2.9
				c6.8,1.1,14.9-0.5,20.9,3.6c2.3,1.6,6.2,0.7,6.5-2.6c1.1-12.8,5-35.2,6-48c1-11.9,0.8-15.6-0.7-27.5c-0.4-2.8-4.8-4-5.8-0.9
				c-0.1,0.3-0.2,0.7-0.3,1c-7-1.5-14.2-1.5-21.3-1.9c-5.2-0.3-11.6-1.6-17-0.5C1008.7,1576.9,1003.2,1578.3,1003.2,1582.6z"/>
			<path class="st1" d="M958.2,1666.4c-0.3,0.6-0.5,1.2-0.8,1.7c-1.8,4.7-1.1,8.8,0,8.9l86.8,5.7c4.4,0.3,8.1-3.2,8.2-7.6l0.1-4.3
				l0.1-1.8l0.4-12.4c0.1-0.6,0.1-1.2,0.1-1.9c-0.8-17.5-12.1-16.3-12.1-16.3c-5-0.2-8.9,1.3-11.9,3.6c-3.1,2.4-6.9,3.4-10.7,2.6
				c-3.3-0.7-7-1.8-10.7-3.8c-10.2-5.4-9.8,9.7-32.1,14.3c-0.3,0.1-0.6,0.1-0.9,0.2c-0.3,0.1-0.6,0.1-0.9,0.2
				C965.2,1657.4,960.5,1662,958.2,1666.4z"/>
			<path class="st2" d="M958.2,1666.4c-0.3,0.6-0.5,1.2-0.8,1.7c1.5,0.1,2.9,0.2,4.3,0.3c4.8,0.5,9.6,0.9,14.4,1.2
				c0.2,0.2,0.6,0.2,0.9,0.1c9.4,0.7,18.8,1.1,28.2,1.4c9.7,0.3,19.4,0.3,29.1,0.2c6.1-0.1,12.2-0.2,18.3-0.5l0.1-1.8
				c-6.2,0.2-12.4,0.5-18.5,0.6c-9.9,0.1-19.9,0.1-29.8-0.2c-8.9-0.3-17.9-0.7-26.8-1.4c0.5-4-0.1-8.8-1.9-13
				c-0.3,0.1-0.6,0.1-0.9,0.2c-0.3,0.1-0.6,0.1-0.9,0.2c0.2,0.3,0.3,0.7,0.5,1c1.6,3.6,2.1,7.6,1.6,11.5c-0.2,0-0.4,0-0.6,0
				c-5-0.4-10-0.8-14.9-1.3C959.7,1666.6,959,1666.5,958.2,1666.4z"/>
			<path class="st2" d="M989.1,1634.7c0,2.2,1,4.5,1.6,6.6c0.6,2.3,1.2,4.6,1.9,6.9c-0.1,0-0.1,0-0.2,0.1c-0.6-0.4-1.3-0.6-2-0.7
				c-0.6-0.1-0.9,0.7-0.5,1.1c1,1,2.4,1.6,3.4,2.6c1.2,1.1,2,2.4,2.9,3.7c0.4,0.6,1.2,0.1,1-0.6c-0.3-0.8-0.7-1.6-1.3-2.5
				c2.4,1.1,4.9,1.7,7.5,1.7s6.8-0.8,5.6-4.5c-2-5.9-11.7-4.6-14.1,0.4c-0.1,0-0.2-0.1-0.3-0.1c2.3-2.6,3.6-6.1,3.6-9.6
				c0-3.1-0.9-7.6-4.2-8.8C991.4,1630,989.1,1631.9,989.1,1634.7z M1000,1651.5c-1.3-0.3-2.6-0.8-3.8-1.4c1.2-1.3,2.4-2.5,4.2-3
				c2-0.6,5.7-0.4,6.8,1.9C1009.2,1653,1001.5,1651.9,1000,1651.5z M995.3,1633.8c3.1,4,1.4,10-1.2,13.9c-0.6-2.3-1.3-4.7-1.9-7
				c-0.4-1.3-0.8-2.6-1.1-4c-0.3-0.9-0.4-1.8-0.3-2.8C992.3,1631.9,993.8,1631.8,995.3,1633.8z"/>
			<path class="st2" d="M981.2,1651.3c2.2,0,5.7,2.6,6.4,4.7c0.1,0.4-0.3,0.7-0.6,0.5c-1.1-0.6-1.9-1.7-2.9-2.4s-2.3-1.1-3.2-1.9
				C980.3,1651.9,980.7,1651.3,981.2,1651.3z"/>
		</g>
		<path class="st0" d="M1071.8,1041.3c-4.7,2.9-177.5,94.6-407.1,72.2l-3.7,47.4c0,0,196.4,112.5,407.3,13.9L1071.8,1041.3z"/>
		<g>
			<g>
				<path class="st2" d="M1050.5,983.2c0.1,1.2,0.9,2.4,2.4,2.4c15.7,0.1,31.2,1.9,46.5,5.5c0.9,0.2,1.7,0,2.2-0.5
					c1.2,0,2.5-0.9,2.6-2.5c1.3-25.1-6.3-50.3-21.8-70c-4.8-6.1-12.4-15.2-20.6-9c-7.8,5.9-5.5,15.7-5,24.4c-4.3-2.4-9-4.3-14-3.2
					c-5.3,1.1-8.8,5.1-9.7,10.4c-1.2,6.6,1.5,13.6,3.9,19.6C1040.4,968.6,1045,976.2,1050.5,983.2z"/>
				<path class="st0" d="M1036.5,975.5c7.7-31.4,54.6-28.4,59.9,2.9c0.4,0,0.8,0,1.2,0c4.6,0.3,9.4,2.9,11.5,7.2
					c2.5,4.9,1.1,10.8-2.8,14.5c-4.5,4.2-10.5,4.4-16.2,3.6c-4.1,5.5-9.9,9.7-16.8,11.5c-14.8,3.9-33.2-4.2-37.5-19.1
					C1032.6,984.5,1035.9,978.3,1036.5,975.5z"/>
				<path class="st0" d="M1065.7,1043.9c8.5,7.1,24.6,1.9,34.3-2.2c4.4-1.9,6.3-7.2,4.1-11.6c-3.5-6.8-8.6-16.8-12.4-23.8
					c-0.7-1.3-1.3-2.5-1.9-3.5c-1.5-2.7-2.5-4.5-2.9-4.9l-33.3-3.3L1065.7,1043.9z"/>
			</g>
			<path class="st2" d="M1047.5,982.7c2.9-1.5,4.8-4.4,5-7.7c0.2-2.6,4.2-2.7,4.1,0c-0.3,4.8-2.8,9-7,11.3
				C1047.3,987.5,1045.2,983.9,1047.5,982.7z"/>
			<path class="st2" d="M1064.5,978c3.1-1.6,5.9,3.1,2.8,4.7S1061.4,979.6,1064.5,978z"/>
			<path class="st2" d="M1043.5,974c3.1-1.6,5.9,3.1,2.8,4.7S1040.4,975.6,1043.5,974z"/>
			<path class="st2" d="M1070.1,969.6c2.4,1.2,4.5,3.1,5.8,5.5c1.3,2.3-2.2,4.4-3.5,2.1c-1.1-1.8-2.5-3.1-4.3-4
				C1065.7,972,1067.7,968.4,1070.1,969.6z"/>
			<path class="st2" d="M1042.1,965.9c2.4-2.2,5.7-3.1,8.8-2.1c2.5,0.8,1.5,4.8-1,4c-1.7-0.5-3.5-0.3-4.9,1
				C1043.1,970.6,1040.1,967.7,1042.1,965.9z"/>
			<path class="st2" d="M1044.4,992.1c4.4,4.2,11,4.6,16,1.2c2.2-1.5,4.3,2.1,2.1,3.5c-6.5,4.4-15.2,3.6-20.9-1.7
				C1039.6,993.2,1042.4,990.3,1044.4,992.1z"/>
			<path class="st2" d="M1071.4,1018.4c7.8-2.1,14.6-6.2,20.2-12.2c-0.7-1.3-1.3-2.5-1.9-3.5c-0.3,0.1-0.7,0.3-1,0.6
				c-5.1,5.5-11.3,9.1-18.4,11.1C1067.8,1015.1,1068.9,1019.1,1071.4,1018.4z"/>
			<path class="st2" d="M1095,984.9c2.9-1.8,6.8-1.3,9.1,1.4c2.3,2.8,2,6.6-0.1,9.3c-1.6,2.1-4.5-0.8-2.9-2.9
				c2.1-2.7-1.2-5.9-3.9-4.3C1094.9,989.8,1092.8,986.2,1095,984.9z"/>
		</g>
		<path class="st3" d="M1062.3,1032.8c0,0,21.5,0.7,37-17.1l42-28.7c0,0,73.6,9.6,80.1,107.8l-36.7,28c0,0,19,37.7-24.4,64.9
			c-25.4,15.9-61.9,21.9-77.7,25.9c-24.7,6.3-38.7,1.6-46.7-23c-0.1-0.4-0.3-0.9-0.4-1.3l-41,18.6c0,0-52.5-83.1-34.8-124.4
			L1062.3,1032.8z"/>
		<path class="st5" d="M1180.5,1169.1c0,0,58.2,63.8,46,164.5c0,0,151.7,44.3,150.9,50.3c-0.8,6-22.6,69-22.6,69
			s-165.4-25.1-191.3-39.3c-25.9-14.2-28-82.2-28-82.2s-50,116.7-66.6,288.6l-74.8-2.9c0,0-18.9-264.3,59-403.3L1180.5,1169.1z"/>
		<path class="st2" d="M1028.6,1054.1c-5.2,17.8-5.5,36.6-0.7,54.5c0.5,1.9,3.5,1.5,3-0.4c-4.7-17.3-4.6-35.7,0.5-52.9
			C1031.9,1053.4,1029.1,1052.2,1028.6,1054.1z"/>
		<path class="st2" d="M1165.9,1063.1c-8-20.5-22.7-37.9-41.4-49c-1.6-1-3.5,1.4-1.8,2.4c18.3,10.9,32.7,27.7,40.5,47.8
			C1163.9,1066.2,1166.7,1065,1165.9,1063.1z"/>
		<path class="st2" d="M1165.7,1288.8c3.7-14.2,2-29.2-4.8-42.2c-0.9-1.7,1.9-2.9,2.8-1.2c7,13.4,8.8,29.1,5,43.8
			C1168.2,1291.1,1165.3,1290.7,1165.7,1288.8z"/>
		<path class="st2" d="M1191.9,1355.1c6.1-7.1,13.2-12.9,21.4-17.3c1.7-0.9,2.9,1.9,1.2,2.8c-7.7,4.2-14.5,9.7-20.2,16.4
			C1193,1358.4,1190.6,1356.6,1191.9,1355.1z"/>
		<path class="st2" d="M1064.8,1448.3c6.8-2.4,13.8-2.5,20.6-0.2c1.8,0.6,0.7,3.4-1.1,2.8c-6-2-12.3-2-18.3,0.2
			C1064.1,1451.7,1063,1448.9,1064.8,1448.3z"/>
	</g>
	<g>
		<path class="st4" d="M406.1,1354.1c0,0,32.8,68.8,21.4,98.9c-11.4,30.1-83.8,83.8-83.8,83.8l-43.3-47.4l36.4-83.1L406.1,1354.1z"
			/>
		<path class="st4" d="M302.2,1276.5c-3.6,6.8-99.3,297.2-99.3,297.2l-54.2-11l31.6-279.5L302.2,1276.5z"/>
		<path class="st3" d="M348.8,1140.8c0,0,106,155.8,102.7,300.5c0,0-41.5-13.5-141.5,3.7s-184.7-57.7-195-86.1
			c-10.4-28.4,134.9-257.3,134.9-257.3L348.8,1140.8z"/>
		<g>
			<path class="st5" d="M364.2,1580.2c-0.2,0.8-0.4,1.5-0.6,2.2c-1.9,5.7-5.7,9-6.7,8.2l-84.2-63c-4.2-3.2-5-9.3-1.8-13.5l3.1-4
				l1.3-1.7l9.1-11.8c0.4-0.6,0.8-1.2,1.4-1.8c14.1-15.5,23.6-5.5,23.6-5.5c4.8,3.7,7.2,8.2,8.2,12.6c1,4.6,3.8,8.6,7.9,10.8
				c3.5,2,7.8,3.8,12.7,4.9c13.5,3,1.7,16.7,18.7,38.3c0.2,0.3,0.4,0.6,0.7,0.8c0.2,0.3,0.5,0.6,0.7,0.9
				C364.7,1566.4,365.5,1574.3,364.2,1580.2z"/>
			<path class="st6" d="M364.2,1580.2c-0.2,0.8-0.4,1.5-0.6,2.2c-1.4-1-2.8-2.1-4.2-3.1c-4.8-3.4-9.5-6.8-14.2-10.2
				c-0.4,0-0.7-0.3-0.8-0.6c-9.1-6.8-18.1-13.7-27-20.9c-9.1-7.4-18.1-14.9-26.9-22.7c-5.5-4.9-11.1-9.8-16.5-14.8l1.3-1.7
				c5.5,5.1,11,10.2,16.6,15.1c9,7.9,18.2,15.7,27.6,23.2c8.4,6.8,17,13.4,25.7,19.8c2.6-4.1,6.8-8,11.6-10.5
				c0.2,0.3,0.4,0.6,0.7,0.8c0.2,0.3,0.5,0.6,0.7,0.9c-0.4,0.2-0.8,0.4-1.2,0.6c-4.2,2.1-7.7,5.3-10.2,9.3c0.2,0.2,0.4,0.3,0.6,0.5
				c4.9,3.6,9.8,7.1,14.7,10.6C362.6,1579.2,363.4,1579.7,364.2,1580.2z"/>
			<path class="st6" d="M358,1519.2c-3.9-1.5-8.2,1.9-10.6,4.8c-2.7,3.3-4.1,7.5-4,11.7c-0.1,0-0.2-0.1-0.3-0.1
				c1.6-6.4-6.3-15.3-12.7-11.5c-3.9,2.4-0.7,6.4,1.7,8.5c2.4,2,5.2,3.5,8.2,4.4c-1.1,0.3-2.2,0.8-3,1.3c-0.7,0.4-0.3,1.6,0.5,1.3
				c1.8-0.5,3.6-1.1,5.5-1.2c1.7-0.1,3.4,0.5,5.1,0.3c0.7-0.1,1-0.9,0.4-1.3c-0.7-0.5-1.5-0.7-2.4-0.9c0-0.1-0.1-0.2-0.1-0.2
				c2.3-1.6,4.6-3.2,6.9-4.8c2.1-1.5,4.8-2.8,6.4-4.8C362,1524.1,361.3,1520.5,358,1519.2z M332.2,1525.6c2.8-1.2,6.3,1.5,7.7,3.7
				c1.3,1.9,1.5,3.9,1.6,6.1c-1.6-0.4-3.1-0.9-4.5-1.7C335.4,1532.7,327.4,1527.7,332.2,1525.6z M358.9,1524.7
				c-0.7,0.9-1.5,1.7-2.4,2.3c-1.3,1-2.7,1.9-4,2.8c-2.4,1.6-4.7,3.3-7.1,4.9c0.5-5.6,3.6-12.6,9.5-13.8
				C357.8,1520.3,359.1,1521.6,358.9,1524.7z"/>
			<path class="st6" d="M354.6,1548.2c-2.1-1.7-7.2-2.1-9.5-0.7c-0.5,0.3-0.3,0.9,0.2,1c1.5,0.3,3-0.1,4.5,0.1
				c1.5,0.1,2.9,0.8,4.4,0.8C354.9,1549.4,355,1548.6,354.6,1548.2z"/>
		</g>
		<g>
			<path class="st5" d="M241.1,1596c0.2,0.8,0.4,1.5,0.5,2.2c1,6-0.6,10.6-1.7,10.5l-94.2-14.3c-4.7-0.7-8-5.7-7.3-10.9l0.7-5.1
				l0.3-2.1l2-14.8c0-0.7,0.1-1.4,0.3-2.2c4.4-20.4,16.3-16.3,16.3-16.3c5.4,0.9,9.2,3.7,12,7.1c2.8,3.5,6.8,5.7,11,5.7
				c3.7,0,7.9-0.5,12.2-1.9c12.1-3.9,8.6,13.8,31.5,24.6c0.3,0.1,0.6,0.3,0.9,0.4c0.3,0.1,0.6,0.3,0.9,0.4
				C235.5,1583.6,239.6,1590.2,241.1,1596z"/>
			<path class="st6" d="M241.1,1596c0.2,0.8,0.4,1.5,0.5,2.2c-1.6-0.2-3.2-0.5-4.7-0.6c-5.2-0.6-10.5-1.3-15.7-2.1
				c-0.3,0.2-0.7,0.1-0.9-0.1c-10.2-1.5-20.4-3.2-30.5-5.2c-10.4-2-20.8-4.3-31.2-6.8c-6.5-1.6-13.1-3.2-19.5-5l0.3-2.1
				c6.6,1.8,13.1,3.6,19.7,5.2c10.6,2.6,21.3,4.9,32,6.9c9.6,1.8,19.3,3.4,29,4.8c0.3-4.9,1.9-10.4,4.6-14.8
				c0.3,0.1,0.6,0.3,0.9,0.4c0.3,0.1,0.6,0.3,0.9,0.4c-0.3,0.4-0.5,0.7-0.7,1.1c-2.4,3.9-3.7,8.4-4,13.1c0.2,0,0.4,0.1,0.7,0.1
				c5.4,0.8,10.9,1.5,16.3,2.1C239.4,1595.8,240.3,1595.9,241.1,1596z"/>
			<path class="st6" d="M209.6,1545.5c-3.8,0.6-5.7,5.7-6.3,9.4c-0.7,4.2,0,8.6,2,12.2c-0.1,0-0.2,0.1-0.3,0.1
				c-1.5-6.4-11.7-10.3-15-3.9c-2.1,4,2.3,6,5.1,6.6s5.7,0.5,8.4-0.2c-0.8,0.8-1.4,1.7-1.8,2.6c-0.4,0.7,0.5,1.5,1,0.9
				c1.2-1.4,2.4-2.7,3.9-3.7c1.3-0.9,2.9-1.3,4.2-2.2c0.5-0.4,0.4-1.3-0.3-1.4c-0.7-0.1-1.5,0.1-2.3,0.4c-0.1-0.1-0.1-0.1-0.2-0.1
				c1.1-2.5,2.3-5.1,3.4-7.6c1-2.3,2.5-4.8,3-7.4C214.9,1547.8,212.8,1545,209.6,1545.5z M191.9,1563.7c1.6-2.4,5.6-1.7,7.7-0.5
				c1.8,1,2.9,2.7,3.9,4.5c-1.4,0.4-2.8,0.7-4.3,0.7C197.6,1568.4,189.1,1567.8,191.9,1563.7z M212.7,1549.9
				c-0.1,1.1-0.4,2.2-0.9,3.2c-0.6,1.5-1.3,2.9-2,4.4c-1.2,2.6-2.3,5.2-3.5,7.8c-2-5.2-2.6-12.8,1.5-16.7
				C209.9,1546.6,211.5,1547,212.7,1549.9z"/>
			<path class="st6" d="M219.5,1572.6c-2.4-0.5-6.6,1.6-7.8,4c-0.2,0.5,0.2,0.9,0.6,0.7c1.3-0.5,2.4-1.5,3.6-2.1
				c1.2-0.6,2.7-0.7,3.9-1.4C220.3,1573.5,220.1,1572.7,219.5,1572.6z"/>
		</g>
		<g>
			<path class="st4" d="M406.1,933.4c0-1.6,0-3.2-0.2-4.8c-0.3-3.4-1.1-6.8-2.3-10c-0.4-1.1-0.8-2.1-1.3-3.2
				c-1.5-3.4-3.5-6.7-5.8-9.6c-7.4-9.4-18.3-15.6-30-14.9c-1.2-0.5-2.7-0.6-4.2-0.2c-17.1,4.9-29.7,21.6-29.6,39.7
				c0.1,6.8,2.2,13.5,5.7,19.4c-0.5,0.8-0.9,1.6-1.3,2.4c-4,7.5-7.5,15.3-10.2,23.4c-1,3-2.2,6.3-3.1,9.7c-1,3.6-1.5,7.3-1,10.8
				c1.1,6.7,6.2,10.1,12,12.3c3.8,1.4,7.6,2.8,11.4,4.2c0.9,0.3,1.8,0.7,2.8,1.1c1.3,0.5,2.7,1,4.1,1.1c0.8,0.1,1.6,0.1,2.4,0
				c7.8-1.2,7.8-9.2,7.8-15.5c0-1.4,0-2.7,0.1-4.1c0.4-8.2,2.2-16.2,4.9-23.9c0.4-1.1,0.8-2.1,1.2-3.2l0,0c11,0.1,21.7-5,28.9-13.8
				c0.8-1,1.6-2,2.2-3.1c0.7-1.1,1.4-2.2,1.9-3.3C404.8,943.4,406,938.4,406.1,933.4z"/>
			<path class="st6" d="M396.5,905.8c-0.2-2-0.7-4-1.7-6c-3.5-7.3-10.8-11.6-18.5-12.8c-9.5-1.5-19.1,0.3-27.5,4.6
				c-0.6,0.1-1.1,0.2-1.7,0.5c-0.6,0.3-1.2,0.5-1.8,0.8c-3.2-12.2-9.5-23.4-18.6-32.3c-5.6-5.6-13-11.3-20.9-12.7
				c-8-1.4-15.4,2.5-19.8,9.2c-9.2,14.1-5.5,33.4,6.4,44.7c8.9,8.4,20.4,11.6,32.2,12.7c-2.3,5.5-3.3,11.4-2.6,17.5
				c0.8,6.9,3.8,13.8,9.6,17.8c1.7,1.2,3.5,2,5.4,2.6c3.3,1,6.8,1.1,10.2,0.7c2.4-0.3,4.7-0.8,7-1.5c4.9-1.5,9.6-3.6,14-6.2
				c9.3-5.4,17.4-13.2,23.1-22.2C394.7,917.8,397.1,911.8,396.5,905.8z"/>
			<path class="st4" d="M347.2,944.4c1.8-4.8,6.5-7.8,11.6-7.3c5.3,0.6,9.7,5.4,10,10.7c0.1,1.8-0.6,3.7-1.8,5
				c-0.2,1.7-1.1,3.3-2.6,4.5c-4,3.1-9.4,2.8-13.4,0.1C346.7,954.8,345.5,949.1,347.2,944.4z"/>
			<path class="st2" d="M354.9,965.3c4.2,2.8,8.6,4.8,13.3,6.2c0.4-1.1,0.8-2.1,1.2-3.2c-4.4-1.2-8.6-3.1-12.4-5.7
				C355.2,961.4,353.1,964.1,354.9,965.3z"/>
			<path class="st2" d="M404.4,925.3c0.7,3.2,3.2,5.8,6.3,6.6c2.1,0.5,1.6,3.9-0.5,3.4c-4.7-1.2-8.2-4.8-9.2-9.6
				C400.6,923.6,404,923.2,404.4,925.3z"/>
			<path class="st2" d="M397.7,929.8c2.9-0.2,3.5,4.3,0.6,4.5C395.4,934.5,394.8,930,397.7,929.8z"/>
			<path class="st2" d="M390.7,931.4c0.6-2.5,1.8-4.5,3.7-6.2c1.6-1.4,3.6,1.3,2,2.7c-1.2,1-2.1,2.4-2.4,4c-0.2,0.9-0.9,1.6-1.9,1.5
				C391.3,933.2,390.5,932.3,390.7,931.4z"/>
			<path class="st2" d="M395.8,948.3c1.2,1.7,3,2.7,4.8,3c0.7-1.1,1.3-2.2,1.9-3.3c-1.4,0.3-3-0.3-4-1.8
				C397.2,944.5,394.5,946.6,395.8,948.3z"/>
			<path class="st2" d="M399.8,918.4c0.4-1.5,1.6-2.6,3-3.2c0.8-0.3,1.8,0.1,2.2,0.9c0.3,0.8-0.1,1.9-0.9,2.2
				c-0.1,0-0.2,0.1-0.3,0.1l0,0c-0.1,0.1-0.2,0.1-0.3,0.2h-0.1l0,0c-0.1,0.1-0.1,0.2-0.2,0.3c0,0-0.1,0.1-0.1,0.2s-0.1,0.2-0.1,0.2
				c-0.1,0.1-0.1,0.3-0.1,0.4c-0.3,0.9-1.4,1.2-2.2,0.9C399.8,920.2,399.6,919.2,399.8,918.4z"/>
		</g>
		<g>
			<path class="st4" d="M726.8,1094.2c-12,3.9-24,7.8-36,11.7c-3.3,1.1-6.6,2-9.4,3.5c-4,1.9-7.2,4.7-8.9,9.8c-0.7,2-0.1,3.5,1,4.5
				c-0.2,9-7.3,9.6-7.5,18.6c-0.1,4.3,7.6,10.1,10.7,8.6c3.5,2.4,7,3.9,10.6,4.8c23.3,5.8,48.9-15.6,72-15.1
				c4.4,0.1,5.5-4.8,3.7-7.9c0.4,0,0.9,0,1.3,0.1c5.7,0.5,8.3-6.6,3.2-9.8c-0.5-0.3-1-0.6-1.5-0.8c4.9-0.8,5.9-7.3,1.6-9.8
				c-1.7-1-3.5-1.9-5.3-2.6c1.5-2.9,0.6-7.2-3.3-7.7c-8.6-1.1-17.2-1.3-25.8-0.9C734.5,1097.7,731.4,1092.7,726.8,1094.2z"/>
			<path class="st2" d="M753.8,1130.1c-5.7-1.5-11.4-0.5-16.4,2.5c-1.6,1,0,3.4,1.6,2.5c4.4-2.7,9.3-3.3,14.2-2
				C755,1133.5,755.6,1130.5,753.8,1130.1z"/>
			<path class="st2" d="M756,1118.1c-4.7-0.4-9.2,0.2-13.6,1.9c-1.8,0.7-0.8,3.5,1,2.8c3.9-1.5,7.9-2.1,12.1-1.8
				C757.3,1121.1,757.9,1118.2,756,1118.1z"/>
			<path class="st2" d="M755.1,1108.9c-4.8-1.2-9.8-0.6-14.3,1.6c-1.7,0.8-0.7,3.6,1,2.8c4.1-2,8.3-2.6,12.7-1.5
				C756.4,1112.2,757,1109.3,755.1,1108.9z"/>
			<path class="st2" d="M711.7,1104.3c4.4-1.9,9-2.8,13.8-2.7c1.9,0,1.5,3-0.4,3c-4.2,0-8.3,0.8-12.2,2.5
				C711.1,1107.9,709.9,1105.1,711.7,1104.3z"/>
		</g>
		<path class="st4" d="M365.4,992.7c0,0,182.8,100.4,330,111.9l5.8,51.6c0,0-208.5,46.5-387.8-55.4c0,0-180.3-58.6-215.7-280.3
			l32.8-50.6C130.4,770,236.3,947.8,365.4,992.7z"/>
		<g>
			<path class="st4" d="M90.3,744.5c-0.8,2.9-1.2,5.9-1.2,8.9c-0.1,6.4,1,12.8,1.9,19.1c1.1,7.6,2.1,15.2,3.2,22.7
				c0.8,6,1.7,12,2.5,18.1c0.3,2.4,0.7,4.9,1,7.3c0.1,0.7,0.7,0.9,1.1,0.8c12.7-0.1,25.5,0,38.2,0.3c0.4,0,0.8,0,1.3,0
				c0.4,0,0.7-0.2,0.8-0.4c0.2-0.1,0.4-0.4,0.4-0.7c0.1-1,0.1-1.8,0.1-2.5l0,0c0-4.4-1.1-4.2,1.4-9.8c0.1-0.3,0.3-0.6,0.5-0.9
				s0.4-0.6,0.6-0.9c0.1-0.1,0.2-0.2,0.3-0.4l0,0c4.5-5.9,15.8-13.5,14.9-20c-1.6-11.3-9.9-3.5-13.3-3.2c-2.7-8-8.4-24.3-11.1-32.4
				c-1.4-4-2.7-8-4.1-12c-0.8-2.3-1.8-5.8-4.4-6.1c-0.4,0-0.9,0-1.4,0.1s-0.9,0.3-1.3,0.6c-1,0.7-1.8,1.9-2.2,3.1
				c-0.3,1-0.5,2.1-0.7,3.2c-0.6-2-1.5-3.9-2.7-5.7c-1.5-2.2-3.9-2.2-5.6-0.3c-1.5,1.6-2.3,4-2.8,6.1c0-0.1-0.1-0.2-0.1-0.3
				c-0.8-2-2.1-5-4.7-4.3c-2.3,0.7-3.4,3.6-4.1,5.7c-0.7-1.6-1.7-3-3.6-2.8C92.1,738.4,90.9,742.1,90.3,744.5z"/>
			<path class="st2" d="M98.8,756.3c-0.8-3.7-0.9-7.3-0.1-11c0.5-2.3-3.1-3.3-3.6-0.9c-0.9,4.3-0.9,8.7,0.1,13
				C95.8,759.7,99.3,758.7,98.8,756.3z"/>
			<path class="st2" d="M109.4,754.3c-1.3-2.7-1.5-5.7-0.6-8.6c0.7-2.3-2.9-3.2-3.6-0.9c-1.1,3.9-0.7,7.8,1,11.4
				C107.3,758.3,110.5,756.4,109.4,754.3z"/>
			<path class="st2" d="M120.8,752.6c-0.9-2.8-1.2-5.6-0.7-8.5c0.4-2.3-3.2-3.3-3.6-0.9c-0.5,3.5-0.3,7,0.8,10.5
				C118,755.9,121.6,754.9,120.8,752.6z"/>
		</g>
		<path class="st2" d="M232.1,1220.4c9.8,32.9,32.6,61.1,62.5,77.3c1.7,0.9,0.3,3.6-1.4,2.7c-30.6-16.5-53.9-45.3-63.9-79
			C228.7,1219.4,231.5,1218.5,232.1,1220.4z"/>
		<path class="st2" d="M162.8,1403.8c27.1,26,64.4,36.9,100.9,38.9c41.3,2.3,81.7-6.4,122.7-9.1c22-1.4,43.1-0.6,64.4,5.8
			c1.8,0.6,1.2,3.5-0.6,3c-39.5-11.9-79.7-4.2-119.7,0.3c-39.5,4.5-80.5,6.5-118.7-6.5c-18.8-6.4-36.4-16.2-50.9-30.1
			C159.4,1404.7,161.4,1402.4,162.8,1403.8z"/>
		<path class="st2" d="M118.2,1359.2c8.4,14,19.2,26.3,31.9,36.4c1.5,1.2-0.5,3.5-2,2.3c-12.9-10.2-23.9-22.7-32.4-37
			C114.7,1359.2,117.2,1357.5,118.2,1359.2z"/>
		<path class="st2" d="M405.4,1447.1c1.9,3.5,5.1,5.7,9,6.2c1.9,0.2,1.3,3.2-0.6,3c-4.6-0.5-8.7-3.3-10.8-7.5
			C402,1447.1,404.5,1445.4,405.4,1447.1z"/>
		<path class="st2" d="M180.3,1431.7c2.4,2.3,5.3,3.7,8.6,4c1.9,0.2,1.3,3.2-0.6,3c-3.8-0.4-7.2-2.1-9.9-4.7
			C176.9,1432.6,178.9,1430.3,180.3,1431.7z"/>
		<path class="st2" d="M149.2,940.5c0.4-1.9,3.3-1.5,3,0.4c-0.9,5,1.1,9.8,5.3,12.6c1.6,1.1-0.2,3.5-1.8,2.4
			C150.6,952.5,148.1,946.4,149.2,940.5z"/>
		<path class="st2" d="M536.4,1149.3c0.6,3.6,4.3,5.7,7.6,4.7c1.9-0.5,2.3,2.5,0.4,3c-5,1.4-10.1-2.3-11-7.3
			C533.1,1147.8,536.1,1147.4,536.4,1149.3z"/>
		<path class="st2" d="M103.9,805.1c3.2,4.4,7.8,6.9,13.1,7.4c1.9,0.2,1.5,3.2-0.4,3c-6.1-0.6-11.4-3.6-15.1-8.6
			C100.4,805.4,102.7,803.5,103.9,805.1z"/>
		<g>
			<g>
				<g>
					<path class="st1" d="M302.3,957.4l11.6,89.8l89.7-38l7.5,5.6c0,0-45.4,41.3-44,112.1l-13.1,21.9c0,0-79.9-4.6-102.5-41.8
						c0,0-22-44.4,43.1-152.2L302.3,957.4z"/>
				</g>
				<g>
					<g>
						<path class="st1" d="M316.4,947.5c-2.3-3.7-7.7-0.9-10.3,0.8c-0.9,0.6-1.7,1.2-2.4,1.8c0.2-1.4,0.4-2.9,0.4-4.3
							c0.2-3.8-0.1-9.6-5-10.2c-4.1-0.5-5.8,4-6.3,7.3c-0.7,5.2,0.3,10.5,2.7,15.2c0.2,0.4,0.6,0.7,0.9,0.8c0,0.7,0.4,1.5,1.2,1.7
							c-0.3,0.8-0.7,1.7-1.1,2.5c-0.8,1.8,2,2.8,2.8,1c0.6-1.3,1.2-2.7,1.7-4C307.8,958.3,320.5,954,316.4,947.5z M295.6,946.7
							c0-1.6,0-3.4,0.4-5c0.2-0.7,0.3-1.4,0.8-2c1-1.2,2.9-1.3,3.7,0.2c1.6,2.9,0.4,8-0.1,11.1c-0.2,1.2-0.5,2.3-0.8,3.5
							c-0.5,0.8-1,1.5-1.4,2.3c0-0.1,0-0.1-0.1-0.2C296.6,953.6,295.7,950.2,295.6,946.7z M306,955.3c-1.3,0.5-2.6,0.9-3.9,1.3
							c0.1-0.2,0.1-0.5,0.2-0.7c0.9-1.2,1.9-2.4,3.1-3.4c1.1-0.9,2.2-1.7,3.5-2.4c0.5-0.3,1.1-0.5,1.7-0.8c0.4-0.2,0.9-0.3,1.3-0.5
							c2.1,0.1,2.6,0.8,1.5,1.9C312.4,953,308.2,954.4,306,955.3z"/>
					</g>
				</g>
				<g>
					<g>
						<path class="st1" d="M426.9,1006.1c-2.2-3.8-7.4-2.7-10.8-1.5c-1.9,0.6-3.6,1.5-5.2,2.6c0.8-2.6,1.6-6-0.7-8.1
							c-2.4-2.1-5.1-0.2-6.4,2.1c-1.6,3.2-1.7,7-0.6,10.3c0.2,0.8,0.9,1.1,1.5,1.1c-0.7,0.9-1.4,1.8-2.2,2.6c-0.3,0.3-0.4,0.6-0.4,1
							c-1.3,0.8-0.7,3.3,1,2.8c6.2-1.8,12.5-3.3,18.7-5.3C425.1,1012.7,429.2,1010,426.9,1006.1z M405.7,1005.9
							c0.1-0.5,0.5-3.2,1.1-3.6c0.7,0.3,1.4,0.6,2.1,0.9c0,0.5-0.1,1-0.3,1.5c-0.5,2.1-1.3,4.2-2.4,6
							C405.7,1009.1,405.5,1007.5,405.7,1005.9z M423.1,1010c-0.9,0.9-3.2,1.2-4.4,1.5c-1.7,0.5-3.4,1-5.1,1.5
							c-2,0.6-4.1,1.2-6.1,1.7c0.1-0.1,0.1-0.1,0.2-0.2c1.9-2.5,4.2-4.6,6.9-6c1.4-0.7,2.8-1.2,4.3-1.6c0.7-0.2,1.4-0.3,2.1-0.3
							C422.3,1006.5,426.5,1006.7,423.1,1010z"/>
					</g>
				</g>
			</g>
		</g>
	</g>
	<path class="st0" d="M705.6,1101.9c-0.3-4-1.3-8.9-5.6-10.3c-1.9-0.6-4.2-0.2-5.6,1.3c-0.4,0.4-0.7,1-0.9,1.6
		c-1.5-1.7-3.4-2.5-5.8-1.4c-1.3,0.6-2.1,1.6-2.5,2.7c-2.3-3.5-5.2-5.6-8.8-2.6c-1.2,1.1-1.7,2.4-1.8,3.8c-1.1-1.1-2.4-2-3.8-2.8
		c-2.3-1.3-5.5,0.3-5.4,3.2c0.2,6.5,3.9,11.5,7.9,16.4c0.2,0.3,0.5,0.5,0.8,0.7c0.4,0.5,0.9,1,1.3,1.5c2.2,2.4,6.1,0.4,6.1-2.6
		c0-0.6,0-1.1,0-1.7c0.5,0.5,0.9,1,1.4,1.5c2,2,4.7,0.8,5.8-1.1c0.6-0.5,1.1-1.3,1.3-2.2c0.2,0.2,0.3,0.4,0.5,0.6
		c0.6,0.8,1.5,1.1,2.5,1.1c1.8,1.2,4.7,0.3,5.5-1.9c0.5,0.3,1,0.6,1.6,0.8c2.1,0.6,4.2-0.5,5.1-2.4
		C706,1106.4,705.8,1103.9,705.6,1101.9z"/>
	<g>
		<path class="st11" d="M1325.9,814.1c-7.8,3.6-15.3,7.9-22.4,12.9c-3.2,2.2-2.1,6.5,0.6,8.3c-1.2,1.5-2.4,3.1-3.5,4.8
			c-2.7,4.2,1.2,9.5,5.9,7.9c-0.3,0.5-0.6,0.9-0.9,1.4c-3.1,5.2,2.5,10.2,7.3,7.1c0.4-0.2,0.8-0.5,1.1-0.7c-0.1,3.6,3.1,7.4,6.9,5.2
			c20.2-11.4,51.1,3,69-13.1c2.8-2.5,6.8-13.1,8.8-16.9c3.4-0.1,7.5-9,5.5-12.7c-4.3-7.8-10.8-5-15.2-12.9c0.5-1.4,0.3-3-1.2-4.5
			c-3.8-3.7-7.9-4.6-12.4-4.5c-3.2,0.1-6.5,0.8-10,1.4c-12.4,2.2-24.8,4.5-37.2,6.7C1323.5,805.7,1323.1,811.6,1325.9,814.1z"/>
		<path class="st2" d="M1320.8,849.3c4.4-4,9.8-5.9,15.7-5.6c1.9,0.1,1.6,3.1-0.3,2.9c-5.1-0.3-9.8,1.5-13.5,4.9
			C1321.3,852.9,1319.5,850.6,1320.8,849.3z"/>
		<path class="st2" d="M1313.4,839.7c4-2.5,8.3-4.2,12.9-4.8c1.9-0.2,2.3,2.7,0.4,2.9c-4.1,0.5-8,1.9-11.5,4.1
			C1313.6,843.1,1311.8,840.8,1313.4,839.7z"/>
		<path class="st2" d="M1310,831.2c3.8-3.3,8.4-5.2,13.3-5.3c1.9-0.1,2.3,2.9,0.4,2.9c-4.5,0.1-8.5,1.7-11.9,4.7
			C1310.4,834.8,1308.5,832.5,1310,831.2z"/>
		<path class="st2" d="M1329.1,811.3c5.2-2.6,10.9-3.5,16.6-2.7c1.9,0.3,1.4,3.2-0.5,3c-5.3-0.7-10.3,0.2-15,2.6
			C1328.4,815,1327.3,812.2,1329.1,811.3z"/>
	</g>
	<path class="st0" d="M1382.2,782.7c-1.2-1.2-3.1-1.7-4.7-0.2s-2.8,3.4-3.6,5.4c-0.4-0.1-0.8-0.1-1.2-0.1c-1.3-0.3-2.7,0-3.7,1.3
		c-0.3,0.4-0.6,0.8-0.8,1.2c-1.2-1.2-3-1.5-4.5,0c-0.8,0.8-1.5,1.7-2.2,2.6c-0.9-1.3-2.6-1.9-4.4-1.2c-1.8,0.7-2.9,2.1-3.7,3.9
		c-0.1,0.3-0.2,0.6-0.2,0.9c-1.6,2.7-2.6,5.6-3.1,8.8c-0.5,3.3,3.6,4.9,5.9,3.1c0.4-0.4,0.9-0.7,1.3-1.1c1,2,3.8,3.1,5.5,1.3
		c1.2-1.2,2.3-2.5,3.2-3.9c0.2,0.2,0.4,0.4,0.6,0.5c3.5,2.5,5.9-0.3,7.6-3.9c1.4,1.8,4.2,2.3,5.7-0.1c2.8-4.5,4.6-9.3,5.2-14.6
		C1385.2,784.7,1383.9,783.2,1382.2,782.7z"/>
	<g>
		<g>
			<path class="st4" d="M1235.2,298.9c-1.2-2.6-2.8-5-4.6-7.2c-3.9-4.7-8.6-8.6-13.1-12.6c-5.4-4.8-10.9-9.6-16.3-14.3
				c-4.3-3.8-8.6-7.6-13-11.4c-1.8-1.5-3.5-3.1-5.3-4.6c-0.5-0.4-1-0.2-1.3,0.2c-9.1,8.2-18.3,16.2-27.7,24.1
				c-0.3,0.3-0.6,0.5-0.9,0.8c-0.3,0.2-0.4,0.6-0.3,0.9c-0.1,0.2,0,0.5,0.1,0.7c0.5,0.7,1,1.3,1.5,1.8l0,0c2.7,3.2,3.4,2.3,5,7.9
				c0.1,0.3,0.2,0.6,0.2,0.9c0.1,0.3,0.1,0.7,0.1,1c0,0.1,0,0.3,0,0.4l0,0c0.4,7.1-3,19.8,1.6,23.8c8.1,7.1,9.3-3.8,11.5-6.2
				c6.9,4,21,12.2,28,16.2c3.4,2,6.9,4,10.3,6c2,1.2,4.9,3,6.9,1.6c0.3-0.2,0.7-0.6,0.9-1c0.3-0.4,0.5-0.8,0.6-1.3
				c0.3-1.2,0.1-2.5-0.4-3.6c-0.4-1-1-1.8-1.5-2.7c1.7,1,3.5,1.9,5.4,2.4c2.4,0.7,4.1-0.9,4.2-3.4c0.1-2.1-0.8-4.3-1.7-6.2
				c0.1,0,0.2,0.1,0.2,0.1c1.8,0.9,4.6,2.3,6,0c1.2-1.9,0.2-4.8-0.6-6.7c1.5,0.7,3.1,1,4.4-0.3
				C1237.6,304.5,1236.2,301.1,1235.2,298.9z"/>
			<path class="st2" d="M1221.7,295.8c2.9,2.1,5.2,4.7,6.9,7.9c1.1,2,4.2,0.4,3.1-1.6c-2-3.7-4.7-6.8-8.1-9.3
				C1221.8,291.5,1219.9,294.5,1221.7,295.8z"/>
			<path class="st2" d="M1215.3,304.1c2.6,1.1,4.6,3.2,5.8,5.8c0.9,2.1,4.1,0.5,3.1-1.6c-1.6-3.5-4.3-6.1-7.8-7.6
				C1214.4,299.8,1213.3,303.2,1215.3,304.1z"/>
			<path class="st2" d="M1208.2,312.5c2.3,1.4,4.3,3.3,5.8,5.6c1.2,1.9,4.3,0.4,3.1-1.6c-1.8-2.9-4.1-5.3-7-7
				C1208.1,308.4,1206.2,311.3,1208.2,312.5z"/>
		</g>
		<path class="st2" d="M1188,264c-5-1.1-9.9,0-14,3c-1.5,1.1-3.1-1.3-1.6-2.4c4.7-3.5,10.5-4.7,16.2-3.4
			C1190.3,261.5,1189.8,264.4,1188,264z"/>
		<path class="st11" d="M1183,307.5c-0.3-2.2-1.3-12.4-5.9-9.8c-0.7,0.4-1.1,1.1-1.3,1.9c-0.3,0.2-0.4,0.6-0.5,1
			c-0.7,4.3-1.2,11,2.5,14.1c1.4,1.1,3.4,1.5,4.6,0C1183.8,312.8,1183.2,309.6,1183,307.5z"/>
		<path class="st11" d="M1189.2,310.9c-0.1-2.4-0.1-13.3-4.9-11c-0.7,0.3-1.2,1-1.5,1.9c-0.3,0.2-0.5,0.6-0.6,1
			c-1.1,4.5-2.3,11.6,1.1,15.2c1.2,1.3,3.2,1.9,4.6,0.4C1189.6,316.6,1189.3,313.1,1189.2,310.9z"/>
		<path class="st11" d="M1195.8,315.1c-0.1-2.4-0.1-13.3-4.9-11c-0.7,0.3-1.2,1-1.5,1.9c-0.3,0.2-0.5,0.6-0.6,1
			c-1.1,4.5-2.3,11.6,1.1,15.2c1.2,1.3,3.2,1.9,4.6,0.4C1196.1,320.8,1195.8,317.3,1195.8,315.1z"/>
		<path class="st11" d="M1199.6,320c-0.1-2.4-0.1-13.3-4.9-11c-0.7,0.3-1.2,1-1.5,1.9c-0.3,0.2-0.5,0.6-0.6,1
			c-1.1,4.5-2.3,11.6,1.1,15.2c1.2,1.3,3.2,1.9,4.6,0.4C1200,325.8,1199.7,322.3,1199.6,320z"/>
		<path class="st11" d="M1218.5,285.2c12,2.8,20.5,13.6,20.5,8.3c0-5.4-20-18.2-24.4-16.2c-1.6,0.7-2.9,2.4-2.1,4.2
			C1213.4,283.6,1216.4,284.7,1218.5,285.2z"/>
	</g>
</g>
</svg>
