<?xml version="1.0" encoding="utf-8"?>
<!-- Generator: Adobe Illustrator 23.0.3, SVG Export Plug-In . SVG Version: 6.00 Build 0)  -->
<svg version="1.1" id="Layer_1" xmlns="http://www.w3.org/2000/svg" xmlns:xlink="http://www.w3.org/1999/xlink" x="0px" y="0px"
	 viewBox="0 0 937.1 842" style="enable-background:new 0 0 937.1 842;" xml:space="preserve">
<style type="text/css">
	.st0{fill:#FF894A;}
	.st1{fill:#2C2B3C;}
	.st2{fill:#2F52EF;}
	.st3{fill:#211818;}
	.st4{fill:#FF7270;}
	.st5{fill:#77615D;}
	.st6{fill:#96CE1D;}
</style>
<g>
	<path class="st0" d="M709.5,145.2c0.9,0.8,2-0.2,1.8-1.1c0.3,0,0.5-0.1,0.8-0.4c9.6-12.8,19.8-25.2,30.5-37.1
		c0.5,0.1,1.1-0.1,1.2-0.8c1.2-6.9,2.3-13.9,3.1-20.9c0.6-5.2,1.8-11.4,0.8-16.6c-0.7-3.7-4.5-6.9-7.4-5.9c-0.8-2.6-2.7-4.7-5.7-3.3
		c-2.2,1-2.8,3-3,5.3c-1.8-2.6-4.3-4.7-7.5-4.2c-3.4,0.5-4.2,2.6-4,5.1c-0.4-1-1.3-1.8-3-2.1c-6.5-1.1-11,10.9-13.2,15.1
		c-4,7.9-7.1,16.4-8.2,25.3C693.8,118.9,698.1,134.7,709.5,145.2z M722,71.7c1.4,2.7,3,5.4,3.7,8.4c0.4,2,0.5,5.2-0.6,7.1
		c-1.6,2.9-6.1,5.3-9.2,1.3c-3.4-4.4,0.5-10.5,2.4-14.6c0.8-1.7,1.9-4.3,1.9-6.6C720.7,68.9,721.4,70.4,722,71.7z"/>
	<path class="st1" d="M735,69.4c1.6,3.9,2,8,1.2,12.2c-0.3,1.4-2.4,0.9-2.2-0.5c0.7-3.8,0.3-7.5-1.2-11.1
		C732.3,68.7,734.4,68,735,69.4z"/>
	<path class="st1" d="M743.3,68.8c0.9,3.3,0.9,6.7,0.1,10c-0.3,1.4-2.5,0.9-2.2-0.5c0.7-3,0.7-5.9-0.1-8.9
		C740.8,68.1,742.9,67.4,743.3,68.8z"/>
	<g>
		<path class="st0" d="M335,601.8c-2.5,1.4-45.3,7.5-45.3,7.5l-11.8-42.3l68.6-22L335,601.8z"/>
		<path class="st1" d="M286,618.6c4.5-1.3,11.4-2.5,15.2-6.2c0.7-0.7,1.3-1.5,1.8-2.5c0.4-0.7,0.5-1.5,0.7-2.3c1.4-4-6.1-2-11.6-3.4
			c3.9-2.7,8.1-15.2,7-20.4c-1.1-5-10.5-14-15-15c2.3-4.5,9.2-4.2,5.2-8.3c-0.5-0.6-1.1-1-1.8-1.4c-1.1-0.6-2.2-0.9-3.4-1
			c-1-0.1-2-0.1-2.9,0c-4.8,0.4-9.8,1.6-14.5,2.8c-16,4-49.9,12.1-29,53.6C245.4,629.9,272.4,622.7,286,618.6z"/>
		<path class="st2" d="M303,610c-12.2,2.5-24.5,4.4-36.9,5.6c-3,0.3-6.5,0.8-9.8,0.8c4.2-5.9,5.2-13.5,3.4-20.4
			c-2.1-7.9-7.6-14.3-14.1-19c2.1-2.4,4.9-4.2,8.1-5.5c10.9-4.8,22.5-8.6,33.9-12.2c-1.1-0.6-2.2-0.9-3.4-1
			c-9.7,3.2-19.2,6.6-28.7,10.3c-4.8,1.9-8.9,4.3-11.7,7.8c-0.2,0.1-0.3,0.3-0.4,0.5c-1.7,2.3-2.9,5.2-3.4,8.7
			c-0.6,4.2-0.2,8.4,0.4,12.6c0.6,4.4,1.2,9.1,3.3,13.1c2.4,4.6,6.2,6.4,10.5,6.9c0.2,0.1,0.5,0.1,0.8,0.1c3.4,0.3,7,0,10.4-0.3
			c12.1-1.1,24.2-2.9,36.1-5.2C301.9,611.7,302.6,610.9,303,610z M248.8,614.2c-4.9-3.3-5.7-10.2-6.5-15.6c-0.8-5.2-1.4-10.8,0.1-16
			c0.4-1.5,1.1-2.9,1.9-4.1c11.6,8.5,19.9,24.8,9.6,37.6C252.1,615.8,250.3,615.3,248.8,614.2z"/>
		<path class="st2" d="M273.5,599c0.3-6.3-1.8-12.2-5.9-17c-0.9-1-2.4,0.3-1.6,1.3c3.8,4.4,5.7,9.7,5.5,15.5
			C271.4,600.1,273.4,600.3,273.5,599z"/>
		<path class="st2" d="M300.6,591.1c0.5-3.5-3.1-5.3-6.1-5.7c-4.1-0.5-8.3,0.2-12.3,1.5c1.5-1,2.9-2.2,3.9-3.8
			c1.6-2.5,2.1-6.2-0.4-8.3c-5-4-8.2,3.8-9.2,8.9c-0.6-1.2-1.2-2.3-2-3.5c-0.7-1.1-2.3,0.2-1.6,1.3c2.9,4.5,4.5,9.6,4.6,15
			c0,1.3,2.1,1.5,2,0.2c0-1.2-0.1-2.5-0.3-3.7c4.3,2,8.9,4.1,13.8,3.5C296.1,596.2,300.1,594.6,300.6,591.1z M279.2,580.9
			c0.7-1.8,3.5-7.5,5.8-3.8c1.5,2.4-0.5,5.4-2.3,7c-1.3,1.2-2.8,2-4.4,2.6C278.2,584.7,278.5,582.8,279.2,580.9z M279.7,591.1
			c-0.3-0.1-0.6-0.1-0.8,0c-0.1-0.3-0.1-0.6-0.2-0.9c0.2,0.1,0.5,0.1,0.8,0c2.9-1.3,5.9-2.2,9.1-2.6c2.6-0.3,13.2-0.6,8.9,5
			C293.5,597.7,284.1,593.1,279.7,591.1z"/>
	</g>
	<path class="st2" d="M265,429.2c4.6-4.5,99.1-103,103.8-106.3c4.8-3.3,297-3.3,298,0c1.1,3.3,21,134,21,134s-398.6,97.9-408.4,90.4
		C269.6,539.8,265,429.2,265,429.2z"/>
	<path class="st0" d="M226,126.2c-1.1-8.8-4.1-17.4-8.2-25.3c-2.1-4.2-6.7-16.3-13.2-15.1c-1.6,0.3-2.5,1.1-3,2.1
		c0.2-2.5-0.7-4.6-4-5.1c-3.3-0.5-5.7,1.5-7.5,4.2c-0.2-2.3-0.9-4.3-3-5.3c-3-1.4-4.9,0.7-5.7,3.3c-2.9-1-6.6,2.1-7.4,5.9
		c-1,5.2,0.2,11.3,0.8,16.6c0.8,7,1.9,13.9,3.1,20.9c0.1,0.7,0.7,0.9,1.2,0.8c10.7,11.9,20.9,24.3,30.5,37.1
		c0.2,0.3,0.5,0.4,0.8,0.4c-0.2,0.9,0.9,1.9,1.8,1.1C223.6,157.2,227.9,141.4,226,126.2z M201.3,89.9c0,2.3,1.1,5,1.9,6.6
		c1.9,4.1,5.8,10.2,2.4,14.6c-3,4-7.6,1.6-9.2-1.3c-1.1-1.9-1-5.1-0.6-7.1c0.6-3,2.2-5.7,3.7-8.4C200.2,93,200.9,91.4,201.3,89.9z"
		/>
	<path class="st2" d="M623.2,387.6c-0.6,2.7-1.3,5-1.9,7.1c-14.7,50.9-231,40.9-280,3.7c-2.5-1.9-4.8-4.2-6.8-6.8
		C119.9,531.4-8.4,403.2,0.4,306.8C10,202.5,174.2,120.3,174.2,120.3l49.6,38.5c-13.6,32-78,74.8-29.7,105.7
		c40.2,25.8,108.8-61.9,153.6-108.6c16.2-16.9,37.1-28.6,60-33.4c1-0.2,2.1-0.4,3.1-0.6c1.8-0.4,3.5-0.7,5.3-1
		c21.8-3.9,41-4.8,43.3-4.9c2.4-0.1,4.7-0.2,7-0.3c17.4-0.6,34.5,1.8,50.9,6.8c1.7,0.5,3.5,1.1,5.2,1.7
		c20.9,7.1,40.2,18.6,56.7,33.8c46.7,43,124.2,111.7,160,84.7c45.8-34.6-26.6-71.5-38.8-102.2L748,97.3c0,0,170.1,69.3,187.6,172.5
		C951.5,363.3,838.8,497.2,623.2,387.6z"/>
	<path class="st3" d="M530.2,51.1c-2.5-3.4-5.3-5.1-8.8-7.2c-1-0.6-2.2-0.5-3.2-1.1c-3.8-2.6-2.8-4.2-3.6-7.8
		c-2.4-11.2-10.2-19-20.1-18.4c0.1-0.3,0-0.6-0.1-1C491.2,3.6,478.8-4,466.9,2.2c-3.1,1.6-4.7,4.4-7.5,6.3
		c-7.4,5.2-13.8,2.6-21.5,3.3c-6.6,0.6-13.2,3-18.5,7c-5,3.8-9.1,9-10.7,15.2c-1.8,6.8,0.6,12.3-6.9,18.1c-3.5,2.7-8.4,3.7-12.2,6.2
		c-10.6,7-18,20.6-11,32.7c2.7,4.7,7.1,8.4,12.5,9.4c2.4,0.4,4.6,0.2,7-0.3c7-1.4,10.6-0.7,16.5,3.2c6.6,4.4,11.9,5.5,19.8,4.4
		c7-1,13.1-2.3,20.3-1.5c5.2,0.6,10.3,2.1,15.5,2.4c10,0.7,19.2-3.3,29.2-3.2c7.9,0.1,16.1,0.8,23-4c3.8-2.7,6.2-6.2,6.8-10.8
		c0.7-5.3,0.8-8.4,3-13.5c1.3-3,2.6-5.5,3-8.8C535.7,62.3,533.8,56,530.2,51.1z"/>
	<path class="st0" d="M483.5,76.5l2.9,52c-6.3,9.6-23.8,9.5-34.7,8.4c-5-0.5-8.4-5.1-7.6-10c1.4-7.5,3.4-18.5,4.9-26.5
		c0.3-1.5,0.6-3,0.9-4.2c0.7-3.3,1.2-5.6,1.5-6.1L483.5,76.5z"/>
	<g>
		<path class="st0" d="M500,61.2c-0.6-6.3-3-9.8-3.8-11.7c-12.2-30.8-60.1-21.2-61.3,11.2c-0.4,0-0.8,0.1-1.3,0.2
			c-4.7,1-9.2,4.3-10.9,8.9c-1.9,5.3,0.3,11.1,4.9,14.3c5.2,3.7,11.4,3,17.2,1.4c5,5,11.5,8.4,18.8,9.3c11.7,1.4,24.5-4.1,31.3-13.5
			c6.6,2.4,15.9-0.8,17.5-7.9C514.3,65.6,506.9,60.5,500,61.2z"/>
		<path class="st1" d="M470.1,68.4c-1.1-3.5-1.5-7.2-0.8-10.8c0.4-2.7-3.6-3.9-4.1-1.2c-0.7,4.4-0.5,8.8,0.8,13.1
			C466.8,72.1,470.9,71,470.1,68.4z"/>
		<path class="st1" d="M507.9,70.7c-1.1-3.4-5.6-4.7-8.4-2.7c-1.2,0.8,0,2.7,1.2,1.9c1.6-1.1,4.1-0.5,5,1.2c1.1,2.2-1.3,4.8-3.6,4.4
			c-1.4-0.2-1.8,2-0.4,2.2C505.4,78.2,509.1,74.5,507.9,70.7z"/>
		<path class="st1" d="M436.5,76.5c-1.8,0.7-4.2,0.1-4.9-1.9c-0.8-2.1,1.4-4.4,3.5-4c1.4,0.2,1.8-1.9,0.4-2.2
			c-3.5-0.6-6.9,2.6-6.2,6.2c0.7,3.4,4.7,5.3,7.9,4C438.5,78,437.8,75.9,436.5,76.5z"/>
		<path class="st1" d="M456,60.7c-1.1,3.2-5.2,3.2-6.5,0.2c-0.6-1.3-2.5-0.3-2,1c2.2,4.8,8.9,4.3,10.6-0.6
			C458.5,59.9,456.4,59.3,456,60.7z"/>
		<path class="st1" d="M483.9,59.3c-0.5,3.2-4.5,4.5-6.4,1.6c-0.8-1.2-2.8-0.1-2,1c2.9,4.3,9.6,3.3,10.5-2
			C486.3,58.5,484.2,57.9,483.9,59.3z"/>
		<path class="st1" d="M456.6,48.9h-5.9c-2.8,0-3,4.4-0.1,4.4h5.9C459.3,53.3,459.5,48.9,456.6,48.9z"/>
		<path class="st1" d="M481.7,49c-2.1,0.1-4.2,0.2-6.3,0.4c-2.8,0.2-3,4.6-0.1,4.4c2.1-0.1,4.2-0.2,6.3-0.4
			C484.4,53.2,484.6,48.8,481.7,49z"/>
		<path class="st1" d="M473.1,78.3c-2.6,3.1-6.9,3-9.6,0.2c-1-1-2.6,0.5-1.6,1.5c3.8,4,9.7,3.7,13.1-0.5
			C475.9,78.4,474,77.2,473.1,78.3z"/>
	</g>
	<path class="st1" d="M488.1,88.7c-5,3.6-10.8,5.2-16.9,4.8c-1.4-0.1-1.5,2.1-0.1,2.2c6.7,0.4,13-1.4,18.5-5.4
		C490.7,89.5,489.2,87.9,488.1,88.7z"/>
	<path class="st1" d="M522.5,124.1c-7.1,20.2-30.1,33.3-52.1,34c-24,0.8-55.4-11.2-59.5-36.2c1.8-0.4,3.5-0.7,5.3-1
		c3.7,23.2,34.5,33.2,56.1,31.8c19.3-1.3,38.9-12.7,45.1-30.2C519.1,123,520.8,123.5,522.5,124.1z"/>
	<path class="st2" d="M488.6,121.9c-9.6,9.8-36.4,15.8-45.3,1.8c-3.8-6-13.6-0.9-9.8,5.1c12.9,20.1,47.3,16.8,62.6,1.2
		C501,125,493.6,116.8,488.6,121.9z"/>
	<path class="st4" d="M294.8,544.9l15.6,68.8c0,0,537.9-1,512.8-203.5c-3-24.4-22.2-43.8-46.6-46.7
		C720.5,356.9,589.1,377,294.8,544.9z"/>
	<g>
		<path class="st0" d="M602.6,562.5c2.8-0.1,43.8,13.8,43.8,13.8l-8.5,43.1l-71.1-11.3L602.6,562.5z"/>
		<path class="st1" d="M653.9,569.5c-4.6-0.8-11.3-2.9-16.3-1.3c-1,0.3-1.9,0.8-2.7,1.4c-0.6,0.5-1.1,1.1-1.7,1.7
			c-3.1,3,4.5,4.6,8.8,8.3c-4.7,0.6-14.1,9.9-15.4,15.1c-1.3,5,3.1,17.3,6.7,20.2c-4.1,3-10.1-0.4-8.4,5.1c0.2,0.8,0.6,1.4,1,2
			c0.7,1,1.6,1.8,2.6,2.5c0.8,0.5,1.7,1,2.6,1.3c4.5,1.8,9.5,3,14.2,4c16,3.7,50,11.7,50.1-34.7
			C695.3,577.7,667.9,572.1,653.9,569.5z"/>
		<path class="st2" d="M634.9,569.6c12,3.3,23.8,7.1,35.4,11.7c2.8,1.1,6.2,2.2,9.1,3.7c-6.4,3.4-10.8,9.7-12.2,16.7
			c-1.7,8,0.4,16.2,4.1,23.4c-3,1.2-6.3,1.5-9.7,1.3c-11.9-0.7-23.9-2.5-35.7-4.4c0.7,1,1.6,1.8,2.6,2.5c10,1.5,20.1,2.8,30.3,3.8
			c5.2,0.5,9.9,0.2,14-1.7c0.2,0,0.5-0.1,0.6-0.3c2.6-1.3,4.9-3.3,6.9-6.2c2.4-3.5,4-7.4,5.3-11.4c1.4-4.2,3-8.7,3-13.1
			c-0.1-5.2-2.7-8.5-6.3-10.9c-0.2-0.2-0.4-0.4-0.6-0.4c-2.9-1.8-6.2-3.1-9.4-4.4c-11.3-4.5-22.9-8.3-34.6-11.6
			C636.6,568.5,635.7,569,634.9,569.6z M685.2,590.3c2.9,5.2,0.4,11.7-1.3,16.9c-1.7,5-3.6,10.3-7.3,14.2c-1.1,1.2-2.3,2.1-3.6,2.8
			c-6.5-12.8-6.6-31.1,8.4-37.9C683,587.4,684.3,588.7,685.2,590.3z"/>
		<path class="st2" d="M656.3,592.8c-3.1,5.5-3.9,11.7-2.4,17.9c0.3,1.3,2.3,0.8,2-0.5c-1.4-5.6-0.7-11.2,2.1-16.3
			C658.6,592.7,656.9,591.6,656.3,592.8z"/>
		<path class="st2" d="M628.5,587.5c-2,3,0.4,6.2,2.9,7.8c3.4,2.3,7.5,3.6,11.6,4.2c-1.8,0.2-3.6,0.7-5.2,1.6
			c-2.5,1.5-4.7,4.6-3.4,7.6c2.7,5.9,9,0.3,12.2-3.8c0,1.3,0,2.6,0.2,4c0.1,1.3,2.1,0.8,2-0.5c-0.6-5.4,0.3-10.6,2.6-15.4
			c0.6-1.2-1.2-2.3-1.7-1.1c-0.5,1.1-1,2.3-1.4,3.4c-2.9-3.7-6.1-7.7-10.8-9.4C634.8,585,630.5,584.6,628.5,587.5z M643,606.3
			c-1.4,1.3-6.5,5.1-6.8,0.8c-0.2-2.8,2.9-4.6,5.2-5.2c1.7-0.4,3.4-0.5,5.1-0.4C645.7,603.3,644.5,605,643,606.3z M647.1,597
			c0.2,0.3,0.4,0.4,0.7,0.4c-0.1,0.3-0.1,0.6-0.2,0.9c-0.2-0.2-0.4-0.3-0.7-0.4c-3.2-0.2-6.3-0.7-9.3-1.8c-2.4-0.9-12.1-5.5-5.7-8.4
			C637.8,584.9,644.1,593.1,647.1,597z"/>
	</g>
	<path class="st4" d="M622.2,558l-15.8,68.8c0,0-537.8-2.2-512.3-204.6c3.1-24.4,19.1-47.7,55.3-49.5
		C193.5,370.5,328.3,389.4,622.2,558z"/>
	<path class="st1" d="M186.7,91.9c-1.6,3.9-2,8-1.2,12.2c0.3,1.4,2.4,0.9,2.2-0.5c-0.7-3.8-0.3-7.5,1.2-11.1
		C189.3,91.2,187.2,90.6,186.7,91.9z"/>
	<path class="st1" d="M178.4,91.4c-0.9,3.3-0.9,6.7-0.1,10c0.3,1.4,2.5,0.9,2.2-0.5c-0.7-3-0.7-5.9,0.1-8.9
		C180.8,90.6,178.7,90,178.4,91.4z"/>
	<path class="st1" d="M377,141.3c-0.9-2.7-5.3-1.7-4.3,1c4.7,13.5,6.6,27.3,5.6,41.5c-0.2,2.8,4.2,3,4.4,0.1
		C383.8,169.3,381.9,155.1,377,141.3z"/>
	<path class="st1" d="M551.6,142.1c-0.9-2.7-5.2-1.7-4.3,1c2.8,8.8,3.6,17.6,2.3,26.7c-0.4,2.8,4,2.9,4.4,0.1
		C555.4,160.5,554.6,151.2,551.6,142.1z"/>
	<path class="st1" d="M566.5,242.4c-1.1-2.6-5-0.6-3.9,2.1c9.4,23.3-6.6,45.4-30.3,49c-22.3,3.4-43.9-6.4-66-7.7
		c-22.4-1.4-44.8,4.5-67-0.3c-21.5-4.7-44.2-27.1-29.4-49.8c1.6-2.4-2.2-4.7-3.8-2.3c-11.3,17.2-2.5,39.3,14.1,49.4
		c26,15.9,57.6,5.7,85.9,7.4c27,1.6,55.9,16.1,82.2,3C567.1,283.8,574.2,261.5,566.5,242.4z"/>
	<path class="st1" d="M358.9,305.4c0.5-2.8-3.8-4.1-4.2-1.3c-4.4,27.2-50.5,51.6-28.5,81.8c1.7,2.3,4.9-0.7,3.3-3
		c-12.5-17.2,3.5-35.6,14.2-48.5C350.8,325.7,357,316.8,358.9,305.4z"/>
	<path class="st1" d="M602.8,369c-9.5-10.4-16.3-22.4-20.2-35.8c-0.8-2.7-5.1-1.7-4.3,1c4.2,14.2,11.3,26.9,21.3,37.8
		C601.4,374.1,604.7,371.1,602.8,369z"/>
	<path class="st1" d="M577.4,316.9c-1.5-6.6-3-13.3-4.4-19.9c-0.6-2.8-4.9-1.8-4.3,1c1.5,6.6,3,13.3,4.4,19.9
		C573.7,320.7,578.1,319.7,577.4,316.9z"/>
	<path class="st1" d="M179.1,269.6c-1-1-3.1-1-3.9,0.8c-3.6,8.9-10.5,15.8-19.2,19.7c-2.6,1.2-0.5,5.1,2.1,3.9
		c7.4-3.2,13.4-8.5,17.6-15.1c-0.9,6.8-3,13.4-6.4,19.6c-1.4,2.5,2.4,4.8,3.8,2.3c5-9.1,7.5-18.8,7.6-29.2
		C180.6,270.6,179.9,269.9,179.1,269.6z"/>
	<path class="st1" d="M759.8,267.7c-9.1,0.7-17.3-4.2-21-12.6c-0.5-1.1-1.5-1.4-2.4-1.1c-1-0.2-1.9,0.2-2.2,1.5
		c-2.1,10.6,1.1,21.3,9,28.8c2.1,1.9,5.3-1,3.3-3c-5.4-5.1-8.4-11.8-8.5-19c5.1,6.6,13.2,10.4,21.7,9.8
		C762.4,272,762.6,267.5,759.8,267.7z"/>
	<path class="st1" d="M612.2,549.6c-70.4-37.3-141-74.7-213.7-107.3c-36.2-16.2-72.9-31.2-110.3-44.4c-36-12.7-74.6-27.4-112.8-30.9
		c-32.2-2.9-69,8.8-79.9,42.4c-0.9,2.7,3.4,4,4.2,1.3c12.4-38.3,57.1-43.4,91-37c36,6.7,71.5,19.5,105.8,31.9
		c69.4,25.1,136.3,56.3,202.1,89.6c37.3,18.9,74.3,38.5,111.3,58.1C612.4,554.6,614.8,550.9,612.2,549.6z"/>
	<path class="st1" d="M153.3,447c-10.9,11.5-27.8,10.6-37.3-2c-1.7-2.3-5,0.7-3.3,3c11,14.4,31.2,15.4,43.6,2.3
		C158.2,448.2,155.3,444.9,153.3,447z"/>
	<path class="st1" d="M799.5,436.7c-5.3,5.5-13.5,6.1-19.5,1.5c-2.3-1.7-4.6,2-2.3,3.8c7.5,5.7,18.4,4.8,24.9-1.9
		C804.4,437.9,801.4,434.6,799.5,436.7z"/>
	<path class="st1" d="M789.6,495.6c-32.8,28.4-70.9,49.3-112.5,61.5c-2.7,0.8-1.7,5.1,1,4.3c42.3-12.5,81.2-33.7,114.5-62.5
		C794.8,497,791.8,493.7,789.6,495.6z"/>
	<path class="st1" d="M814.2,386.8c-20.9-27.6-57.9-31.2-88.9-21.2c-2.7,0.9-1.7,5.2,1,4.3c28.6-9.2,62.2-7,82.7,17.4
		c23.5,28,7.9,64.1-6.3,92.4c-1.3,2.5,2.5,4.9,3.8,2.3C821.2,452.8,836.7,416.5,814.2,386.8z"/>
	<path class="st1" d="M693.4,369.3C609.9,391,529,422,452.4,461.9c-2.5,1.3-0.5,5.2,2.1,3.9c76.3-39.7,156.7-70.6,240-92.2
		C697.2,372.9,696.2,368.6,693.4,369.3z"/>
	<path class="st1" d="M509.7,618.3c-63.6-3.7-126.6-12.8-188.6-27.2c-2.8-0.6-4,3.6-1.3,4.2c62.4,14.5,125.8,23.7,189.7,27.4
		C512.4,622.8,512.5,618.4,509.7,618.3z"/>
	<path class="st1" d="M604.9,623.6l-73.7-3.3c-2.8-0.1-3,4.3-0.1,4.4l73.7,3.3C607.6,628.2,607.7,623.7,604.9,623.6z"/>
</g>
<g>
	<g>
		<path class="st5" d="M878.4,758.4c-0.1-3.8-3-5.3-5.6-4.8c-0.1,0-0.2,0-0.3,0c-13.5,0.5-67.3,0.5-80.7,0c-0.1,0-0.2,0-0.3,0
			c-2.7-0.5-5.6,1-5.6,4.8l-0.2,16.2c0,3.3,2.1,5.2,4.4,5.6c0.3,0,0.6,0.1,0.9,0.1c0.1,0.5,0.3,1.1,0.4,1.6
			c4.6,16.7,9.1,33.3,13.7,50c0.2,0.6,0.4,1.3,0.5,1.9c0.3,1,0.6,2.1,0.9,3.1c0.3,1.3,1.6,2.3,2.8,3c1.5,0.8,3.1,1.3,4.8,1.5
			c6,0.6,12,0.8,18,0.7c6,0,12-0.2,18-0.7c1.7-0.2,3.3-0.6,4.8-1.5c1.3-0.7,2.5-1.7,2.8-3c0.3-1.1,0.6-2.1,0.9-3.2
			c0.2-0.6,0.3-1.3,0.5-1.9c4.5-16.5,9.1-33,13.6-49.6c0.2-0.6,0.3-1.2,0.5-1.8c0-0.1,0-0.1,0.1-0.2c2.6,0,5.4-2,5.4-5.7
			L878.4,758.4z"/>
		<path class="st1" d="M873.2,780.4c-0.2,0.6-0.3,1.2-0.5,1.8c-28.7,0.9-54.3,1.2-81.3-0.4c-0.1-0.5-0.3-1.1-0.4-1.6
			C790.6,780.2,845.7,781.8,873.2,780.4z"/>
		<path class="st1" d="M859.1,831.8c-0.2,0.6-0.3,1.3-0.5,1.9c-17.6,2.2-35.4,2.2-53,0c-0.2-0.6-0.3-1.3-0.5-1.9
			C823,834.1,841.2,834.1,859.1,831.8z"/>
	</g>
	<path class="st6" d="M892.6,713.8c-3.4-4.4-7.6-8.2-12.2-11.1c-10.4-6.5-22.9-8.6-34.7-5.8c-8.7,2.1-19,7.3-23.2,15.9
		c-1.3-4.7-2.1-9.4-1.7-14.3c9.7-8.2,14.8-21.2,15.2-34c0.5-15.8-5.7-30.9-13.9-43.9c-0.7-1.1-2.2-1.7-3.3-0.7
		c-10,9.8-16.4,23.3-17.2,37.6c-0.9,14.7,4.1,29.2,13.4,40.3c0.2,0.3,1.2,1.5,1.6,1.9c-0.1,2.8,0.2,5.5,0.7,8.2
		c-3.2-2.2-6.9-3.6-10.8-3.9c-0.1-0.2-0.2-0.3-0.4-0.5c-15.8-14.8-38.4-21.1-59.2-16.1c-4.1,1-10.7,2.2-12.7,6.5
		c-2.3,4.9,3.3,9.9,6.4,12.8c8,7.6,18.4,12.4,29.3,13.2c12.5,0.9,25-3.4,34.6-11.7c5.9,0,11.2,2.8,14.7,7.6c0.4,1.4,0.9,2.9,1.4,4.3
		c-3.1-1.5-6.7-1.6-10-0.4c-0.4,0.2-0.7,0.4-0.9,0.7c-0.1,0-0.3,0-0.4,0.1c-22.9,6.8-39.3,28.7-39,53.6c0.1,5.1,1,10.7,7,10.7
		c2.4,0,4.6-0.9,6.8-1.7c3.1-1.2,6.1-2.5,9.1-3.9c10.5-5.2,20.1-13,24.8-24.2c4.5-10.6,3.1-23.3-4.7-31.6c3.5-1,7,0.7,9,3.8
		c0.3,0.5,0.8,0.8,1.2,0.8c2.6,7.7,4.6,17,2.1,25c-0.1,0.3-0.1,0.7-0.1,1h4.2c2.2-7.4,1.2-15.4-0.8-22.3c6.8,3.9,16.2,3.9,23.8,3.5
		c13.2-0.8,26.3-4.3,38.2-10.4c1.8-0.9,4-2,4.6-4.3C895.9,718,894.1,715.7,892.6,713.8z"/>
	<path class="st1" d="M794.2,741c-8.9,9.4-14.8,21.1-17.2,33.9c-0.3,1.7,2.4,1.9,2.7,0.2c2.2-12,7.8-23.2,16.3-32.1
		C797.2,741.8,795.4,739.8,794.2,741z"/>
	<path class="st1" d="M805.6,728.9c-2.8,1.6-5.1,3.6-7,6.2c-1,1.4,1.2,2.9,2.2,1.5c1.6-2.2,3.6-4,5.9-5.3
		C808.3,730.5,807.1,728.1,805.6,728.9z"/>
	<path class="st1" d="M887.3,716.2c-19.1-5.9-39.4-6.9-59.1-2.9c-1.7,0.3-1.2,3,0.5,2.6c19.2-3.9,39-2.9,57.7,2.8
		C888,719.3,888.9,716.8,887.3,716.2z"/>
	<path class="st1" d="M817.2,628c-1.9,8.9-2.7,17.9-2.3,26.9c0.1,1.7,2.8,1.9,2.7,0.2c-0.4-8.8,0.3-17.6,2.1-26.2
		C820.1,627.3,817.6,626.4,817.2,628z"/>
	<path class="st1" d="M818.2,687.2c-1.1-7.4-1.5-14.8-1.2-22.3c0.1-1.7-2.6-1.9-2.7-0.2c-0.3,7.7,0.1,15.4,1.3,23
		C815.8,689.4,818.4,688.9,818.2,687.2z"/>
	<path class="st1" d="M756.4,694.8c-5.2-0.4-10.3,0-15.4,1.2c-1.7,0.4-1.2,3.1,0.5,2.6c4.8-1.2,9.7-1.6,14.7-1.2
		C757.9,697.6,758.1,694.9,756.4,694.8z"/>
	<path class="st1" d="M796.3,702.3c-9.6-3.5-19.6-5.5-29.8-6.1c-1.7-0.1-1.9,2.6-0.2,2.7c10,0.6,19.7,2.5,29.2,5.9
		C797,705.4,797.9,702.8,796.3,702.3z"/>
</g>
</svg>
