<?xml version="1.0" encoding="utf-8"?>
<!-- Generator: Adobe Illustrator 23.0.3, SVG Export Plug-In . SVG Version: 6.00 Build 0)  -->
<svg version="1.1" xmlns="http://www.w3.org/2000/svg" xmlns:xlink="http://www.w3.org/1999/xlink" x="0px" y="0px"
	 viewBox="0 0 1464.1 1230.4" style="enable-background:new 0 0 1464.1 1230.4;" xml:space="preserve">
<style type="text/css">
	.st0{fill:#3E435D;}
	.st1{fill:#2C2B3C;}
	.st2{fill:#94B9FE;}
	.st3{fill:#FFFFFF;}
	.st4{fill:#E2C0FF;}
	.st5{fill:#FFCBB8;}
	.st6{fill:#A85856;}
	.st7{fill:#E85170;}
	.st8{fill:#FB635D;}
	.st9{fill:#F6B1A5;}
	.st10{fill:#2C243C;}
	.st11{fill:#FB7267;}
	.st12{fill:#F69A91;}
	.st13{fill:#9F524A;}
	.st14{fill:#293135;}
	.st15{fill:#3A3A3C;}
	.st16{fill-rule:evenodd;clip-rule:evenodd;fill:#424F54;}
	.st17{font-family:'BrutalType-Bold';}
	.st18{font-size:45.264px;}
</style>
<g id="Layer_1">
	<g>
		<g>
			<g>
				<polygon class="st0" points="767.1,1205.1 53.1,1205.1 129.3,1110.3 685,1111.7 				"/>
				<rect x="53.1" y="1205.1" class="st1" width="714" height="25.3"/>
			</g>
			<g>
				<g>
					<path class="st1" d="M464.5,1188H245.7c-1.3,0-2.1-0.9-1.7-2.1l2.7-8.4c0.4-1.2,1.7-2.1,3-2.1h212.9c1.3,0,2.5,0.9,2.7,2.1
						l1.4,8.4C466.8,1187,465.9,1188,464.5,1188z"/>
					<path class="st1" d="M517.4,1188h-31c-1.3,0-2.6-0.9-2.8-2.1l-1.7-8.4c-0.2-1.2,0.6-2.1,1.9-2.1H514c1.3,0,2.6,0.9,2.9,2.1
						l2.3,8.4C519.6,1187,518.7,1188,517.4,1188z"/>
					<path class="st1" d="M569.4,1188h-31c-1.3,0-2.7-0.9-3.1-2.1l-2.6-8.4c-0.4-1.2,0.4-2.1,1.7-2.1h30.1c1.3,0,2.7,0.9,3.2,2.1
						l3.3,8.4C571.4,1187,570.7,1188,569.4,1188z"/>
					<path class="st1" d="M673.8,1188h-31c-1.3,0-2.9-0.9-3.6-2.1l-4.5-8.4c-0.6-1.2-0.1-2.1,1.2-2.1h30.1c1.3,0,2.9,0.9,3.7,2.1
						l5.2,8.4C675.6,1187,675.1,1188,673.8,1188z"/>
					<path class="st1" d="M629.3,1188h-31c-1.3,0-2.8-0.9-3.4-2.1l-1.7-3.9c-0.5-1.2,0.1-2.1,1.4-2.1h30.4c1.3,0,2.9,0.9,3.5,2.1
						l2,3.9C631.2,1187,630.6,1188,629.3,1188z"/>
					<path class="st1" d="M719.7,1188h-31c-1.3,0-3-0.9-3.8-2.1l-2.5-3.9c-0.7-1.2-0.3-2.1,1-2.1h30.4c1.3,0,3.1,0.9,3.9,2.1
						l2.8,3.9C721.4,1187,721,1188,719.7,1188z"/>
					<path class="st1" d="M692.7,1151.8h-28.6c-1.2,0-2.8-0.9-3.6-2.1l-4.2-6.7c-0.7-1.2-0.4-2.1,0.8-2.1H685c1.2,0,2.9,0.9,3.7,2.1
						l4.7,6.7C694.3,1150.8,693.9,1151.8,692.7,1151.8z"/>
					<path class="st1" d="M597,1150.9h-28.5c-1.2,0-2.6-0.9-3.1-2.1l-2.7-6.7c-0.5-1.2,0.1-2.1,1.3-2.1h27.8c1.2,0,2.6,0.9,3.2,2.1
						l3.3,6.7C598.7,1150,598.2,1150.9,597,1150.9z"/>
					<path class="st1" d="M507.4,1150.9h-28.5c-1.2,0-2.4-0.9-2.6-2.1l-1.3-6.7c-0.2-1.2,0.5-2.1,1.7-2.1h27.8
						c1.2,0,2.4,0.9,2.8,2.1l1.8,6.7C509.3,1150,508.6,1150.9,507.4,1150.9z"/>
					<path class="st1" d="M411.3,1150.9h-28.5c-1.2,0-2.2-0.9-2.2-2.1l0.2-6.7c0-1.2,1-2.1,2.2-2.1h27.8c1.2,0,2.2,0.9,2.3,2.1
						l0.3,6.7C413.5,1150,412.5,1150.9,411.3,1150.9z"/>
					<path class="st1" d="M319.1,1150.9h-28.5c-1.2,0-2-0.9-1.7-2.1l1.6-6.7c0.3-1.2,1.5-2.1,2.7-2.1H321c1.2,0,2,0.9,1.8,2.1
						l-1.1,6.7C321.5,1150,320.4,1150.9,319.1,1150.9z"/>
					<path class="st1" d="M226.1,1150.9h-28.5c-1.2,0-1.8-0.9-1.2-2.1l3.1-6.7c0.5-1.2,2-2.1,3.2-2.1h27.8c1.2,0,1.8,0.9,1.4,2.1
						l-2.6,6.7C228.7,1150,227.3,1150.9,226.1,1150.9z"/>
					<path class="st1" d="M164.5,1133.7h-27.3c-1.2,0-1.5-0.9-0.8-2.1l4.2-6.7c0.7-1.2,2.3-2.1,3.4-2.1h26.6c1.1,0,1.6,0.9,0.9,2.1
						l-3.7,6.7C167.1,1132.8,165.7,1133.7,164.5,1133.7z"/>
					<path class="st1" d="M179.2,1150.9h-58.5c-1.2,0-1.6-0.9-0.9-2.1l4.3-6.7c0.8-1.2,2.3-2.1,3.5-2.1h57c1.2,0,1.7,0.9,1.1,2.1
						l-3.3,6.7C181.9,1150,180.4,1150.9,179.2,1150.9z"/>
					<path class="st1" d="M646.4,1150.9h-28.5c-1.2,0-2.7-0.9-3.3-2.1l-3.5-6.7c-0.6-1.2-0.1-2.1,1.1-2.1h27.8
						c1.2,0,2.7,0.9,3.5,2.1l4,6.7C648,1150,647.6,1150.9,646.4,1150.9z"/>
					<path class="st1" d="M550.8,1150.9h-28.5c-1.2,0-2.5-0.9-2.9-2.1l-2-6.7c-0.4-1.2,0.3-2.1,1.5-2.1h27.8c1.2,0,2.5,0.9,3,2.1
						l2.5,6.7C552.6,1150,552,1150.9,550.8,1150.9z"/>
					<path class="st1" d="M458.7,1150.9h-28.5c-1.2,0-2.3-0.9-2.4-2.1l-0.6-6.7c-0.1-1.2,0.8-2.1,2-2.1H457c1.2,0,2.3,0.9,2.5,2.1
						l1.1,6.7C460.8,1150,460,1150.9,458.7,1150.9z"/>
					<path class="st1" d="M365.1,1150.9h-28.5c-1.2,0-2.1-0.9-1.9-2.1l0.9-6.7c0.2-1.2,1.3-2.1,2.5-2.1h27.8c1.2,0,2.1,0.9,2,2.1
						l-0.4,6.7C367.4,1150,366.3,1150.9,365.1,1150.9z"/>
					<path class="st1" d="M271.5,1150.9H243c-1.2,0-1.9-0.9-1.5-2.1l2.4-6.7c0.4-1.2,1.7-2.1,2.9-2.1h27.8c1.2,0,1.9,0.9,1.6,2.1
						l-1.9,6.7C274,1150,272.7,1150.9,271.5,1150.9z"/>
					<path class="st1" d="M557.8,1133.8h-26.9c-1.2,0-2.5-0.9-2.8-2.1l-2.2-6.7c-0.4-1.2,0.2-2.1,1.4-2.1h26.2c1.1,0,2.5,0.9,3,2.1
						l2.7,6.7C559.5,1132.9,558.9,1133.8,557.8,1133.8z"/>
					<path class="st1" d="M473,1133.8h-26.9c-1.2,0-2.3-0.9-2.4-2.1l-0.8-6.7c-0.1-1.2,0.7-2.1,1.8-2.1h26.2c1.1,0,2.3,0.9,2.5,2.1
						l1.4,6.7C474.9,1132.9,474.2,1133.8,473,1133.8z"/>
					<path class="st1" d="M382.1,1133.8h-26.9c-1.2,0-2-0.9-1.9-2.1l0.6-6.7c0.1-1.2,1.1-2.1,2.3-2.1h26.2c1.1,0,2.1,0.9,2,2.1
						l-0.1,6.7C384.3,1132.9,383.3,1133.8,382.1,1133.8z"/>
					<path class="st1" d="M294.9,1133.8H268c-1.2,0-1.8-0.9-1.5-2.1l2.1-6.7c0.4-1.2,1.6-2.1,2.7-2.1h26.2c1.1,0,1.9,0.9,1.6,2.1
						l-1.6,6.7C297.3,1132.9,296.1,1133.8,294.9,1133.8z"/>
					<path class="st1" d="M206.9,1133.8H180c-1.2,0-1.6-0.9-1-2.1l3.5-6.7c0.6-1.2,2-2.1,3.2-2.1h26.2c1.1,0,1.7,0.9,1.1,2.1l-3,6.7
						C209.4,1132.9,208,1133.8,206.9,1133.8z"/>
					<path class="st1" d="M604.5,1133.8h-26.9c-1.2,0-2.6-0.9-3.1-2.1l-3-6.7c-0.5-1.2,0-2.1,1.1-2.1h26.2c1.1,0,2.6,0.9,3.2,2.1
						l3.5,6.7C606.2,1132.9,605.7,1133.8,604.5,1133.8z"/>
					<path class="st1" d="M514,1133.8h-26.9c-1.2,0-2.4-0.9-2.6-2.1l-1.5-6.7c-0.3-1.2,0.4-2.1,1.6-2.1h26.2c1.1,0,2.4,0.9,2.7,2.1
						l2,6.7C515.9,1132.9,515.2,1133.8,514,1133.8z"/>
					<path class="st1" d="M427,1133.8h-26.9c-1.2,0-2.2-0.9-2.2-2.1l-0.1-6.7c0-1.2,0.9-2.1,2-2.1H426c1.1,0,2.2,0.9,2.3,2.1
						l0.6,6.7C429,1132.9,428.2,1133.8,427,1133.8z"/>
					<path class="st1" d="M338.4,1133.8h-26.9c-1.2,0-1.9-0.9-1.7-2.1l1.4-6.7c0.2-1.2,1.4-2.1,2.5-2.1h26.2c1.1,0,2,0.9,1.8,2.1
						l-0.8,6.7C340.7,1132.9,339.6,1133.8,338.4,1133.8z"/>
					<path class="st1" d="M249.8,1133.8h-26.9c-1.2,0-1.7-0.9-1.2-2.1l2.8-6.7c0.5-1.2,1.8-2.1,3-2.1h26.2c1.1,0,1.8,0.9,1.4,2.1
						l-2.3,6.7C252.3,1132.9,251,1133.8,249.8,1133.8z"/>
					<path class="st1" d="M534.1,1169.1h-29.7c-1.3,0-2.6-0.9-2.8-2.1l-1.7-6.7c-0.3-1.2,0.5-2.1,1.7-2.1h29c1.3,0,2.6,0.9,3,2.1
						l2.2,6.7C536.1,1168.2,535.4,1169.1,534.1,1169.1z"/>
					<path class="st1" d="M632.9,1169.1h-29.7c-1.3,0-2.8-0.9-3.3-2.1l-3.1-6.7c-0.6-1.2,0-2.1,1.3-2.1h29c1.3,0,2.8,0.9,3.4,2.1
						l3.7,6.7C634.7,1168.2,634.2,1169.1,632.9,1169.1z"/>
					<path class="st1" d="M584.2,1169.1h-29.7c-1.3,0-2.7-0.9-3.1-2.1l-2.4-6.7c-0.4-1.2,0.2-2.1,1.5-2.1h29c1.3,0,2.7,0.9,3.2,2.1
						l2.9,6.7C586.1,1168.2,585.5,1169.1,584.2,1169.1z"/>
					<path class="st1" d="M433.9,1169.1h-29.7c-1.3,0-2.3-0.9-2.4-2.1l-0.1-6.7c0-1.2,1-2.1,2.2-2.1h29c1.3,0,2.4,0.9,2.5,2.1
						l0.7,6.7C436.2,1168.2,435.2,1169.1,433.9,1169.1z"/>
					<path class="st1" d="M337.8,1169.1h-29.7c-1.3,0-2.1-0.9-1.9-2.1l1.3-6.7c0.2-1.2,1.4-2.1,2.7-2.1h29c1.3,0,2.2,0.9,2,2.1
						l-0.8,6.7C340.3,1168.2,339.1,1169.1,337.8,1169.1z"/>
					<path class="st1" d="M240.7,1169.1H211c-1.3,0-1.9-0.9-1.4-2.1l2.8-6.7c0.5-1.2,1.9-2.1,3.1-2.1h29c1.3,0,1.9,0.9,1.6,2.1
						l-2.2,6.7C243.4,1168.2,242,1169.1,240.7,1169.1z"/>
					<path class="st1" d="M188.5,1169.1h-83.9c-1.3,0-1.7-0.9-0.9-2.1l4.4-6.7c0.8-1.2,2.4-2.1,3.7-2.1h81.8c1.3,0,1.8,0.9,1.3,2.1
						l-3,6.7C191.3,1168.2,189.8,1169.1,188.5,1169.1z"/>
					<path class="st1" d="M483.4,1169.1h-29.7c-1.3,0-2.4-0.9-2.6-2.1l-0.9-6.7c-0.2-1.2,0.7-2.1,2-2.1h29c1.3,0,2.5,0.9,2.7,2.1
						l1.4,6.7C485.5,1168.2,484.7,1169.1,483.4,1169.1z"/>
					<path class="st1" d="M385.7,1169.1H356c-1.3,0-2.2-0.9-2.1-2.1l0.6-6.7c0.1-1.2,1.2-2.1,2.4-2.1h29c1.3,0,2.3,0.9,2.2,2.1
						l-0.1,6.7C388.1,1168.2,387,1169.1,385.7,1169.1z"/>
					<path class="st1" d="M288.1,1169.1h-29.7c-1.3,0-2-0.9-1.7-2.1l2-6.7c0.4-1.2,1.7-2.1,2.9-2.1h29c1.3,0,2,0.9,1.8,2.1l-1.5,6.7
						C290.6,1168.2,289.4,1169.1,288.1,1169.1z"/>
					<path class="st1" d="M224.9,1187.1h-30.9c-1.3,0-2-0.9-1.5-2.1l2.9-6.7c0.5-1.2,2-2.1,3.3-2.1h30.2c1.3,0,2,0.9,1.6,2.1
						l-2.4,6.7C227.6,1186.1,226.2,1187.1,224.9,1187.1z"/>
					<path class="st1" d="M121.5,1187.1H90.6c-1.3,0-1.8-0.9-1-2.1l4.4-6.7c0.8-1.2,2.5-2.1,3.8-2.1h30.2c1.3,0,1.8,0.9,1.1,2.1
						l-3.9,6.7C124.5,1186.1,122.8,1187.1,121.5,1187.1z"/>
					<path class="st1" d="M173.1,1187.1h-30.9c-1.3,0-1.9-0.9-1.3-2.1l3.7-6.7c0.6-1.2,2.2-2.1,3.5-2.1h30.2c1.3,0,1.9,0.9,1.4,2.1
						l-3.1,6.7C176,1186.1,174.4,1187.1,173.1,1187.1z"/>
					<path class="st1" d="M709,1170h-56.6c-1.3,0-2.9-0.9-3.6-2.1l-4.9-8.4c-0.7-1.2-0.2-2.1,1-2.1h55c1.2,0,2.9,0.9,3.8,2.1l6,8.4
						C710.7,1169,710.3,1170,709,1170z"/>
					<path class="st1" d="M676.9,1133.6H623c-1.2,0-2.7-0.9-3.3-2.1l-3.6-6.5c-0.7-1.2-0.3-2.1,0.9-2.1h52.5c1.1,0,2.7,0.9,3.6,2.1
						l4.6,6.5C678.4,1132.7,678.1,1133.6,676.9,1133.6z"/>
				</g>
			</g>
		</g>
	</g>
	<g>
		<g>
			<path class="st0" d="M1230.4,44.9v787.4c0,24.8-20.5,44.9-45.8,44.9H45.8C20.5,877.2,0,857.1,0,832.3V44.9C0,20.1,20.5,0,45.8,0
				h1138.8C1209.9,0,1230.4,20.1,1230.4,44.9z"/>
			<path class="st1" d="M1230.4,44.9v680.2c-0.2,0-0.4,0-0.6,0H0.6c-0.2,0-0.4,0-0.6,0V44.9C0,20.1,20.5,0,45.8,0h1138.8
				C1209.9,0,1230.4,20.1,1230.4,44.9z"/>
			<path class="st0" d="M469.8,849.8c-0.2,1.1,3.2,90.8,3.2,90.8l-33.6,67.1c-8.5,17,4.1,36.9,23.5,36.9l306.5-0.6
				c18.6,0,31.2-18.6,24.1-35.4L761.5,937v-87.2H469.8z"/>
		</g>
		<path class="st1" d="M636.2,874.6H485.7c-5.6,0-5.9,8.6-0.3,8.6H636C641.6,883.2,641.9,874.6,636.2,874.6z"/>
		<path class="st1" d="M684.4,1018.6H533.8c-5.6,0-5.9,8.6-0.3,8.6h150.5C689.7,1027.1,690,1018.6,684.4,1018.6z"/>
		<path class="st1" d="M723.9,874.6h-54.1c-5.6,0-5.9,8.6-0.3,8.6h54.1C729.3,883.2,729.6,874.6,723.9,874.6z"/>
		<rect x="497.8" y="35.2" class="st2" width="457.7" height="323.9"/>
		<path class="st3" d="M481.1,35.2v323.9H23.4V81.4c0-25.5,19.4-46.2,43.3-46.2H481.1z"/>
		<rect x="498.4" y="375.3" class="st4" width="457.7" height="323.9"/>
		<rect x="23.7" y="374.7" class="st5" width="457.7" height="323.9"/>
		<g>
			<path class="st1" d="M836.2,163.6c-1.5-14-9.1-26.9-20.2-34.4c6.5-7.5,9.4-17.3,9.1-27c1.3-10.4-0.7-21.2-6.8-30.8
				c-6.9-10.8-17.7-18.5-30.7-19.7c-5.7-0.5-11.4,0.4-16.5,2.6c-7.7-8.1-17.5-13.7-29.9-15.2c-13-1.6-25.9,1.6-37.9,6.1
				c-1,0.4-1.9,0.7-2.9,1.1c-8.3-3.1-17.2-4.3-26.3-3.3c-21.7,2.3-46.7,19.7-48.1,42.4c-12.9,2.1-24.7,10.7-30.6,23.2
				c-6.4,13.7-5.3,30.2,2.2,43c-16.2,6.4-22.2,27.1-16.6,43.7c6.5,19.4,23.7,30.3,41.3,36.4c-4.3,4.2-5.8,11.1-3.9,17.1
				c2.7,8.4,10.6,13.4,18.4,14.8c9.7,1.8,20.3-0.5,29.6-3.3c7.9-2.3,15.4-5.6,22.6-9.6c0,0,0,0,0,0c1.7-1,3.4-2,5.1-3
				c0.3-0.2,0.5-0.4,0.6-0.6c7.7-1.1,15.4-2.1,23.1-3.2c1.3-0.2,2.5-0.3,3.8-0.5c6.8-0.9,13.7-1.9,20.2-4.4c0.1,0,0.1-0.1,0.1-0.1
				c0.6,0.3,1.1,0.6,1.7,0.8c0,0,0,0,0,0c0.5,0.3,1,0.5,1.5,0.7c14.8,6.7,31.3,8.7,47.1,5.5c15.5-3.1,34.4-12.3,36.8-31.1
				c1-7.5-1-15.4-6.2-20.6C833.8,189.7,837.4,175.1,836.2,163.6z"/>
			<path class="st6" d="M954.8,339.2v19.8h-457v-9.2c38.3-29.7,88.4-55.8,156.6-66.8c1.3-0.2,2.6-0.4,3.9-0.6c0,0,0,0,0.1,0
				c0.3-0.1,0.6-0.1,0.9-0.1c0.3,0,0.6-0.1,0.9-0.1c0.2,0,0.3-0.1,0.5-0.1c1.2-0.2,2.3-0.3,3.5-0.5c0.7-0.1,1.4-0.2,2.1-0.3
				c0,0,0.1,0,0.1,0c0.7-0.1,1.5-0.2,2.2-0.3c0.2,0,0.4,0,0.6-0.1c0,0,0.1,0,0.1,0c0.6-0.1,1.2-0.1,1.8-0.2c0.1,0,0.2,0,0.3,0
				c0,0,0,0,0,0h0c0.8-0.1,1.7-0.2,2.6-0.3c0.1,0,0.3,0,0.4,0c1.4-0.2,2.9-0.3,4.4-0.5c0.2,0,0.4,0,0.5,0c0.3,0,0.5-0.1,0.8-0.1
				c1.1-0.1,2.2-0.2,3.3-0.3c0.2,0,0.4,0,0.6,0c0.2,0,0.3,0,0.5,0c0,0,0,0,0.1,0c1.7-0.2,3.5-0.3,5.2-0.4c1.3-0.1,2.7-0.2,4.1-0.3
				c0.4,0,0.8-0.1,1.3-0.1c0.1,0,0.2,0,0.3,0c0,0,0.1,0,0.2-0.1c0.2-0.1,0.4-0.3,0.7-0.5c0.1,0,0.1-0.1,0.2-0.2
				c0.1-0.1,0.1-0.1,0.2-0.2c0.2-0.1,0.3-0.2,0.5-0.4c0.1-0.1,0.2-0.1,0.3-0.2c0.1-0.1,0.2-0.1,0.4-0.2c0.1-0.1,0.3-0.1,0.4-0.2
				c0.1-0.1,0.3-0.1,0.4-0.2c0,0,0.1,0,0.2-0.1c0.2-0.1,0.3-0.1,0.5-0.2c3.6-1.3,11.4-2.5,29.5-2.2c2.2,0,6.8,0,13.5,0h0.6
				c0.1,0,0.2,0,0.3,0c0.3,0,0.6,0,0.9,0c0.6,0,1.2,0,1.8,0c0.3,0,0.6,0,0.9,0c0.2,0,0.4,0,0.6,0c0.2,0,0.4,0,0.6,0c0,0,0.1,0,0.1,0
				c0.2,0,0.5,0,0.7,0c0.1,0,0.2,0,0.2,0c0.4,0,0.9,0,1.3,0c0.2,0,0.4,0,0.6,0h0.1c0.5,0,1,0,1.5,0c3.4,0.1,7,0.2,10.9,0.4
				c0.5,0,1,0,1.5,0.1c1.1,0.1,2.1,0.1,3.2,0.2c0.5,0,1.1,0.1,1.6,0.1c0.5,0,1.1,0.1,1.6,0.1c0,0,0.1,0,0.1,0c0.5,0,1,0.1,1.6,0.1
				c0.2,0,0.3,0,0.5,0c0.6,0,1.2,0.1,1.8,0.1c0.4,0,0.9,0.1,1.3,0.1c0,0,0.1,0,0.1,0c0.5,0,1,0.1,1.5,0.1c0,0,0.1,0,0.2,0h0
				c2.3,0.2,4.6,0.4,7.1,0.6c15.4,1.4,32.8,3.7,50.9,7.4c23.7,4.9,48.6,12.3,71.5,23.5c0.5,0.2,1,0.5,1.5,0.7c1,0.5,2,1,3,1.5
				c2.1,1.1,4.2,2.2,6.3,3.4c0.6,0.3,1.1,0.6,1.7,0.9c0,0,0,0,0.1,0c3.4,1.9,6.7,4,10,6.1c0.6,0.4,1.3,0.8,1.9,1.3
				c0.6,0.4,1.2,0.8,1.8,1.2c4.2,2.9,8.3,6,12.3,9.3c1.7,1.4,3.4,2.9,5.1,4.4C952.5,337.1,953.6,338.2,954.8,339.2z"/>
			<path class="st6" d="M743.3,205.9l5.4,88.6c-9.7,16.4-37.1,16.5-54.2,14.9c-7.8-0.8-13.3-8.6-12-17c2-12.9,5-31.6,7.3-45.3
				c0.5-2.6,0.9-5,1.3-7.2c1-5.6,1.8-9.5,2.2-10.4L743.3,205.9z"/>
			<g>
				<path class="st6" d="M767.9,184.9c-1.1-10.7-4.9-16.7-6.1-20c-19.6-52.3-94.4-35.1-95.8,20.2c-0.7,0.1-1.3,0.2-2,0.4
					c-7.4,1.7-14.4,7.4-16.9,15.4c-2.8,9.1,0.7,18.9,7.9,24.4c8.1,6.2,18,5,27,2.1c7.9,8.4,18.2,14.2,29.6,15.6
					c18.4,2.2,38.3-7.4,48.9-23.5c10.4,3.9,24.9-1.6,27.2-13.8C790.3,192.3,778.7,183.7,767.9,184.9z"/>
				<path class="st1" d="M699.2,180.7c-5.4-2-8.9,6.8-3.5,8.9C701.1,191.6,704.6,182.7,699.2,180.7z"/>
				<path class="st1" d="M741.4,179.6c-2.1-0.9-5,0-5.8,2.5l-0.2,0.6c-0.7,2.4,0,5.4,2.3,6.3c2.1,0.9,5,0,5.8-2.5l0.2-0.6
					C744.5,183.5,743.7,180.6,741.4,179.6z"/>
				<path class="st1" d="M780.3,201.1c-1.8-5.7-8.8-7.9-13.2-4.5c-1.8,1.4,0.1,4.5,1.9,3.1c2.4-1.9,6.4-1,7.8,2
					c1.7,3.8-2,8.2-5.5,7.6c-2.2-0.3-2.9,3.4-0.6,3.7C776.5,213.9,782.4,207.5,780.3,201.1z"/>
				<path class="st1" d="M668.7,212c-2.8,1.3-6.5,0.2-7.7-3.1c-1.2-3.6,2.1-7.5,5.4-6.9c2.2,0.4,2.9-3.3,0.6-3.7
					c-5.5-1-10.8,4.6-9.6,10.7c1.1,5.8,7.5,8.9,12.4,6.7C671.9,214.7,670.8,211.1,668.7,212z"/>
				<path class="st1" d="M702.7,158.2c-5.8-1.8-11.9,0.1-16.2,4.6c-3.2,3.3,1.9,8.4,5.1,5.1c2.6-2.7,6.2-3.4,9.6-2.3
					C705.5,166.9,707,159.5,702.7,158.2z"/>
				<path class="st1" d="M748.9,162.9c-4-5-10-6.9-15.9-5.6c-4.4,0.9-2.5,8.2,1.8,7.3c3.6-0.8,6.9,0.8,9.3,3.7
					C747,171.9,751.8,166.5,748.9,162.9z"/>
				<path class="st1" d="M725.7,214.9c-9.1,4.5-19.1,1.4-24.6-7.7c-1.4-2.2-4.7-0.1-3.3,2.1c6.7,11.1,18.8,14.7,29.9,9.2
					C729.9,217.4,728,213.8,725.7,214.9z"/>
				<path class="st1" d="M724.1,195.3c-3.3-3.2-5-7.4-4.8-12.1c0.1-2.2-3.1-2.3-3.2-0.1c-0.2,5.5,1.8,10.8,5.7,14.5
					C723.3,199.1,725.7,196.8,724.1,195.3z"/>
			</g>
			<path class="st1" d="M768.9,168c-0.8-1.1-1.9-2.2-3-3.3c1-1.2,1.1-3.2-0.6-4.1c-7.9-4.5-12.9-12.5-17.7-20.4
				c-1.1-1.8-3.1-1.6-4.3-0.6c-0.2-1.5-0.2-3.1,0-4.9c0.2-1.4-0.4-2.4-1.2-3.1c0.3-0.8,0.5-1.6,0.6-2.4c0.2-1.5-14.6-3.1-15.6-3.4
				c0.1-0.5,0.2-0.9,0.3-1.4c0.6-3.6-4.5-5.3-5.1-1.6c-0.2,1.3-0.5,2.5-0.9,3.7c-2.4,1.5-4.8,3-7.2,4.5c-2.6,0.3-5.8,1.3-7.6,3.1
				c-0.7-1-2.1-1.7-3.4-1c-1.8,0.9-3.6,1.7-5.4,2.6c0,0-0.1,0-0.1,0.1c0,0,0,0,0,0c-0.2,0.1-0.3,0.2-0.5,0.2
				c-0.9-0.7-2.1-0.9-3.2,0.2c-0.8,0.8-1.6,1.7-2.3,2.5c-4.5,2.1-9,4.3-13.4,6.4c-1,0.5-1.4,1.4-1.4,2.4c-0.4,0.1-0.8,0.3-1.1,0.7
				c-3.5,4.5-5.2,8.9-5.1,14.2c-0.8,1.5-1.5,3.1-2.2,4.7c-3.7,2.6-6.1,8.3-3.2,11.5c-1.4-0.6-3.1,0.4-3.6,2c-1.6,0.1-3.3,2-2.4,4.2
				c0.1,0.3,6.7-0.1,6.8,0.2c0.1,0.4,16.1-42.7,72-47.9c-0.1,17,18.2,22.9,27,34.7C767.2,174.8,771,170.9,768.9,168z"/>
			<path class="st7" d="M955.5,334.2v24.8H497.8v-27.6c45.5-27.7,98.6-48.1,156.8-48.3h0c3.9,0,7.8-1.2,11.7-1.7c0.1,0,0.1,0,0.2,0
				c0,0,0.1,0,0.1,0c0,0,0.1,0,0.1,0c0,0,0.1,0,0.1,0c0.9-0.1,1.8-0.2,2.7-0.3c0,0,0.1,0,0.1,0c0.6-0.1,1.2-0.1,1.8-0.2
				c0.1,0,0.2,0,0.3,0c0,0,0,0,0,0c0,0,0,0,0,0c0,0,0,0,0,0c0,0,0,0,0,0c3.1-0.3,7.4,2.5,11.9,5.8h0c6.6,5,13.8,11.2,18.6,10.9
				c2.2-0.1-1-5.1,33.1-4.4c2.3,0,0.6-4.8,8-4.7c1.2,0,2.9-8.3,4.5-12.2c0.5-1.1,0.9-1.8,1.3-1.9c0,0,0,0,0,0c0,0,0,0,0,0
				c0.1,0,0.2,0,0.2,0c0.4,0,0.9,0,1.3,0c0.2,0,0.4,0,0.6,0h0.1c7.6,0.3,16.8,1.1,27.1,1.4h0.1c0,0,0.1,0,0.2,0h0
				c54.6,1.6,100.8,18.5,102.7,19.2c4.3,1.6,8.6,3.3,12.9,5c2.4,1,4.8,2,7.1,3.1c0.3,0.1,0.6,0.3,0.9,0.4c2.3,1.1,4.7,2.2,7,3.3
				c0.5,0.2,0.9,0.5,1.4,0.7c0.7,0.4,1.4,0.7,2.2,1.1c2.2,1.1,4.4,2.2,6.6,3.4c0,0,0,0,0,0c0.5,0.3,1,0.5,1.4,0.8
				c0.2,0.1,0.4,0.2,0.7,0.4c0.5,0.3,1,0.6,1.5,0.8c0.9,0.5,1.8,1,2.7,1.5c1.7,1,3.4,1.9,5,2.9c0.9,0.5,1.8,1.1,2.7,1.6
				c0.6,0.4,1.3,0.8,1.9,1.2c0.9,0.5,1.7,1.1,2.6,1.6c0.3,0.2,0.5,0.3,0.8,0.5c1.8,1.1,3.7,2.3,5.5,3.5c0.3,0.2,0.6,0.4,0.8,0.6
				c0.4,0.3,0.9,0.6,1.3,0.8C949.4,330,952.5,332.1,955.5,334.2z"/>
			<path class="st6" d="M783.1,286.6c0,15.9-28.9,28.9-64.6,28.9c-35.7,0-64.6-12.9-64.6-28.9c0-1.2,0.2-2.3,0.5-3.5
				c12.9-2.1,26.5-3.6,40.7-4.5c2.2-0.1-0.4-5.1,33.7-4.5c5.1,0.1,23.9-0.4,49.5,1.6C781.4,279.1,783.1,282.7,783.1,286.6z"/>
			<path class="st1" d="M749.6,232c-7.8,6.2-16.9,9-26.4,8.4c-2.2-0.1-2.3,3.6-0.1,3.8c10.5,0.6,20.4-2.7,28.9-9.4
				C753.8,233.3,751.4,230.6,749.6,232z"/>
			<path class="st1" d="M557.1,359.1c5.6-12.2,12.9-23.4,21.7-33.3c2.3-2.6-1.3-6.5-3.6-3.9c-9.8,11-17.8,23.6-23.8,37.2H557.1z"/>
		</g>
		<path class="st2" d="M1207.1,700.4H969.7V35.2H1164c23.8,0,43.1,19.3,43.1,43.1V700.4z"/>
		
			<ellipse transform="matrix(0.7071 -0.7071 0.7071 0.7071 236.3702 733.6339)" class="st3" cx="1003.8" cy="81.5" rx="19" ry="19"/>
		
			<ellipse transform="matrix(0.2298 -0.9732 0.9732 0.2298 608.9242 1106.8741)" class="st3" cx="1003.8" cy="168.7" rx="19" ry="19"/>
		<ellipse transform="matrix(0.7071 -0.7071 0.7071 0.7071 112.9941 784.7379)" class="st3" cx="1003.8" cy="256" rx="19" ry="19"/>
		
			<ellipse transform="matrix(0.2298 -0.9732 0.9732 0.2298 439.1116 1241.2671)" class="st3" cx="1003.8" cy="343.2" rx="19" ry="19"/>
		
			<ellipse transform="matrix(0.7071 -0.7071 0.7071 0.7071 -10.3819 835.842)" class="st3" cx="1003.8" cy="430.5" rx="19" ry="19"/>
		<path class="st3" d="M1087.1,69.7h-48.9c-2.1,0-2.3,3.3-0.1,3.3h48.9C1089.1,73,1089.2,69.7,1087.1,69.7z"/>
		<path class="st3" d="M1123.7,80.5h-86.2c-2.1,0-2.3,3.3-0.1,3.3h86.2C1125.8,83.9,1125.9,80.5,1123.7,80.5z"/>
		<path class="st3" d="M1111.5,91.4h-72.8c-2.1,0-2.3,3.3-0.1,3.3h72.8C1113.6,94.7,1113.7,91.4,1111.5,91.4z"/>
		<path class="st3" d="M1087.1,417.9h-48.9c-2.1,0-2.3,3.3-0.1,3.3h48.9C1089.1,421.3,1089.2,417.9,1087.1,417.9z"/>
		<path class="st3" d="M1087.1,328.6h-48.9c-2.1,0-2.3,3.3-0.1,3.3h48.9C1089.1,331.9,1089.2,328.6,1087.1,328.6z"/>
		<path class="st3" d="M1123.7,429.3h-86.2c-2.1,0-2.3,3.3-0.1,3.3h86.2C1125.8,432.7,1125.9,429.3,1123.7,429.3z"/>
		<path class="st3" d="M1111.5,439.6h-72.8c-2.1,0-2.3,3.3-0.1,3.3h72.8C1113.6,443,1113.7,439.6,1111.5,439.6z"/>
		<path class="st3" d="M1098.7,341.7h-60.6c-2.1,0-2.3,3.3-0.1,3.3h60.6C1100.8,345.1,1100.9,341.7,1098.7,341.7z"/>
		<path class="st3" d="M1113.7,354.8h-75.6c-2.1,0-2.3,3.3-0.1,3.3h75.6C1115.8,358.2,1115.9,354.8,1113.7,354.8z"/>
		<path class="st3" d="M1082.3,153.9h-48.9c-2.1,0-2.3,3.3-0.1,3.3h48.9C1084.3,157.3,1084.5,153.9,1082.3,153.9z"/>
		<path class="st3" d="M1094,167.1h-60.6c-2.1,0-2.3,3.3-0.1,3.3h60.6C1096,170.4,1096.1,167.1,1094,167.1z"/>
		<path class="st3" d="M1109,180.2h-75.6c-2.1,0-2.3,3.3-0.1,3.3h75.6C1111,183.5,1111.1,180.2,1109,180.2z"/>
		<path class="st3" d="M1086.2,241.2h-48.9c-2.1,0-2.3,3.3-0.1,3.3h48.9C1088.3,244.5,1088.4,241.2,1086.2,241.2z"/>
		<path class="st3" d="M1098.7,264.8h-60.6c-2.1,0-2.3,3.3-0.1,3.3h60.6C1100.8,268.1,1100.9,264.8,1098.7,264.8z"/>
		<path class="st3" d="M1112.9,252.6h-75.6c-2.1,0-2.3,3.3-0.1,3.3h75.6C1114.9,256,1115.1,252.6,1112.9,252.6z"/>
		<g>
			<path class="st8" d="M249.2,188.6c-0.4,2.9-7.5,95.7-7.5,95.7l-41.4-7.6l5.7-91.4L249.2,188.6z"/>
			<path class="st8" d="M236.1,76.5l1.1,4.2l4.5,17.6l3.7,14.7l25.8,148.9l70.6,25.4c0,0,0.6-3.2,1.4-8.9
				c5.8-42.4,23-220.2-100.2-203C240.7,75.7,238.4,76.1,236.1,76.5z"/>
			<path class="st9" d="M210.5,172.3c12.5,36,45.8,53.3,77,42.5c31.1-10.8,48.3-45.8,35.8-81.7c-12.5-36-47.5-55.1-78.6-44.3
				C213.5,99.6,198,136.3,210.5,172.3z"/>
			<polygon class="st9" points="235,257.4 265.2,268.7 298.5,257.5 298,200.4 239.3,185.4 237.9,208.8 237.8,210.7 237.8,211.1 
				237.7,211.5 237.6,213.9 237.6,214.1 			"/>
			<path class="st1" d="M264.7,140.6c2.3,4.3,5.4,7.9,9.3,10.7c2.2,1.5,0,4.8-2.2,3.3c-4.5-3.2-8.1-7.4-10.7-12.3
				C260,139.8,263.5,138.2,264.7,140.6z"/>
			<path class="st1" d="M269,183.6c8.2,2.6,17.9-0.4,23.8-7.2c2-2.3-1.7-4.5-3.6-2.2c-4.5,5.2-11.9,7.4-18.2,5.4
				C268.2,178.8,266.2,182.8,269,183.6z"/>
			<path class="st8" d="M293.6,115.8c-3.6,0.6-15.2,2.5-16.6,1.6c-1.3-0.8-1.8-2.4-1.4-3.8c0.9-3.2,5.4-4,8-4.3
				c3.4-0.4,6.8-0.1,10.1,1c0.9,0.3,1.4,1,1.6,1.8C296,113.4,295.5,115.5,293.6,115.8z"/>
			<path class="st8" d="M225.1,140.3c3.3-1.7,13.7-7,14.3-8.5c0.6-1.4,0.1-3-1.1-4c-2.6-2.1-6.7-0.1-9,1.2c-3,1.7-5.6,4-7.5,6.8
				c-0.6,0.8-0.6,1.7-0.2,2.4C221.8,139.8,223.4,141.1,225.1,140.3z"/>
			<path class="st10" d="M237.8,211.1c8.8,3.6,18.4,5.3,28,4.7c1.4-0.1,1.3-2.3-0.1-2.2c-9.5,0.6-19-1.1-27.8-4.8l-0.1,1.9
				L237.8,211.1z"/>
			<path class="st1" d="M288,132.7c3.2-1.8,5.3,2,5.3,4.9c0.1,1-0.1,2-0.8,2.8c-1.1,1.3-3.1,1.3-4.3,0.1
				C286.3,138.9,285.3,134.2,288,132.7z"/>
			<path class="st11" d="M231.9,85.7l9.8,12.6c110.2-31,81.6,164.4,81.6,164.4l19.8,15.7c5.8-42.4,23-220.2-100.2-203l-5.7,5.3
				L231.9,85.7z"/>
			<path class="st1" d="M238.8,150.1c2.7-2.4,5.6,0.8,6.2,3.7c0.3,1,0.3,2-0.2,2.9c-0.8,1.5-2.7,1.9-4.1,1.1
				C238.5,156.4,236.5,152.1,238.8,150.1z"/>
			<path class="st9" d="M169,284l2.7,10.3l2.4,9.4l0.1,0.3l6.1,23.5l8.1,31.5h159.7l15.8-71.2l1.9-8.6c0,0-4.3-2.6-12.3-6.2v0
				c-0.1-0.1-0.3-0.1-0.5-0.2c-2.6-1.1-5.5-2.3-8.7-3.5c-5.9-2.2-12.9-4.6-21-6.7c0,0,0,0,0,0c-5.6-1.5-11.8-2.8-18.4-4
				c-2.2-0.4-4.5-0.7-6.7-1.1c-8.1-1.2-16.8-2-26-2.3c-0.7,0-1.4,0-2.1-0.1c-9-0.2-17.8-0.1-26.1,0.3c-3,0.1-6,0.3-8.9,0.5
				c-1.7,0.1-3.4,0.3-5,0.4c-4.1,0.3-8,0.7-11.8,1.2c0,0-0.1,0-0.1,0c0,0-0.1,0-0.1,0c-5.9,0.7-11.5,1.4-16.7,2.2
				c-1.1,0.2-2.3,0.4-3.4,0.5c-0.8,0.1-1.7,0.3-2.5,0.4c-3.9,0.6-7.5,1.3-10.8,1.9c-1.1,0.2-2.1,0.4-3.2,0.6c-0.5,0.1-1,0.2-1.5,0.4
				c-0.9,0.3-1.7,0.6-2.5,1c-2.5,1.2-4.7,3.1-6.2,5.4h0C168.8,274.1,167.7,279.1,169,284z"/>
			<path class="st4" d="M76.5,359.1h347.6c-1.6-17.3-12.1-65.6-79.8-90.2c-6.5-2.4-13.4-4.5-21-6.4c-5.8-1.4-18.4-3.8-24.8-5
				c-0.5,0.3-6.6,3.4-15.7,5.3h0c-2,0.4-4.1,0.8-6.4,1h0c-9.2,1.1-20.6,0.6-32.9-3.9c-2.8-1-5.6-2.3-8.5-3.8c0,0-1.8,0-5,0.3
				c-2.9,0.2-6.9,0.6-11.8,1.3c0,0-0.1,0-0.1,0c0,0-0.1,0-0.1,0c-4.8,0.7-10.5,1.7-16.8,3.2c-1,0.2-2.1,0.5-3.1,0.7
				c-0.8,0.2-1.6,0.4-2.4,0.6c-5,1.3-10.2,2.9-15.7,4.7c-0.8,0.3-1.7,0.6-2.5,0.9c-2,0.7-4.1,1.5-6.2,2.3h0
				c-3.1,1.2-6.3,2.6-9.5,4.1C130.9,288.5,97.2,313.9,76.5,359.1z"/>
			<path class="st11" d="M156,359.1h84.4c-1.5-12.5-5-41.8-8.2-76.5c-0.8-8.4-1.5-17.2-2.2-26.1c0,0,0-0.1,0-0.1
				c-1.4-18.8-2.6-38.3-3.1-56.9c-0.1-4.2-0.2-8.4-0.3-12.6c-0.2-17.7,0.2-34.3,1.6-48.2c0.3-3.4,0.7-6.6,1.2-9.7
				c2.3-15.6,6.2-26.8,12.4-30.7v0l-2-7.7l-2.5-9.9l-1.1-4.2c0,0-33.3,3.7-53.4,46.3c-8.6,18.2-16,91.1-20.8,151.4
				c-0.8,9.5-1.5,18.7-2.1,27.3c-0.1,1.8-0.2,3.5-0.4,5.2c0,0.1,0,0.2,0,0.3c-0.1,1.2-0.2,2.4-0.2,3.5c-0.1,1.2-0.2,2.3-0.2,3.4
				c-0.4,6.1-0.8,11.9-1.2,17.1c0,0,0,0,0,0c-0.1,2.2-0.3,4.2-0.4,6.2C156.6,348.1,156.1,355.8,156,359.1z"/>
			<path class="st1" d="M151,315.9c10.2-11.5,21-22.3,32.4-32.6c6-5.4,12.2-10.6,18.5-15.6c3.9-3.1,9.7-9.6,15.3-8.4
				c2.6,0.5,4.3,2.4,4.6,4.5c2.7,4.4,5.4,8.8,8.1,13.3c1.4,2.3-2,4.7-3.4,2.4c-2.2-3.6-4.3-7.1-6.5-10.7c-1,1-2.2,2-3.4,2.9l7,10.4
				c1.5,2.2-1.9,4.7-3.4,2.4c-2.3-3.5-4.7-7-7-10.5c-0.4,0.3-0.8,0.5-1.1,0.8c-1.3,1-2.7,2-4,3c2.4,3.3,4.7,6.5,7.1,9.8
				c1.6,2.2-1.8,4.6-3.4,2.4c-2.4-3.2-4.7-6.5-7.1-9.7l-3.2,2.4c-0.6,0.5-1.2,0.9-1.8,1.4c2.5,3.3,5,6.5,7.6,9.8
				c1.6,2.1-1.7,4.6-3.4,2.4l-7.5-9.7c-1.5,1.2-3.1,2.3-4.6,3.5c2.5,3.3,4.9,6.6,7.4,9.8c1.6,2.1-1.8,4.6-3.4,2.4
				c-2.5-3.3-4.9-6.5-7.4-9.8c-4.7,3.6-9.5,7.2-14.2,10.8c-1.6,1.4-3.1,2.8-4.7,4.1c-0.5,0.4-1,0.5-1.4,0.5c-2.5,1.9-5,3.8-7.4,5.7
				c-0.8,0.6-1.7,0.5-2.3,0.1c-1.4,1.5-2.8,3.1-4.2,4.7C152.5,320.6,149.3,318,151,315.9z"/>
			<path class="st9" d="M107.2,359.1h52.4c0.5-0.4,1.1-0.9,1.8-1.4c7.1-5.7,14-12.6,16.4-22.4c0.5-1.9,1.4-4.6,2.5-7.7
				c3.3-9.7,7.8-23.1,1.7-24.4c-2.6-0.5-5.2,0-7.8,0.9c-0.2,0.1-0.4,0.2-0.6,0.2h0c-1.4,0.5-2.8,1.1-4.1,1.7c-3,1.3-6,2.8-8.8,4.5
				c-0.5,0.1-1,0.2-1.5,0.3c-1.3,0.3-2.6,0.6-3.9,0.9c-0.1,0-0.2,0.1-0.4,0.1h0c-13.9,3.9-26.5,12.8-35.9,25
				c-0.4,0.5-0.6,0.8-0.7,0.9c0,0,0,0,0,0c-4.6,6.2-8.4,13.3-11,20.9C107.2,358.8,107.2,358.9,107.2,359.1z"/>
			<path class="st9" d="M165.2,300.8c0,0-20.8,23.1-26.5,26.8c-5.7,3.7-20.4,10.1-20.4,10.1S144.1,301.2,165.2,300.8z"/>
			<path class="st11" d="M193.9,301.2c3.1-4.3,8.7-5.4,12.7-8.6c8-6.3,10.7-17.9,21.8-20.2c2.4-0.5,3.6,2.7,1.8,3.7
				c0.2,0.2,0.4,0.3,0.7,0.5c0.8,0.6,0.8,1.7,0.4,2.5c-3.9,8.6-8.2,16.9-12.9,25c-1.4,2.3-5.1,0.4-3.7-1.9c3.6-6.1,6.9-12.4,10-18.7
				c0,0,0,0,0,0c0,0.1,0,0.1-0.1,0.1C219,294.3,209,301,199,307.3c-1.3,0.8-2.7-0.1-3.1-1.3c-0.2,1-0.1,2,0.6,3.2
				c1.3,2.3-2.2,4.5-3.5,2.2C191,308,191.6,304.4,193.9,301.2z"/>
			<path class="st1" d="M156.7,327.9c1.7,5.8,3.9,11.4,6.6,16.8c0.7,1.4-1.4,2.8-2.1,1.3c-2.8-5.6-5.1-11.4-6.9-17.4
				C153.8,327.1,156.2,326.4,156.7,327.9z"/>
			<path class="st1" d="M210.6,139.2c0.2-1.6,2.6-1,2.4,0.6c-2.7,22.9-3.6,45.9-2.6,68.9c0.1,1.6-2.4,1.7-2.5,0.1
				C206.9,185.5,207.8,162.2,210.6,139.2z"/>
			<path class="st1" d="M208.4,221.2c0-1.6,2.5-1.7,2.5-0.1c-0.2,8,0.4,15.9,1.7,23.8c0.3,1.6-2.1,2.3-2.4,0.7
				C208.9,237.6,208.2,229.4,208.4,221.2z"/>
			<path class="st1" d="M192.6,186.6c0.1-1.6,2.6-1.7,2.5-0.1c-1.6,26.6-0.4,53.3,3.7,79.6c0.2,1.6-2.3,1.6-2.5,0.1
				C192.3,239.9,191.1,213.2,192.6,186.6z"/>
			<path class="st1" d="M202.9,122c0.5-1.5,2.9-1,2.4,0.6c-4.6,15.4-7.5,31.2-8.8,47.3c-0.1,1.6-2.6,1.7-2.5,0.1
				C195.3,153.7,198.3,137.7,202.9,122z"/>
			<path class="st1" d="M177.8,228.7c0-1.6,2.5-1.7,2.5-0.1c-0.1,16.8-0.2,33.6-0.3,50.4c0,1.6-2.5,1.7-2.5,0.1
				C177.6,262.3,177.7,245.5,177.8,228.7z"/>
			<path class="st1" d="M211.5,300.7c2.3,16.4,4.7,32.8,7,49.2c0.2,1.6-2.3,1.7-2.5,0.1c-2.3-16.4-4.7-32.8-7-49.2
				C208.8,299.2,211.3,299.1,211.5,300.7z"/>
			<path class="st1" d="M200.9,311.2c1.7,10.7,3.3,21.4,5,32.1c0.2,1.6-2.3,1.6-2.5,0.1c-1.7-10.7-3.3-21.4-5-32.1
				C198.1,309.7,200.6,309.6,200.9,311.2z"/>
			<path class="st1" d="M337.3,188.2c2,15.9,2.3,32,0.9,48c-0.1,1.6-2.6,1.7-2.5,0.1c1.4-16,1-32-0.9-48
				C334.6,186.7,337.1,186.6,337.3,188.2z"/>
			<path class="st1" d="M326,135.3c3.8,10.4,6.5,21.1,8.2,32c0.2,1.6-2.3,1.6-2.5,0.1c-1.7-10.7-4.4-21.2-8.1-31.4
				C323,134.5,325.4,133.8,326,135.3z"/>
			<path class="st1" d="M225.8,83.2c4.4,0.8,8.3,2.6,11.9,5.2c1.3,1-0.4,2.8-1.7,1.8c-3.2-2.4-6.8-3.9-10.7-4.7
				C223.6,85.3,224.2,82.9,225.8,83.2z"/>
			<path class="st1" d="M211.5,103.4c2-4.7,4.8-8.9,8.5-12.4c1.2-1.1,3,0.6,1.8,1.7c-3.5,3.4-6.2,7.3-8.1,11.8
				C213.1,106.1,210.9,104.9,211.5,103.4z"/>
			<path class="st1" d="M368.1,293.8c0.5-1.5,2.9-1,2.4,0.6c-3.2,10.9-4.8,22.1-4.6,33.5c0,1.6-2.5,1.7-2.5,0.1
				C363.3,316.3,364.8,304.9,368.1,293.8z"/>
			<path class="st1" d="M145.8,287.1c1.2,3.9,1.8,7.9,1.7,12c0,1.6-2.5,1.7-2.5,0.1c0.1-3.9-0.5-7.6-1.6-11.4
				C143,286.3,145.4,285.5,145.8,287.1z"/>
			<path class="st1" d="M268.4,273.9c12.5-0.7,24.7-3.2,36.4-7.6c1.5-0.6,2.2,1.8,0.7,2.4c-11.9,4.4-24.4,7-37.1,7.7
				C266.9,276.5,266.8,274,268.4,273.9z"/>
			<path class="st1" d="M242.9,267.9c3.8,2.9,8.2,4.6,13,4.9c1.6,0.1,1.7,2.6,0.1,2.5c-5.5-0.4-10.4-2.3-14.7-5.6
				C240,268.7,241.7,266.9,242.9,267.9z"/>
		</g>
		<g>
			<path class="st10" d="M323.6,553.8c-0.7-5.1-4.1-9-6.1-13.3c-12.7-27.3-19-60.5-20.8-71.7c-2.2-13.3-10.6-24.3-22-26.5
				c-0.3-0.1-0.5-0.1-0.8-0.1c-5.5-0.9-11.1,0.4-15.9,3.4c-1.3-0.5-2.6-0.8-3.9-1c-10.4-1.7-21.2,3.8-28.5,12.8
				c-9.9,12-10.2,30.5-13.1,46.7c-1.5,8.4-15.5,48.2-15.9,52.9c-0.2,1.8-0.2,3.8,0,5.7c0.6,5.4,2.9,10.6,7.4,12.7
				c1.3,0.6,2.6,0.8,3.9,0.6c0.5-0.1,1.1-0.2,1.6-0.3c1-0.3,2-0.6,2.9-1c1.5-0.6,3.1-1.4,4.7-1.4c1.9,0,3.3,1.5,4.9,2.6
				c4.8,3.5,10.5,4.6,16,3.6c5.6-1,10.8-4.4,14.6-9.5c0.3,0,0.7-0.2,1-0.5c3.8-3.8,9.3-0.6,12.7,2.4c2.6,2.2,4.9,4.8,7.5,6.9
				c0.5,0.4,1,0.8,1.6,1.2c0.7,0.5,1.5,0.9,2.2,1.3c3.8,1.9,7.9,1.4,11.4-1.2c3.3-2.5,5.8-6.4,9.1-9c1.5-1.2,3.1-2.1,4.9-2.1
				c2.7-0.1,5.2,1.1,7.8,1.6c4,0.9,7.9,0.1,10.6-3.8c0-0.1,0.1-0.1,0.1-0.2C323.6,563,324.2,558.2,323.6,553.8z"/>
			<path class="st12" d="M289.1,500c0,20.3-13.8,34.8-31.5,34.8c-17.7,0-32.5-14.5-32.5-34.8c0-20.3,15.8-51.2,33.5-51.2
				C276.3,448.9,289.1,479.8,289.1,500z"/>
			<polygon class="st12" points="241.6,524.1 241.3,554.5 259.2,560.5 275.4,554.4 273.1,516.1 			"/>
			<path class="st10" d="M238.4,485.3c1.8-0.9,7.5-3.5,7.8-4.4c0.3-0.7,0.1-1.6-0.5-2.1c-1.3-1.1-3.6-0.1-4.8,0.5
				c-1.7,0.9-3.1,2-4.2,3.5c-0.3,0.4-0.3,0.9-0.2,1.3C236.6,485,237.5,485.7,238.4,485.3z"/>
			<path class="st10" d="M276.4,485.4c-1.7-1-7.3-3.9-7.6-4.8c-0.3-0.7,0-1.6,0.6-2.1c1.4-1.1,3.6,0.1,4.8,0.8c1.6,0.9,3,2.2,4,3.7
				c0.3,0.4,0.3,0.9,0.1,1.3C278.2,485.2,277.3,485.9,276.4,485.4z"/>
			<path class="st10" d="M294.8,472.6c-3.4-9.4-9.8-17.8-19-21.8c-0.2-0.3-0.6-0.5-1-0.5c-0.4,0-0.7-0.1-1.1-0.1
				c0-0.9-1.6-2.3-3.2-3.2c1.1-1.4,2.1-2.9,3.1-4.4c2.4-3.7,4.5-8.7,1.6-12.7c-2.2-3-6.4-4.3-9.9-3.3c-4.2,1.1-7.2,4.7-9,8.5
				c-1.8,3.8-2.5,8-2.2,12.2c-6.6,1.4-12.7,4.1-19.5,7.7c-5,2.6-9.5,6.3-12.8,11c-3.7,5.3-5.3,11.7-5.5,18.1c-0.3,8,1.1,16,0.6,24
				c0,0.2,0,0.4,0.1,0.5c-1.3,1.3,0.7,3.5,2.1,2.2c8.3-7.2,9.7-29.1,13.7-38.7c7.8-3.5,36.1-10.6,39.7-16.9
				c1.7,7.5,8.8,14.9,13,21.2c5.8,8.6,8.6,21.3,9.3,32.1c0,0.4,0.2,0.8,0.4,1c0,0.1,0,0.3,0,0.4c-0.1,2,2.9,2.1,3,0.1
				C298.6,497.6,299.1,484.6,294.8,472.6z"/>
			<path class="st12" d="M228.5,508.2c0.7-2.2,0.5-4.5-0.6-6.6c0-0.1-0.1-0.2-0.2-0.3c0.1-0.2,0.2-0.4,0.3-0.7
				c0.4-2.8-2.2-5.2-4.8-5c-3.1,0.3-5,3.2-5.2,6.2c-0.4,5.7,5.1,13.5,11.1,9.4C230.4,510.3,229.7,508.3,228.5,508.2z"/>
			<path class="st12" d="M293.1,496.1c-1.7-1.2-4.3-0.9-5.4,1.1c-0.4,0.8-0.1,1.6,0.4,2c0,0.2-0.1,0.4-0.1,0.6c0,0.1,0,0.2,0,0.3
				c0,0.1-0.1,0.2-0.1,0.4c-0.4,1.3-0.6,2.7-0.8,4.1c-0.2,1.1-0.5,2.3,0.1,3.3c0,0.1,0.1,0.1,0.1,0.2c-0.2-0.1-0.4-0.2-0.7-0.3
				c-1.7-0.9-3.3,1.7-1.6,2.6c2.1,1.2,4.5,1,6.5-0.3c2.3-1.5,3.3-4.1,3.6-6.8C295.5,500.8,295.3,497.6,293.1,496.1z"/>
			<path class="st10" d="M279.1,527.1c-7.7,4.6-16.9,6.1-25.6,4.2c-1-0.2-1.5,1.4-0.5,1.6c9.1,2,18.7,0.5,26.8-4.3
				C280.8,528,280,526.5,279.1,527.1z"/>
			<path class="st10" d="M256.5,490.2c0.1,2.7-0.5,5.2-1.8,7.5c-0.5,1,0.9,1.9,1.4,0.9c1.4-2.6,2.1-5.4,2.1-8.4
				C258.1,489.1,256.5,489.1,256.5,490.2z"/>
			<path class="st10" d="M271.3,490.4c0-0.8-0.6-1.3-1.3-1.4c-1.4-0.2-2.1,1.2-2.1,2.4c0,0.1,0,0.1,0,0.2c0,0.8,0,1.6,0.1,2.4
				c0.2,1,1.1,1.8,2.1,1.4c0.9-0.3,1.2-1.3,1.2-2.1C271.3,492.3,271.3,491.3,271.3,490.4z"/>
			<path class="st10" d="M246.3,489.6c0-0.8-0.6-1.3-1.3-1.4c-1.4-0.2-2.1,1.2-2.1,2.4c0,0.1,0,0.1,0,0.2c0,0.8,0,1.6,0.1,2.4
				c0.2,1,1.1,1.8,2.1,1.4c0.9-0.3,1.2-1.3,1.2-2.1C246.4,491.5,246.3,490.5,246.3,489.6z"/>
			<g>
				<path class="st12" d="M467.7,582.3c-0.2,0.1-0.4,0.1-0.6,0.2c-0.3-0.8-0.9-1.4-1.9-1.4c-1.4,0-2.6,0.2-3.8,0.4
					c-0.4-1-1.4-1.8-2.5-1.5c-5.5,1.5-11,2.3-16.5,2.6c-5.7-0.3-11.4-0.7-17.1-1c5.1-3,11.4-7.5,10.1-11.5c-2-6-11,0.3-13.8,1.7
					c-5.1,2.5-10.9,1.9-16.2,3.9c-3.7,1.4-7.1,3.6-9.9,6.3c-5.5,5.2-8.9,12-10.8,19.2c-0.6,2.3-1.1,4.6-1.5,6.9
					c-0.2,1.5,0.9,2.6,2,2.8c0.2,0.1,0.4,0.3,0.6,0.4c4.4,1.9,8.9,3.5,12.8,6.3c2.8,2,5.5,4.1,8.7,5.4c2,0.8,3.1-1.5,2.4-3.1
					c1.1-4.2,1.8-8.6,3.5-12.2c1.5-3.2,3.8-5.8,7.9-7.3c6.3-2.3,13.5-2.8,20.1-3.7c9.3-1.4,23.5-1.7,28.9-11
					C471,584,469.6,581.9,467.7,582.3z"/>
				<path class="st12" d="M121.9,601c-0.9-5.4-2.3-10.6-4.7-15.4c-1.9-3.9-4.4-7.6-7.7-10.7c-2.9-2.7-6.3-4.9-9.9-6.3
					c-5.3-2-11-1.4-16.2-3.9c-2.8-1.4-11.8-7.7-13.8-1.7c-1.3,4,5,8.5,10.1,11.5c-5.7,0.3-11.4,0.7-17.1,1
					c-5.6-0.3-11.1-1.1-16.6-2.6c-1.1-0.3-2.2,0.5-2.5,1.5c-1.2-0.2-2.4-0.4-3.8-0.4c-1,0-1.6,0.6-1.9,1.4c-0.2-0.1-0.4-0.1-0.6-0.2
					c-1.8-0.4-3.2,1.7-2.3,3.3c5.4,9.3,19.6,9.6,28.9,11c6.6,1,13.8,1.4,20.1,3.7c2.9,1.1,4.9,2.7,6.3,4.7c2.9,4,3.7,9.4,5,14.8
					c-0.8,1.6,0.4,4,2.4,3.1c3.2-1.4,5.9-3.4,8.7-5.4c3.9-2.8,8.4-4.4,12.8-6.3c0.2-0.1,0.4-0.2,0.6-0.4
					C121.1,603.6,122.2,602.5,121.9,601z"/>
				<path class="st12" d="M231.4,553.3c0,0,17.7-1.4,31.6-1.6c14-0.2,24.8,1.6,24.8,1.6s-0.8,15.5-1.4,15.5s-59.6-0.7-60.3-1.3
					C225.3,566.9,231.4,553.3,231.4,553.3z"/>
				<path class="st2" d="M422,609.6c-11.8,41.1-18.3,70.7-27.2,89.2h-76.1c-0.1-0.4-0.2-0.6-0.2-0.6v0.6H201.6l0.1-0.5
					c0,0.1,0,0.3-0.1,0.5h-87.7c-20.9-37.6-29.6-97.9-29.6-97.9l6.2-2.9l26.8-12.4l4.8-2.2l33.6,77.5
					c12.1-100.1,74.2-109.1,75.7-107.4c2.9,3.2,5.9,5.8,8.8,7.7c15.7,10.4,30.9,4.2,39.8-1.5c4.9-3.2,7.8-6.2,7.8-6.2
					c77.1,10.2,69.3,103.1,69.3,103.1l26.4-55.5l1.3,0.3l28.4,6.5L422,609.6z"/>
				<path class="st1" d="M100.6,581.9c-4-3.3-9.2-4.5-14.2-3.2c-1.3,0.3-0.8,2.3,0.4,2c4.6-1.1,9,0,12.7,3
					C100.5,584.5,101.6,582.8,100.6,581.9z"/>
				<path class="st1" d="M408.9,585c-4.6,0.7-8.5,3.2-11.3,7c-0.8,1.1,0.9,2.1,1.7,1.1c2.5-3.4,6-5.5,10.1-6.1
					C410.6,586.8,410.2,584.8,408.9,585z"/>
				<path class="st1" d="M209.7,572c-0.3-1.3-2.3-0.8-1.9,0.5c1.4,5.6,2,11.3,1.6,17.1c-0.1,1.3,1.9,1.4,2,0.1
					C211.7,583.6,211.1,577.8,209.7,572z"/>
				<path class="st1" d="M211.5,598.5c-0.1-1.3-2.1-1.4-2-0.1c0.8,13.4-1.2,26.5-6,39c-0.5,1.2,1.4,1.8,1.9,0.6
					C210.3,625.4,212.3,612.1,211.5,598.5z"/>
				<path class="st1" d="M317,569.1c-0.5-1.2-2.3-0.2-1.8,1c4.5,9.9,4.2,20.9,3.7,31.6c-0.1,1.3,1.9,1.4,2,0.1
					C321.5,590.6,321.7,579.4,317,569.1z"/>
				<path class="st1" d="M322.1,633.3c-0.3-1.3-2.2-0.8-1.9,0.5c1.4,6.9,3.1,14.8-0.4,21.3c-2.9,5.5-8.8,8.5-14.6,9.5
					c-12.3,2.1-24.3-3.8-36.5-3.3c-11.5,0.5-21.8,7.2-33.4,8c-11.9,0.8-24.5-3.7-29.9-15.3c-0.6-1.2-2.3-0.2-1.8,1
					c4.8,10.3,15.3,15.8,26.2,16.4c15.5,0.9,29-9.2,44.3-8c13,1.1,26.9,7.1,39.4,0.5C325.2,657.6,324.5,644.9,322.1,633.3z"/>
				<path class="st1" d="M159.6,675.7c-0.1-1.3-2.1-1.4-2-0.1c0.3,3.1,0.2,6.1-0.3,9.2c-0.2,1.3,1.8,1.4,2,0.1
					C159.8,681.9,159.9,678.8,159.6,675.7z"/>
				<path class="st1" d="M358.8,664.8c-0.1-1.3-2.1-1.4-2-0.1c0.3,4,0.6,8,0.8,12c0.1,1.3,2.1,1.4,2,0.1
					C359.4,672.8,359.1,668.8,358.8,664.8z"/>
			</g>
			<path class="st3" d="M243.1,507.3c0,0,12.6,4.1,28.4,0c0,0,0.6,14.1-15.4,13.8C243.1,521,243.1,507.3,243.1,507.3z"/>
		</g>
		<g>
			<path class="st12" d="M823.5,621.9l-0.5,1.8l-2.6,9.9l-16.1,62.1H683.4l-17.8-80.1c0,0,12.5-6.5,34-11.4c3-0.7,6.1-1.3,9.5-1.9
				c9.4-1.7,20.1-3,32-3.4c10.3-0.3,20.1,0,29.2,0.6c3.3,0.2,6.6,0.5,9.7,0.8c12.6,1.3,23.5,3.1,31.8,4.7c0.6,0.1,1.2,0.2,1.8,0.3
				c5.5,1.1,9.5,5.6,10.3,10.9C824.1,618.2,824,620.1,823.5,621.9z"/>
			<path class="st3" d="M850.2,653.5c2.2,0.5-7.5-39.8-9.5-41c-2.2-1.3-5-2.6-8-3.7c0,0,0,0-0.1,0c-19.6-7.4-52.1-11.3-53.5-8.1
				c-0.3,0.8-9.9,18.3-39.8,18.6c-16.6,0.2-32-2.7-43.2-14.6l-2.2-0.3c-16.1,0.5-25.5,1.6-37.8,5.4l-4.9,13.6l-0.3,1.8l-0.7,4.2v0
				l-11.1,69.9h214.2C852.4,687.1,851.4,672.1,850.2,653.5z"/>
			<path class="st3" d="M659.1,646.4c-6,14.1-9.7,29.1-11,44.4l-0.6,8.4h-70.8c22.2-77.4,79.4-89.5,79.4-89.5L659.1,646.4z"/>
			<path class="st10" d="M654.5,632.2c-2.1-4.1-4.2-8.2-6.2-12.3c-0.7-1.4-2.9-0.3-2.2,1.2c2.1,4.1,4.2,8.2,6.2,12.3
				C653.1,634.8,655.3,633.6,654.5,632.2z"/>
			<path class="st3" d="M910.5,699.2h-74.7l-3.7-28.3L821.1,635l-7.9-25.7c-0.3-1.5-1.3-3-1.1-3.8c0.1-0.4,0.4-0.6,1.1-0.6
				c3-0.1,10.2,0.7,19.5,3.9c0,0,0,0,0.1,0C855.4,616.6,890.9,638.9,910.5,699.2z"/>
			<path class="st10" d="M825.9,614.1l-5.8,12.8c-0.7,1.4,1.4,2.8,2.1,1.3l5.8-12.8C828.7,614,826.6,612.7,825.9,614.1z"/>
			<g>
				<path class="st12" d="M769.2,602.4c-8.4,14.9-17.8,14.9-32,12.4c-6.5-1.1-32.9-1.2-31.7-9c0.7-4.8,3-26.3,3.6-37.8
					c0.1-1.4,0.2-2.8,0.2-4c0.2-3.3,0.5-6,0.8-7.9c0.2-1.2,1.9,7.4,2.1,6.2c0.9-5.2,1.7-10.3,2.5-14.8c0.4-2.4,0.8-4.7,1.2-6.7
					c0.9-5.2,1.6-8.8,2-9.6l49.3-4.5L769.2,602.4z"/>
				<path class="st12" d="M676.8,533.1c2.7,11.5,12.6,15.6,22,11.6c4.5,16.7,15.4,31.5,48.1,31.5c10.6,0,31.1-8,32.6-29.5
					c8.4,2.4,22.9-1.3,22.6-19.9c-0.2-12.7-13.4-16.2-14-16.3c-3.6-52.4-73.3-66.7-89.2-16.6c-1,3.1-4.2,8.9-4.8,19.1
					C684.2,512,673.8,520.4,676.8,533.1z"/>
				<path class="st1" d="M758.6,507.4c5.2-0.6,6.4,8.4,1.2,9C754.5,516.9,753.3,508,758.6,507.4z"/>
				<path class="st1" d="M723.1,507.8c4.9-2,8.5,6.3,3.6,8.3C721.8,518.1,718.2,509.8,723.1,507.8z"/>
				<path class="st1" d="M683.4,528.5c1.4-5.4,7.8-7.7,12-4.6c1.7,1.3,0.1,4.3-1.6,3c-2.3-1.7-5.9-0.8-7.1,2.1
					c-1.4,3.6,2.2,7.7,5.4,7.1c2-0.4,2.8,3.1,0.8,3.5C687.4,540.6,681.8,534.7,683.4,528.5z"/>
				<path class="st1" d="M786.9,535.2c2.6,1.1,6,0,7-3.2c1-3.4-2.2-7-5.3-6.4c-2,0.4-2.8-3.1-0.8-3.5c5-1.1,10.1,4.1,9.3,9.9
					c-0.8,5.6-6.6,8.6-11.1,6.6C784.1,537.8,785,534.3,786.9,535.2z"/>
				<path class="st1" d="M744.4,511.6c0.4,3.9,1.7,7.4,3.8,10.6c1.1,1.7-1.3,3.6-2.5,1.8c-2.4-3.7-3.8-7.8-4.3-12.3
					C741.2,509.6,744.2,509.4,744.4,511.6z"/>
				<path class="st13" d="M793.8,480.9c1.4-4.4,2.6-10.3-0.6-10c-0.5,0-0.8,0.2-1.1,0.5c-1.4-5.6-3.9-8.7-6.1-10.4
					c0.1-0.1,0.1-0.2,0.2-0.4c0.6-1.6,1.2-3.2,1.7-4.8c0.3-1.1,1-2.6,0.4-3.7c-1.4-2.8-4.4,0.9-5.4,2.1c0-2.6-0.2-5.2-0.6-7.8
					c-0.2-1.3-2-1.1-2.4-0.1c-0.8,2.1-1.4,4.3-1.9,6.5c-3.8-6-13-14.8-35.2-17.4c-9.8-4.1-20.7-5.3-31.2-3.5c-1,0.2-1.3,1.7-0.4,2.3
					c0.6,0.3,1.2,0.7,1.8,1c-3.2-0.2-6.4,0.2-9.5,1.2c-1.1,0.3-1.3,1.6-0.4,2.3c0.6,0.5,1.3,0.9,1.9,1.3c-2,0.2-4.3,0.6-5.8,1.8
					c-2,1.6-1.5,3.8,0,5.5c1,1.2,2.1,2.4,3.3,3.6c-3.2,0.9-10.9,3.8-16.8,13.2c-1.2,1.9-1.9,3.8-2.4,5.8c-1.7,4.1-2.6,8.6-2.6,13.1
					c0,1,1.3,1.8,2.1,1c0.2-0.2,0.3-0.4,0.5-0.6c-0.8,3.6-0.8,7.3,0,11c0.3,1.2,2,1.2,2.4,0.1c0.1-0.2,0.1-0.4,0.2-0.6
					c-0.3,2.4-0.3,4.8-0.1,7.3c0.1,1.1,1.2,1.6,2.1,0.9c0.1-0.1,0.3-0.2,0.4-0.3c0.1,0.9,0.2,1.7,0.3,2.6l0.9,8.4l9.9,6.9l1.3-27.7
					c5.8-18.6,29.7-16.9,29.7-16.9l-1.7-2.2l5.5,1.5l-2.4-3.7l8.2,4c0,0,15.2-3,30.6,3.5c15.4,6.5,13.7,43.1,13.7,43.1l6.9-9.1
					c0,0,1.4-4.9,2.1-13.7c0.9-5.4,1.3-10.9,1.2-16.4C794.3,481.5,794.1,481.2,793.8,480.9z"/>
				<path class="st13" d="M729.5,491.3c-5.2-0.3-10.2,1.1-14.4,4.3c-3,2.3,0.4,7.2,3.4,4.8c2.9-2.2,6.3-3.5,9.9-3.3
					C732.2,497.3,733.3,491.5,729.5,491.3z"/>
				<path class="st13" d="M772.5,496.2c-5.3-5.1-12.7-6.7-19.8-4.7c-3.7,1-1.6,6.6,2.1,5.5c5.1-1.4,10.1,0.1,13.9,3.7
					C771.5,503.4,775.3,498.9,772.5,496.2z"/>
				<path class="st1" d="M737.1,578.2c-10.2-0.9-19.7-4.4-28-10.3c0.1-1.4,0.2-2.8,0.2-4c8.2,6.2,17.7,10,28,10.9
					C739.4,575,739.2,578.4,737.1,578.2z"/>
				<path class="st13" d="M759.9,469.5c0.7-0.2,1.4-0.4,2.1-0.7c1-0.4,0.7-2.1-0.4-1.7c-0.9,0.3-1.7,0.6-2.6,0.8
					c-0.5-0.9-0.9-1.5-1.2-1.9c-0.6-0.9-2.1-0.1-1.5,0.8c0.3,0.4,0.6,0.9,0.9,1.5c-4.5,0.7-9.2,0.4-13.8,0.4c-6.4,0-12.8,0.4-19.2,1
					c-0.4-0.4-0.8-0.9-1.3-1.3c-0.8-0.8-2.1,0.4-1.3,1.2c0.4,0.4,0.8,0.8,1.2,1.3c0,0.3,0.2,0.6,0.6,0.6c3.9,4,8.7,8.2,14.3,8.5
					c3.1,0.2,4.2-1.8,4.2-4.1c2.2,2.3,5.1,4.3,8,4.3c2.3,0,2.9-1.7,2.8-3.7c0.8,0.8,1.7,1.5,2.7,2.1c1.4,0.8,4.6,2.2,6.2,1.1
					C764,478.2,761.8,473.2,759.9,469.5z"/>
				<path class="st1" d="M758.2,542.7c-8.1,4.6-17.4,5.3-26.1,2.1c-1.6-0.6-2.3,1.9-0.7,2.5c9.3,3.5,19.4,2.7,28.1-2.3
					C760.9,544.2,759.7,541.9,758.2,542.7z"/>
				<path class="st1" d="M749.5,552.5c-2.7,1-5.3,1.3-8.1,0.9c-1.7-0.2-1.7,2.4-0.1,2.6c3,0.4,6,0,8.8-1
					C751.6,554.5,751.1,551.9,749.5,552.5z"/>
			</g>
			<path class="st12" d="M548.8,550.6c-0.2,8.3,4.9,41.2,7.7,48.8c0.1,0.6,0.2,1.2,0.4,1.8c-9.2,31.8-23.7,68.4-27,98h63.5
				c5.2-28.9,8.5-58.1,9.8-87.4c1.5-2.4,2.6-5.1,3.2-8c1.4-6.5,12.6-37.1,9.8-51.3c-0.6-3.3-4.1-3.5-6.3-1.2
				c-4.7,4.9-7.5,15.9-9.7,22.5c-9-2.5-9.5-31.2-9.7-36.1c-0.3-4.8-0.6-9.6-1.2-14.4c-0.2-1.9-0.7-7.9-2.9-8.5
				c-5-1.3-5.9,17.3-6.2,28c-0.2-3.2-0.7-10.3-1-13.5c-0.3-2.8-1.1-17.7-6.8-15c-4.1,2-2.5,14.9-2.3,18.4l0.2,15.5
				c-3.9-15.2-1.8-30.4-6.5-31.3c-6.1-1.1-4.9,13.4-5,16.7c-0.2,7.1,0,14.2,0.4,21.3c0,0-0.1,0.1-0.1,0.1c-0.1,0.1-0.1,0.1-0.2,0.2
				c-0.5-3.4-1.9-8.9-1.9-12.4c0-4.7,0.2-12.7-2.3-13.2C547.6,528.2,549,544,548.8,550.6z"/>
			<path class="st10" d="M581.2,559.1c-6.8,0.6-13.1,2.8-18.8,6.7c-1.6,1.1-0.2,3.8,1.4,2.7c5.2-3.6,11-5.8,17.3-6.4
				C583,561.9,583.2,558.9,581.2,559.1z"/>
			<path class="st10" d="M587.2,583.8c-2.6,6.2-3.2,12.7-2,19.3c0.4,1.9,3.3,1.2,2.9-0.7c-1.1-6.1-0.4-12,2-17.8
				C590.8,582.8,588,582,587.2,583.8z"/>
		</g>
	</g>
</g>
<g id="Layer_2">
	<g>
		<g id="Layer_3">
			<path class="st14" d="M1403.6,384.7h-278.8c-33.3,0-60.6,27.3-60.6,60.6v49.1h-1.6c-0.5,0-0.9,0.4-0.9,0.9v29.2
				c0,0.4,0.3,0.9,0.9,0.9h1.6V550h-1.6c-0.5,0-0.9,0.4-0.9,0.9v59c0,0.4,0.3,0.9,0.9,0.9h1.6v14.8h-1.6c-0.5,0-0.9,0.4-0.9,0.9v59
				c0,0.5,0.3,0.9,0.9,0.9h1.6v408.2c0,33.3,27.3,60.6,60.6,60.6h278.8c33.3,0,60.6-27.3,60.6-60.6V445.3
				C1464.1,412,1436.9,384.7,1403.6,384.7z"/>
		</g>
		<g id="Layer_4">
			<path class="st2" d="M1408.7,406.6h-44.5c-0.6,0.2-1.8,0.6-2.3,2.5c-0.5,2.6-3.1,23.7-19.8,23.7c-12.5,0-53.7,0-73.6,0
				c0,0-4.3,0-11,0c-19.9,0-61.1,0-73.6,0c-16.7,0-19.3-21.1-19.8-23.7c-0.3-1.9-1.6-2.4-2.3-2.5H1119c-19,0-34.6,15.6-34.6,34.6
				v658.2c0,19,15.6,34.6,34.6,34.6h289.7c19,0,34.6-15.6,34.6-34.6V441.2C1443.3,422.2,1427.7,406.6,1408.7,406.6z"/>
			<g>
				<path class="st15" d="M1283.8,417.9h-43.4c-1.5,0-2.7-1.2-2.7-2.7l0,0c0-1.5,1.2-2.7,2.7-2.7h43.4c1.5,0,2.7,1.2,2.7,2.7l0,0
					C1286.5,416.7,1285.2,417.9,1283.8,417.9z"/>
				<circle class="st15" cx="1307" cy="414.5" r="6"/>
			</g>
		</g>
		<g>
			<path class="st16" d="M1242.2,410.8h43.3c1.6,0,3,1.4,3,3c0,1.6-1.4,3-3,3h-43.3c-1.6,0-3-1.4-3-3
				C1239.1,412.2,1240.5,410.8,1242.2,410.8z"/>
			<path class="st16" d="M1308.4,407.3c3.4,0,6.1,2.7,6.1,6.1c0,3.4-2.7,6.1-6.1,6.1s-6.1-2.7-6.1-6.1
				C1302.3,410,1305,407.3,1308.4,407.3z"/>
		</g>
		<text transform="matrix(1 0 0 1 1129.2312 524.7194)" class="st14 st17 st18">Checkout</text>
		<g>
			
				<ellipse transform="matrix(0.7071 -0.7071 0.7071 0.7071 -89.7078 991.4204)" class="st14" cx="1151.9" cy="604" rx="19" ry="19"/>
			
				<ellipse transform="matrix(0.2298 -0.9732 0.9732 0.2298 214.4995 1653.5059)" class="st14" cx="1151.9" cy="691.2" rx="19" ry="19"/>
			
				<ellipse transform="matrix(0.7071 -0.7071 0.7071 0.7071 -213.0838 1042.5244)" class="st14" cx="1151.9" cy="778.5" rx="19" ry="19"/>
			
				<ellipse transform="matrix(0.2298 -0.9732 0.9732 0.2298 44.687 1787.8988)" class="st14" cx="1151.9" cy="865.7" rx="19" ry="19"/>
			<path class="st14" d="M1235.2,592.2h-48.9c-2.1,0-2.3,3.3-0.1,3.3h48.9C1237.2,595.5,1237.3,592.2,1235.2,592.2z"/>
			<path class="st14" d="M1271.9,603h-86.2c-2.1,0-2.3,3.3-0.1,3.3h86.2C1273.9,606.4,1274,603,1271.9,603z"/>
			<path class="st14" d="M1259.6,613.9h-72.8c-2.1,0-2.3,3.3-0.1,3.3h72.8C1261.7,617.2,1261.8,613.9,1259.6,613.9z"/>
			<path class="st14" d="M1235.2,851.1h-48.9c-2.1,0-2.3,3.3-0.1,3.3h48.9C1237.2,854.5,1237.3,851.1,1235.2,851.1z"/>
			<path class="st14" d="M1246.9,864.2h-60.6c-2.1,0-2.3,3.3-0.1,3.3h60.6C1248.9,867.6,1249,864.2,1246.9,864.2z"/>
			<path class="st14" d="M1261.9,877.4h-75.6c-2.1,0-2.3,3.3-0.1,3.3h75.6C1263.9,880.7,1264,877.4,1261.9,877.4z"/>
			
				<ellipse transform="matrix(0.2298 -0.9732 0.9732 0.2298 -40.2194 1855.0952)" class="st14" cx="1151.9" cy="953" rx="19" ry="19"/>
			
				<ellipse transform="matrix(0.7071 -0.7071 0.7071 0.7071 -398.1479 1119.1805)" class="st14" cx="1151.9" cy="1040.2" rx="19" ry="19"/>
			<path class="st14" d="M1235.2,1027.7h-48.9c-2.1,0-2.3,3.3-0.1,3.3h48.9C1237.2,1031,1237.3,1027.7,1235.2,1027.7z"/>
			<path class="st14" d="M1235.2,938.4h-48.9c-2.1,0-2.3,3.3-0.1,3.3h48.9C1237.2,941.7,1237.3,938.4,1235.2,938.4z"/>
			<path class="st14" d="M1271.9,1039.1h-86.2c-2.1,0-2.3,3.3-0.1,3.3h86.2C1273.9,1042.4,1274,1039.1,1271.9,1039.1z"/>
			<path class="st14" d="M1259.6,1049.4h-72.8c-2.1,0-2.3,3.3-0.1,3.3h72.8C1261.7,1052.7,1261.8,1049.4,1259.6,1049.4z"/>
			<path class="st14" d="M1246.9,951.5h-60.6c-2.1,0-2.3,3.3-0.1,3.3h60.6C1248.9,954.8,1249,951.5,1246.9,951.5z"/>
			<path class="st14" d="M1261.9,964.6h-75.6c-2.1,0-2.3,3.3-0.1,3.3h75.6C1263.9,967.9,1264,964.6,1261.9,964.6z"/>
			<path class="st14" d="M1230.4,676.5h-48.9c-2.1,0-2.3,3.3-0.1,3.3h48.9C1232.5,679.8,1232.6,676.5,1230.4,676.5z"/>
			<path class="st14" d="M1242.1,689.6h-60.6c-2.1,0-2.3,3.3-0.1,3.3h60.6C1244.2,692.9,1244.3,689.6,1242.1,689.6z"/>
			<path class="st14" d="M1257.1,702.7h-75.6c-2.1,0-2.3,3.3-0.1,3.3h75.6C1259.2,706,1259.3,702.7,1257.1,702.7z"/>
			<path class="st14" d="M1234.4,763.7h-48.9c-2.1,0-2.3,3.3-0.1,3.3h48.9C1236.4,767,1236.5,763.7,1234.4,763.7z"/>
			<path class="st14" d="M1246.9,787.3h-60.6c-2.1,0-2.3,3.3-0.1,3.3h60.6C1248.9,790.6,1249,787.3,1246.9,787.3z"/>
			<path class="st14" d="M1261,775.1h-75.6c-2.1,0-2.3,3.3-0.1,3.3h75.6C1263.1,778.5,1263.2,775.1,1261,775.1z"/>
		</g>
	</g>
</g>
</svg>
