<?xml version="1.0" encoding="utf-8"?>
<!-- Generator: Adobe Illustrator 23.0.3, SVG Export Plug-In . SVG Version: 6.00 Build 0)  -->
<svg version="1.1" id="Layer_1" xmlns="http://www.w3.org/2000/svg" xmlns:xlink="http://www.w3.org/1999/xlink" x="0px" y="0px"
	 viewBox="0 0 2222.5 1648" style="enable-background:new 0 0 2222.5 1648;" xml:space="preserve">
<style type="text/css">
	.st0{fill:#6B7A63;}
	.st1{fill:#2C2B3C;}
	.st2{fill:#AC4D4A;}
	.st3{fill:#879673;}
	.st4{fill:#BB595B;}
	.st5{fill:#DBA47D;}
	.st6{fill:#FF7270;}
	.st7{fill:#FF9A80;}
	.st8{fill:#DFCAC7;}
	.st9{fill:#F0DCDA;}
	.st10{fill:#B88982;}
</style>
<g>
	<g>
		<path class="st0" d="M244.6,864.3c0,0-105.3-40.7-80.3-248.9c4.7-39.5,3.8-79.4-3.3-118.5c-14.3-78.7-22.5-214.6,80.1-251.5
			c147-52.9,657.7-83.7,751.3-31.2c93.6,52.5,58.1,189.3,58.1,189.3s-85.7-163.4,17.7-199.6c103.3-36.2,669.7-62.9,738.1-19.4
			c68.4,43.5,50.6,225.4,66,271.2c15.4,45.8,74.8,293.8-56.4,327.1c-131.2,33.3-729.8,54.6-729.8,54.6L244.6,864.3z"/>
		<path class="st0" d="M281.9,800.4c-7.5,2.4-230.4,207.8-217.8,341.5c11.1,117.2,66.5,161.9,161.8,190.9
			c95.3,29,1421.9,102.1,1646.4-62.1s58.9-361.6-26.2-520.5C1761,591.2,281.9,800.4,281.9,800.4z"/>
		<path class="st0" d="M167.4,690.6c0,0-207.3,140.6-160.5,312.4c46.8,171.8,109.8,133.8,109.8,133.8s162.5-104.3,170.1-118.9
			c7.6-14.6,20.2-267.6,20.2-267.6L167.4,690.6z"/>
		<path class="st0" d="M1859.7,619.9c0,0,153.1,112.5,184.4,239c31.2,126.5-92.2,250.7-92.2,250.7s-226.5,2.8-226.5-20.6
			c0-23.4,50.4-419.6,50.4-419.6L1859.7,619.9z"/>
	</g>
	<path class="st1" d="M1837.9,664.5c-45.6,12.5-83,47.3-98.7,91.8c-2.2,6.3,7.7,9.3,10,3c14.5-41,49.1-73.2,91.1-84.7
		C1846.7,672.9,1844.4,662.8,1837.9,664.5z"/>
	<path class="st1" d="M1722.8,796.1c-6,15.4-7.4,31.7-4.5,47.9c1.2,6.6,11.3,4.2,10.1-2.3c-2.7-14.6-1.1-28.9,4.3-42.6
		C1735.3,792.8,1725.3,789.9,1722.8,796.1z"/>
	<path class="st1" d="M1800.4,1001.3c-14.8-26-29.6-52-44.4-78.1c-3.3-5.8-12.5-1-9.2,4.8c14.8,26,29.6,52,44.4,78.1
		C1794.5,1011.9,1803.7,1007.1,1800.4,1001.3z"/>
	<path class="st1" d="M1678.1,817.9c-51.7,27.7-111.6,6.5-165.9,1.3c-28.6-2.8-56.2,0.5-83.9,7.7c-27,7-53.5,16.5-81.1,20.5
		c-28.9,4.2-59.6,2.5-84.6-13.8c-5.6-3.6-11.1,5.2-5.5,8.8c47.3,30.8,105.3,14,155.1-0.3c30.1-8.6,59.8-15.3,91.2-13.3
		c30.8,2,60.9,9.6,91.6,12.3c30,2.6,61,0.4,88-14C1688.8,823.9,1684,814.7,1678.1,817.9z"/>
	<path class="st1" d="M357.9,873.7c-21.3,3.9-42.9-0.8-60.9-12.8c-5.6-3.7-11.1,5.1-5.5,8.8c20.3,13.5,44.7,18.4,68.7,14.1
		C366.8,882.6,364.5,872.5,357.9,873.7z"/>
	<path class="st1" d="M263.1,928.4c-19.8,61.8-62.3,115.2-118.2,148.3c-5.8,3.4-0.9,12.6,4.8,9.2c58.3-34.5,102.6-90,123.3-154.5
		C275.1,925,265.2,922,263.1,928.4z"/>
	<path class="st1" d="M139.9,964.4c-4.8-35.9-41-61.8-76.5-56.4c-6.6,1-4.2,11.1,2.3,10.1c30.2-4.6,59.9,18.7,64,48.6
		C130.7,973.3,140.8,970.9,139.9,964.4z"/>
	<path class="st1" d="M1904.7,805.2c-38.7,4.2-70.3,36.8-74.6,75.2c-0.7,6.6,9.7,6.9,10.4,0.3c3.8-34.1,32.7-61.7,66.6-65.4
		C1913.7,814.6,1911.3,804.5,1904.7,805.2z"/>
	<path class="st1" d="M1640.7,447.2c-6.7-0.2-7,10.2-0.3,10.4c18,0.5,24.6,24.4,7.8,32.6c-15.1,7.4-28.4-9-22.7-23.3
		c2.5-6.2-7.5-9.1-10-3c-9.7,23.9,16.6,47.7,39.2,34.5C1679.1,484.4,1668.1,448.1,1640.7,447.2z"/>
	<path class="st1" d="M1635.4,390.6v31.2c0,6.7,10.4,7,10.4,0.3V391C1645.8,384.3,1635.4,383.9,1635.4,390.6z"/>
	<path class="st1" d="M1680.8,401.4c-4.5,8.2-8.9,16.3-13.4,24.5c-3.2,5.8,5.6,11.4,8.8,5.5c4.5-8.2,8.9-16.3,13.4-24.5
		C1692.8,401.1,1684,395.5,1680.8,401.4z"/>
	<path class="st1" d="M1641.2,543.3c-1.9-6.4-12.1-4.1-10.1,2.3c2.7,8.8,2.7,17.5,0.1,26.3c-1.9,6.4,8,9.4,10,3
		C1644.3,564.5,1644.4,553.7,1641.2,543.3z"/>
	<path class="st1" d="M1278.2,475.5c-4.3-10.5-16.1-15.8-27-13.4c-6.5,1.5-4.2,11.6,2.3,10.1c13.6-3,22,14.7,9.9,22.5
		c-5.6,3.6-0.8,12.8,4.8,9.2C1277.6,497.9,1282.5,486.2,1278.2,475.5z"/>
	<path class="st1" d="M1269.6,404c-0.8,8.2-1.5,16.3-2.3,24.5c-0.6,6.7,9.8,7,10.4,0.3c0.8-8.2,1.5-16.3,2.3-24.5
		C1280.6,397.6,1270.2,397.3,1269.6,404z"/>
	<path class="st1" d="M1316.8,425.1c-1.7-1.9-5.5-2.5-7.4-0.3c-3.7,4.5-7.4,8.9-11.1,13.4c-1.8,2.2-2.4,5.1-0.3,7.3
		c1.7,1.9,5.5,2.5,7.4,0.3c3.7-4.5,7.4-8.9,11.1-13.4C1318.3,430.3,1318.9,427.4,1316.8,425.1z"/>
	<path class="st1" d="M1318.1,525.5c-1.8-8-7.3-14-14.8-17.1c-2.6-1.1-5.7,1-6.5,3.5c-0.9,2.9,0.9,5.4,3.5,6.5
		c3.9,1.7,6.7,5.4,7.6,9.5C1309.4,534.3,1319.6,532,1318.1,525.5z"/>
	<path class="st1" d="M1273,532.6c-6.7,0-7,10.4-0.3,10.4C1279.4,543,1279.7,532.6,1273,532.6z"/>
	<path class="st1" d="M1763.4,214.2c-33.2-12.3-69.6-13.4-103.4-3c-6.4,2-4.1,12.1,2.3,10.1c32.3-9.9,66.5-8.9,98.1,2.9
		C1766.7,226.5,1769.6,216.5,1763.4,214.2z"/>
	<path class="st1" d="M1806.2,293.9c-2.1-6.3-12.2-4-10.1,2.3c4.2,12.7,5.6,25.5,4.3,38.8c-0.6,6.7,9.8,6.9,10.4,0.3
		C1812.1,321.2,1810.6,307.3,1806.2,293.9z"/>
	<path class="st1" d="M1535,1051.2c-108,16.7-217.3,24.6-326.6,23.7c-6.7-0.1-7,10.3-0.3,10.4c110.2,0.9,220.3-7.2,329.2-24
		C1543.9,1060.3,1541.6,1050.2,1535,1051.2z"/>
	<path class="st1" d="M1693.1,1041.2c-19.5,4.3-39.2,5.3-59,3.3c-6.7-0.7-6.9,9.7-0.3,10.4c20.7,2.1,41.4,0.9,61.6-3.6
		C1702,1049.9,1699.6,1039.8,1693.1,1041.2z"/>
	<path class="st1" d="M981,1133.5c-20.8,0.6-41.6,1.1-62.4,1.7c-6.7,0.2-7,10.6-0.3,10.4c20.8-0.6,41.6-1.1,62.4-1.7
		C987.4,1143.7,987.7,1133.3,981,1133.5z"/>
</g>
<path class="st1" d="M1540.4,720.6c-1.7-11.3-6.6-21.5-13.9-30.2c-3.6-4.3-10.1,1.6-6.4,5.9c6.5,7.6,10.3,16.4,11.8,26.2
	C1532.7,728.1,1541.2,726.2,1540.4,720.6z"/>
<g>
	<path class="st2" d="M1921,1114.7c0,0-11.5-24.1,110.1-23c121.6,1.1,123.4,10.3,123.1,13.7c-0.3,3.5-43.2,64.9-44,65.6
		c-0.7,0.7-161.6-38.6-161.9-36.7C1948.1,1136.2,1921,1114.7,1921,1114.7z"/>
	<path class="st3" d="M2177.1,600.6l45.3-171.6c1-3.9-4.2-8.1-7.4-4.6c-66.6,75.6-119.1,163.2-154.1,257.8
		c-2.8,7.6-5.5,15.3-8.1,23.1c-6.2-86.5-26.5-171.9-60-251.9c-11.9-28.3-25.4-55.9-40.4-82.6c-2.1-3.7-8.7-2.8-8.5,2
		c5.2,117.4,10.4,234.8,15.6,352.3c1.2,26.7,2.2,53.6,3.2,80.4c-12.8-29.8-28-58.6-45.9-85.8c-24.9-37.8-54.9-71.9-90-100.6
		c-3.5-2.8-8.6,2.3-6.4,5.9c45.6,73.4,70.6,156.7,90.4,240.3c18.1,76.5,32.3,154,55.2,229.3c2.2,7.2,4.5,14.4,6.8,21.6
		c0.7,2.1,1.4,4.3,2.1,6.4c2.1,6.3,4.3,12.5,6.6,18.8c3.7,10.1,7.6,20.1,11.8,30c0.7,1.8,1.5,3.5,2.2,5.2
		c5.8,13.5,12.1,26.8,18.8,39.9c0.9,1.6,1.7,3.3,2.6,4.9c1.9,3.5,3.8,7,5.7,10.5c0.1,4,0.3,7.9,0.4,11.9c0.2,4.7,6.1,5.8,8.2,2.9
		c0,0.1,0.1,0.1,0.1,0.2c3,4.9,11,0.8,8-4.2c-2.7-4.4-5.3-8.9-7.8-13.4c-0.1-3-0.2-6-0.3-9.1c0-0.9-0.1-1.8-0.1-2.7
		c0.4,0.9,0.7,1.7,1.1,2.6c0.3,0.8,0.7,1.5,1,2.3c2.2,5,9.4,1.6,8.3-3.3c-0.1-0.3-0.2-0.6-0.3-0.9c-0.6-1.3-1.2-2.6-1.7-4
		c-3.3-7.5-6.4-15-9.3-22.6c-0.2-4.6-0.4-9.3-0.6-13.9c-0.1-1.7-0.1-3.4-0.2-5.1c-0.3-6.9-0.6-13.7-0.9-20.6
		c-0.4-7.7-0.8-15.4-1.2-23.1c1.7,8.1,3.4,16.1,5.3,24.1c1.5,6.5,3.1,13,4.9,19.5c0.4,1.7,0.9,3.4,1.4,5.1c0.1,0.4,0.2,0.8,0.3,1.2
		c-0.8,8.2-1.6,16.4-2.2,24.5c-0.3,4.2,4.2,5.4,7,3.7c-0.4,2.3-0.8,4.6-1.2,6.9c-0.3,1.7-0.6,3.5-0.8,5.2c-0.2,1.2-0.4,2.5-0.6,3.7
		c-0.8,5.7,8.2,5.9,9,0.3c0.2-1.7,0.5-3.4,0.8-5.1c0.3-1.7,0.6-3.5,0.9-5.2c2.1-12.2,4.8-24.3,8-36.2c0.5-1.8,0.9-3.5,1.4-5.3
		c1-3.6,2-7.1,3.1-10.6c4.1-13.4,8.7-26.6,13.7-39.7c3.6-9.3,7.4-18.6,11.3-27.8c2.8-6.6,5.7-13.2,8.7-19.7
		c22.5-49.6,47.3-98.3,71.1-147.3c13.9-28.4,27.7-56.8,41.6-85.3c2.2-4.4-2.8-9.1-6.9-5.7c-58.2,48.5-103.3,112.1-131.2,182.4
		c7.8-39.2,16.6-78.2,26-117.1C2123.4,800.2,2150.7,700.5,2177.1,600.6z"/>
	<path class="st4" d="M2154.2,1105.4l-4.1,47.8l-0.5,5.6l-2.6,30.5l-0.5,5.6l-5.4,62.6l-0.5,5.5l-10.4,120.8
		c-83.4,41.1-166.5,2.1-166.5,2.1l-16.8-106.9l-0.8-5.3l-8.6-54.6l-0.8-5.2l-7.7-48.9l-0.9-5.5l-7-44.8c18.7,3.7,36.8,6.2,54,7.7
		c39.5,3.4,74.7,1.8,103.3-1.5C2125.3,1115.5,2154.2,1105.4,2154.2,1105.4z"/>
	<path class="st1" d="M2001.5,1102.2c-23.5-79.7-34.7-162.7-33.2-245.8c0.1-3.3-5.1-3.5-5.1-0.2c-1.5,83.5,9.7,167,33.3,247.1
		C1997.4,1106.6,2002.4,1105.4,2001.5,1102.2z"/>
	<path class="st1" d="M2038.2,866.6c-2.4,51.3-4.7,102.6-7.1,153.9c-0.2,3.3,5,3.5,5.1,0.2c2.4-51.3,4.7-102.6,7.1-153.9
		C2043.5,863.5,2038.3,863.3,2038.2,866.6z"/>
	<path class="st1" d="M2046.4,756.4c-0.2-3.3-5.3-3.5-5.1-0.2c1.2,25.7,0.4,51.4-2.3,77c-0.3,3.3,4.8,3.4,5.1,0.2
		C2046.9,807.8,2047.6,782.1,2046.4,756.4z"/>
	<path class="st1" d="M2060.9,1049.5c-6.4,18-10,36.7-10.8,55.8c-0.1,3.3,5,3.5,5.1,0.2c0.8-18.7,4.3-36.9,10.6-54.5
		C2067,1047.9,2062,1046.4,2060.9,1049.5z"/>
	<path class="st1" d="M1942.6,825c-8.3-40.4-26.2-78.1-52.1-110.2c-2.1-2.6-5.9,0.9-3.8,3.5c25.4,31.4,42.8,68.4,50.9,107.9
		C1938.2,829.4,1943.2,828.2,1942.6,825z"/>
	<path class="st5" d="M2150.1,1153.2l-0.5,5.6c-2.5,0.8-5,1.6-7.5,2.3c-10,3-20.1,5.6-30.3,7.8c-2,0.4-3.9,0.8-5.9,1.2h0
		c-15.1,3-30.4,5.1-45.7,6.3c-7,0.6-14,0.9-21.1,1.1c-3.1,0.1-6.1,0.1-9.2,0.1c-11.4,0-22.8-0.4-34.2-1.3
		c-22.5-1.8-44.9-5.6-66.7-11.3l-0.9-5.5c11.6,3.1,23.4,5.7,35.2,7.7c10,1.7,20.1,3,30.2,3.9c12,1.1,24.1,1.6,36.2,1.5
		c2.7,0,5.4,0,8.1-0.1c8-0.2,15.9-0.6,23.9-1.3c10.5-0.9,21-2.2,31.4-4h0c7.8-1.3,15.5-2.8,23.2-4.6
		C2127.6,1160,2138.9,1156.9,2150.1,1153.2z"/>
	<path class="st5" d="M2147,1189.3l-0.5,5.6c-30.9,11-62.8,18.7-95.2,23c-3.1,0.4-6.1,0.8-9.2,1.1c-0.1,0-0.2,0-0.4,0.1
		c-3.1,0.3-6.2,0.7-9.3,0.9c-0.3,0-0.7,0.1-1,0.1c-4.8,0.4-9.5,0.8-14.3,1.1c-26.5,1.6-53.2,0.9-79.7-2l-0.8-5.2
		c25.9,3,51.9,3.7,77.9,2.3c8.4-0.4,16.8-1.1,25.2-2.1c1.1-0.1,2.1-0.2,3.2-0.4c3.1-0.4,6.2-0.7,9.2-1.2
		C2084.5,1208.3,2116.3,1200.5,2147,1189.3z"/>
	<path class="st5" d="M2141.1,1257.5l-0.5,5.5c-62.5,19.6-128.9,25.1-193.7,16.1l-0.8-5.3
		C2011.3,1283.1,2078.2,1277.6,2141.1,1257.5z"/>
</g>
<g>
	<path class="st6" d="M852.5,239.5c0,0-200.5-63-399.6,56.3c0,0-59,416.3-54,417.8c5,1.4,214.5,50.2,218.9,48.1
		c4.5-2.1,313.5-89,313.5-89s95.1-98.8,89.2-104.7C1014.6,562.1,931.2,326.7,852.5,239.5z"/>
	<path class="st6" d="M1056.2,644.1c4.5-0.2,59.4-100.7,57.9-108.8c-1.5-8.1-92.2-221.9-261.6-295.8c0,0-33.7,95.4-37.5,103.2
		C811.2,350.5,1056.2,644.1,1056.2,644.1z"/>
	<polygon class="st7" points="454.9,1301.9 336.3,1423.1 409.9,1495.8 569.9,1370.2 	"/>
	<path class="st7" d="M299,1045.5l-135.9,93.6c0,0,59.4,84.2,59.2,80.1c-0.1-4.1,190.2-86.8,190.2-86.8L299,1045.5z"/>
	<path class="st5" d="M420.2,758.1c0,0-80.2,243.9,182.8,249.6l-190.4,313.5l130.1,108c0,0,388.6-327.4,423.6-416.8
		c35-89.5,187.9-288.5-320.9-258.8L420.2,758.1z"/>
	<path class="st5" d="M1007.7,660c9.8-1.4,229.7,66.3,206,221.2c-20.5,134-171.1,226.6-435.5,242.6s-396.5,36.1-396.5,36.1
		L266,1058.9l194-140.4L1007.7,660z"/>
	<path class="st8" d="M602.6,727.3l171.7,96.5c5,2.8,10.9,3.5,16.5,2l329.7-91.3c21-5.8,21.4-35.4,0.5-41.8l-189-57.4
		c-3.2-1-6.6-1.2-9.9-0.6l-312.4,52.2C589.4,690.3,584.7,717.2,602.6,727.3z"/>
	<path class="st7" d="M336.3,1423.1c0,0-62.8,12.1,15.7,93.2c78.4,81.1,79.1,128.7,129.6,116.8c50.5-11.9-71.7-137.3-71.7-137.3
		L336.3,1423.1z"/>
	<path class="st7" d="M163.1,1139.2c0,0-52,17.5-17.4,76.5c34.7,59,59.4,132,86.2,139.1c26.7,7.1-1.4-103-9.6-135.5
		C214.1,1186.7,163.1,1139.2,163.1,1139.2z"/>
	<path class="st4" d="M389.4,1559c1.5,1.9,27.9-3.5,55.6-24.1c27.7-20.6,83.5,93.2,47.2,111C455.8,1663.8,389.4,1559,389.4,1559z"/>
	<path class="st4" d="M286.6,1502.4c17.4,21.4,79.1,90.6,185.2,143.3l-11.9-55.4l-70.6-31.2c0,0-82.6-105-103.6-75.9
		C281.6,1488.9,282.1,1496.9,286.6,1502.4z"/>
	<path class="st4" d="M174.8,1297.9c1.3,2,28-1.4,57.2-20c29.2-18.6,76.6,99,39,114.1C233.5,1407.2,174.8,1297.9,174.8,1297.9z"/>
	<path class="st4" d="M76.5,1234c15.8,22.6,72.4,96.1,174.3,156.3l-7.8-56.2l-68.2-36.2c0,0-74.7-110.7-97.8-83.2
		C72.4,1220.2,72.4,1228.2,76.5,1234z"/>
	<path class="st1" d="M743.5,48.9c-14.5-15.2-28-21.5-59.5-21.7C664,4.5,631-5.9,601.8,3.4c-30.7,9.7-50.5,36.2-55.3,67.2
		c-1.5,9.7-2.3,19.8-5.8,29c-3.7,9.9-10.8,16.5-18.9,22.9c-13.3,10.3-25.5,21.3-30.1,38.2c-3.9,14.4-0.9,30,9.5,41.1
		c4.6,4.9,10.5,8.6,17,10.3c9.4,2.4,19.1-0.5,28.7,0.1c22.7,1.3,43.2,14.9,66.3,12.7c14.4-1.4,29-10.8,32.3-24.9
		c7.8,1.8,13.4,1.6,13.8,1.4c0,0,14.5,0,57.4-10.4C786.4,174.1,769.4,76.1,743.5,48.9z"/>
	<path class="st7" d="M786.8,135.6c-2.1,16.7-22.3,25.8-37.6,21.7c-13.4,23-41.1,38.3-67.7,37.4c-16.6-0.6-32-7.1-44.3-17.5
		c-12.6,4.8-26.7,7.6-39,0.3c-10.9-6.5-17.1-19.3-14-32c2.7-11.1,12.2-19.6,22.6-22.8c0.9-0.3,1.9-0.5,2.8-0.7
		c-4-74.8,101.7-106.7,135.6-38.4c2.1,4.3,8.2,11.9,10.9,26.2C771.4,106.9,789.1,117.2,786.8,135.6z"/>
	<path class="st7" d="M655.5,161.2c0,0-22.2,64.1-20.8,82.1c0,0,43.2,23.4,74.9,0c0,0-0.8-68.8,10.4-87.8
		C731.2,136.4,655.5,161.2,655.5,161.2z"/>
	<path class="st1" d="M666.9,126.2c-7.9-2.1-12,10.3-4.1,12.4C670.7,140.7,674.8,128.3,666.9,126.2z"/>
	<path class="st1" d="M718.8,120.4c-3.1-0.9-7.2,0.5-8.1,4.1l-0.2,0.8c-0.8,3.3,0.5,7.2,4,8.3c3.1,0.9,7.2-0.5,8.1-4.1l0.2-0.8
		C723.6,125.3,722.2,121.4,718.8,120.4z"/>
	<path class="st1" d="M775.7,130.2c-3.2-7.5-13.5-9.7-19.5-4.6c-2.5,2.1,0.6,6.1,3.1,4c3.3-2.8,9.1-2.1,11.4,1.8
		c2.9,4.9-2,11.2-7.1,11c-3.2-0.2-3.8,4.9-0.5,5.1C771.6,148,779.3,138.7,775.7,130.2z"/>
	<path class="st1" d="M616.3,158c-3.9,2.1-9.4,1-11.4-3.3c-2.2-4.7,2.2-10.3,7-9.9c3.2,0.3,3.7-4.8,0.5-5.1
		c-7.9-0.7-15,7.5-12.7,15.5c2.2,7.8,11.8,11.1,18.5,7.5C621.1,161.2,619.2,156.5,616.3,158z"/>
	<path class="st1" d="M666.7,106.1c-7.2,0.5-13.3,4.1-17.4,10.1c-2.2,3.2,3.2,5.9,5.3,2.8c2.8-4.1,7.4-6.5,12.4-6.8
		C670.8,111.8,670.5,105.8,666.7,106.1z"/>
	<path class="st1" d="M729.1,105.8c-6.5-4.4-14.4-6.1-22.1-4.9c-3.8,0.6-3.5,6.6,0.3,6c6.9-1.1,13.3,0.3,19.1,4.2
		C729.5,113.3,732.2,107.9,729.1,105.8z"/>
	<path class="st1" d="M697.6,163.4c-4.1,5.6-11.8,6.7-17.2,2.2c-2.2-1.8-5.5,1.2-3.3,3c7.7,6.4,18.3,5.3,24.3-2.8
		C703.1,163.4,699.3,161.1,697.6,163.4z"/>
	<path class="st1" d="M700,144c-2.6-4.5-4.1-9.3-4.4-14.5c-0.2-3.8-6.2-4-5.9-0.2c0.4,6.2,2,12,5.1,17.4
		C696.7,150,701.9,147.3,700,144z"/>
	<path class="st1" d="M704.3,42.3c0,0-20.2,75.8-94.7,79.7c-74.5,3.9,16.4-76,16.4-76L704.3,42.3z"/>
	<path class="st1" d="M700.4,47.7c-0.9,1.5,39.3,28.1,55.7,62.1c0,0-5-32.4-5-35.9c0-3.5-33.7-27.9-33.7-27.9L700.4,47.7z"/>
	<path class="st1" d="M610,1015.2c-58.9-1.4-116.1-24.4-159.4-64.3c-3.5-3.2-9,1.8-5.5,5c43,39.7,99,63.3,157.3,66.4
		c-25.1,31-50.2,61.9-75.2,92.9c-3,3.7,3.3,7.6,6.3,3.9c26.5-32.8,53.1-65.5,79.6-98.3C614.8,1018.6,612.5,1015.2,610,1015.2z"/>
	<path class="st1" d="M967.1,823.5c-3.1-3.6-8.6,1.4-5.5,5c34.3,40,44.4,97.5,26,146.8c-1.7,4.5,5.5,6.6,7.1,2.1
		C1014,925.7,1003.1,865.5,967.1,823.5z"/>
	<path class="st1" d="M966.1,1013.5c-14.3,18.9-28.5,37.8-42.8,56.7c-2.9,3.8,3.4,7.7,6.3,3.9c14.3-18.9,28.5-37.8,42.8-56.7
		C975.3,1013.6,969,1009.7,966.1,1013.5z"/>
	<path class="st1" d="M837.9,957.3c-13.2-8.2-20.7-23.6-18.2-39.2c0.7-4.6-6.4-6.8-7.1-2.1c-3,18.8,5.1,37.4,21.4,47.6
		C838.1,966.1,842,959.8,837.9,957.3z"/>
	<path class="st1" d="M1142.2,884.6c-9.5-7.9-14.7-19-14.1-31.4c0.2-4.8-7.2-5-7.4-0.2c-0.7,14.1,5.1,27.6,16,36.7
		C1140.4,892.7,1145.9,887.7,1142.2,884.6z"/>
	<path class="st1" d="M927.8,433.5c-6.9-46.3-24.7-90.1-51.9-128.2c-2.8-3.9-8.2,1.2-5.5,5c26.4,37,43.4,79.9,50.1,124.8
		C921.3,439.9,928.5,438.2,927.8,433.5z"/>
	<path class="st1" d="M860.1,284.6c-6.3-6.5-12.7-13.1-19-19.6c-3.3-3.4-8.8,1.6-5.5,5c6.3,6.5,12.7,13.1,19,19.6
		C858,293,863.4,288,860.1,284.6z"/>
	<path class="st1" d="M698.4,539c-32.6,25.6-79.2,29.8-115.9,10.4c-4.2-2.2-8.2,4.1-3.9,6.3c39.7,21,89.5,16.5,124.8-11.3
		C707.2,541.5,702.1,536,698.4,539z"/>
	<path class="st1" d="M679.8,192.4c-12.3,0.1-23.9-2.7-34.8-8.5c-2.5-1.3-4.9,2.4-2.4,3.8c11.5,6.1,23.9,9.2,37,9.1
		C682.5,196.9,682.7,192.4,679.8,192.4z"/>
	<path class="st1" d="M193.7,1157.7c-8.7,2-13.4,11.8-9.8,19.9c1.2,2.6,5.1,0.5,3.9-2.1c-2.4-5.5,1.1-12.1,6.9-13.4
		C197.5,1161.4,196.5,1157.1,193.7,1157.7z"/>
	<path class="st1" d="M370.2,1436.3c-9.9,4.8-10.7,19.8-1.6,25.8c2.4,1.6,4.7-2.2,2.4-3.8c-6.4-4.2-5.4-14.8,1.4-18.1
		C374.8,1439,372.8,1435,370.2,1436.3z"/>
	<path class="st7" d="M782.1,718.5c0.3-0.7,0.3-1.5-0.4-2.2c-4.5-4.7-9.7-8.6-15.3-11.6c1.8-0.5,3.5-1.2,5.2-2.2
		c1.5-0.9,1.5-2.9,0.1-3.9c-6.1-4.3-12.7-7.5-19.6-9.5c-31.7-12.3-62.6,15.9-94.1,18.2c-1.1-0.7-2.7-0.6-3.4,0.8
		c-0.5,0.5-0.7,1.2-0.6,1.9c-5.9,18.4-9,37.4-9.3,56.8c0,2.9,4.4,3,4.5,0.1c0-0.4,0-0.7,0-1.1c42.3,20.9,79.4-42.3,120.8-20
		c1,0.6,2,0.2,2.7-0.4l4,2.5c1.7,1,3.7-0.5,3.4-2.4c-1.2-7.5-4.1-14.4-8.5-20.6l9.8-3.6C782.8,720.9,782.8,719.5,782.1,718.5z"/>
	<path class="st9" d="M1234,438.9c-7.7,71.7-21.6,213.2-26.9,268c-1.3,13.4-11,24.5-24.2,27.6l-380,93.2
		c-19.4,4.5-38.1-9.9-38.7-29.8l9.4-279.6c-0.4-15.2,10.2-28.6,25.1-31.7l397.5-81.9C1217.2,400.4,1236.3,417.7,1234,438.9z"/>
	
		<ellipse transform="matrix(9.273779e-02 -0.9957 0.9957 9.273779e-02 330.91 1555.8929)" class="st10" cx="1019.2" cy="596.4" rx="25.9" ry="21.9"/>
	<path class="st6" d="M452.9,295.8c-8.9,7.9-369.2,401.6-171.2,511.4c198,109.8,385.2-29.7,385.2-29.7l0.7-80.4l-202.8-59.6
		l81.3-235.1L452.9,295.8z"/>
	<path class="st1" d="M496.4,324.9c-1.9-4.4-8.5-0.9-6.6,3.4c29.5,67.1,26.2,146.6-8.8,211c-2.3,4.2,4,8.1,6.3,3.9
		C523.6,476.4,527,394.5,496.4,324.9z"/>
	<path class="st1" d="M580.4,653.5c-41.6-30-94.1-42.2-144.7-34.1c-4.7,0.8-3,8,1.7,7.2c48.7-7.8,99.1,4.4,139.1,33.2
		C580.3,662.6,584.2,656.3,580.4,653.5z"/>
	<path class="st1" d="M215.4,302.8c-13.7,23.8-18.8,50.8-15,78c0.9,6.6,11.1,4.2,10.1-2.3c-3.4-24.3,1.5-48.9,13.7-70.1
		C227.6,302.5,218.8,297,215.4,302.8z"/>
	<path class="st6" d="M684.3,23.8c-14.1-1-27.6,2.4-39.4,10.2c-3.2,2.1-0.4,7.4,2.8,5.3c11-7.2,23.3-10.5,36.5-9.5
		C688,30,688.1,24.1,684.3,23.8z"/>
	<path class="st1" d="M667.3,700.3c-4.1,25.1-5.6,50.4-4.3,75.8c0.2,4.8,7.7,5,7.5,0.2c-1.3-24.7,0-49.5,4-73.9
		C675.2,697.7,668,695.5,667.3,700.3z"/>
</g>
</svg>
