<?xml version="1.0" encoding="utf-8"?>
<!-- Generator: Adobe Illustrator 23.0.3, SVG Export Plug-In . SVG Version: 6.00 Build 0)  -->
<svg version="1.1" id="Layer_1" xmlns="http://www.w3.org/2000/svg" xmlns:xlink="http://www.w3.org/1999/xlink" x="0px" y="0px"
	 viewBox="0 0 1980.2 2410" style="enable-background:new 0 0 1980.2 2410;" xml:space="preserve">
<style type="text/css">
	.st0{fill:#F6B338;}
	.st1{fill:#F87D20;}
	.st2{fill:#293135;}
	.st3{fill:#61BFF1;}
	.st4{fill:#3A3A3C;}
	.st5{fill-rule:evenodd;clip-rule:evenodd;fill:#424F54;}
	.st6{fill:#2177F9;}
	.st7{fill:#56C4F5;}
	.st8{fill:#FFFFFF;}
	.st9{font-family:'BrutalType-Bold';}
	.st10{font-size:129.5344px;}
	.st11{letter-spacing:-2;}
	.st12{fill:#293035;}
</style>
<g>
	<path class="st0" d="M543.7,2008.4c52.8,33.2,261.9,254.7,413,401.6h1023.4v-743.1c-112.7-279.6-228.3-567.9-245.2-618.5
		c-16.2-48.8-37.5-95.5-64.1-139.6c-26.8-44.5-58.6-85.8-92.6-125c-33.9-39.1-70.1-76.3-106.5-113.1c-34.5-34.9-71.7-77.4-125-76.8
		c-22,0.3-43.6,9-57.4,26.4c-15.4,19.4-17.5,45.4-13.8,69c3.9,25.5,13.8,49.9,23,73.8c9.7,25.1,20.1,50,30.4,74.9
		c39.8,96.3,79.9,197.1,71.3,303.5c-4,49.3-18.5,98-48,138.1c-24.3,33.1-282.7-263.5-319.1-244.9c-69.2,35.3,78.4,370.5,1.6,379.6
		c5.1-8.9-3.9-23.4-16.3-18.6c-55,21.4-107.3,49.6-155.7,83.4c-85.5,59.7-158.9,137.2-214.5,225.4c-55.8,88.6-94,188-109.6,291.8
		C538,2000.7,540,2006,543.7,2008.4z"/>
	<path class="st1" d="M1431.9,1862.5c8.5,0.1,16.5,6.6,16.5,15.5c0,50.6,6.6,96.3,20.5,144.4c6.9,23.7,15.5,46.9,25.4,69.4
		c0.2,0.4,0.3,0.8,0.5,1c0.1,0.3,0.3,0.6,0.5,1.1c0.5,1,0.9,2,1.4,3c1.4,3,2.8,6,4.3,9c2.7,5.5,5.5,10.9,8.3,16.3
		c6,11.2,12.4,22.3,19.2,33.1c7.2,11.5,14.9,22.7,23,33.6c4.1,5.6,8.4,11,12.7,16.4c0.9,1.1,1.8,2.2,2.7,3.3c0.3,0.3,2,2.4,2,2.4
		c2.5,3,5,5.9,7.6,8.8c5.5,6.3,7.5,16.1,1,22.6c-5.6,5.6-16.7,7.7-22.6,1c-68.4-77.5-114.5-173.8-131.1-275.9
		c-4.8-29.3-7.4-58.8-7.4-88.5C1416.3,1870.6,1423,1862.3,1431.9,1862.5z"/>
	<path class="st1" d="M1414.6,1742.4c8-46,16.1-92,24.1-138c1.4-8.3,11.2-14.2,19.2-12c8.7,2.4,13.5,10.4,12,19.2
		c-8,46-16.1,92-24.1,138c-1.4,8.3-11.2,14.2-19.2,12C1417.9,1759.2,1413.1,1751.3,1414.6,1742.4z"/>
	<path class="st1" d="M1436,1003c6.7-4.2,14.9-1.8,19.3,4.5c3.5,5,5.8,7.8,9,11.4c3.8,4.1,7.8,8,12,11.6
		c8.5,7.3,16.2,12.3,26.8,17.6c19.1,9.5,40,14.1,61.6,13.2c7.6-0.3,14.2,6.1,14.4,13.6c0.2,7.6-6,14.1-13.6,14.4
		c-52.6,2.1-103.9-24-134.1-67C1427.2,1016.1,1429.8,1006.8,1436,1003z"/>
</g>
<path class="st0" d="M19.3,598.5c11.6,17.7,26.7,33,41.9,47.5c16.3,15.5,33.4,30.2,51.2,44c35.1,27.2,72.7,51,112.3,71.1
	c8.5,4.3,19.9-2,19.2-12c-3.9-60.5-2.5-121.3,4.4-181.5c11.8,9.7,28-8.8,16.6-20.5c-33.6-34.4-74.8-60.6-120-76.9
	c-40.6-14.6-90.6-20-124,13.1C-10.4,514.5-2.8,564.5,19.3,598.5z"/>
<g id="Layer_3">
	<path class="st2" d="M1180.3,0H382.6c-95.4,0-173.4,78-173.4,173.4v140.4h-4.7c-1.5,0-2.5,1.2-2.5,2.5v83.5c0,1.2,1,2.5,2.5,2.5
		h4.7V473h-4.7c-1.5,0-2.5,1.2-2.5,2.5v168.9c0,1.2,1,2.5,2.5,2.5h4.7v42.4h-4.7c-1.5,0-2.5,1.2-2.5,2.5v168.9c0,1.5,1,2.5,2.5,2.5
		h4.7v1168c0,95.4,78,173.4,173.4,173.4h797.7c95.4,0,173.4-78,173.4-173.4V173.4C1353.7,78,1275.6,0,1180.3,0z"/>
</g>
<g id="Layer_4">
	<path class="st3" d="M1194.9,62.7h-127.3c-1.7,0.5-5.2,1.7-6.4,7.2c-1.5,7.4-8.9,67.9-56.7,67.9c-35.9,0-153.8,0-210.8,0
		c0,0-12.4,0-31.5,0c-57,0-174.8,0-210.8,0c-47.8,0-55.2-60.4-56.7-67.9c-1-5.4-4.5-6.9-6.4-7.2H366c-54.5,0-99.1,44.6-99.1,99.1
		v1883.5c0,54.5,44.6,99.1,99.1,99.1h829.2c54.5,0,99.1-44.6,99.1-99.1V161.7C1294,107.2,1249.4,62.7,1194.9,62.7z"/>
	<g>
		<path class="st4" d="M837.5,94.9H713.5c-4.2,0-7.7-3.5-7.7-7.7l0,0c0-4.2,3.5-7.7,7.7-7.7h124.1c4.2,0,7.7,3.5,7.7,7.7l0,0
			C845.2,91.4,841.7,94.9,837.5,94.9z"/>
		<circle class="st4" cx="903.9" cy="85.2" r="17.1"/>
	</g>
</g>
<g>
	<path class="st5" d="M718.4,74.5h123.8c4.7,0,8.7,4,8.7,8.7c0,4.7-4,8.7-8.7,8.7H718.4c-4.7,0-8.7-4-8.7-8.7
		C709.7,78.5,713.7,74.5,718.4,74.5z"/>
	<path class="st5" d="M907.9,64.6c9.7,0,17.3,7.7,17.3,17.3s-7.7,17.3-17.3,17.3s-17.3-7.7-17.3-17.3S898.2,64.6,907.9,64.6z"/>
</g>
<g>
	<polygon class="st6" points="377.5,1555.4 377.7,1595.9 470.5,1595.3 470.5,1532.1 	"/>
	<g>
		<g>
			<path class="st2" d="M779.3,585.1c-1.7-0.5-3.3-0.5-5-0.1c-1.7,0.1-3.2,0.6-4.6,1.6c-0.8,0.7-1.6,1.3-2.5,2
				c-1.5,1.6-2.5,3.4-3.1,5.6c-0.1,1.1-0.2,2.2-0.4,3.3c0.1,2.2,0.7,4.3,1.9,6.2l0.5,0.7c0.9,1.3,1.9,2.4,3.2,3.4
				c0.4,18.7,0.7,37.5,1.1,56.2c-6.3,1.8-12.1,5.1-16.9,9.9c-6.8,6.8,3.6,17.5,10.4,10.7c0,0,0.1-0.1,0.1-0.1c1.7,1,3.9,1.4,6,1.1
				l29.9-3.8c6.7-0.8,6.9-10.6,2-13.6c-5.1-3.2-10.8-5-16.6-5.5c-0.4-18.3-0.7-36.7-1.1-55c0.5-0.4,1-0.8,1.5-1.2
				c1.5-1.6,2.5-3.4,3.1-5.6c0.1-1.1,0.2-2.2,0.4-3.3c-0.1-2.2-0.7-4.3-1.9-6.2l-0.5-0.7C785.1,588,782.5,585.9,779.3,585.1z"/>
			<path class="st6" d="M1036.5,820.2c-6.6-8.3-16.4-13.4-26.3-14.1c-0.4-1.3-0.7-2.5-1.2-3.8c-15.4-48.9-56.2-85.4-102.3-104.9
				C859,677.2,806,675,755.3,680.3c-53.2,5.6-108.3,16.8-154,45.7c-19.5,12.3-43.4,38.3-59.4,71.6c-70.5-4.1-58.3,101.5-39.5,124.7
				c8.6,10.6,22.5,16.9,35.6,15c15.2,34.1,41.2,62.4,73.1,82.3c41.8,26.1,91,38.6,139.7,40.7c51.5,2.2,104.3-6.4,150.4-29.8
				c38.5-19.5,71.1-48.9,91.7-86.8c11.6,0.1,23-4,32.5-11.6c15.3-12.2,22.4-31.1,24.2-50.2C1051.5,861.7,1049.8,836.8,1036.5,820.2z
				"/>
			<path class="st7" d="M878.5,744.9c-15.6-2.7-31.5-2.8-47.4-2.5c-20.4,0.4-40.7,0.8-61.1,1.2c-37.9,0.8-81.2,0.7-114.2,23.7
				c-19.4,13.5-35.1,34.5-38.2,57.1c-0.6,2.6-1.2,5.3-1.6,8c-4.9,31.6,9.5,61.8,32.6,82.2c49.8,44,128.5,40.4,191.1,20.6
				c33.5-10.6,67-29,86.9-58.7c15.9-23.8,22.1-55.1,14-81.6C931.8,766.7,907.7,749.9,878.5,744.9z"/>
			<path class="st2" d="M712.3,816c-1.7-0.5-3.3-0.6-5-0.2c-1.7,0.1-3.2,0.6-4.6,1.5c-0.8,0.7-1.7,1.3-2.5,2
				c-1.5,1.6-2.6,3.4-3.2,5.5c-0.1,1.1-0.3,2.2-0.4,3.3c0,2.2,0.6,4.3,1.7,6.3l0.7,1c1.7,2.7,4.4,4.8,7.5,5.7c1.7,0.5,3.3,0.6,5,0.2
				c1.7-0.1,3.2-0.6,4.6-1.5c0.8-0.7,1.7-1.3,2.5-2c1.5-1.6,2.6-3.4,3.2-5.5c0.1-1.1,0.3-2.2,0.4-3.3c0-2.2-0.6-4.3-1.7-6.3l-0.7-1
				C718.1,819,715.4,816.9,712.3,816z"/>
			<path class="st2" d="M863.9,814.8c-1.6-1.5-3.4-2.6-5.5-3.2c-1.1-0.1-2.2-0.3-3.3-0.4c-2.2,0-4.3,0.6-6.3,1.7l-1,0.7
				c-2.7,1.7-4.8,4.4-5.7,7.5c-0.5,1.7-0.6,3.3-0.2,5c0.1,1.7,0.6,3.2,1.5,4.6c0.7,0.8,1.3,1.7,2,2.5c1.6,1.5,3.4,2.6,5.5,3.2
				c1.1,0.1,2.2,0.3,3.3,0.4c2.2,0,4.3-0.6,6.3-1.7l1-0.7c2.7-1.7,4.8-4.4,5.7-7.5c0.5-1.7,0.6-3.3,0.2-5c-0.1-1.7-0.6-3.2-1.5-4.6
				C865.3,816.5,864.6,815.6,863.9,814.8z"/>
			<path class="st2" d="M814.3,868.5c-4.4,13.4-16.9,23.9-31.3,24.5c-14.5,0.6-27.6-8.7-33.2-21.7c-3.5-8.1-15.8-2-12.2,6.1
				c7.8,17.9,26.7,30.2,46.4,29.2c19.7-1.1,37.1-14.9,43.3-33.5C830,864.6,817,860.1,814.3,868.5z"/>
		</g>
		<path class="st6" d="M1188.9,755.1c-9.6-67.9-22.3-135.8-21.4-204.6c0.1-8.4,0.5-16.7,1-25.1c0.3-4.6-3.8-8.6-8.2-8.7
			c-5.1-0.1-8,3.7-8.7,8.2c-1.7,10.9-3.5,21.7-5.2,32.6c-3.6-16.6-7.1-33.2-10.7-49.8c-2-9.4-16.5-8-16.8,1.7
			c-0.4,15.3-0.8,30.6-1.2,46l-13.5-38.2c-1.4-4-4.6-7-9.1-6.5c-3.8,0.4-8,3.9-7.7,8.1c1.9,23.7,3.8,47.4,5.7,71.1l-8.9-13.9
			c-2.3-3.6-6.3-5.6-10.5-4c-3.7,1.4-6.7,5.7-5.4,9.8c27.4,84.8,55.8,172.8,48.2,263.2c-3.3,39.3-13.5,78.5-33,112.9
			c-18.3,32.3-44.7,59.2-77.5,76.8c-19.8,10.6-41.6,17.7-63.8,19.8c-38.5-38.1-99.8-44.5-167.9-44.5c-80.5,0-149,9-182.5,68.7
			c-19.1,14.6-36.5,31.4-52.3,49.5c-26.8,30.7-50.1,64.4-70.3,99.8c-40.6,70.8-68.6,149-82.1,229.5c-7.7,45.7-11,92-9.3,138.4
			c0.2,6.9,8.8,12,14.3,6.5l4.7-4.8c1.1,5.6,3.3,10.9,6.4,15.8c3.9,6.2,12.3,5.6,15.3-0.8c3.5,3.4,8.4,5.4,13.3,4.5
			c3.7-0.7,6.9-2.8,9.2-5.6c1.1,1.6,2.6,3.1,4.5,4.4c9.3,6.4,21.1,1.1,24.3-9.3c1.7-5.5,0.7-11.3,0.1-16.9c-0.2-1.7-0.4-3.3-0.5-5
			c4.2-105.9,12.2-217.9,75.9-306.7c8.6-12,18.2-23.2,28.6-33.6c18.5,149.4,100.1,329.8,200.4,329.8
			c114.3,0,209.7-234.4,209.7-390.2c0-2.2,0-4.3-0.1-6.4c10.3-1.2,20.6-3.1,30.7-5.7c52.1-13.3,97.6-44,129-87.8
			c31.6-44.1,47-97.7,52.9-151.1C1203.1,873.6,1197.2,814.1,1188.9,755.1z"/>
		<g>
			<path class="st2" d="M892.7,1034.9c-51.8,25.5-111,33.3-167.7,22.1c-4.9-1-6.1,6.6-1.3,7.6c57.8,11.5,118.8,3.6,171.7-22.5
				C899.8,1039.9,897.1,1032.7,892.7,1034.9z"/>
			<path class="st2" d="M701.4,1053.5c-9.6-3.1-19.3-6.3-28.9-9.4c-4.7-1.5-7.9,5.5-3.2,7c9.6,3.1,19.3,6.3,28.9,9.4
				C702.9,1062,706.1,1055,701.4,1053.5z"/>
			<path class="st2" d="M1003.2,839c3.8,29.4,0.1,59-10.8,86.5c-1.8,4.6,5.6,6.6,7.4,2c11.1-28.1,14.9-58.6,11.1-88.5
				C1010.3,834.1,1002.6,834,1003.2,839z"/>
			<path class="st2" d="M532.8,842.5c-4.5,24.6-4.1,49.6,1.3,74.1c1.1,4.8,8.5,2.8,7.4-2c-5.1-23-5.5-46.8-1.3-70
				C541.1,839.7,533.6,837.6,532.8,842.5z"/>
			<path class="st2" d="M536.9,811.5c-1.3,5.6-2.6,11.1-3.8,16.7c-1.1,4.8,6.3,6.9,7.4,2c1.3-5.6,2.6-11.1,3.8-16.7
				C545.4,808.7,538,806.7,536.9,811.5z"/>
			<g>
				<path class="st7" d="M678.2,1146.5c0.7,15.5,1.3,31,2,46.5c0.2,5.5,8.8,6,8.6,0.5c-0.7-15.5-1.3-31-2-46.5
					C686.5,1141.5,677.9,1140.9,678.2,1146.5z"/>
				<path class="st7" d="M682.1,1218.1c0.4,13.3,0.8,26.7,1.2,40c0.2,5.5,8.7,6,8.6,0.5l-1.2-40
					C690.5,1213.2,681.9,1212.6,682.1,1218.1z"/>
				<path class="st7" d="M742.1,1141c0.6,12.8,1.1,25.5,1.7,38.3c0.2,5.5,8.8,6,8.6,0.5c-0.6-12.8-1.1-25.5-1.7-38.3
					C750.4,1136,741.9,1135.4,742.1,1141z"/>
				<path class="st7" d="M744,1202.8c1.6,25.2,3.3,50.3,4.9,75.5c0.4,5.4,8.9,6,8.6,0.5c-1.6-25.2-3.3-50.3-4.9-75.5
					C752.2,1197.9,743.7,1197.3,744,1202.8z"/>
				<path class="st7" d="M772.4,1156.9c1.5,28.8,3,57.6,4.5,86.5c0.3,5.4,8.8,6,8.6,0.5c-1.5-28.8-3-57.6-4.5-86.5
					C780.6,1151.9,772.1,1151.4,772.4,1156.9z"/>
				<path class="st7" d="M802.7,1124.6c1,18.1,2.1,36.1,3.1,54.2c0.3,5.4,8.9,6,8.6,0.5c-1-18.1-2.1-36.1-3.1-54.2
					C811,1119.7,802.4,1119.1,802.7,1124.6z"/>
				<path class="st7" d="M807.5,1207.2c0.1,17.2,0.3,34.3,0.4,51.5c0,5.5,8.6,6,8.6,0.5c-0.1-17.2-0.3-34.3-0.4-51.5
					C816,1202.2,807.4,1201.7,807.5,1207.2z"/>
				<path class="st7" d="M834.9,1137.7c1.4,39.2,2.8,78.5,4.2,117.7c0.2,5.5,8.8,6,8.6,0.5c-1.4-39.2-2.8-78.5-4.2-117.7
					C843.3,1132.8,834.7,1132.2,834.9,1137.7z"/>
				<path class="st7" d="M864.1,1176.2c1,19.1,1.9,38.3,2.9,57.4c0.3,5.5,8.8,6,8.6,0.5c-1-19.1-1.9-38.3-2.9-57.4
					C872.3,1171.3,863.8,1170.7,864.1,1176.2z"/>
				<path class="st7" d="M887.1,1151.9c1,19.1,1.9,38.3,2.9,57.4c0.3,5.5,8.8,6,8.6,0.5c-1-19.1-1.9-38.3-2.9-57.4
					C895.3,1147,886.8,1146.4,887.1,1151.9z"/>
				<path class="st7" d="M861.5,1112.1c0.2,13,0.4,25.9,0.7,38.9c0.1,5.5,8.7,6,8.6,0.5c-0.2-13-0.4-25.9-0.7-38.9
					C869.9,1107.2,861.4,1106.6,861.5,1112.1z"/>
				<path class="st7" d="M710.7,1127.8c1.5,45.6,3.1,91.3,4.6,136.9c0.2,5.5,8.7,6,8.6,0.5c-1.5-45.6-3.1-91.3-4.6-136.9
					C719.1,1122.8,710.5,1122.3,710.7,1127.8z"/>
			</g>
			<path class="st2" d="M607.4,1094.2c-16.4,31-24.9,65.6-24.9,100.7c0,5,7.7,4.4,7.7-0.5c0-33.8,8.4-67,24.1-96.8
				C616.6,1093.2,609.7,1089.8,607.4,1094.2z"/>
			<path class="st2" d="M951.4,1078.2c-2.4-4.3-9.4-0.9-6.9,3.4c7.3,12.9,14.6,25.9,21.9,38.8c2.4,4.3,9.4,0.9,6.9-3.4
				C966,1104.1,958.7,1091.1,951.4,1078.2z"/>
		</g>
	</g>
	<path class="st8" d="M621.9,609.9c-2.9-7.8-5.9-15.5-8.8-23.3c8.9-17,7.5-37.4,3.8-55.7c-4.4-22-15.2-44.6-34.6-59.8
		c-16.8-13.2-39.2-21.2-61.9-20.1c-0.9-0.3-1.8-0.4-2.8-0.3c-53.7,4.3-113.5,12.3-150.6,49.9c-17.6,17.8-27.6,40.3-26.2,63.9
		c1.4,22.9,12.6,44.9,32.6,60.3c20.2,15.5,45.9,23.4,72.9,22.1c30.3-1.5,59.5-11.3,88.2-19.1c16.8-4.6,36.2-8.5,52.1-16.5
		c7.7,2.9,15.4,5.7,23.1,8.6C616.2,622.4,624.1,615.6,621.9,609.9z"/>
	<g>
		<path class="st2" d="M487.2,588.2l-20.5-93c-1.1-5.1-6-8.7-11.3-7.7c-5,0.9-8.9,6.1-7.7,11.3c3.2,14.6,6.4,29.2,9.7,43.9
			c-0.1,0-0.1,0-0.2,0c-9.7,1.8-19.4,3.6-29.2,5.4c-3.2-13.6-6.4-27.2-9.6-40.8c-1.2-5.1-6-8.7-11.3-7.7c-5,0.9-8.9,6.2-7.7,11.3
			c7.2,30.7,14.4,61.3,21.6,92c1.2,5.1,6,8.7,11.3,7.7c5-0.9,8.9-6.2,7.7-11.3c-2.5-10.8-5.1-21.6-7.6-32.4
			c9.4-1.7,18.8-3.5,28.3-5.2c0.3-0.1,0.6-0.1,0.8-0.2c2.2,10.1,4.4,20.2,6.7,30.3c1.1,5.1,6,8.7,11.3,7.7
			C484.5,598.5,488.4,593.3,487.2,588.2z"/>
		<path class="st2" d="M527.7,576.9l-9.9-48.2c-1.1-5.1-5.5-9-10.9-8.2c-4.9,0.7-9.3,5.8-8.2,10.9c3.3,16.1,6.6,32.1,9.9,48.2
			c1.1,5.1,5.5,9,10.9,8.2C524.3,587.2,528.7,582.1,527.7,576.9z"/>
		<path class="st2" d="M502.6,493.6c-5.1-0.4-10.1,3.7-10.3,8.9l0,0.7c-0.2,5.2,3.6,9.9,8.9,10.3c5.1,0.4,10.1-3.7,10.3-8.9l0-0.7
			C511.7,498.7,507.9,494,502.6,493.6z"/>
	</g>
</g>
<path class="st0" d="M15.6,880.3c5.4,38.4,30.4,72.4,60.9,98c33.2,27.9,74,48.4,116.5,61.4c37.1,11.4,77.8,17.8,116.4,9.2
	c39.7-8.9,68.1-36.7,71.5-74.8c3.4-37.4-15.8-75.7-38.7-105.5c-24.5-31.8-56.9-57.6-93.8-75.5c-25.7-14.6-53.9-25.7-84-29
	c-36.3-4.1-75,3.7-104.6,24.1C28.3,809.7,10.5,843.9,15.6,880.3z"/>
<path class="st0" d="M56.4,1256.2c32.9,32.1,78.2,52.9,123,66.7c43.3,13.3,95.3,18.9,135.7-4.9c32-18.9,48.9-53.3,49.7-87.7
	c3.6-23.6-2.9-48.7-16.5-69.4c-12.5-19-30-34.9-48.5-48.9c-19.6-14.8-40.4-28.6-62.6-39.9c-41.8-21.3-90.3-32.4-137.4-20.8
	c-44.3,11-80,42.7-87.3,85.4C4.9,1180.8,23.7,1224.3,56.4,1256.2z"/>
<path class="st0" d="M74.8,1436.2c3.9,26.6,18.8,50.1,38.7,69.3c40.3,38.8,106.7,63.8,161.7,36.8c51.6-25.3,59.4-88.6,32-132.2
	c-23-36.5-62.7-57.1-105.4-67.7c-7.3-2.5-14.9-4.2-22.6-5c-1.2-0.1-2.4-0.2-3.5-0.3c-7.1-1.1-40.7-1.5-77.6,29.8
	C77.9,1383.9,71.1,1411.1,74.8,1436.2z"/>
<path class="st1" d="M174.1,1157.6c12.2-14,30-21.4,48.4-18.6c5.6,0.8,9.1,7.4,7.9,12.6c-1.4,5.9-7,8.7-12.6,7.9
	c-22.9-3.4-39.5,21.9-37.9,42.4c2,26.8,24.7,46.7,47.5,57.4c15,7.1,31.1,11.3,47.2,15.1c13.2,3.1,8.5,23.6-4.7,20.5
	c-34.3-8.1-69.3-19.5-92.4-47.7C156.3,1221.4,151.1,1184,174.1,1157.6z"/>
<path class="st1" d="M181.8,1393.8c12.9-4.1,18.9,16,6,20.1c-7.1,2.3-12.8,8.6-15.4,16.1c-3.1,9.2-2.9,18.3,0.5,27.3
	c8.1,20.9,35,31.5,56.4,35.7c13.3,2.6,8.5,23.1-4.7,20.5c-29.6-5.8-62.6-21.6-72.6-52.5C143.7,1435.2,154.5,1402.6,181.8,1393.8z"/>
<path class="st1" d="M188.6,902.8c9.1-14.1,22.6-23.6,39.4-25.5c5.6-0.6,10.7,4.9,10.8,10.2c0.2,6.1-4.5,10.2-10.2,10.8
	c-11.9,1.3-21.4,11.2-25.7,22.3c-4.8,12.2-2.4,26,3.9,37.2c16.2,28.9,49.7,39,80.1,45c13.3,2.6,8.5,23.1-4.7,20.5
	c-30.3-6-62.4-16-83.2-40.4C180.3,960.8,171.9,928.8,188.6,902.8z"/>
<text transform="matrix(1 0 0 1 593.5267 1785.7449)"><tspan x="0" y="0" class="st8 st9 st10 st11">Online</tspan><tspan x="0" y="130" class="st12 st9 st10 st11">  shopping</tspan></text>
</svg>
