<?xml version="1.0" encoding="utf-8"?>
<!-- Generator: Adobe Illustrator 23.0.3, SVG Export Plug-In . SVG Version: 6.00 Build 0)  -->
<svg version="1.1" id="OBJECTS" xmlns="http://www.w3.org/2000/svg" xmlns:xlink="http://www.w3.org/1999/xlink" x="0px" y="0px"
	 viewBox="0 0 298 269.3" style="enable-background:new 0 0 298 269.3;" xml:space="preserve">
<style type="text/css">
	.st0{fill:#CE7D67;}
	.st1{fill:#78BAC9;}
	.st2{fill:#DB8F1B;}
	.st3{fill:#427B83;}
	.st4{fill:#E1AE8D;}
	.st5{fill:#D47974;}
	.st6{fill:#CA4F24;}
	.st7{fill:#2E2427;}
	.st8{fill:#46909B;}
	.st9{fill:#E6B11B;}
	.st10{fill:#2D2327;}
	.st11{fill:#FFFFFF;}
</style>
<g>
	<path class="st0" d="M188,113.9c0,0-2,11.2-22.6,8.9s-42.3-23.1-57.5-20.8c-7.7,1.2,0.2,3.2,0.2,3.2s-2.8,1.3-1.9,2
		c0.9,0.7,5.2,1.7,5.2,1.7s-5.7,0.6-4.9,1.4c0.8,0.9,10.3,1.9,17.8,5.8c5.5,2.8,26.2,24.1,45.4,24.9c19.1,0.8,22.6-12.7,22.6-12.7
		S191.9,115.9,188,113.9z"/>
	<g>
		<path class="st1" d="M38.3,132.7c-0.2,1.1-0.4,1.8-0.4,1.8l0.7-3.9C38.6,131.4,38.5,132.1,38.3,132.7z"/>
		<path class="st2" d="M160.2,73.2l-12.6,65.2c-4.7,24.5-28.4,40.5-52.9,35.7L33,162.2l5-25.7c0.1-0.5,0.2-1.1,0.3-1.8
			c1.2-7.5,2.4-23.9-12.1-17.7c-17.5,7.5-27.6-2.2-26.1-17.8C4.6,84,17.6,78.8,31,92.2c11.1,11.1,16.1-4.6,17.8-12
			c0.2-0.7,0.3-1.3,0.4-1.8l5-25.7l24,4.6c-1-0.2-1.7-0.3-1.7-0.3l3.5,0.7c7.4,1.7,23.1,6.7,12,17.8C78.5,89,83.7,102,98.8,106.4
			c15.6,1.5,25.3-8.6,17.8-26.1c-6.2-14.4,10.2-13.3,17.7-12.1l3.5,0.7c0,0-0.6-0.1-1.7-0.3L160.2,73.2z"/>
		<path class="st1" d="M50.7,68.8c-0.1,0.6-0.2,1.3-0.4,2l0.7-3.9C51,66.9,50.9,67.6,50.7,68.8z"/>
	</g>
	<path class="st3" d="M162.1,127.2c0,0-5,7.5-3.1,11.6c1.9,4.1,14.4,2.4,20.1,0c5.7-2.4,3.4-11.6,3.4-11.6S165.4,119.9,162.1,127.2z
		"/>
	<path class="st4" d="M181.4,181.5c0,0-17.9,15.3-24,28.8c-6.1,13.5-2.4,55.4-2.4,55.4l-6.5,1.2l9.6,2.2c0,0,11.7-51.4,18.6-57.9
		c6.9-6.5,30-14.1,34.3-20.2c4.4-6-5.7-26.2-5.7-26.2L181.4,181.5z"/>
	<g>
		<path class="st5" d="M187.1,103.2c-2.9,0.3-1.3-3.4-1.3-3.4s2.1-6.3,4.5-5.6"/>
		<path class="st4" d="M190.2,95.6c0,0-4.4,15.7-13.1,13.6c-8.7-2.2-4-16.4-1.1-21.5C178.8,82.5,191.8,91.1,190.2,95.6z"/>
		<circle class="st6" cx="196.6" cy="85" r="6.7"/>
		<path class="st6" d="M175.9,87.6c0,0,6.7-4.8,9.6,2.4c2.1,5,0.6,12,3.8,11.5c3.2-0.5,8.2-7.9,4.4-14.7S176.7,79.9,175.9,87.6z"/>
		<path class="st4" d="M186.5,98.4c0,0,1.1-4,2.8-2.7c1.6,1.3,0.6,4.7-1.2,6S186.5,98.4,186.5,98.4z"/>
		<g>
			<path class="st7" d="M175.1,102.2c-0.1,0-0.2,0-0.3-0.1c-0.1-0.1-0.1-0.3-0.1-0.4l2.5-5.4c0.1-0.2,0.3-0.3,0.5-0.2
				c0.2,0.1,0.3,0.3,0.2,0.5l-2,4.5l1.7-0.8c0.2-0.1,0.4,0,0.5,0.2c0.1,0.2,0,0.4-0.2,0.5l-2.6,1.2
				C175.2,102.2,175.1,102.2,175.1,102.2z"/>
			<path class="st7" d="M177.7,105.1c-0.1,0-0.2,0-0.3,0c-0.6-0.2-1-0.9-1.1-2.3c0-0.2,0.1-0.4,0.4-0.4c0.2,0,0.4,0.1,0.4,0.4
				c0.1,1.1,0.3,1.5,0.5,1.6c0.4,0.1,1.1-0.6,1.6-1.2c0.1-0.2,0.4-0.2,0.5-0.1c0.2,0.1,0.2,0.4,0.1,0.5
				C179.6,103.9,178.6,105.1,177.7,105.1z"/>
			<circle class="st7" cx="182.4" cy="97.3" r="1.2"/>
			<circle class="st7" cx="175.3" cy="95.6" r="1.2"/>
		</g>
		<path class="st4" d="M178.4,107.1c0,0,0.2,2.3,0.6,8.2c0,0,0.4,2.3,2.6,3.8c2.2,1.5,9.6-3.4,10.2-4.9l-3.6-15
			C188.2,99.2,179.6,104.3,178.4,107.1z"/>
		<path class="st6" d="M180,85.7c0,0-0.5,8.4,7,11.6C187,97.3,189.4,84.2,180,85.7z"/>
		<path class="st6" d="M171.9,94.5c0,0,0.6-10.9,9.3-12.3C181.2,82.1,180.4,88.9,171.9,94.5z"/>
		<path class="st7" d="M188.5,93.3C188.5,93.3,188.4,93.3,188.5,93.3c-7.7-1.9-7.6-7.1-7.6-7.1c0-0.2,0.2-0.4,0.4-0.4
			c0.2,0,0.4,0.2,0.4,0.4c0,0.2,0,4.6,6.9,6.4c0.2,0.1,0.3,0.3,0.3,0.5C188.8,93.2,188.7,93.3,188.5,93.3z"/>
		<path class="st7" d="M190.2,89.6c-1.9,0-4.7-0.8-7.9-4.4c-0.1-0.2-0.1-0.4,0-0.5c0.2-0.1,0.4-0.1,0.5,0c5.3,6,9.3,3.8,9.4,3.7
			c0.2-0.1,0.4,0,0.5,0.1c0.1,0.2,0,0.4-0.1,0.5C192.7,89.1,191.7,89.6,190.2,89.6z"/>
		<path class="st7" d="M174.1,91C174.1,91,174.1,91,174.1,91c-0.3-0.1-0.4-0.3-0.4-0.5c1-4.4,5.1-5.5,5.3-5.5
			c0.2-0.1,0.4,0.1,0.5,0.3c0.1,0.2-0.1,0.4-0.3,0.5c-0.2,0-3.9,1-4.8,4.9C174.5,90.9,174.3,91,174.1,91z"/>
	</g>
	<path class="st8" d="M214.5,175.3c0,0,1.7-51-14.8-59.5s-30.4,8.9-30.6,18.2c-0.1,9.4,17.4,19.6,6.8,34.1
		C175.9,168.2,208.2,179.9,214.5,175.3z"/>
	<path class="st4" d="M195.4,114.9c0,0-5.5,10-24.3,1.2s-32.6-35.5-47.7-38.2c-7.7-1.4-0.8,3.1-0.8,3.1s-3.1,0.3-2.4,1.2
		c0.6,0.9,4.4,3.3,4.4,3.3s-5.6-1.3-5.1-0.2c0.5,1.1,9.1,5.1,15,11.2c4.3,4.4,17.1,31.3,34.9,38.2s25.5-4.7,25.5-4.7
		S198.4,118.1,195.4,114.9z"/>
	<path class="st4" d="M163.7,165.1c0,0-23.5-1.8-37.3,3.4S85.6,206,85.6,206l-5.5-3.7l5.3,8.3c0,0,42.2-27.9,51.7-27.7
		c9.5,0.2,33.4,9,40.9,9.8c7.4,0.8,5.4-22.7,5.4-22.7L163.7,165.1z"/>
	<g>
		<path class="st9" d="M95.1,204c0,0-5.6-7.3-6.2-6.9c-0.6,0.4-2.9,2.7-3.6,2.8s-8.3-4.2-9.7-3.5s11.5,14,11.5,14L95.1,204z"/>
		<path class="st7" d="M88.2,204.2c-0.2,0-0.3-0.1-0.4-0.3l-1.3-4.9c-0.1-0.2,0.1-0.4,0.3-0.5c0.2-0.1,0.4,0.1,0.5,0.3l1.3,4.9
			C88.6,204,88.5,204.2,88.2,204.2C88.3,204.2,88.2,204.2,88.2,204.2z"/>
		<path class="st7" d="M85.4,204.3c-0.2,0-0.4-0.2-0.4-0.4l-0.3-5.3c0-0.2,0.1-0.4,0.4-0.4c0.2,0,0.4,0.1,0.4,0.4l0.3,5.3
			C85.8,204.1,85.7,204.3,85.4,204.3C85.4,204.3,85.4,204.3,85.4,204.3z"/>
		<path class="st7" d="M82.8,203.5c-0.2,0-0.4-0.2-0.4-0.4l0-4.6c0-0.2,0.2-0.4,0.4-0.4c0,0,0,0,0,0c0.2,0,0.4,0.2,0.4,0.4l0,4.6
			C83.2,203.3,83,203.5,82.8,203.5C82.8,203.5,82.8,203.5,82.8,203.5z"/>
	</g>
	<g>
		<path class="st9" d="M162.1,257.4c0,0-9.2,0.4-9.2,1.1c0,0.7,0.5,3.9,0.2,4.5s-8.2,4.4-8.4,5.9c-0.2,1.5,18.1-1.3,18.1-1.3
			L162.1,257.4z"/>
		<path class="st7" d="M157.9,263.3c0,0-0.1,0-0.1,0l-4.8-1.8c-0.2-0.1-0.3-0.3-0.2-0.5c0.1-0.2,0.3-0.3,0.5-0.2l4.8,1.8
			c0.2,0.1,0.3,0.3,0.2,0.5C158.2,263.2,158.1,263.3,157.9,263.3z"/>
		<path class="st7" d="M156.4,265.7c-0.1,0-0.1,0-0.2-0.1l-4.5-2.8c-0.2-0.1-0.2-0.4-0.1-0.5c0.1-0.2,0.4-0.2,0.5-0.1l4.5,2.8
			c0.2,0.1,0.2,0.4,0.1,0.5C156.6,265.6,156.5,265.7,156.4,265.7z"/>
		<path class="st7" d="M154.2,267.3c-0.1,0-0.2,0-0.2-0.1l-3.8-2.6c-0.2-0.1-0.2-0.4-0.1-0.5c0.1-0.2,0.4-0.2,0.5-0.1l3.8,2.6
			c0.2,0.1,0.2,0.4,0.1,0.5C154.5,267.3,154.3,267.3,154.2,267.3z"/>
	</g>
	<path class="st6" d="M167.6,190.1c0,0-7,5.2-11.2,13.9s-4.7,40.9-4.5,43.9c0.2,3,6,3.2,10.4,2.7c4.4-0.5,11.9-34.4,18.8-39.4
		c6.9-5,24.9-12.1,29.9-20.2s3.4-15.7,3.4-15.7s-30.3-5.1-34.5-6.1c0,0-28.3-9.1-40.6-7.8S98.9,185.7,97,187.7
		c-1.9,2,6.2,12.5,7.5,13.1c1.3,0.6,27.9-14.8,34.1-14.8S167.6,190.1,167.6,190.1z"/>
	<path class="st8" d="M167.3,113.6c0,0-9.2,14.5-8.2,17.3c1.1,2.8,7.7,5.5,21.2,6.1c13.4,0.6,19.2-9.7,19.2-9.7s3.2-11.3-4.2-12.3
		S175.6,114.7,167.3,113.6z"/>
	<path class="st8" d="M170.8,136c0,0-4.5,6.4,1.2,11.1c5.7,4.7,15.5-2,15.5-2S188,125.2,170.8,136z"/>
	<path class="st7" d="M188.2,138.2c-4.3,0-10.1-0.4-17.5-1.8c-0.2,0-0.3-0.2-0.3-0.4c0-0.2,0.2-0.3,0.5-0.3
		c18.4,3.5,26.9,0.8,26.9,0.8c0.2-0.1,0.4,0,0.5,0.2c0.1,0.2,0,0.4-0.2,0.5C197.9,137.2,194.8,138.2,188.2,138.2z"/>
	<path class="st7" d="M200.2,136.4c0,0-0.1,0-0.1,0c-0.2-0.1-0.3-0.3-0.3-0.5c3.3-11.2-2.1-19.6-2.2-19.7c-0.1-0.2-0.1-0.4,0.1-0.5
		c0.2-0.1,0.4-0.1,0.5,0.1c0.1,0.1,5.7,8.8,2.3,20.4C200.5,136.3,200.4,136.4,200.2,136.4z"/>
	<path class="st7" d="M163,248.2C163,248.2,163,248.2,163,248.2c-0.3,0-0.4-0.2-0.4-0.5c3.7-21.3,9.6-41.9,27.6-47.3
		c7.2-2.2,11.9-9.1,14.7-14.6c3-5.9,4.2-11.4,4.2-11.5c0-0.2,0.3-0.3,0.5-0.3c0.2,0,0.3,0.3,0.3,0.5c0,0.2-5.2,22.3-19.4,26.6
		c-17.6,5.3-23.4,25.6-27,46.7C163.4,248.1,163.2,248.2,163,248.2z"/>
	<path class="st7" d="M169.1,188.1c-0.1,0-0.1,0-0.2,0c-0.2-0.1-0.3-0.3-0.2-0.4c2-10,7.5-13.3,7.8-13.5c0.2-0.1,0.4,0,0.5,0.1
		c0.1,0.2,0,0.4-0.1,0.5c-0.1,0-4.8,2.9-7,11.1c1.5-2,4.1-5.5,5.7-7.1c0.2-0.1,0.4-0.1,0.5,0c0.1,0.2,0.1,0.4,0,0.5
		c-2.3,2.3-6.7,8.5-6.8,8.5C169.4,188,169.2,188.1,169.1,188.1z"/>
	<path class="st7" d="M104.5,196.8c-0.1,0-0.3-0.1-0.3-0.2c-0.1-0.2,0-0.4,0.1-0.5c0.9-0.5,22.7-12.7,32.7-13.5
		c9.9-0.8,30.3,2.7,30.6,2.7c0.2,0,0.4,0.2,0.3,0.4c0,0.2-0.2,0.3-0.4,0.3c-0.2,0-20.5-3.5-30.4-2.7c-9.8,0.8-32.2,13.3-32.4,13.4
		C104.6,196.8,104.6,196.8,104.5,196.8z"/>
	<path class="st7" d="M208.8,177.2C208.8,177.2,208.8,177.2,208.8,177.2c-21.4-2.6-33.8-5.7-35-8.7c-0.2-0.6,0-1,0.1-1
		c0.1-0.2,0.4-0.2,0.5-0.1c0.2,0.1,0.2,0.4,0.1,0.5c0,0,0,0.1,0.1,0.3c0.5,1,4.5,4.5,34.3,8.1c0.2,0,0.4,0.2,0.3,0.4
		C209.2,177,209,177.2,208.8,177.2z"/>
	<path class="st7" d="M201.3,192.8c-0.1,0-0.3-0.1-0.3-0.2c-6.4-12.3-1.8-16.4-1.6-16.5c0.2-0.1,0.4-0.1,0.5,0
		c0.1,0.2,0.1,0.4,0,0.5c0,0-4.3,3.9,1.8,15.6c0.1,0.2,0,0.4-0.2,0.5C201.4,192.8,201.4,192.8,201.3,192.8z"/>
</g>
<g>
	<g>
		<circle class="st9" cx="260.7" cy="39.5" r="26.4"/>
		<path class="st9" d="M252.6,80.7l-12.2-2.4c0,0,3.8-15.5-2-24.5l18.7,3.7L252.6,80.7z"/>
		<path class="st9" d="M252.6,80.7l12.2,2.4c0,0,2.4-15.8,11.1-21.9l-18.7-3.7L252.6,80.7z"/>
		<path class="st10" d="M250.7,92.4l-1-0.2c-6.5-1.3-10.8-7.6-9.5-14.2l1.1-5.7l24.7,4.9l-1.1,5.7C263.6,89.5,257.2,93.7,250.7,92.4
			z"/>
		<path class="st10" d="M249,98.1l-0.7-0.1c-4.5-0.9-7.4-5.2-6.5-9.7L242,87c0.9-4.5,5.2-7.4,9.7-6.5l0.7,0.1
			c4.5,0.9,7.4,5.2,6.5,9.7l-0.3,1.3C257.8,96.1,253.4,99,249,98.1z"/>
	</g>
	<path class="st7" d="M259.9,76.3c0,0-0.1,0-0.1,0c-0.2-0.1-0.3-0.3-0.2-0.5c2.8-7.5,9.6-27.6,8.1-30.4c-0.3-0.5-0.5-0.6-0.7-0.5
		c-1.6,0-4.6,4.8-6.2,7.9c-0.1,0.2-0.3,0.2-0.4,0.2c-0.2-0.1-0.3-0.3-0.2-0.4c0-0.1,2.2-8.1,0.4-10.7c-0.2-0.3-0.4-0.3-0.4-0.3
		c-1.4,0.2-3.9,5.7-5.2,9.1c-0.1,0.2-0.2,0.3-0.4,0.2c-0.2,0-0.3-0.2-0.3-0.4c0-0.1,0.1-6.9-2.2-10.2c0,0,0,0,0-0.1
		c-1.4,1-3.4,17.8-4.6,33.2c0,0.2-0.2,0.3-0.4,0.3c-0.2,0-0.3-0.2-0.3-0.4c0.6-7.8,2.8-33.2,5.2-33.9c0.2,0,0.5-0.1,0.8,0.4
		c1.7,2.5,2.1,6.5,2.3,8.8c1.1-2.8,3.4-7.7,5.1-7.9c0.3,0,0.7,0,1.1,0.6c1.3,1.9,0.8,6.1,0.3,8.8c1.4-2.5,3.8-6,5.6-6.1
		c0.4,0,0.9,0.2,1.3,0.9c1.9,3.6-7,28.2-8.1,31C260.1,76.3,260,76.3,259.9,76.3z"/>
	<path class="st11" d="M273.7,22c0,0,10.9,7.3,8,15.4c-2.8,8.2-7.2-8.2-12.5-11.7C263.9,22.3,269,19.7,273.7,22z"/>
	<path class="st11" d="M283.4,42c0,0,0.1,7.1-2.4,7.4s-2.2-3.5-1.2-6.4C280.8,40.1,283.4,40.5,283.4,42z"/>
	<path class="st7" d="M232,28.5c-0.1,0-0.1,0-0.2,0l-6.7-3.5c-0.2-0.1-0.2-0.3-0.2-0.5c0.1-0.2,0.3-0.2,0.5-0.2l6.7,3.5
		c0.2,0.1,0.2,0.3,0.2,0.5C232.2,28.4,232.1,28.5,232,28.5z"/>
	<path class="st7" d="M229.4,37.6C229.4,37.6,229.4,37.6,229.4,37.6l-7.5-0.9c-0.2,0-0.3-0.2-0.3-0.4c0-0.2,0.2-0.3,0.4-0.3l7.5,0.9
		c0.2,0,0.3,0.2,0.3,0.4C229.7,37.5,229.6,37.6,229.4,37.6z"/>
	<path class="st7" d="M223.5,49.4c-0.2,0-0.3-0.1-0.3-0.3c0-0.2,0.1-0.4,0.3-0.4l7.3-1.7c0.2,0,0.4,0.1,0.4,0.3
		c0,0.2-0.1,0.4-0.3,0.4L223.5,49.4C223.5,49.4,223.5,49.4,223.5,49.4z"/>
	<path class="st7" d="M229,61.4c-0.1,0-0.2,0-0.3-0.1c-0.1-0.2-0.1-0.4,0.1-0.5l5.9-4.6c0.2-0.1,0.4-0.1,0.5,0.1
		c0.1,0.2,0.1,0.4-0.1,0.5l-5.9,4.6C229.2,61.4,229.1,61.4,229,61.4z"/>
	<path class="st7" d="M235,19.9c-0.1,0-0.2,0-0.2-0.1l-5.9-5.2c-0.1-0.1-0.2-0.4,0-0.5c0.1-0.1,0.4-0.2,0.5,0l5.9,5.2
		c0.1,0.1,0.2,0.4,0,0.5C235.2,19.8,235.1,19.9,235,19.9z"/>
	<path class="st7" d="M267.2,7.5c0,0-0.1,0-0.1,0c-0.2-0.1-0.3-0.3-0.2-0.5l2.4-6.7c0.1-0.2,0.3-0.3,0.5-0.2
		c0.2,0.1,0.3,0.3,0.2,0.5l-2.4,6.7C267.5,7.4,267.4,7.5,267.2,7.5z"/>
	<path class="st7" d="M259.4,7.9c-0.2,0-0.3-0.1-0.4-0.3l-0.8-7.1c0-0.2,0.1-0.4,0.3-0.4c0.2,0,0.4,0.1,0.4,0.3l0.8,7.1
		C259.8,7.7,259.6,7.9,259.4,7.9C259.4,7.9,259.4,7.9,259.4,7.9z"/>
	<path class="st7" d="M251.6,10.3c-0.1,0-0.3-0.1-0.3-0.2l-2.6-6.7c-0.1-0.2,0-0.4,0.2-0.5c0.2-0.1,0.4,0,0.5,0.2l2.6,6.7
		c0.1,0.2,0,0.4-0.2,0.5C251.7,10.3,251.7,10.3,251.6,10.3z"/>
	<path class="st7" d="M242,13.9c-0.1,0-0.2-0.1-0.3-0.2l-3.9-6c-0.1-0.2-0.1-0.4,0.1-0.5c0.2-0.1,0.4-0.1,0.5,0.1l3.9,6
		c0.1,0.2,0.1,0.4-0.1,0.5C242.1,13.9,242,13.9,242,13.9z"/>
	<path class="st7" d="M273.9,10.2c-0.1,0-0.1,0-0.2-0.1c-0.2-0.1-0.2-0.3-0.1-0.5l3.8-6.1c0.1-0.2,0.3-0.2,0.5-0.1
		c0.2,0.1,0.2,0.3,0.1,0.5l-3.8,6.1C274.2,10.2,274,10.2,273.9,10.2z"/>
	<path class="st7" d="M280.3,13.3c-0.1,0-0.1,0-0.2-0.1c-0.2-0.1-0.2-0.3-0.1-0.5l3.8-6.1c0.1-0.2,0.3-0.2,0.5-0.1
		c0.2,0.1,0.2,0.3,0.1,0.5l-3.8,6.1C280.5,13.3,280.4,13.3,280.3,13.3z"/>
	<path class="st7" d="M285.8,18.9c-0.1,0-0.3-0.1-0.3-0.2c-0.1-0.2,0-0.4,0.2-0.5l6.4-3.2c0.2-0.1,0.4,0,0.5,0.2
		c0.1,0.2,0,0.4-0.2,0.5l-6.4,3.2C285.9,18.8,285.9,18.9,285.8,18.9z"/>
	<path class="st7" d="M288.5,26c-0.2,0-0.3-0.1-0.3-0.3c0-0.2,0.1-0.4,0.3-0.4l7-1.5c0.2,0,0.4,0.1,0.4,0.3c0,0.2-0.1,0.4-0.3,0.4
		L288.5,26C288.6,26,288.6,26,288.5,26z"/>
	<path class="st7" d="M290.5,33.5c-0.2,0-0.4-0.2-0.4-0.4c0-0.2,0.2-0.4,0.4-0.4l7.2-0.1c0,0,0,0,0,0c0.2,0,0.4,0.2,0.4,0.4
		c0,0.2-0.2,0.4-0.4,0.4L290.5,33.5C290.5,33.5,290.5,33.5,290.5,33.5z"/>
	<path class="st7" d="M297.6,42.1C297.5,42.1,297.5,42.1,297.6,42.1l-7-1.8c-0.2,0-0.3-0.2-0.3-0.4c0-0.2,0.2-0.3,0.4-0.3l7,1.7
		c0.2,0,0.3,0.2,0.3,0.4C297.9,42,297.7,42.1,297.6,42.1z"/>
	<path class="st7" d="M295.6,51c0,0-0.1,0-0.1,0l-6.7-2.4c-0.2-0.1-0.3-0.3-0.2-0.5c0.1-0.2,0.3-0.3,0.5-0.2l6.7,2.4
		c0.2,0.1,0.3,0.3,0.2,0.5C295.9,50.9,295.8,51,295.6,51z"/>
	<path class="st7" d="M291.7,61.5c-0.1,0-0.2,0-0.2-0.1l-5.3-4.9c-0.1-0.1-0.2-0.4,0-0.5c0.1-0.1,0.4-0.2,0.5,0l5.3,4.9
		c0.1,0.1,0.2,0.4,0,0.5C291.8,61.5,291.7,61.5,291.7,61.5z"/>
	<path class="st7" d="M285.7,68.8c-0.1,0-0.2,0-0.3-0.1l-4.7-5.4c-0.1-0.1-0.1-0.4,0-0.5c0.1-0.1,0.4-0.1,0.5,0l4.7,5.4
		c0.1,0.1,0.1,0.4,0,0.5C285.9,68.8,285.8,68.8,285.7,68.8z"/>
</g>
</svg>
