<?xml version="1.0" encoding="utf-8"?>
<!-- Generator: Adobe Illustrator 23.0.3, SVG Export Plug-In . SVG Version: 6.00 Build 0)  -->
<svg version="1.1" id="Layer_1" xmlns="http://www.w3.org/2000/svg" xmlns:xlink="http://www.w3.org/1999/xlink" x="0px" y="0px"
	 viewBox="0 0 1173.9 1160.8" style="enable-background:new 0 0 1173.9 1160.8;" xml:space="preserve">
<style type="text/css">
	.st0{fill:#000025;}
	.st1{fill:#FFFFFF;}
	.st2{fill:#FFDEDA;}
	.st3{fill:#7B3F65;}
	.st4{fill:#F25A29;}
	.st5{fill:#FF8491;}
	.st6{opacity:0.74;fill:#FFC5C1;}
	.st7{fill:#FF764A;}
	.st8{fill:#673565;}
</style>
<g>
	<path class="st0" d="M309.7,898.5c1.8,4.3,4.5,18.6,6.3,22.9c18.9-8.4,40.3-3.2,56.5,9.7c16.2,12.9,32,28.7,52.5,31.7
		c32,4.6,62.3-24,94-17.7c32.1,6.4,47.7,44.7,77.5,58.2c51.5,23.3,108.4-37.7,163.6-25.3c52.5,11.8,79,84.9,132.9,85.2
		c32.5,0.2,64.3-27.9,94.2-15.4c24.7,10.3,32.8,42.8,55.9,56.2c24.8,14.2,56.1,1.5,84.3,5.3c17.1,2.3,32.1,10.5,46.4,20.5V0L849,0
		c-19.3,17.1-33.6,40-38.6,65.4c-8.2,41.8,4.8,90-20.3,124.5c-27.6,38-92.2,44-105.1,89.2c-7.9,27.5,8.5,55.3,19.2,81.8
		c10.7,26.6,12.7,63.5-12.4,77.3c-16.3,9-37.1,3.5-54.7,9.9c-22.1,8-33.7,33-35.6,56.5c-2,23.4,3.2,46.9,3.2,70.4
		c-0.1,23.5-7,49.2-26.6,62.3c-23.6,15.7-58.8,8.6-79,28.5c-26.1,25.7-8.5,77.8-37.4,100.3c-11.5,8.9-27.1,10-40.5,15.5
		C369.1,802.9,361.5,876.4,309.7,898.5z"/>
	<g>
		<path class="st1" d="M936.1,505.9c1-1,2.6-1.9,4-1.9c1.5,0,3.1,0.4,4.2,1.5c1.1,1.1,1.8,2.4,1.9,4l0,0.7c0.1,1.5-0.5,3.1-1.5,4.2
			c-1,1-2.6,1.9-4,1.9c-1.5,0-3.1-0.4-4.2-1.5c-1.1-1.1-1.8-2.4-1.9-4l0-0.7C934.6,508.6,935.1,507,936.1,505.9z"/>
		<path class="st1" d="M797.3,804.2c1.1-1.1,2.4-1.8,4-1.9l0.7,0c1.5-0.1,3.1,0.5,4.2,1.5c1,1,1.9,2.6,1.9,4c0,1.5-0.4,3.1-1.5,4.2
			c-1.1,1.1-2.4,1.8-4,1.9l-0.7,0c-1.5,0.1-3.1-0.5-4.2-1.5c-1-1-1.9-2.6-1.9-4C795.8,806.9,796.3,805.3,797.3,804.2z"/>
		<path class="st1" d="M755.8,590c7.4-0.3,8,11.2,0.5,11.6C748.9,601.9,748.4,590.3,755.8,590z"/>
		<path class="st1" d="M941.4,572.9l0.7,0c1.4-0.1,1.4,2,0.1,2.1l-0.7,0C940.1,575.1,940,573,941.4,572.9z"/>
		<path class="st1" d="M981.7,593.6c1.4-0.1,1.4,2,0.1,2.1C980.4,595.8,980.3,593.7,981.7,593.6z"/>
		<path class="st1" d="M760.3,675.8c1.4-0.1,1.4,2,0.1,2.1C759.1,678,759,675.9,760.3,675.8z"/>
		<path class="st1" d="M732,719.5c0.9,0,1.6,0.6,1.6,1.5l0,0.7c0,0.8-0.7,1.6-1.5,1.6c-0.9,0-1.6-0.6-1.6-1.5l0-0.7
			C730.5,720.3,731.2,719.5,732,719.5z"/>
		<path class="st1" d="M772.3,756.3c2-0.1,2.2,3.1,0.1,3.2C770.4,759.6,770.3,756.4,772.3,756.3z"/>
		<path class="st1" d="M772.3,738.8c2-0.1,2.2,3.1,0.1,3.2C770.4,742,770.2,738.9,772.3,738.8z"/>
		<path class="st1" d="M972,709.5c2-0.1,2.2,3.1,0.1,3.2C970.2,712.8,970,709.6,972,709.5z"/>
		<path class="st1" d="M872.9,661.2c2-0.1,2.2,3.1,0.1,3.2C871,664.5,870.9,661.3,872.9,661.2z"/>
		<path class="st1" d="M856.9,728c2-0.1,2.2,3.1,0.1,3.2C855,731.2,854.8,728.1,856.9,728z"/>
		<path class="st1" d="M831.3,596.2c2-0.1,2.2,3.1,0.1,3.2C829.5,599.5,829.3,596.3,831.3,596.2z"/>
		<path class="st1" d="M1021.3,616c2-0.1,2.2,3.1,0.1,3.2C1019.4,619.2,1019.3,616.1,1021.3,616z"/>
		<path class="st1" d="M1001.5,628.1c2-0.1,2.2,3.1,0.1,3.2C999.6,631.3,999.5,628.2,1001.5,628.1z"/>
		<path class="st1" d="M1017,645.5l0.7,0c1.7-0.1,3.3,1.3,3.3,3c0,1.7-1.2,3.2-3,3.3l-0.7,0c-1.7,0.1-3.3-1.3-3.3-3
			C1014,647.1,1015.3,645.6,1017,645.5z"/>
		<path class="st1" d="M834.9,629c1.7,0,3.2,1.2,3.3,3l0,0.7c0.1,1.7-1.3,3.3-3,3.3c-1.7,0-3.2-1.2-3.3-3l0-0.7
			C831.8,630.6,833.2,629,834.9,629z"/>
		<path class="st1" d="M907.8,607.5c4.1-0.2,4.3,6.1,0.3,6.3C904,614,903.7,607.6,907.8,607.5z"/>
		<path class="st1" d="M879,752.2c4.1-0.2,4.3,6.1,0.3,6.3C875.2,758.6,874.9,752.3,879,752.2z"/>
		<path class="st1" d="M643.6,674.7c4.1-0.2,4.3,6.1,0.3,6.3C639.8,681.2,639.5,674.9,643.6,674.7z"/>
		<path class="st1" d="M691.6,615.6c4.1-0.2,4.3,6.1,0.3,6.3C687.8,622.1,687.5,615.8,691.6,615.6z"/>
		<path class="st1" d="M643.6,499.9c4.1-0.2,4.3,6.1,0.3,6.3C639.8,506.4,639.5,500.1,643.6,499.9z"/>
		<path class="st1" d="M688.8,632.6c1.4-0.1,1.4,2,0.1,2.1C687.6,634.8,687.5,632.7,688.8,632.6z"/>
		<path class="st1" d="M627.4,657.4c0.2,0.2,0.5,0.4,0.7,0.7c1,0.9-0.4,2.5-1.4,1.6L626,659C625,658.1,626.4,656.5,627.4,657.4z"/>
		<path class="st1" d="M644.7,579.1c0.2,0.2,0.5,0.4,0.7,0.7c1,0.9-0.4,2.5-1.4,1.6l-0.7-0.7C642.3,579.7,643.7,578.1,644.7,579.1z"
			/>
		<path class="st1" d="M664.2,695.2c1.1,0,2.1,0.8,2.2,2l0,0.7c0,1.1-0.9,2.2-2,2.2c-1.1,0-2.1-0.8-2.2-2l0-0.7
			C662.1,696.3,663,695.2,664.2,695.2z"/>
		<path class="st1" d="M643,694.2c0.2,0,0.3,0,0.4,0.1c0.2-0.2,0.4-0.5,0.7-0.7c0.5-0.5,1.2,0.2,0.8,0.7l-0.7,0.7c0,0,0,0,0,0
			c0,0-0.1,0.1-0.1,0.1c-0.1,0-0.1,0-0.2,0c0,0,0,0,0,0c0,0,0,0,0,0c0,0,0,0,0,0c-0.1,0-0.2,0-0.3-0.1c-0.1,0.1-0.2,0.2-0.3,0.2
			C642.4,695.3,642.4,694.3,643,694.2z"/>
		<path class="st1" d="M669.5,655.6c2.7-0.1,2.9,4.1,0.2,4.2C666.9,659.9,666.7,655.7,669.5,655.6z"/>
		<path class="st1" d="M642.2,739.1c2.7-0.1,2.9,4.1,0.2,4.2C639.7,743.4,639.5,739.2,642.2,739.1z"/>
		<path class="st1" d="M939.8,649.2c0.2-0.2,0.4-0.5,0.7-0.7c0.7-0.8,2.2-0.9,3-0.1c0.8,0.8,0.9,2.1,0.1,3l-0.7,0.7
			c-0.7,0.8-2.2,0.9-3,0.1C939.1,651.4,939,650.1,939.8,649.2z"/>
		<path class="st1" d="M816.7,679.3c2.7-0.1,2.9,4.1,0.2,4.2C814.2,683.6,814,679.4,816.7,679.3z"/>
		<path class="st1" d="M811.3,619.1l0.7,0c1.1,0,2.2,0.9,2.2,2c0,1.1-0.8,2.1-2,2.2l-0.7,0c-1.1,0-2.2-0.9-2.2-2
			C809.3,620.2,810.1,619.2,811.3,619.1z"/>
		<path class="st1" d="M774.7,826c2.7-0.1,2.9,4.1,0.2,4.2C772.2,830.4,772,826.1,774.7,826z"/>
		<path class="st1" d="M495.4,911.5c0.5-0.3,0.9-0.5,1.4-0.8c0.6-0.3,1.2,0.6,0.6,0.9c-0.5,0.3-0.9,0.5-1.4,0.8
			C495.3,912.8,494.8,911.9,495.4,911.5z"/>
		<path class="st1" d="M390.2,888.3c0.5-0.3,0.9-0.5,1.4-0.8c0.6-0.3,1.2,0.6,0.6,0.9c-0.5,0.3-0.9,0.5-1.4,0.8
			C390.2,889.5,389.6,888.6,390.2,888.3z"/>
		<path class="st1" d="M693.9,857.9c0.1,0,0.1,0,0.2,0l0-0.9c0-0.7,1-0.7,1.1,0l0,0.2c0.1,0,0.1,0,0.2,0c0.7,0,0.7,1,0,1.1
			c-0.1,0-0.1,0-0.2,0l0,0.2c0,0.5-0.6,0.7-0.9,0.4c-0.1,0.1-0.2,0.1-0.3,0.2C693.2,859,693.2,857.9,693.9,857.9z"/>
		<path class="st1" d="M738.7,806l1.4-0.1c0.7,0,0.7,1,0,1.1l-0.5,0c0.1,0.3,0,0.7-0.4,0.7l-0.4,0c-0.5,0-0.7-0.6-0.4-0.9
			C738.1,806.6,738.2,806,738.7,806z"/>
		<path class="st1" d="M713.1,757l0,0.7c0,0.7-1,0.7-1.1,0l0-0.7C712.1,756.4,713.1,756.4,713.1,757z"/>
		<path class="st1" d="M695.7,713.9c0.2,0.3,0.4,0.5,0.6,0.8c0.4,0.5-0.5,1.1-0.9,0.6c-0.2-0.3-0.4-0.5-0.6-0.8
			C694.4,714,695.3,713.4,695.7,713.9z"/>
		<path class="st1" d="M905.8,547.6l1.4-0.1c0.7,0,0.7,1,0,1.1l-1.4,0.1C905.2,548.7,905.1,547.6,905.8,547.6z"/>
		<path class="st1" d="M1008.8,563c0.3,0.5,0.5,0.9,0.8,1.4c0.3,0.6-0.6,1.2-0.9,0.6c-0.3-0.5-0.5-0.9-0.8-1.4
			C1007.6,563,1008.5,562.4,1008.8,563z"/>
		<path class="st1" d="M1057.1,537.2l0,0.7c0,0.7-1,0.7-1.1,0l0-0.7C1056,536.6,1057,536.5,1057.1,537.2z"/>
		<path class="st1" d="M743.2,654.6l0.7,0c0.7,0,0.7,1,0,1.1l-0.7,0C742.6,655.7,742.6,654.7,743.2,654.6z"/>
		<path class="st1" d="M901.7,725.5l0.7,0c0.7,0,0.7,1,0,1.1l-0.7,0C901.1,726.6,901.1,725.5,901.7,725.5z"/>
		<path class="st1" d="M886.3,713.2l0.7,0c0.7,0,0.7,1,0,1.1l-0.7,0C885.7,714.3,885.6,713.2,886.3,713.2z"/>
		<path class="st1" d="M822.8,778.7l0.7,0c0.7,0,0.7,1,0,1.1l-0.7,0C822.2,779.8,822.1,778.8,822.8,778.7z"/>
		<path class="st1" d="M811.3,771.1l0.7,0c0.7,0,0.7,1,0,1.1l-0.7,0C810.6,772.2,810.6,771.2,811.3,771.1z"/>
		<path class="st1" d="M802.5,781.7l0.7,0c0.7,0,0.7,1,0,1.1l-0.7,0C801.8,782.8,801.8,781.8,802.5,781.7z"/>
		<path class="st1" d="M886.3,732l0.7,0c0.7,0,0.7,1,0,1.1l-0.7,0C885.6,733.1,885.6,732,886.3,732z"/>
		<path class="st1" d="M863,664.5l0.7,0c0.7,0,0.7,1,0,1.1l-0.7,0C862.3,665.5,862.3,664.5,863,664.5z"/>
		<path class="st1" d="M861.2,644l0.7,0c0.7,0,0.7,1,0,1.1l-0.7,0C860.6,645.1,860.5,644,861.2,644z"/>
		<path class="st1" d="M838.8,652.9l0.7,0c0.7,0,0.7,1,0,1.1l-0.7,0C838.1,654,838.1,652.9,838.8,652.9z"/>
		<path class="st1" d="M928,604.1l0.7,0c0.7,0,0.7,1,0,1.1l-0.7,0C927.4,605.2,927.3,604.1,928,604.1z"/>
		<path class="st1" d="M951.8,633.8l0.7,0c0.7,0,0.7,1,0,1.1l-0.7,0C951.2,634.9,951.1,633.8,951.8,633.8z"/>
		<path class="st1" d="M1145.1,610.8c1,1,1.7,2.7,1.6,4.1c-0.1,1.5-0.6,3-1.8,4.1c-1.2,1-2.6,1.6-4.1,1.6l-0.7,0
			c-1.5,0-3-0.7-4.1-1.8c-1-1-1.7-2.7-1.6-4.1c0.1-1.5,0.6-3,1.8-4.1c1.2-1,2.6-1.6,4.1-1.6l0.7,0
			C1142.5,609.1,1144.1,609.7,1145.1,610.8z"/>
		<path class="st1" d="M1125.7,581.5l0,0.7c0,1.4-2.1,1.3-2.1,0l0-0.7C1123.7,580.1,1125.8,580.2,1125.7,581.5z"/>
		<path class="st1" d="M1024,547.2l0,0.7c0,1.4-2.1,1.3-2.1,0l0-0.7C1021.9,545.8,1024,545.9,1024,547.2z"/>
		<path class="st1" d="M1102.5,620.4c0,1.4-2.1,1.3-2.1,0C1100.4,619,1102.6,619.1,1102.5,620.4z"/>
		<path class="st1" d="M1077.7,658.6c0,2-3.2,2-3.2-0.1C1074.6,656.5,1077.8,656.6,1077.7,658.6z"/>
		<path class="st1" d="M1066.9,638c0,2-3.2,2-3.2-0.1C1063.8,635.9,1066.9,636,1066.9,638z"/>
		<path class="st1" d="M1131.4,649.5c-0.5,0.2-0.9,0.5-1.4,0.7c-0.6,0.3-1.1-0.6-0.5-0.9c0.5-0.2,0.9-0.5,1.4-0.7
			C1131.5,648.2,1132,649.2,1131.4,649.5z"/>
		<path class="st1" d="M1095.5,566.2l0,0.7c0,0.7-1.1,0.7-1.1,0l0-0.7C1094.4,565.5,1095.5,565.5,1095.5,566.2z"/>
		<path class="st1" d="M1064.3,588.1l0,0.7c0,0.7-1.1,0.7-1.1,0l0-0.7C1063.3,587.4,1064.3,587.4,1064.3,588.1z"/>
		<path class="st1" d="M1018,521.5l0,0.7c0,0.7-1.1,0.7-1.1,0l0-0.7C1017,520.8,1018,520.8,1018,521.5z"/>
		<path class="st1" d="M887,599.4l0.7,0c0.7,0,0.7,1,0,1.1l-0.7,0C886.4,600.5,886.3,599.4,887,599.4z"/>
		<path class="st1" d="M868.2,598.1l0.7,0c0.7,0,0.7,1,0,1.1l-0.7,0C867.6,599.2,867.5,598.2,868.2,598.1z"/>
		<path class="st1" d="M795.1,651.6c0.7,0,0.7,1,0,1.1C794.5,652.7,794.4,651.7,795.1,651.6z"/>
		<path class="st1" d="M913,687.2c0.5,0.2,1,0.4,1.4,0.6c0.6,0.3,0.1,1.2-0.5,0.9c-0.5-0.2-1-0.4-1.4-0.6
			C911.9,687.9,912.4,686.9,913,687.2z"/>
		<path class="st1" d="M821.1,713.8c0.7,0,0.7,1,0,1.1C820.4,714.8,820.4,713.8,821.1,713.8z"/>
		<path class="st1" d="M1153.7,896.6c4.1-0.2,4.3,6.1,0.3,6.3C1150,903.1,1149.7,896.7,1153.7,896.6z"/>
		<path class="st1" d="M1117.5,738.6c3.4-0.1,3.6,5.1,0.2,5.3C1114.3,744,1114.1,738.8,1117.5,738.6z"/>
		<path class="st1" d="M1087.7,734.1c2.7-0.1,2.9,4.1,0.2,4.2C1085.2,738.5,1085,734.3,1087.7,734.1z"/>
		<path class="st1" d="M1041.3,700.7c1.4-0.1,1.4,2,0.1,2.1C1040,702.8,1039.9,700.7,1041.3,700.7z"/>
		<path class="st1" d="M1029.9,760.9c1.4-0.1,1.4,2,0.1,2.1C1028.6,763.1,1028.5,761,1029.9,760.9z"/>
		<path class="st1" d="M1057.6,768.9c1.4-0.1,1.4,2,0.1,2.1C1056.4,771,1056.3,768.9,1057.6,768.9z"/>
		<path class="st1" d="M1067,447.9c4,1,2.5,7.1-1.5,6.1C1061.6,453.1,1063.1,446.9,1067,447.9z"/>
		<path class="st1" d="M1167.3,472.6c3.3,0.8,2.1,5.9-1.2,5.1C1162.8,476.9,1164,471.8,1167.3,472.6z"/>
		<path class="st1" d="M1140,460.1c2.6,0.6,1.7,4.7-1,4.1C1136.4,463.5,1137.3,459.4,1140,460.1z"/>
		<path class="st1" d="M1076.9,469.8c1.3,0.3,0.8,2.4-0.5,2C1075.1,471.5,1075.6,469.5,1076.9,469.8z"/>
		<path class="st1" d="M1101.4,485.1c1.3,0.3,0.8,2.4-0.5,2C1099.6,486.8,1100.1,484.8,1101.4,485.1z"/>
		<path class="st1" d="M747.6,878.5c0.2,0.2,0.5,0.4,0.7,0.7c1,0.9-0.4,2.5-1.4,1.6c-0.2-0.2-0.5-0.4-0.7-0.7
			C745.1,879.1,746.6,877.6,747.6,878.5z"/>
		<path class="st1" d="M968.3,667.7c2.3-0.3,4.6-0.7,6.9-1c-1.2-1-2.4-1.9-3.6-2.9c-1.1-0.9,0.3-2.5,1.4-1.6
			c0.9,0.8,1.9,1.5,2.8,2.3c-0.6-3-1.1-6.1-1.7-9.1c-0.2-1.3,1.9-1.5,2.1-0.1c0.6,3.5,1.3,6.9,1.9,10.4l2.6-4.1
			c0.7-1.1,2.6-0.2,1.9,0.9l-2.2,3.5l6.5-1c1.3-0.2,1.5,1.9,0.1,2.1l-6.8,1c1.1,0.9,2.2,1.8,3.3,2.7c1.1,0.9-0.3,2.5-1.4,1.6
			c-1.1-0.9-2.2-1.8-3.3-2.7l2.1,11.2c0.2,1.3-1.9,1.5-2.1,0.1c-0.6-3.3-1.2-6.6-1.8-9.8c-0.9,1.4-1.8,2.9-2.7,4.3
			c-0.7,1.1-2.6,0.2-1.9-0.9c1.3-2,2.5-4,3.8-6l-7.7,1.2C967.1,670,967,667.9,968.3,667.7z"/>
		<path class="st1" d="M964.3,218.6c2.3-0.3,4.6-0.7,6.9-1c-1.2-1-2.4-1.9-3.6-2.9c-1.1-0.9,0.3-2.5,1.4-1.6
			c0.9,0.8,1.9,1.5,2.8,2.3c-0.6-3-1.1-6.1-1.7-9.1c-0.2-1.3,1.9-1.5,2.1-0.1c0.6,3.5,1.3,6.9,1.9,10.4l2.6-4.1
			c0.7-1.1,2.6-0.2,1.9,0.9l-2.2,3.5l6.5-1c1.3-0.2,1.5,1.9,0.1,2.1l-6.8,1c1.1,0.9,2.2,1.8,3.3,2.7c1.1,0.9-0.3,2.5-1.4,1.6
			c-1.1-0.9-2.2-1.8-3.3-2.7l2.1,11.2c0.2,1.3-1.9,1.5-2.1,0.1c-0.6-3.3-1.2-6.6-1.8-9.8c-0.9,1.4-1.8,2.9-2.7,4.3
			c-0.7,1.1-2.6,0.2-1.9-0.9c1.3-2,2.5-4,3.8-6l-7.7,1.2C963.1,220.9,963,218.8,964.3,218.6z"/>
		<path class="st1" d="M694.7,683.5c2.5,0.8,5.1,1.5,7.7,2.1c-0.7-1.1-1.4-2.2-2.1-3.4c-0.2-0.3,0.3-0.6,0.5-0.3
			c0.7,1.2,1.5,2.4,2.2,3.5c0.6-1.9,1.1-3.8,1.7-5.7c0.1-0.3,0.6-0.2,0.5,0.1c-0.5,1.8-1.1,3.7-1.6,5.5l3.4-2
			c0.3-0.2,0.6,0.3,0.3,0.5l-3.5,2c2.4,0.5,4.9,0.9,7.4,1.1c0.3,0,0.2,0.6-0.1,0.5c-2.5-0.3-5.1-0.7-7.5-1.2l1.9,3
			c0.2,0.3-0.3,0.6-0.5,0.3c-0.6-1-1.2-1.9-1.8-2.9c-0.6,2.1-1.2,4.2-1.9,6.3c-0.1,0.3-0.6,0.2-0.5-0.1c0.6-2.2,1.3-4.3,1.9-6.5
			c-0.9,0.5-1.8,1-2.8,1.6c-0.3,0.2-0.6-0.3-0.3-0.5c0.9-0.5,1.8-1,2.7-1.5c-2.6-0.6-5.2-1.3-7.7-2.1
			C694.3,683.9,694.4,683.4,694.7,683.5z"/>
		<path class="st1" d="M654.7,877.3c-0.4-1.5-0.4-3,0.4-4.4l0.3-0.6c0.7-1.3,2-2.4,3.4-2.9c1.4-0.4,3.2-0.4,4.4,0.4
			c1.3,0.7,2.5,1.9,2.9,3.4c0.4,1.5,0.4,3-0.4,4.4l-0.3,0.6c-0.7,1.3-2,2.4-3.4,2.9c-1.4,0.4-3.2,0.4-4.4-0.4
			C656.2,879.9,655.1,878.8,654.7,877.3z"/>
		<path class="st1" d="M548.6,739.3c-0.4-1.4-0.4-3.2,0.4-4.4c0.7-1.3,1.9-2.5,3.4-2.9c1.5-0.4,3-0.4,4.4,0.4l0.6,0.3
			c1.3,0.7,2.4,2,2.9,3.4c0.4,1.4,0.4,3.2-0.4,4.4c-0.7,1.3-1.9,2.5-3.4,2.9c-1.5,0.4-3,0.4-4.4-0.4l-0.6-0.3
			C550.1,742,549,740.7,548.6,739.3z"/>
		<path class="st1" d="M583.1,754c0.6-1.2,2.5-0.2,1.9,1C584.4,756.2,582.5,755.2,583.1,754z"/>
		<path class="st1" d="M606.9,800.3c0.4-0.7,1.3-1.1,2.1-0.7l0.6,0.3c0.7,0.4,1.1,1.4,0.7,2.1c-0.4,0.7-1.3,1.1-2.1,0.7l-0.6-0.3
			C606.9,802,606.5,801,606.9,800.3z"/>
		<path class="st1" d="M658.9,783.6c0.9-1.8,3.7-0.4,2.8,1.4C660.8,786.9,658,785.4,658.9,783.6z"/>
		<path class="st1" d="M643.7,775c0.9-1.8,3.7-0.4,2.8,1.4C645.5,778.2,642.7,776.8,643.7,775z"/>
		<path class="st1" d="M524.1,854.8c1.9-3.6,7.5-0.7,5.6,2.9C527.9,861.3,522.2,858.4,524.1,854.8z"/>
		<path class="st1" d="M545.5,922.7c1.9-3.6,7.5-0.7,5.6,2.9C549.3,929.2,543.7,926.3,545.5,922.7z"/>
		<path class="st1" d="M496.7,783.8c1.9-3.6,7.5-0.7,5.6,2.9C500.5,790.3,494.8,787.4,496.7,783.8z"/>
		<path class="st1" d="M510.1,794.6c0.6-1.2,2.5-0.2,1.9,1C511.3,796.8,509.4,795.8,510.1,794.6z"/>
		<path class="st1" d="M501.1,860.3c0.3-0.1,0.6-0.2,0.9-0.3c1.3-0.4,1.9,1.6,0.6,2l-0.9,0.3C500.4,862.7,499.8,860.7,501.1,860.3z"
			/>
		<path class="st1" d="M684.5,573.8c0.3-0.1,0.6-0.2,0.9-0.3c1.3-0.4,1.9,1.6,0.6,2l-0.9,0.3C683.8,576.3,683.2,574.3,684.5,573.8z"
			/>
		<path class="st1" d="M388.9,846.8c0.3-0.1,0.6-0.2,0.9-0.3c1.3-0.4,1.9,1.6,0.6,2l-0.9,0.3C388.2,849.2,387.6,847.2,388.9,846.8z"
			/>
		<path class="st1" d="M552.2,847.1c0.6-1,1.8-1.4,2.8-0.9l0.6,0.3c1,0.5,1.5,1.8,0.9,2.8c-0.6,1-1.8,1.4-2.8,0.9l-0.6-0.3
			C552.1,849.5,551.6,848.1,552.2,847.1z"/>
		<path class="st1" d="M640.1,945.9c0.6-1,1.8-1.4,2.8-0.9l0.6,0.3c1,0.5,1.5,1.9,0.9,2.8c-0.6,1-1.8,1.4-2.8,0.9l-0.6-0.3
			C640,948.2,639.6,946.8,640.1,945.9z"/>
		<path class="st1" d="M540.8,865c0.1-0.1,0.2-0.2,0.3-0.2c-0.1-0.3-0.2-0.6-0.3-0.9c-0.2-0.6,0.8-1,1-0.3l0.3,0.9c0,0,0,0,0,0
			c0,0.1,0,0.1,0,0.2c0,0.1,0,0.1,0,0.2c0,0,0,0,0,0c0,0,0,0,0,0c0,0,0,0,0,0c-0.1,0.1-0.2,0.2-0.3,0.2c0,0.1,0,0.2,0,0.4
			C541.4,866.1,540.5,865.6,540.8,865z"/>
		<path class="st1" d="M520.4,822.9c1.2-2.4,5-0.5,3.7,1.9C522.9,827.2,519.2,825.3,520.4,822.9z"/>
		<path class="st1" d="M579.3,888c1.2-2.4,5-0.5,3.7,1.9C581.8,892.3,578.1,890.4,579.3,888z"/>
		<path class="st1" d="M433.3,857.3c1.2-2.4,5-0.5,3.7,1.9C435.8,861.6,432,859.7,433.3,857.3z"/>
		<path class="st1" d="M720.6,816.2c1.2-2.4,5-0.5,3.7,1.9C723.1,820.5,719.3,818.6,720.6,816.2z"/>
		<path class="st1" d="M732.8,834.6c0-0.5,0-1,0-1.6c0-0.7,1.1-0.7,1.1-0.1c0,0.5,0,1,0,1.6C733.8,835.2,732.8,835.3,732.8,834.6z"
			/>
		<path class="st1" d="M708.1,902.2c0-0.1,0.1-0.1,0.1-0.1l-0.8-0.4c-0.6-0.3-0.1-1.2,0.5-0.9l0.2,0.1c0-0.1,0-0.1,0-0.2
			c0.3-0.6,1.2-0.1,0.9,0.5c0,0.1-0.1,0.1-0.1,0.1l0.2,0.1c0.4,0.2,0.3,0.8-0.1,1c0,0.1,0,0.2,0,0.4
			C708.7,903.3,707.8,902.8,708.1,902.2z"/>
		<path class="st1" d="M685.3,837.5l0.6-1.2c0.3-0.6,1.2-0.1,0.9,0.5l-0.2,0.4c0.3,0.1,0.6,0.4,0.4,0.7l-0.2,0.4
			c-0.2,0.4-0.8,0.3-1-0.1C685.5,838.3,685.1,838,685.3,837.5z"/>
		<path class="st1" d="M630.1,835.3l0.6,0.3c0.6,0.3,0.1,1.2-0.5,0.9l-0.6-0.3C629,836,629.5,835,630.1,835.3z"/>
		<path class="st1" d="M584.1,829c0.3-0.1,0.6-0.1,1-0.2c0.7-0.1,0.7,0.9,0.1,1.1c-0.3,0.1-0.6,0.1-1,0.2
			C583.4,830.2,583.4,829.1,584.1,829z"/>
		<path class="st1" d="M556.2,758.3l0.3-0.6c0.3-0.6,1.2-0.1,0.9,0.5l-0.3,0.6C556.8,759.4,555.9,759,556.2,758.3z"/>
		<path class="st1" d="M433.8,823.9l0.3-0.6c0.3-0.6,1.2-0.1,0.9,0.5l-0.3,0.6C434.4,825,433.5,824.5,433.8,823.9z"/>
		<path class="st1" d="M695.9,770.1l0.3-0.6c0.3-0.6,1.2-0.1,0.9,0.5l-0.3,0.6C696.6,771.2,695.6,770.7,695.9,770.1z"/>
		<path class="st1" d="M579.4,711.8c0.3-0.6,1.2-0.1,0.9,0.5C580,712.9,579.1,712.4,579.4,711.8z"/>
		<path class="st1" d="M752.6,865.8c0.3-0.1,0.6-0.2,0.9-0.3c1.3-0.4,1.9,1.6,0.6,2c-0.3,0.1-0.6,0.2-0.9,0.3
			C752,868.3,751.3,866.2,752.6,865.8z"/>
		<path class="st1" d="M913.8,986.4c2.7-0.1,2.9,4.1,0.2,4.2C911.3,990.7,911.1,986.5,913.8,986.4z"/>
		<path class="st1" d="M837.5,931.3c0.5-0.3,0.9-0.5,1.4-0.8c0.6-0.3,1.2,0.6,0.6,0.9c-0.5,0.3-0.9,0.5-1.4,0.8
			C837.4,932.6,836.9,931.7,837.5,931.3z"/>
		<path class="st1" d="M643.4,901.5c0.5-0.3,0.9-0.5,1.4-0.8c0.6-0.3,1.2,0.6,0.6,0.9c-0.5,0.3-0.9,0.5-1.4,0.8
			C643.4,902.7,642.8,901.8,643.4,901.5z"/>
		<path class="st1" d="M766.5,943.5c0.1,0,0.1,0,0.2,0l0-0.9c0-0.7,1-0.7,1.1,0l0,0.2c0.1,0,0.1,0,0.2,0c0.7,0,0.7,1,0,1.1
			c-0.1,0-0.1,0-0.2,0l0,0.2c0,0.5-0.6,0.7-0.9,0.4c-0.1,0.1-0.2,0.1-0.3,0.2C765.9,944.6,765.8,943.5,766.5,943.5z"/>
		<path class="st1" d="M811.3,891.6l1.4-0.1c0.7,0,0.7,1,0,1.1l-0.5,0c0.1,0.3,0,0.7-0.4,0.7l-0.4,0c-0.5,0-0.7-0.6-0.4-0.9
			C810.7,892.2,810.8,891.6,811.3,891.6z"/>
		<path class="st1" d="M675.6,945.9c0.2,0.2,0.5,0.4,0.7,0.7c1,0.9-0.4,2.5-1.4,1.6c-0.2-0.2-0.5-0.4-0.7-0.7
			C673.1,946.5,674.6,945,675.6,945.9z"/>
		<path class="st1" d="M818.8,846.2c1.2-2.4,5-0.5,3.7,1.9C821.3,850.6,817.6,848.7,818.8,846.2z"/>
		<path class="st1" d="M805.4,920.2c0-0.5,0-1,0-1.6c0-0.7,1.1-0.7,1.1-0.1c0,0.5,0,1,0,1.6C806.5,920.8,805.4,920.8,805.4,920.2z"
			/>
		<path class="st1" d="M780.7,987.8c0-0.1,0.1-0.1,0.1-0.1l-0.8-0.4c-0.6-0.3-0.1-1.2,0.5-0.9l0.2,0.1c0-0.1,0-0.1,0-0.2
			c0.3-0.6,1.2-0.1,0.9,0.5c0,0.1-0.1,0.1-0.1,0.1l0.2,0.1c0.4,0.2,0.3,0.8-0.1,1c0,0.1,0,0.2,0,0.4
			C781.4,988.8,780.4,988.4,780.7,987.8z"/>
		<path class="st1" d="M758,923.1l0.6-1.2c0.3-0.6,1.2-0.1,0.9,0.5l-0.2,0.4c0.3,0.1,0.6,0.4,0.4,0.7l-0.2,0.4
			c-0.2,0.4-0.8,0.3-1-0.1C758.2,923.9,757.7,923.5,758,923.1z"/>
		<path class="st1" d="M825.3,951.4c0.3-0.1,0.6-0.2,0.9-0.3c1.3-0.4,1.9,1.6,0.6,2c-0.3,0.1-0.6,0.2-0.9,0.3
			C824.6,953.8,824,951.8,825.3,951.4z"/>
		<path class="st1" d="M1076.5,1079.2c1,1.1,1.7,2.5,1.7,4.1l0,0.7c0,1.5-0.6,3-1.7,4.1c-1,1-2.6,1.8-4.1,1.7
			c-1.5-0.1-3.1-0.5-4.1-1.7c-1-1.1-1.7-2.5-1.7-4.1l0-0.7c0-1.5,0.6-3,1.7-4.1c1-1,2.6-1.8,4.1-1.7
			C1073.9,1077.5,1075.5,1078,1076.5,1079.2z"/>
		<path class="st1" d="M1113,930.4c0,2-3.2,2.1-3.2,0C1109.8,928.3,1113,928.3,1113,930.4z"/>
		<path class="st1" d="M1054.2,1006c0,2.7-4.2,2.7-4.2,0C1050,1003.3,1054.2,1003.3,1054.2,1006z"/>
		<path class="st1" d="M1023.9,919.3c0.2,0.5,0.5,0.9,0.7,1.4c0.3,0.6-0.6,1.1-0.9,0.5c-0.2-0.5-0.5-0.9-0.7-1.4
			C1022.7,919.2,1023.6,918.7,1023.9,919.3z"/>
		<path class="st1" d="M1014.6,847.9c0,0.1,0,0.1,0,0.2l0.9,0c0.7,0,0.7,1.1,0,1.1l-0.2,0c0,0.1,0,0.1,0,0.2c0,0.7-1.1,0.7-1.1,0
			c0-0.1,0-0.1,0-0.2l-0.2,0c-0.5,0-0.6-0.6-0.4-0.9c-0.1-0.1-0.1-0.2-0.1-0.3C1013.5,847.3,1014.6,847.3,1014.6,847.9z"/>
		<path class="st1" d="M1064.7,894.8l0,1.4c0,0.7-1.1,0.7-1.1,0l0-0.5c-0.3,0.1-0.7-0.1-0.7-0.5l0-0.4c0-0.5,0.6-0.6,0.9-0.4
			C1064.1,894.1,1064.7,894.3,1064.7,894.8z"/>
		<path class="st1" d="M1114.6,871.2l-0.7,0c-0.7,0-0.7-1.1,0-1.1l0.7,0C1115.3,870.1,1115.3,871.2,1114.6,871.2z"/>
		<path class="st1" d="M1086.4,959.4l0,0.7c0,0.7-1.1,0.7-1.1,0l0-0.7C1085.4,958.8,1086.4,958.8,1086.4,959.4z"/>
		<path class="st1" d="M991.9,900.8c-0.2,0.2-0.5,0.5-0.7,0.7c-1,1-2.5-0.5-1.5-1.5c0.2-0.2,0.5-0.5,0.7-0.7
			C991.3,898.3,992.8,899.8,991.9,900.8z"/>
		<path class="st1" d="M1070.9,848.3c1.5-0.3,3-0.2,4.4,0.5l0.6,0.3c1.3,0.7,2.3,2.1,2.7,3.5c0.4,1.4,0.2,3.2-0.5,4.4
			c-0.8,1.3-2,2.4-3.5,2.7c-1.5,0.3-3,0.2-4.4-0.5l-0.6-0.3c-1.3-0.7-2.3-2.1-2.7-3.5c-0.4-1.4-0.2-3.2,0.5-4.4
			C1068.2,849.8,1069.4,848.7,1070.9,848.3z"/>
		<path class="st1" d="M1090.2,816c1.8,1,0.2,3.8-1.6,2.8C1086.9,817.7,1088.4,815,1090.2,816z"/>
		<path class="st1" d="M1099.5,801c1.8,1,0.2,3.8-1.6,2.8C1096.1,802.8,1097.7,800,1099.5,801z"/>
		<path class="st1" d="M1134.5,1058.6c2.4,1.3,0.3,5-2.1,3.7C1130,1061,1132.1,1057.3,1134.5,1058.6z"/>
		<path class="st1" d="M1036.4,887.8c0.5,0,1,0,1.6,0.1c0.7,0,0.7,1.1,0,1.1c-0.5,0-1,0-1.6-0.1
			C1035.7,888.8,1035.7,887.7,1036.4,887.8z"/>
		<path class="st1" d="M969.8,860.4c0.1,0,0.1,0.1,0.1,0.1l0.5-0.8c0.3-0.6,1.3-0.1,0.9,0.5l-0.1,0.2c0.1,0,0.1,0,0.2,0.1
			c0.6,0.3,0.1,1.3-0.5,0.9c-0.1,0-0.1-0.1-0.1-0.1l-0.1,0.2c-0.2,0.4-0.8,0.3-1-0.1c-0.1,0-0.2,0-0.4-0.1
			C968.7,861,969.2,860,969.8,860.4z"/>
		<path class="st1" d="M1035.3,840.2l1.2,0.7c0.6,0.3,0.1,1.3-0.5,0.9l-0.4-0.2c-0.1,0.3-0.4,0.6-0.8,0.4l-0.4-0.2
			c-0.4-0.2-0.3-0.8,0.1-1C1034.5,840.4,1034.9,839.9,1035.3,840.2z"/>
		<path class="st1" d="M1039.6,785.1l-0.3,0.6c-0.3,0.6-1.3,0.1-0.9-0.5l0.3-0.6C1039.1,784,1040,784.5,1039.6,785.1z"/>
		<path class="st1" d="M1102.2,853.5l0.6,0.3c0.6,0.3,0.1,1.3-0.5,0.9l-0.6-0.3C1101.1,854.1,1101.7,853.1,1102.2,853.5z"/>
		<path class="st1" d="M965.1,947.6c0.1,0.3,0.2,0.6,0.3,1c0.4,1.3-1.7,1.9-2,0.6c-0.1-0.3-0.2-0.6-0.3-1
			C962.7,946.9,964.7,946.3,965.1,947.6z"/>
		<path class="st1" d="M557.1,814.8c2-1.8,3.9-3.7,5.6-5.7c-1.3,0-2.6,0.1-3.9,0.1c-0.3,0-0.4-0.5,0-0.5c1.4,0,2.8-0.1,4.2-0.1
			c-1.4-1.4-2.7-2.9-4.1-4.3c-0.2-0.2,0.1-0.7,0.4-0.4c1.3,1.4,2.6,2.7,4,4.1l0-4c0-0.3,0.5-0.4,0.5,0l0,4c1.6-1.9,3.2-3.8,4.6-5.9
			c0.2-0.3,0.6,0.1,0.4,0.4c-1.5,2.1-3.1,4.1-4.8,6l3.5-0.1c0.3,0,0.4,0.5,0,0.5c-1.1,0-2.2,0.1-3.4,0.1c1.5,1.6,3,3.2,4.6,4.8
			c0.2,0.2-0.1,0.7-0.4,0.4c-1.6-1.6-3.1-3.3-4.7-4.9c0,1.1,0,2.1,0,3.2c0,0.3-0.5,0.4-0.5,0c0-1,0-2,0-3.1c-1.8,2-3.7,3.9-5.6,5.7
			C557.3,815.4,556.9,815,557.1,814.8z"/>
		<path class="st1" d="M809.6,718.5c4-2.3,7.9-4.8,11.7-7.3c-1.9-0.3-3.7-0.7-5.6-1c-0.7-0.1-0.4-1.1,0.2-1c2.1,0.4,4.2,0.8,6.4,1.2
			c-2.3-3.5-4.7-7-7-10.5c-0.4-0.6,0.5-1.1,0.9-0.6c2.3,3.4,4.6,6.9,6.9,10.3c0.5-2.1,1-4.2,1.4-6.4c0.1-0.7,1.1-0.4,1,0.2
			c-0.3,2-0.8,3.9-1.2,5.8c2.9-1.9,5.8-3.9,8.6-6c0.6-0.4,1.1,0.5,0.6,0.9c-3.1,2.2-6.2,4.4-9.4,6.4c1.7,0.3,3.4,0.6,5.1,0.9
			c0.7,0.1,0.4,1.1-0.2,1c-1.5-0.3-2.9-0.5-4.4-0.8c2,3,4.1,6.1,6.1,9.1c0.4,0.6-0.5,1.1-0.9,0.6c-2.1-3.1-4.2-6.3-6.3-9.4
			c-0.5,1.7-0.9,3.3-1.5,5c-0.2,0.6-1.2,0.4-1-0.2c0.6-1.7,1.1-3.4,1.6-5.2c-4.1,2.7-8.2,5.2-12.4,7.7
			C809.5,719.7,809,718.8,809.6,718.5z"/>
		<path class="st1" d="M422.5,908.7c4-2.3,7.9-4.8,11.7-7.3c-1.9-0.3-3.7-0.7-5.6-1c-0.7-0.1-0.4-1.1,0.2-1c2.1,0.4,4.2,0.8,6.4,1.2
			c-2.3-3.5-4.7-7-7-10.5c-0.4-0.6,0.5-1.1,0.9-0.6c2.3,3.4,4.6,6.9,6.9,10.3c0.5-2.1,1-4.2,1.4-6.4c0.1-0.7,1.1-0.4,1,0.2
			c-0.3,2-0.8,3.9-1.2,5.8c2.9-1.9,5.8-3.9,8.6-6c0.6-0.4,1.1,0.5,0.6,0.9c-3.1,2.2-6.2,4.4-9.4,6.4c1.7,0.3,3.4,0.6,5.1,0.9
			c0.7,0.1,0.4,1.1-0.2,1c-1.5-0.3-2.9-0.5-4.4-0.8c2,3,4.1,6.1,6.1,9.1c0.4,0.6-0.5,1.1-0.9,0.6c-2.1-3.1-4.2-6.3-6.3-9.4
			c-0.5,1.7-0.9,3.3-1.5,5c-0.2,0.6-1.2,0.4-1-0.2c0.6-1.7,1.1-3.4,1.6-5.2c-4.1,2.7-8.2,5.2-12.4,7.7
			C422.5,910,421.9,909.1,422.5,908.7z"/>
		<path class="st1" d="M824.7,520.5l9.2,11.2c0-1.3,0.1-2.6,0.1-3.9c0-0.7,1.1-0.7,1.1,0c0,1.3-0.1,2.5-0.1,3.8
			c1.6-1.8,3.3-3.6,4.9-5.4c0.5-0.5,1.2,0.2,0.8,0.7c-1.7,1.9-3.4,3.8-5.1,5.6c1.6,0,3.2,0.1,4.7,0.1c0.7,0,0.7,1.1,0,1.1
			c-1.6,0-3.3-0.1-4.9-0.1c2.6,3.2,5.3,6.4,7.9,9.6c0.4,0.5-0.5,1.1-0.9,0.6c-2.5-3.1-5.1-6.1-7.6-9.2c0,1.9-0.1,3.8-0.1,5.6
			c0,0.7-1.1,0.7-1.1,0c0-2,0.1-3.9,0.1-5.9c-1.7,1.9-3.5,3.8-5.2,5.7c-0.5,0.5-1.2-0.2-0.8-0.7l5.3-5.8l-4.7-0.1
			c-0.7,0-0.7-1.1,0-1.1l4.8,0.1c-3.1-3.8-6.2-7.6-9.4-11.4C823.4,520.6,824.3,520,824.7,520.5z"/>
		<path class="st1" d="M880.7,39.8c-0.3-1.4,0-3.2,0.9-4.3c0.9-1.2,2.2-2.2,3.7-2.4c1.5-0.2,3,0,4.3,0.9l0.6,0.4
			c1.2,0.8,2.2,2.2,2.4,3.7c0.3,1.4,0,3.2-0.9,4.3c-0.9,1.2-2.2,2.2-3.7,2.4c-1.5,0.2-3,0-4.3-0.9l-0.6-0.4
			C881.9,42.7,881,41.3,880.7,39.8z"/>
		<path class="st1" d="M829.5,319.3c-0.3-1.4,0-3.2,0.9-4.3c0.9-1.2,2.2-2.2,3.7-2.4c1.5-0.2,3,0,4.3,0.9l0.6,0.4
			c1.2,0.8,2.2,2.2,2.4,3.7c0.3,1.4,0,3.2-0.9,4.3c-0.9,1.2-2.2,2.2-3.7,2.4c-1.5,0.2-3,0-4.3-0.9l-0.6-0.4
			C830.7,322.2,829.8,320.8,829.5,319.3z"/>
		<path class="st1" d="M874.4,416.9c4.2-6.2,13.8,0.3,9.6,6.5C879.8,429.5,870.2,423.1,874.4,416.9z"/>
		<path class="st1" d="M887.2,131.3l0.4-0.6c0.8-1.1,2.5,0.1,1.7,1.2l-0.4,0.6C888.2,133.6,886.5,132.4,887.2,131.3z"/>
		<path class="st1" d="M927.9,111.3c0.8-1.1,2.5,0.1,1.7,1.2C928.8,113.6,927.1,112.4,927.9,111.3z"/>
		<path class="st1" d="M862,338c0.8-1.1,2.5,0.1,1.7,1.2C863,340.3,861.3,339.2,862,338z"/>
		<path class="st1" d="M880.2,386.8c0.5-0.7,1.5-0.9,2.2-0.4l0.6,0.4c0.7,0.5,0.9,1.5,0.4,2.2c-0.5,0.7-1.5,0.9-2.2,0.4l-0.6-0.4
			C880,388.5,879.7,387.4,880.2,386.8z"/>
		<path class="st1" d="M933.9,376.4c1.1-1.7,3.8,0.1,2.6,1.8C935.3,379.8,932.7,378,933.9,376.4z"/>
		<path class="st1" d="M919.7,365.9c1.1-1.7,3.8,0.1,2.6,1.8C921.2,369.4,918.6,367.6,919.7,365.9z"/>
		<path class="st1" d="M1015.2,188.1c1.1-1.7,3.8,0.1,2.6,1.8C1016.7,191.5,1014.1,189.7,1015.2,188.1z"/>
		<path class="st1" d="M917.3,238.9c1.1-1.7,3.8,0.1,2.6,1.8C918.8,242.4,916.2,240.6,917.3,238.9z"/>
		<path class="st1" d="M961.4,291.6c1.1-1.7,3.8,0.1,2.6,1.8C962.9,295,960.3,293.3,961.4,291.6z"/>
		<path class="st1" d="M840.4,233.6c1.1-1.7,3.8,0.1,2.6,1.8C841.9,237,839.3,235.3,840.4,233.6z"/>
		<path class="st1" d="M842.9,59.7c1.1-1.7,3.8,0.1,2.6,1.8C844.4,63.1,841.8,61.4,842.9,59.7z"/>
		<path class="st1" d="M804.1,207.7c1.1-1.7,3.8,0.1,2.6,1.8C805.6,211.1,803,209.4,804.1,207.7z"/>
		<path class="st1" d="M969.4,92.7c1.1-1.7,3.8,0.1,2.6,1.8C970.9,96.2,968.3,94.4,969.4,92.7z"/>
		<path class="st1" d="M967.3,115.9c1.1-1.7,3.8,0.1,2.6,1.8C968.8,119.4,966.2,117.6,967.3,115.9z"/>
		<path class="st1" d="M990.6,113.8l0.4-0.6c0.9-1.4,3-1.9,4.4-0.9c1.4,1,1.8,2.9,0.9,4.4l-0.4,0.6c-0.9,1.4-3,1.9-4.4,0.9
			C990,117.2,989.6,115.3,990.6,113.8z"/>
		<path class="st1" d="M868.8,250.2c1-1.4,2.9-1.8,4.4-0.9l0.6,0.4c1.4,0.9,1.9,3,0.9,4.4c-1,1.4-2.9,1.8-4.4,0.9l-0.6-0.4
			C868.3,253.7,867.8,251.6,868.8,250.2z"/>
		<path class="st1" d="M894.9,178.9c2.3-3.4,7.5,0.2,5.2,3.5C897.9,185.8,892.6,182.3,894.9,178.9z"/>
		<path class="st1" d="M994,288.2c2.3-3.4,7.5,0.2,5.2,3.5C997,295.1,991.7,291.5,994,288.2z"/>
		<path class="st1" d="M791.6,431.1c2.3-3.4,7.5,0.2,5.2,3.5C794.5,438,789.3,434.5,791.6,431.1z"/>
		<path class="st1" d="M774.2,520.1c2.3-3.4,7.5,0.2,5.2,3.5C777.2,527,771.9,523.4,774.2,520.1z"/>
		<path class="st1" d="M772.7,357.4c2.3-3.4,7.5,0.2,5.2,3.5C775.7,364.3,770.4,360.8,772.7,357.4z"/>
		<path class="st1" d="M784.7,369.7c0.8-1.1,2.5,0.1,1.7,1.2C785.7,372,784,370.9,784.7,369.7z"/>
		<path class="st1" d="M758,266c0.8-1.1,2.5,0.1,1.7,1.2C758.9,268.3,757.2,267.2,758,266z"/>
		<path class="st1" d="M820.3,426.8c0.7-0.9,1.9-1.2,2.9-0.6l0.6,0.4c0.9,0.6,1.2,2,0.6,2.9c-0.7,0.9-1.9,1.2-2.9,0.6l-0.6-0.4
			C820,429.1,819.6,427.7,820.3,426.8z"/>
		<path class="st1" d="M806.9,443.2c0.1-0.1,0.2-0.2,0.3-0.2c-0.1-0.3-0.1-0.6-0.2-1c-0.1-0.7,0.9-0.9,1-0.2l0.2,1c0,0,0,0,0,0
			c0,0.1,0,0.1,0,0.2c0,0.1,0,0.1-0.1,0.1c0,0,0,0,0,0c0,0,0,0,0,0c0,0,0,0,0,0c-0.1,0.1-0.2,0.2-0.3,0.2c0,0.1,0,0.2-0.1,0.4
			C807.4,444.4,806.6,443.8,806.9,443.2z"/>
		<path class="st1" d="M791.7,399c1.5-2.2,5,0.1,3.5,2.4C793.6,403.6,790.1,401.2,791.7,399z"/>
		<path class="st1" d="M842.5,470.6c1.5-2.2,5,0.1,3.5,2.4C844.4,475.2,840.9,472.8,842.5,470.6z"/>
		<path class="st1" d="M754.3,301.6c1.5-2.2,5,0.1,3.5,2.4C756.3,306.2,752.8,303.9,754.3,301.6z"/>
		<path class="st1" d="M947.5,178c-0.1-0.3-0.1-0.7-0.2-1c-0.2-1.1,0.5-2.3,1.7-2.5c1.1-0.2,2.2,0.5,2.5,1.7l0.2,1
			c0.2,1.1-0.5,2.3-1.7,2.5C948.8,179.9,947.7,179.2,947.5,178z"/>
		<path class="st1" d="M898.4,294.8c1.5-2.2,5,0.1,3.5,2.4C900.4,299.4,896.9,297.1,898.4,294.8z"/>
		<path class="st1" d="M846.8,263.3l0.4-0.6c0.6-0.9,2-1.2,2.9-0.6c0.9,0.7,1.2,1.9,0.6,2.9l-0.4,0.6c-0.6,0.9-2,1.2-2.9,0.6
			C846.5,265.6,846.1,264.3,846.8,263.3z"/>
		<path class="st1" d="M991.2,415.9c1.5-2.2,5,0.1,3.5,2.4C993.2,420.5,989.7,418.2,991.2,415.9z"/>
		<path class="st1" d="M1001.2,435.7c0.1-0.5,0.1-1,0.2-1.6c0.1-0.7,1.1-0.6,1.1,0.1c-0.1,0.5-0.1,1-0.2,1.6
			C1002.2,436.4,1001.1,436.3,1001.2,435.7z"/>
		<path class="st1" d="M968.7,499.9c0-0.1,0.1-0.1,0.1-0.1l-0.8-0.5c-0.6-0.4,0-1.3,0.6-0.9l0.2,0.1c0-0.1,0-0.1,0.1-0.2
			c0.4-0.6,1.3,0,0.9,0.6c0,0.1-0.1,0.1-0.1,0.1l0.2,0.1c0.4,0.3,0.2,0.8-0.2,0.9c0,0.1,0,0.2-0.1,0.4
			C969.2,501,968.3,500.4,968.7,499.9z"/>
		<path class="st1" d="M953.7,433l0.8-1.2c0.4-0.6,1.3,0,0.9,0.6l-0.3,0.4c0.3,0.1,0.5,0.4,0.3,0.8l-0.2,0.4
			c-0.3,0.4-0.8,0.2-0.9-0.2C953.8,433.8,953.4,433.4,953.7,433z"/>
		<path class="st1" d="M899.1,424.3l0.6,0.4c0.6,0.4,0,1.3-0.6,0.9l-0.6-0.4C898,424.8,898.6,423.9,899.1,424.3z"/>
		<path class="st1" d="M854.1,412.6c0.3,0,0.7,0,1-0.1c0.7,0,0.6,1-0.1,1.1c-0.3,0-0.7,0-1,0.1C853.4,413.7,853.5,412.6,854.1,412.6
			z"/>
		<path class="st1" d="M845.7,144.8l0.8-1.2c0.4-0.6,1.3,0,0.9,0.6l-0.8,1.2C846.2,145.9,845.3,145.4,845.7,144.8z"/>
		<path class="st1" d="M919.4,71.2c0.5,0.1,1,0.1,1.6,0.2c0.7,0.1,0.6,1.1-0.1,1.1c-0.5-0.1-1-0.1-1.6-0.2
			C918.7,72.2,918.8,71.1,919.4,71.2z"/>
		<path class="st1" d="M927.4,17.1l0.6,0.4c0.6,0.4,0,1.3-0.6,0.9l-0.6-0.4C926.3,17.6,926.9,16.8,927.4,17.1z"/>
		<path class="st1" d="M834.8,339.1l0.4-0.6c0.4-0.6,1.3,0,0.9,0.6l-0.4,0.6C835.3,340.3,834.4,339.7,834.8,339.1z"/>
		<path class="st1" d="M986.1,254l0.4-0.6c0.4-0.6,1.3,0,0.9,0.6l-0.4,0.6C986.6,255.2,985.8,254.6,986.1,254z"/>
		<path class="st1" d="M967.1,259.1l0.4-0.6c0.4-0.6,1.3,0,0.9,0.6l-0.4,0.6C967.6,260.3,966.7,259.7,967.1,259.1z"/>
		<path class="st1" d="M981.9,349.1l0.4-0.6c0.4-0.6,1.3,0,0.9,0.6l-0.4,0.6C982.4,350.3,981.5,349.7,981.9,349.1z"/>
		<path class="st1" d="M968.9,353.9l0.4-0.6c0.4-0.6,1.3,0,0.9,0.6l-0.4,0.6C969.4,355,968.6,354.5,968.9,353.9z"/>
		<path class="st1" d="M972.2,367.3l0.4-0.6c0.4-0.6,1.3,0,0.9,0.6l-0.4,0.6C972.7,368.4,971.8,367.8,972.2,367.3z"/>
		<path class="st1" d="M982.1,270.3l0.4-0.6c0.4-0.6,1.3,0,0.9,0.6l-0.4,0.6C982.6,271.5,981.8,270.9,982.1,270.3z"/>
		<path class="st1" d="M914,248.8l0.4-0.6c0.4-0.6,1.3,0,0.9,0.6l-0.4,0.6C914.5,250,913.6,249.4,914,248.8z"/>
		<path class="st1" d="M896.5,238l0.4-0.6c0.4-0.6,1.3,0,0.9,0.6l-0.4,0.6C897,239.2,896.1,238.6,896.5,238z"/>
		<path class="st1" d="M708.8,303.6l0.4-0.6c0.4-0.6,1.3,0,0.9,0.6l-0.4,0.6C709.3,304.8,708.4,304.2,708.8,303.6z"/>
		<path class="st1" d="M890.3,261.4l0.4-0.6c0.4-0.6,1.3,0,0.9,0.6l-0.4,0.6C890.8,262.5,889.9,261.9,890.3,261.4z"/>
		<path class="st1" d="M904.3,160.6l0.4-0.6c0.4-0.6,1.3,0,0.9,0.6l-0.4,0.6C904.8,161.8,903.9,161.2,904.3,160.6z"/>
		<path class="st1" d="M942.3,159.2l0.4-0.6c0.4-0.6,1.3,0,0.9,0.6l-0.4,0.6C942.8,160.3,942,159.8,942.3,159.2z"/>
		<path class="st1" d="M876.1,190.8l0.4-0.6c0.4-0.6,1.3,0,0.9,0.6l-0.4,0.6C876.6,191.9,875.7,191.3,876.1,190.8z"/>
		<path class="st1" d="M863.9,205.1l0.4-0.6c0.4-0.6,1.3,0,0.9,0.6l-0.4,0.6C864.4,206.3,863.5,205.7,863.9,205.1z"/>
		<path class="st1" d="M863.3,295.7c0.4-0.6,1.3,0,0.9,0.6C863.8,296.8,862.9,296.2,863.3,295.7z"/>
		<path class="st1" d="M962.1,222.2c0.5-0.3,0.9-0.5,1.4-0.8c0.6-0.3,1,0.6,0.5,0.9c-0.5,0.3-0.9,0.5-1.4,0.8
			C962,223.5,961.5,222.5,962.1,222.2z"/>
		<path class="st1" d="M928.7,311.8c0.4-0.6,1.3,0,0.9,0.6C929.2,313,928.3,312.4,928.7,311.8z"/>
		<path class="st1" d="M1067,173.9c2.3-3.4,7.5,0.2,5.2,3.5C1069.9,180.8,1064.7,177.2,1067,173.9z"/>
		<path class="st1" d="M1125.2,88.6c1.9-2.8,6.3,0.1,4.4,2.9C1127.7,94.3,1123.3,91.4,1125.2,88.6z"/>
		<path class="st1" d="M1103.9,109.8c1.5-2.2,5,0.1,3.5,2.4C1105.8,114.4,1102.4,112,1103.9,109.8z"/>
		<path class="st1" d="M1049.3,127.2c0.8-1.1,2.5,0.1,1.7,1.2C1050.3,129.5,1048.6,128.3,1049.3,127.2z"/>
		<path class="st1" d="M1090.9,172.2c0.8-1.1,2.5,0.1,1.7,1.2C1091.9,174.5,1090.2,173.4,1090.9,172.2z"/>
		<path class="st1" d="M1113.8,154.6c0.8-1.1,2.5,0.1,1.7,1.2C1114.8,156.9,1113.1,155.8,1113.8,154.6z"/>
		<path class="st1" d="M1017.2,469c0.3-0.1,0.7-0.1,1-0.2c1.3-0.3,1.7,1.8,0.4,2.1c-0.3,0.1-0.7,0.1-1,0.2
			C1016.3,471.4,1015.9,469.3,1017.2,469z"/>
		<path class="st1" d="M770.7,492.1c1.2,0.7,2.4,2.1,2.6,3.6c0.3,1.5,0.2,3.1-0.7,4.4c-0.8,1.3-2,2.3-3.6,2.6l-0.7,0.2
			c-1.4,0.4-3.1,0.1-4.4-0.7c-1.2-0.7-2.4-2.1-2.6-3.6c-0.3-1.5-0.2-3.1,0.7-4.4c0.8-1.3,2-2.3,3.6-2.6l0.7-0.2
			C767.7,491.1,769.4,491.4,770.7,492.1z"/>
		<path class="st1" d="M744.4,468.9l0.2,0.7c0.3,1.3-1.7,1.8-2,0.5l-0.2-0.7C742,468.1,744,467.6,744.4,468.9z"/>
		<path class="st1" d="M732.1,512.5c0.3,1.3-1.7,1.8-2,0.5C729.7,511.7,731.8,511.2,732.1,512.5z"/>
		<path class="st1" d="M718.2,555.8c0.5,2-2.6,2.7-3.1,0.8C714.6,554.6,717.7,553.9,718.2,555.8z"/>
		<path class="st1" d="M648.3,531.7c0.5,2-2.6,2.7-3.1,0.8C644.7,530.5,647.8,529.8,648.3,531.7z"/>
		<path class="st1" d="M767.5,533c-0.4,0.3-0.8,0.7-1.2,1c-0.5,0.4-1.2-0.3-0.7-0.8c0.4-0.3,0.8-0.7,1.2-1
			C767.3,531.8,768,532.6,767.5,533z"/>
		<path class="st1" d="M802.4,575.1l-0.7,0.2c-0.7,0.2-0.9-0.9-0.3-1l0.7-0.2C802.8,573.9,803.1,574.9,802.4,575.1z"/>
		<path class="st1" d="M711.2,462l0.2,0.7c0.2,0.7-0.9,0.9-1,0.3l-0.2-0.7C710,461.6,711,461.4,711.2,462z"/>
		<path class="st1" d="M921.7,445.9c2.5,1,0.9,4.9-1.6,3.9C917.6,448.7,919.2,444.8,921.7,445.9z"/>
		<path class="st1" d="M890.8,500.1c0.5,0,1-0.1,1.6-0.1c0.7-0.1,0.8,1,0.1,1c-0.5,0-1,0.1-1.6,0.1
			C890.3,501.2,890.1,500.1,890.8,500.1z"/>
		<path class="st1" d="M821.4,481.1c0.1,0,0.1,0.1,0.1,0.1l0.3-0.8c0.3-0.6,1.2-0.2,1,0.4l-0.1,0.2c0.1,0,0.1,0,0.2,0
			c0.6,0.3,0.2,1.2-0.4,1c-0.1,0-0.1-0.1-0.1-0.1l-0.1,0.2c-0.2,0.5-0.8,0.4-1,0c-0.1,0-0.2,0.1-0.4,0
			C820.4,481.8,820.8,480.8,821.4,481.1z"/>
		<path class="st1" d="M884,453l1.3,0.5c0.6,0.3,0.2,1.2-0.4,1l-0.5-0.2c0,0.3-0.3,0.6-0.7,0.5l-0.4-0.2c-0.5-0.2-0.4-0.8,0-1
			C883.2,453.3,883.5,452.8,884,453z"/>
		<path class="st1" d="M1107.5,5.7c0.1-0.5,0.1-1,0.2-1.6c0.1-0.7,1.1-0.6,1.1,0.1c-0.1,0.5-0.1,1-0.2,1.6
			C1108.5,6.5,1107.4,6.4,1107.5,5.7z"/>
		<path class="st1" d="M1075,70c0-0.1,0.1-0.1,0.1-0.1l-0.8-0.5c-0.6-0.4,0-1.3,0.6-0.9l0.2,0.1c0-0.1,0-0.1,0.1-0.2
			c0.4-0.6,1.3,0,0.9,0.6c0,0.1-0.1,0.1-0.1,0.1l0.2,0.1c0.4,0.3,0.2,0.8-0.2,0.9c0,0.1,0,0.2-0.1,0.4
			C1075.5,71.1,1074.6,70.5,1075,70z"/>
		<path class="st1" d="M1069.7,25l0.8-1.2c0.4-0.6,1.3,0,0.9,0.6l-0.3,0.4c0.3,0.1,0.5,0.4,0.3,0.8l-0.2,0.4
			c-0.3,0.4-0.8,0.2-0.9-0.2C1069.8,25.9,1069.4,25.4,1069.7,25z"/>
		<path class="st1" d="M1050.2,40.6l0.6,0.4c0.6,0.4,0,1.3-0.6,0.9l-0.6-0.4C1049,41.1,1049.6,40.2,1050.2,40.6z"/>
		<path class="st1" d="M1123.5,39.1c0.3-0.1,0.7-0.1,1-0.2c1.3-0.3,1.7,1.8,0.4,2.1c-0.3,0.1-0.7,0.1-1,0.2
			C1122.6,41.4,1122.2,39.4,1123.5,39.1z"/>
		<path class="st1" d="M1014.5,56.5c2.5,1,0.9,4.9-1.6,3.9C1010.3,59.4,1012,55.5,1014.5,56.5z"/>
		<path class="st1" d="M997.1,70.2c0.5,0,1-0.1,1.6-0.1c0.7-0.1,0.8,1,0.1,1c-0.5,0-1,0.1-1.6,0.1C996.6,71.3,996.5,70.2,997.1,70.2
			z"/>
		<path class="st1" d="M990.3,23.1l1.3,0.5c0.6,0.3,0.2,1.2-0.4,1l-0.5-0.2c0,0.3-0.3,0.6-0.7,0.5l-0.4-0.2c-0.5-0.2-0.4-0.8,0-1
			C989.5,23.4,989.8,22.9,990.3,23.1z"/>
		<path class="st1" d="M861.3,522.5c0.1,0.3,0.3,0.6,0.4,0.9c0.5,1.3-1.4,2.1-1.9,0.8c-0.1-0.3-0.3-0.6-0.4-0.9
			C858.8,522,860.8,521.2,861.3,522.5z"/>
		<path class="st1" d="M1037.4,95.2c1.1-2,2.2-4.1,3.3-6.1c-1.5,0.4-3,0.8-4.4,1.2c-1.3,0.3-1.8-1.7-0.5-2.1
			c1.2-0.3,2.3-0.6,3.5-0.9c-2.8-1.3-5.5-2.7-8.3-4c-1.2-0.6-0.1-2.4,1.1-1.8c3.2,1.5,6.3,3.1,9.5,4.6l-1.7-4.5
			c-0.5-1.3,1.4-2.2,1.9-1l1.5,3.8l3.1-5.8c0.6-1.2,2.4-0.1,1.8,1.1l-3.2,6.1c1.4-0.4,2.8-0.7,4.2-1.1c1.3-0.3,1.8,1.7,0.5,2.1
			c-1.4,0.4-2.7,0.7-4.1,1.1l10.3,5c1.2,0.6,0.1,2.4-1.1,1.8c-3-1.5-6-2.9-9-4.4c0.6,1.6,1.2,3.2,1.8,4.8c0.5,1.3-1.4,2.2-1.9,1
			c-0.9-2.2-1.7-4.4-2.6-6.6l-3.7,6.9C1038.5,97.5,1036.8,96.4,1037.4,95.2z"/>
		<path class="st1" d="M1012.2,358.6c0.8-1.1,2.5,0.1,1.7,1.2C1013.1,360.9,1011.4,359.7,1012.2,358.6z"/>
		<path class="st1" d="M1053.7,340c1.1-1.7,3.8,0.1,2.6,1.8C1055.2,343.5,1052.6,341.7,1053.7,340z"/>
		<path class="st1" d="M1051.6,363.2c1.1-1.7,3.8,0.1,2.6,1.8C1053.1,366.6,1050.5,364.9,1051.6,363.2z"/>
		<path class="st1" d="M1074.9,361.1l0.4-0.6c0.9-1.4,3-1.9,4.4-0.9c1.4,1,1.8,2.9,0.9,4.4l-0.4,0.6c-0.9,1.4-3,1.9-4.4,0.9
			C1074.3,364.5,1073.9,362.6,1074.9,361.1z"/>
		<path class="st1" d="M1031.8,425.3c-0.1-0.3-0.1-0.7-0.2-1c-0.2-1.1,0.5-2.3,1.7-2.5c1.1-0.2,2.2,0.5,2.5,1.7l0.2,1
			c0.2,1.1-0.5,2.3-1.7,2.5C1033.1,427.2,1032,426.5,1031.8,425.3z"/>
		<path class="st1" d="M1003.7,318.5c0.5,0.1,1,0.1,1.6,0.2c0.7,0.1,0.6,1.1-0.1,1.1c-0.5-0.1-1-0.1-1.6-0.2
			C1003,319.5,1003.1,318.4,1003.7,318.5z"/>
		<path class="st1" d="M1011.7,264.4l0.6,0.4c0.6,0.4,0,1.3-0.6,0.9l-0.6-0.4C1010.6,264.9,1011.2,264.1,1011.7,264.4z"/>
		<path class="st1" d="M1026.6,406.5l0.4-0.6c0.4-0.6,1.3,0,0.9,0.6l-0.4,0.6C1027.1,407.6,1026.2,407,1026.6,406.5z"/>
		<path class="st1" d="M1151.3,421.1c2.3-3.4,7.5,0.2,5.2,3.5C1154.2,428.1,1149,424.5,1151.3,421.1z"/>
		<path class="st1" d="M1133.6,374.5c0.8-1.1,2.5,0.1,1.7,1.2C1134.6,376.8,1132.9,375.6,1133.6,374.5z"/>
		<path class="st1" d="M1070.8,204.1c0.5-0.7,1.5-0.9,2.2-0.4l0.6,0.4c0.7,0.5,0.9,1.5,0.4,2.2c-0.5,0.7-1.5,0.9-2.2,0.4l-0.6-0.4
			C1070.6,205.9,1070.3,204.8,1070.8,204.1z"/>
		<path class="st1" d="M1124.5,193.7c1.1-1.7,3.8,0.1,2.6,1.8C1126,197.2,1123.3,195.4,1124.5,193.7z"/>
		<path class="st1" d="M1152.1,142.2c1.5-2.2,5,0.1,3.5,2.4C1154.1,146.8,1150.6,144.5,1152.1,142.2z"/>
		<path class="st1" d="M1159.3,317.3c0-0.1,0.1-0.1,0.1-0.1l-0.8-0.5c-0.6-0.4,0-1.3,0.6-0.9l0.2,0.1c0-0.1,0-0.1,0.1-0.2
			c0.4-0.6,1.3,0,0.9,0.6c0,0.1-0.1,0.1-0.1,0.1l0.2,0.1c0.4,0.3,0.2,0.8-0.2,0.9c0,0.1,0,0.2-0.1,0.4
			C1159.8,318.4,1158.9,317.8,1159.3,317.3z"/>
		<path class="st1" d="M1144.3,250.4l0.8-1.2c0.4-0.6,1.3,0,0.9,0.6l-0.3,0.4c0.3,0.1,0.5,0.4,0.3,0.8l-0.2,0.4
			c-0.3,0.4-0.8,0.2-0.9-0.2C1144.4,251.2,1144,250.8,1144.3,250.4z"/>
		<path class="st1" d="M1089.8,241.7l0.6,0.4c0.6,0.4,0,1.3-0.6,0.9l-0.6-0.4C1088.6,242.2,1089.2,241.3,1089.8,241.7z"/>
		<path class="st1" d="M1098.8,303.8c2.5,1,0.9,4.9-1.6,3.9C1094.6,306.6,1096.3,302.8,1098.8,303.8z"/>
		<path class="st1" d="M1081.4,317.5c0.5,0,1-0.1,1.6-0.1c0.7-0.1,0.8,1,0.1,1c-0.5,0-1,0.1-1.6,0.1
			C1080.9,318.6,1080.8,317.5,1081.4,317.5z"/>
		<path class="st1" d="M1074.6,270.4l1.3,0.5c0.6,0.3,0.2,1.2-0.4,1l-0.5-0.2c0,0.3-0.3,0.6-0.7,0.5l-0.4-0.2c-0.5-0.2-0.4-0.8,0-1
			C1073.8,270.7,1074.1,270.2,1074.6,270.4z"/>
		<path class="st1" d="M1063.6,413.4c1.1-2,2.2-4.1,3.3-6.1c-1.5,0.4-3,0.8-4.4,1.2c-1.3,0.3-1.8-1.7-0.5-2.1
			c1.2-0.3,2.3-0.6,3.5-0.9c-2.8-1.3-5.5-2.7-8.3-4c-1.2-0.6-0.1-2.4,1.1-1.8c3.2,1.5,6.3,3.1,9.5,4.6l-1.7-4.5
			c-0.5-1.3,1.4-2.2,1.9-1l1.5,3.8l3.1-5.8c0.6-1.2,2.4-0.1,1.8,1.1l-3.2,6.1c1.4-0.4,2.8-0.7,4.2-1.1c1.3-0.3,1.8,1.7,0.5,2.1
			c-1.4,0.4-2.7,0.7-4.1,1.1l10.3,5c1.2,0.6,0.1,2.4-1.1,1.8c-3-1.5-6-2.9-9-4.4c0.6,1.6,1.2,3.2,1.8,4.8c0.5,1.3-1.4,2.2-1.9,1
			c-0.9-2.2-1.7-4.4-2.6-6.6l-3.7,6.9C1064.8,415.8,1063,414.6,1063.6,413.4z"/>
		<path class="st1" d="M700.5,498.9c2.2,1.5,4.5,2.9,6.8,4.2c-0.4-1.3-0.7-2.5-1.1-3.8c-0.1-0.3,0.4-0.5,0.5-0.1
			c0.4,1.3,0.7,2.7,1.1,4c1.1-1.7,2.1-3.3,3.2-5c0.2-0.3,0.7,0,0.5,0.3c-1,1.6-2.1,3.2-3.1,4.8l3.9-0.9c0.3-0.1,0.5,0.4,0.1,0.5
			l-3.9,0.9c2.2,1.2,4.5,2.2,6.8,3.2c0.3,0.1,0.1,0.6-0.3,0.5c-2.4-1-4.7-2-6.9-3.2l0.9,3.4c0.1,0.3-0.4,0.5-0.5,0.1
			c-0.3-1.1-0.6-2.2-0.9-3.2c-1.2,1.9-2.4,3.7-3.6,5.6c-0.2,0.3-0.7,0-0.5-0.3c1.2-1.9,2.4-3.8,3.7-5.7c-1,0.2-2.1,0.5-3.1,0.7
			c-0.3,0.1-0.5-0.4-0.1-0.5c1-0.2,2-0.5,3-0.7c-2.3-1.3-4.6-2.7-6.8-4.2C700,499.2,700.2,498.7,700.5,498.9z"/>
		<path class="st1" d="M790.9,322.5c2.2-1.5,4.3-3.2,6.3-5c-1.3-0.1-2.6-0.2-3.9-0.3c-0.3,0-0.3-0.6,0-0.5c1.4,0.1,2.8,0.2,4.2,0.3
			c-1.2-1.6-2.4-3.2-3.6-4.7c-0.2-0.3,0.2-0.6,0.4-0.4c1.1,1.5,2.3,3,3.4,4.6l0.5-3.9c0-0.3,0.6-0.3,0.5,0l-0.5,4
			c1.8-1.7,3.6-3.4,5.3-5.3c0.2-0.3,0.6,0.2,0.4,0.4c-1.7,1.9-3.5,3.7-5.4,5.4l3.5,0.3c0.3,0,0.3,0.6,0,0.5
			c-1.1-0.1-2.2-0.2-3.4-0.3c1.3,1.8,2.7,3.5,4,5.3c0.2,0.3-0.2,0.6-0.4,0.4c-1.4-1.8-2.7-3.6-4.1-5.4c-0.1,1.1-0.3,2.1-0.4,3.2
			c0,0.3-0.6,0.3-0.5,0c0.1-1,0.2-2,0.4-3c-2,1.8-4.1,3.4-6.3,5C791,323.1,790.6,322.7,790.9,322.5z"/>
		<path class="st1" d="M974.1,778.9c1-1,2.6-1.9,4-1.9c1.5,0,3.1,0.4,4.2,1.5c1.1,1.1,1.8,2.4,1.9,4l0,0.7c0.1,1.5-0.5,3.1-1.5,4.2
			c-1,1-2.6,1.9-4,1.9c-1.5,0-3.1-0.4-4.2-1.5c-1.1-1.1-1.8-2.4-1.9-4l0-0.7C972.5,781.6,973.1,780,974.1,778.9z"/>
		<path class="st1" d="M983.6,998.6l1.4-0.1c0.7,0,0.7,1,0,1.1l-1.4,0.1C983,999.7,982.9,998.6,983.6,998.6z"/>
		<path class="st1" d="M959.6,1014.1l9.2,11.2c0-1.3,0.1-2.6,0.1-3.9c0-0.7,1.1-0.7,1.1,0c0,1.3-0.1,2.5-0.1,3.8
			c1.6-1.8,3.3-3.6,4.9-5.4c0.5-0.5,1.2,0.2,0.8,0.7c-1.7,1.9-3.4,3.8-5.1,5.6c1.6,0,3.2,0.1,4.7,0.1c0.7,0,0.7,1.1,0,1.1
			c-1.6,0-3.3-0.1-4.9-0.1c2.6,3.2,5.3,6.4,7.9,9.6c0.4,0.5-0.5,1.1-0.9,0.6c-2.5-3.1-5.1-6.1-7.6-9.2c0,1.9-0.1,3.8-0.1,5.6
			c0,0.7-1.1,0.7-1.1,0c0-2,0.1-3.9,0.1-5.9c-1.7,1.9-3.5,3.8-5.2,5.7c-0.5,0.5-1.2-0.2-0.8-0.7l5.3-5.8l-4.7-0.1
			c-0.7,0-0.7-1.1,0-1.1l4.8,0.1c-3.1-3.8-6.2-7.6-9.4-11.4C958.3,1014.1,959.2,1013.6,959.6,1014.1z"/>
		<path class="st1" d="M939.8,789c0.8-1.1,2.5,0.1,1.7,1.2C940.8,791.3,939,790.2,939.8,789z"/>
		<path class="st1" d="M958,837.8c0.5-0.7,1.5-0.9,2.2-0.4l0.6,0.4c0.7,0.5,0.9,1.5,0.4,2.2c-0.5,0.7-1.5,0.9-2.2,0.4l-0.6-0.4
			C957.7,839.5,957.5,838.4,958,837.8z"/>
		<path class="st1" d="M869.3,882.1c2.3-3.4,7.5,0.2,5.2,3.5C872.3,889,867,885.5,869.3,882.1z"/>
		<path class="st1" d="M852,971.1c2.3-3.4,7.5,0.2,5.2,3.5C855,978,849.7,974.4,852,971.1z"/>
		<path class="st1" d="M850.5,808.4c2.3-3.4,7.5,0.2,5.2,3.5C853.4,815.3,848.2,811.8,850.5,808.4z"/>
		<path class="st1" d="M862.5,820.7c0.8-1.1,2.5,0.1,1.7,1.2C863.5,823,861.7,821.9,862.5,820.7z"/>
		<path class="st1" d="M898.1,877.8c0.7-0.9,1.9-1.2,2.9-0.6l0.6,0.4c0.9,0.6,1.2,2,0.6,2.9c-0.7,0.9-1.9,1.2-2.9,0.6l-0.6-0.4
			C897.7,880.1,897.4,878.7,898.1,877.8z"/>
		<path class="st1" d="M884.7,894.2c0.1-0.1,0.2-0.2,0.3-0.2c-0.1-0.3-0.1-0.6-0.2-1c-0.1-0.7,0.9-0.9,1-0.2l0.2,1c0,0,0,0,0,0
			c0,0.1,0,0.1,0,0.2c0,0.1,0,0.1-0.1,0.1c0,0,0,0,0,0c0,0,0,0,0,0c0,0,0,0,0,0c-0.1,0.1-0.2,0.2-0.3,0.2c0,0.1,0,0.2-0.1,0.4
			C885.2,895.4,884.3,894.8,884.7,894.2z"/>
		<path class="st1" d="M869.4,850c1.5-2.2,5,0.1,3.5,2.4C871.4,854.6,867.9,852.2,869.4,850z"/>
		<path class="st1" d="M920.2,921.6c1.5-2.2,5,0.1,3.5,2.4C922.2,926.2,918.7,923.8,920.2,921.6z"/>
		<path class="st1" d="M976.2,745.8c1.5-2.2,5,0.1,3.5,2.4C978.2,750.4,974.7,748,976.2,745.8z"/>
		<path class="st1" d="M976.9,875.3l0.6,0.4c0.6,0.4,0,1.3-0.6,0.9l-0.6-0.4C975.7,875.8,976.3,874.9,976.9,875.3z"/>
		<path class="st1" d="M931.9,863.6c0.3,0,0.7,0,1-0.1c0.7,0,0.6,1-0.1,1.1c-0.3,0-0.7,0-1,0.1C931.2,864.7,931.2,863.6,931.9,863.6
			z"/>
		<path class="st1" d="M912.6,790.1l0.4-0.6c0.4-0.6,1.3,0,0.9,0.6l-0.4,0.6C913.1,791.3,912.2,790.7,912.6,790.1z"/>
		<path class="st1" d="M941.1,746.7c0.4-0.6,1.3,0,0.9,0.6C941.6,747.8,940.7,747.2,941.1,746.7z"/>
		<path class="st1" d="M906.8,846.3c2.2-1.5,4.3-3.2,6.3-5c-1.3-0.1-2.6-0.2-3.9-0.3c-0.3,0-0.3-0.6,0-0.5c1.4,0.1,2.8,0.2,4.2,0.3
			c-1.2-1.6-2.4-3.2-3.6-4.7c-0.2-0.3,0.2-0.6,0.4-0.4c1.1,1.5,2.3,3,3.4,4.6l0.5-3.9c0-0.3,0.6-0.3,0.5,0l-0.5,4
			c1.8-1.7,3.6-3.4,5.3-5.3c0.2-0.3,0.6,0.2,0.4,0.4c-1.7,1.9-3.5,3.7-5.4,5.4l3.5,0.3c0.3,0,0.3,0.6,0,0.5
			c-1.1-0.1-2.2-0.2-3.4-0.3c1.3,1.8,2.7,3.5,4,5.3c0.2,0.3-0.2,0.6-0.4,0.4c-1.4-1.8-2.7-3.6-4.1-5.4c-0.1,1.1-0.3,2.1-0.4,3.2
			c0,0.3-0.6,0.3-0.5,0c0.1-1,0.2-2,0.4-3c-2,1.8-4.1,3.4-6.3,5C906.9,846.9,906.6,846.5,906.8,846.3z"/>
		<path class="st1" d="M925.6,323.9c0.5-4.6,0.9-9.2,1.1-13.7c-1.4,1.3-2.8,2.6-4.2,3.9c-0.5,0.5-1.2-0.3-0.7-0.8
			c1.6-1.5,3.2-2.9,4.7-4.4c-4.2-0.2-8.4-0.4-12.6-0.6c-0.7,0-0.6-1.1,0.1-1.1c4.1,0.2,8.2,0.4,12.4,0.6c-1.4-1.7-2.8-3.3-4.3-4.9
			c-0.5-0.5,0.3-1.2,0.8-0.7c1.4,1.4,2.7,2.9,4,4.5c0.2-3.5,0.3-7,0.4-10.5c0-0.7,1.1-0.6,1.1,0.1c-0.1,3.8-0.2,7.6-0.4,11.4
			c1.3-1.2,2.5-2.4,3.8-3.6c0.5-0.5,1.2,0.3,0.7,0.8c-1.1,1-2.2,2-3.3,3.1c3.6,0.2,7.3,0.4,10.9,0.5c0.7,0,0.6,1.1-0.1,1.1
			c-3.8-0.2-7.5-0.4-11.3-0.6c1.1,1.4,2.1,2.7,3.1,4.2c0.4,0.6-0.4,1.2-0.8,0.7c-1-1.5-2.1-2.9-3.2-4.3c-0.3,4.8-0.7,9.7-1.2,14.5
			C926.6,324.6,925.5,324.6,925.6,323.9z"/>
		<path class="st1" d="M843.9,173.3l14.5-0.7c-1-0.8-2-1.6-3.1-2.4c-0.5-0.4,0.1-1.3,0.6-0.9c1,0.8,2,1.6,3,2.3
			c-0.5-2.4-0.9-4.8-1.4-7.2c-0.1-0.7,0.9-0.9,1-0.2c0.5,2.5,1,5,1.5,7.5c1-1.3,1.9-2.5,2.9-3.8c0.4-0.5,1.3,0,0.9,0.6
			c-1,1.3-2,2.6-3,3.9c4.2-0.2,8.3-0.4,12.5-0.6c0.7,0,0.6,1-0.1,1.1c-4,0.2-7.9,0.4-11.9,0.6c1.5,1.2,3,2.3,4.4,3.5
			c0.5,0.4-0.1,1.3-0.6,0.9c-1.5-1.2-3.1-2.4-4.6-3.6c0.5,2.5,1,5.1,1.5,7.6c0.1,0.7-0.9,0.9-1,0.2l-1.5-7.8l-2.9,3.8
			c-0.4,0.5-1.3,0-0.9-0.6l2.9-3.8c-4.9,0.2-9.8,0.5-14.7,0.8C843.1,174.3,843.2,173.3,843.9,173.3z"/>
	</g>
</g>
<path class="st1" d="M308.9,896.7c6.6-2.5,9,6.5,10.2,11.1c1.2,4.8,2.7,12.4-3.6,14.1c-1.1,0.3-1.5-1.3-0.5-1.7
	c0.1-0.1,0.2-0.1,0.4-0.2c-0.1-0.1-0.2-0.3-0.3-0.5c-0.8-5.7-1.6-11.5-2.4-17.2c-0.1-0.4-0.3-0.9-0.4-1.3c-0.2-0.3-0.4-0.6-0.6-0.8
	c-0.4-0.6-0.1-1.1,0.4-1.3c-0.9-0.5-1.8-0.7-2.8-0.4C308.2,898.8,307.8,897.1,308.9,896.7z"/>
<g>
	<path class="st0" d="M3.7,858.3c5.1-8.9,14.4-13.3,21.9-19.7c3.9-3.3,6.7-6.9,8-11.9c1.4-5.4,1.4-11.1,3.4-16.3
		c3.9-10.5,13.9-14.6,24.5-14.2c11.2,0.4,25.1,7.5,34.9-0.7c8-6.7,10.9-17.7,18.8-24.7c9.5-8.5,20.9-6.8,32.3-3.6
		c7.7,2.2,14.2,3.8,22.2,2c6.3-1.5,12.2-3,18.7-1.9c10.3,1.9,19,9.2,23,18.7c8.8,11.7,12.8,26.9,9.9,41.7
		c-2,10.5-7.7,20.4-15.3,27.8c-3.8,3.7-8.3,7-13.1,9.3c-4.2,2.1-10.4,3-13.6,6.6c-3.8,4.2,0.2,12.9,0.2,18c0,5.3-1.3,10.5-3.5,15.3
		c-4.5,10-12.9,17.8-23,22.1c-11.5,4.9-24.4,5.2-36.6,2.6c-5.8-1.2-12.3-5.1-17.7-1.1c-5.1,3.8-8.3,8.1-14.6,10.2
		c-10.5,3.6-22.5,0.4-29.7-7.9c-3.6-4.1-4.4-9.7-7.8-13.7c-3.7-4.4-10.9-5-16-6.8C20,906.4,9.9,899.7,4.4,889.7
		C-0.9,880.2-1.8,867.9,3.7,858.3z"/>
	<path class="st0" d="M155.8,776.6c4.4-2.5,9.1-4.5,13.5-7c3.8-2.1,7.7-4.1,11.9-5.2c8.6-2.4,18-1.7,26.3,1.6
		c13.6,5.5,23.8,18.4,25.7,32.9c0.5,2.2,0.6,4.5,0.4,6.9c-0.1,0.6-0.4,1-0.8,1.2c-0.3,0.4-0.8,0.6-1.3,0.4
		c-5.1-1.6-8.7-7.2-8.4-12.6c-3.2,0.3-6.9-0.8-9.1-2c-2.2-1.1-4.4-3.2-5.8-5.7c-1,3.2-3.8,5.6-7.6,6c0,0,0,0,0,0
		c-0.8,5.4-4.6,10.8-9,13.5c-4.3,2.5-12.4,1-13.4-4.5c0-0.1-0.1-0.1-0.1-0.2c-0.5-0.8-0.4-1.5,0.2-2c0.5-1.3,2.2-2.1,3.2-0.9
		c0.4,0.4,0.7,0.8,1,1.2c-0.5-0.9-0.7-2-0.8-3.2c-0.1-1.5,1.4-2.3,2.7-2.1c0-1.6,0.3-3.1,0.8-4.4c0.7-1.7,3-2.1,3.9-0.6
		c0.4-0.8,0.9-1.5,1.5-2.1c0.3-0.9,1-1.6,2.1-2c0.5-0.1,0.9-0.2,1.3-0.1c0-0.3,0-0.6,0.1-1c0.4-1.6,2.3-1.6,3.1-0.5
		c0-1,0.2-2,0.5-2.9c0.5-1.4,2.5-1.9,3.3-0.4c0,0.1,0.1,0.2,0.1,0.2c0.6-0.3,1.4-0.5,2.1-0.4c-0.1-0.2-0.2-0.5-0.3-0.8
		c-0.2-0.5-0.1-1,0.2-1.3c-0.5-0.5-1-0.9-1.5-1.4c-0.9-0.9-0.6-2.2,0.3-2.8c-3.3-1.7-6.9-3.1-10.6-3.8c-6.7-1.2-11.2,1.1-17.1,3.6
		c-0.9,0.4-2.2-0.2-2.3-1.1c-4.7,2.8-9.3,5.9-14.5,6.7C155.3,780.2,153.8,777.7,155.8,776.6z"/>
	<path class="st1" d="M166.1,829.4c0.9-0.9,2-1.5,3.3-1.5l0.6,0c1.2-0.1,2.5,0.4,3.4,1.2c0.9,0.8,1.5,2.1,1.5,3.3
		c0,1.2-0.3,2.5-1.2,3.4c-0.9,0.9-2,1.5-3.3,1.5l-0.6,0c-1.2,0.1-2.5-0.4-3.4-1.2c-0.9-0.8-1.5-2.1-1.5-3.3
		C164.9,831.6,165.2,830.3,166.1,829.4z"/>
	<path class="st1" d="M126,768.5c2.1-0.1,2.2,3.2,0.1,3.3C124,771.8,123.8,768.6,126,768.5z"/>
	<path class="st1" d="M128.4,840.5c2.8-0.1,3,4.2,0.2,4.4C125.8,845,125.6,840.7,128.4,840.5z"/>
	<path class="st1" d="M44.8,873.5c0.1,0,0.1,0,0.2,0l0-0.9c0-0.7,1.1-0.7,1.1,0l0,0.2c0.1,0,0.1,0,0.2,0c0.7,0,0.7,1.1,0,1.1
		c-0.1,0-0.1,0-0.2,0l0,0.2c0,0.5-0.6,0.7-0.9,0.4c-0.1,0.1-0.2,0.2-0.4,0.2C44.1,874.6,44.1,873.5,44.8,873.5z"/>
	<path class="st1" d="M91.1,819.8l1.5-0.1c0.7,0,0.7,1.1,0,1.1l-0.5,0c0.1,0.3,0,0.7-0.5,0.7l-0.4,0c-0.5,0-0.7-0.6-0.4-0.9
		C90.5,820.5,90.6,819.9,91.1,819.8z"/>
	<path class="st1" d="M178.2,791.6l0.7,0c0.7,0,0.7,1.1,0,1.1l-0.7,0C177.5,792.7,177.5,791.7,178.2,791.6z"/>
	<path class="st1" d="M166.2,783.8l0.7,0c0.7,0,0.7,1.1,0,1.1l-0.7,0C165.6,784.9,165.5,783.8,166.2,783.8z"/>
	<path class="st1" d="M157.1,794.7l0.7,0c0.7,0,0.7,1.1,0,1.1l-0.7,0C156.5,795.9,156.4,794.8,157.1,794.7z"/>
	<path class="st1" d="M113.6,904.1c0.3,0.2,0.5,0.5,0.8,0.7c1,0.9-0.4,2.6-1.5,1.6c-0.3-0.2-0.5-0.5-0.8-0.7
		C111.1,904.8,112.6,903.2,113.6,904.1z"/>
	<path class="st1" d="M118.5,810.7c0.6-1.2,2.6-0.3,1.9,1C119.8,813,117.8,812,118.5,810.7z"/>
	<path class="st1" d="M133.1,892c1.9-3.7,7.7-0.8,5.8,3C137,898.8,131.1,895.8,133.1,892z"/>
	<path class="st1" d="M46.5,825.4c0.6-1.2,2.6-0.3,1.9,1C47.8,827.6,45.9,826.6,46.5,825.4z"/>
	<path class="st1" d="M126.6,797.4c1.3-2.5,5.2-0.5,3.9,2C129.2,801.8,125.3,799.9,126.6,797.4z"/>
	<path class="st1" d="M39.3,889c1.3-2.5,5.2-0.5,3.9,2C41.9,893.5,38,891.5,39.3,889z"/>
	<path class="st1" d="M72.4,830.4c1.3-2.5,5.2-0.5,3.9,2C75,834.9,71.1,832.9,72.4,830.4z"/>
	<path class="st1" d="M59.5,919.3c0-0.1,0.1-0.1,0.1-0.1l-0.8-0.4c-0.6-0.3-0.1-1.3,0.5-1l0.2,0.1c0-0.1,0-0.1,0.1-0.2
		c0.3-0.6,1.3-0.1,1,0.5c0,0.1-0.1,0.1-0.1,0.1l0.2,0.1c0.5,0.2,0.3,0.8-0.1,1c0,0.1,0,0.2,0,0.4C60.1,920.4,59.2,919.9,59.5,919.3z
		"/>
	<path class="st1" d="M35.9,852.4l0.7-1.3c0.3-0.6,1.3-0.1,1,0.5l-0.2,0.5c0.3,0.1,0.6,0.4,0.4,0.8l-0.2,0.4c-0.2,0.5-0.8,0.3-1-0.1
		C36.2,853.3,35.7,852.9,35.9,852.4z"/>
	<path class="st1" d="M25,866.1c0.3-0.1,0.7-0.1,1-0.2c0.7-0.1,0.7,1,0.1,1.1c-0.3,0.1-0.7,0.1-1,0.2
		C24.3,867.3,24.3,866.2,25,866.1z"/>
	<path class="st1" d="M53.5,850l0.3-0.6c0.3-0.6,1.3-0.1,1,0.5l-0.3,0.6C54.1,851.1,53.2,850.6,53.5,850z"/>
	<path class="st1" d="M101.9,890.1l0.3-0.6c0.3-0.6,1.3-0.1,1,0.5l-0.3,0.6C102.6,891.2,101.6,890.7,101.9,890.1z"/>
	<path class="st1" d="M199.4,777.8l0.3-0.6c0.3-0.6,1.3-0.1,1,0.5l-0.3,0.6C200,778.9,199,778.4,199.4,777.8z"/>
	<path class="st1" d="M127,827l0.3-0.6c0.3-0.6,1.3-0.1,1,0.5l-0.3,0.6C127.6,828.1,126.6,827.6,127,827z"/>
	<path class="st1" d="M133,871.1l0.3-0.6c0.3-0.6,1.3-0.1,1,0.5l-0.3,0.6C133.6,872.3,132.6,871.8,133,871.1z"/>
	<path class="st1" d="M155.9,848.8l0.3-0.6c0.3-0.6,1.3-0.1,1,0.5l-0.3,0.6C156.6,850,155.6,849.5,155.9,848.8z"/>
	<path class="st1" d="M64.3,894.1c0.3-0.6,1.3-0.1,1,0.5C64.9,895.2,63.9,894.7,64.3,894.1z"/>
	<path class="st1" d="M96.2,854c0.3-0.1,0.7-0.2,1-0.3c1.3-0.4,2,1.6,0.7,2.1c-0.3,0.1-0.7,0.2-1,0.3
		C95.5,856.5,94.8,854.5,96.2,854z"/>
	<path class="st1" d="M156.6,906.9l1.5-0.1c0.7,0,0.7,1.1,0,1.1l-0.5,0c0.1,0.3,0,0.7-0.5,0.7l-0.4,0c-0.5,0-0.7-0.6-0.4-0.9
		C155.9,907.5,156,906.9,156.6,906.9z"/>
	<path class="st1" d="M110.3,796.7c0.3-0.1,0.7-0.2,1-0.3c1.3-0.4,2,1.6,0.7,2.1c-0.3,0.1-0.7,0.2-1,0.3
		C109.6,799.2,109,797.2,110.3,796.7z"/>
	<path class="st1" d="M70.6,885.3c2-1.9,4-3.8,5.8-5.9c-1.4,0-2.7,0.1-4.1,0.1c-0.4,0-0.4-0.5,0-0.6c1.4-0.1,2.9-0.1,4.3-0.2
		c-1.4-1.5-2.8-2.9-4.2-4.4c-0.2-0.3,0.1-0.7,0.4-0.4c1.4,1.4,2.7,2.8,4.1,4.3l0-4.1c0-0.4,0.6-0.4,0.6,0l0,4.2
		c1.7-1.9,3.3-4,4.8-6.1c0.2-0.3,0.6,0.1,0.4,0.4c-1.5,2.1-3.2,4.2-4.9,6.2l3.6-0.1c0.4,0,0.4,0.5,0,0.6c-1.2,0-2.3,0.1-3.5,0.1
		c1.6,1.6,3.2,3.3,4.7,4.9c0.2,0.3-0.1,0.7-0.4,0.4c-1.6-1.7-3.2-3.4-4.9-5.1c0,1.1,0,2.2,0,3.3c0,0.4-0.6,0.4-0.6,0
		c0-1.1,0-2.1,0-3.2c-1.8,2-3.8,4-5.8,5.8C70.7,885.9,70.3,885.5,70.6,885.3z"/>
	<path class="st1" d="M138.8,785c1.9-1.1,3.7-2.3,5.6-3.5c-0.9-0.2-1.8-0.3-2.7-0.5c-0.3-0.1-0.2-0.5,0.1-0.5c1,0.2,2,0.4,3,0.6
		c-1.1-1.7-2.2-3.3-3.3-5c-0.2-0.3,0.2-0.5,0.4-0.3c1.1,1.6,2.2,3.3,3.3,4.9c0.2-1,0.5-2,0.6-3c0.1-0.3,0.5-0.2,0.5,0.1
		c-0.2,0.9-0.4,1.9-0.6,2.8c1.4-0.9,2.8-1.9,4.1-2.8c0.3-0.2,0.5,0.2,0.3,0.4c-1.5,1.1-3,2.1-4.5,3.1c0.8,0.1,1.6,0.3,2.4,0.4
		c0.3,0.1,0.2,0.5-0.1,0.5c-0.7-0.1-1.4-0.3-2.1-0.4c1,1.4,1.9,2.9,2.9,4.3c0.2,0.3-0.2,0.5-0.4,0.3c-1-1.5-2-3-3-4.5
		c-0.2,0.8-0.4,1.6-0.7,2.4c-0.1,0.3-0.6,0.2-0.5-0.1c0.3-0.8,0.5-1.6,0.7-2.5c-1.9,1.3-3.9,2.5-5.9,3.7
		C138.8,785.6,138.5,785.2,138.8,785z"/>
	<path class="st1" d="M219.2,835.1c0.8-1.2,2.6,0.1,1.8,1.2C220.2,837.5,218.4,836.2,219.2,835.1z"/>
	<path class="st2" d="M155.6,950.8c-0.4,2.1-0.7,3.8-0.7,5.9c0,0.9,0.1,1.7,0,2.6c0.1,0.9,0.1,1.7,0,2.6c0,0.1,0,0.2-0.1,0.3
		c-0.2,0.3-0.6,0.5-0.9,0.3c-0.2,0-0.8-0.4-1.4-1.3c-1-1.6-0.9-4.1-0.9-6c0-0.5-1.2,2.8-1.4,3.8c-0.4,3.2-0.2,6.7,0,9.8
		c0,0.6-0.8,1-1,0.4c-1.1-2.5-1.7-5.2-1.8-8c-0.1,3,0.1,5.9-0.7,8.8c-0.1,0.5-1,0.5-1,0c-0.1-2.7-0.4-6-0.3-9.3
		c-0.4,2.5-0.6,5-1.3,7.5c-0.1,0.5-0.9,0.4-0.9,0c-0.3-2.8-0.2-6,0.4-9.1c-0.5,1.1-1,2.2-1.6,3.2c-0.3,0.5-1.1,0.3-1-0.3
		c0.6-4.1,2.9-8.4,4.8-12c0.7-1.4,1.5-3.7,3-4.5c1.1-0.6,2.7-0.3,3.7-0.1C155.2,946,156.1,948.1,155.6,950.8z"/>
	<path class="st0" d="M236.5,1011.5l-16.6,117.7l17.5,17.8c0.2,0.2,0.2,0.6,0,0.8l0,0c-0.7,2.3-3.9,2.1-5.6,1.2l-20.4-11V998.2
		L236.5,1011.5z"/>
	<path class="st0" d="M206.8,1003.1l-10.4,129.3c0,0-0.4,29.7-7.8,28.3c-7.4-1.3,0.2-28.3,0.2-28.3L182,998.2L206.8,1003.1z"/>
	<path class="st3" d="M231.2,897.1l31.4,104.7c0,0-69.3,38.4-105.6-3.6l35.4-110.1L231.2,897.1z"/>
	<path class="st4" d="M234.7,854.4c-5.1-7.9-13.6-13-23-13.6c-8.2-0.5-18.1,0.1-25.6,4.8c-15.7,9.7,1.6,58.7,1.6,58.7
		s29.8,9.7,45.5,0.5l9-38.7L234.7,854.4z"/>
	<path class="st4" d="M242.2,866.1c0.7,1.1,2.8,6.4,6.7,13.6c7.9,14.3,20.1,25.8,34.8,32.9l2.8,1.3l-3.9,8.8c0,0-35.3-2.6-52.1-28.8
		C213.8,867.7,242.2,866.1,242.2,866.1z"/>
	<path class="st4" d="M186.1,845.6c0,0-9-3.2-41,102.4l12.8,2.8c0,0,9-31.2,14.7-40.2c5.8-9.1,19.6-39.3,19.6-39.3L186.1,845.6z"/>
	<path class="st2" d="M208.3,780.5c1.3-0.3,27.4-4.2,26.5,28c-0.1,2.9-0.4,5.6-0.9,8c0.7-0.1,1.5,0.1,2,0.4c1.1,0.7,1.5,1.9,1.2,3.1
		c-0.6,2.2-3.1,2.8-4.8,1.6c-7.3,18.3-28.5,16.5-36.9-0.3C185.4,801.3,186.8,785.1,208.3,780.5z"/>
	<path class="st2" d="M220.4,824.5c0,0-5.8,17-1.7,24.5c0,0-8.5,8.8-17.1,0c0,0,4-9.8,0-27.6C197.5,803.6,220.4,824.5,220.4,824.5z"
		/>
	<path class="st0" d="M222.9,807.6c0.9,1.6,3.1,2.1,4.6,1.2c1.4-0.8,2-2.8,1.3-4.3c-0.4-1.8-3.1-2.3-4.5-1.6
		C222.6,803.8,222,806,222.9,807.6z M224.1,804.6c0,0.1,0,0.3,0,0.4c0.2,1.4,1.7,2.5,3.1,2.8c-0.1,0-0.1,0.1-0.2,0.1
		c-1.1,0.6-2.6,0.2-3.2-0.9C223.5,806.3,223.6,805.3,224.1,804.6z"/>
	<path class="st0" d="M205.6,808.8c0.9,1.6,3.1,2.1,4.6,1.2c1.4-0.8,2-2.8,1.3-4.3c-0.3-1.8-3.1-2.3-4.5-1.6
		C205.4,805,204.7,807.2,205.6,808.8z M206.8,805.8c0,0.1,0,0.3,0,0.4c0.2,1.4,1.7,2.5,3.1,2.8c-0.1,0-0.1,0.1-0.2,0.1
		c-1.1,0.6-2.6,0.2-3.2-0.9C206.2,807.5,206.3,806.5,206.8,805.8z"/>
	<path class="st5" d="M216.5,805.6c0-0.4,0.3-0.6,0.6-0.6c0-0.1,0-0.1,0-0.2c0.1-0.4,0.6-0.4,0.8-0.1c0.1,0.2,0.2,0.5,0.2,0.8
		c0.1,0.1,0.2,0.2,0.2,0.3c0.6,2.7,1.5,4.9,3.6,6.8c0.2,0.2,0.3,0.5,0.2,0.7c-0.7,1.7-2.7,1.9-3.9,0.5c-0.8-0.9-1-2.2-1.2-3.3
		C216.8,808.9,216.4,807.2,216.5,805.6z"/>
	<path class="st5" d="M211.4,820.3c0.4-1.2,1.8-1.6,2.9-1.1c0.8,0.3,1.4,1,2.1,1.5c0.9,0.6,1.9,1,3,1.3c2.1,0.4,4-0.1,5.8-0.9
		c0.2-0.1,0.3,0,0.4,0.1c0.2,0,0.3,0.2,0.3,0.3c0,0,0,0,0,0.1c0,0.1,0.1,0.1,0.1,0.2c0.6,3.2-1.7,6.3-4.9,7
		c-3.6,0.7-7.1-1.4-8.8-4.5C211.7,823.2,210.9,821.6,211.4,820.3z"/>
	<path class="st6" d="M227.3,811.9c0,1.7,1.8,2.6,3.2,2.3c1.4-0.2,3.6-1.3,3.6-3c0-0.9-0.7-1.5-1.5-1.6c-0.5-0.4-1.3-0.6-1.9-0.5
		C229.4,809.5,227.4,810.3,227.3,811.9z M230.6,812.1c0.3-0.2,0.6-0.4,0.8-0.6c0.1,0,0.1,0,0.2,0.1c0,0.1,0,0.1,0,0.2
		c-0.1,0.1-0.2,0.1-0.2,0.1c-0.1,0.1-0.4,0.3-0.6,0.3C230.8,812.2,230.7,812.1,230.6,812.1z"/>
	<path class="st6" d="M202.7,814.6c1.4,0.9,4.1,1.4,4.7-0.7c0.5-1.6-0.6-2.7-2-3.2c-1.1-1.2-3-2.2-4.3-1.2
		C199.2,810.9,201.3,813.7,202.7,814.6z M206.3,812.4c0.1,0.2,0.2,0.4,0.2,0.6c0-0.1-0.1-0.3-0.2-0.4
		C206.2,812.6,206.3,812.5,206.3,812.4z M203.4,811.5c0.3,0.2,0.6,0.4,0.8,0.7c-0.1,0-0.2,0-0.2,0c-0.1-0.1-0.2-0.3-0.3-0.3
		C203.6,811.8,203.5,811.6,203.4,811.5z M201.7,810.7c-0.1,0.3-0.1,0.6,0,0.9c0.1,0.3,0.3,0.7,0.5,1.1c-0.3-0.4-0.5-0.8-0.6-1.2
		C201.5,811.1,201.5,810.9,201.7,810.7z"/>
	<path class="st0" d="M207.3,799c1.2-1.4,4.1-2.8,5.1-0.7c0.4,0.9,0,1.8-0.8,2.2c-0.5,0.3-1,0.3-1.6,0.2c-0.7-0.1-1.5-0.4-2,0.2
		c-0.3,0.3-0.7,0.2-1,0C206.3,800.4,206.6,799.5,207.3,799z"/>
	<path class="st0" d="M220.6,796.6c1.2-2.6,5.8,0.5,7,1.6c0.2,0.2,0.2,0.4,0.2,0.6c0.2,0.3-0.1,0.8-0.5,0.6
		c-0.9-0.3-1.8-0.6-2.8-0.7c-0.8-0.1-1.7,0-2.5-0.1C221.1,798.5,220.1,797.7,220.6,796.6z"/>
	<path class="st0" d="M187.5,800.4c-0.1-2.3-0.1-4.5-0.2-6.7c-0.1-1.1,0.7-1.7,1.5-1.7c0.6-2.7,1.4-5.4,2.3-8.1
		c0.7-1.9,3.8-1.1,3.1,0.8c-0.3,1-0.6,1.9-0.9,2.9c0.1,0,0.3,0.1,0.4,0.2c0.2-0.6,0.4-1.3,0.7-1.9c0.3-0.8,0.9-1.1,1.5-1
		c0.2-0.2,0.4-0.3,0.6-0.5c0-1.7,2.3-2,2.9-0.8c0.3-1.2,0.7-2.5,1.2-3.7c0.7-1.6,3.2-1,2.7,0.7c-0.1,0.3-0.2,0.6-0.3,0.9
		c0.4-0.8,0.8-1.5,1.2-2.2c0.5-0.8,1.3-0.8,1.8-0.3c0.1-0.1,0.2-0.2,0.2-0.3c0.4-0.5,1.1-0.7,1.7-0.5c0.1-0.2,0.3-0.4,0.4-0.6
		c0.7-1.1,2.5-0.7,2.5,0.7c0,0,0,0,0,0c0.4-0.2,0.8-0.3,1.2-0.1c0.2-0.3,0.4-0.6,0.6-0.8c0.6-0.9,2.2-0.8,2.5,0.3
		c0.5-0.5,1.2-0.4,1.7,0c0.3-0.3,1-0.2,1.1,0.5c0,0.3,0,0.5,0.1,0.7c0.1-0.5,0.2-0.9,0.4-1.4c0.5-1.2,2.4-0.3,2.1,0.9
		c0,0.1,0,0.1,0,0.2c0.1,0.5,0.1,0.9,0,1.4c0.1,0,0.2,0.1,0.3,0.2c0.3-0.2,0.6-0.1,0.9,0c0.2-0.3,0.4-0.7,0.7-1
		c0.2-0.3,0.7-0.1,0.6,0.3c-0.1,0.5-0.2,0.9-0.4,1.4c4,1.1,7.2,5.2,9.1,8.6c2.9,5.4,3.9,13,3.2,19.1c0,0.2-0.4,0.4-0.5,0.1
		c0-0.2-0.1-0.4-0.1-0.6c-0.1,0-0.1,0-0.2-0.1c-0.8-3.9-1.4-7.6-3.7-11c-2-3.1-5-5-7.7-7.3c-1.1-1-2.1-2-3-3.2
		c-3.2,4.6-8,8.2-12.8,10.6c-5.6,2.7-10.3,5.3-11.9,11.8c-1.4,5.7,1.1,10.8,0.7,16.3c0,0.7-0.9,0.9-1.3,0.3c-0.9-1.2-1.5-2.7-2-4.2
		c0,0,0,0.1,0,0.1c-0.4,1-1.8,1.4-2.4,0.3c-1.4-2.5-1.4-6-1.1-9.2c-0.8,0-1.6-0.5-1.7-1.5C187.2,807.1,187.2,803.8,187.5,800.4z"/>
	<path class="st2" d="M190.9,813c2.3-0.2,5,1.2,5,3.7c0,0.3-0.1,0.5-0.3,0.7c0.2,0.5,0.2,1.1,0,1.6c1.5-0.5,3.5,1.2,2.3,2.8
		c-3.7,4.9-12.3,2.8-11.8-3.8C186.4,815.3,188.3,813.3,190.9,813z"/>
	<path class="st2" d="M236.4,815.1c-1.8-0.2-4,0.9-4.1,3c0,0.2,0.1,0.4,0.3,0.5c-0.1,0.4-0.1,0.9,0,1.3c-1.3-0.4-2.9,1-1.9,2.2
		c3,4,10,2.3,9.6-3.1C240.1,817,238.6,815.3,236.4,815.1z"/>
	<path class="st7" d="M200.2,889.9c7.6-6.4,19.6,2,28.2,0.1c2.7-0.6,5.5-2.2,6.9-4.7c2-3.8-0.3-7.4-2-10.8c-1.4-2.9-2.6-5.8-1.2-8.9
		c0.1-0.2,0.4-0.1,0.4,0.1c-0.8,8.4,10.5,16.9,0.7,23.9c-3.5,2.5-7.9,2.8-12,2.2c-3-0.4-5.9-1.2-8.9-1.7c-4.3-0.7-7.5-0.1-11.6,0.7
		C200.2,890.9,199.7,890.2,200.2,889.9z"/>
	<path class="st7" d="M185.4,850.2c2.1,2.4,3.5,6.4,2,9.4c-0.3,0.5-0.9,0.2-1-0.3c-0.2-1.4-0.1-2.9-0.4-4.4
		c-0.3-1.5-0.9-2.8-1.6-4.1C184.1,850.3,184.9,849.6,185.4,850.2z"/>
	<path class="st7" d="M253.4,895.4c0.9,0.9,1.6,1.9,2.5,2.8c0.9,0.9,2,1.7,3.2,2.2c0.5,0.2,0.1,0.9-0.3,0.8
		c-2.6-0.5-5.9-2.3-6.3-5.2C252.3,895.5,252.9,895,253.4,895.4z"/>
	<path class="st7" d="M168.1,902.9c0.1-0.8,1.3-0.8,1.2,0c-0.2,1.4-0.2,2.9-0.6,4.3c-0.1,0.5-0.8,0.4-0.8-0.1
		C167.8,905.7,168,904.3,168.1,902.9z"/>
	<g>
		<path class="st8" d="M229.2,915.2c2.7,8.2,4.4,16.8,6.7,25.1c2.3,8.3,5.4,16.6,6.9,25.1c0.2,0.8-1.1,1.5-1.5,0.6
			c-3.6-7.9-5.5-16.7-7.7-25.1c-2.2-8.4-4.6-17-5.7-25.6C227.7,914.6,229,914.5,229.2,915.2L229.2,915.2z"/>
	</g>
	<g>
		<path class="st8" d="M221.9,918.2c1.3,9.1,2,18.4,2.6,27.5c0,0.4-0.6,0.4-0.6,0.1c-1.6-9-2.7-18.3-2.7-27.5
			C221.1,917.9,221.8,917.7,221.9,918.2L221.9,918.2z"/>
	</g>
	<g>
		<path class="st8" d="M209.7,920.4c-0.5,13.3-1.9,26.5-2.8,39.8c-0.9,12.6-0.7,25.9-3,38.4c-0.2,0.8-1.3,0.6-1.4-0.2
			c-0.4-6.5,0.4-13.1,0.8-19.5c0.4-6.5,0.9-13,1.3-19.5c0.9-13,1.6-26.1,3.2-39C208,919.2,209.8,919.1,209.7,920.4L209.7,920.4z"/>
	</g>
	<g>
		<path class="st8" d="M202.3,920.4c-1.1,8.5-3.3,17.8-6.4,25.8c-0.3,0.7-1.5,0.7-1.4-0.2c1.1-8.5,3.6-17.7,6.7-25.8
			C201.4,919.7,202.4,919.7,202.3,920.4L202.3,920.4z"/>
	</g>
	<g>
		<path class="st8" d="M193.9,918.5c-2.7,9.6-4.7,20.3-9.3,29.2c-0.4,0.8-1.4,0.2-1.3-0.5c1.4-9.8,5.9-19.7,9.2-29
			C192.8,917.2,194.1,917.6,193.9,918.5L193.9,918.5z"/>
	</g>
	<path class="st0" d="M268.9,921.8c8.1-5.2,17.5-8.7,26.7-11.4c1.7-4.5,4.3-9.2,7.2-12.9c0,0,0,0,0,0c0-0.4,0.2-0.8,0.7-1
		c1.5-0.4,3.2-1,4.8-1.2c0.6-0.6,1.8-0.6,2,0.5c2.4,8.3,4.8,16.9,5.8,25.4c0.3,0.4,0.2,1.2-0.5,1.4c-1,0.4-2,0.7-3.1,1
		c-0.5,0.1-1,0.3-1.5,0.4c-0.4,0.1-0.9,0.1-1.3,0c-0.3,0.1-0.6,0.2-1,0.1c-1.9-0.5-3.5-1.6-5.3-2.1c-1.5-0.4-3-0.6-4.5-0.8
		c-1.7,2.3-5.3,3.3-7.7,4.3c-4.7,2.2-9.5,4.3-14.2,6.5c-3.2,1.4-6.8,3.4-10.3,1.8C260.5,930.8,265,924.3,268.9,921.8z"/>
	<path class="st2" d="M286,912.6c0.5-1.2,2.1-1.9,3.2-2.6c1.4-0.9,2.8-1.6,4.3-2.3c2.1-1,3.8,1.8,1.8,3.1c-1.1,0.8-2.3,1.5-3.5,2.2
		c0,0,0,0-0.1,0c1.8,0.7,3.6,1.7,4.3,3.3c0.4,1-0.3,2.6-1.6,2.1c-2-0.8-4-1.4-6-2.2c-0.9-0.3-1.6-0.8-2.1-1.5
		c-0.1-0.1-0.1-0.1-0.2-0.2C285.7,914,285.6,913.3,286,912.6z"/>
</g>
<path class="st2" d="M298.7,920.4C298.7,920.4,298.8,920.4,298.7,920.4c0-0.4,0-0.8,0.2-1.1c0.4-1,1.5-1.1,2.2-0.3
	c0.1,0.1,0.2,0.3,0.2,0.4c0-0.3,0-0.5,0-0.8c0.2-1.1,1.7-1.1,2.2-0.3c0.5,0.8,0.6,1.7,1,2.6c0.2,0.3,0.4,0.6,0.6,0.9
	c0.4-0.1,0.7,0,1,0.2c0.5-0.1,1.1,0.2,1.2,0.6c0.2,0.5,0,1-0.4,1.4c-0.4,0.3-0.8,0.3-1.2,0.5c-0.2,0.1-0.4,0.1-0.5,0
	c-0.3,0.2-0.7,0.3-1.1,0.2c-0.2-0.1-0.4-0.1-0.5-0.3c-0.4,0.9-1.5,1.5-2.3,0.9c0,0,0,0,0,0c-0.4,0.8-1.5,1.4-2.5,0.5
	c-1.4-1.4-2.3-3-2.6-5C296.2,919.2,298.3,919.1,298.7,920.4z"/>
</svg>
