<?xml version="1.0" encoding="utf-8"?>
<!-- Generator: Adobe Illustrator 23.0.3, SVG Export Plug-In . SVG Version: 6.00 Build 0)  -->
<svg version="1.1" id="Layer_1" xmlns="http://www.w3.org/2000/svg" xmlns:xlink="http://www.w3.org/1999/xlink" x="0px" y="0px"
	 viewBox="0 0 2953 2318.5" style="enable-background:new 0 0 2953 2318.5;" xml:space="preserve">
<style type="text/css">
	.st0{clip-path:url(#SVGID_2_);}
	.st1{fill:#101820;}
	.st2{clip-path:url(#SVGID_4_);}
	.st3{clip-path:url(#SVGID_6_);}
	.st4{fill:#E10000;}
	.st5{fill:#FF7D40;}
	.st6{fill:#2C2B3C;}
</style>
<g id="Layer_3">
</g>
<g>
	<g>
		<g>
			<defs>
				<rect id="SVGID_1_" x="15.5" y="2" width="2953" height="2318.5"/>
			</defs>
			<clipPath id="SVGID_2_">
				<use xlink:href="#SVGID_1_"  style="overflow:visible;"/>
			</clipPath>
			<g class="st0">
				<path class="st1" d="M98.5,1459.6l0.1-945.1h945.1c0,0,1813.6,1813.7,1944.1,1944.2c261,261,261,684.1,0,945.1
					s-684.1,261-945.1,0C1912.2,3273.3,98.5,1459.6,98.5,1459.6"/>
			</g>
		</g>
		<g>
			<defs>
				<rect id="SVGID_3_" x="15.5" y="2" width="2953" height="2318.5"/>
			</defs>
			<clipPath id="SVGID_4_">
				<use xlink:href="#SVGID_3_"  style="overflow:visible;"/>
			</clipPath>
			<g class="st2">
				<g>
					<defs>
						<polygon id="SVGID_5_" points="1121.1,2482.3 2656.8,2677.3 2656.8,777.9 2532.6,38.8 882.8,257 22.3,1674.4 798.2,2159.4 
													"/>
					</defs>
					<clipPath id="SVGID_6_">
						<use xlink:href="#SVGID_5_"  style="overflow:visible;"/>
					</clipPath>
					<g class="st3">
						<path class="st4" d="M2616.8,1647.6c-1.5,176.5-64.3,326.5-257,364.4l6,43.7l19.7,142.3l16,115.9H956.8l16.1-122.6l22.2-169.8
							l4-30.3c0,0-50,8.1-111.9-5.8c-14.1-3.2-28.9-7.5-43.9-13.4c-45-17.6-91.7-48.9-127.4-103.8c-18.1-27.8-33.5-61.6-44.5-102.8
							c-22.1-83.1-26.4-196.1,0.4-349.4l0,0c6.8-38.7,15.5-79.9,26.5-123.9c26.6-107.1,66.3-230.5,122-372.5
							c0,0,89.8,84.3,178.2,17.7c0,0,69-123.7,269.9-197.1c19.7-7.2,40.6-13.9,62.9-20c78.3-21.3,173-34.6,286.6-32.9
							c3.9,0.1,7.7,0.1,11.6,0.2c3.6,0.1,7.2,0.2,10.7,0.3l0,0c99.7,3.1,184.3,16.1,255.5,34.6c10.1,2.6,19.9,5.3,29.4,8.2
							c2.9,0.9,5.8,1.7,8.7,2.6l0,0c2.9,0.9,5.8,1.8,8.7,2.7l0,0c219.4,69.8,293.2,189.9,293.2,189.9s78.8,62.4,192.3,10.7
							c0,0,26.2,54.5,59.1,139c12.4,32,25.8,68.3,39.1,107.5l0,0c27.7,82,55.1,177,72.3,273l0,0
							C2610.3,1520.7,2617.3,1585.8,2616.8,1647.6z"/>
						<path class="st5" d="M1058.3,744.2c-1.9-23.7-5.9-48.3-21.3-67.3c-7.8-9.5-18.8-17.4-30.8-20.4c-6.1-1.6-12.2-1.7-18.4-1.3
							c-2.6,0.2-15.2,1.9-15.3-2.9c0-0.9-0.2-1.8-0.4-2.6c2.7-30.5,4.6-61.1,0.6-91.6c-2.4-18-7.2-35.7-14.5-52.3
							c2.8-4.5,5.1-9.4,6.7-14.6c4.9-16.5,0.7-36.1-20.1-35.5c-5.4,0.2-10.6,1.2-15.6,2.9c-5.3-6.3-11.2-11.9-18.3-15.4
							c-6.1-3-13-4.2-19.4-1.8c-8.5,3.1-9.2,13-9.1,21c0,9.9,2.6,19.3,6,28.5c-18.8,23.4-32,52.3-40,80.6
							c-9.1,32.2-11.7,66.1-7.3,99.3c-13.3,14-24.5,30-33,47.4c-18.7,38.5-22.5,80.1-14.8,122.1c5,27.3,14,53.6,22.9,79.7
							c1.3,3.9,4.3,6,7.5,6.8c9.3,10.8,24.2,16.4,37.2,21c16.6,5.9,34,9.2,51.5,11c17.3,1.8,34.7,2.1,52.1,1.5
							c11.9-0.4,31.3,1.7,38.8-9.6c0.4-0.4,0.8-0.9,1.1-1.4c26.7-40,44-85.5,51.3-133.1C1059.3,792.4,1060.3,768.2,1058.3,744.2z
							 M895.6,628.4c0.7-19.8,3.8-39.4,11.9-57.8c1.2-2.7,2.5-5.2,3.9-7.7C913.6,585.5,911.5,613,895.6,628.4z"/>
						<path class="st5" d="M2458,768c-1.1-25.5-10.4-47.9-26.9-67.3c-14-16.5-31.4-29.8-49-42.4c-0.1-50.9-11.2-101.6-32.4-148.1
							c0.5-2.2,1-4.3,1.5-6.5c3.6-15.7,8.6-35,4.6-51.1c-4.1-16.3-23.9-17.4-36.4-10.7c-2.9,1.6-5.6,3.5-8,5.6
							c-3.6-4.7-7.4-9.1-12.1-12.7c-11.7-8.7-28.2-6.8-34.8,7.1c-5.7,11.9-2.5,26.4,1.5,38.3c3.4,10.1,8.1,19.5,14.1,28.1
							c-7.2,21-12.8,42.5-17.1,64c-6,29.5-9.4,59.5-10.2,89.6c-12.8-7-28.3-5.8-41.7-0.9c-25.2,9.3-41.9,32.1-51.6,56.3
							c-22.8,57.2-7.4,124.6,29.5,172c21.3,27.4,48.7,49.2,75.6,70.8c2.4,2,5.7,2.1,8.6,1.1c52.4,3.5,106.1,9.3,157.8-3.4
							c1.6-0.4,3-1.1,4.1-1.9c2.8-1.2,5.2-3.5,5.7-6.5c5-29.9,9.2-59.9,12.1-90C2455.8,829.4,2459.3,798.3,2458,768z"/>
						<path class="st6" d="M986.5,817.8c-1.6-24.3-3.6-48.9-9-72.7c-4.4-19.4-10.6-42.8-28.5-54.1c-17.4-11-39.4-7.1-58.4-2.9
							c-7.9,1.7-5,13.9,2.8,12.2c14.4-3.2,31.5-7,45.6-0.5c15.2,7,20.4,25.3,24.4,40.2c4.7,17.6,7.2,35.8,8.8,54
							c0.4,4.7,0.8,9.4,1.2,14.1c0.2,2.3,0.3,4.7,0.5,7c0.1,1,0.9,5.2,0.4,6.2c-0.4,0.8-8.6,0.3-10.2,0c-4-0.8-7.6-2.6-10.6-5.3
							c-0.8-0.7-1.6-1.2-2.5-1.4c-0.5-20.3-3.9-41.5-16.9-57.7c-12.5-15.5-33.6-25.5-53.3-18.9c-7.6,2.5-4.8,14.7,2.8,12.2
							c17.7-5.9,36,5.3,45,20.6c10.8,18.6,10.3,41.4,9.9,62.2c-0.1,5.5-0.3,10.9-0.4,16.4c-0.1,3.2-0.2,6.3-0.2,9.5
							c0,1.2,0.6,7-0.4,7.9c-1.9,1.7-8.2-4-9.3-5.1c-3.4-3-6.5-6.3-9.4-9.7c-12.7-15.1-20.5-34.2-22-53.8c-0.3-4.3-4.7-8.3-9.1-5.7
							c-13.7,8.2-30.4,8.3-44-0.1c-6.8-4.2-13.5,6.4-6.6,10.6c14.6,9,32.7,10.6,48.4,4.5c2.6,16,8.5,31.3,17.8,44.7
							c7.2,10.4,26,35.3,41.2,25c8.2-5.5,5.9-18.8,6.2-27.3c0.2-6.8,0.4-13.5,0.5-20.3c6.2,3.6,13.2,5.4,20.7,4.7
							C981.8,833,987.2,828.1,986.5,817.8z"/>
						<path class="st6" d="M1020.9,730.6c-24.2-4.1-40.5-30.8-32.3-54.1c2.7-7.6-9.3-11.1-12-3.6c-10.2,29.2,10,64.5,40.7,69.7
							C1025.1,743.9,1028.8,732,1020.9,730.6z"/>
						<path class="st6" d="M942.7,898.4c-2.3-7.7-14.5-4.9-12.2,2.8c3.2,10.6,3.3,21.1,0.1,31.7c-2.3,7.7,9.7,11.3,12,3.6
							C946.3,924,946.4,911,942.7,898.4z"/>
						<path class="st6" d="M901.6,500.3c-3.6-7.2-14.6-1.4-11,5.8c11.7,23.4,19.7,50.4,19.1,76.8c-0.5,26.7-18.6,43.8-37.5,60.2
							c-6.1,5.3,2.4,14.4,8.4,9.2c20.9-18.1,40.2-37.6,41.5-66.8C923.4,556.4,914.5,526.1,901.6,500.3z"/>
						<path class="st6" d="M846,665.3c-34.3,30.9-55.4,74.7-58.3,120.8c-0.5,8,12,8.4,12.5,0.4c2.7-42.8,22.4-83.3,54.3-112
							C860.4,669.1,851.9,659.9,846,665.3z"/>
						<path class="st6" d="M2334,519.1c-16.1,46.5-20.4,96.3-12.9,144.9c1.2,7.9,13.4,5.1,12.2-2.8c-7.2-46.5-2.7-94.1,12.7-138.6
							C2348.6,515.1,2336.7,511.5,2334,519.1z"/>
						<path class="st6" d="M2299.2,450.2c-9.9,12.7-17,27.4-20.8,43.1c-1.9,7.8,10.1,11.4,12,3.6c3.6-14.7,10.1-28.1,19.4-40
							C2314.7,450.5,2304.1,443.9,2299.2,450.2z"/>
						<path class="st6" d="M2250.8,691.1c-11.3,17.7-30.8,29.1-51.9,30c-8,0.3-8.4,12.8-0.4,12.5c25.5-1.1,49-14.3,62.8-35.9
							C2265.7,690.9,2255.1,684.3,2250.8,691.1z"/>
						<path class="st6" d="M2429,721.4c-11.2-12.2-25.3-18.4-40.4-20.8c-0.3-0.5-0.6-1-1.1-1.4c-12.8-12.8-27.7-25.5-44.1-33.5
							c-13.9-6.8-32.7,3-43.6,11.7c-14.1,11.4-22.1,29-33.7,42.7c-5.8,6.9-12.1,13.4-18.7,19.5c-5.8,5.4-13.7,10.1-17.8,16.9
							c-4.5,7.4-1.9,16.3,5.4,20.7c8.4,5.1,17.8,1.6,25.6-2.9c0.9,1.5,2.6,2.6,4.9,2.7c11.5,0.3,22.8-1.7,33.4-6.1
							c5.4-2.2,10.4-5.1,15.1-8.5c1.6-1.2,4.7-4.8,6.7-5.3c1.4-0.4,5.3,1.5,6.7,1.8c4.7,1.1,9.5,1.8,14.3,2
							c10.1,19.8,33.8,22.1,53.7,20.8c7.9-0.5,8.4-13,0.4-12.5c-13.3,0.9-30.1,1.2-39.5-9.1c11.1-1.8,21.7-6.3,30.4-14.1
							c6-5.4-2.5-14.5-8.4-9.2c-7.7,6.8-17.2,10.6-27.4,11.5c-4.3,0.4-8.8,0.3-13.1-0.3c-5.1-0.6-9.8-2.7-14.9-3.3
							c-9.2-1.2-16.4,8.4-24,12.4c-9.1,4.7-18.9,7.1-29,7.3c7-10.1,14.4-19.9,23.8-27.8c11.8-9.9,26.4-15,41.1-19
							c28.2-7.7,63.2-11.8,85.1,12.1C2425.3,735.7,2434.5,727.3,2429,721.4z M2334.2,705c-16.5,4.3-32.9,9.9-46.5,20.6
							c-12.9,10.1-22.5,23.8-31.8,37.2c-0.1,0.1-0.3,0.1-0.4,0.2c-3.4,2-8.8,5.7-12.9,4c-5.1-2-1-5.5,1.5-7.8
							c6.4-5.7,12.9-11.1,18.9-17.2c12.2-12.3,22.3-26,32-40.3c4.9-7.1,10.3-13.6,17.7-18.3c5.8-3.7,15.4-8.7,22.6-7.6
							c4.1,0.6,8.5,4.2,12,6.5c3.4,2.2,6.7,4.5,10,6.9c4.4,3.2,8.5,6.7,12.6,10.3C2357.7,699.8,2345.6,702,2334.2,705z"/>
						<path class="st6" d="M2281.9,823.4c-7.7-1.9-12.3,9.7-4.6,11.6c27.8,7,49.3,32.9,49.3,61.9c0,7.9,12.4,9.3,12.4,1.3
							C2339.1,864,2315.4,831.8,2281.9,823.4z"/>
						<path class="st6" d="M957.5,487.8c-4.8-9.2-10.3-18-16.3-26.4c-2-2.8-6.5-2.4-8.8-0.4c-2.8,2.5-2.3,6.1-0.4,8.8
							c5.4,7.6,10.1,15.5,14.4,23.8C950.2,500.7,961.2,494.9,957.5,487.8z"/>
						<g>
							<path class="st6" d="M731.1,1310.9c-0.1,49.7-2.8,99-15.5,146.6c-5.1,19.1-31.8,20.4-38.7,1.8c0-0.1-0.1-0.3-0.1-0.4
								c-0.7-1.8-1.1-3.7-1.2-5.6c-0.4-6.2-0.8-12.3-1.3-18.5c0-0.5-0.1-1-0.2-1.5c-0.9-5.8-1.6-11.6-2.2-17.4l0,0
								c6.8-38.7,15.5-79.9,26.5-123.9c6.6-2.3,13.2-2.4,19.6-0.1C725.9,1294.7,731.1,1302.4,731.1,1310.9z"/>
							<path class="st6" d="M1918.7,1555.6c-7.9,20.8-38.4,17.2-41.4-4.9c-7-51.5-6.3-101.3,7.6-151.2c5.5-19.7,13.3-37.9,27.1-53.2
								c6.6-7.3,14.3-14.2,23.5-8.2c4.3,2.8,6,12.3,6.1,18.8C1942.3,1423.7,1943.3,1490.6,1918.7,1555.6z"/>
							<path class="st6" d="M1325.7,847.7c-5.1,21.7-35.7,22.1-41.6,0.6c-10-36.1-15.8-71.9-15.5-108.2c19.7-7.2,40.6-13.9,62.9-20
								C1335.4,762.2,1335.7,804.7,1325.7,847.7z"/>
							<path class="st6" d="M715.9,1868.1c-18.1-27.8-33.5-61.6-44.5-102.8c1.9-17,5.1-33.9,9.8-50.9c5.5-19.7,13.3-37.9,27.1-53.2
								c6.6-7.3,14.3-14.2,23.5-8.2c4.3,2.8,6,12.3,6.1,18.8C738.6,1737.7,739.6,1803.8,715.9,1868.1z"/>
							<path class="st6" d="M2177.1,2233c-17.6-71.5-21.4-142.3,13.1-210.5c6.9-13.7,18.5-26.7,33.5-24.1c18.1,3.1,9,21.5,9.7,32.9
								c4,69.6-0.9,137.9-33.1,201.6C2192.6,2239.6,2184.8,2239.7,2177.1,2233z"/>
							<path class="st6" d="M1038.3,1562c-6.3,19.2-34.4,16.3-36.8-3.8c-7.8-65.8-8.7-127.1,17.8-188.2
								c7.6-17.6,16.1-32.1,34.9-28.4c21.4,4.2,11,24.2,10,36.9C1059.6,1438.9,1058.6,1500.3,1038.3,1562z"/>
							<path class="st6" d="M2512.5,1849.9c-8.1,20.7-38.5,17.1-41.5-4.9c-6.1-45.5-8.7-86.7-1.3-129c4.8-27.3,5.6-57.7,39-55.4
								c30.5,2.1,14.5,33.3,18.9,52.2C2538.8,1760.5,2530.5,1803.7,2512.5,1849.9z"/>
							<path class="st6" d="M1319,2202.1c-8,19.8-36.9,16.9-40.4-4.2c-9.6-58.8-10.3-116.7,15.6-174.4c7.9-17.6,18.1-38.2,39.5-29.6
								c19.7,7.9,5.4,28.2,3.3,43.2c-7.6,54.7,4.1,111.7-17.9,164.4C1319.1,2201.7,1319.1,2201.9,1319,2202.1z"/>
							<path class="st6" d="M1312.6,1229.5c-6.3,14.2-27.5,11.2-29.6-4.2c-8.8-64-7.3-122,5.1-180.4c3.9-18.2,14-24.3,31.3-24.1
								c16.5,0.2,16.2,11.7,16.8,22.8C1339.7,1104.9,1341,1165.8,1312.6,1229.5z"/>
							<path class="st6" d="M1615.5,1862.6c-7.2,21.6-38.8,18.7-41.8-3.9c-6.5-49.4-4.8-95.7,3.6-142.1c3.8-21.1,4.8-50.2,37.6-43.3
								c26.4,5.5,10.9,29.9,13.1,46.2C1634.7,1767.8,1631.7,1814.4,1615.5,1862.6z"/>
							<path class="st6" d="M2058.6,2313.8h-45.7c-12.4-66.4-4.3-128.5,13.7-190.9c4.1-14.3,12.1-30.6,28.3-26.2
								c15.4,4.1,10.1,21.4,10,33.5C2064.3,2189.7,2068.4,2250,2058.6,2313.8z"/>
							<path class="st6" d="M2616.8,1647.6c-0.2-0.1-0.4-0.3-0.6-0.5c-5-30.1-29.5-54.7-24.8-87.6c2-34.5-1.2-69.4,7.4-103.4
								C2610.3,1520.7,2617.3,1585.8,2616.8,1647.6z"/>
							<path class="st6" d="M1153.5,2123.7c-11.3,60.7-4.6,123.8-11.4,190.1H1097c-13.5-64.4-5.4-125.4,14.6-187
								c4.7-14.5,16.2-24.2,31.1-22.3C1152.1,2105.7,1155,2115.1,1153.5,2123.7z"/>
							<path class="st6" d="M1762.2,1595.1c-4.2,21.4-34.2,22.8-40.6,2c-16.4-53.2-6.9-106.6,7-160.4c4.2-16.2,15.1-26.3,32-23.7
								c19.2,3,12.3,20,12.6,31.5C1774.7,1494.8,1772.2,1544.6,1762.2,1595.1z"/>
							<path class="st6" d="M2526.4,1183L2526.4,1183c-3.1,10.3-7.1,20.4-12.3,30.5c-9.4,18.3-36.3,14.8-40.7-5.3
								c-10.3-46.8-0.5-90.1,13.9-132.7C2499.7,1107.5,2513.1,1143.8,2526.4,1183z"/>
							<path class="st6" d="M1470.8,943.6c-3.6,22.5-35.4,23.8-40.7,1.6c-13.1-54.8-10.2-108,6.3-161.7
								c4.6-15.1,16.3-27.7,32.2-24.7c21.3,4,11.3,22.5,11.1,36.1c-0.7,49.5-0.6,99.1-8.8,148.3
								C1470.9,943.3,1470.8,943.4,1470.8,943.6z"/>
							<path class="st6" d="M877.9,1627.8c-3.3,9-15.5,10.6-20.8,2.6c-37.8-57-24.4-161.4,0.6-204c5.6-9.6,14.5-17.1,27.8-14
								c9,2.2,13.1,9.5,10.9,16.6c-19.9,65,5,134.1-18.5,198.6C878,1627.6,878,1627.7,877.9,1627.8z"/>
							<path class="st6" d="M1649.8,1060.8c7.8,57.7,11.1,113.8-18.4,166.5c-5.3,9.5-19,9.2-24.1-0.3
								c-27.2-50.3-19-126.9,18.1-172.9C1633,1044.7,1648.2,1048.8,1649.8,1060.8z"/>
							<path class="st6" d="M1935.4,1859.9c-9,20.4-38.9,17.3-44-4.4c-12.6-53.7-6.4-126.5,18.1-155.9c3.9-4.7,13-6.9,19.8-7.2
								c8.6-0.4,12.2,6.7,12.5,14.9C1943.6,1758.5,1956.6,1811.9,1935.4,1859.9z"/>
							<path class="st6" d="M1057.2,1858.2c-9.7,21.7-41.7,17.4-45.6-6.1c-9.1-54-1.2-124,21.9-149.4c10.5-11.5,31.8-18.4,31.7,3
								C1064.8,1756.3,1078.4,1810.6,1057.2,1858.2z"/>
							<path class="st6" d="M2166.3,1119.4c-0.7-1.5-1.1-3-1.4-4.6c-6-29.3,10.5-56.3,10.3-85.2c-0.1-19.4,14.8-23.7,31.2-23.8
								c15.2-0.1,18.1,11,18.7,22.5c2.6,48,7.6,96.5-7.9,141.9c-8.2,23.9-42.7,21-46.9-4c0-0.2-0.1-0.4-0.1-0.5
								C2167.5,1150.5,2173,1134.4,2166.3,1119.4z"/>
							<path class="st6" d="M1479,1264.3c-10.4,18.8-38.7,13.6-41.8-7.7c-6.1-40.7-2.1-80.3,2.5-119.7c2.4-20.3,21.2-25.6,38.4-24.7
								c18.5,1,17,18.3,15.7,30.2C1489.2,1182.2,1500.1,1226.4,1479,1264.3z"/>
							<path class="st6" d="M2368.9,1168.6c-1.1,46.5,8.2,81.2-18.9,108.4c-1,1-2,1.9-3,2.9c-10.6,9.5-27.8,5.9-32.8-7.5
								c-0.6-1.6-0.9-3.1-1-4.7c-1-38.7-0.4-77.6,2.2-116.2c1.5-21.6,12.5-41.2,37.7-39.3c31.2,2.2,14.2,27.3,16.2,42.8
								C2370.4,1163.9,2368.7,1173.3,2368.9,1168.6z"/>
							<path class="st6" d="M2212.8,1521.1c-5,14.7-26.1,13.5-29.7-1.5c-12-50.1-9.8-96.1,0.5-142.4c3.1-13.9,5.5-30.6,26.7-28.1
								c22.5,2.6,24,18,22.8,36.2C2230.1,1430.1,2228.5,1475.2,2212.8,1521.1z"/>
							<path class="st6" d="M1405.1,1540.8c-4.9,13.6-24.6,12.7-28-1.4c-11.9-49.7-12.1-96.6-5.4-144.8c4.1-29.7,22.4-24.6,40-23.6
								c26.8,1.6,14.2,20.3,12,32.7C1416.1,1448.1,1421.5,1495.1,1405.1,1540.8z"/>
							<path class="st6" d="M1893,2173.7c-4.6,14.4-25.4,12.9-27.7-2.1c-7-45.9-13.2-91.6,0.7-138.2c4.4-14.7,11.6-26.3,30.9-25.2
								c16.2,0.9,18,10.6,16.7,22.1C1908.2,2078.2,1907.8,2127.2,1893,2173.7z"/>
							<path class="st6" d="M1017,2060.7c-5.9,39.4-4.7,80.7-14.6,120.8c-3.6,14.5-20.2,17.4-29.6,9.6l22.2-169.8
								c2-0.2,4.2-0.2,6.7,0.1C1027.9,2024.4,1018.9,2047.8,1017,2060.7z"/>
							<path class="st6" d="M1599.9,1516c-5.1,18.3-31.7,16.4-34.3-2.4c-6.4-46.1-8.4-87.8,5.3-130.4c5.5-16.9,10.9-26.5,28.9-26
								c25.9,0.7,16,20.6,16.2,32.8C1616.4,1431.8,1612.1,1472.6,1599.9,1516z"/>
							<path class="st6" d="M1633.6,2173.9c-4.4,21.9-36,21.2-39.4-0.8c-6.4-40.7-4.3-81.4,4.3-122.3c3.5-16.9,8.3-38.6,35.4-32.2
								c26.1,6.1,16.7,26.3,13.2,40.4C1637.9,2096.1,1641.3,2136,1633.6,2173.9z"/>
							<path class="st6" d="M903.4,1202.3c-5.6,19.1-33.2,17.4-36.4-2.3c-6-36.7-10.3-73.3,0.8-110.7c4.8-16,9.2-27.6,27.8-28.3
								c25.8-1,17.4,18.3,18.3,31.1C916.8,1130,913.8,1166.8,903.4,1202.3z"/>
							<path class="st6" d="M2358,1482.2c1,39.5-5.5,77.7-15.6,115.2c-5.6,21-36.1,19.6-39.5-1.9c-6.6-40.5-0.6-80.8,17-121.1
								c2.4-5.4,7-9.6,12.7-11.2c0.1,0,0.2-0.1,0.4-0.1C2345.4,1459.8,2357.7,1469.3,2358,1482.2z"/>
							<path class="st6" d="M1216.8,1875.5c-5.4,21.9-37.2,19.9-40-2.5c-4-32.2-6.2-64.4,2.8-96.7c4.5-16.2,9.1-36.6,29.2-35.2
								c26.1,1.8,13.7,25.3,14.6,39.4C1225.5,1813,1224.3,1844.8,1216.8,1875.5z"/>
							<path class="st6" d="M2095.8,1883.8c-3.9,23.5-38,23-41.1-0.7c-4.9-37.7-2.4-74.4,5.6-111.4c3.9-17.9,11.6-34.4,31.6-31.3
								c27.7,4.4,12.1,23.1,9.6,38.4C2096,1812.4,2101.7,1848,2095.8,1883.8z"/>
							<path class="st6" d="M1063.3,1115.9c-2.2,29-44.8,28.3-46.1-0.8c-1.3-29.9,2.2-59.2,4.5-88.4c1.1-14,12.8-16.2,24.4-16.7
								c14-0.6,21.4,7.5,20.1,20C1063.2,1057.9,1065.5,1086.6,1063.3,1115.9z"/>
							<path class="st6" d="M1174.6,956.6c-4.9,21.1-35,20.5-39.3-0.7c-7.8-38.1-4.3-74.9,3.6-111.8c3.7-17.3,10.7-32.1,33.3-28.7
								c28.3,4.2,19.1,28.7,14.9,39.2C1174.6,886.1,1182.7,922.3,1174.6,956.6z"/>
							<path class="st6" d="M2048.7,964.5c-5.3,18.1-30.9,17.6-35.5-0.7c-11.5-45.5-4-87.3,8.6-129.3c5.6-18.6,21-19.7,36.2-17
								c22.6,4,10.4,21.1,7.9,30.7C2056.2,884.6,2060.5,924.1,2048.7,964.5z"/>
							<path class="st6" d="M2485.5,1490.5c-4.9,22-37.1,20-39.3-2.4c-3.6-35.4-2.2-71.1,5.6-107c2.3-10.8,6-25.3,24.5-24.1
								c20.6,1.4,16.9,16.6,17.2,28.3C2494.1,1420.8,2493.2,1456,2485.5,1490.5z"/>
							<path class="st6" d="M887.2,1985.3c-14.1-3.2-28.9-7.5-43.9-13.4c-0.9-27.1,1.4-54.3,7.3-81.6c2.3-10.8,6-25.3,24.5-24.1
								c20.6,1.4,16.9,16.6,17.2,28.3C892.9,1925.1,892.3,1955.4,887.2,1985.3z"/>
							<path class="st6" d="M2231.1,1804.9c-4.8,21.5-36,20.7-39.6-1.1c-6.1-37.6-0.6-74.3-2.9-110.2c-1.6-24.4,17.5-28.3,30.6-30.2
								c23.2-3.3,19.3,15.6,16.2,30.3C2228.1,1728.9,2239.5,1767.5,2231.1,1804.9z"/>
							<path class="st6" d="M1350.7,1810.7c-5.4,18.4-32,17.3-35.7-1.5c-8.5-43.2,1.1-85.9-0.9-127.3c-0.6-11.9,10.2-19.4,22.5-19.9
								c10.1-0.4,20.9,6.8,20.4,14.9C1354.3,1720.5,1363.8,1766.2,1350.7,1810.7z"/>
							<path class="st6" d="M1799.4,1235.5c-5,20.6-34.9,18.4-37-2.7c-4.1-40.4-0.4-79.7,3.8-119c1.7-15.5,8-29,28.6-25.8
								c21,3.3,13.2,19.9,13.2,30.7C1808.2,1157.6,1808.9,1196.7,1799.4,1235.5z"/>
							<path class="st6" d="M1649.3,950.6c-5,20.6-34.9,18.4-37-2.7c-4.1-40.4-0.4-79.7,3.8-119c1.7-15.5,8-29,28.6-25.8
								c21,3.3,13.2,19.9,13.2,30.7C1658.2,872.7,1658.8,911.8,1649.3,950.6z"/>
							<path class="st6" d="M1773,2178.1c-6.7,44.6-7.1,90.6-14.9,135.7h-34.3c-13.4-56.1-10.5-132,10.8-158.2
								c7.1-8.7,15.5-11.7,25.2-9.1C1774.6,2150.6,1774.9,2165.8,1773,2178.1z"/>
							<path class="st6" d="M1457.9,1924.7c-4.5,18.9-31.2,19.5-36.5,0.8c-10.9-38.3-2.7-78.5,6.6-119.2c4.2-18.5,13.5-25.7,30.2-24
								c21.1,2.2,12.2,20.1,11.9,30.3C1468.7,1850.5,1466.5,1888.3,1457.9,1924.7z"/>
							<path class="st6" d="M2385.4,2197.9c-8,12.1-29.3,10.5-33-6.3c-11.1-49.9-9.9-116.1,8.1-132.9c1.4-1.3,3.2-2.3,5.2-3
								L2385.4,2197.9z"/>
							<path class="st6" d="M1932.8,775.6L1932.8,775.6c-0.4,1.4-0.9,2.7-1.4,4c-1,2.6-1.3,5.5-0.8,8.2c5.1,30.3,0.1,58.7-8.9,89.2
								c-4.7,16.1-27.8,14.9-31.1-1.5c-10.6-53.9-6.3-103.2,5.4-153.1c0-0.1,0-0.1,0-0.2c10.1,2.6,19.9,5.3,29.4,8.2
								c2.9,0.9,5.8,1.7,8.7,2.6l0,0C1938.6,746.6,1937.7,760.8,1932.8,775.6z"/>
							<path class="st6" d="M1165.9,1267.9c-3.8,20-31.8,21.6-37.9,2.2c-14.1-45-0.1-89,14-133.2c3.5-10.8,10.1-14.2,20.2-14.7
								c12.5-0.6,17.5,7.6,15.7,17.3C1169.9,1181.1,1174.1,1224.7,1165.9,1267.9z"/>
							<path class="st6" d="M2039.6,1287.1c-3.3,15-24.7,14.9-27.9-0.1c-9.8-45.7-9.7-90.1,2.4-135.2c3.8-14,6.5-31.6,26.8-29.1
								c23.7,2.9,14.6,22.4,13.4,35C2050.4,1200.4,2049.1,1243.5,2039.6,1287.1z"/>
							<path class="st6" d="M2098.3,1523.2c-2.3,26.9-41.7,27.2-44.5,0.3c-3.6-35.6,3.8-70.1,10.1-104.6
								c2.7-14.6,11.1-17.9,23.4-16.8c9.1,0.8,24.2,3.5,19.9,13.2C2092.7,1448.6,2101.5,1486.1,2098.3,1523.2z"/>
							<path class="st6" d="M1797.6,906.4c-4.6,16.1-27.8,15.2-31.1-1.3c-9.3-46.3-6.4-90.3,6.3-135c4.4-15.4,9-22.5,25.1-21.5
								c21.1,1.3,15.4,15.2,13.5,27.1C1804.8,817.9,1810.2,862.2,1797.6,906.4z"/>
							<path class="st6" d="M1504.1,2052.8c8.8,2.4,24.2-0.7,19,13c-17.2,44.6,0.5,92.5-15.1,137c-3,8.6-3.2,18.4-14.8,20.2
								c-11.4,1.8-19-5.2-20.1-14.5c-5.7-48-7-96,5.1-143.5C1482.4,2049.2,1495.4,2055.4,1504.1,2052.8z"/>
							<path class="st6" d="M1932.4,1162.7c-6,14.3-26.7,12.8-30.6-2.2c-11.7-45-3.7-89.3-1.6-132.9c0.6-12.7,11.8-17.8,24.1-18.1
								c11.1-0.3,18.4,5.7,17.7,16.4C1939,1070.6,1951,1118,1932.4,1162.7z"/>
							<path class="st6" d="M1726.2,1861.9c1.4-24.1,0-48.8,5.4-71.9c3.4-14.5,13.7-30.2,35.4-27.7c23.4,2.7,18.4,20.3,17.6,33.7
								c-2.3,38.6,8.4,77.9-7.2,115.7c-6.6,16-15.6,35.7-32,34.6c-20.4-1.3-17.1-24-17.8-39.9c-0.6-14.8-0.1-29.6-0.1-44.5
								C1727,1861.9,1726.6,1861.9,1726.2,1861.9z"/>
							<path class="st6" d="M1207.8,1564.4c-3.7,12.7-21.9,12.1-24.8-0.8c-9.5-42.3-7.1-84.6-0.1-127c2.6-15.6,6.2-37,29.1-33.5
								c22.7,3.5,10.8,24,11.4,36.6C1225.2,1482.2,1219.6,1523.5,1207.8,1564.4z"/>
							<path class="st6" d="M2334.5,1928.8c-4.4,16.6-28.3,15.6-31.3-1.4c-7.3-41.3-4-81.1,4.8-121.4c3-13.6,6.6-25.5,23.6-24.3
								c20.5,1.5,14.3,16.6,14.6,28.9C2347.1,1850.3,2345.1,1889.3,2334.5,1928.8z"/>
							<path class="st6" d="M1932.8,775.6L1932.8,775.6c-0.9,2.6-1.9,5.3-3,8.1c2.5-18.3,0.1-35.9-4.4-53.2c2.9,0.9,5.8,1.7,8.7,2.6
								l0,0c2.9,0.9,5.8,1.8,8.7,2.7l0,0C1943,745,1939.6,757.3,1932.8,775.6z"/>
							<path class="st6" d="M1750.1,1812.3c18.8,26.3,31,52.7,0.2,82.8C1733.1,1865.4,1739,1838.9,1750.1,1812.3z"/>
						</g>
						<g>
							<path class="st6" d="M1910,496.4c-17.3-23.2-43-43.1-48.6-73c-3-16-0.4-32.5-1.7-48.6c-1.1-13.8-5.2-26.4-13.4-37.7
								c-15.6-21.6-40.9-34.2-63.8-46.4c-28.3-15-57.9-29.5-89.8-34.8c-2.4-0.4-4.8-0.7-7.2-1c4.7-12.6,7.8-25.7,7.3-39.4
								c-0.7-21.2-10.3-42.4-29.8-52.4c-41.8-21.5-78.4,27-87.4,62.9c-4,16-4.4,32.5-1.2,48.4c-5.9,0.4-11.9,0.3-18.2-0.2
								c-15.4-1.3-30.4-2.9-45.8,0c-27.8,5.3-52.1,21.7-73.6,39.4c-21.4,17.6-43,36.7-60.7,58.1c-8.6,10.4-16,21.6-21.2,34.1
								c-5.6,13.3-7.3,27.2-7.5,41.5c-0.2,15,0.8,31.3-6.3,45.1c-6.7,12.9-18.2,22.2-26.3,34.1c-6.6,9.8-10.8,22.5-8.3,34.3
								s12.1,19.5,23.5,21.8c11.7,2.3,24.2,0.2,35.6,4.1c11.5,3.9,16.9,15.5,22.1,25.5c5.5,10.6,11.8,20.9,22.4,27.1
								c10.8,6.3,23.7,7.8,36,7.1c25.7-1.6,49.9-13.2,75.8-12.4c10.5,0.3,20.6,2.9,28.5,9.6c-0.4,0.3-0.8,0.6-1.2,0.9
								c-5,3.8,1.6,10.9,6.6,7.1c14.4-11,33.4-14.7,50.9-11c5.4,2.4,11,4.5,16.7,6.1c0.8,0.4,1.6,0.9,2.4,1.4c1.5,0.9,3,0.9,4.2,0.4
								c17.1,4,34.9,4.6,52.3,1.6c13.9-2.4,27.5-7,39.8-13.9c12-6.6,24.8-18.9,39.4-18.4c12.3,0.5,20.3,12.5,31,17
								c10.2,4.3,20.6,0.4,26.3-8.8c5.5-8.7,6.7-20.5,14.3-27.9c8.2-7.9,21.1-7,31.6-6.5c11.6,0.6,23.8,1.8,35-1.8
								c11-3.6,19.4-11.6,24.3-22C1935.6,542.9,1925.3,517,1910,496.4z"/>
							<path class="st5" d="M1549.6,514.8l-14.1,203.4c14.3,39.3,175.6,34.3,172.6-4.9c-2.3-30-13-72.6-19.1-103.9
								c-1.2-6-2.3-11.6-3.3-16.6c-2.6-12.9-4.7-21.8-5.8-23.8L1549.6,514.8z"/>
							<g>
								<path class="st5" d="M1482.6,454.1c2.9-24.6,12.7-38.3,15.9-45.8c51-120.1,246.2-80.6,249.9,46.3c1.7,0.2,3.5,0.4,5.2,0.8
									c19.3,4,37.6,17,44.1,35.4c7.4,21-1.9,43.5-20.5,55.9c-21.2,14.1-46.9,11.4-70.3,4.9c-20.6,19.3-47.4,32.5-77.2,35.7
									c-47.9,5.2-100-17-127.5-54c-27.1,9-64.8-3.6-71-31.6C1424.2,470.9,1454.5,451.1,1482.6,454.1z"/>
								<path class="st6" d="M1600.6,480.8c4.7-13.8,6.2-28,3.9-42.4c-1.7-10.4,15-14.9,16.7-4.4c2.9,17.4,1.8,34.5-3.9,51.2
									C1613.9,495.3,1597.2,491,1600.6,480.8z"/>
								<path class="st6" d="M1450.3,491.1c4.6-13.1,22.9-18.2,34.4-10.4c4.8,3.2-0.2,10.4-5,7.2c-6.4-4.3-16.7-2.3-20.3,4.6
									c-4.5,8.6,5.2,18.7,14.4,17.5c5.7-0.7,7.5,7.8,1.7,8.5C1460.2,520.6,1445,506,1450.3,491.1z"/>
								<path class="st6" d="M1741.5,516.3c7.3,2.9,17.1,0.4,20.1-7.2c3.3-8.2-5.4-17.2-14.1-15.9c-5.7,0.9-7.5-7.6-1.7-8.5
									c14.2-2.2,28.1,10.6,25.1,24.5c-2.9,13.4-19.6,20.4-32.3,15.3C1733.2,522.3,1736.1,514.1,1741.5,516.3z"/>
								<path class="st6" d="M1570.2,449.1c-6.4,13-23.7,12.7-29.5-0.7c-3-6.9-13.2-1.4-10.3,5.4c9.1,21.1,39.4,22.1,49.7,1.5
									C1583.3,448.6,1573.5,442.4,1570.2,449.1z"/>
								<path class="st6" d="M1656.5,449.1c6.4,13,23.7,12.7,29.5-0.7c3-6.9,13.2-1.4,10.3,5.4c-9.1,21.1-39.4,22.1-49.7,1.5
									C1643.3,448.6,1653.1,442.4,1656.5,449.1z"/>
								<path class="st6" d="M1588.9,406.4c-22.1-5.1-45.9-0.1-64.1,13.5c-7,5.2,0.8,16.3,7.8,11.1c15.6-11.6,35.2-15.5,54.1-11.2
									C1595.3,421.8,1597.4,408.4,1588.9,406.4z"/>
								<path class="st6" d="M1704.7,416c-19.3-16.1-44-24.2-69.1-23c-8.8,0.4-7.4,13.9,1.3,13.5c21.5-1.1,42.7,6.2,59.2,20
									C1702.9,432.1,1711.5,421.6,1704.7,416z"/>
								<path class="st6" d="M1648.7,519.1c-8,14.7-26,19.6-40.2,10.5c-5.3-3.4-10.4,4.9-5.1,8.2c18.5,11.8,43.1,5.7,53.6-13.6
									C1659.9,518.7,1651.7,513.6,1648.7,519.1z"/>
							</g>
							<path class="st6" d="M1612.8,585.9c-23.5,3.1-47.3-2.5-67-15.6c-5.2-3.5-10.3,4.4-5.1,7.9c21.9,14.6,48.3,20.6,74.3,17.2
								C1621.2,594.5,1618.9,585.1,1612.8,585.9z"/>
							<path class="st6" d="M1771.5,404.3c-1.5-19.1-10.6-36.6-24-50.1c-31-31.3-77.1-38.6-119.1-41.7c-24.4-1.8-49.4-0.7-72,9.7
								c-2.9,1.3-3.1,4.2-1.9,6.4c-8.9,0.6-17.6,4-25.6,7.9c-12.2,6-24.1,13.6-33.2,23.8c-21.4,23.7-22,55.7-21.3,85.9
								c0.1,2.8,2.1,4.4,4.2,4.8c1.6,3.8,7.9,4.7,9.1-0.3c2.6-11.5,7.4-22.2,14.2-31.8c7.2-10.1,16.8-17.7,26.8-25
								c13.2-9.6,27.7-20.4,34.9-35.1c2.4,2.9,5.1,5.5,8.1,7.7c14.7,10.3,34.1,8.2,51,7.7c34.9-1.1,72.3,6.4,98.2,31.4
								c13,12.6,22.3,28.5,25.4,46.5c0.6,3.5,5.5,5.1,8,2.5C1767.3,441.1,1773,422.6,1771.5,404.3z"/>
							<path class="st4" d="M1505.3,551.5c-2.2-4.7-5.7-8.3-9.9-10.6c3.7-5.1,3.2-12.7-2.3-16.7c-2.9-2.1-6.5-2.4-9.6-1.4
								c-0.6,0-1.2,0-1.8,0.2c-7,2.3-11,10-7.2,16.9c0,0.1,0.1,0.1,0.1,0.2c-1.3,0.6-2.6,1.3-3.8,2.2c-12.7,9.1-13,28.4-1,38.3
								c11.2,9.2,30.1,7.6,36.9-6.1C1510.7,566.5,1509.5,558.3,1505.3,551.5z M1497,565.3c-0.9,8.8-11.1,11.1-17.8,7.1
								c-6.8-4.1-8.3-14.2-2.1-19.5c3.1-2.7,6.7-3.3,10-2.4C1489.7,552,1498.1,554.6,1497,565.3z"/>
							<path class="st4" d="M1718.6,589.6c6.8,13.7,25.8,15.3,36.9,6.1c12-9.9,11.7-29.1-1-38.3c-1.2-0.9-2.5-1.6-3.8-2.2
								c0-0.1,0.1-0.1,0.1-0.2c3.8-6.8-0.2-14.5-7.2-16.9c-0.6-0.2-1.2-0.3-1.8-0.2c-3.1-1.1-6.7-0.8-9.6,1.4
								c-5.4,3.9-6,11.6-2.3,16.7c-4.2,2.3-7.7,5.9-9.9,10.6C1715.9,573.4,1714.7,581.6,1718.6,589.6z M1738.3,565.5
								c3.2-0.9,6.8-0.3,10,2.4c6.2,5.3,4.8,15.4-2.1,19.5c-6.7,4-16.9,1.7-17.8-7.1C1727.3,569.7,1735.7,567,1738.3,565.5z"/>
							<path class="st4" d="M1691.6,252.9c-0.6-1.2-1.1-2.3-1.7-3.5c-1.2-2.4-4.3-3.2-6.6-2c-22.1,11-46.1,17.2-70.7,18.2
								c18.7-7.8,36.1-18.6,44.8-37.7c1.4-3.2,0.1-7.3-4-7.4c-26.3-0.6-51,14.5-63.3,37.4c-10.1-19.1-28.9-33.3-50.3-37.3
								c-3.1-0.6-7.5,1.9-6.1,5.7c7.2,19.5,20.8,36,38.8,46.2c0,2.4,1.5,4.8,4.5,5.1c20.2,1.8,40.5,1.3,60.6-1.5
								c17.6-2.5,51.5-16.5,51.8-16.7C1692,258.5,1692.6,255,1691.6,252.9z"/>
						</g>
					</g>
				</g>
			</g>
		</g>
	</g>
</g>
<g id="Layer_4">
</g>
</svg>
