<?xml version="1.0" encoding="utf-8"?>
<!-- Generator: Adobe Illustrator 23.0.3, SVG Export Plug-In . SVG Version: 6.00 Build 0)  -->
<svg version="1.1" xmlns="http://www.w3.org/2000/svg" xmlns:xlink="http://www.w3.org/1999/xlink" x="0px" y="0px"
	 viewBox="0 0 2953 2318.5" style="enable-background:new 0 0 2953 2318.5;" xml:space="preserve">
<style type="text/css">
	.st0{display:none;}
	.st1{display:inline;}
	.st2{display:inline;opacity:0.44;}
	.st3{display:inline;opacity:0.45;}
	.st4{clip-path:url(#SVGID_2_);}
	.st5{fill:#101820;}
	.st6{clip-path:url(#SVGID_4_);}
	.st7{fill:#2C2B3C;}
	.st8{fill:#60BBC5;}
	.st9{fill:#FF7D40;}
	.st10{fill:#E10000;}
	.st11{clip-path:url(#SVGID_6_);}
	.st12{clip-path:url(#SVGID_8_);}
	.st13{fill:#2F52EF;}
	.st14{opacity:0.26;fill:#60BBC5;}
	.st15{fill:#010101;}
	.st16{clip-path:url(#SVGID_10_);}
	.st17{fill:#DF271C;}
	.st18{opacity:0.32;fill:#2F52EF;}
	.st19{clip-path:url(#SVGID_12_);}
	.st20{fill:#FF894A;}
</style>
<g id="Layer_2" class="st0">
	<g id="iWBnzH_1_" class="st2">
		
			<image style="overflow:visible;" width="1756" height="1409" id="iWBnzH" xlink:href="C6E62540B10D08EE.jpg"  transform="matrix(2.5774 0 0 2.5774 -542.6376 -340.021)">
		</image>
	</g>
</g>
<g id="Layer_3">
</g>
<g id="Layer_1">
	<g>
		<defs>
			<rect id="SVGID_9_" width="2953" height="2318.5"/>
		</defs>
		<clipPath id="SVGID_2_">
			<use xlink:href="#SVGID_9_"  style="overflow:visible;"/>
		</clipPath>
		<g class="st4">
			<path class="st5" d="M83,1457.7l0.1-945.1h945.1c0,0,1813.6,1813.7,1944.1,1944.2c261,261,261,684.1,0,945.1
				c-261,261-684.1,261-945.1,0C1896.7,3271.4,83,1457.7,83,1457.7"/>
			<g>
				<path class="st17" d="M1564.3,453.7c1.1,0,2.1,0,3.2,0C1566.5,453.7,1565.4,453.7,1564.3,453.7z"/>
				<path class="st17" d="M1505.9,455.7c2.5-0.2,5-0.3,7.5-0.4C1510.8,455.4,1508.3,455.5,1505.9,455.7z"/>
				<path class="st17" d="M1539.8,454.1c3.8-0.1,7.6-0.2,11.4-0.3C1547.4,453.8,1543.6,453.9,1539.8,454.1z"/>
				<path class="st17" d="M1528.5,454.5c2.7-0.1,5.4-0.2,8.2-0.3C1533.9,454.3,1531.2,454.4,1528.5,454.5z"/>
				<path class="st17" d="M1557.8,453.7c0.9,0,1.8,0,2.7,0C1559.6,453.7,1558.7,453.7,1557.8,453.7z"/>
				<path class="st17" d="M1517.2,455c2.5-0.1,5-0.3,7.6-0.4C1522.2,454.7,1519.7,454.9,1517.2,455z"/>
				<path class="st17" d="M1494.5,456.4c2.5-0.2,5.1-0.4,7.6-0.5C1499.6,456.1,1497,456.3,1494.5,456.4z"/>
				<path class="st17" d="M1447.2,461.1c7.3-0.9,14.7-1.7,22.1-2.5C1461.9,459.4,1454.6,460.2,1447.2,461.1z"/>
				<path class="st17" d="M1482.9,457.4c2.7-0.2,5.5-0.5,8.2-0.7C1488.3,456.9,1485.6,457.2,1482.9,457.4z"/>
				<path class="st17" d="M1470.2,458.6c3.3-0.3,6.6-0.6,10-0.9C1476.8,457.9,1473.5,458.2,1470.2,458.6z"/>
				<path class="st8" d="M1480.2,457.6c0.9-0.1,1.8-0.2,2.7-0.2C1482,457.5,1481.1,457.5,1480.2,457.6z"/>
				<path class="st8" d="M1445.8,461.3c0.5-0.1,1-0.1,1.5-0.2C1446.8,461.2,1446.3,461.3,1445.8,461.3z"/>
				<path class="st8" d="M1469.4,458.6c0.3,0,0.6-0.1,0.8-0.1C1469.9,458.6,1469.6,458.6,1469.4,458.6z"/>
				<path class="st8" d="M1524.7,454.6c1.3-0.1,2.5-0.1,3.8-0.2C1527.2,454.5,1526,454.6,1524.7,454.6z"/>
				<path class="st8" d="M1536.7,454.2c1.1,0,2.1-0.1,3.2-0.1C1538.8,454.1,1537.7,454.1,1536.7,454.2z"/>
				<path class="st8" d="M1513.3,455.2c1.3-0.1,2.6-0.1,3.9-0.2C1515.9,455.1,1514.6,455.1,1513.3,455.2z"/>
				<path class="st8" d="M1502.1,455.9c1.2-0.1,2.5-0.2,3.7-0.2C1504.6,455.7,1503.4,455.8,1502.1,455.9z"/>
				<path class="st8" d="M1567.5,453.7c1.1,0,2.3,0,3.4,0.1C1569.8,453.8,1568.7,453.7,1567.5,453.7z"/>
				<path class="st8" d="M1491.1,456.7c1.1-0.1,2.3-0.2,3.4-0.3C1493.4,456.5,1492.2,456.6,1491.1,456.7z"/>
				<path class="st8" d="M1560.5,453.7c1.3,0,2.6,0,3.8,0C1563.1,453.7,1561.8,453.7,1560.5,453.7z"/>
				<path class="st8" d="M1551.2,453.8c2.2,0,4.4-0.1,6.5-0.1C1555.6,453.7,1553.4,453.7,1551.2,453.8z"/>
				<path class="st8" d="M1895.4,2318.5h-737.5c-14-310.2-15.2-574.1-9.2-795.5c1.1-41.9,2.5-82.3,4.1-121.1
					c3.8-90.8,8.7-173.5,14.4-248.2c0.3-4.3,0.7-8.5,1-12.7c4.5-57.5,9.4-110.3,14.5-158.4c2.7-24.9,5.4-48.6,8.1-71.1
					c27.5-226.4,57.2-329.1,57.2-329.1c4.4-1.6,8.9-3.1,13.4-4.7c0.7-0.2,1.3-0.5,2-0.7c4.3-1.5,8.6-2.9,13-4.2
					c0.8-0.3,1.6-0.5,2.4-0.8c4.4-1.4,8.8-2.7,13.2-4.1c0.6-0.2,1.2-0.4,1.8-0.5c9.4-2.8,18.9-5.4,28.5-7.9c0.6-0.2,1.2-0.3,1.8-0.5
					c4.7-1.2,9.4-2.4,14.1-3.5c0.6-0.2,1.3-0.3,1.9-0.5c4.8-1.2,9.7-2.3,14.6-3.4c0.3-0.1,0.6-0.1,0.9-0.2c1.9-0.4,3.9-0.9,5.8-1.3
					c1-0.2,1.9-0.4,2.9-0.6c0.4-0.1,0.8-0.2,1.2-0.2c0.3-0.1,0.7-0.1,1-0.2c1.5-0.3,3.1-0.6,4.6-1c0.7-0.1,1.4-0.3,2.2-0.4
					c0.1,0,0.2,0,0.4-0.1c0.2,0,0.4-0.1,0.6-0.1c2.1-0.4,4.3-0.8,6.4-1.2c0.3-0.1,0.7-0.1,1-0.2c0.2,0,0.3-0.1,0.5-0.1
					c0.9-0.2,1.8-0.3,2.6-0.5c1.4-0.3,2.9-0.5,4.3-0.8c0.6-0.1,1.2-0.2,1.8-0.3c0.5-0.1,0.9-0.2,1.4-0.3c0.4-0.1,0.8-0.1,1.2-0.2
					c0.8-0.1,1.5-0.3,2.3-0.4c0.7-0.1,1.4-0.2,2-0.3c0.6-0.1,1.2-0.2,1.7-0.3c0.8-0.1,1.7-0.3,2.6-0.4c0.8-0.1,1.7-0.3,2.5-0.4
					c2-0.3,4.1-0.7,6.1-1c1.9-0.3,3.8-0.6,5.7-0.9c0.1,0,0.3,0,0.4-0.1c1.4-0.2,2.9-0.4,4.3-0.6c1.1-0.2,2.2-0.3,3.4-0.5
					c0.1,0,0.1,0,0.2,0c0,0,0,0,0,0c1.7-0.2,3.3-0.5,5-0.7c0.9-0.1,1.8-0.3,2.7-0.4c0.7-0.1,1.3-0.2,2-0.3c1.9-0.3,3.9-0.5,5.8-0.8
					c0.4,0,0.7-0.1,1.1-0.1c1.5-0.2,2.9-0.4,4.4-0.5c0.2,0,0.5-0.1,0.7-0.1c0.2,0,0.5-0.1,0.7-0.1c2-0.2,3.9-0.5,5.9-0.7
					c0.7-0.1,1.3-0.2,2-0.2c0.8-0.1,1.5-0.2,2.3-0.3c1.4-0.2,2.8-0.3,4.2-0.4c2.6-0.3,5.2-0.5,7.8-0.8c0.2,0,0.5,0,0.7-0.1
					c3.3-0.3,6.6-0.6,10-0.9c0.9-0.1,1.8-0.1,2.7-0.2c2.7-0.2,5.5-0.4,8.2-0.6c1.2-0.1,2.3-0.2,3.4-0.3c2.5-0.2,5.1-0.4,7.6-0.5
					c1.2-0.1,2.5-0.2,3.7-0.2c2.5-0.1,5-0.3,7.5-0.4c1.3-0.1,2.6-0.1,3.9-0.2c2.5-0.1,5-0.3,7.6-0.4c1.2,0,2.5-0.1,3.7-0.2
					c2.7-0.1,5.4-0.2,8.2-0.3c1.1,0,2.1-0.1,3.2-0.1c3.8-0.1,7.6-0.2,11.4-0.3c1.9,0,3.7-0.1,5.6-0.1c0.2,0,0.4,0,0.6,0
					c0.4,0,0.8,0,1.2,0c0,0,0.1,0,0.1,0h1.8c1.2,0,2.4,0,3.6,0c0.1,0,0.2,0,0.2,0c0.5,0,1.1,0,1.6,0c0.1,0,0.2,0,0.4,0
					c1.4,0,2.8,0,4.2,0.1c0.1,0,0.3,0,0.4,0c1.1,0,2.2,0,3.4,0.1c1.1,0,2.2,0.1,3.2,0.1c0.6,0,1.2,0,1.7,0.1c0.6,0,1.2,0,1.7,0.1
					c1,0,2.1,0.1,3.1,0.1c0.3,0,0.6,0,0.9,0c0.6,0,1.2,0,1.9,0.1c0.2,0,0.5,0,0.7,0c0.8,0,1.5,0.1,2.3,0.1c0.1,0,0.1,0,0.2,0
					c0.2,0,0.4,0,0.6,0c0,0,0.1,0,0.2,0c1.1,0.1,2.2,0.1,3.3,0.2c0.1,0,0.1,0,0.2,0c0.9,0.1,1.9,0.1,2.8,0.2
					c1.2,0.1,2.3,0.2,3.5,0.3c1.5,0.1,3,0.2,4.5,0.4c0.9,0.1,1.7,0.2,2.6,0.2c1.2,0.1,2.4,0.2,3.5,0.3c0.8,0.1,1.6,0.2,2.5,0.3
					c1,0.1,2.1,0.2,3.2,0.3c0.3,0,0.6,0.1,0.8,0.1c0.9,0.1,1.7,0.2,2.6,0.3c1.3,0.2,2.7,0.3,4,0.5c0.8,0.1,1.7,0.2,2.5,0.3
					c1.4,0.2,2.8,0.4,4.1,0.6c0.8,0.1,1.5,0.2,2.3,0.3c1.4,0.2,2.9,0.4,4.4,0.6c0.6,0.1,1.3,0.2,1.9,0.3c0.7,0.1,1.4,0.2,2.1,0.3
					c1.4,0.2,2.9,0.4,4.3,0.7c1.6,0.3,3.2,0.5,4.9,0.8c0.4,0.1,0.7,0.1,1.1,0.2c2.2,0.4,4.4,0.8,6.6,1.2c0.3,0,0.6,0.1,0.9,0.2
					c2.2,0.4,4.4,0.8,6.6,1.3c0.7,0.1,1.3,0.3,1.9,0.4c1.8,0.4,3.7,0.8,5.5,1.2c0.8,0.2,1.6,0.4,2.5,0.5c1.7,0.4,3.4,0.7,5,1.1
					c0.9,0.2,1.8,0.4,2.7,0.6c1.6,0.4,3.2,0.8,4.8,1.1c1,0.2,1.9,0.5,2.9,0.7c1.6,0.4,3.2,0.8,4.7,1.2c1,0.3,1.9,0.5,2.9,0.7
					c1.7,0.4,3.4,0.9,5.1,1.3c0.8,0.2,1.7,0.4,2.5,0.7c2.5,0.7,4.9,1.3,7.4,2c0.9,0.3,1.9,0.5,2.8,0.8c1.6,0.5,3.1,0.9,4.7,1.4
					c1.1,0.3,2.3,0.7,3.4,1c1.4,0.4,2.8,0.8,4.1,1.3c1.2,0.4,2.3,0.7,3.5,1.1c1.3,0.4,2.7,0.9,4,1.3c1.2,0.4,2.3,0.8,3.5,1.2
					c1.3,0.4,2.7,0.9,4,1.3c1.2,0.4,2.3,0.8,3.5,1.2c1.4,0.5,2.7,0.9,4.1,1.4c1.1,0.4,2.3,0.8,3.4,1.2c1.4,0.5,2.9,1,4.3,1.5
					c1.1,0.4,2.1,0.8,3.2,1.1c1.6,0.6,3.2,1.2,4.8,1.8c0.9,0.3,1.8,0.7,2.6,1c2.5,0.9,5,1.9,7.5,2.9c0.4,1.2,0.7,2.5,1.1,3.7
					c8.2,29.4,16.2,78,23.8,140.7c4.6,37.3,9,79.7,13.3,125.9c6.5,69.3,12.7,147.3,18.6,230.5c2,28.2,4,56.9,5.9,86.1
					c0.5,7.5,1,14.9,1.5,22.5c2.9,44.4,5.6,89.7,8.3,135.5c0.8,13.6,1.6,27.2,2.4,40.8c0.8,14.5,1.7,29.1,2.5,43.7
					c2.2,40.3,4.4,80.7,6.5,120.9c6.8,131.4,12.8,260.5,17.8,376.3c0.5,12.1,1,24.1,1.5,35.9
					C1888.1,2115.8,1893.3,2259.1,1895.4,2318.5z"/>
				<path class="st7" d="M1885.6,1520.3c-253.6,26.3-509.5,26.3-763.1,0c2.2-40.3,4.4-80.6,6.7-120.9c249.2,25.8,500.6,25.8,749.8,0
					C1881.1,1439.7,1883.3,1480,1885.6,1520.3z"/>
				<path class="st7" d="M1835.7,1155.7c-0.3-3.3-0.5-6.5-0.6-9.8c-12.9,2.5-26,4-39.2,4.3c-49.1,1.4-97.3-12.8-137.4-39.2
					c-22.3-14.7-41.9-33.1-57.3-54.2c-4.6-6.3-16-0.8-11.3,5.6c29,39.9,71,70.4,119.5,86.8c40.4,13.7,84.5,16.5,126.6,8.7
					C1835.8,1157.2,1835.7,1156.5,1835.7,1155.7z"/>
				<path class="st18" d="M1288.5,952.8c-9.8,21.3-36.2,31.1-58.9,21.9c-22.7-9.2-33.1-34-23.3-55.2c0.2-0.5,0.5-1,0.8-1.6
					l-33.6-13.6c-0.3,0.5-0.5,1-0.8,1.6c-17.8,38.6,1.2,83.7,42.4,100.4c41.2,16.7,89.2-1.1,107-39.8c0.2-0.5,0.5-1.1,0.7-1.6
					l-33.6-13.6C1289,951.7,1288.7,952.3,1288.5,952.8z"/>
				<path class="st18" d="M1759.3,2084c9.5,21.4-1.3,46-24.1,55c-22.8,8.9-49.1-1.2-58.6-22.6c-0.2-0.5-0.4-1.1-0.7-1.6l-33.8,13.2
					c0.2,0.5,0.4,1.1,0.7,1.6c17.3,38.8,65.1,57.2,106.5,41c41.4-16.2,61-61,43.7-99.9c-0.2-0.5-0.5-1-0.7-1.6l-33.8,13.2
					C1758.9,2082.9,1759.1,2083.4,1759.3,2084z"/>
				<path class="st13" d="M1942.6,1132.2c-12.1,20.2-39.4,27.5-61,16.2c-21.6-11.3-29.3-37-17.2-57.2c0.3-0.5,0.6-1,0.9-1.5
					l-31.9-16.8c-0.3,0.5-0.6,1-0.9,1.5c-21.9,36.7-7.9,83.3,31.3,103.9c39.2,20.5,88.9,7.4,110.8-29.4c0.3-0.5,0.6-1,0.9-1.5
					l-31.9-16.8C1943.2,1131.2,1942.9,1131.7,1942.6,1132.2z"/>
				<path class="st18" d="M1507.9,859.6c20.8-12.5,48.6-6.8,61.9,12.7c13.3,19.5,7.3,45.5-13.5,58.1c-0.5,0.3-1,0.6-1.6,0.9
					l19.8,28.9c0.5-0.3,1-0.6,1.6-0.9c37.8-22.7,48.8-70,24.6-105.5c-24.2-35.4-74.7-45.8-112.5-23c-0.5,0.3-1,0.6-1.5,1l19.8,28.9
					C1506.9,860.3,1507.4,859.9,1507.9,859.6z"/>
				<path class="st18" d="M1335.4,656.6c19.4,14.4,22.7,40.9,7.3,59c-15.3,18.2-43.6,21.2-62.9,6.9c-0.5-0.4-0.9-0.7-1.4-1.1
					l-22.7,26.9c0.5,0.4,0.9,0.7,1.4,1.1c35.2,26.1,86.5,20.5,114.3-12.5c27.9-33,21.9-81.1-13.3-107.2c-0.5-0.4-1-0.7-1.5-1
					l-22.7,26.9C1334.4,655.9,1334.9,656.3,1335.4,656.6z"/>
				<path class="st18" d="M1701.3,603.5c14.4,18.8,9.8,45.1-10.3,58.6c-20.1,13.5-48.1,9.1-62.5-9.7c-0.4-0.5-0.7-0.9-1-1.4
					l-29.7,20c0.3,0.5,0.7,1,1,1.4c26.1,34.2,77.1,42.1,113.6,17.6c36.5-24.5,44.9-72.3,18.8-106.5c-0.4-0.5-0.7-0.9-1.1-1.4
					l-29.7,20C1700.6,602.6,1701,603.1,1701.3,603.5z"/>
				<path class="st18" d="M1528.7,1219.5c39.5,18.7,87.8,4.1,108.4-32.3l-32.7-15.4c-11.6,19.6-37.8,27.3-59.3,17.1
					c-21.5-10.2-30.5-34.5-20.7-54.9l-32.7-15.4C1472.9,1155.9,1489.1,1200.9,1528.7,1219.5z"/>
				<path class="st18" d="M1490.8,1908c15.8,38.8,61.8,58.6,103.3,44.7l-13-32.1c-22.6,7.1-47.5-3.8-56.1-24.9
					c-8.6-21.1,2.3-44.8,24.2-53.6l-13-32.1C1495.4,1825.7,1475.1,1869.2,1490.8,1908z"/>
				<path class="st18" d="M1411.8,2180.5l-12.4,32.3c-22.8-6.7-47.4,4.6-55.6,25.8c-8.2,21.3,3.1,44.7,25.3,53.2l-10.3,26.7h-14.3
					c-32.9-18.3-48.5-56.6-35.1-91.5C1324.3,2187.9,1370,2167.3,1411.8,2180.5z"/>
				<path class="st18" d="M1741,1667.4c35.7-24.6,43.8-71.5,18.5-105.3l-29.5,20.3c13.3,18.6,8.8,44-10.7,57.3
					c-19.4,13.4-46.6,9.8-61.5-7.7l-29.5,20.3C1655.2,1685.2,1705.3,1692,1741,1667.4z"/>
				<path class="st18" d="M1802.5,1365.2c43.7,6.8,85.1-20.5,93.3-61.1l-36.1-5.6c-4.9,21.9-27.4,36.6-51.2,32.9
					c-23.8-3.7-40.1-24.4-37.1-46.6l-36.1-5.6C1729.1,1320,1758.9,1358.4,1802.5,1365.2z"/>
				<path class="st18" d="M1837.3,1934.7c42.6,11.3,87-11.6,99.9-51.1l-35.2-9.3c-7.4,21.3-31.6,33.5-54.8,27.4
					c-23.2-6.1-36.9-28.4-31.4-50.2l-35.2-9.3C1769.6,1882.1,1794.7,1923.4,1837.3,1934.7z"/>
				<path class="st18" d="M1342.7,1681.5c23-35.5,11.5-81.7-25.6-104l-19,29.3c19.9,12.4,25.9,37.5,13.4,56.8
					c-12.5,19.3-39.1,25.7-60,14.9l-19,29.3C1270.6,1728.5,1319.7,1717,1342.7,1681.5z"/>
				<path class="st18" d="M1307,1232.7c-44.2,2.2-78.4,37.3-77,78.5l36.5-1.8c-0.3-22.4,18.4-41.3,42.4-42.5
					c24.1-1.2,44.7,15.7,47,38l36.5-1.8C1389.1,1262,1351.2,1230.5,1307,1232.7z"/>
				<path class="st18" d="M1346.5,2000l-37.2,0.2c3.6-13.6-0.2-28.6-11.4-39.4c-16.8-16.2-44.3-16.9-62-1.9l-25.6-24.5
					c32.2-28.2,82.8-27.3,113.8,2.4C1342.1,1954.2,1349.6,1977.7,1346.5,2000z"/>
				<path class="st7" d="M1416.6,1070.2c-36.1,49.5-97.9,81.1-161.6,84.5c-63.8,3.4-124.8-22.8-166.4-67.8
					c-23.3-25.2-39.7-55.5-46.8-88.2c-1.6-7.6-14.1-4.9-12.5,2.7c13.4,61.5,58.6,115.6,118.1,144c60.9,29,132.7,27.9,193.9,0.2
					c34.5-15.6,64.5-39.3,86.1-69C1432.1,1070.2,1421.2,1063.8,1416.6,1070.2z"/>
				<g>
					<path class="st7" d="M1799.5,332c-17.1-22.5-42.6-41.7-48.2-70.6c-3-15.5-0.4-31.4-1.7-47.1c-1.1-13.4-5.2-25.6-13.3-36.5
						c-15.5-20.9-40.5-33.1-63.3-44.9c-28-14.5-57.4-28.6-88.9-33.7c-0.2,0-0.4-0.1-0.7-0.1c-2.1-0.3-4.3-0.6-6.4-0.9
						c0.9-2.4,1.8-4.8,2.5-7.2c3.2-10,5.1-20.3,4.7-30.9c-0.7-20.5-10.2-41-29.6-50.8c-41.4-20.8-77.7,26.1-86.6,60.9
						c-0.9,3.5-1.6,7.1-2.1,10.6c-1.8,12.1-1.5,24.3,1,36.2c-0.5,0-1,0.1-1.5,0.1c-5.4,0.3-10.9,0.2-16.5-0.3
						c-15.3-1.3-30.2-2.8-45.3,0c-27.6,5.2-51.7,21-73,38.1c-21.2,17.1-42.6,35.5-60.1,56.3c-8.5,10.1-15.9,21-21,33
						c-5.5,12.9-7.2,26.3-7.4,40.2c-0.2,14.6,0.8,30.3-6.3,43.7c-6.6,12.5-18.1,21.5-26.1,33c-6.6,9.5-10.7,21.8-8.3,33.3
						c2.4,11.4,12,18.9,23.3,21.1c11.6,2.3,24,0.2,35.3,3.9c11.4,3.8,16.7,15,21.9,24.7c5.5,10.3,11.7,20.2,22.2,26.2
						c10.7,6.1,23.5,7.6,35.6,6.8c25.5-1.5,49.5-12.7,75.2-12c6.6,0.2,13,1.3,18.9,3.7c3.4,1.4,6.5,3.2,9.4,5.6
						c-0.4,0.3-0.8,0.6-1.2,0.9c-4.9,3.7,1.6,10.5,6.5,6.9c14.3-10.6,33.1-14.2,50.5-10.6c5.4,2.4,10.9,4.3,16.5,5.9
						c0.8,0.4,1.6,0.9,2.4,1.4c1.5,0.9,3,0.9,4.2,0.4c16.9,3.9,34.5,4.4,51.9,1.6c4.8-0.8,9.5-1.9,14.1-3.2
						c8.8-2.5,17.3-5.9,25.3-10.2c11.9-6.4,24.6-18.3,39-17.8c12.1,0.4,20.1,12.1,30.7,16.5c10.1,4.1,20.4,0.3,26.1-8.5
						c5.5-8.5,6.6-19.9,14.2-27c8.1-7.7,20.9-6.8,31.3-6.3c11.5,0.6,23.6,1.7,34.7-1.8c10.9-3.4,19.3-11.2,24-21.3
						C1824.9,377.1,1814.7,351.9,1799.5,332z"/>
					<path class="st9" d="M1442.4,349.9l-14,197c14.2,38.1,174,33.2,171-4.7c-2.3-29-12.9-70.3-19-100.6c-1.2-5.9-2.3-11.2-3.3-16.1
						c-2.6-12.5-4.7-21.1-5.7-23.1L1442.4,349.9z"/>
					<g>
						<path class="st9" d="M1376,291c2.9-23.8,12.6-37.1,15.7-44.4c50.6-116.3,244-78.1,247.6,44.9c1.7,0.2,3.4,0.4,5.1,0.8
							c19.1,3.8,37.2,16.5,43.7,34.3c7.3,20.3-1.8,42.1-20.3,54.2c-21,13.7-46.5,11-69.7,4.8c-20.4,18.7-47,31.5-76.5,34.6
							c-47.5,5-99.1-16.5-126.4-52.3c-26.8,8.7-64.3-3.5-70.3-30.6C1318.1,307.3,1348.1,288.2,1376,291z"/>
						<path class="st7" d="M1492.9,316.9c4.6-13.4,6.2-27.1,3.8-41c-1.7-10.1,14.8-14.5,16.5-4.3c2.8,16.8,1.8,33.4-3.8,49.6
							C1506.1,330.9,1489.5,326.7,1492.9,316.9z"/>
						<path class="st7" d="M1343.9,326.9c4.6-12.7,22.7-17.6,34.1-10.1c4.7,3.1-0.2,10.1-4.9,7c-6.3-4.2-16.5-2.2-20.1,4.5
							c-4.5,8.3,5.1,18.1,14.2,17c5.7-0.7,7.4,7.5,1.7,8.2C1353.7,355.4,1338.7,341.3,1343.9,326.9z"/>
						<path class="st7" d="M1632.5,351.2c7.2,2.9,16.9,0.4,19.9-7c3.2-8-5.4-16.6-14-15.4c-5.7,0.9-7.4-7.4-1.7-8.2
							c14.1-2.1,27.8,10.3,24.9,23.7c-2.8,13-19.4,19.8-32,14.8C1624.3,357.1,1627.2,349.1,1632.5,351.2z"/>
						<path class="st7" d="M1481.3,244.9c-21.9-4.9-45.4-0.1-63.5,13c-7,5,0.8,15.8,7.7,10.8c15.5-11.2,34.9-15,53.6-10.8
							C1487.6,259.8,1489.7,246.8,1481.3,244.9z"/>
						<path class="st7" d="M1596.1,254.1c-19.2-15.6-43.6-23.4-68.5-22.3c-8.7,0.4-7.3,13.5,1.3,13.1c21.3-1,42.3,6,58.7,19.3
							C1594.2,269.7,1602.8,259.5,1596.1,254.1z"/>
						<path class="st7" d="M1540.5,353.9c-8,14.3-25.7,19-39.9,10.2c-5.2-3.3-10.3,4.7-5.1,8c18.3,11.4,42.7,5.5,53.1-13.2
							C1551.6,353.6,1543.5,348.6,1540.5,353.9z"/>
						<path class="st7" d="M1455.9,277.3c-13.8,0-14.6,21-0.6,21C1469.1,298.3,1469.9,277.3,1455.9,277.3z"/>
						<path class="st7" d="M1575.2,289.9c-2.2-9.3-10.4-16.8-20.5-17.3c-10.1-0.4-18.8,6.4-21.9,15.4c-2.3,6.7,8.4,9.8,10.8,3.1
							c3.6-10.4,18.1-9.4,20.7,1.2C1565.9,299.2,1576.8,296.8,1575.2,289.9z"/>
					</g>
					<path class="st7" d="M1505,418.6c-23.3,3-46.9-2.4-66.4-15.1c-5.1-3.4-10.2,4.3-5.1,7.7c21.7,14.2,47.8,19.9,73.6,16.6
						C1513.3,427,1511.1,417.9,1505,418.6z"/>
					<path class="st7" d="M1662.3,242.8c-1.5-18.5-10.5-35.4-23.8-48.5c-30.7-30.3-76.4-37.4-118-40.4c-24.2-1.8-49-0.7-71.3,9.3
						c-2.9,1.3-3.1,4.1-1.9,6.2c-8.8,0.6-17.5,3.9-25.4,7.7c-12.1,5.8-23.8,13.2-32.9,23.1c-21.2,23-21.8,54-21.1,83.2
						c0.1,2.7,2.1,4.3,4.2,4.6c0.7,1.6,2.3,2.7,4,3c2.1,0.4,4.4-0.5,5-3.2c2.6-11.1,7.3-21.5,14.1-30.8c7.2-9.8,16.7-17.2,26.6-24.2
						c13.1-9.3,27.5-19.8,34.6-33.9c2.3,2.8,5.1,5.4,8.1,7.4c14.5,10,33.8,8,50.6,7.5c34.6-1.1,71.6,6.2,97.3,30.4
						c12.9,12.2,22.1,27.6,25.2,45c0.5,2.9,4.2,4.4,6.8,3.2c0.4-0.2,0.8-0.5,1.2-0.8C1658.1,278.5,1663.7,260.6,1662.3,242.8z"/>
					<path class="st17" d="M1398.5,385.4c-2.2-4.6-5.7-8.1-9.8-10.3c1.3-1.8,2.1-4,2.3-6.1c0.3-3.8-1.1-7.6-4.5-10
						c-2.9-2.1-6.5-2.3-9.5-1.3c-0.6,0-1.2,0-1.8,0.2c-5.4,1.8-9,6.7-8.6,11.9c0.1,1.5,0.6,3,1.4,4.4c0,0.1,0.1,0.1,0.1,0.2
						c-1.3,0.6-2.6,1.3-3.8,2.2c-12.6,8.8-12.9,27.5-1,37c11.1,8.9,29.9,7.4,36.6-5.9C1403.8,399.9,1402.6,391.9,1398.5,385.4z
						 M1390.2,398.7c-0.9,8.5-11,10.7-17.7,6.8c-6.8-4-8.2-13.8-2-18.9c3.1-2.6,6.7-3.2,9.9-2.3
						C1383,385.8,1391.3,388.3,1390.2,398.7z"/>
					<path class="st17" d="M1645.4,391.1c-0.7-0.5-1.4-0.9-2.1-1.3c-0.5-0.3-1.1-0.6-1.7-0.8c0.1-0.1,0.1-0.1,0.1-0.2
						c3.8-6.6-0.2-14.1-7.2-16.3c-0.6-0.2-1.2-0.3-1.8-0.2c-3-1-6.6-0.8-9.5,1.3c-5.4,3.8-5.9,11.2-2.3,16.2
						c-0.2,0.1-0.3,0.2-0.5,0.3c-3.9,2.2-7.3,5.6-9.3,10c-4.1,6.6-5.3,14.6-1.4,22.3c6.8,13.3,25.5,14.8,36.6,5.9
						C1658.3,418.6,1658,399.9,1645.4,391.1z M1637.2,420.2c-6.6,3.9-16.8,1.7-17.7-6.8c-1.1-10.4,7.2-12.9,9.8-14.4
						c3.2-0.9,6.8-0.3,9.9,2.3C1645.4,406.4,1644,416.2,1637.2,420.2z"/>
					<path class="st17" d="M1583,96.2c-0.6-1.1-1.1-2.2-1.7-3.4c-0.4-0.8-1-1.4-1.8-1.9c-1.4-0.8-3.2-0.8-4.7-0.1
						c-21.9,10.6-45.7,16.6-70,17.7c18.5-7.5,35.8-18,44.4-36.5c1.4-3.1,0.1-7.1-3.9-7.2c-26.1-0.6-50.6,14-62.7,36.2
						c-4.2-7.7-9.8-14.6-16.6-20.3c-9.4-8-20.9-13.6-33.3-15.8c-3.1-0.6-7.5,1.9-6.1,5.6c7.1,18.9,20.6,34.9,38.5,44.8
						c0,0.6,0.1,1.2,0.3,1.8c0.6,1.6,2,2.9,4.1,3.1c20,1.7,40.1,1.2,60-1.5c17.4-2.4,51-16,51.3-16.2c1.5-0.5,2.3-2,2.5-3.5
						C1583.6,98.1,1583.4,97.1,1583,96.2z"/>
				</g>
				<path class="st9" d="M1656,548.2c1,25-62.7,47.6-142.3,50.3c-79.6,2.8-144.9-15.2-145.8-40.3c-0.1-3.5,1-6.9,3.2-10.2
					c56.1-11.3,116-18,180.1-19.2c32.9-0.6,66.1,2.1,99.4,7.9C1654,540.3,1655.8,544.1,1656,548.2z"/>
				<path class="st17" d="M1248,582.2c0,0-29.8,102.7-57.2,329.1c-2.7,22.5-5.4,46.2-8.1,71.1c-5.1,48.1-10,100.9-14.5,158.4
					c-0.3,4.2-0.7,8.5-1,12.7c-5.7,74.8-10.6,157.4-14.4,248.2c-1.6,38.9-3,79.2-4.1,121.1c-6,221.4-4.7,485.4,9.2,795.5H555.6
					c1-163.5,11.4-668,83.2-976.2C697,1092.4,864.4,719.8,1248,582.2z"/>
				<path class="st7" d="M978.5,775.7c-29.7,82.1-50.4,166.9-61.9,253c-1,7.7,11.8,8,12.8,0.4c11.4-85,32-168.8,61.3-249.9
					C993.4,771.8,981.2,768.4,978.5,775.7z"/>
				<path class="st7" d="M892.1,1134.8c-23.6,134.9-40.3,270.9-49.8,407.3c-2.7,38.5-4.8,77-6.3,115.6c-0.3,7.7,12.5,8.1,12.8,0.4
					c5.4-135.3,17.8-270.4,37.2-404.6c5.6-38.5,11.7-76.9,18.4-115.2C905.7,1130.7,893.4,1127.2,892.1,1134.8z"/>
				<path class="st17" d="M2119.6,1878.7l91.9,439.8h-316.2c-2.1-59.3-7.2-202.6-14.9-383.5c-0.5-11.8-1-23.8-1.5-35.9
					c-5-115.7-11-244.9-17.8-376.3c-2.1-40.2-4.2-80.6-6.5-120.9c-0.8-14.6-1.6-29.1-2.5-43.7c-0.8-13.6-1.6-27.3-2.4-40.8
					c-2.7-45.8-5.5-91.1-8.3-135.5c-0.5-7.5-1-15-1.5-22.5c-1.9-29.2-3.9-57.9-5.9-86.1c-5.9-83.2-12.1-161.2-18.6-230.5
					c-4.3-46.3-8.8-88.6-13.3-125.9c-7.7-62.7-15.6-111.3-23.8-140.7c-0.3-1.3-0.7-2.5-1.1-3.7
					C2410.7,819.3,2982.2,2019.4,2119.6,1878.7z"/>
				<g>
					<path class="st9" d="M2048.4,1128.5c-11.1-31-22.2-62-33.6-92.9c-15.7-42.7-32-85.2-50.2-127c-9.1-20.8-18.5-41.5-28.6-61.9
						c-5.1-10.3-10.4-20.5-15.8-30.7c-4.3-8-8.6-16.8-16.7-22c-6-3.9-13.8-5.3-20.5-3.1c-6.3-17.7-14-35.1-23-51.8
						c-7-12.9-16.3-35.7-34.6-37.1c-8.6-0.7-16.2,4.1-20.8,10.6c-1,1.4-1.8,2.9-2.4,4.4c-2.8,6.3-3,13.6-2.6,20.3
						c0.9,17.2,3.9,34.4,8,51.2c-15.2-15.5-32.6-29.1-51.6-39.8c-8.6-4.8-18.7-8.2-28.5-4.4c-8.8,3.4-13.6,11.4-11.7,20.3
						c2.3,10.3,9.8,20.4,15.2,29.5c6.1,10.5,12.5,20.8,19.2,31c13.6,20.6,28.4,40.5,44.1,59.6c-20.7,5.9-37.1,21.3-46.9,39.2
						c-10,18.2-13.8,38.4-16.8,58.6c-14.5-5.6-31.6-6.8-41.2,7.2c-5.8,8.5-3.6,18.5,1.2,27c6.2,10.9,14.8,20.9,22.5,30.9
						c15.6,20.2,31.8,40,49,59.1c13.9,15.4,28.6,30.2,45.2,43.1h0c3.3,2.6,6.7,5.1,10.1,7.5c0.9,0.6,2.2,1.7,3.7,3.2
						c4.7,4.4,12,12.2,20.5,21.7c15.6,17.4,35.1,40.2,49,56.9c0,0,0,0,0,0c6.6,7.8,11.9,14.3,15,18.2
						c25.7-11.8,110.2-76,150.5-107.5C2053.5,1142.6,2050.9,1135.5,2048.4,1128.5z M1793.4,1021c-8.6-4.5-16.8-9.5-24.8-14.8
						c6.6-8.3,8.5-19.9,13.5-29.3c3.7-6.9,9.8-11.7,18.4-10.7c8.4,0.9,15.2,6.2,19.3,12.9c4.8,7.8,6.6,17.2,7.3,26.2
						c0.6,7.5,0.2,17-7,21.9C1811.9,1032.6,1800.6,1024.8,1793.4,1021z"/>
					<path class="st7" d="M1770,1042.2c-5.6,7.1-14.4,10.4-23.7,9.7c-7.2-0.5-7.2,10.1,0,10.6c13.4,0.9,25.5-4.9,33.4-14.9
						C1784,1042.1,1774.2,1036.7,1770,1042.2z"/>
					<path class="st7" d="M1953.9,969.3c-11.7-8.3-25-14.3-39-17.8c0.5-0.8,0.8-1.8,0.7-3c-2.1-25.8-13.2-49.3-24.7-72.5
						c-9.9-20.1-28.1-48-13.1-69.6c4-5.7-5.8-11.1-9.7-5.4c-15.3,22-2.8,48,7.5,69.3c12.2,25.1,26.3,50.3,28.6,78.2
						c0,0.3,0.1,0.6,0.2,0.9c-22.3-3.5-45.6-0.7-66.3,8.7c-7.5,3.5-2.9,15,4.7,11.5c32.9-15.1,73.4-11.8,102.6,9.1
						C1952.3,983.6,1960.7,974.1,1953.9,969.3z"/>
					<path class="st7" d="M1886.3,1113.7c-2.6,14-10,26.8-21.4,36.3c-6.3,5.2,1.3,15.3,7.7,10c14.2-11.7,23.5-26.9,26.7-44.4
						C1900.7,1107.7,1887.7,1105.9,1886.3,1113.7z"/>
					<path class="st7" d="M1980.2,1138c-18.6,5.6-39.9,0-52.5-14.1c-5.4-6-16.1,1.1-10.7,7.2c16.6,18.4,43.3,25.8,67.8,18.4
						C1992.9,1147,1988.2,1135.5,1980.2,1138z"/>
					<path class="st7" d="M1827.2,838.6c-4.3-6.8-15,0.4-10.7,7.2c15,23.6,24.8,49.8,29,77c1.2,7.8,14.3,6.5,13.1-1.4
						C1854,892.1,1843.4,864.1,1827.2,838.6z"/>
					<path class="st7" d="M1804.5,923.3c-3.1-7.4-15.4-3-12.3,4.4c3.1,7.4,1.3,15-4.5,20.8c-5.8,5.8,4.4,13.5,10.2,7.8
						C1806.8,947.6,1809.2,934.6,1804.5,923.3z"/>
					<path class="st7" d="M1760.3,1006.2c-7.1,2.6-15,2.2-21.5-1.8c-7-4.3-15.4,5.1-8.3,9.5c10.4,6.5,22.8,8.1,34.5,3.8
						C1772.9,1014.8,1768.2,1003.3,1760.3,1006.2z"/>
				</g>
				<path class="st17" d="M1890.4,1238.8c0,0,99.8-23.3,158-110.4c58.2-87.1,91.7,83.4,91.7,83.4l-247.9,138.5L1890.4,1238.8z"/>
				<path class="st7" d="M2087.8,1804.7c-58.2-49.4-105.4-109.3-139.8-175.4c-34.5-66.4-56-139-62.2-212.6
					c-3.5-41.2-2.3-82.7,3.8-123.7c1.1-7.6-11.7-7.9-12.8-0.4c-11,74.1-6,150.1,13.4,222.6c19.4,72.5,52.9,141.6,98.8,202.7
					c26,34.6,55.9,66.4,89.3,94.8C2084.5,1818,2093.9,1809.9,2087.8,1804.7z"/>
				<path class="st7" d="M2450.3,1375.8c-31.2-73.8-88.7-136.6-160.9-177.9c-0.1-0.1-0.3-0.2-0.4-0.3c-0.7-0.5-1.3-0.8-2-1.1
					c-0.7-0.4-1.4-0.8-2.2-1.2c-21.1-11.7-43.4-21.4-66.5-29.1c-7.7-2.5-13.2,8.3-5.4,10.9c24.3,8,47.5,18.4,69.4,30.8
					c61.6,47.1,106.5,112,128,183.7c6.2,20.5,10.3,41.6,12.4,62.8c0.8,7.7,13.5,6.6,12.7-1.1c-6.9-69-35-135.8-79.6-191
					c18.8,17.8,35.6,37.4,50.1,58.5c12.8,18.7,23.6,38.4,32.3,59.1C2441.3,1387.1,2453.3,1383,2450.3,1375.8z"/>
				<g>
					<path class="st17" d="M1509.3,1570.1c-53.3,0-96.6-41.3-96.6-92.1c0-50.8,43.3-92.1,96.6-92.1c53.3,0,96.6,41.3,96.6,92.1
						C1605.9,1528.7,1562.6,1570.1,1509.3,1570.1z M1509.3,1435.6c-25.8,0-46.7,19-46.7,42.3c0,23.3,21,42.3,46.7,42.3
						c25.8,0,46.7-19,46.7-42.3C1556.1,1454.6,1535.1,1435.6,1509.3,1435.6z"/>
				</g>
			</g>
		</g>
	</g>
</g>
<g id="Layer_4">
</g>
</svg>
