<?xml version="1.0" encoding="utf-8"?>
<!-- Generator: Adobe Illustrator 23.0.3, SVG Export Plug-In . SVG Version: 6.00 Build 0)  -->
<svg version="1.1" xmlns="http://www.w3.org/2000/svg" xmlns:xlink="http://www.w3.org/1999/xlink" x="0px" y="0px"
	 viewBox="0 0 2953 2318.5" style="enable-background:new 0 0 2953 2318.5;" xml:space="preserve">
<style type="text/css">
	.st0{display:none;}
	.st1{display:inline;}
	.st2{display:inline;opacity:0.44;}
	.st3{display:inline;opacity:0.45;}
	.st4{clip-path:url(#SVGID_2_);}
	.st5{fill:#101820;}
	.st6{clip-path:url(#SVGID_4_);}
	.st7{fill:#2C2B3C;}
	.st8{fill:#60BBC5;}
	.st9{fill:#FF7D40;}
	.st10{fill:#E10000;}
	.st11{clip-path:url(#SVGID_6_);}
	.st12{clip-path:url(#SVGID_8_);}
	.st13{fill:#2F52EF;}
	.st14{opacity:0.26;fill:#60BBC5;}
	.st15{fill:#010101;}
	.st16{clip-path:url(#SVGID_10_);}
	.st17{fill:#DF271C;}
	.st18{opacity:0.32;fill:#2F52EF;}
	.st19{clip-path:url(#SVGID_12_);}
	.st20{fill:#FF894A;}
</style>
<g id="Layer_2" class="st0">
</g>
<g id="Layer_3">
</g>
<g id="Layer_1">
	<g>
		<defs>
			<rect id="SVGID_1_" x="15.5" y="2" width="2953" height="2318.5"/>
		</defs>
		<clipPath id="SVGID_2_">
			<use xlink:href="#SVGID_1_"  style="overflow:visible;"/>
		</clipPath>
		<g class="st4">
			<path class="st5" d="M98.5,1459.6l0.1-945.1h945.1c0,0,1813.6,1813.7,1944.1,1944.2c261,261,261,684.1,0,945.1
				c-261,261-684.1,261-945.1,0C1912.2,3273.3,98.5,1459.6,98.5,1459.6"/>
		</g>
		<g class="st4">
			<defs>
				<polygon id="SVGID_3_" points="1121.1,2482.3 2656.8,2677.3 2656.8,777.9 1835.5,131 882.8,257 22.3,1674.4 798.2,2159.4 				
					"/>
			</defs>
			<clipPath id="SVGID_4_">
				<use xlink:href="#SVGID_3_"  style="overflow:visible;"/>
			</clipPath>
			<g class="st6">
				<path class="st7" d="M2591.3,1533.5c-0.9,4.5-1.8,8.9-2.8,13.2c-37.1,154.9-186.4,234.5-259.2,264.7c-10,4.2-18.5,7.4-25.1,9.7
					c-9.6,3.4-15.2,5-15.2,5l5.9,94l0.8,13.3l4.5,71l0.8,13.5l3.5,55.6l0.8,13.3l6.7,107l0.8,13.5l5.4,85.8l0.8,13.4l0.7,11.9H915.1
					l7.8-69.4l1.6-14l11.5-102.6l1.6-13.9v0l12.7-113.6l1.5-13.6l9.8-87.2l1.7-15.2l4.4-39.2c-70.1-4.5-124.4-21-165-46.8
					c-4-2.5-7.9-5.2-11.7-7.9c-30.1-21.7-51.8-49-66.4-80.5v0c-2.3-4.9-4.4-10-6.4-15.1c-20.8-54.7-22.2-120.5-9.6-190.8
					c0.8-4.6,1.7-9.2,2.6-13.8c17.1-84.5,53.4-174.9,99.8-260.2c2.7-5,5.5-10,8.2-14.9c52.5-93.5,116.7-179.9,180-244.6
					c1.9-1.9,3.8-3.9,5.7-5.8c3.7-3.7,7.4-7.4,11.1-11c24.4-23.8,49.3-45.7,74.4-65.8c3.8-3,7.5-6,11.3-8.9
					c35.2-27.5,70.7-51.5,105.7-72.6c4.1-2.5,8.2-4.9,12.3-7.3c21.9-12.8,43.6-24.4,64.9-35c4.1-2,8.2-4,12.2-6
					c61.1-29.4,118.6-50.2,167.8-64.8c22.6-6.7,43.4-12.1,62.1-16.4c20.3-4.7,38-8.2,52.6-10.6c0,0,0,0,0,0h0
					c26.1-4.5,42-5.9,44.6-6c16.6-0.8,33.4-0.8,50.2,0.1c0,0,0,0,0,0c9.8,0.5,19.7,1.3,29.5,2.4c24,2.5,48,6.7,72,12.1
					c0.1,0,0.1,0,0.2,0c0.1,0,0.3,0.1,0.5,0.1c0.2,0,0.5,0.1,0.8,0.2c58.2,13.2,116,34,171.5,58.9c4.9,2.2,9.8,4.4,14.6,6.7
					c48.7,22.7,95.3,48.3,138.4,74.5c4.2,2.6,8.4,5.2,12.6,7.7c35.4,21.9,68.2,44.1,97.5,65c3.9,2.7,7.7,5.5,11.4,8.2
					c83.6,60.5,136.4,108.8,136.4,108.8c77.9,85.7,133.3,163.2,170.9,233.1c2.2,4.1,4.3,8.2,6.4,12.2c15.6,30.2,27.8,59,37,86.4
					c1.6,4.6,3.1,9.3,4.4,13.8C2598.9,1423.1,2601.2,1482.3,2591.3,1533.5z"/>
				<path class="st8" d="M2591.3,1533.5c-0.9,4.5-1.8,8.9-2.8,13.2c-37.1,154.9-186.4,234.5-259.2,264.7c-10,4.2-18.5,7.4-25.1,9.7
					c-9.6,3.4-15.2,5-15.2,5l5.9,94l0.8,13.3l4.5,71l0.8,13.5l3.5,55.6l0.8,13.3l6.7,107l0.8,13.5l5.4,85.8l0.8,13.4l0.7,11.9H915.1
					l7.8-69.4l1.6-14l11.5-102.6l1.6-13.9v0l12.7-113.6l1.5-13.6l9.8-87.2l1.7-15.2l4.4-39.2c-70.1-4.5-124.4-21-165-46.8
					c-4-2.5-7.9-5.2-11.7-7.9c-30.1-21.7-51.8-49-66.4-80.5v0c-2.3-4.9-4.4-10-6.4-15.1c-20.8-54.7-22.2-120.5-9.6-190.8
					c0.8-4.6,1.7-9.2,2.6-13.8c17.1-84.5,53.4-174.9,99.8-260.2c2.7-5,5.5-10,8.2-14.9c52.5-93.5,116.7-179.9,180-244.6
					c1.9-1.9,3.8-3.9,5.7-5.8c3.7-3.7,7.4-7.4,11.1-11c24.4-23.8,49.3-45.7,74.4-65.8c3.8-3,7.5-6,11.3-8.9
					c35.2-27.5,70.7-51.5,105.7-72.6c4.1-2.5,8.2-4.9,12.3-7.3c21.9-12.8,43.6-24.4,64.9-35c4.1-2,8.2-4,12.2-6
					c61.1-29.4,118.6-50.2,167.8-64.8c0.2,1.9,11.8,139.2,70.1,259.7c15.6,32.3,34.6,63.4,57.6,90.3c7.4,8.6,14.5,14.9,21.5,19.1
					c2.2,1.4,4.4,2.5,6.6,3.4c2.9,1.2,5.8,2.1,8.6,2.6c0.3,0.1,0.7,0.1,1,0.2c33.9,5.1,61.7-40.3,83.6-101.9
					c41-115.1,61.4-286.9,62-291.8c0,0,0-0.1,0-0.1c0,0,0.1,0,0.2,0c0.1,0,0.3,0.1,0.5,0.1c0.2,0,0.5,0.1,0.8,0.2
					c58.2,13.2,116,34,171.5,58.9c4.9,2.2,9.8,4.4,14.6,6.7c48.7,22.7,95.3,48.3,138.4,74.5c4.2,2.6,8.4,5.2,12.6,7.7
					c35.4,21.9,68.2,44.1,97.5,65c3.9,2.7,7.7,5.5,11.4,8.2c83.6,60.5,136.4,108.8,136.4,108.8c77.9,85.7,133.3,163.2,170.9,233.1
					c2.2,4.1,4.3,8.2,6.4,12.2c15.6,30.2,27.8,59,37,86.4c1.6,4.6,3.1,9.3,4.4,13.8C2598.9,1423.1,2601.2,1482.3,2591.3,1533.5z"/>
				<g>
					<path class="st7" d="M1890.1,479.6c-16.1-21.6-39.9-40-45.2-67.8c-2.8-14.9-0.4-30.2-1.6-45.2c-1-12.8-4.9-24.5-12.4-35
						c-14.5-20-38-31.8-59.3-43.1c-26.3-13.9-53.8-27.4-83.4-32.3c-0.2,0-0.4-0.1-0.6-0.1c-2-0.3-4-0.6-6-0.9
						c0.9-2.3,1.6-4.6,2.4-6.9c3-9.6,4.8-19.5,4.5-29.7c-0.6-19.7-9.6-39.4-27.7-48.7c-38.8-20-72.9,25.1-81.2,58.4
						c-0.8,3.4-1.5,6.8-2,10.2c-1.7,11.6-1.4,23.3,0.9,34.8c-0.5,0-0.9,0.1-1.4,0.1c-5.1,0.3-10.2,0.2-15.5-0.3
						c-14.3-1.2-28.3-2.7-42.5,0c-25.8,4.9-48.4,20.1-68.4,36.6c-19.9,16.4-39.9,34.1-56.4,54c-8,9.7-14.9,20.1-19.7,31.7
						c-5.2,12.4-6.7,25.3-6.9,38.6c-0.2,14,0.7,29.1-5.9,41.9c-6.2,12-16.9,20.6-24.4,31.7c-6.2,9.1-10,20.9-7.7,31.9
						c2.3,10.9,11.2,18.1,21.9,20.3c10.9,2.2,22.5,0.2,33.1,3.8c10.7,3.6,15.7,14.4,20.5,23.7c5.1,9.9,10.9,19.4,20.8,25.1
						c10.1,5.8,22,7.2,33.4,6.6c23.9-1.5,46.4-12.2,70.5-11.5c6.2,0.2,12.2,1.2,17.7,3.6c3.2,1.3,6.1,3.1,8.8,5.4
						c-0.4,0.3-0.8,0.5-1.1,0.8c-4.6,3.5,1.5,10.1,6.1,6.6c13.4-10.2,31.1-13.6,47.3-10.2c5,2.3,10.2,4.1,15.5,5.7
						c0.8,0.4,1.5,0.8,2.3,1.3c1.4,0.8,2.8,0.9,3.9,0.3c15.8,3.7,32.4,4.2,48.6,1.5c4.4-0.8,8.9-1.8,13.2-3
						c8.2-2.4,16.2-5.7,23.7-9.8c11.1-6.2,23.1-17.6,36.6-17.1c11.4,0.4,18.8,11.6,28.8,15.8c9.5,4,19.1,0.3,24.5-8.1
						c5.2-8.1,6.2-19,13.3-25.9c7.6-7.4,19.6-6.5,29.4-6c10.8,0.5,22.1,1.7,32.5-1.7c10.3-3.3,18.1-10.7,22.5-20.5
						C1913.9,522.9,1904.4,498.7,1890.1,479.6z"/>
					<path class="st9" d="M1555.3,496.7l-13.1,189c13.3,36.5,163.1,31.8,160.3-4.5c-2.2-27.8-12.1-67.4-17.8-96.6
						c-1.1-5.6-2.1-10.8-3.1-15.4c-2.5-12-4.4-20.3-5.4-22.1L1555.3,496.7z"/>
					<g>
						<path class="st9" d="M1493.1,440.3c2.7-22.8,11.8-35.6,14.7-42.6c47.4-111.6,228.7-74.9,232.1,43c1.6,0.2,3.2,0.4,4.8,0.7
							c17.9,3.7,34.9,15.8,40.9,32.9c6.9,19.5-1.7,40.4-19.1,52c-19.7,13.1-43.6,10.6-65.4,4.6c-19.1,17.9-44,30.2-71.7,33.2
							c-44.5,4.8-92.9-15.8-118.5-50.2c-25.1,8.4-60.2-3.4-65.9-29.3C1438.8,455.9,1467,437.6,1493.1,440.3z"/>
						<path class="st7" d="M1602.7,465.1c4.4-12.8,5.8-26,3.6-39.4c-1.6-9.7,13.9-13.9,15.5-4.1c2.7,16.1,1.7,32-3.6,47.6
							C1615.1,478.6,1599.5,474.6,1602.7,465.1z"/>
						<path class="st7" d="M1463,474.7c4.3-12.2,21.3-16.9,32-9.7c4.4,3-0.2,9.7-4.6,6.7c-5.9-4-15.5-2.1-18.9,4.3
							c-4.2,8,4.8,17.4,13.4,16.3c5.3-0.7,6.9,7.2,1.6,7.9C1472.2,502.1,1458.1,488.5,1463,474.7z"/>
						<path class="st7" d="M1733.6,498.1c6.7,2.7,15.9,0.3,18.6-6.7c3-7.6-5.1-16-13.1-14.7c-5.3,0.8-6.9-7.1-1.6-7.9
							c13.2-2,26.1,9.9,23.3,22.8c-2.6,12.5-18.2,19-30,14.2C1725.9,503.7,1728.6,496.1,1733.6,498.1z"/>
						<path class="st7" d="M1574.4,435.7c-6,12-22,11.8-27.4-0.7c-2.8-6.4-12.3-1.3-9.6,5c8.4,19.6,36.6,20.6,46.1,1.4
							C1586.7,435.2,1577.5,429.4,1574.4,435.7z"/>
						<path class="st7" d="M1654.6,435.7c6,12,22,11.8,27.4-0.7c2.8-6.4,12.3-1.3,9.6,5c-8.4,19.6-36.6,20.6-46.1,1.4
							C1642.4,435.2,1651.5,429.4,1654.6,435.7z"/>
						<path class="st7" d="M1591.9,396c-20.6-4.7-42.6-0.1-59.6,12.5c-6.5,4.8,0.7,15.2,7.2,10.3c14.5-10.8,32.7-14.4,50.3-10.4
							C1597.7,410.3,1599.8,397.8,1591.9,396z"/>
						<path class="st7" d="M1699.5,404.9c-18-15-40.9-22.5-64.2-21.3c-8.1,0.4-6.8,13,1.2,12.6c20-1,39.6,5.7,55,18.6
							C1697.7,419.8,1705.7,410.1,1699.5,404.9z"/>
						<path class="st7" d="M1647.4,500.7c-7.5,13.7-24.1,18.2-37.4,9.8c-4.9-3.1-9.7,4.5-4.8,7.6c17.2,10.9,40,5.3,49.8-12.6
							C1657.8,500.4,1650.1,495.6,1647.4,500.7z"/>
					</g>
					<path class="st7" d="M1614,562.7c-21.8,2.8-44-2.3-62.2-14.5c-4.8-3.2-9.6,4.1-4.8,7.3c20.3,13.6,44.8,19.1,69,16
						C1621.8,570.8,1619.7,562,1614,562.7z"/>
					<path class="st7" d="M1761.5,394c-1.4-17.8-9.8-34-22.3-46.5c-28.8-29.1-71.6-35.9-110.6-38.8c-22.7-1.7-45.9-0.7-66.9,9
						c-2.7,1.2-2.9,3.9-1.8,5.9c-8.2,0.6-16.4,3.7-23.8,7.4c-11.4,5.6-22.4,12.7-30.9,22.1c-19.9,22.1-20.5,51.8-19.8,79.8
						c0.1,2.6,1.9,4.1,3.9,4.4c0.6,1.5,2.2,2.6,3.7,2.8c2,0.3,4.1-0.5,4.7-3.1c2.5-10.7,6.8-20.7,13.2-29.6
						c6.7-9.4,15.6-16.5,24.9-23.2c12.3-8.9,25.7-19,32.4-32.6c2.2,2.7,4.8,5.1,7.6,7.1c13.6,9.6,31.7,7.7,47.4,7.2
						c32.5-1.1,67.2,5.9,91.3,29.2c12.1,11.7,20.7,26.5,23.6,43.2c0.5,2.8,3.9,4.2,6.3,3.1c0.4-0.2,0.8-0.5,1.1-0.8
						C1757.5,428.3,1762.8,411.1,1761.5,394z"/>
					<path class="st10" d="M1514.2,530.8c-2-4.4-5.3-7.8-9.2-9.9c1.2-1.7,2-3.8,2.1-5.9c0.3-3.6-1.1-7.3-4.3-9.6
						c-2.7-2-6.1-2.2-8.9-1.3c-0.6,0-1.1,0-1.7,0.2c-5.1,1.7-8.5,6.4-8,11.5c0.1,1.4,0.5,2.8,1.3,4.2c0,0.1,0.1,0.1,0.1,0.2
						c-1.2,0.6-2.4,1.2-3.5,2c-11.8,8.5-12.1,26.4-0.9,35.6c10.4,8.6,28,7.1,34.3-5.7C1519.2,544.8,1518.1,537.1,1514.2,530.8z
						 M1506.4,543.6c-0.8,8.2-10.4,10.3-16.6,6.6c-6.3-3.8-7.7-13.2-1.9-18.2c2.9-2.5,6.2-3.1,9.2-2.2
						C1499.7,531.2,1507.4,533.7,1506.4,543.6z"/>
					<path class="st10" d="M1745.7,536.3c-0.6-0.5-1.3-0.9-2-1.3c-0.5-0.3-1-0.6-1.6-0.8c0-0.1,0.1-0.1,0.1-0.2
						c3.5-6.3-0.2-13.5-6.7-15.7c-0.6-0.2-1.1-0.2-1.7-0.2c-2.9-1-6.2-0.7-8.9,1.3c-5.1,3.7-5.5,10.7-2.1,15.5
						c-0.1,0.1-0.3,0.2-0.4,0.3c-3.7,2.1-6.8,5.4-8.8,9.6c-3.9,6.3-5,14-1.3,21.4c6.3,12.8,24,14.2,34.3,5.7
						C1757.8,562.7,1757.5,544.8,1745.7,536.3z M1738,564.2c-6.2,3.7-15.7,1.6-16.6-6.6c-1-10,6.7-12.4,9.2-13.8
						c3-0.9,6.3-0.3,9.2,2.2C1745.7,551,1744.3,560.4,1738,564.2z"/>
					<path class="st10" d="M1687.2,253.4c-0.5-1.1-1-2.1-1.6-3.2c-0.4-0.8-1-1.4-1.7-1.8c-1.3-0.7-3-0.8-4.4-0.1
						c-20.5,10.2-42.8,16-65.6,17c17.3-7.2,33.6-17.3,41.6-35c1.4-3,0.1-6.8-3.7-6.9c-24.5-0.5-47.4,13.4-58.8,34.7
						c-3.9-7.4-9.2-14-15.6-19.5c-8.8-7.6-19.6-13-31.2-15.2c-2.9-0.5-7,1.8-5.7,5.3c6.7,18.1,19.3,33.4,36.1,42.9
						c0,0.6,0.1,1.2,0.3,1.8c0.6,1.5,1.8,2.8,3.9,3c18.7,1.7,37.6,1.2,56.3-1.4c16.3-2.3,47.8-15.4,48.1-15.5
						c1.4-0.5,2.2-1.9,2.3-3.4C1687.7,255.2,1687.6,254.2,1687.2,253.4z"/>
				</g>
				<path class="st7" d="M1464.5,698.1c0,0-28.6-78.5,59.4-41.2c88,37.3,191-3.5,191-3.5s71.3-47.8,60.7,26.2
					c-10.6,74-61.9,159.7-61.9,159.7S1514.4,788.1,1464.5,698.1z"/>
				<path class="st7" d="M1257.1,2124.9c-5,28.9-23,55.2-47.9,70.7c-58.7,36.3-130.1,6.3-184.7-22.7c-26.9-14.3-57.3-31-88.6-40.5
					l1.6-13.9c32.5,9,62.4,25.9,92,41.7c29.1,15.5,59.1,30.4,91.9,35.9c30.1,5,63.5,2,88.3-17.4c22.5-17.6,36.2-45.5,35.4-74.2
					c-0.8-29.1-17.1-57.5-41.7-73.1c-26.8-17.1-59.7-18.3-90.5-17.1c-32.7,1.2-65,4.6-97.8,1.8c-22-1.9-43.7-5.6-65-11.2l1.5-13.6
					c34,9.1,69.4,13.3,104.8,12.4c61.1-1.6,136.4-16.3,179.6,39.5C1254,2066.4,1262.1,2096,1257.1,2124.9z"/>
				<path class="st7" d="M2295.7,1933.5c-44.4-1.5-89.4,12.8-127.2,35.1c-56.6,33.4-101.3,82.8-146,130.1
					c-43.5,46.1-89.2,92.3-145.8,122.3c-49.1,26-105.2,36.7-159.7,23.2c-25-6.2-48.6-17.7-68-34.6c-20.5-17.9-34.2-41.6-42.6-67.3
					c-18.4-55.4-12.6-117.5-38.8-170.6c-24.5-49.7-76.1-75.7-129-83.9c-64-9.8-127,6.6-188.5,23.2c-60.8,16.4-122.7,33.4-186.3,27.3
					c-36.1-3.5-72.4-14-102.2-34.2l1.7-15.2c43.5,32.3,101,40.2,153.8,36.2c68.7-5.2,133.9-31.1,200.9-44.9
					c55.7-11.4,114.2-14,168.4,5.9c24.5,9,47.5,22.4,65.9,41c19.6,19.9,32.2,45,39.7,71.7c15.7,55.3,10.8,117.5,39.9,168.7
					c26.6,46.8,80,68.3,132,69c130.5,1.7,217.2-118.2,300.5-201.1c44.1-44,93.9-85,154.2-104.1c24.5-7.7,50.5-11.9,76.3-11.2
					L2295.7,1933.5z"/>
				<path class="st7" d="M2312.8,2207.4c-18-1.6-36-3.9-52.3-12.6c-22.7-12.1-33.9-36.5-27.9-61.5c6.2-25.8,27.2-46.3,51.9-54.9
					c6.5-2.3,13.2-3.8,19.9-4.8l0.8,13.3c-10.5,1.7-20.5,4.9-29.8,10.4c-19.1,11.4-35.3,35.6-30.2,58.5
					c5.6,25.6,33.4,33.8,56.1,36.9c3.5,0.5,7,0.9,10.6,1.2L2312.8,2207.4z"/>
				<path class="st7" d="M2319,2306.6c-11.9,0.9-23.8,2.1-35.6,3.1c-57.4,4.7-126.6,3.4-165.5-46.6c-31.9-40.9-33.3-99.7-11.6-145.5
					c24.3-51.3,76.2-84.5,129-100.7c21.2-6.5,42.9-10.3,64.8-12.4l0.8,13.5c-27.5,2.6-54.5,8.1-80.5,18.4
					c-49.2,19.4-95.2,56-110,108.6c-13.5,47.9-0.7,104.8,43.5,132.2c49,30.4,109,20.2,164.3,15.9L2319,2306.6z"/>
				<path class="st7" d="M1429.8,1024.1c0,31.3-27.5,54.9-56,61.6c-33.2,7.8-70-1.2-101.4-12.4c-61.1-21.8-114.7-63.2-150.5-117.4
					c-13-19.7-23.6-41-31.6-63.3c3.8-3,7.5-6,11.3-8.9c10.3,30.3,25.6,58.9,45.6,84.1c38.4,48.5,92.6,83.9,152.4,99.7
					c30.6,8.1,69.3,14.3,96.4-6.6c10.8-8.3,19.4-20.4,20.3-34.3c0.9-14.7-6.5-28-16.5-38.3c-23.5-24-58.1-28.7-88.1-40.2
					c-28.8-11-52.4-29.6-70.2-54.7c-17.8-25.1-28.1-53.1-34.1-82.4c4.1-2.5,8.2-4.9,12.3-7.3c8.1,43.7,25.3,84.6,61.8,112.7
					c28.8,22.1,65.2,25.9,97.3,41C1404.6,969.6,1429.8,993.6,1429.8,1024.1z"/>
				<path class="st7" d="M1963.1,745.6c-11.8,7.3-23.1,15.3-33.9,23.9c-31.3,25.1-58.2,55.4-78.5,90c-23.3,39.7-34.2,83-42.5,127.9
					c-8.8,48-16.8,97.6-43.9,139.3c-9.6,14.7-21.4,28.5-35.1,39.6c-17.9,14.5-38.9,24.6-62.5,26.7c-7.9,0.7-15.6,0.5-23.1-0.5
					c-9.8-1.3-19.2-4-28.3-7.7c-21.2-8.7-40.4-23.1-56.9-39.3c-11.7-11.5-22.4-23.9-32.6-36.8c-20-25.4-37.9-52.8-56.5-79
					c-61.6-86.9-123.3-173.8-184.9-260.7c4.1-2,8.2-4,12.2-6c3.1,4.3,6.1,8.7,9.2,13c65.4,92.2,130.7,184.3,196.1,276.5
					c6.9,9.8,14.6,20.7,22.8,31.8c25.3,34.1,56.5,70.8,93,87.3c7.3,3.3,14.7,5.8,22.4,7.3c19.4,3.8,40,1.3,61.7-10.3
					c9.5-5.1,18.1-11.4,25.8-18.5c23.4-21.7,39.3-51.8,48.7-81.9c15.6-49.7,18.6-102.4,34.2-152.1c23-73.2,73.9-135.2,137.7-177
					C1953.4,741.1,1958.2,743.3,1963.1,745.6z"/>
				<path class="st7" d="M2578.2,1355.3c-10,7.1-20.3,13.7-31.2,19.5c-42.7,23.1-92.1,32.1-139.9,22.7c-45.6-9-84.2-36.5-103.8-79.1
					c-18.7-40.7-21.6-87.1-41.8-127.1c-9.3-18.5-23.4-34.5-42.9-42.5c-17.7-7.4-37.2-7.5-55.8-4.3c-42.2,7.4-80.5,28.1-121.8,38.5
					c-39.8,10-84.2,6.6-110.3-29.2c-34.5-47.4-18.6-107.9,7.8-154.9c39.7-70.7,96.6-132,163-179c4.2,2.6,8.4,5.2,12.6,7.7
					c-32.1,22.3-61.9,48-88.6,76.5c-18.5,19.7-35.5,40.7-50.9,62.9c-16.2,23.4-31.8,48.2-41.5,75.2c-9.1,25.3-12.3,52.5-4.1,78.5
					c6.7,21.5,21.8,40.3,43,48.7c36.5,14.4,77.6-2,112.1-14.6c36.2-13.3,75.6-30.3,115.1-25c19.5,2.6,37.5,10.9,51.9,24.3
					c14.9,14,24.3,32.6,31.2,51.6c14.8,40.6,18.8,85.8,41.9,123c23.8,38.4,68.5,56.7,112.2,58.7c52.6,2.4,97.7-16.8,137.4-46
					C2575.3,1346.1,2576.8,1350.7,2578.2,1355.3z"/>
				<path class="st7" d="M2536.8,1255c-3.5,1.3-7.2,2.3-10.9,3c-24.8,4.9-49.5-1.8-69.3-17.3c-43.7-34-54.8-89.8-73.4-138.8
					c-9.5-25-21.9-48.9-41.8-67.1c-8.8-8-19.1-14.7-30.4-18.6c-12.4-4.2-25.1-4.5-38-3.4c-24.2,2.1-50.5,9.4-73.8-1
					c-20.2-9-30.7-29.2-30.4-50.8c0.4-31.7,18.9-53,42.8-68.3c3.9,2.7,7.7,5.5,11.4,8.2c-8.7,5.2-16.9,11.3-23.9,18.8
					c-14.6,15.6-22.2,41.3-13,61.5c9.8,21.6,34,23.7,54.9,21.8c23.1-2.1,46.3-7.6,69.2-1.2c46.3,12.8,72,58.1,87.4,100.1
					c16.5,44.9,27.6,99.2,68.6,129.2c16.5,12.1,36.3,17.8,56.6,13.7c2.6-0.5,5.1-1.2,7.6-2C2532.6,1246.9,2534.7,1251,2536.8,1255z"
					/>
				<path class="st7" d="M2029.3,1838.4c-60.1,50.7-148.8,60.8-218,22.8c-32.6-17.9-60.3-44.9-78.3-77.6
					c-21-38-25.6-81.8-38.6-122.7c-11.5-36.1-31.5-70-65.9-88.6c-30-16.2-65.3-14.3-90.7,9.5c-22.5,21.1-33.2,51.3-48.4,77.4
					c-7.5,12.9-16.2,25.2-28,34.6c-11.9,9.4-26.4,14.8-41.2,17.7c-31.8,6.2-64.7,2.2-96.8,1.6c-29.5-0.5-61.8,1-87.1,18.2
					c-6.1,4.1-11.6,8.9-16.4,14.5c-5.7,6.5,3.4,16.5,9.2,10c20.6-23.5,50.9-28.7,80.8-29.1c32.2-0.5,64.4,3.6,96.6,0.4
					c31.3-3,59.6-14.3,79.8-39.2c19.7-24.2,29.5-54.3,47-79.9c8.2-11.9,18.4-22.4,31.7-28.4c15.8-7.1,33.5-5.7,49.2,0.8
					c37.3,15.6,57.6,52.4,68.6,89.2c12.1,40.6,17.5,83.6,38.5,121.1c17.9,31.9,44.3,59,75.6,77.9c66.7,40.2,152.8,38.4,218.4-3.4
					c8-5.1,15.6-10.7,22.9-16.9C2045.2,1842.8,2036,1832.8,2029.3,1838.4z"/>
				<path class="st7" d="M1544.8,2318.5h-15.5c-12.5-22.4-22.5-46.2-29.7-70.9c-6.5-22.5-10.2-45.6-11.9-69
					c-2.1-29.1-1.8-58.5-8.3-87c-10.4-45.6-41.1-85-82.5-106.6c-45.2-23.5-101.1-22.4-146,0.9c-7.7,4-14.1-8-6.3-12
					c50.9-26.4,113.8-26.1,164,2.1c40.7,22.8,71.2,62.6,82.9,107.7c7.2,27.8,7.5,56.7,9.2,85.2c1.5,25,4.8,49.6,11.7,73.8
					C1519.8,2269.2,1530.8,2294.7,1544.8,2318.5z"/>
				<path class="st7" d="M1373,2318.5h-13.4c5.3-32.5,14.4-64.8,20.2-96.9c9.9-54.8,7.4-125.5-43.7-160.1c-7.2-4.9,0-16.4,7.2-11.5
					c26,17.6,41.9,45.2,49.3,75.3C1408.8,2190.6,1383.9,2254.4,1373,2318.5z"/>
				<path class="st7" d="M2065.5,2160c-17.9,30.3-39.9,58.1-65,82.7c-31.4,30.6-67.6,56.1-106.9,75.8H1861
					c79.6-33.2,149-90.9,193-165.6C2058.5,2145.3,2070,2152.5,2065.5,2160z"/>
				<path class="st7" d="M1871.2,2031.9c-22.9,11.7-49.4,8.7-72.1-2.1c-24.7-11.9-43.6-31.4-58.3-54.3
					c-29.8-46.4-45-101.6-83.6-142.3c-20-21.1-45-36.7-74.1-40.5c-8.6-1.1-9,12.4-0.4,13.6c56.2,7.4,88.5,62.7,111,108.7
					c24.3,49.7,48.4,103.9,101.9,128c26.1,11.8,55.9,14.3,81.9,0.9C1885.3,2039.9,1879,2027.9,1871.2,2031.9z"/>
				<path class="st7" d="M2011.4,1947c-22.5,23.3-49.1,41.6-79,54.3c-8.1,3.4-1.7,15.4,6.3,12c30.8-13,58.6-32.2,81.8-56.3
					C2026.6,1950.7,2017.4,1940.7,2011.4,1947z"/>
				<path class="st7" d="M1518.4,1782.3c-77-19.2-159.4-10.8-231,23.6c-7.9,3.8-1.6,15.8,6.3,12c68.3-32.8,147.2-40.9,220.8-22.6
					C1522.9,1797.4,1526.9,1784.4,1518.4,1782.3z"/>
				<path class="st7" d="M1089,2280.8c-34,8.6-64-10.5-94-23.3c-23.2-10-48.1-13.3-72.2-8.4l1.6-14c21-3.6,42.7-2.1,63.1,5
					c31.7,11.1,63.2,36.5,98.5,27.6C1094.5,2265.5,1097.5,2278.7,1089,2280.8z"/>
				<path class="st7" d="M1264,2200.8c-27.9,37.4-72.5,61-119.1,63.1c-8.7,0.4-9.2,13.9-0.4,13.6c51.7-2.3,100.1-28,131-69.5
					C1280.7,2201,1269.1,2193.8,1264,2200.8z"/>
				<path class="st7" d="M1185.1,1167.4c-20.9-8-41-18.3-59.5-30.9c-58.1-39.5-101.9-99.5-120.8-167.1c3.7-3.7,7.4-7.4,11.1-11
					c3.7,14.9,8.6,29.5,14.8,43.5c30.3,68.9,87.8,125.5,158.3,152.4C1197.1,1157.5,1193.3,1170.5,1185.1,1167.4z"/>
				<path class="st7" d="M1459.9,1170.2c-4.7-16.7-17.4-28.5-33.5-34.4c-41.3-15.2-82.2,11.2-121.6,20.2
					c-25.9,5.9-52.4,7.1-78.8,4.1c-8.7-1-9,12.6-0.4,13.6c25.8,2.9,51.9,1.9,77.3-3.3c24.8-5.1,47.7-16.1,72.1-22.1
					c19.8-4.9,43.9-5.8,60.6,8c13.6,11.2,18.1,34.9,3.6,47.2c-6.7,5.6,2.5,15.6,9.2,10C1460.8,1202.9,1464.2,1185.5,1459.9,1170.2z"
					/>
				<path class="st7" d="M2309,1386.6c-21.1-2.2-36.6-19.1-46.4-36.6c-11.4-20.4-16.5-43.5-25.8-64.8
					c-17.8-40.8-56.9-69.7-102.3-69.1c-25.4,0.4-49.8,9.7-69.4,25.8c-6.7,5.6,2.5,15.5,9.2,10c34.6-28.6,84.8-29.3,120.1-1.6
					c36.7,28.7,36.7,78.1,61.5,114.6c12.5,18.4,30,32.9,52.7,35.3C2317.3,1401,2317.7,1387.5,2309,1386.6z"/>
				<path class="st7" d="M2533.7,1417.8c-55.2,26.8-122.7,23-174.7-9.6c-7.4-4.6-14.6,6.9-7.2,11.5c56,35.1,128.7,38.9,188.2,10.1
					C2547.9,1426,2541.5,1414,2533.7,1417.8z"/>
				<path class="st7" d="M1223.4,1291.9c-44.2-27.2-97.5,3.9-140.8,17.4c-21.3,6.7-43.6,10.3-65.8,6.1
					c-18.6-3.5-35.7-12.6-51.3-22.9c-31-20.6-58.8-48-96-57c-19.1-4.6-39.2-4.7-58.6-0.7c2.7-5,5.5-10,8.2-14.9
					c18.6-2.5,37.6-1.6,55.9,3.1c38.7,9.9,67.5,38.6,100.2,59.8c17.3,11.2,36.2,20.1,57.1,21.1c24.7,1.1,48.6-7.5,71.3-16
					c39.9-14.9,87.1-31.8,126.9-7.3C1238,1285,1230.8,1296.5,1223.4,1291.9z"/>
				<path class="st7" d="M1071,1638.1c-14.2,25.9-42.5,41-70.5,46.8c-34.8,7.2-71.6,4.1-105.2,16.8c-44.5,16.8-79.6,55.8-92.7,101.3
					c-4-2.5-7.9-5.2-11.7-7.9c15.4-48.4,53.3-89.2,101.4-106.7c33.8-12.3,70.2-9.5,105.1-16.7c27.5-5.7,58.2-22.1,66.3-51.2
					c8.9-32.2-21.2-56.5-49.7-61.8c-31.4-5.9-66.8,2.5-96,14.3c-29.2,11.7-56,29-78.4,51.1c-11.9,11.6-21.8,24.6-31.6,38
					c-9.7,13.3-19.8,27-33,37c-15,11.4-33.1,17.7-50.6,15.6v0c-2.3-4.9-4.4-10-6.4-15.1c0.8,0.3,1.6,0.5,2.4,0.8
					c40,11.7,66.6-33.8,86.6-59.9c37.8-49.2,94.1-83.6,155.4-94c31.7-5.4,67.3-5,93.2,16.8C1078.1,1582,1085.2,1612.1,1071,1638.1z"
					/>
				<path class="st7" d="M1162.5,1479.7c-30.9-26.7-69-44.3-108.9-52.2c-35.2-7-72.2-6.1-106.9,2.8c-40,10.3-73.9,33.4-109.7,53
					c-35.6,19.5-76.7,35.8-117.9,28c-3.6-0.7-7.1-1.6-10.5-2.6c0.8-4.6,1.7-9.2,2.6-13.8c14.6,4.6,30.6,5.8,45.3,3.9
					c42.3-5.7,78.6-30,114.9-50.6c33.1-18.7,67.7-32.9,105.8-37.1c70.1-7.8,142,13.3,195.5,59.5
					C1179.1,1476.2,1169.1,1485.3,1162.5,1479.7z"/>
				<path class="st7" d="M1218.3,1543.7c-4.2-7.7-16.2-1.4-12,6.3c18.7,34.2,3.4,75.9-32.4,90.5c-8.1,3.3-1.7,15.3,6.3,12
					C1222.7,1635.1,1240.3,1583.8,1218.3,1543.7z"/>
				<path class="st7" d="M1506.8,1454.8c-57.1,76-122.3,145.6-194.3,207.5c-6.6,5.7,2.6,15.7,9.2,10
					c72.9-62.8,138.8-133.4,196.6-210.3C1523.6,1455,1512,1447.9,1506.8,1454.8z"/>
				<path class="st7" d="M2333.7,1516.8c-43.9-61.1-98.1-114.5-159.2-158.4c-61.4-44-129.9-78.3-202-100.8
					c-40.5-12.7-82.2-21.5-124.4-26.5c-8.7-1-9,12.5-0.4,13.6c73.5,8.7,145.7,29.9,212.5,61.9c66.7,31.9,128.5,74.3,182,125.5
					c30,28.7,57.3,60.2,81.5,93.9C2328.8,1533.1,2338.7,1523.8,2333.7,1516.8z"/>
				<path class="st7" d="M2096.1,1805.9c-117.3-47.1-219.4-131.2-289.1-236.7c-19.6-29.7-36.6-61.1-50.9-93.7
					c-3.5-8-15.5-1.7-12,6.3c51.7,118.4,140.6,219.8,250.4,287.8c31.1,19.3,63.8,35.7,97.8,49.3
					C2100.4,1822.1,2104.2,1809.1,2096.1,1805.9z"/>
				<path class="st7" d="M2591.3,1533.5c-0.9,4.5-1.8,8.9-2.8,13.2c-53.2-16.2-113.2-9.5-160.6,20.3c-30.7,19.3-57.8,46.2-93.5,56.2
					c-37.5,10.5-73.2-5.2-104.8-24.6c-31.1-19.1-61.2-42-98.9-45.1c-16.1-1.3-33,1.5-45.7,12c-14.1,11.7-20.3,29.8-20.2,47.8
					c0.1,38.8,29,71.8,55.1,97.5c26.2,25.7,56.6,47.1,89.3,63.7c37.5,19,78.3,31.5,120,36.9c-10,4.2-18.5,7.4-25.1,9.7
					c-44.7-8.6-87.9-25.3-126.7-48.8c-33.1-20-63.3-45.3-88.4-74.8c-25.1-29.6-45.6-67.6-34.7-107.4c4.7-17.3,15.7-32.4,31.4-41.4
					c15.1-8.6,33.3-10.5,50.3-8.3c39.3,5,70,27.8,102.8,47.8c17.2,10.5,35.5,20.3,55.6,23.8c19.9,3.5,39.3-1,57.1-10
					c34.3-17.5,61.4-46,97.1-61.1C2493.5,1521.9,2544.9,1519.7,2591.3,1533.5z"/>
				<path class="st7" d="M1989.6,1514.8c-41.9,39.4-48.1,107.6-15.2,154.4c5,7.1,14.9-2.1,10-9.2c-28.6-40.7-21.7-101.3,14.3-135.2
					C2005.2,1518.8,1996,1508.8,1989.6,1514.8z"/>
				<path class="st7" d="M2213.6,1510.2c-29.6-49.5-80.4-85.3-136.9-97c-56.1-11.6-113.8,2.1-160.2,35.2
					c-26.3,18.7-48.1,43.6-62.9,72.2c-4,7.7,7.5,15,11.5,7.2c24.5-47.4,68.7-83.3,120-98c52.1-15,108.1-5.7,153.9,23
					c25.5,16,47.2,37.8,62.7,63.7C2206.1,1523.9,2218.1,1517.7,2213.6,1510.2z"/>
				<path class="st9" d="M1643.7,1192.4c-1.1-4.6-2.3-9.2-3.4-13.7c-0.4-1.5-0.8-3-1.1-4.5c-2.6-10.6-5-21.2-6.8-31.9v0
					c-1.4-8.3-2.4-16.7-2.9-25.2c-0.7-13.3-0.5-26.6,0.2-39.9c0.1-1.3,0.1-2.5,0.2-3.8c0.3-5.6,0.8-11.3,1.2-16.9
					c3.1-37,7.8-74,5.5-111.1c-0.5-7.2-1.2-14.4-2.2-21.6c0-0.1,0-0.2,0-0.3c-0.6-4.1-6.3-6.7-9.8-4.5c-0.6,0.4-1.1,0.7-1.6,1.1
					c0.1-7.1,0.1-14.3,0.2-21.4c0.1-9,0.5-19.3-2.9-28.1c-1.2-3-2.8-5.9-5-8.4c-4.2-4.7-9.7-6.6-15.1-6.2c-0.4-2.1-1-4.1-1.9-6.1
					c-6.1-13.2-22.5-17.4-32.3-5.7c-4.5,5.3-6.5,12.2-8.5,18.7c-3.1,9.8-6,19.7-8.7,29.7c-4.9,18.2-9.1,36.7-12.5,55.3
					c-0.6,3.3-1.2,6.6-1.7,9.8c-5.7,33.7-9.1,67.8-9.9,101.9c-0.2,8.1-0.1,16.2,0.1,24.4c0.2,8.1,0.6,16.3,1,24.4
					c1,21.6,2,43.2,0.4,64.7c-2.3,31.6-13.3,65.7-39.8,84.5c-0.4,0.3-0.7,0.5-1.1,0.7c-2.3,1.6-4.7,3-7.2,4.4
					c-1.5,0.8-2.5,1.9-3,3.1c-1.4,3.3,0.3,7.4,3.4,9c0.7,0.4,1.5,0.6,2.3,0.7c0.3,2.5,0.5,5,0.8,7.5c4.1,39,8.1,78,12.2,117
					c-2.9,1.1-5.7,2.3-8.6,3.4c-8.1,3.2-1.7,15.2,6.3,12c11.4-4.5,23.2-9.2,34.9-14.4c0.9-0.4,1.9-0.8,2.8-1.2
					c3.2-1.4,6.3-2.9,9.5-4.4c36.2-17,71-38.9,92.5-71.1c7.9-11.7,14-24.9,17.8-39.6C1657.2,1253.9,1651.1,1222.8,1643.7,1192.4z"/>
				<path class="st9" d="M1782.6,1397.2c-2.9-1-5.8-1.9-8.7-2.9c2.1-41.7,4.3-83.3,6.4-125c5.8-0.7,8.7-9.9,2.1-13
					c-1.7-0.8-3.3-1.6-4.8-2.5c-2.9-1.6-5.7-3.4-8.4-5.4c-1.2-0.9-2.4-1.9-3.6-2.9c-21.8-18.4-32.4-48.2-35.9-76.2
					c-0.1-1-0.3-2.1-0.4-3.1c-0.6-5.5-1.1-10.9-1.4-16.4c-2-31.2-0.2-62.7-2.6-93.9c-2.1-28.3-6.1-56.5-11.6-84.4
					c-1.8-8.9-3.7-17.8-5.8-26.6c-4.4-18.4-9.5-36.6-15.4-54.5c-3.2-9.8-6.6-19.5-10.2-29.2c-2.4-6.4-4.8-13.2-9.5-18.3
					c-10.4-11.2-26.6-6.1-31.9,7.4c-0.8,2-1.3,4.1-1.6,6.2c-5.4-0.1-10.8,2.1-14.7,7c-1.8,2.2-3.1,4.7-4.1,7.2
					c-3.5,9.2-2.5,20.1-1.9,29.6c0.4,7.1,0.9,14.3,1.4,21.4c-0.6-0.4-1.1-0.7-1.7-1c-3.6-2-9.1,0.9-9.5,5c-0.2,2-0.4,3.9-0.5,5.9
					c-3,42.6,5,84.6,10.7,126.7c0.6,4.1,1.1,8.2,1.6,12.4c1.9,16,3.3,32,3.2,48c0,17.8-2.5,35.3-5.7,52.7c-0.3,1.6-0.6,3.2-0.9,4.8
					c-0.5,2.8-1.1,5.6-1.6,8.4c-4.1,21.2-8.2,42.8-8.2,64.3c0,12.8,1.6,25.6,5.5,38.2c4.4,13.9,10.8,26.3,18.8,37.2
					c23.7,32.6,61.3,53.2,99.9,68.6c2.2,0.9,4.4,1.7,6.6,2.6c2.1,0.8,4.1,1.6,6.2,2.4c11.1,4.1,22.1,7.9,32.8,11.5
					C1785.1,1412.3,1790.9,1400,1782.6,1397.2z"/>
				<path class="st8" d="M1472.5,1215.1c0.5,4.7,70.3,227.1,70.3,227.1s-106.1,55.3-117.8,48.7
					C1413.3,1484.3,1472.5,1215.1,1472.5,1215.1z"/>
				<path class="st7" d="M1544.6,1410.4l-65-170.9c-3.1-8.2-15.1-1.8-12,6.3c21.7,57,43.4,113.9,65,170.9
					C1535.7,1424.9,1547.7,1418.5,1544.6,1410.4z"/>
				<path class="st8" d="M1778.7,1203.5l-49.3,232.4c0,0,159.9-15,162-21.3C1893.4,1408.3,1778.7,1203.5,1778.7,1203.5z"/>
				<path class="st7" d="M1768.5,1233c-14.3,61.5-28.5,123.1-42.8,184.6c-2,8.5,11,12.4,13,3.9l42.8-184.6
					C1783.4,1228.4,1770.4,1224.5,1768.5,1233z"/>
				<path class="st7" d="M1628.9,1073.1c-4.6-21.8-11.1-43.1-14.7-65.1c-3.8-23.8-3.8-48.3,5.9-70.8c3.5-8-9.6-11.8-13-3.9
					c-18.2,42.2-4.3,88,5.8,130.3c5.5,23.2,9.3,46.4,6.9,70.3c-2.3,23.1-8.4,45.7-11.7,68.7c-3.5,24.6-3.4,49.5,5.9,72.9
					c3.2,8.1,15.2,1.7,12-6.3c-16.6-41.9,1.7-87.5,6.8-129.8C1635.5,1117.1,1633.5,1095.1,1628.9,1073.1z"/>
				<path class="st7" d="M1642.7,926.8c-4.5-7.5-16.5-1.2-12,6.3c9.3,15.6,12.7,33,10.1,50.9c-1.2,8.6,12.3,9,13.6,0.4
					C1657.2,964.5,1653,944.1,1642.7,926.8z"/>
				<path class="st7" d="M1678.8,941c-1.4-21.3-6.6-41.8-15.6-61.1c-3.7-7.9-15.7-1.6-12,6.3c8.1,17.1,12.9,35.5,14.1,54.4
					C1665.8,949.3,1679.4,949.8,1678.8,941z"/>
				<path class="st7" d="M1585.1,904.9c-8.8,15.8-13.7,33-14.3,51.1c-0.3,8.7,13.3,9.2,13.6,0.4c0.5-15.7,4.6-30.6,12.2-44.3
					C1600.8,904.5,1589.4,897.3,1585.1,904.9z"/>
				<path class="st7" d="M1569.4,873.1c-10.5,16.9-16.4,35.9-17.5,55.8c-0.5,8.7,13.1,9.1,13.6,0.4c1-17.5,6.2-34.1,15.5-49
					C1585.5,872.8,1574,865.6,1569.4,873.1z"/>
			</g>
		</g>
	</g>
</g>
<g id="Layer_4">
</g>
</svg>
